<?xml version="1.0" encoding="iso-8859-1"?>
<!-- Generator: Adobe Illustrator 18.1.1, SVG Export Plug-In . SVG Version: 6.00 Build 0)  -->
<svg version="1.1" id="Layer_1" xmlns="http://www.w3.org/2000/svg" xmlns:xlink="http://www.w3.org/1999/xlink" x="0px" y="0px"
	 viewBox="0 0 698 169" style="enable-background:new 0 0 698 169;" xml:space="preserve">
<path style="fill-rule:evenodd;clip-rule:evenodd;fill:#615848;" d="M694.122,139.546H484.207c-1.161,0-3.338,2.516-6.532,7.55
	c-3.193,5.032-6.823,7.548-10.888,7.548c-3.871,0-7.984-3.049-12.34-9.145c-4.355-6.097-8.08-9.147-11.177-9.147v-2.031
	c4.259,0,8.032-3.92,11.322-11.759c3.291-7.838,7.356-11.759,12.195-11.759c4.259,0,7.79,2.372,10.597,7.113
	c2.807,4.742,6.049,7.114,9.726,7.114h141.104c2.322,0,4.451-2.129,6.388-6.388c0.774-2.71,1.646-5.42,2.613-8.129h2.323
	c3.484,9.096,5.806,13.645,6.967,13.645c0.581,0,1.742-2.032,3.485-6.097c0.968-2.516,2.032-5.032,3.193-7.548h2.613
	c2.516,9.096,4.742,13.645,6.677,13.645c0.968,0,2.324-1.838,4.065-5.516c1.743-3.679,2.807-6.387,3.194-8.129h2.032
	c0.775,2.321,2.082,4.984,3.919,7.984c1.839,2.999,3.242,4.499,4.211,4.499c1.161,0,2.274-1.065,3.338-3.193
	c1.065-2.129,1.598-4.259,1.598-6.388c0-5.42-1.161-10.451-3.484-15.097l12.775-16.259V139.546L694.122,139.546z M449.948,158.128
	c-7.936-4.839-11.904-12.388-11.904-22.645V6.282c-4.064,6.969-6.872,12.484-8.421,16.55v117.006
	c-0.192,7.161,2.711,12.291,8.711,15.388C441.819,157.16,445.689,158.128,449.948,158.128L449.948,158.128z M422.947,139.546
	h-63.874V125.61c0-6.775,3.387-13.452,10.162-20.033c8.323-7.935,13.065-13.452,14.227-16.549l1.741-0.289v26.42
	c0,5.225,1.838,7.839,5.516,7.839c3.679,0,5.518-2.516,5.518-7.549V24.864c1.548-4.259,4.16-9.678,7.838-16.26v106.554
	c0,5.225,1.742,7.839,5.226,7.839c1.355,0,2.516-0.919,3.484-2.758c0.969-1.838,1.452-3.533,1.452-5.081V24.864
	c1.355-4.259,4.258-10.549,8.71-18.873V139.546L422.947,139.546z M364.008,158.128c-7.936-4.839-11.903-12.388-11.903-22.645V6.282
	c-4.065,6.969-6.872,12.484-8.421,16.55v117.006c-0.194,7.161,2.71,12.291,8.71,15.388
	C355.88,157.16,359.75,158.128,364.008,158.128L364.008,158.128z M337.006,139.546H323.07v1.742c0,7.549-2.177,13.743-6.532,18.581
	c-4.355,4.84-10.597,7.258-18.727,7.258c-6,0-10.064-0.677-12.194-2.033l4.065-11.031c2.129,0.58,4.354,0.871,6.678,0.871
	c9.678,0,14.517-3.581,14.517-10.743c0-6-4.162-8.999-12.484-8.999c1.742-5.226,4.065-11.323,6.969-18.292
	c2.129,0,4.839,1.161,8.129,3.484c3.29,2.323,5.614,4.936,6.967,7.839h1.743c4.065,0,6.097-2.516,6.097-7.549v-95.81
	c1.355-4.259,4.259-10.549,8.71-18.873V139.546L337.006,139.546z M293.166,125.61h-7.839c-7.355,0-14.13-3.967-20.323-11.903
	c-5.226-6.967-8.516-14.807-9.872-23.517l-5.516,7.258c0,4.065,1.161,9.048,3.484,14.952c2.322,5.903,4.549,10.307,6.678,13.21
	h-8.128c-0.388,0-2.178-2.807-5.372-8.419c-3.193-5.613-7.114-8.42-11.76-8.42c-3.096,0-6.967,2.758-11.612,8.275
	c-4.645,5.516-7.646,8.274-9,8.274h-3.485c-4.259-19.744-12.195-31.066-23.807-33.969l-1.452,19.452
	c11.227,5.806,16.839,14.613,16.839,26.421c0,11.614-6.58,17.42-19.743,17.42h-3.774L177.902,168h17.709
	c6.001,0,11.034-9.485,15.099-28.454h3.775c1.549,0,4.21,2.032,7.984,6.098c3.774,4.064,7.597,6.096,11.468,6.096
	c4.065,0,7.984-2.032,11.759-6.096c3.775-4.066,5.758-6.098,5.953-6.098h35.711C289.488,139.546,291.423,134.901,293.166,125.61
	L293.166,125.61z M188.644,145.353c-4.259,0-8.129-0.968-11.614-2.903c-5.806-3.097-8.71-8.324-8.71-15.679V22.831
	c1.548-4.065,4.355-9.581,8.42-16.55v116.426C176.741,132.965,180.709,140.514,188.644,145.353L188.644,145.353z M161.642,139.837
	h-14.807v6.388c0,5.42-2.274,10.162-6.822,14.227c-4.549,4.064-10.211,6.097-16.985,6.097c-6.969,0-11.226-0.485-12.775-1.453
	l4.064-11.031c1.356,0.387,2.808,0.58,4.356,0.58c11.612,0,17.42-3.773,17.42-11.323c0-5.42-4.355-8.129-13.064-8.129
	c0-2.13,0.774-4.743,2.321-7.841c2.322-4.064,3.679-6.677,4.066-7.838c1.935,0,4.644,0.968,8.129,2.904
	c3.484,1.936,6,3.87,7.549,5.806h1.741c4.259,0,6.387-2.516,6.387-7.549v-95.81c1.163-4.259,3.968-10.549,8.42-18.873V139.837
	L161.642,139.837z M118.383,125.32h-15.968c-5.808,0-11.518-4.162-17.13-12.485c-5.034-7.548-8.131-15.193-9.291-22.936
	l-5.226,7.258c0,7.161,1.452,13.84,4.355,20.033c2.129,4.258,4.064,6.967,5.806,8.13H62.057V76.834
	c-4.065,6.774-6.872,12.194-8.42,16.259v32.228h-4.064c-1.936,0-5.372-2.419-10.308-7.259c-4.934-4.838-8.468-7.258-10.597-7.258
	c-4.259,0-8.274,4.016-12.048,12.049c-3.776,8.033-7.598,12.049-11.469,12.049v1.451c2.518,0.776,6.484,4.017,11.903,9.728
	c5.421,5.709,9.291,8.564,11.614,8.564c4.065,0,7.695-2.516,10.889-7.548c3.193-5.034,5.371-7.55,6.532-7.55h65.326
	C113.157,139.546,115.479,134.805,118.383,125.32L118.383,125.32z M473.465,131.998c0-3.677-1.839-5.516-5.517-5.516
	c-3.678,0-5.516,1.838-5.516,5.516c0,3.485,1.838,5.226,5.516,5.226C471.626,137.224,473.465,135.483,473.465,131.998
	L473.465,131.998z M377.944,122.126c0-3.484-1.838-5.226-5.517-5.226c-3.484,0-5.226,1.742-5.226,5.226
	c0,3.677,1.743,5.517,5.226,5.517C376.106,127.643,377.944,125.804,377.944,122.126L377.944,122.126z M238.873,130.836
	c0,3.679-1.839,5.516-5.518,5.516c-3.483,0-5.226-1.837-5.226-5.516c0-3.485,1.743-5.226,5.226-5.226
	C237.034,125.61,238.873,127.351,238.873,130.836L238.873,130.836z M35.056,131.708c0,3.677-1.742,5.516-5.226,5.516
	c-3.677,0-5.516-1.838-5.516-5.516c0-3.485,1.838-5.226,5.516-5.226C33.314,126.482,35.056,128.223,35.056,131.708z"/>
</svg>
