<?xml version="1.0" encoding="iso-8859-1"?>
<!-- Generator: Adobe Illustrator 18.1.1, SVG Export Plug-In . SVG Version: 6.00 Build 0)  -->
<svg version="1.1" id="Layer_1" xmlns="http://www.w3.org/2000/svg" xmlns:xlink="http://www.w3.org/1999/xlink" x="0px" y="0px"
	 viewBox="0 0 259 180" style="enable-background:new 0 0 259 180;" xml:space="preserve">
<rect style="fill:#E6E6E6;" width="259" height="180"/>
<g>
	<g>
		<path d="M97.783,77.736c-1.34-0.489-2.401-1.36-3.153-2.559c2.52-3.385,2.951-8.07,0.731-11.735
			c-2.338-3.861-6.628-5.519-11.01-5.043c-4.475,0.486-8.294,3.113-9.544,7.564c-1.137,4.05,0.441,8.348,3.701,10.942
			c3.965,3.155,9.627,2.946,13.641,0.013c1.579,1.333,3.627,1.797,5.633,1.251C98.009,78.107,97.983,77.809,97.783,77.736z
			 M92.344,76.498c-0.028-0.025-0.057-0.04-0.087-0.049c-0.06-0.046-0.141-0.058-0.224,0.004c-3.302,2.471-7.884,3.126-11.603,1.174
			c-3.427-1.798-5.777-5.547-5.543-9.457c0.26-4.333,3.289-7.876,7.459-8.957c4.115-1.068,8.583-0.307,11.503,2.942
			c3.216,3.579,3.279,8.998,0.402,12.791c-0.109,0.051-0.184,0.175-0.105,0.308c0.69,1.167,1.654,2.048,2.844,2.626
			C95.31,78.136,93.648,77.654,92.344,76.498z"/>
		<path d="M185.552,82.668c-5.436-7.249-17.037-3.885-20.315,3.748c-1.716,3.997-0.147,9.529,4.636,10.293
			c0.122,0.019,0.21-0.051,0.253-0.14c0.417,2.339,2.158,4.219,4.455,4.829c0.19,0.05,0.351-0.159,0.253-0.329
			c-0.653-1.142-0.835-2.382-0.533-3.662c4.193,0.484,8.657-0.58,11.338-4.066C188.118,90.116,187.963,85.884,185.552,82.668z
			 M173.991,96.92c-0.276-0.039-0.396,0.371-0.135,0.427c-0.27,1.194-0.157,2.365,0.339,3.458c-1.915-0.702-3.304-2.367-3.649-4.407
			c-0.039-0.231-0.329-0.192-0.411-0.018c-0.023-0.05-0.068-0.091-0.144-0.103c-4.102-0.656-5.82-5.201-4.658-8.842
			c1.202-3.77,4.651-6.675,8.363-7.822c3.652-1.129,7.712-0.549,10.502,2.188c2.698,2.646,3.713,6.691,1.85,10.102
			C183.697,96.21,178.566,97.566,173.991,96.92z"/>
		<g>
			<path d="M188.934,136.392c-0.328-2.199-0.656-4.397-0.984-6.596c-0.158-1.059-0.316-2.117-0.474-3.176
				c-0.091-0.607-0.071-1.255-0.496-1.726c-0.086-0.096-0.228-0.074-0.317,0c-0.945,0.788-1.944,1.463-3.022,2.054
				c-0.005-0.005-0.007-0.01-0.013-0.015c-3.47-2.74-8.248-3.626-12.422-2.051c-3.926,1.482-6.878,4.958-7.859,9.013
				c-0.058,0.238,0.244,0.358,0.378,0.217c0.018,0.096,0.084,0.186,0.206,0.199c1.8,0.192,3.546,0.587,5.256,1.176
				c0.08,0.028,0.145,0.007,0.192-0.035c0.159,0.075,0.392-0.04,0.317-0.248c-0.4-1.106,0.876-2.673,1.567-3.416
				c0.725-0.779,1.605-1.418,2.578-1.852c1.17-0.522,2.467-0.732,3.744-0.639c0.965,0.07,3.041,0.38,3.706,1.331
				c-0.018,0.015-0.037,0.03-0.052,0.052c-0.674,1.016-1.315,2.051-1.927,3.106c-0.073,0.125-0.006,0.291,0.134,0.329
				c3.07,0.851,6.14,1.701,9.21,2.552C188.838,136.718,188.958,136.554,188.934,136.392z M179.851,133.762
				c0.543-0.926,1.108-1.838,1.699-2.734c0.158,0.083,0.4-0.031,0.325-0.243c-0.432-1.203-2.306-1.64-3.427-1.831
				c-1.498-0.255-3.056-0.117-4.472,0.443c-1.371,0.543-2.589,1.463-3.498,2.624c-0.605,0.774-1.45,1.939-1.288,2.994
				c-1.713-0.581-3.459-0.962-5.258-1.154c-0.048-0.005-0.086,0.007-0.118,0.025c0.975-3.849,3.773-7.149,7.511-8.573
				c4.007-1.527,8.643-0.703,11.985,1.936c0.081,0.064,0.174,0.062,0.249,0.027c0.061,0.084,0.17,0.134,0.287,0.07
				c0.878-0.48,1.65-1.075,2.488-1.612c0.605-0.387,0.536-0.134,0.636,0.516c0.113,0.732,0.219,1.466,0.328,2.199
				c0.383,2.565,0.765,5.13,1.148,7.694C185.581,135.35,182.716,134.556,179.851,133.762z"/>
			<path d="M189.011,141.403c-0.004,0.025-0.009,0.05-0.013,0.075c-1.108,0.066-2.211,0.042-3.31-0.131
				c-0.914-0.144-1.796-0.41-2.724-0.455c-0.109-0.005-0.176,0.055-0.203,0.134c-0.047,0.024-0.083,0.07-0.096,0.141
				c-0.799,4.584-7.963,8.961-11.508,4.468c0.44-0.738,0.88-1.476,1.32-2.214c0.079-0.132-0.001-0.281-0.134-0.329
				c-3.171-1.147-6.342-2.294-9.513-3.441c-0.163-0.059-0.321,0.121-0.276,0.276c1.139,3.945,2.345,7.87,3.617,11.775
				c0.051,0.155,0.254,0.227,0.375,0.099c0.72-0.761,1.441-1.521,2.161-2.282c4.013,2.527,8.664,3.751,13.218,1.871
				c4.093-1.69,6.911-5.509,7.517-9.867C189.483,141.24,189.051,141.118,189.011,141.403z M181.436,151.104
				c-4.398,1.668-8.799,0.391-12.619-2.046c-0.114-0.073-0.221-0.025-0.281,0.06c-0.043,0.006-0.086,0.022-0.125,0.063l-1.925,2.032
				c-1.183-3.644-2.308-7.306-3.375-10.985c2.947,1.066,5.895,2.132,8.842,3.199c-0.445,0.746-0.89,1.491-1.334,2.237
				c-0.114,0.191,0.087,0.366,0.254,0.326c3.734,4.654,11.303,0.234,12.212-4.639c1.002,0.068,1.967,0.371,2.963,0.497
				c0.956,0.12,1.912,0.136,2.873,0.082C188.167,146.051,185.406,149.599,181.436,151.104z"/>
		</g>
		<path d="M77.22,48.93c-7.906,2.247-15.097,6.921-19.755,13.755c-0.806-2.004-1.611-4.009-2.417-6.013
			c-0.08-0.199-0.344-0.183-0.425-0.049c-1.772,1.022-3.575,1.982-5.412,2.882c-0.082,0.04-0.111,0.106-0.11,0.174
			c-0.102,0.054-0.17,0.176-0.099,0.307c3.033,5.604,6.066,11.209,9.099,16.813c0.094,0.174,0.357,0.126,0.41-0.054
			c3.172-10.881,9.84-20.568,18.883-27.404C77.583,49.196,77.484,48.855,77.22,48.93z M58.235,76.104
			c-2.926-5.408-5.853-10.815-8.78-16.223c1.79-0.877,3.547-1.813,5.275-2.805c0.823,2.047,1.645,4.093,2.468,6.14
			c0.072,0.179,0.297,0.224,0.41,0.054c4.362-6.596,11.108-11.189,18.584-13.56C67.689,56.453,61.382,65.71,58.235,76.104z"/>
		<path d="M206.314,106.744c-0.053-0.042-0.105-0.084-0.157-0.125c-0.026-0.072-0.087-0.129-0.178-0.142
			c-4.233-3.357-8.323-6.884-12.264-10.58c-0.092-0.086-0.224-0.083-0.317,0c-3.821,3.408-7.642,6.816-11.463,10.224
			c-0.196,0.175,0.047,0.447,0.255,0.354c0.005,0.001,0.009,0.004,0.015,0.004c0.42,0.027,1.866-0.111,2.209,0.143
			c0.436,0.323,0.205,1.526,0.202,1.98c-0.011,1.531-0.022,3.062-0.033,4.593c-0.011,1.451-0.021,2.901-0.032,4.352
			c-0.004,0.604-0.298,2.024,0.043,2.645c0.013,0.057,0.046,0.108,0.099,0.139c0.005,0.006,0.01,0.013,0.015,0.019
			c0.088,0.085,0.2,0.079,0.286,0.018c5.915,0.133,11.831,0.266,17.746,0.399c0.227,0.005,0.273-0.269,0.142-0.39
			c0.635-4.393-0.059-8.844,0.393-13.254c0.008-0.001,0.015,0.002,0.024,0c0.834-0.179,1.668-0.242,2.517-0.205
			c0.061,0.048,0.121,0.097,0.182,0.145C206.221,107.238,206.541,106.923,206.314,106.744z M203.179,106.688
			c-0.077,0.017-0.122,0.062-0.144,0.117c-0.096,0.018-0.186,0.085-0.199,0.206c-0.472,4.423,0.253,8.894-0.394,13.299
			c-5.803-0.13-11.605-0.261-17.408-0.391c-0.018-0.012-0.036-0.024-0.054-0.036c-0.01-0.007-0.02-0.007-0.03-0.012
			c-0.107-0.448,0.042-1.555,0.044-1.84c0.004-0.483,0.007-0.967,0.011-1.451c0.008-1.128,0.016-2.256,0.025-3.385
			c0.016-2.256,0.033-4.513,0.049-6.769c0.001-0.127-0.104-0.216-0.224-0.224c-0.727-0.047-1.453-0.094-2.18-0.141
			c1.831-1.633,3.662-3.266,5.493-4.9c0.986-0.88,1.972-1.759,2.958-2.639c0.493-0.44,0.986-0.88,1.479-1.319
			c0.704-0.628,0.885-0.898,1.66-0.179c3.535,3.283,7.199,6.423,10.971,9.43C204.546,106.464,203.861,106.542,203.179,106.688z"/>
		<g>
			<path d="M133.811,56.878c-3.568-4.671-12.174-4.299-15.462,0.461c-0.666-0.741-1.509-1.351-2.44-1.769
				c-3.055-1.371-7.18-1.418-10.246-0.066c-2.645,1.165-4.869,3.808-4.566,6.835c0.148,1.478,0.865,2.919,2.08,3.804
				c1.53,1.114,3.539,0.975,5.322,1.314c-0.205,0.809-0.598,1.494-1.211,2.098c-0.135,0.133-0.037,0.389,0.158,0.383
				c1.981-0.064,4.939-0.553,4.822-3.161c0-0.003-0.002-0.004-0.002-0.007c2.417,0.216,4.936-0.562,6.407-2.437
				c1.129,1.214,2.609,1.92,4.258,2.056c0.406,1.805,1.706,3.255,3.459,3.88c0.197,0.07,0.335-0.169,0.253-0.329
				c-0.445-0.871-0.549-1.788-0.325-2.712c2.625,0.836,5.635,0.04,7.394-2.123C135.586,62.8,135.608,59.23,133.811,56.878z
				 M112.25,66.319c-0.159-0.015-0.226,0.117-0.209,0.241c-0.114-0.002-0.226,0.069-0.22,0.215c0.095,2.116-2.138,2.577-3.846,2.687
				c0.536-0.649,0.882-1.392,1.034-2.248c0.045-0.252-0.294-0.374-0.403-0.194c-1.618-0.302-3.429-0.181-4.872-1.045
				c-1.526-0.913-2.31-2.769-2.213-4.503c0.229-4.065,4.486-6.178,8.063-6.423c3.561-0.244,8.565,0.711,9.677,4.712
				C120.45,64.037,115.91,66.654,112.25,66.319z M126.436,66.794c0.026-0.236-0.352-0.324-0.439-0.069
				c-0.332,0.978-0.313,1.967,0.031,2.907c-1.445-0.694-2.45-2.042-2.721-3.645c-0.037-0.217-0.297-0.197-0.396-0.049
				c-1.534-0.133-2.888-0.805-3.935-1.938c-0.014-0.015-0.029-0.022-0.044-0.031c0.233-0.351,0.435-0.731,0.594-1.149
				c0.711-1.876,0.229-3.713-0.891-5.14c0.023-0.016,0.045-0.035,0.064-0.063c2.971-4.383,10.612-4.816,14.263-1.038
				c1.956,2.024,2.306,5.35,0.777,7.729C132.198,66.705,129.097,67.641,126.436,66.794z"/>
			<path d="M114.827,63.747c-3.175,0.019-6.349,0.039-9.524,0.058c-0.288,0.002-0.289,0.45,0,0.448
				c3.175-0.019,6.349-0.039,9.524-0.058C115.115,64.193,115.116,63.745,114.827,63.747z"/>
			<path d="M114.826,60.652c-3.22-0.128-6.438-0.086-9.654,0.125c-0.286,0.019-0.289,0.467,0,0.448
				c3.216-0.211,6.434-0.253,9.654-0.125C115.115,61.111,115.114,60.663,114.826,60.652z"/>
			<path d="M115.45,58.085c-3.503-0.222-7.01-0.275-10.518-0.159c-0.288,0.009-0.289,0.458,0,0.448
				c3.508-0.116,7.015-0.063,10.518,0.159C115.738,58.552,115.737,58.104,115.45,58.085z"/>
			<path d="M131.278,62.577c-3.213,0.234-6.429,0.283-9.647,0.147c-0.289-0.012-0.288,0.436,0,0.448
				c3.218,0.136,6.434,0.087,9.647-0.147C131.564,63.005,131.567,62.556,131.278,62.577z"/>
			<path d="M131.155,60.397c-3.174-0.114-6.348-0.228-9.522-0.342c-0.289-0.01-0.288,0.438,0,0.448
				c3.174,0.114,6.348,0.228,9.522,0.342C131.444,60.856,131.444,60.408,131.155,60.397z"/>
			<path d="M131.255,57.585c-0.221-0.254-0.544-0.183-0.861-0.189c-1.042-0.019-2.086-0.001-3.127,0.028
				c-2.005,0.056-4.005,0.191-6.001,0.388c-0.285,0.028-0.288,0.477,0,0.448c1.596-0.157,3.196-0.277,4.799-0.346
				c0.721-0.031,1.443-0.052,2.164-0.063c0.364-0.006,2.023-0.188,2.562-0.026c0.003,0.007,0.002,0.014,0.005,0.021
				c0.009,0.019,0.018,0.037,0.027,0.056c0.053,0.109,0.208,0.138,0.307,0.08c0.026-0.015,0.053-0.031,0.079-0.046
				C131.341,57.86,131.348,57.692,131.255,57.585z"/>
		</g>
		<g>
			<path d="M194.95,60.907c-0.161-0.999-1.103-1.614-2.06-1.559c-0.049-0.048-0.117-0.076-0.204-0.053
				c-0.968,0.265-1.689,1.241-1.485,2.264c0.196,0.981,1.258,1.703,2.243,1.506C194.398,62.873,195.105,61.868,194.95,60.907z
				 M193.211,62.645c-1.76,0.121-2.08-2.29-0.564-2.866c0.041,0.021,0.088,0.034,0.143,0.024c0.747-0.124,1.571,0.361,1.716,1.135
				C194.652,61.718,194.01,62.59,193.211,62.645z"/>
			<path d="M192.285,54.581c-0.067,0.021-0.111,0.062-0.134,0.112c-0.991,0.617-0.959,2.045,0.098,2.618
				c-0.006,0.134,0.105,0.286,0.28,0.252c3.198-0.624,3.939,3.227,3.775,5.552c-0.007,0.104,0.047,0.169,0.12,0.198
				c0.582,1.384,2.43,1.277,2.954,0.007c0.067-0.016,0.124-0.061,0.14-0.153C200.256,58.962,197.374,53.028,192.285,54.581z
				 M199.135,62.706c-0.04,0.035-0.071,0.083-0.079,0.147c-0.159,1.264-1.854,1.394-2.255,0.214c-0.01-0.03-0.026-0.053-0.043-0.074
				c0.144-2.588-0.835-6.347-4.099-5.903c-0.022-0.055-0.064-0.103-0.13-0.131c-0.904-0.377-0.882-1.627,0.029-1.982
				c0.006-0.002,0.009-0.007,0.014-0.009C197.077,53.74,199.607,58.898,199.135,62.706z"/>
			<path d="M205.169,63.349c0.148-3.668-0.421-7.524-2.928-10.373c-2.588-2.941-6.339-3.222-10.018-3.206
				c-0.09,0-0.148,0.046-0.182,0.106c-1.3,0.807-1.249,2.679,0.148,3.385c0.08,0.04,0.155,0.027,0.216-0.009
				c0.043,0.023,0.094,0.034,0.154,0.02c2.787-0.685,5.789,0.35,7.417,2.755c1.444,2.132,1.651,4.821,1.545,7.321
				c-0.003,0.082,0.032,0.138,0.082,0.173c0.371,1.957,3.172,2,3.608,0.015C205.229,63.459,205.208,63.396,205.169,63.349z
				 M202.016,63.285c-0.006-0.041-0.021-0.072-0.041-0.097c0.102-2.794-0.233-5.813-2.094-8.031
				c-1.806-2.153-4.747-2.981-7.441-2.319c-0.019,0.005-0.031,0.014-0.046,0.022c-1.098-0.574-1.145-2.02-0.057-2.642
				c3.52-0.01,7.108,0.252,9.588,3.075c2.423,2.758,2.939,6.515,2.797,10.057c-0.002,0.054,0.015,0.095,0.04,0.129
				C204.362,65.025,202.231,64.88,202.016,63.285z"/>
		</g>
		<g>
			<path d="M54.425,84.366c0.03-2.895-2.222-5.866-5.359-5.428c-3.175,0.444-4.7,3.732-4.574,6.636
				c0.075,1.732,0.634,3.387,1.309,4.969c0.753,1.762,1.586,3.489,2.851,4.944c0.022,0.025,0.046,0.201,0.071,0.213
				C48.751,95.779,48.818,96,48.926,96h0.495c0.203,0,0.26-0.379,0.178-0.51c1.017-1.931,2.034-3.942,3.05-5.874
				C53.506,87.986,54.406,86.257,54.425,84.366z M49.143,95h-0.137c-0.009,0-0.018,0.074-0.036,0.054
				c-1.912-2.201-3.338-5.336-3.873-8.191c-0.564-3.012,0.492-7.004,4.031-7.497c3.885-0.541,5.489,3.967,4.492,7.035
				c-0.523,1.611-1.479,3.013-2.266,4.507C50.618,92.308,49.88,94,49.143,95z"/>
			<path d="M52.042,83.758c-0.077-1.354-1.185-2.419-2.55-2.405c-1.28,0.013-2.379,1.011-2.46,2.304
				c-0.086,1.389,1.154,2.48,2.509,2.319c0.017-0.002,0.029-0.01,0.044-0.014C51.018,86.013,52.133,85.357,52.042,83.758z
				 M51.016,85.184c-0.455,0.367-0.898,0.352-1.458,0.329c-0.04-0.002-0.073,0.007-0.102,0.02c-1.025,0.076-1.992-0.668-1.979-1.758
				c0.014-1.087,0.939-1.966,2.013-1.974c1.004-0.008,1.848,0.678,2.063,1.654C51.7,84.113,51.537,84.765,51.016,85.184z"/>
		</g>
		<path d="M69.887,108.82c-0.066-0.013-0.121,0.002-0.166,0.03c-0.036-0.037-0.088-0.06-0.158-0.054
			c-0.635,0.054-1.167,0.473-1.413,1.036c-1.447-0.853-2.895-1.706-4.342-2.558c0.24-0.542,0.214-1.206,0.008-1.806
			c1.83-0.684,3.556-1.569,5.175-2.657c0.028,0.19,0.302,0.305,0.406,0.093c0.004-0.007,0.006-0.013,0.01-0.02
			c0.518,0.229,1.147,0.195,1.613-0.168c0.749-0.583,0.879-1.734,0.201-2.423c-0.46-0.468-1.145-0.542-1.663-0.257
			c-0.043-0.008-0.089-0.007-0.138,0.015c-0.833,0.386-1.215,1.475-0.694,2.265c0.021,0.031,0.044,0.06,0.067,0.09
			c-1.613,1.087-3.322,1.971-5.15,2.65c-0.52-1.011-1.571-1.666-2.658-0.852c-0.039,0.029-0.061,0.066-0.076,0.104
			c-0.822,0.561-1.261,1.644-0.88,2.612c0.437,1.109,1.821,1.737,2.92,1.222c0.263-0.123,0.468-0.291,0.626-0.487
			c1.455,0.858,2.911,1.715,4.366,2.573c0.029,0.017,0.058,0.026,0.086,0.03c-0.01,0.065-0.018,0.132-0.021,0.199
			c-0.034,0.854,0.657,1.48,1.476,1.545c0.816,0.065,1.604-0.43,1.717-1.275C71.312,109.875,70.739,108.993,69.887,108.82z
			 M69.113,100.91c0.096,0.053,0.221,0.044,0.286-0.082c0.351-0.685,1.248-0.667,1.653-0.029c0.346,0.546,0.128,1.314-0.417,1.643
			c-0.352,0.212-0.801,0.178-1.15-0.023c-0.008-0.03-0.017-0.064-0.029-0.102c-0.034-0.113-0.168-0.196-0.283-0.158
			c-0.034-0.041-0.068-0.081-0.095-0.126C68.855,101.663,68.904,101.241,69.113,100.91z M62.218,107.88
			c-2.031,0.119-2.485-2.608-0.722-3.385c0.064-0.028,0.098-0.073,0.111-0.122C63.383,103.718,64.558,107.743,62.218,107.88z
			 M69.591,111.561c-0.593-0.016-1.139-0.417-1.137-1.047c0.002-0.617,0.482-1.215,1.109-1.269c0.044-0.004,0.078-0.02,0.109-0.04
			c0.025,0.021,0.055,0.039,0.096,0.047C71.106,109.525,71.063,111.601,69.591,111.561z"/>
		<g>
			<path d="M158.026,72.327c-3.232-0.66-6.8,0.783-8.644,3.521c-1.884,2.799-1.59,6.718,0.432,9.365
				c2.268,2.968,6.729,3.838,9.713,1.426c0.041-0.016,0.079-0.044,0.105-0.097c0.286-0.57-0.015-1.292-0.633-1.472
				c-0.105-0.03-0.187,0.013-0.234,0.083c-0.006,0.004-0.012,0.004-0.018,0.008c-2.373,1.69-5.618,1.401-7.464-0.928
				c-1.528-1.926-1.895-6.16,0.011-8.011c1.947-1.891,5.846-2.567,8.25-1.327c2.995,1.545,3.232,5.543,0.682,7.56
				c-1.077,0.09-0.204-3.441-0.151-3.991c0.067-0.692,0.044-1.243-0.297-1.849c-0.059-0.104-0.158-0.123-0.246-0.096
				c-0.481-0.427-1.238-0.266-1.496,0.281c-0.837-0.849-2.258-0.859-3.391-0.707c-1.638,0.219-2.608,1.188-2.753,2.841
				c-0.148,1.69,0.049,3.609,1.507,4.695c1.358,1.011,3.097,0.808,4.354-0.24c0.023-0.019,0.036-0.04,0.048-0.06
				c0.863,0.955,2.253,1.135,3.43,0.625c1.457-0.631,2.16-2.22,2.338-3.713C164.016,76.495,161.765,73.091,158.026,72.327z
				 M162.932,81.167c-0.611,2.004-3.235,3.825-4.919,1.724c-0.134-0.168-0.343-0.033-0.367,0.138
				c-0.067-0.018-0.141-0.012-0.208,0.044c-1.282,1.069-3.109,1.04-4.246-0.233c-0.847-0.949-0.933-2.327-0.87-3.539
				c0.076-1.449,0.641-2.436,2.107-2.722c1.092-0.213,2.796-0.273,3.485,0.773c0.033,0.049,0.076,0.075,0.121,0.089
				c0.133,0.1,0.372,0.046,0.361-0.167c-0.026-0.505,0.596-0.79,0.908-0.349c0.045,0.064,0.107,0.091,0.17,0.096
				c0.631,1.397-0.297,3.203-0.314,4.65c-0.007,0.613,0.207,1.143,0.764,1.23c0.045,0.121,0.172,0.206,0.306,0.112
				c2.61-1.833,3.071-5.634,0.57-7.808c-2.55-2.218-6.98-1.558-9.491,0.422c-2.308,1.819-2.165,6.336-0.62,8.576
				c1.895,2.748,5.612,3.253,8.285,1.349c0.002-0.001,0.002-0.003,0.004-0.004c0.262,0.137,0.401,0.479,0.274,0.755
				c-0.013,0.007-0.026,0.01-0.039,0.02c-3.267,2.643-8.051,0.931-9.808-2.611c-1.65-3.324-0.79-7.408,2.276-9.571
				c3.062-2.16,7.925-2.163,10.273,1.101C163.119,76.861,163.516,79.253,162.932,81.167z"/>
			<path d="M158,78.492c0-0.268-0.161-0.387-0.294-0.366c-0.88-0.649-1.993-1.019-3.054-0.564c-1.048,0.449-1.478,1.421-1.381,2.516
				c0.089,1.002,0.336,2.053,1.433,2.328c0.964,0.242,2.363,0.048,3.158-0.545c0.087-0.065,0.124-0.161,0.105-0.247
				c0.009-0.04,0.034-0.082,0.034-0.133V78.492z M153.798,80.626c-0.185-0.947-0.38-1.982,0.546-2.532
				c0.961-0.571,1.656-0.212,2.656,0.422v2.965c0,0.035,0.242,0.062,0.246,0.092c-0.547,0.338-1.104,0.423-1.74,0.451
				C154.496,82.07,153.993,81.628,153.798,80.626z"/>
		</g>
		<path d="M170.559,105.017c-1.138-0.834-2.522-0.806-3.613-0.161c-0.015-0.019-0.031-0.038-0.055-0.053
			c-3.708-2.347-7.289-4.88-10.734-7.6c-0.025-0.02-0.052-0.032-0.078-0.04c0.232-0.594,0.317-1.263,0.214-1.949
			c-0.324-2.147-2.387-3.74-4.56-3.365c-1.981,0.342-3.491,2.392-3.206,4.387c0.05,0.351,0.153,0.68,0.294,0.988
			c-0.08-0.078-0.214-0.112-0.325-0.023c-3.086,2.476-6.306,4.77-9.652,6.88c-0.055,0.035-0.083,0.082-0.096,0.131
			c-0.195-0.255-0.422-0.489-0.695-0.687c-1.848-1.351-4.202-0.699-5.668,0.859c-0.034,0.016-0.065,0.039-0.091,0.076
			c-1.186,1.725-0.542,4.541,1.021,5.868c1.757,1.492,4.374,0.745,5.516-1.111c0.857-1.393,0.972-3.329,0.115-4.718
			c0.039,0.002,0.081-0.004,0.124-0.031c3.379-2.131,6.628-4.45,9.743-6.95c0.056-0.045,0.078-0.097,0.076-0.149
			c0.176,0.342,0.404,0.652,0.671,0.926c-2.697,6.337-5.685,12.543-8.957,18.602c-0.007,0.014-0.008,0.027-0.012,0.04
			c-1.38-0.296-3.988,0.692-4.123,2.291c-0.062,0.034-0.111,0.092-0.118,0.181c-0.151,2.038,0.439,4.158,2.764,4.528
			c1.95,0.31,3.8-1.193,4.079-3.104c0.238-1.63-0.648-3.21-2.172-3.768c3.245-6.013,6.209-12.169,8.887-18.454
			c0.68,0.551,1.538,0.886,2.424,0.933c-0.239,2.134-0.299,4.265-0.181,6.408c-1.586-0.061-2.949,1.109-3.312,2.648
			c-0.043,0.036-0.076,0.086-0.084,0.154c-0.205,1.738,0.891,3.489,2.674,3.802c1.868,0.327,3.645-0.971,3.896-2.845
			c0.233-1.746-0.959-3.36-2.681-3.703c-0.014-0.003-0.028-0.004-0.042-0.006c-0.122-2.16-0.062-4.308,0.179-6.458
			c0.038-0.002,0.076-0.001,0.114-0.004c0.123-0.011,0.19-0.101,0.207-0.198c0.262-0.012,0.513-0.053,0.752-0.119
			c2.042,6.211,4.413,12.304,7.107,18.261c0.002,0.005,0.006,0.007,0.008,0.011c-1.842,0.172-3.193,1.795-3.193,3.678
			c0,0.043,0.012,0.077,0.029,0.107c-0.136,1.689,1.052,3.194,2.817,3.477c2.046,0.328,4.068-1.185,4.28-3.25
			c0.209-2.039-1.262-3.852-3.314-4.021c-0.087-0.007-0.172-0.006-0.257-0.007c0.04-0.062,0.056-0.139,0.019-0.223
			c-2.683-5.932-5.041-12.002-7.073-18.187c0.702-0.304,1.262-0.841,1.621-1.507c3.425,2.701,6.981,5.223,10.664,7.56
			c-0.323,0.253-0.611,0.563-0.843,0.928c-0.035,0.055-0.039,0.108-0.028,0.155c-1.035,1.206-0.929,3.051,0.357,4.089
			c1.553,1.253,3.765,0.764,4.963-0.723C172.154,108.151,172.094,106.141,170.559,105.017z M138.682,108.522
			c-0.909,2.007-3.669,3.008-5.33,1.222c-1.16-1.247-1.658-3.481-0.729-4.958c1.237-1.372,3.196-2.086,4.898-1.077
			C139.181,104.694,139.426,106.878,138.682,108.522z M141.087,117.589c1.439,0.679,2.021,2.335,1.505,3.821
			c-0.512,1.474-2.219,2.444-3.738,2.014c-1.76-0.499-2.135-2.102-2.074-3.683c0.086-0.021,0.153-0.087,0.14-0.204
			c-0.065-0.574,0.643-1.22,1.061-1.506c0.226-0.155,0.459-0.316,0.707-0.434C139.457,117.228,140.323,117.229,141.087,117.589z
			 M161.414,117.921c1.743,0.048,3.081,1.53,3.057,3.246c-0.024,1.708-1.458,3.127-3.162,3.189
			c-1.972,0.072-3.508-1.693-2.954-3.623c0.028-0.097-0.008-0.172-0.068-0.22C158.575,119.033,159.811,117.876,161.414,117.921z
			 M154.834,109.926c-0.36,1.502-1.828,2.448-3.342,2.172c-1.483-0.271-2.356-1.626-2.31-3.056c0.019-0.024,0.033-0.054,0.039-0.093
			c0.259-1.548,1.656-2.835,3.303-2.508C154.115,106.756,155.218,108.32,154.834,109.926z M154.123,98.655
			c-0.123-0.185-0.449-0.085-0.404,0.145c-0.259,0.07-0.537,0.107-0.834,0.102c-0.135-0.002-0.204,0.095-0.213,0.199
			c-3.63,0.124-5.156-4.811-1.716-6.534c1.799-0.901,4.073,0.167,4.719,2.019C156.236,96.196,155.576,98.008,154.123,98.655z
			 M170.46,109.521c-1.004,1.054-2.612,1.414-3.881,0.607c-1.376-0.875-1.527-2.726-0.36-3.829c0.082-0.077,0.082-0.171,0.042-0.247
			c0.879-1.164,2.414-1.623,3.758-0.853C171.698,106.161,171.703,108.216,170.46,109.521z"/>
		<g>
			<path d="M79.583,31.326c-0.418-2.914-3.024-5.059-5.939-4.542c-0.011-0.001-0.02-0.005-0.032-0.004
				c-3.331,0.218-4.929,3.781-4.382,6.782c0.536,2.936,3.596,4.448,6.364,3.709C78.266,36.557,79.978,34.078,79.583,31.326z
				 M75.797,36.742c-2.34,0.781-5.201-0.204-5.986-2.695c-0.843-2.674,0.475-6.309,3.435-6.776c0.044,0.025,0.097,0.037,0.159,0.021
				c2.691-0.677,5.167,1.189,5.69,3.822C79.588,33.598,78.188,35.944,75.797,36.742z"/>
			<path d="M77.476,32.843c-0.026-0.285-0.474-0.288-0.449,0c0.273,3.051-4.884,2.668-5.346,0.055
				c-0.05-0.284-0.482-0.163-0.432,0.119C71.807,36.169,77.79,36.361,77.476,32.843z"/>
			<path d="M73.89,29.66c0.054-0.282-0.378-0.403-0.432-0.119c-0.17,0.884-0.235,1.77-0.19,2.669c0.015,0.287,0.463,0.289,0.448,0
				C73.672,31.351,73.727,30.505,73.89,29.66z"/>
			<path d="M75.747,29.359c0.023-0.288-0.426-0.286-0.448,0c-0.079,0.991-0.094,1.981-0.045,2.974c0.014,0.287,0.463,0.289,0.448,0
				C75.654,31.34,75.669,30.35,75.747,29.359z"/>
		</g>
		<g>
			<path d="M66.69,40.735c-0.881-0.928-2.164-1.115-3.378-1.237c-0.036-0.049-0.091-0.086-0.168-0.09
				c-2.832-0.164-4.391,2.488-4.451,5.029c-0.065,2.749,1.898,4.394,4.616,4.288c2.795-0.109,4.45-2.217,4.412-4.909
				C67.705,42.731,67.461,41.548,66.69,40.735z M63.308,48.277c-2.435,0.104-4.244-1.333-4.167-3.84
				c0.069-2.254,1.34-4.636,3.852-4.585c0.036,0.041,0.085,0.071,0.151,0.078c1.04,0.101,2.149,0.208,2.977,0.912
				c0.872,0.741,1.136,1.875,1.15,2.975C67.304,46.26,65.857,48.168,63.308,48.277z"/>
			<path d="M65.645,46.136c-1.496-1.186-3.574-1.251-5.109-0.091c-0.227,0.172-0.004,0.561,0.226,0.387
				c1.361-1.029,3.215-1.05,4.565,0.021C65.551,46.631,65.871,46.315,65.645,46.136z"/>
			<path d="M62.236,42.168v1.993c0,0.498,0.249,0.498,0.249,0v-1.993C62.485,41.919,62.236,41.919,62.236,42.168z"/>
			<path d="M64.19,42.119c0.051-0.282-0.381-0.403-0.432-0.119c-0.137,0.75-0.139,1.491-0.009,2.241
				c0.049,0.284,0.482,0.163,0.432-0.119C64.065,43.455,64.068,42.786,64.19,42.119z"/>
		</g>
		<g>
			<path d="M57.197,108.909c0.729-2.532-0.216-5.221-2.381-6.514c1.263-2.299,2.527-4.597,3.79-6.896
				c0.49-0.892,1.97-2.668,1.167-3.667c-0.062-0.446-0.414-0.724-0.897-0.697c-0.872,0.049-1.518,1.022-1.919,1.689
				c-1.641,2.731-2.84,5.826-4.217,8.7c-4.905-1.54-10.83,4.179-7.851,9.051C47.9,115.498,55.606,114.433,57.197,108.909z
				 M57.258,93.205c0.15-0.283,0.324-0.55,0.523-0.803c0.324-0.506,0.831-0.639,1.52-0.403c0.018,0.019,0.033,0.04,0.047,0.061
				c0.009,0.04,0.025,0.074,0.051,0.097c0.428,1.083-2.008,4.623-2.372,5.285c-0.868,1.58-1.736,3.16-2.605,4.74
				c-0.274-0.133-0.564-0.247-0.871-0.335c-0.127-0.064-0.257-0.118-0.386-0.171c0.801-1.668,1.602-3.336,2.403-5.004
				c0.408-0.851,0.811-1.705,1.225-2.552C56.943,93.812,57.088,93.502,57.258,93.205z M56.138,110.233
				c-1.541,2.573-4.722,3.761-7.549,2.747c-3.062-1.099-5.069-4.396-3.483-7.48c1.514-2.945,5.09-4.782,8.181-3.288
				c0.025,0.022,0.055,0.04,0.093,0.051c0.007,0.002,0.013,0.004,0.019,0.006c0.077,0.039,0.154,0.079,0.23,0.123
				c0.067,0.038,0.129,0.036,0.181,0.012C56.941,103.561,57.807,107.448,56.138,110.233z"/>
			<path d="M53.303,103.351c-0.063-0.025-0.122-0.02-0.173,0.001c-2.621-0.698-4.934-0.69-6.55,1.829
				c-0.699,1.09-1.401,2.371-0.855,3.66c0.473,1.117,1.482,2.044,2.529,2.614c2.247,1.224,5.028,0.975,6.442-1.3
				C56.097,107.901,56.141,104.473,53.303,103.351z M53.994,110.395c-1.478,1.865-4.18,1.594-5.988,0.378
				c-0.814-0.547-1.713-1.407-1.982-2.396c-0.313-1.151,0.663-2.71,1.378-3.584c1.548-1.891,3.718-1.535,5.81-0.958
				c0.035,0.01,0.068,0.011,0.096,0.006C55.874,105.035,55.541,108.443,53.994,110.395z"/>
		</g>
		<g>
			<path d="M86.365,108.718c-2.542-1.755-6.128-1.897-8.792-0.331c-2.734,1.607-4.303,4.855-4.151,7.987
				c0.164,3.361,2.474,6.621,5.943,7.062c0.735,2.175,2.194,3.959,4.19,5.102c0.184,0.105,0.358-0.068,0.329-0.253
				c-0.228-1.464-0.23-2.916-0.005-4.38c3.158-0.453,6.086-2.483,6.47-5.851C90.723,114.769,89.125,110.623,86.365,108.718z
				 M89.053,120.445c-1.161,1.802-3.257,2.77-5.325,3.033c-0.092,0.012-0.152,0.069-0.184,0.138
				c-0.047,0.024-0.083,0.07-0.094,0.142c-0.216,1.392-0.237,2.764-0.066,4.152c-1.713-1.099-2.969-2.712-3.611-4.662
				c-0.034-0.104-0.118-0.151-0.203-0.154c-0.036-0.051-0.09-0.09-0.165-0.099c-4.052-0.489-6.105-4.952-5.391-8.639
				c0.696-3.596,3.578-6.439,7.312-6.595c4.205-0.176,7.04,2.726,8.163,6.569C90.077,116.342,90.236,118.609,89.053,120.445z"/>
			<path d="M83.915,109.832c-0.441-0.424-2.062-0.08-2.573-0.057c-0.6,0.027-1.992-0.174-2.483,0.229
				c-0.463,0.38-0.125,1.386-0.068,1.893c0.284,2.537,0.738,5.296,1.336,7.777c0.048,0.198,0.275,0.326,0.382,0.326h1.998
				c0.115,0,0.328-0.139,0.361-0.335c0.403-2.449,0.749-5.03,1.03-7.497C83.96,111.612,84.396,110.294,83.915,109.832z
				 M83.251,113.697c-0.222,1.774-0.483,3.303-0.769,5.303H80.49c-0.377-2-0.7-3.195-0.947-4.814
				c-0.135-0.886-0.495-2.097-0.378-2.999c0.155-1.192,1.484-0.936,2.415-0.976c0.391-0.016,0.805-0.074,1.194-0.039
				c0.302-0.036,0.586,0.035,0.854,0.213l-0.049,0.472C83.669,111.728,83.359,112.833,83.251,113.697z"/>
			<path d="M82.973,121.916c-0.098-0.532-0.196-1.064-0.294-1.596c-0.024-0.13-0.165-0.172-0.276-0.157
				c-0.667,0.094-1.333,0.113-2.005,0.069c-0.136-0.009-0.205,0.087-0.213,0.192c-0.038,0.025-0.071,0.061-0.088,0.116
				c-0.139,0.453-0.192,0.895-0.161,1.368c0.007,0.109,0.098,0.24,0.224,0.224c0.851-0.109,1.692-0.094,2.536,0.058
				C82.873,122.224,83.006,122.092,82.973,121.916z M80.38,121.666c0-0.333,0.046-0.653,0.144-0.98
				c0.589,0.031,1.173,0.008,1.757-0.062c0.067,0.362,0.134,0.725,0.2,1.087C81.782,121.612,81.084,121.594,80.38,121.666z"/>
		</g>
		<g>
			<path d="M192.158,34.927c-0.701,0.064-1.402,0.129-2.102,0.193c-1.106-5.312-7.862-6.501-12.37-5.259
				c-4.908,1.352-7.42,6.431-5.901,11.227c0.029,0.091,0.096,0.135,0.169,0.149c0.048,0.043,0.112,0.069,0.191,0.057
				c0.784-0.118,1.569-0.236,2.353-0.354c0.209-0.031,0.198-0.272,0.066-0.381c0.036-0.036,0.058-0.087,0.052-0.156
				c-0.142-1.646-0.307-3.431,0.419-4.974c0.691-1.468,2.104-2.463,3.621-2.94c2.939-0.924,7.973-0.42,8.606,3.272
				c-0.748,0.136-1.439,0.358-2.13,0.68c-0.151,0.07-0.142,0.315,0,0.387c1.72,0.875,3.29,1.947,4.726,3.237
				c0.107,0.096,0.275,0.084,0.352-0.045c0.909-1.524,1.625-3.118,2.163-4.808C192.416,35.081,192.301,34.914,192.158,34.927z
				 M189.959,39.559c-1.29-1.13-2.683-2.096-4.194-2.903c0.556-0.224,1.104-0.377,1.711-0.481c0.003-0.001,0.005-0.003,0.008-0.003
				c0.132,0.032,0.282-0.033,0.261-0.203c-0.479-3.905-5.111-4.751-8.332-4.128c-1.73,0.335-3.405,1.231-4.4,2.723
				c-1.154,1.731-1.017,3.862-0.846,5.84c0.005,0.054,0.027,0.094,0.056,0.128c-0.682,0.103-1.363,0.205-2.044,0.308
				c-1.359-4.522,0.985-9.266,5.626-10.545c4.286-1.181,10.739-0.119,11.815,4.929c-0.104,0.118-0.076,0.33,0.084,0.364
				c0.073,0.155,0.296,0.121,0.38-0.021c0.584-0.054,1.169-0.108,1.753-0.161C191.352,36.856,190.727,38.235,189.959,39.559z"/>
			<path d="M191.501,41.298c-0.048-0.196-0.271-0.194-0.379-0.081c-0.722,0.182-1.445,0.364-2.167,0.546
				c-0.055,0.014-0.091,0.044-0.117,0.08c-0.086,0.023-0.158,0.09-0.155,0.206c0.077,3.068-2.615,4.882-5.316,5.521
				c-2.483,0.587-5.553,0.516-7.023-1.882c0.631-0.178,1.263-0.356,1.894-0.534c0.199-0.056,0.204-0.3,0.054-0.41
				c-1.435-1.044-2.91-2.023-4.43-2.938c-0.094-0.057-0.259-0.03-0.307,0.08c-0.713,1.664-1.427,3.327-2.14,4.991
				c-0.071,0.166,0.048,0.392,0.253,0.329c0.804-0.246,1.607-0.493,2.411-0.739C177.854,54.199,193.689,50.203,191.501,41.298z
				 M184.299,49.808c-3.717,0.976-8.111,0.098-9.878-3.653c-0.052-0.109-0.149-0.13-0.236-0.101
				c-0.047-0.036-0.109-0.054-0.185-0.031l-1.999,0.613c0.29-0.676,0.58-1.351,0.869-2.027c0.205-0.477,0.588-2.069,1.143-2.187
				c0.326-0.069,1.575,0.991,1.87,1.188c0.603,0.4,1.196,0.816,1.784,1.239c-0.52,0.147-1.041,0.293-1.561,0.44
				c-0.105,0.03-0.153,0.11-0.157,0.194c-0.091,0.059-0.146,0.173-0.077,0.294c1.539,2.719,4.877,2.873,7.613,2.226
				c2.86-0.676,5.649-2.632,5.645-5.821c0.664-0.168,1.329-0.335,1.993-0.503C191.975,45.913,187.961,48.846,184.299,49.808z"/>
		</g>
		<g>
			<path d="M157.282,67.618c-0.081-0.108-0.189-0.185-0.313-0.242c0.011-0.037,0.014-0.079-0.006-0.128
				c-1.398-3.394-4.395-6.401-8.146-6.781c1.357-0.667,2.227-2.216,2.112-3.819c-0.168-2.325-2.147-4.071-4.476-3.918
				c-2.298,0.15-4.002,2.223-3.789,4.506c0.161,1.732,1.46,3.027,3.043,3.442c-3.538,0.759-6.746,3.222-6.519,7.177
				c0.003,0.047,0.02,0.083,0.042,0.115c-0.238,0.056-0.226,0.447,0.045,0.437l8.78-0.318c1.382-0.05,2.764-0.1,4.146-0.15
				l2.195-0.08c0.51-0.018,2.064,0.17,2.471-0.225c-0.207,0.201,0.11,0.518,0.317,0.317c0.021-0.021,0.042-0.041,0.064-0.062
				C157.312,67.827,157.341,67.696,157.282,67.618z M143.152,57.509c-0.417-2.113,1.173-4.169,3.302-4.331
				c2.09-0.16,3.854,1.397,4.028,3.47c0.17,2.027-1.425,3.93-3.529,3.69c-0.055-0.006-0.096,0.009-0.13,0.032
				C145.108,60.374,143.499,59.269,143.152,57.509z M154.64,67.402c-1.707,0.062-3.414,0.124-5.122,0.186
				c-3.298,0.12-6.597,0.239-9.895,0.359c0.01-0.026,0.015-0.057,0.013-0.091c-0.266-4.627,4.564-7.146,8.688-6.977
				c3.747,0.153,6.76,3.076,8.16,6.38C155.866,67.202,155.1,67.386,154.64,67.402z"/>
			<path d="M160.559,39.833c-2.851-0.699-6.498-0.587-9.134,0.812c-2.62,1.39-3.697,4.349-2.644,7.119
				c1.242,3.268,4.807,4.597,8.073,4.176c0.105,1.44-0.459,2.755-1.585,3.677c-0.195,0.16,0.026,0.403,0.218,0.375
				c2.264-0.329,4.128-1.829,4.985-3.935c0.043,0.024,0.094,0.038,0.154,0.026c2.794-0.543,5.038-2.918,5.131-5.817
				C165.858,43.06,163.576,40.572,160.559,39.833z M160.506,51.651c-0.045,0.009-0.076,0.029-0.102,0.053
				c-0.112-0.045-0.264-0.016-0.321,0.129c-0.685,1.771-2.15,3.061-3.939,3.562c0.873-0.984,1.29-2.27,1.146-3.616
				c-0.012-0.108-0.084-0.175-0.168-0.201c-0.049-0.061-0.124-0.103-0.22-0.089c-3.625,0.535-7.627-1.39-8.048-5.348
				c-0.425-3.996,3.279-5.844,6.692-6.149c3.307-0.296,7.465,0.102,9.134,3.433C166.426,46.907,164.248,50.923,160.506,51.651z"/>
			<path d="M161.552,47.684c-3.175-0.051-6.35-0.026-9.524,0.073c-0.288,0.009-0.289,0.457,0,0.448
				c3.174-0.099,6.349-0.123,9.524-0.073C161.841,48.137,161.841,47.688,161.552,47.684z"/>
			<path d="M161.55,44.654c-3.174-0.114-6.348-0.228-9.522-0.342c-0.289-0.01-0.288,0.438,0,0.448
				c3.174,0.114,6.348,0.228,9.522,0.342C161.839,45.113,161.839,44.664,161.55,44.654z"/>
		</g>
		<g>
			<path d="M140.181,36.344c-0.05-2.182-0.322-3.99-2.696-4.427c0.243-0.362,0.191-0.799-0.066-1.145
				c-0.368-0.497-1.019-0.546-1.588-0.498c-0.522,0.044-1.183,0.091-1.532,0.54c-0.245,0.315-0.264,0.715-0.046,1.026
				c-0.4,0.022-0.798,0.046-1.189,0.059c-0.832,0.029-1.663,0.057-2.495,0.086c-0.011-0.844,0.195-2.404-0.476-2.938
				c-0.317-0.252-0.812-0.218-1.184-0.222c-0.831-0.011-1.664,0.003-2.495,0.004c-0.869,0.002-2.511-0.345-3.269,0.24
				c-0.803,0.62-0.601,2.278-0.621,3.194c-2.125,0.073-4.249,0.147-6.374,0.22c-0.035-0.042-0.089-0.068-0.166-0.059
				c-2.434,0.303-2.795,2.915-2.948,4.925c-0.243,3.192-0.003,6.473,0.38,9.647c0.244,2.021,1.125,3.227,3.254,3.312
				c3.334,0.134,6.751-0.187,10.085-0.324c3.276-0.135,6.561-0.245,9.831-0.475c2.122-0.15,3.333-0.834,3.477-3.066
				C140.278,43.09,140.258,39.702,140.181,36.344z M134.649,31.624c-0.654-0.698,1.033-0.899,1.361-0.914
				c0.502-0.023,1.582,0.279,1.079,0.996c-0.036,0.051-0.042,0.101-0.034,0.147c-0.771-0.09-1.563-0.076-2.351-0.037
				C134.717,31.753,134.706,31.685,134.649,31.624z M123.044,30.934c0.1-0.57,0.498-1.407,1.1-1.652
				c0.601-0.244,1.841-0.003,2.495-0.004c0.711-0.001,1.574-0.141,2.268-0.004c1.305,0.257,1.171,1.697,1.211,2.728
				c-0.988,0.034-1.975,0.068-2.963,0.102c-1.395,0.048-2.79,0.096-4.185,0.144C122.985,31.82,122.972,31.343,123.044,30.934z
				 M138.799,48.492c-0.956,0.735-2.55,0.588-3.689,0.649c-1.311,0.07-2.621,0.136-3.932,0.199
				c-2.622,0.125-5.244,0.235-7.867,0.329c-1.148,0.041-2.295,0.08-3.443,0.115c-1.255,0.039-2.659,0.245-3.9,0.001
				c-1.871-0.369-2.036-2.038-2.185-3.621c-0.138-1.467-0.267-2.936-0.335-4.408c-0.067-1.468-0.076-2.94,0.036-4.406
				c0.123-1.622,0.337-3.999,2.25-4.427c0.029,0.013,0.061,0.021,0.101,0.02c5.169-0.178,10.338-0.357,15.507-0.535
				c1.231-0.042,2.461-0.087,3.692-0.127c1.114-0.036,2.392-0.137,3.417,0.394c1.434,0.744,1.259,2.528,1.288,3.91
				c0.029,1.363,0.039,2.726,0.03,4.088c-0.008,1.122-0.028,2.245-0.062,3.367C139.665,45.362,139.949,47.607,138.799,48.492z"/>
			<path d="M128.321,29.716c-0.666-0.037-1.332-0.046-1.999-0.013c-0.461,0.023-1.183-0.024-1.621,0.162
				c-0.79,0.337-0.044,0.903-0.17,1.472c-0.008,0.035-0.008,0.068-0.002,0.098c-0.17,0.111-0.137,0.429,0.108,0.41
				c0.586-0.046,1.172-0.092,1.758-0.138c0.496-0.039,1.125,0.005,1.601-0.135c0.644-0.189,0.497-1.097,0.548-1.632
				C128.557,29.815,128.433,29.722,128.321,29.716z M127.568,31.166c-0.23,0.098-0.636,0.05-0.879,0.069
				c-0.57,0.045-1.141,0.09-1.711,0.134c0.025-0.166,0.01-0.306-0.042-0.48c-0.032-0.107-0.167-0.276-0.148-0.38
				c0.041-0.223,0.458-0.259,0.681-0.294c0.849-0.134,1.752-0.108,2.615-0.063C128.063,30.569,128.063,30.955,127.568,31.166z"/>
			<path d="M132.261,37.29c-1.979-2.209-5.375-2.65-8.117-1.788c-2.805,0.882-4.314,3.629-3.926,6.5
				c0.444,3.279,3.259,5.571,6.5,5.638c2.44,0.303,4.93-0.742,6.236-2.927C134.366,42.35,134.097,39.34,132.261,37.29z
				 M126.929,47.209c-0.022-0.007-0.045-0.015-0.072-0.015c-0.033,0-0.065-0.002-0.098-0.003c-0.315-0.039-0.631-0.103-0.946-0.193
				c-0.098-0.028-0.174,0.009-0.222,0.07c-2.892-0.58-5.128-3.096-4.983-6.213c0.183-3.933,3.679-5.582,7.218-5.233
				c3.366,0.332,6.045,3.181,5.521,6.664C132.866,45.487,129.982,47.506,126.929,47.209z"/>
			<path d="M132.28,40.665c-0.588-2.932-3.483-4.828-6.368-4.27c-1.367,0.264-2.722,0.79-3.48,2.026
				c-0.682,1.111-0.812,2.512-0.48,3.759c0.754,2.838,3.656,4.32,6.431,3.593c0.048-0.012,0.08-0.038,0.105-0.067
				C131.058,45.719,132.784,43.18,132.28,40.665z M127.987,45.224c-0.152-0.02-0.22,0.098-0.209,0.218
				c-2.252,0.366-4.511-0.789-5.289-3.039c-0.904-2.615,0.541-4.857,3.131-5.485c2.609-0.633,5.216,0.689,6.079,3.305
				C132.531,42.752,130.815,45.593,127.987,45.224z"/>
			<path d="M128.217,40.213c-0.397-0.494-1.042-0.65-1.622-0.508c-0.063-0.071-0.161-0.106-0.266-0.042
				c-0.765,0.466-1.198,1.504-0.712,2.327c0.449,0.76,1.569,1.021,2.288,0.496C128.598,41.979,128.757,40.885,128.217,40.213z
				 M127.573,42.17c-0.508,0.311-1.271,0.103-1.57-0.407c-0.26-0.442-0.146-0.964,0.148-1.347c0.015-0.008,0.03-0.013,0.044-0.025
				c0.476-0.418,1.281-0.396,1.681,0.12C128.263,41.01,128.115,41.838,127.573,42.17z"/>
			<path d="M137.582,33.55c-0.007-0.112-0.097-0.236-0.224-0.224c-1.177,0.11-2.333,0.316-3.474,0.624
				c-0.104,0.028-0.153,0.117-0.165,0.216c-0.065,0.562-0.036,1.08,0.078,1.632c0.059,0.282,0.491,0.163,0.432-0.119
				c-0.094-0.453-0.114-0.884-0.077-1.334c0.986-0.258,1.983-0.44,2.997-0.546c0.043,0.656,0.087,1.311,0.13,1.967
				c-0.955,0.127-1.909,0.159-2.872,0.099c-0.288-0.018-0.287,0.431,0,0.448c1.064,0.066,2.114,0.017,3.168-0.136
				c0.091-0.013,0.17-0.127,0.165-0.216C137.688,35.157,137.635,34.353,137.582,33.55z"/>
		</g>
		<g>
			<path d="M172.989,29.042c-0.082-0.775-0.665-1.334-1.361-1.581c0.772-0.492,1.175-1.415,1.025-2.376
				c-0.15-0.962-0.84-2.009-1.809-2.175c1.009-0.912,0.81-2.466-0.286-3.294c-1.257-0.95-3.79-0.964-5.222-0.087
				c0.118-1.786-0.07-3.61-0.867-5.235c-0.636-1.296-2.09-3.206-3.778-2.671c-1.886,0.597-0.887,3.194-0.838,4.587
				c0.05,1.43-0.128,2.935-0.943,4.153c-0.937,1.401-2.439,1.748-4.003,1.931c-0.025-0.042-0.065-0.077-0.128-0.093
				c-0.197-0.049-0.405-0.021-0.571,0.102c-0.005,0.004-0.008,0.009-0.013,0.013c-0.01-0.341-0.019-0.683-0.029-1.024
				c-0.004-0.149-0.125-0.219-0.241-0.215c-0.326-0.843-1.249-0.923-2.126-0.896c-1.695,0.052-3.411,0.179-5.101,0.321
				c-0.965,0.081-2.071,0.233-2.468,1.258c-0.492,1.27-0.109,3.12-0.048,4.443c0.087,1.875,0.224,3.748,0.41,5.616
				c0.101,1.012-0.01,2.741,0.797,3.532c0.83,0.812,2.6,0.593,3.657,0.616c1.856,0.041,3.704-0.079,5.543-0.324
				c0.197-0.026,0.255-0.25,0.177-0.372c0.078-0.079,0.1-0.2-0.013-0.288c-0.325-0.253-0.295-0.969-0.269-1.499
				c0.027,0.078,0.095,0.141,0.203,0.141c2.277,0.004,4.552,0.102,6.819,0.319c2.127,0.204,4.266,0.645,6.409,0.584
				c1.324-0.038,3.201-0.199,4.049-1.391c0.532-0.747,0.46-1.648,0.009-2.372C172.62,30.477,173.067,29.786,172.989,29.042z
				 M147.66,35.461c-0.999-0.063-2.028-0.276-2.365-1.406c-0.159-0.533-0.145-1.196-0.203-1.747
				c-0.127-1.218-0.233-2.438-0.318-3.659c-0.085-1.221-0.149-2.444-0.192-3.668c-0.044-1.278-0.451-3.467,1.158-3.904
				c1.023-0.278,2.223-0.206,3.279-0.272c0.91-0.057,4.289-0.727,4.559,0.678c0.018,0.095,0.08,0.141,0.151,0.155
				c0.073,2.584,0.145,5.168,0.218,7.752c0.037,1.309,0.074,2.617,0.11,3.926c0.016,0.584-0.152,1.451,0.297,1.91
				C152.132,35.507,149.897,35.601,147.66,35.461z M171.693,30.395c-0.114-0.111-0.262-0.051-0.328,0.063
				c-0.023,0.001-0.046,0.004-0.069,0.004c-0.289-0.003-0.289,0.445,0,0.448c0.079,0.001,0.157-0.006,0.233-0.017
				c1.704,2.175-1.856,3.101-3.379,3.182c-1.495,0.079-2.99-0.151-4.469-0.335c-2.986-0.372-5.984-0.557-8.993-0.561
				c-0.1,0-0.164,0.055-0.194,0.126c0.004-0.088,0.006-0.168,0.004-0.234c-0.014-0.491-0.028-0.981-0.041-1.472
				c-0.032-1.145-0.064-2.29-0.097-3.435l-0.154-5.479c0.07,0.043,0.162,0.057,0.229,0.007c0.031-0.023,0.061-0.039,0.092-0.05
				c0.026,0.077,0.092,0.135,0.201,0.123c1.644-0.18,3.233-0.464,4.317-1.826c1.009-1.267,1.29-2.923,1.261-4.502
				c-0.019-1.024-0.462-2.328-0.285-3.321c0.264-1.478,1.831-1.172,2.665-0.482c0.462,0.382,0.836,0.895,1.139,1.406
				c1.044,1.757,1.213,3.866,1.034,5.862c-0.06,0.079-0.052,0.168-0.004,0.238c0.055,0.174,0.337,0.167,0.417-0.013
				c0.883-0.746,2.863-0.907,3.914-0.646c1.332,0.331,2.822,2.057,1.244,3.199c-0.083,0.06-0.106,0.148-0.092,0.229
				c-0.035,0.005-0.069,0.007-0.104,0.014c-0.282,0.059-0.163,0.491,0.119,0.432c1.222-0.256,1.934,1.361,1.867,2.301
				c-0.058,0.811-0.568,1.451-1.362,1.66c-0.252,0.066-0.178,0.422,0.044,0.437c0.026,0.012,0.054,0.022,0.087,0.024
				c0.671,0.047,1.362,0.473,1.528,1.163C172.668,29.568,172.269,30.195,171.693,30.395z"/>
			<path d="M150.117,23.191c-0.088-0.43-0.45-0.785-0.868-0.878c-0.006-0.106-0.074-0.199-0.211-0.182
				c-0.61,0.078-1.084,0.617-1.062,1.243c0.022,0.622,0.577,1.023,1.174,0.971C149.735,24.294,150.244,23.807,150.117,23.191z
				 M149.083,23.902c-0.703,0.038-0.802-0.774-0.414-1.146c0.046,0.032,0.106,0.045,0.178,0.019
				c0.364-0.131,0.786,0.149,0.837,0.535C149.732,23.667,149.401,23.885,149.083,23.902z"/>
		</g>
		<g>
			<path d="M90.422,84.454c-0.048,0.04-0.097,0.08-0.145,0.119c-0.011-0.001-0.02-0.006-0.033-0.005
				c-5.161,0.28-10.371-0.076-15.533-0.221c-5.219-0.147-10.437-0.293-15.656-0.44c-0.289-0.008-0.288,0.44,0,0.448
				c5.219,0.147,10.437,0.293,15.656,0.44c4.983,0.14,10.011,0.475,14.997,0.246c-2.148,1.77-4.296,3.541-6.444,5.311
				c-7.932-2.445-15.993-4.441-24.15-5.979c-0.099-0.019-0.178,0.023-0.225,0.087c-0.134-0.038-0.246,0.091-0.248,0.229
				c-0.07,0.113-0.049,0.288,0.118,0.338c0.096,0.029,0.191,0.059,0.287,0.088c5.684,4.248,11.181,8.736,16.48,13.455
				c0.215,0.191,0.533-0.125,0.317-0.317c-5.008-4.46-10.195-8.711-15.545-12.753c7.137,2.201,14.19,4.663,21.145,7.387
				c-1.861,2.104-3.832,4.099-5.916,5.983c-0.215,0.194,0.103,0.51,0.317,0.317c1.394-1.261,2.734-2.575,4.027-3.936
				c-0.002,0.07,0.026,0.14,0.104,0.186c0.542,0.32,1.083,0.64,1.625,0.961c0.187,0.111,0.361-0.081,0.331-0.245
				c0.823-1.724,1.404-3.52,1.737-5.402c0.009-0.053-0.002-0.097-0.02-0.137c2.364-1.948,4.728-3.897,7.092-5.845
				C90.962,84.587,90.643,84.271,90.422,84.454z M80.086,95.023c0.299-0.317,0.598-0.634,0.892-0.956
				c0.09,0.568,0.216,1.12,0.38,1.669c-0.386-0.228-0.771-0.456-1.157-0.684C80.161,95.028,80.123,95.022,80.086,95.023z
				 M81.749,95.482c-0.167-0.576-0.291-1.158-0.376-1.759c-0.004-0.026-0.014-0.046-0.024-0.066c0.152-0.17,0.309-0.335,0.46-0.506
				c0.065-0.074,0.068-0.159,0.04-0.231c0.094-0.105,0.088-0.318-0.089-0.387c-6.975-2.738-14.048-5.211-21.207-7.422
				c7.603,1.49,15.121,3.374,22.526,5.655c0.03,0.035,0.07,0.059,0.115,0.075C82.895,92.449,82.417,93.992,81.749,95.482z"/>
			<path d="M125.25,111.14c-1.707-3.232-5.117-5.311-8.728-5.587c-0.868-0.066-1.776-0.025-2.677,0.12
				c-0.139-0.623-0.344-1.227-0.61-1.791c-1.627-3.451-5.056-5.845-8.702-6.739c-3.019-0.74-6.38-0.551-9.248,0.723
				c-0.034-0.061-0.067-0.123-0.102-0.183c-2.259-3.854-7.013-5.223-11.055-3.48c-0.264,0.114-0.036,0.5,0.226,0.387
				c3.229-1.392,6.994-0.702,9.396,1.907c0.398,0.432,0.766,0.976,1.075,1.581c-0.405,0.2-0.8,0.422-1.18,0.669
				c-1.443,0.936-2.817,2.344-3.172,4.086c-0.27,1.328,0.091,3.052,1.672,3.214c1.602,0.163,3.011-1.144,3.631-2.509
				c0.763-1.682,0.501-3.634-0.284-5.267c0.152-0.066,0.305-0.13,0.458-0.189c2.623-1.02,5.549-1.185,8.284-0.547
				c3.882,0.905,8.227,4.215,9.261,8.2c-2.377,0.456-4.664,1.658-5.994,3.647c-0.745,1.114-1.253,2.835-0.199,3.934
				c1.029,1.074,2.758,0.758,3.89,0.033c2.429-1.557,3.204-4.526,2.738-7.236c0.857-0.138,1.73-0.175,2.59-0.109
				c3.273,0.25,6.366,2.063,8.073,4.889c1.885,3.118,1.616,7.21-0.997,9.834c-0.204,0.205,0.113,0.522,0.317,0.317
				C126.52,118.426,126.955,114.369,125.25,111.14z M93.095,105.505c-2.802,0.839-2.422-2.754-1.494-4.181
				c0.819-1.259,2.071-2.182,3.42-2.836C96.183,101.088,96.229,104.566,93.095,105.505z M112.724,111.067
				c-0.806,1.382-2.616,3.026-4.374,2.391c-2.367-0.855-0.753-3.731,0.402-4.845c1.33-1.283,3.042-2.091,4.846-2.44
				C113.905,107.745,113.69,109.411,112.724,111.067z"/>
		</g>
		<g>
			<path d="M206.439,74.894c-5.102-4.012-13.846,0.489-13.028,7.136c0.186,1.508,1.016,2.922,2.262,3.799
				c0.598,0.421,1.286,0.707,2.012,0.809c0.781,0.11,1.346,0.295,1.675,1.114c0.257,0.639,0.252,1.514,0.366,2.196
				c0.014,0.085,0.064,0.13,0.125,0.149c0.005,0.02,0.014,0.039,0.025,0.058c-0.002,0.001-0.003,0.001-0.005,0.002
				c-0.567,0.335-0.63,1.057-0.206,1.558c0.046,0.054,0.098,0.102,0.153,0.148c-0.361,0.798,0.085,1.278,0.757,1.545
				c0.002,0.003,0.002,0.006,0.004,0.009c1.326,1.883,4.156,1.394,4.709-0.865c0.011-0.047,0.005-0.087-0.007-0.123
				c0.458-0.512,0.605-1.158,0.046-1.892c-0.023-0.03-0.05-0.051-0.079-0.067c0.024-0.452-0.171-0.881-0.593-1.148
				c-0.141-0.619-0.254-1.24-0.32-1.873c-0.064-0.612-0.125-0.831,0.429-1.086c0.646-0.297,1.257-0.496,1.842-0.936
				c1.041-0.784,1.838-1.896,2.265-3.126C209.819,79.566,208.655,76.637,206.439,74.894z M201.353,93.615
				c0.512,0.085,1.033,0.089,1.386,0.042c0.561-0.074,1.317-0.326,1.924-0.716C204.03,94.203,202.416,94.542,201.353,93.615z
				 M205.024,91.188c0.032-0.053,0.055-0.108,0.08-0.163c0.591,1.187-1.191,1.967-2.155,2.148c-0.699,0.131-3.266,0.195-2.746-1.077
				c0.715,0.315,1.74,0.284,2.38,0.256C203.51,92.311,204.516,92.035,205.024,91.188z M204.481,89.833
				c0.023-0.021,0.038-0.043,0.048-0.066c0.906,0.678-0.292,1.767-1.006,1.994c-0.398,0.126-0.822,0.149-1.237,0.148
				c-0.345-0.001-0.691-0.022-1.034-0.061c-0.33-0.037-2.324-0.613-1.156-1.303c0.069-0.041,0.099-0.1,0.104-0.161
				c0.5,0.272,1.043,0.416,1.588,0.441c0.032,0.008,0.064,0.01,0.097,0.004C202.822,90.846,203.756,90.506,204.481,89.833z
				 M198.953,82.884c0.141-0.253,0.32-0.49,0.546-0.703c0.749-0.704,1.581-0.707,2.491-0.774c-0.284,2.952,0.167,6.102,0.721,8.785
				c0.008,0.038,0.023,0.067,0.042,0.091c-0.239,0.06-0.483,0.096-0.729,0.1C201.317,87.751,200.29,85.246,198.953,82.884z
				 M203.982,86.076c-0.093,0.017-0.168,0.124-0.165,0.216c0.035,1.055,0.168,2.075,0.397,3.102c-0.01,0.032-0.015,0.064-0.01,0.097
				c-0.014,0.007-0.028,0.013-0.041,0.025c-0.307,0.285-0.654,0.499-1.021,0.644c0.005-0.027,0.006-0.056,0-0.088
				c-0.541-2.625-0.995-5.781-0.7-8.708c0.035-0.004,0.07-0.008,0.106-0.012c0.889-0.117,1.652-0.506,1.925-1.402
				c0.084-0.277-0.348-0.395-0.432-0.119c-0.238,0.78-0.861,1.002-1.546,1.079c0.174-1.347,0.515-2.637,1.092-3.792
				c0.129-0.257-0.258-0.485-0.387-0.226c-0.621,1.243-0.982,2.62-1.16,4.053c-0.346,0.016-0.69,0.019-0.992,0.059
				c-0.594,0.077-1.126,0.27-1.605,0.639c-0.3,0.231-0.545,0.506-0.744,0.807c-0.139-0.236-0.276-0.473-0.421-0.706
				c-0.152-0.245-0.54-0.02-0.387,0.226c0.191,0.307,0.376,0.618,0.556,0.93c-0.234,0.513-0.341,1.084-0.308,1.669
				c0.016,0.287,0.465,0.289,0.448,0c-0.023-0.405,0.026-0.795,0.142-1.161c1.212,2.198,2.157,4.517,2.822,6.948
				c-0.478-0.063-1.028-0.23-1.456-0.51c-0.005-0.003-0.093-0.003-0.093-0.005c0-0.004,0-0.007,0-0.011
				c-1-1.095,0.066-3.179-1.278-3.547c-0.773-0.212-1.508-0.1-2.262-0.477c-0.865-0.432-1.556-1.158-2.025-1.998
				c-2.114-3.791,1.119-8.273,4.735-9.564c3.409-1.218,7.312,0.078,8.959,3.404C209.826,81.074,207.763,85.369,203.982,86.076z"/>
			<path d="M193.184,87.323c-0.657,0.618-1.315,1.237-1.972,1.855c-0.211,0.198,0.107,0.515,0.317,0.317
				c0.658-0.618,1.315-1.237,1.972-1.855C193.712,87.442,193.394,87.125,193.184,87.323z"/>
			<path d="M190.368,79.4c-0.655-0.182-1.31-0.364-1.965-0.546c-0.278-0.077-0.397,0.355-0.119,0.432
				c0.655,0.182,1.31,0.364,1.965,0.546C190.527,79.909,190.646,79.477,190.368,79.4z"/>
			<path d="M198.098,71.331c-0.66-0.703-1.184-1.504-1.553-2.395c-0.109-0.263-0.543-0.148-0.432,0.119
				c0.4,0.966,0.952,1.831,1.668,2.593C197.979,71.859,198.295,71.542,198.098,71.331z"/>
			<path d="M208.537,70.346c-0.46,0.773-0.974,1.507-1.548,2.2c-0.183,0.221,0.133,0.54,0.317,0.317
				c0.598-0.722,1.139-1.485,1.618-2.291C209.072,70.323,208.685,70.098,208.537,70.346z"/>
			<path d="M214.523,79.835c-0.479,0.423-1.063,0.652-1.702,0.673c-0.288,0.01-0.289,0.458,0,0.448
				c0.76-0.025,1.449-0.302,2.019-0.805C215.057,79.961,214.739,79.645,214.523,79.835z"/>
			<path d="M211.255,87.618c-0.428-0.492-0.97-0.845-1.587-1.051c-0.274-0.092-0.392,0.341-0.119,0.432
				c0.546,0.182,1.012,0.502,1.389,0.936C211.128,88.153,211.444,87.835,211.255,87.618z"/>
		</g>
		<path d="M163.385,154.674c-0.348-1.769-0.831-3.609-1.693-5.206c-1.142-2.114-3.399-3.225-5.501-2.709
			c0.095-0.037,0.163-0.126,0.115-0.25c-0.813-2.112-3.113-5.946-5.892-4.403c-1.813,1.007-3.233,2.875-5.505,2.832
			c-2.464-0.047-3.393-2.592-3.404-4.683c-0.001-0.288-0.45-0.289-0.448,0c0.014,2.697,1.534,5.594,4.649,5.061
			c1.833-0.314,3.093-1.636,4.591-2.604c2.644-1.708,4.773,1.827,5.577,3.917c0.046,0.12,0.158,0.159,0.259,0.145
			c-0.743,0.194-1.466,0.59-2.112,1.222c-0.076,0.074-0.08,0.164-0.046,0.238c-1.782,1.717-1.34,5.172-0.941,7.331c0,0,0,0,0,0
			c-0.036,0.091-0.012,0.198,0.05,0.262c0.592,3.015,2.023,7.296,5.133,8.486c2.859,1.094,5.12-1.564,5.516-4.163
			C164.006,158.35,163.734,156.446,163.385,154.674z M159.357,147.553c1.589,0.889,2.328,2.737,2.857,4.379
			c0.021,0.063,0.041,0.129,0.062,0.194c-0.047-0.054-0.119-0.082-0.209-0.048l-3.743,1.412c-0.002-0.006-0.001-0.01-0.003-0.016
			c-0.236-0.603-0.472-1.207-0.708-1.81c0.068-0.035,0.118-0.103,0.118-0.194c0-0.08-0.005-0.158-0.01-0.236
			c0.126-0.299,0.05-0.751-0.014-1.007c-0.146-0.584-0.495-1.074-0.968-1.431c-0.004-0.163-0.194-0.278-0.327-0.203
			c-0.165-0.423-0.331-0.846-0.496-1.269C157.024,146.916,158.283,146.952,159.357,147.553z M155.06,148.021
			c0.143-0.07,0.136-0.216,0.059-0.315c0.125-0.076,0.254-0.145,0.386-0.208c0.216,0.552,0.432,1.103,0.647,1.655
			c-0.104,0.412-0.091,0.844,0.057,1.259c0.119,0.334,0.448,0.913,0.855,1.074c0.275,0.702,0.55,1.405,0.824,2.107
			c0.008,0.02,0.021,0.034,0.032,0.049l-4.512,1.703C152.842,152.606,152.702,149.17,155.06,148.021z M161.978,162.972
			c-3.633,3.801-6.971-2.23-7.917-5.165c-0.178-0.552-0.38-1.251-0.557-2.022c2.894-1.092,5.787-2.184,8.681-3.276
			c0.096-0.036,0.141-0.116,0.149-0.198C163.323,155.467,164.469,160.366,161.978,162.972z"/>
		<path d="M103.414,42.107c-0.035-0.055-0.092-0.097-0.176-0.099l-12.678-0.284c-0.064-0.193-0.36-0.198-0.42-0.009l-5.33-0.119
			c-0.025-0.001-0.045,0.006-0.066,0.012c-0.132-0.542-0.264-1.084-0.396-1.626c-0.018-0.074-0.061-0.118-0.114-0.141
			c-0.035-0.055-0.091-0.098-0.171-0.106c-1.193-0.118-2.386-0.168-3.585-0.151c-0.012,0-0.021,0.005-0.032,0.007
			c-0.036-0.199-0.136-0.388-0.304-0.53c-0.441-0.372-1.126-0.263-1.544,0.087c-0.439,0.367-0.46,0.974,0.001,1.333
			c0.554,0.432,1.235,0.152,1.788-0.126c0.149-0.075,0.134-0.233,0.047-0.331c0.015,0.003,0.027,0.009,0.044,0.008
			c1.155-0.016,2.305,0.032,3.455,0.14c0.58,2.385,1.161,4.77,1.741,7.155c0.231,0.948,0.29,2.345,0.786,3.165
			c0.197,0.327,0.272,0.412,0.659,0.527c0.244,0.072,0.52,0.11,0.812,0.129c-0.461,0.448-0.747,1.052-0.584,1.727
			c0.24,0.994,1.208,1.194,2.105,1.162c0.918-0.033,1.479-0.639,1.256-1.576c-0.142-0.599-0.557-1.07-1.083-1.332
			c0.268-0.01,0.524-0.018,0.755-0.013c1.141,0.027,2.281,0.053,3.422,0.08c1.785,0.042,3.57,0.083,5.355,0.125
			c-0.47,0.449-0.715,1.121-0.548,1.774c0.197,0.773,0.925,1.243,1.71,1.044c0.763-0.193,1.18-0.998,1.023-1.749
			c-0.098-0.465-0.399-0.822-0.787-1.036c0.193,0.005,0.387,0.009,0.58,0.014c0.289,0.007,0.289-0.442,0-0.448
			c-4.074-0.095-8.148-0.191-12.222-0.286c-0.052-0.001-0.114,0-0.18,0.002c-0.018-0.002-0.035-0.001-0.054,0.002
			c-0.393,0.014-0.953,0.058-1.232-0.038c-0.734-0.252-0.722-0.853-0.871-1.464c-0.046-0.187-0.091-0.375-0.137-0.562l1.741-0.051
			c0.092,0.084,0.239,0.07,0.322-0.009l5.098-0.149c2.444-0.071,5.094-0.443,7.507-0.006c0.073,0.013,0.135-0.007,0.182-0.043
			c0.06-0.006,0.116-0.037,0.151-0.111c0.905-1.874,1.614-3.816,2.126-5.834C103.599,42.236,103.516,42.141,103.414,42.107z
			 M79.937,40.008c-0.025,0.029-0.039,0.061-0.047,0.092c-0.219,0.102-0.456,0.188-0.688,0.158
			c-0.372-0.047-0.676-0.395-0.365-0.725c0.203-0.216,0.563-0.319,0.844-0.222C79.953,39.404,80.149,39.755,79.937,40.008z
			 M99.543,51.577c0.557-0.033,1.159,0.229,1.334,0.803c0.166,0.545-0.1,1.184-0.677,1.327c-0.627,0.155-1.142-0.31-1.19-0.929
			C98.974,52.307,99.19,51.868,99.543,51.577z M88.564,51.208c0.029,0.077,0.094,0.14,0.199,0.144
			c0.616,0.027,1.162,0.392,1.414,0.957c0.161,0.36,0.227,0.904-0.161,1.162c-0.234,0.155-0.624,0.123-0.89,0.115
			c-0.689-0.023-1.364-0.277-1.377-1.078C87.741,51.942,88.117,51.507,88.564,51.208z M93.254,42.238
			C93.251,42.254,93,42.267,93,42.284v1.511c-1-0.002-1.617-0.003-2.525-0.005c-0.04-0.538-0.071-1.076-0.092-1.616
			C91.339,42.195,92.293,42.217,93.254,42.238z M90.454,45.982c-0.854,0.015-1.712,0.03-2.57,0.045
			c-0.147-0.594-0.274-1.192-0.384-1.795c0.924,0.002,1.847,0.003,2.773,0.005C90.323,44.82,90.383,45.402,90.454,45.982z
			 M90.144,42.164c0.021,0.543,0.052,1.085,0.092,1.626c-0.938-0.002-1.876-0.003-2.814-0.005c-0.092-0.558-0.17-1.12-0.23-1.687
			C88.177,42.119,89.161,42.141,90.144,42.164z M84.85,42.044c0.633,0.014,1.263,0.028,1.893,0.043
			c0.06,0.57,0.136,1.135,0.228,1.696c-0.565-0.001-1.13-0.002-1.699-0.003C85.131,43.202,84.99,42.623,84.85,42.044z
			 M85.346,44.229c0.57,0.001,1.136,0.002,1.702,0.003c0.108,0.605,0.233,1.206,0.378,1.804c-0.551,0.01-1.102,0.019-1.65,0.029
			C85.627,45.452,85.495,44.841,85.346,44.229z M86.329,48.127l-0.428-1.617c0.548-0.01,1.092-0.019,1.639-0.029
			c0.139,0.535,0.294,1.067,0.464,1.596C87.447,48.095,86.89,48.111,86.329,48.127z M88.47,48.065
			c-0.172-0.528-0.328-1.058-0.469-1.591c0.835-0.015,1.673-0.029,2.506-0.044c0.07,0.523,0.148,1.046,0.236,1.568
			C89.986,48.02,89.229,48.043,88.47,48.065z M90.512,44.239C91.404,44.24,92,44.242,93,44.243v1.687
			c-1,0.015-1.566,0.03-2.413,0.045C90.515,45.397,90.561,44.818,90.512,44.239z M91.192,47.985
			c-0.088-0.52-0.377-1.041-0.447-1.563C91.567,46.407,92,46.393,93,46.378v1.472c0,0.026,0.252,0.046,0.259,0.068
			C92.496,47.94,91.95,47.963,91.192,47.985z M97.392,42.325c0.849,0.019,1.699,0.038,2.548,0.057
			c-0.02,0.476-0.051,0.951-0.09,1.424c-0.873-0.002-1.746-0.003-2.62-0.005c0.042-0.486,0.095-0.972,0.163-1.458
			C97.394,42.337,97.392,42.332,97.392,42.325z M94.085,47.901c-0.053,0.002-0.574,0.003-0.627,0.005
			C93.462,47.888,93,47.872,93,47.851v-1.48c1-0.016,2.298-0.032,3.212-0.048c0.001,0.482,0.249,0.965,0.275,1.449
			C95.599,47.816,94.949,47.876,94.085,47.901z M96.215,45.874C95.3,45.89,94,45.906,93,45.922v-1.678
			c1,0.002,2.109,0.003,3.047,0.005C96.009,44.79,96.222,45.332,96.215,45.874z M96.317,43.801C95.368,43.799,94,43.798,93,43.796
			v-1.512c0-0.014,0.464-0.024,0.462-0.036c1.006,0.023,2.012,0.045,3.019,0.068C96.413,42.811,96.359,43.306,96.317,43.801z
			 M99.326,47.732c-0.714-0.027-1.436-0.011-2.157,0.02c-0.025-0.48-0.039-0.958-0.041-1.437c0.812-0.014,1.624-0.028,2.436-0.043
			c-0.071,0.467-0.15,0.933-0.239,1.398C99.322,47.692,99.325,47.711,99.326,47.732z M97.13,45.866
			c0.006-0.539,0.029-1.078,0.066-1.616c0.87,0.002,1.741,0.003,2.611,0.005c-0.049,0.524-0.11,1.046-0.182,1.568L97.13,45.866z
			 M101.086,47.903c-0.435-0.073-0.877-0.12-1.322-0.149c0.095-0.496,0.177-0.993,0.251-1.49c0.539-0.009,1.077-0.019,1.615-0.028
			c0.288-0.005,0.289-0.453,0-0.448c-0.518,0.009-1.037,0.018-1.555,0.027c0.071-0.518-0.056-1.038-0.007-1.559L102,44.26
			c0,0.001,0-0.448,0-0.448c-1-0.001-1.196-0.003-1.887-0.004c0.038-0.47,0.161-0.942,0.182-1.415c0.897,0.02,1.84,0.04,2.737,0.06
			C102.541,44.335,101.928,46.147,101.086,47.903z"/>
		<g>
			<path d="M145.224,160.617c-0.278-0.08-0.396,0.352-0.119,0.432c1.079,0.312-0.957,1.255-1.07,1.287
				c-0.462,0.134-0.966,0.156-1.442,0.201c-0.823,0.078-1.652,0.133-2.479,0.157c-0.949,0.027-1.907,0.01-2.847-0.137
				c-0.437-0.068-0.874-0.16-1.297-0.289c-0.2-0.061-1.709-0.696-1.148-0.931c0.262-0.11,0.147-0.544-0.119-0.432
				c-0.891,0.373-0.405,1.161,0.255,1.476c1.622,0.775,3.623,0.819,5.383,0.755c1.485-0.054,3.616,0.074,4.895-0.824
				C145.897,161.847,146.189,160.896,145.224,160.617z"/>
			<path d="M146.964,160.886c-0.019-0.084-0.037-0.168-0.058-0.251c-0.002-0.006-0.006-0.01-0.008-0.016
				c0.023-0.068,0.013-0.144-0.06-0.207c-2.019-1.737-5.747-1.382-8.205-1.243c-1.822,0.103-5.038-0.104-5.492,2.211
				c-0.38,1.372-0.201,2.603,0.343,3.644c-1.573,0.921-3.202,2.918-1.586,4.591c1.671,1.73,5.241,1.616,7.419,1.583
				c1.545-0.024,3.092-0.194,4.606-0.5c1.303-0.263,2.854-0.534,4.008-1.234c0.658-0.4,1.091-1.036,0.923-1.829
				c-0.151-0.714-0.662-1.178-1.258-1.521c1.503,0.28,3.148-0.934,3.34-2.602C151.186,161.358,148.805,159.826,146.964,160.886z
				 M133.54,161.624c0.007-0.018,0.016-0.034,0.018-0.055c0.002-0.014,0.005-0.026,0.007-0.039c0.019-0.069,0.035-0.138,0.056-0.208
				c0.006-0.021,0.005-0.039,0.006-0.058c0.636-2,4.828-1.67,6.445-1.705c1.964-0.042,4.797-0.195,6.399,1.132
				c0,0.021-0.003,0.04,0.003,0.063c0.335,1.355,0.45,2.88-0.069,4.197c-0.166-0.001-0.316,0.218-0.173,0.381
				c-0.09,0.177-0.192,0.351-0.31,0.518c-1.216,1.722-3.626,2.261-5.61,2.309C136.727,168.246,132.535,165.649,133.54,161.624z
				 M147.951,166.913c1.052,1.246,0.297,1.903-0.524,2.308c-0.838,0.413-1.823,0.628-2.728,0.846
				c-1.911,0.46-3.874,0.687-5.839,0.685c-1.73-0.002-3.642-0.067-5.287-0.652c-0.986-0.35-1.809-0.946-1.831-2.057
				c-0.025-1.231,0.976-2.069,1.969-2.633c1.309,2.047,4.07,3.259,6.601,3.197c2.038-0.05,4.396-0.586,5.76-2.221
				c0.111-0.133,0.209-0.271,0.3-0.412c0.024,0.044,0.06,0.083,0.116,0.106C146.947,166.266,147.612,166.511,147.951,166.913z
				 M146.771,165.228c0.398-0.946,0.487-2.002,0.396-3.041c0.735-0.064,1.809-0.065,2.183,0.709
				c0.245,0.507,0.026,1.097-0.398,1.432c-0.466,0.367-1.067,0.378-1.618,0.233c-0.279-0.074-0.398,0.359-0.119,0.432
				c1.227,0.323,2.837-0.323,2.677-1.82c-0.142-1.325-1.68-1.528-2.742-1.434c-0.012,0.001-0.02,0.007-0.031,0.009
				c-0.018-0.131-0.036-0.261-0.059-0.391c1.474-0.954,3.518,0.123,3.449,1.924C150.438,165.121,148.232,166.463,146.771,165.228z"
				/>
			<path d="M136.388,157.556c-1.427,0.167-0.804-2.112-1.106-2.924c-0.197-0.53-0.575-0.878-1.139-0.938
				c-0.287-0.031-0.284,0.418,0,0.448c1.698,0.181-0.143,4.141,2.245,3.862C136.671,157.971,136.675,157.522,136.388,157.556z"/>
			<path d="M140.368,154.372c-0.052-0.783-0.588-1.433-1.129-1.953c-0.208-0.2-0.526,0.117-0.317,0.317
				c0.663,0.637,1.317,1.498,0.803,2.435c-0.224,0.409-0.631,0.679-0.782,1.136c-0.169,0.508-0.049,1.052,0.447,1.302
				c0.257,0.129,0.485-0.258,0.226-0.387c-0.884-0.444,0.266-1.425,0.496-1.824C140.302,155.07,140.394,154.753,140.368,154.372z"/>
			<path d="M145.055,152.617c-0.077-0.278-0.51-0.16-0.432,0.119c0.117,0.42,0.363,0.663,0.676,0.951
				c0.531,0.491,0.588,1.227-0.166,1.773c-0.282,0.204-0.635,0.296-0.917,0.507c-0.626,0.469-0.911,1.214-0.385,1.863
				c0.182,0.224,0.497-0.095,0.317-0.317c-0.778-0.959,1.143-1.545,1.589-1.916c0.274-0.228,0.533-0.535,0.584-0.901
				C146.462,153.691,145.289,153.458,145.055,152.617z"/>
		</g>
		<path d="M185.712,60.448c-3.419-1.976-6.838-3.951-10.258-5.927c-0.145-0.084-0.34,0.022-0.337,0.194
			c0.016,0.933,0.181,2.01,0.049,2.93c-0.109,0.764-0.086,0.671-0.742,0.882c-0.52,0.167-1.177,0.155-1.72,0.227
			c-2.048,0.27-4.096,0.54-6.144,0.81c-0.115,0.015-0.231,0.09-0.224,0.224c0.11,2.144,0.393,4.257,0.849,6.355
			c0.001,0.003,0.003,0.005,0.004,0.008c-0.049,0.136,0.016,0.31,0.198,0.294c2.027-0.18,4.044-0.438,6.048-0.796
			c0.555-0.099,1.109-0.205,1.661-0.318c0.331-0.068,1.148-0.416,1.417-0.307c0.723,0.292,0.424,2.789,0.372,3.426
			c-0.016,0.199,0.253,0.288,0.383,0.159c2.72-2.722,5.551-5.325,8.49-7.808C185.869,60.706,185.829,60.515,185.712,60.448z
			 M176.864,64.481c-3.052,0.709-6.138,1.207-9.257,1.494c-0.281-1.297-0.507-2.603-0.649-3.924
			c-0.045-0.417-0.148-0.938-0.121-1.357c0.056-0.878,0.37-0.768,1.198-0.877c2.458-0.324,4.915-0.648,7.373-0.972
			c0.119-0.016,0.227-0.09,0.224-0.224c-0.02-1.172-0.04-2.343-0.059-3.515c3.214,1.857,6.428,3.714,9.642,5.572
			c-2.709,2.299-5.325,4.702-7.847,7.204c0.047-1.09-0.03-2.163-0.227-3.244C177.118,64.515,176.974,64.456,176.864,64.481z"/>
		<path d="M155.719,129.661c-0.081-0.048-0.157-0.036-0.218,0.002c-0.351-0.256-0.784-0.371-1.229-0.316
			c0.123-0.967,0.452-1.869,0.981-2.701c0.463-0.172,0.865-0.453,0.662-0.931c-0.396-0.934-2.802-0.605-3.484-0.555
			c-0.732,0.054-2.407-0.033-2.486,0.956c-0.002,0.03,0.003,0.056,0.01,0.08c-0.054,0.113-0.03,0.277,0.123,0.335
			c0.213,0.082,0.429,0.151,0.646,0.214c0.567,0.86,0.897,1.797,0.984,2.809c-0.022-0.056-0.066-0.104-0.143-0.123
			c-1.139-0.288-2.041,0.858-1.528,1.902c0.07,0.142,0.216,0.135,0.315,0.06c0.418,0.277,0.907,0.426,1.426,0.496
			c-0.003,0.026-0.005,0.052,0.002,0.082c0.372,1.659,0.745,3.318,1.117,4.977c0.046,0.205,0.401,0.223,0.432,0
			c0.243-1.711,0.487-3.422,0.73-5.133c0.283-0.041,0.557-0.088,0.814-0.134C155.8,131.516,156.892,130.357,155.719,129.661z
			 M150.38,126.164c0.005-0.016,0.012-0.03,0.014-0.049c0.042-0.523,2.119-0.517,2.442-0.531c0.343-0.015,2.432-0.224,2.164,0.627
			c-0.001,0.002-0.003,0.002-0.004,0.004c-0.019,0.028-0.035,0.057-0.054,0.086c-0.325,0.275-1.967,0.31-2.166,0.309
			C151.942,126.605,151.156,126.442,150.38,126.164z M151.344,126.897c0.994,0.203,2.015,0.213,3.026-0.016
			c0.068-0.015,0.158-0.034,0.258-0.057c-0.465,0.849-0.743,1.768-0.831,2.738c-0.004,0.006-0.01,0.008-0.014,0.014
			c-0.331,0.534-1.097,0.688-1.607,0.322C152.144,128.829,151.866,127.817,151.344,126.897z M153.064,135.648
			c-0.278-1.239-0.556-2.479-0.835-3.718c0.454,0.022,0.92-0.006,1.371-0.057C153.422,133.131,153.243,134.39,153.064,135.648z
			 M154.901,131.225c-0.178,0.022-0.356,0.045-0.535,0.067c-0.396,0.042-0.795,0.068-1.193,0.1
			c-0.949,0.077-1.942,0.176-2.732-0.485c-0.032-0.026-0.065-0.04-0.099-0.048c-0.11-0.61,0.45-1.162,1.103-0.997
			c0.142,0.036,0.242-0.058,0.27-0.168c0.005,0.085,0.013,0.17,0.015,0.256c0,0.01,0.005,0.018,0.006,0.027
			c-0.02,0.066-0.009,0.139,0.063,0.2c0.616,0.511,1.513,0.473,2.084-0.037c0.131,0.062,0.328,0.001,0.336-0.19
			c0.002-0.048,0.007-0.096,0.01-0.144c0.497-0.104,1.01,0.086,1.304,0.507c0.009,0.013,0.022,0.02,0.032,0.031
			C155.661,130.886,155.441,131.181,154.901,131.225z"/>
		<path d="M95.857,14.073c-0.523-0.382-1.358,0.553-1.746,0.833c-0.173,0.125-0.343,0.255-0.514,0.383
			c-0.057,0.015-0.106,0.051-0.134,0.1c-0.89,0.673-1.75,1.384-2.584,2.127c-0.062,0.055-0.077,0.12-0.066,0.181
			c-0.013,0.014-0.028,0.025-0.039,0.044c-1.749,3.046-3.319,6.19-4.68,9.429c-0.856,2.037-2.709,5.498-0.099,7.066
			c0.859,0.516,1.95,0.501,2.809-0.001c1.21-0.707,1.642-2.262,2.171-3.465c1.528-3.477,3.057-6.955,4.585-10.432
			c0.04-0.025,0.074-0.061,0.092-0.117c0.395-1.21,0.618-2.454,0.602-3.73C96.248,16.005,96.312,14.406,95.857,14.073z
			 M94.386,15.137c-0.059,0.087-0.111,0.178-0.157,0.275c-0.125,0.013-0.246,0.142-0.211,0.295c-0.035-0.06-0.071-0.119-0.099-0.184
			C94.069,15.396,94.227,15.263,94.386,15.137z M85.742,29.219c0.518-1.33,1.075-2.644,1.664-3.944
			c1.081-2.388,2.284-4.718,3.58-6.996c0.225,0.373,0.652,0.571,1.075,0.516c-1.826,4.185-3.653,8.371-5.479,12.556
			c-0.005,0.011-0.004,0.022-0.007,0.033c-0.451-0.171-0.901-0.344-1.354-0.509C85.342,30.298,85.546,29.724,85.742,29.219z
			 M89.769,27.823c0.565-1.089,1.109-2.188,1.634-3.296c0.009,0.009,0.018,0.016,0.028,0.023c-0.778,1.606-1.557,3.211-2.335,4.817
			c-0.022-0.011-0.046-0.018-0.07-0.021C89.274,28.839,89.522,28.331,89.769,27.823z M89.144,26.596
			c0.119-0.272,0.237-0.544,0.356-0.816c0.018,0.035,0.045,0.063,0.075,0.085C89.427,26.106,89.283,26.35,89.144,26.596z
			 M87.485,31.577c-0.014,0.047-0.027,0.094-0.039,0.141c-0.153-0.06-0.306-0.12-0.459-0.178c0.061-0.139,0.121-0.278,0.182-0.416
			c-0.017,0.077-0.035,0.152-0.05,0.23C87.077,31.573,87.312,31.716,87.485,31.577z M86.222,33.848
			c-0.991-0.598-1.192-1.543-1.074-2.522c1.422,0.519,2.833,1.066,4.234,1.642C88.55,34.051,87.515,34.628,86.222,33.848z
			 M91.845,27.683c-0.467,1.063-1.16,3.347-2.198,4.91c-0.45-0.185-0.901-0.367-1.353-0.545c2.023-4.174,4.047-8.349,6.07-12.523
			c0.02-0.013,0.042-0.025,0.061-0.039c0.054,0.361,0.306,0.683,0.664,0.815C94.008,22.762,92.926,25.222,91.845,27.683z
			 M92.728,19.539c0.009-0.055,0.018-0.11,0.027-0.165c0.055,0.057,0.117,0.107,0.184,0.154c-0.033,0.019-0.062,0.043-0.09,0.069
			c-0.025-0.005-0.049-0.006-0.071-0.003C92.764,19.573,92.748,19.555,92.728,19.539z M95.785,17.319
			c-0.058,0.89-0.244,1.745-0.508,2.592c-0.02-0.016-0.041-0.032-0.068-0.042c-0.288-0.106-0.409-0.444-0.312-0.72
			c0.03-0.085,0.005-0.152-0.041-0.2c0.004-0.198-0.292-0.331-0.417-0.119c-0.058,0.099-0.128,0.179-0.205,0.244
			c-0.077-0.011-0.156,0.017-0.201,0.111c-0.003,0.006-0.006,0.012-0.009,0.018c-0.576,0.251-1.339-0.175-1.204-0.946
			c0.048-0.275-0.357-0.394-0.425-0.138c-0.03,0.019-0.057,0.045-0.076,0.088c-0.004,0.009-0.007,0.017-0.011,0.026
			c-0.412,0.31-0.988,0.064-1.031-0.469c0.619-0.549,1.248-1.085,1.9-1.596c0.081-0.063,0.222-0.188,0.396-0.341
			c0.419,0.803,1.33,1.26,2.23,1.08C95.796,17.097,95.789,17.245,95.785,17.319z M95.653,16.469
			c0.017-0.051,0.032-0.102,0.047-0.153c0.036,0.011,0.073,0.012,0.11,0.006c0,0.041,0,0.081-0.001,0.121
			C95.758,16.457,95.706,16.461,95.653,16.469z"/>
		<g>
			<path d="M69.988,131.148c0.05-1.57,0.096-3.14,0.138-4.71c0.003-0.123-0.077-0.19-0.169-0.208
				c0.193-1.135-0.089-2.517-1.263-3.114c-0.386-0.196-0.694-0.255-1.694-0.267c0-0.001,0-0.001,0-0.002
				c0-3.948-0.018-10.14-5.207-10.298c-1.816-0.055-3.408,0.964-4.33,2.521c-1.291,2.181-0.719,5.299-0.51,7.689
				c0.006,0.065,0.076,0.113,0.115,0.148c-0.335,0.033-0.647,0.072-0.972,0.127c-1.28,0.218-2.038,1.135-1.796,2.455
				c0.011,0.058,0.044,0.095,0.079,0.121c-0.109,1.468-0.162,2.938-0.139,4.41c0.016,1.018-0.196,2.648,0.347,3.578
				c0.425,0.728,1.24,0.767,2.004,0.802c1.641,0.074,3.287,0.097,4.929,0.106c1.561,0.008,3.123-0.007,4.684-0.046
				c0.815-0.021,1.653-0.001,2.464-0.082c0.303-0.03,0.648-0.044,0.894-0.26C70.242,133.514,69.963,131.917,69.988,131.148z
				 M57.599,116.215c0.628-1.905,2.4-3.284,4.418-3.218c4.901,0.161,4.983,6.176,4.983,9.849v0.001
				c-1,0.005-0.529,0.018-0.805,0.013c-0.108-0.002-0.135-0.002-0.243-0.004c0-0.004,0.043-0.006,0.043-0.009
				c-0.291-2.572-0.162-7.575-3.722-7.959c-3.649-0.394-3.386,5.687-3.186,7.839c0.003,0.033,0.018,0.061,0.031,0.086
				c-0.555,0.006-1.105,0.023-1.648,0.064c0.019-0.032,0.026-0.07,0.021-0.119C57.311,120.711,56.943,118.204,57.599,116.215z
				 M62.55,115.389c2.952,0.724,2.772,5.108,3.038,7.458c0,0.002,0.001,0.003,0.001,0.004c-0.99-0.013-1.988-0.019-2.971-0.014
				c-0.994,0.006-2.039-0.027-3.082-0.027c0.007-0.025,0.012-0.051,0.009-0.083C59.364,120.776,59.095,114.541,62.55,115.389z
				 M68.667,133.928c-0.342,0.123-1.114,0.042-1.478,0.054c-0.657,0.021-1.314,0.037-1.971,0.05c-1.15,0.022-2.301,0.03-3.451,0.026
				c-1.15-0.004-2.301-0.022-3.451-0.052c-1.36-0.036-3.329,0.317-3.521-1.518c-0.254-2.437-0.128-4.969,0.076-7.404
				c0.01-0.124-0.068-0.191-0.162-0.208c0.094-1.771,2.873-1.489,4.167-1.526c1.238-0.036,2.475-0.058,3.714-0.064
				c1.238-0.007,2.476,0.001,3.714,0.023c0.664,0.012,1.6-0.109,2.229,0.104c1.426,0.484,1.141,1.959,0.937,3.008
				c-0.03,0.153,0.083,0.255,0.202,0.275c-0.03,1.092-0.061,2.184-0.094,3.275C69.544,131.01,69.929,133.473,68.667,133.928z"/>
			<path d="M65.112,126.851c-0.357-0.943-1.419-1.486-2.388-1.484c-0.887,0.002-1.817,0.455-2.147,1.318
				c-0.319,0.836-0.055,1.78,0.699,2.269c-0.009,0.026-0.014,0.054-0.011,0.088c0.065,0.826,0.02,1.645-0.185,2.451
				c-0.089,0.35-0.325,0.831-0.047,1.157c0.261,0.306,0.8,0.18,1.144,0.163c0.849-0.041,1.697-0.083,2.546-0.124
				c0.118-0.006,0.228-0.098,0.224-0.224c-0.039-1.219-0.25-2.396-0.64-3.551C65.066,128.546,65.421,127.667,65.112,126.851z
				 M61.404,131.997c-0.027-0.207,0.157-0.571,0.197-0.774c0.038-0.194,0.068-0.39,0.092-0.586c0.063-0.533,0.062-1.061,0.021-1.595
				c-0.007-0.091-0.059-0.15-0.124-0.184c0.043-0.094,0.033-0.214-0.079-0.285c-1.358-0.87-0.323-2.625,0.997-2.747
				c0.602-0.056,1.24,0.122,1.701,0.522c0.682,0.591,0.851,1.82-0.169,2.198c-0.117,0.043-0.158,0.15-0.147,0.248
				c-0.04,0.047-0.06,0.111-0.033,0.19c0.364,1.064,0.573,2.148,0.629,3.268c-0.487,0.024-0.975,0.047-1.462,0.071
				C62.547,132.346,61.49,132.657,61.404,131.997z"/>
		</g>
		<g>
			<path d="M109.533,32.407c-0.022-1.299-0.073-2.604-0.14-3.901c-0.031-0.609-0.048-1.277-0.374-1.815
				c-0.786-1.299-2.703-1.092-3.985-1.114c-2.396-0.041-4.795,0.047-7.182,0.265c-1.146,0.105-2.807-0.141-2.963,1.288
				c-0.114,1.046,0.03,2.205,0.061,3.253c0.034,1.157-0.052,2.431,0.154,3.571c0.207,1.149,1.046,1.398,2.072,1.345
				c-0.002,0.038,0.002,0.077,0.024,0.119c0.845,1.585,2.276,2.717,4.011,3.18c0.14,0.037,0.284-0.07,0.284-0.216
				c-0.003-0.843,0.011-1.686,0.034-2.529c0.027,0.01,0.059,0.015,0.096,0.012l3.693-0.307c0.869-0.072,1.833-0.037,2.683-0.266
				C109.387,34.917,109.554,33.654,109.533,32.407z M108.837,34.183c-0.637,0.86-1.882,0.79-2.826,0.868
				c-1.462,0.121-2.924,0.243-4.386,0.364c-0.033,0.003-0.06,0.012-0.086,0.025c0.002-0.06,0.002-0.119,0.004-0.179
				c0.01-0.289-0.438-0.288-0.448,0c-0.032,0.94-0.046,1.88-0.047,2.821c-1.494-0.474-2.707-1.485-3.454-2.878
				c0.12-0.133,0.073-0.394-0.149-0.373c-0.291,0.028-0.613,0.09-0.9,0.011c-0.538-0.149-0.914-0.894-1.028-1.439
				c-0.136-0.646-0.065-1.426-0.089-2.09c-0.028-0.774-0.049-1.549-0.065-2.323c-0.013-0.629-0.213-1.659,0.17-2.159
				c0.445-0.582,1.582-0.472,2.318-0.539c0.716-0.066,1.433-0.119,2.151-0.161c1.515-0.089,3.034-0.126,4.552-0.111
				c1.413,0.014,3.854-0.313,4.292,1.489c0.333,1.369,0.172,3.009,0.22,4.412C109.089,32.559,109.24,33.638,108.837,34.183z"/>
			<path d="M106.43,32.201c-2.933,0.127-5.867,0.253-8.8,0.38c-0.287,0.012-0.289,0.461,0,0.448c2.933-0.127,5.867-0.253,8.8-0.38
				C106.718,32.637,106.719,32.189,106.43,32.201z"/>
			<path d="M105.931,29.879c-2.758,0.343-5.524,0.453-8.301,0.332c-0.289-0.013-0.288,0.436,0,0.448
				c2.777,0.121,5.543,0.01,8.301-0.332C106.213,30.292,106.217,29.843,105.931,29.879z"/>
			<path d="M106.424,27.171c-3.037,0.316-6.079,0.568-9.126,0.755c-0.287,0.018-0.289,0.466,0,0.448
				c3.047-0.188,6.089-0.44,9.126-0.755C106.708,27.59,106.711,27.141,106.424,27.171z"/>
		</g>
		<g>
			<path d="M110.829,122.885c-0.079-1.013,0.066-2.599-1.095-3.05c-0.713-0.277-1.724-0.104-2.473-0.104
				c-1.035,0-2.071,0.012-3.106,0.037c-2.07,0.05-4.139,0.15-6.204,0.3c-1.094,0.079-2.927-0.065-3.52,1.119
				c-0.227,0.453-0.199,0.972-0.199,1.466c-0.001,1.118,0.01,2.237,0.014,3.356c0.005,1.118,0,2.237,0.014,3.356
				c0.006,0.502-0.029,1.162,0.331,1.571c0.377,0.429,0.886,0.414,1.417,0.361c1.013-0.102,2.026-0.277,3.035-0.431
				c0.004,0.012,0.004,0.024,0.01,0.037c0.806,1.601,2.244,2.748,3.981,3.184c0.134,0.033,0.293-0.067,0.284-0.216
				c-0.053-0.861-0.105-1.721-0.158-2.582c1.838-0.014,3.667-0.195,5.464-0.587c1.076-0.235,2.141-0.402,2.326-1.634
				C111.245,127.099,110.984,124.862,110.829,122.885z M110.533,128.251c-0.067,0.558-0.314,1.383-0.828,1.717
				c-0.267,0.174-0.904,0.235-1.2,0.3c-1.768,0.388-3.564,0.56-5.372,0.572c-0.001-0.023-0.003-0.046-0.004-0.07
				c-0.018-0.287-0.466-0.289-0.448,0c0.057,0.933,0.114,1.897,0.171,2.829c-1.451-0.447-2.63-1.248-3.347-2.743c0,0,0,0,0,0
				c0.285,0,0.164-0.504-0.119-0.463c-0.9,0.129-1.8,0.247-2.701,0.372c-0.345,0.051-0.691,0.089-1.038,0.13
				c-0.309-0.324-0.618-0.652-0.927-0.977c-0.111-0.297-0.012-0.972-0.014-1.272c-0.007-1.598-0.014-3.197-0.021-4.795
				c-0.005-1.067-0.261-2.476,0.904-3.04c0.768-0.372,1.991-0.271,2.838-0.329c1.668-0.115,3.339-0.197,5.011-0.247
				c1.639-0.049,3.384-0.216,5.017-0.052c1.68,0.169,1.823,1.402,1.925,2.7c0.07,0.892,0.117,1.786,0.143,2.681
				C110.548,126.438,110.637,127.383,110.533,128.251z"/>
			<path d="M98.956,126.037c-0.096-0.171-0.23-0.322-0.356-0.471c-0.116-0.136-0.238-0.267-0.366-0.393
				c-0.667-0.492-0.643-1.102,0.074-1.832c0.281,0.066,0.4-0.366,0.119-0.432c-0.812-0.192-1.432,0.458-1.306,1.278
				c0.102,0.655,0.64,1.091,1.044,1.563c0.918,1.071,0.759,2.559-0.597,3.17c-0.263,0.118-0.035,0.505,0.226,0.387
				c0.812-0.366,1.37-1.111,1.435-2.017C99.261,126.852,99.171,126.42,98.956,126.037z"/>
			<path d="M103.184,122.921c-0.024-0.203-0.3-0.327-0.418-0.113l-0.847,1.545c-0.347-0.423-0.717-0.813-1.134-1.18
				c-0.136-0.119-0.394-0.048-0.383,0.159c0.1,1.82,0.25,3.635,0.449,5.447c0.031,0.284,0.48,0.287,0.448,0
				c-0.18-1.63-0.317-3.264-0.416-4.9c0.314,0.307,0.603,0.629,0.878,0.987c0.096,0.126,0.298,0.163,0.387,0
				c0.224-0.409,0.448-0.817,0.672-1.226c0.211,1.768,0.422,3.537,0.633,5.305c0.034,0.283,0.483,0.286,0.448,0
				C103.663,126.937,103.423,124.929,103.184,122.921z"/>
			<path d="M107.484,127.903c-0.067-0.492-0.347-0.893-0.65-1.273c-0.887-1.112-1.839-2.666,0.045-3.521
				c0.262-0.119,0.035-0.506-0.226-0.387c-0.834,0.378-1.402,1.164-1.354,2.106c0.026,0.502,0.244,0.899,0.531,1.306
				c0.173,0.245,0.394,0.45,0.581,0.683c0.341,0.426,1.46,2.023-0.124,2.15c-0.286,0.023-0.288,0.472,0,0.448
				C107.096,129.35,107.596,128.724,107.484,127.903z"/>
		</g>
		<path d="M135.988,137.681c-0.176-1.754-1.813-2.979-3.496-2.971c0.228-1.959-0.689-3.981-2.494-4.913
			c-1.866-0.963-4.166-0.445-5.606,1.006c-0.717-3.519-4.5-5.421-7.748-3.842c-3.984,1.936-4.556,6.751-3.159,10.534
			c-1.476,0.105-3.008,1.089-2.761,2.766c0.288,1.961,2.711,1.861,4.195,1.875c5.985,0.055,11.926-0.992,17.916-0.682
			c0.108,0.006,0.175-0.054,0.202-0.131C134.746,141.024,136.17,139.499,135.988,137.681z M132.833,140.907
			c-0.072,0.008-0.125,0.044-0.161,0.091c-4.017-0.192-8.015,0.202-12.02,0.476c-1.988,0.136-3.981,0.241-5.974,0.211
			c-0.88-0.013-1.978,0.081-2.758-0.395c-0.764-0.466-0.958-1.414-0.569-2.185c0.421-0.835,1.353-1.128,2.216-1.17
			c0.134-0.007,0.204-0.109,0.213-0.213c0.12-0.02,0.22-0.118,0.165-0.264c-1.286-3.398-1.025-7.627,2.295-9.76
			c3.07-1.973,7.049-0.3,7.734,3.296c0.023,0.12,0.114,0.164,0.207,0.158c0.031,0.16,0.231,0.282,0.371,0.127
			c1.286-1.42,3.457-2.002,5.219-1.095c1.682,0.866,2.533,2.771,2.26,4.596c-0.105,0.085-0.121,0.25-0.043,0.339
			c0.035,0.213,0.371,0.281,0.43,0.04c1.376-0.027,2.746,0.844,3.072,2.249C135.883,139.108,134.474,140.718,132.833,140.907z"/>
		<path d="M126.926,135.699c-0.807-0.062-1.615-0.125-2.422-0.187c0.143-1.13,0.402-2.224,0.784-3.3
			c0.046-0.13-0.077-0.296-0.216-0.284c-1.733,0.145-3.466,0.291-5.199,0.436c-0.14,0.012-0.261,0.134-0.216,0.284l0.96,3.174
			c0.005,0.018,0.016,0.03,0.024,0.044c-0.772-0.064-1.417,0.03-2.153,0.324c-0.21,0.084-0.213,0.349,0,0.432
			c1.835,0.717,3.558,1.628,5.188,2.733c0.08,0.055,0.206,0.033,0.272-0.035c1.046-1.08,2.091-2.16,3.137-3.24
			C127.227,135.935,127.116,135.714,126.926,135.699z M123.944,138.681c-0.452,0.157-0.746-0.183-1.107-0.406
			c-1.163-0.718-2.387-1.32-3.647-1.842c0.49-0.127,0.977-0.163,1.522-0.112c0.208,0.02,0.262-0.21,0.169-0.348
			c0.115-0.024,0.212-0.124,0.168-0.268c-0.294-0.972-0.588-1.944-0.882-2.915c1.528-0.128,3.055-0.256,4.583-0.385
			c-0.333,1.004-0.558,2.024-0.691,3.074c-0.006,0-0.013-0.001-0.019-0.001c-0.288-0.022-0.286,0.426,0,0.448
			c0.019,0.001,0.038,0.003,0.057,0.004c0.062,0.043,0.149,0.049,0.226,0.017c0.704,0.054,1.408,0.109,2.111,0.163
			c-0.516,0.533-1.032,1.066-1.549,1.599C124.712,137.887,124.175,138.6,123.944,138.681z"/>
		<g>
			<path d="M124.909,163.877c-0.183-2.776-0.365-5.551-0.548-8.327c-0.086-1.306-0.172-2.612-0.258-3.919
				c-0.077-1.178,0.042-2.57-0.291-3.71c-0.581-1.989-3.808-1.292-5.316-1.241c-3.02,0.103-6.026,0.411-9.009,0.888
				c-0.284,0.045-0.164,0.478,0.119,0.432c2.223-0.355,4.458-0.617,6.704-0.764c1.052-0.069,2.105-0.113,3.159-0.135
				c0.567-0.012,1.135-0.018,1.702-0.014c0.9,0.006,1.996,0.339,2.249,1.278c0.267,0.992,0.167,2.245,0.234,3.265
				c0.07,1.061,0.14,2.123,0.209,3.184c0.145,2.204,0.29,4.408,0.435,6.613c0.135,2.054,0.387,4.136,0.403,6.195
				c0.012,1.656-1.334,1.92-2.652,2.131c-1.249,0.199-2.505,0.348-3.765,0.448c-1.04,0.083-2.083,0.133-3.126,0.149
				c-1.012,0.016-2.655,0.263-3.478-0.357c-0.902-0.679-0.708-2.243-0.759-3.287c-0.057-1.159-0.113-2.317-0.17-3.476
				c-0.243-4.966-0.486-9.931-0.728-14.897c-0.014-0.287-0.463-0.289-0.448,0c0.275,5.628,0.55,11.255,0.825,16.883
				c0.059,1.211,0.021,2.475,0.208,3.674c0.096,0.612,0.3,1.252,0.857,1.598c0.746,0.464,1.902,0.311,2.73,0.315
				c1.365,0.006,2.729-0.047,4.09-0.155c1.14-0.091,2.277-0.222,3.408-0.391c0.873-0.13,2.169-0.128,2.871-0.753
				c0.491-0.437,0.581-1.1,0.587-1.722C125.164,166.488,124.994,165.17,124.909,163.877z"/>
			<path d="M117.664,147.984c-0.904,0.268-1.821,0.441-2.761,0.513c-0.286,0.022-0.288,0.471,0,0.448
				c0.98-0.075,1.938-0.249,2.88-0.529C118.059,148.335,117.941,147.902,117.664,147.984z"/>
			<path d="M118.91,167.216c-0.374-0.327-1-0.321-1.316,0.058c-0.555,0.102-0.876,0.785-0.578,1.291
				c0.342,0.58,1.185,0.653,1.693,0.266C119.196,168.46,119.425,167.666,118.91,167.216z M118.52,168.403
				c-0.247,0.243-0.657,0.307-0.951,0.104c-0.281-0.193-0.277-0.682,0.049-0.779c0.082,0.036,0.177,0.025,0.241-0.059
				c0.042-0.028,0.071-0.068,0.085-0.116c0.157-0.169,0.444-0.168,0.636-0.029C118.884,167.745,118.746,168.181,118.52,168.403z"/>
			<path d="M123.333,163.643c-0.607-4.632-1.029-9.283-1.264-13.948c-0.014-0.287-0.463-0.289-0.448,0
				c0.234,4.642,0.653,9.27,1.256,13.878c-3.413,0.406-6.778,1.078-10.084,2.018c-0.266-4.106-0.532-8.213-0.798-12.319
				c-0.044-0.686-0.462-2.251,0.062-2.723c0.232-0.209,1.328-0.143,1.659-0.179c0.553-0.06,1.106-0.119,1.659-0.179
				c2.054-0.221,4.108-0.442,6.163-0.664c0.284-0.031,0.287-0.479,0-0.448l-9.955,1.072c-0.114,0.012-0.233,0.093-0.224,0.224
				c0.334,5.148,0.667,10.296,1.001,15.443c0.002,0.037,0.012,0.069,0.027,0.096c0.021,0.118,0.122,0.221,0.27,0.179
				c3.407-0.984,6.875-1.686,10.398-2.096c0.112-0.013,0.178-0.091,0.202-0.179C123.309,163.786,123.345,163.73,123.333,163.643z"/>
		</g>
		<path d="M146.508,13.859c-1.595-1.125-3.535-1.852-5.508-1.63c-2.197,0.247-3.535,1.616-4.726,3.346
			c-0.035-0.825-0.072-1.651-0.104-2.476c-0.042-1.079,0.073-2.522-0.726-3.383c-0.232-0.25-0.511-0.414-0.816-0.524
			c0.004-0.019,0.009-0.038,0.012-0.058c0.016-0.106-0.012-0.192-0.103-0.253c-0.232-0.156-0.432-0.108-0.612,0.104
			c-0.01,0.011-0.017,0.025-0.025,0.038c-0.515-0.068-1.052-0.059-1.532-0.08c-1.936-0.084-3.873-0.12-5.81-0.108
			c-1.776,0.011-3.551,0.062-5.325,0.154c-1.844,0.095-3.992,0.008-5.794,0.444c-0.518,0.125-0.941,0.319-0.744,0.919
			c0.036,0.109,0.103,0.204,0.185,0.288c-0.121-0.013-0.251,0.055-0.25,0.212c0.012,1.913,0.024,3.825,0.036,5.738
			c0.002,0.269-0.004,0.545-0.012,0.824c-0.066,0.002-0.131,0.03-0.176,0.101c-0.77,1.217-2.609,0.424-2.252-0.975
			c0.025-0.1-0.014-0.177-0.078-0.226c0.127-0.211-0.158-0.479-0.341-0.277c-0.523,0.58-0.85,1.315-1.388,1.878
			c-0.307,0.322-0.688,0.602-1.14,0.652c-0.569,0.063-1.393-0.607-0.84-1.21c0.195-0.213-0.122-0.53-0.317-0.317
			c-0.155,0.169-0.24,0.363-0.27,0.561c-0.038,0.008-0.076,0.024-0.11,0.059c-0.184,0.189-0.364,0.398-0.571,0.563
			c-0.285,0.17-0.57,0.34-0.854,0.511c-0.488-0.235-0.975-0.47-1.463-0.706c-0.384-0.646,0.288-1.84,0.563-2.434
			c0.503-1.085,1.126-2.174,2.052-2.955c2.624-2.21,5.046-0.307,6.785,1.861c0.181,0.225,0.496-0.094,0.317-0.317
			c-1.086-1.353-2.383-2.881-4.244-3.016c-1.892-0.138-3.484,1.164-4.465,2.664c-0.74,1.131-2.077,3.265-1.302,4.653
			c0.83,1.486,2.446,0.5,3.343-0.353c0.142,0.428,0.516,0.794,0.994,0.883c1.375,0.255,2.13-1.161,2.846-2.171
			c-0.01,0.675,0.345,1.336,0.993,1.617c0.666,0.288,1.416,0.071,1.898-0.428c-0.05,1.277-0.118,2.6,0.084,3.798
			c0.048,0.284,0.132,0.516,0.248,0.711c-0.036,0.048-0.073,0.096-0.109,0.144c-0.174,0.23,0.215,0.454,0.387,0.226
			c0.006-0.008,0.012-0.016,0.018-0.023c0.24,0.198,0.554,0.324,0.964,0.387c1.79,0.273,3.773,0.072,5.579,0.091
			c3.786,0.04,7.573,0.094,11.36,0.121c1.056,0.007,1.847-0.029,2.48-0.955c0.038-0.055,0.072-0.112,0.106-0.169
			c0.208,0.048,0.379-0.183,0.219-0.366c-0.006-0.007-0.012-0.014-0.018-0.021c0.453-1.012,0.461-2.207,0.435-3.289
			c-0.013-0.538-0.031-1.077-0.051-1.615c0.495,1.074,1.194,2.148,2.468,2.275c0.748,0.075,1.464-0.369,1.725-1.006
			c0.453,0.47,1.157,0.696,1.826,0.493c0.96-0.291,1.41-1.308,1.339-2.25c1.077,0.73,2.407,1.264,3.506,0.279
			C148.415,15.778,147.575,14.612,146.508,13.859z M115.921,9.834c0.355-0.135,1.068-0.1,1.447-0.132
			c2.735-0.233,5.478-0.368,8.222-0.408c2.675-0.039,5.442-0.123,8.106,0.166c0.068,0.007,0.128,0.021,0.192,0.032
			c-1.3,1.116-4.994,4.36-5.361,4.721c-0.391,0.383-0.809,0.999-1.269,1.281c-1.264,0.773-1.999,0.015-2.921-0.543
			c-1.176-0.713-2.378-1.385-3.602-2.012c-1.088-0.557-2.194-1.081-3.315-1.569c-0.437-0.19-0.891-0.353-1.321-0.556
			C115.255,10.416,114.995,10.187,115.921,9.834z M115.136,20.176c-0.02-3.108-0.039-6.216-0.059-9.324
			c0-0.02-0.007-0.035-0.011-0.052c0.141,0.101,0.297,0.183,0.433,0.251c0.814,0.41,1.7,0.699,2.531,1.077
			c1.183,0.537,2.345,1.118,3.489,1.733c-0.007,0.008-0.016,0.011-0.023,0.02c-2.042,2.708-4.085,5.415-6.127,8.123
			C115.145,21.463,115.14,20.758,115.136,20.176z M133.992,23.043c-0.623,0.124-1.429-0.01-2.063-0.017
			c-2.799-0.03-5.598-0.06-8.396-0.089c-1.564-0.017-3.128-0.033-4.692-0.05c-0.76-0.008-1.536,0.03-2.294-0.03
			c-0.427-0.034-0.723-0.198-0.93-0.439c2.089-2.77,4.178-5.539,6.268-8.309c0.011-0.014,0.013-0.028,0.02-0.041
			c0.476,0.261,0.95,0.527,1.418,0.801c0.964,0.564,2.429,2.033,3.639,1.464c0.725-0.341,1.322-1.253,1.883-1.802
			c0.094-0.092,0.191-0.182,0.286-0.273c1.904,2.531,3.891,4.996,5.957,7.396c-0.166,0.06-0.25,0.304-0.051,0.395l0.292,0.133
			C135.047,22.602,134.635,22.915,133.992,23.043z M135.802,20.957c-0.05,0.22-0.109,0.432-0.183,0.633
			c-2.142-2.477-4.2-5.023-6.167-7.642c0.504-0.48,1.013-0.954,1.533-1.417c0.73-0.649,1.476-1.281,2.236-1.894
			c0.397-0.32,0.915-0.587,1.207-0.995c1.305,0.545,1.241,2.091,1.294,3.457l0.164,4.254
			C135.933,18.536,136.065,19.789,135.802,20.957z M145.125,16.852c-0.701-0.203-1.304-0.691-1.859-1.14
			c-0.222-0.18-0.542,0.135-0.317,0.317c0.071,0.058,0.145,0.116,0.221,0.175c0.219,0.752,0.025,1.682-0.701,2.095
			c-0.632,0.359-1.507,0.073-1.838-0.546c-0.008-0.156-0.04-0.382-0.106-0.544c-0.05-0.121-0.168-0.209-0.271-0.209
			c-0.001,0-0.001,0-0.001,0c-0.01,0-0.02,0.069-0.03,0.071c-0.099,0.012-0.184,0.112-0.169,0.242
			c0.018,0.158,0.06,0.324,0.118,0.465c0.004,0.313-0.124,0.63-0.377,0.844c-0.56,0.472-1.344,0.276-1.882-0.109
			c-0.723-0.517-1.076-1.371-1.406-2.166c-0.039-0.095-0.121-0.138-0.204-0.145c-0.004-0.094-0.007-0.187-0.011-0.28
			c0.097,0.064,0.242,0.067,0.326-0.056c0.74-1.083,1.507-2.148,2.728-2.723c1.245-0.585,2.68-0.635,4-0.303
			c1.135,0.285,2.654,0.926,3.474,1.814C148.098,16.039,146.365,17.211,145.125,16.852z"/>
		<g>
			<path d="M101.415,161.335c-0.076-1.682-0.577-3.363-1.577-4.73c-0.705-0.965-1.616-1.729-2.636-2.24
				c1.487-0.176,2.96-0.857,3.482-2.342c0.691-1.966-0.354-4.499-2.308-5.273c-1.954-0.774-3.933,0.496-4.499,2.425
				c-0.508,1.729,0.294,3.405,1.531,4.583c-1.221-0.234-2.508-0.133-3.737,0.382c-2.482,1.041-5.651,4.109-5.003,7.058
				c0.062,0.282,0.494,0.163,0.432-0.119c-0.661-3.007,3.099-6.22,5.726-6.854c0.947-0.229,1.891-0.207,2.781,0.012
				c0.029,0.078,0.094,0.143,0.198,0.152c0.125,0.01,0.252,0.017,0.381,0.02c0.017,0.006,0.033,0.012,0.05,0.018
				c0.019,0.013,0.038,0.028,0.058,0.041c0.048,0.032,0.094,0.038,0.138,0.033c1.654,0.66,3.044,2.01,3.797,3.679
				c0.623,1.382,0.839,2.91,0.716,4.417c-0.035,0.432-0.041,1.099-0.355,1.462c-0.349,0.403-0.662,0.153-1.148,0.033
				c-0.803-0.198-1.607-0.397-2.41-0.595c-3.213-0.794-6.426-1.587-9.639-2.381c-0.28-0.069-0.4,0.363-0.119,0.432
				c2.41,0.595,4.82,1.19,7.229,1.785c1.125,0.278,2.249,0.555,3.374,0.833c0.731,0.18,1.931,0.756,2.692,0.637
				C101.64,164.638,101.449,162.077,101.415,161.335z M94.231,149.617c0.39-1.969,2.422-3.311,4.314-2.295
				c1.65,0.886,2.501,3.475,1.446,5.1c-0.772,1.189-2.279,1.556-3.636,1.544C94.996,152.988,93.884,151.366,94.231,149.617z"/>
			<path d="M103.689,139.299c-0.193-0.876-1.004-1.424-1.875-1.45c-1.014-0.031-1.806,0.617-2.369,1.393
				c-0.356-0.685-0.843-1.368-1.667-1.449c-0.712-0.069-1.395,0.371-1.746,0.973c-1.145,1.961,1.036,3.727,2.461,4.674
				c0.241,0.16,0.466-0.228,0.226-0.387c-1.044-0.694-2.308-1.529-2.477-2.886c-0.123-0.993,0.529-2.096,1.69-1.892
				c0.662,0.116,1.058,1.033,1.31,1.566c0.11,0.232,0.427,0.077,0.408-0.144c0.026-0.016,0.051-0.039,0.071-0.069
				c0.527-0.781,1.335-1.48,2.343-1.285c1.461,0.281,1.418,1.909,0.632,2.843c-0.907,1.077-2.449,1.704-3.763,2.077
				c-0.277,0.079-0.159,0.511,0.119,0.432C100.875,143.178,104.228,141.751,103.689,139.299z"/>
		</g>
		<path d="M87.449,142.9c0.472-0.614,1.889-1.886,1.687-2.76c-0.19-0.823-1.569-0.924-2.194-1.01
			c-1.397-0.192-2.813-0.058-4.209,0.088c0-0.014,0.003-0.027,0-0.042c-0.282-1.383-0.712-2.723-1.329-3.994
			c-0.341-0.702-0.873-1.875-1.815-1.892c-0.942-0.017-1.351,1.279-1.657,1.943c-0.536,1.163-0.96,2.367-1.299,3.601
			c-0.028-0.013-0.06-0.02-0.098-0.02c-1.511,0.034-3.014,0.162-4.505,0.414c-0.584,0.099-2.124,0.078-2.323,0.889
			c-0.169,0.689,0.663,1.227,1.124,1.539c1.385,0.934,2.847,1.744,4.351,2.468c-0.834,1.365-1.54,2.794-2.079,4.302
			c-0.235,0.657-0.926,2.056,0.084,2.457c0.788,0.313,2.106-0.35,2.808-0.646c1.278-0.539,2.426-1.283,3.471-2.184
			c0.016,0.028,0.038,0.055,0.07,0.077c1.28,0.882,2.56,1.765,3.841,2.647c0.545,0.375,1.288,1.033,1.939,0.479
			c0.457-0.389,0.465-1.143,0.412-1.681c-0.112-1.144-0.474-2.271-0.922-3.333c0.009-0.008,0.019-0.012,0.028-0.023
			C85.716,145.121,86.591,144.017,87.449,142.9z M84.585,145.743c-0.119-0.262-0.506-0.035-0.387,0.226
			c0.375,0.826,0.678,1.673,0.882,2.557c0.203,0.875,0.655,2.82-1.114,2.115c-0.692-0.275-1.395-0.962-2.012-1.387
			c-0.732-0.504-1.463-1.008-2.195-1.513c-0.004-0.003-0.008-0.003-0.012-0.005c0.021-0.174-0.211-0.345-0.383-0.191
			c-0.774,0.694-1.608,1.306-2.527,1.795c-0.767,0.408-1.824,1.03-2.706,1.049c-1.742,0.038-0.356-2.536-0.037-3.26
			c0.425-0.967,0.928-1.891,1.479-2.792c0.068-0.111,0.025-0.215-0.054-0.276c0.068-0.098,0.069-0.236-0.069-0.302
			c-0.829-0.398-1.646-0.818-2.444-1.277c-0.398-0.229-0.792-0.467-1.181-0.712c-0.537-0.339-1.456-0.639-1.328-1.364
			c-0.105-0.41,0.06-0.586,0.493-0.528c0.23-0.049,0.461-0.094,0.692-0.136c0.53-0.098,1.062-0.179,1.597-0.248
			c1.081-0.138,2.163-0.208,3.252-0.233c0.053-0.001,0.094-0.021,0.127-0.047c0.114,0.087,0.309,0.074,0.358-0.105
			c0.205-0.762,0.436-1.513,0.714-2.251c0.179-0.473,0.374-0.94,0.585-1.4c0.353-0.767,0.34-1.026,1.233-1.189
			c0.547-0.321,0.907-0.188,1.082,0.399c0.102,0.182,0.198,0.366,0.29,0.553c0.241,0.479,0.455,0.969,0.644,1.471
			c0.32,0.848,0.552,1.714,0.732,2.601c0.007,0.032,0.019,0.057,0.034,0.079c-0.066,0.14-0.008,0.334,0.185,0.314
			c1.032-0.108,6.458-0.858,5.941,1.139c-0.074,0.284-0.657,0.875-0.836,1.11c-0.362,0.477-0.727,0.951-1.094,1.424
			c-0.634,0.815-1.277,1.622-1.925,2.426C84.598,145.772,84.592,145.757,84.585,145.743z"/>
	</g>
	<g>
		<path style="fill:#FFFFFF;stroke:#FFFFFF;stroke-miterlimit:10;" d="M116.695,87.66l-0.241,0.667l-0.029,0.427l-0.497,1.107
			l-0.398,0.796l-0.241,0.341l-0.37,0.554l-0.469,0.44l-0.383,0.498l-0.668,0.397l-1.25,0.27l-0.554,0.057l-0.611-0.113
			l-1.335-0.156l-0.412-0.228l-0.611-0.27l-0.98-0.64l-0.995-0.667l-0.753-0.811l-0.554-0.326l-0.327-0.54l-0.611-0.554
			l-0.398-0.853l-0.412-0.81l-0.17-0.881v-1.15l-0.028-1.378l0.17-1.037l0.284-0.966l0.44-0.909l0.028-0.895l0.27-0.895l0.313-0.412
			l0.17-0.298l0.469-0.284l0.667-0.412l0.611-0.17l0.88-0.142l1.08-0.44l0.866-0.298l0.469-0.341l0.867,0.057l0.938,0.085
			l0.583,0.44l0.426,0.085l0.639,0.639l0.611,1.08l0.043,0.369l-0.44,0.071l-0.17,0.582l-0.709,0.256l-0.582-0.383l-0.837-0.057
			l-0.695-0.369l-0.78-0.1l-0.738,0.242l-0.95,0.227l-0.794,0.327l-0.482,0.398l-0.383,0.554l-0.383,0.667l-0.369,1.08l-0.27,1.25
			l-0.057,0.639l-0.028,0.824l0.142,0.98l0.071,0.994l0.369,0.867l0.383,0.639l1.249,1.464l0.752,0.497l0.497,0.256l1.419,0.143
			l1.249-0.342l1.05-0.354l0.667-0.668l0.468-0.725l0.752-0.909l0.439-0.17l0.497-0.114l0.369-0.611l0.354-0.227l0.412,0.085V87.66z
			"/>
		<path style="fill:#FFFFFF;stroke:#FFFFFF;stroke-miterlimit:10;" d="M132.635,95.913l-0.058,0.143l-0.185,0.128l-0.198-0.384
			l-0.199-0.753l-0.185-0.327v-0.198l-0.057-1.137l-0.342-1.08l-0.113-1.164l-0.213-0.782l-0.256-1.136l-0.085-0.838l-0.271-0.469
			l-0.227-0.867v-0.71l-0.199-0.583l0.028-1.193l-0.213-0.397l-0.085-0.639l-0.028-0.91l0.114-0.895l0.185-0.498l-0.185-0.554
			l-0.085-0.583l-0.028-0.668l-0.354-0.284l-0.312-0.128l-0.383,0.384l-0.425,0.583l-0.383,0.725l-0.327,0.838l-0.284,0.938
			l-0.256,0.781l-0.241,0.795l-0.255,0.781l-0.214,0.44l-0.228,0.228l-0.256,0.142l-0.385-0.171l-0.256-0.412l-0.44-0.668
			l-0.242-0.611l-0.313-1.392l-0.114-0.639l-0.185-0.781l-0.284-0.71l-0.17-0.639l-0.242-0.526l-0.284-0.17l-0.355-0.17l-0.17,0.383
			l-0.228,0.64l-0.27,0.781l-0.228,1.662l-0.185,0.952v0.355l-0.142,1.278l-0.284,1.534l-0.028,0.824l0.256,0.284l0.028,0.611
			l0.142,0.525l-0.284,0.469l-0.327,0.469l-0.554,0.085h-0.54l-0.682,0.029l-0.455-0.199l-0.327-0.242l-0.171-0.553l0.171-1.193
			l0.327-0.611l0.255-0.114l0.057-1.449l0.497-1.719l0.085-0.696l0.355-0.639l-0.028-0.412l0.398-0.639v-0.412l0.824-2.003
			l0.114-0.412l0.255-0.199l0.085-0.526l0.384-0.497l0.497-0.725l0.44-0.256h0.369l0.242,0.284l0.256,0.526l0.17,0.667l0.213,0.725
			l0.284,0.966l0.142,0.668l0.242,0.781l0.113,0.611l0.114,0.853l0.085,0.696l0.213,0.668l0.37,0.469l0.213,0.17l0.227-0.27
			l0.142-0.483l0.27-0.554l0.313-0.938l0.355-0.838l0.199-0.64l0.199-0.469l-0.199-0.227l-0.17-0.469l0.028-0.583l0.256-0.611
			l0.298-0.583l0.113-0.554l0.384-0.667l0.284-0.298l0.383-0.512l0.526-0.327l0.313-0.199l0.469,0.114l0.469,0.057l0.482,0.284
			l0.384,0.355l0.327,0.44l0.085,0.611l0.028,0.725l-0.028,0.667l-0.028,0.838l0.057,1.577v0.909l0.256,1.591l-0.028,0.781
			l-0.057,1.051l-0.029,0.853v0.781l-0.085,0.952l-0.17,0.383l0.17,0.753v1.548l0.171,0.313l0.028,1.052l0.113,0.853l0.185,1.563
			l0.058,0.696V95.913z M120.36,91.382l-0.213,0.199l-0.228-0.029l0.029-0.383h0.227L120.36,91.382z M123.613,73.922l-0.142,0.255
			l-0.242-0.085l0.029-0.37h0.27L123.613,73.922z M133.132,86.026l-0.299,0.313l-0.142-0.313l0.198-0.298L133.132,86.026z"/>
		<path style="fill:#FFFFFF;stroke:#FFFFFF;stroke-miterlimit:10;" d="M142.764,79.477l-0.27,0.355h-0.37l-0.44-0.156l-0.412-0.199
			l-0.426-0.313l-0.085-0.27l-0.525-0.114l-0.299-0.114l-0.582,0.085h-0.498l-0.511,0.028l-0.711,0.256l-0.511,0.298l-0.824,0.753
			l-0.171,0.412l-0.27,0.583l0.071,0.668l0.227,0.554l0.228,0.341l0.739,0.525l0.426,0.355l0.497,0.313l0.384,0.355l0.455,0.341
			l0.938,0.554l0.469,0.412l0.341,0.383l0.326,0.228l0.086,0.327l0.469,0.753l0.198,0.469l0.114,0.511l0.213,0.554l0.171,0.526
			l0.028,0.753l-0.114,0.582l-0.326,0.682l-0.171,0.54l-0.355,0.384l-0.17,0.355l-0.412,0.426l-0.369,0.299l-0.611,0.227
			l-0.823,0.143l-0.568,0.128l-0.653-0.128l-0.455-0.028l-0.412-0.085l-0.313-0.171h-0.213l-0.114-0.143l0.058-0.326l0.113-0.171
			h0.213v0.171l0.057,0.113l0.199,0.128l0.412,0.171l0.924,0.057l0.298-0.085l0.455,0.028l0.61-0.171l0.554-0.241l0.683-0.469
			l0.113-0.341l0.284-0.469l0.171-0.498l0.213-0.369l0.028-0.44l0.142-0.639l-0.113-0.412l-0.113-0.554l-0.299-0.426l-0.142-0.525
			l-0.256-0.498l-0.185-0.469l-0.341-0.199l-0.271-0.298l-0.397-0.284l-0.355-0.355l-0.639-0.284l-0.384-0.384l-0.427-0.085
			l-0.412-0.355l-0.525-0.369l-0.284-0.242l-0.525-0.142l-0.497-0.44l-0.44-0.511l-0.256-0.526l-0.27-0.554v-1.108l0.241-0.611
			l0.284-0.583l0.326-0.497l0.37-0.398l0.354-0.327l0.44-0.355l0.526-0.256l0.454-0.17l0.668-0.028l0.639-0.057l0.64-0.156
			l0.554-0.284l0.583-0.171l0.27-0.213l0.555,0.085l0.313,0.298l0.185,0.525l0.228,0.284l0.283,0.298l0.186,0.455l0.057,0.44
			L142.764,79.477z M142.877,80.116l-0.028,0.327l-0.384,0.085L142.21,80.5l-0.299-0.27l0.271-0.228l0.411-0.028L142.877,80.116z"/>
	</g>
</g>
</svg>
