<?xml version="1.0" encoding="utf-8"?>
<!-- Generator: Adobe Illustrator 21.0.0, SVG Export Plug-In . SVG Version: 6.00 Build 0)  -->
<svg version="1.1" id="Layer_1" xmlns="http://www.w3.org/2000/svg" xmlns:xlink="http://www.w3.org/1999/xlink" x="0px" y="0px"
	 viewBox="0 0 259 180" style="enable-background:new 0 0 259 180;" xml:space="preserve">
<style type="text/css">
	.st0{display:none;fill:#E6E6E6;}
	.st1{fill:none;stroke:#000000;stroke-width:0.6;stroke-miterlimit:10;}
</style>
<rect y="0" class="st0" width="259" height="180"/>
<g>
	<g>
		<path d="M94.4,76.4c-1.5-0.5-2.7-1.5-3.5-2.8c2.8-3.8,3.3-8.9,0.8-13c-2.6-4.3-7.3-6.1-12.2-5.6c-5,0.5-9.2,3.4-10.6,8.4
			c-1.3,4.5,0.5,9.3,4.1,12.1c4.4,3.5,10.7,3.3,15.1,0c1.7,1.5,4,2,6.2,1.4C94.6,76.8,94.6,76.5,94.4,76.4z M88.3,75
			C88.3,75,88.3,75,88.3,75c-0.2-0.1-0.3-0.1-0.3,0c-3.7,2.7-8.7,3.5-12.9,1.3c-3.8-2-6.4-6.1-6.1-10.5c0.3-4.8,3.6-8.7,8.3-9.9
			c4.6-1.2,9.5-0.3,12.7,3.3c3.6,4,3.6,10,0.4,14.2c-0.1,0.1-0.2,0.2-0.1,0.3c0.8,1.3,1.8,2.3,3.2,2.9C91.6,76.9,89.8,76.3,88.3,75z
			"/>
		<path d="M191.6,81.9c-6-8-18.9-4.3-22.5,4.2c-1.9,4.4-0.2,10.6,5.1,11.4c0.1,0,0.2-0.1,0.3-0.2c0.5,2.6,2.4,4.7,4.9,5.4
			c0.2,0.1,0.4-0.2,0.3-0.4c-0.7-1.3-0.9-2.6-0.6-4.1c4.6,0.5,9.6-0.6,12.6-4.5C194.5,90.1,194.3,85.4,191.6,81.9z M178.8,97.7
			c-0.3,0-0.4,0.4-0.1,0.5c-0.3,1.3-0.2,2.6,0.4,3.8c-2.1-0.8-3.7-2.6-4-4.9c0-0.3-0.4-0.2-0.5,0c0-0.1-0.1-0.1-0.2-0.1
			c-4.5-0.7-6.4-5.8-5.2-9.8c1.3-4.2,5.2-7.4,9.3-8.7c4-1.3,8.5-0.6,11.6,2.4c3,2.9,4.1,7.4,2.1,11.2
			C189.6,96.9,183.9,98.4,178.8,97.7z"/>
		<g>
			<path d="M195.4,141.4c-0.4-2.4-0.7-4.9-1.1-7.3c-0.2-1.2-0.4-2.3-0.5-3.5c-0.1-0.7-0.1-1.4-0.5-1.9c-0.1-0.1-0.3-0.1-0.4,0
				c-1,0.9-2.2,1.6-3.3,2.3c0,0,0,0,0,0c-3.8-3-9.1-4-13.8-2.3c-4.4,1.6-7.6,5.5-8.7,10c-0.1,0.3,0.3,0.4,0.4,0.2
				c0,0.1,0.1,0.2,0.2,0.2c2,0.2,3.9,0.7,5.8,1.3c0.1,0,0.2,0,0.2,0c0.2,0.1,0.4,0,0.4-0.3c-0.4-1.2,1-3,1.7-3.8
				c0.8-0.9,1.8-1.6,2.9-2.1c1.3-0.6,2.7-0.8,4.1-0.7c1.1,0.1,3.4,0.4,4.1,1.5c0,0,0,0-0.1,0.1c-0.7,1.1-1.5,2.3-2.1,3.4
				c-0.1,0.1,0,0.3,0.1,0.4c3.4,0.9,6.8,1.9,10.2,2.8C195.3,141.8,195.4,141.6,195.4,141.4z M185.3,138.5c0.6-1,1.2-2,1.9-3
				c0.2,0.1,0.4,0,0.4-0.3c-0.5-1.3-2.6-1.8-3.8-2c-1.7-0.3-3.4-0.1-5,0.5c-1.5,0.6-2.9,1.6-3.9,2.9c-0.7,0.9-1.6,2.1-1.4,3.3
				c-1.9-0.6-3.8-1.1-5.8-1.3c-0.1,0-0.1,0-0.1,0c1.1-4.3,4.2-7.9,8.3-9.5c4.4-1.7,9.6-0.8,13.3,2.1c0.1,0.1,0.2,0.1,0.3,0
				c0.1,0.1,0.2,0.1,0.3,0.1c1-0.5,1.8-1.2,2.8-1.8c0.7-0.4,0.6-0.1,0.7,0.6c0.1,0.8,0.2,1.6,0.4,2.4c0.4,2.8,0.8,5.7,1.3,8.5
				C191.6,140.3,188.5,139.4,185.3,138.5z"/>
			<path d="M195.5,147C195.4,147,195.4,147,195.5,147c-1.2,0.2-2.5,0.1-3.7-0.1c-1-0.2-2-0.5-3-0.5c-0.1,0-0.2,0.1-0.2,0.1
				c-0.1,0-0.1,0.1-0.1,0.2c-0.9,5.1-8.8,9.9-12.8,5c0.5-0.8,1-1.6,1.5-2.5c0.1-0.1,0-0.3-0.1-0.4c-3.5-1.3-7-2.5-10.5-3.8
				c-0.2-0.1-0.4,0.1-0.3,0.3c1.3,4.4,2.6,8.7,4,13c0.1,0.2,0.3,0.3,0.4,0.1c0.8-0.8,1.6-1.7,2.4-2.5c4.4,2.8,9.6,4.2,14.6,2.1
				c4.5-1.9,7.7-6.1,8.3-10.9C196,146.8,195.5,146.6,195.5,147z M187.1,157.7c-4.9,1.8-9.8,0.4-14-2.3c-0.1-0.1-0.2,0-0.3,0.1
				c0,0-0.1,0-0.1,0.1l-2.1,2.3c-1.3-4-2.6-8.1-3.7-12.2c3.3,1.2,6.5,2.4,9.8,3.5c-0.5,0.8-1,1.7-1.5,2.5c-0.1,0.2,0.1,0.4,0.3,0.4
				c4.1,5.2,12.5,0.3,13.5-5.1c1.1,0.1,2.2,0.4,3.3,0.6c1.1,0.1,2.1,0.2,3.2,0.1C194.5,152.1,191.5,156,187.1,157.7z"/>
		</g>
		<path d="M71.6,44.5c-8.8,2.5-16.7,7.7-21.9,15.2c-0.9-2.2-1.8-4.4-2.7-6.7c-0.1-0.2-0.4-0.2-0.5-0.1c-2,1.1-4,2.2-6,3.2
			c-0.1,0-0.1,0.1-0.1,0.2c-0.1,0.1-0.2,0.2-0.1,0.3c3.4,6.2,6.7,12.4,10.1,18.6c0.1,0.2,0.4,0.1,0.5-0.1
			c3.5-12.1,10.9-22.8,20.9-30.4C72,44.8,71.9,44.4,71.6,44.5z M50.5,74.6c-3.2-6-6.5-12-9.7-18c2-1,3.9-2,5.8-3.1
			c0.9,2.3,1.8,4.5,2.7,6.8c0.1,0.2,0.3,0.2,0.5,0.1c4.8-7.3,12.3-12.4,20.6-15C61,52.8,54,63.1,50.5,74.6z"/>
		<path d="M214.6,108.6c-0.1,0-0.1-0.1-0.2-0.1c0-0.1-0.1-0.1-0.2-0.2c-4.7-3.7-9.2-7.6-13.6-11.7c-0.1-0.1-0.2-0.1-0.4,0
			c-4.2,3.8-8.5,7.6-12.7,11.3c-0.2,0.2,0.1,0.5,0.3,0.4c0,0,0,0,0,0c0.5,0,2.1-0.1,2.4,0.2c0.5,0.4,0.2,1.7,0.2,2.2
			c0,1.7,0,3.4,0,5.1c0,1.6,0,3.2,0,4.8c0,0.7-0.3,2.2,0,2.9c0,0.1,0.1,0.1,0.1,0.2c0,0,0,0,0,0c0.1,0.1,0.2,0.1,0.3,0
			c6.6,0.1,13.1,0.3,19.7,0.4c0.3,0,0.3-0.3,0.2-0.4c0.7-4.9-0.1-9.8,0.4-14.7c0,0,0,0,0,0c0.9-0.2,1.8-0.3,2.8-0.2
			c0.1,0.1,0.1,0.1,0.2,0.2C214.5,109.1,214.9,108.8,214.6,108.6z M211.2,108.5c-0.1,0-0.1,0.1-0.2,0.1c-0.1,0-0.2,0.1-0.2,0.2
			c-0.5,4.9,0.3,9.9-0.4,14.7c-6.4-0.1-12.9-0.3-19.3-0.4c0,0,0,0-0.1,0c0,0,0,0,0,0c-0.1-0.5,0-1.7,0-2c0-0.5,0-1.1,0-1.6
			c0-1.3,0-2.5,0-3.8c0-2.5,0-5,0.1-7.5c0-0.1-0.1-0.2-0.2-0.2c-0.8-0.1-1.6-0.1-2.4-0.2c2-1.8,4.1-3.6,6.1-5.4
			c1.1-1,2.2-1.9,3.3-2.9c0.5-0.5,1.1-1,1.6-1.5c0.8-0.7,1-1,1.8-0.2c3.9,3.6,8,7.1,12.2,10.5C212.7,108.2,211.9,108.3,211.2,108.5z
			"/>
		<g>
			<path d="M134.3,53.3c-4-5.2-13.5-4.8-17.1,0.5c-0.7-0.8-1.7-1.5-2.7-2c-3.4-1.5-8-1.6-11.4-0.1c-2.9,1.3-5.4,4.2-5.1,7.6
				c0.2,1.6,1,3.2,2.3,4.2c1.7,1.2,3.9,1.1,5.9,1.5c-0.2,0.9-0.7,1.7-1.3,2.3c-0.1,0.1,0,0.4,0.2,0.4c2.2-0.1,5.5-0.6,5.3-3.5
				c0,0,0,0,0,0c2.7,0.2,5.5-0.6,7.1-2.7c1.3,1.3,2.9,2.1,4.7,2.3c0.4,2,1.9,3.6,3.8,4.3c0.2,0.1,0.4-0.2,0.3-0.4
				c-0.5-1-0.6-2-0.4-3c2.9,0.9,6.2,0,8.2-2.4C136.2,59.9,136.3,55.9,134.3,53.3z M110.4,63.8c-0.2,0-0.3,0.1-0.2,0.3
				c-0.1,0-0.3,0.1-0.2,0.2c0.1,2.3-2.4,2.9-4.3,3c0.6-0.7,1-1.5,1.1-2.5c0-0.3-0.3-0.4-0.4-0.2c-1.8-0.3-3.8-0.2-5.4-1.2
				c-1.7-1-2.6-3.1-2.5-5c0.3-4.5,5-6.8,8.9-7.1c3.9-0.3,9.5,0.8,10.7,5.2C119.5,61.2,114.4,64.1,110.4,63.8z M126.1,64.3
				c0-0.3-0.4-0.4-0.5-0.1c-0.4,1.1-0.3,2.2,0,3.2c-1.6-0.8-2.7-2.3-3-4c0-0.2-0.3-0.2-0.4-0.1c-1.7-0.1-3.2-0.9-4.4-2.1
				c0,0,0,0,0,0c0.3-0.4,0.5-0.8,0.7-1.3c0.8-2.1,0.3-4.1-1-5.7c0,0,0,0,0.1-0.1c3.3-4.9,11.8-5.3,15.8-1.2c2.2,2.2,2.6,5.9,0.9,8.6
				C132.5,64.2,129.1,65.2,126.1,64.3z"/>
			<path d="M113.2,60.9c-3.5,0-7,0-10.6,0.1c-0.3,0-0.3,0.5,0,0.5c3.5,0,7,0,10.6-0.1C113.6,61.4,113.6,60.9,113.2,60.9z"/>
			<path d="M113.2,57.5c-3.6-0.1-7.1-0.1-10.7,0.1c-0.3,0-0.3,0.5,0,0.5c3.6-0.2,7.1-0.3,10.7-0.1C113.6,58,113.6,57.5,113.2,57.5z"
				/>
			<path d="M113.9,54.6c-3.9-0.2-7.8-0.3-11.7-0.2c-0.3,0-0.3,0.5,0,0.5c3.9-0.1,7.8-0.1,11.7,0.2C114.2,55.1,114.2,54.7,113.9,54.6
				z"/>
			<path d="M131.5,59.6c-3.6,0.3-7.1,0.3-10.7,0.2c-0.3,0-0.3,0.5,0,0.5c3.6,0.2,7.1,0.1,10.7-0.2C131.8,60.1,131.8,59.6,131.5,59.6
				z"/>
			<path d="M131.3,57.2c-3.5-0.1-7-0.3-10.6-0.4c-0.3,0-0.3,0.5,0,0.5c3.5,0.1,7,0.3,10.6,0.4C131.7,57.7,131.7,57.2,131.3,57.2z"/>
			<path d="M131.4,54.1c-0.2-0.3-0.6-0.2-1-0.2c-1.2,0-2.3,0-3.5,0c-2.2,0.1-4.4,0.2-6.7,0.4c-0.3,0-0.3,0.5,0,0.5
				c1.8-0.2,3.5-0.3,5.3-0.4c0.8,0,1.6-0.1,2.4-0.1c0.4,0,2.2-0.2,2.8,0c0,0,0,0,0,0c0,0,0,0,0,0.1c0.1,0.1,0.2,0.2,0.3,0.1
				c0,0,0.1,0,0.1-0.1C131.5,54.4,131.5,54.2,131.4,54.1z"/>
		</g>
		<g>
			<path d="M202,57.8c-0.2-1.1-1.2-1.8-2.3-1.7c-0.1-0.1-0.1-0.1-0.2-0.1c-1.1,0.3-1.9,1.4-1.6,2.5c0.2,1.1,1.4,1.9,2.5,1.7
				C201.4,59.9,202.2,58.8,202,57.8z M200.1,59.7c-2,0.1-2.3-2.5-0.6-3.2c0,0,0.1,0,0.2,0c0.8-0.1,1.7,0.4,1.9,1.3
				C201.7,58.7,201,59.6,200.1,59.7z"/>
			<path d="M199.1,50.7c-0.1,0-0.1,0.1-0.1,0.1c-1.1,0.7-1.1,2.3,0.1,2.9c0,0.1,0.1,0.3,0.3,0.3c3.5-0.7,4.4,3.6,4.2,6.2
				c0,0.1,0.1,0.2,0.1,0.2c0.6,1.5,2.7,1.4,3.3,0c0.1,0,0.1-0.1,0.2-0.2C207.9,55.6,204.7,49,199.1,50.7z M206.7,59.8
				c0,0-0.1,0.1-0.1,0.2c-0.2,1.4-2.1,1.5-2.5,0.2c0,0,0-0.1,0-0.1c0.2-2.9-0.9-7-4.5-6.5c0-0.1-0.1-0.1-0.1-0.1c-1-0.4-1-1.8,0-2.2
				c0,0,0,0,0,0C204.4,49.8,207.2,55.5,206.7,59.8z"/>
			<path d="M213.4,60.5c0.2-4.1-0.5-8.3-3.2-11.5c-2.9-3.3-7-3.6-11.1-3.6c-0.1,0-0.2,0.1-0.2,0.1c-1.4,0.9-1.4,3,0.2,3.8
				c0.1,0,0.2,0,0.2,0c0,0,0.1,0,0.2,0c3.1-0.8,6.4,0.4,8.2,3.1c1.6,2.4,1.8,5.3,1.7,8.1c0,0.1,0,0.2,0.1,0.2c0.4,2.2,3.5,2.2,4,0
				C213.4,60.6,213.4,60.5,213.4,60.5z M209.9,60.4c0,0,0-0.1,0-0.1c0.1-3.1-0.3-6.4-2.3-8.9c-2-2.4-5.3-3.3-8.2-2.6c0,0,0,0-0.1,0
				c-1.2-0.6-1.3-2.2-0.1-2.9c3.9,0,7.9,0.3,10.6,3.4c2.7,3.1,3.3,7.2,3.1,11.1c0,0.1,0,0.1,0,0.1C212.5,62.3,210.1,62.2,209.9,60.4
				z"/>
		</g>
		<g>
			<path d="M46.3,83.8c0-3.2-2.5-6.5-5.9-6c-3.5,0.5-5.2,4.1-5.1,7.4c0.1,1.9,0.7,3.8,1.5,5.5c0.8,2,1.8,3.9,3.2,5.5
				c0,0,0.1,0.2,0.1,0.2c0,0.1,0.1,0.3,0.2,0.3h0.5c0.2,0,0.3-0.4,0.2-0.6c1.1-2.1,2.3-4.4,3.4-6.5C45.3,87.8,46.3,85.9,46.3,83.8z
				 M40.4,95.5h-0.2c0,0,0,0.1,0,0.1c-2.1-2.4-3.7-5.9-4.3-9.1c-0.6-3.3,0.5-7.8,4.5-8.3c4.3-0.6,6.1,4.4,5,7.8
				c-0.6,1.8-1.6,3.3-2.5,5C42.1,92.6,41.3,94.4,40.4,95.5z"/>
			<path d="M43.7,83.1c-0.1-1.5-1.3-2.7-2.8-2.7c-1.4,0-2.6,1.1-2.7,2.6c-0.1,1.5,1.3,2.7,2.8,2.6c0,0,0,0,0,0
				C42.5,85.6,43.8,84.9,43.7,83.1z M42.5,84.7c-0.5,0.4-1,0.4-1.6,0.4c0,0-0.1,0-0.1,0c-1.1,0.1-2.2-0.7-2.2-1.9
				c0-1.2,1-2.2,2.2-2.2c1.1,0,2,0.8,2.3,1.8C43.3,83.5,43.1,84.2,42.5,84.7z"/>
		</g>
		<path d="M63.4,110.9c-0.1,0-0.1,0-0.2,0c0,0-0.1-0.1-0.2-0.1c-0.7,0.1-1.3,0.5-1.6,1.1c-1.6-0.9-3.2-1.9-4.8-2.8
			c0.3-0.6,0.2-1.3,0-2c2-0.8,3.9-1.7,5.7-2.9c0,0.2,0.3,0.3,0.4,0.1c0,0,0,0,0,0c0.6,0.3,1.3,0.2,1.8-0.2c0.8-0.6,1-1.9,0.2-2.7
			c-0.5-0.5-1.3-0.6-1.8-0.3c0,0-0.1,0-0.2,0c-0.9,0.4-1.3,1.6-0.8,2.5c0,0,0,0.1,0.1,0.1c-1.8,1.2-3.7,2.2-5.7,2.9
			c-0.6-1.1-1.7-1.8-2.9-0.9c0,0-0.1,0.1-0.1,0.1c-0.9,0.6-1.4,1.8-1,2.9c0.5,1.2,2,1.9,3.2,1.4c0.3-0.1,0.5-0.3,0.7-0.5
			c1.6,1,3.2,1.9,4.8,2.9c0,0,0.1,0,0.1,0c0,0.1,0,0.1,0,0.2c0,0.9,0.7,1.6,1.6,1.7c0.9,0.1,1.8-0.5,1.9-1.4
			C65,112,64.4,111,63.4,110.9z M62.6,102.1c0.1,0.1,0.2,0,0.3-0.1c0.4-0.8,1.4-0.7,1.8,0c0.4,0.6,0.1,1.5-0.5,1.8
			c-0.4,0.2-0.9,0.2-1.3,0c0,0,0-0.1,0-0.1c0-0.1-0.2-0.2-0.3-0.2c0,0-0.1-0.1-0.1-0.1C62.3,102.9,62.3,102.5,62.6,102.1z
			 M54.9,109.8c-2.3,0.1-2.8-2.9-0.8-3.8c0.1,0,0.1-0.1,0.1-0.1C56.2,105.2,57.5,109.7,54.9,109.8z M63.1,113.9
			c-0.7,0-1.3-0.5-1.3-1.2c0-0.7,0.5-1.3,1.2-1.4c0,0,0.1,0,0.1,0c0,0,0.1,0,0.1,0.1C64.8,111.6,64.7,113.9,63.1,113.9z"/>
		<g>
			<path d="M161.1,70.4c-3.6-0.7-7.5,0.9-9.6,3.9c-2.1,3.1-1.8,7.4,0.5,10.4c2.5,3.3,7.5,4.3,10.8,1.6c0,0,0.1,0,0.1-0.1
				c0.3-0.6,0-1.4-0.7-1.6c-0.1,0-0.2,0-0.3,0.1c0,0,0,0,0,0c-2.6,1.9-6.2,1.6-8.3-1c-1.7-2.1-2.1-6.8,0-8.9
				c2.2-2.1,6.5-2.8,9.1-1.5c3.3,1.7,3.6,6.1,0.8,8.4c-1.2,0.1-0.2-3.8-0.2-4.4c0.1-0.8,0-1.4-0.3-2c-0.1-0.1-0.2-0.1-0.3-0.1
				c-0.5-0.5-1.4-0.3-1.7,0.3c-0.9-0.9-2.5-1-3.8-0.8c-1.8,0.2-2.9,1.3-3.1,3.1c-0.2,1.9,0.1,4,1.7,5.2c1.5,1.1,3.4,0.9,4.8-0.3
				c0,0,0,0,0.1-0.1c1,1.1,2.5,1.3,3.8,0.7c1.6-0.7,2.4-2.5,2.6-4.1C167.8,75,165.3,71.3,161.1,70.4z M166.5,80.2
				c-0.7,2.2-3.6,4.2-5.5,1.9c-0.1-0.2-0.4,0-0.4,0.2c-0.1,0-0.2,0-0.2,0c-1.4,1.2-3.4,1.2-4.7-0.3c-0.9-1.1-1-2.6-1-3.9
				c0.1-1.6,0.7-2.7,2.3-3c1.2-0.2,3.1-0.3,3.9,0.9c0,0.1,0.1,0.1,0.1,0.1c0.1,0.1,0.4,0.1,0.4-0.2c0-0.6,0.7-0.9,1-0.4
				c0,0.1,0.1,0.1,0.2,0.1c0.7,1.5-0.3,3.5-0.3,5.2c0,0.7,0.2,1.3,0.8,1.4c0,0.1,0.2,0.2,0.3,0.1c2.9-2,3.4-6.2,0.6-8.7
				c-2.8-2.5-7.7-1.7-10.5,0.5c-2.6,2-2.4,7-0.7,9.5c2.1,3,6.2,3.6,9.2,1.5c0,0,0,0,0,0c0.3,0.2,0.4,0.5,0.3,0.8c0,0,0,0,0,0
				c-3.6,2.9-8.9,1-10.9-2.9c-1.8-3.7-0.9-8.2,2.5-10.6c3.4-2.4,8.8-2.4,11.4,1.2C166.8,75.4,167.2,78.1,166.5,80.2z"/>
			<path d="M161.1,77.2c0-0.3-0.2-0.4-0.3-0.4c-1-0.7-2.2-1.1-3.4-0.6c-1.2,0.5-1.6,1.6-1.5,2.8c0.1,1.1,0.4,2.3,1.6,2.6
				c1.1,0.3,2.6,0.1,3.5-0.6c0.1-0.1,0.1-0.2,0.1-0.3c0,0,0-0.1,0-0.1L161.1,77.2L161.1,77.2z M156.4,79.6c-0.2-1-0.4-2.2,0.6-2.8
				c1.1-0.6,1.8-0.2,2.9,0.5v3.3c0,0,0.3,0.1,0.3,0.1c-0.6,0.4-1.2,0.5-1.9,0.5C157.2,81.2,156.6,80.7,156.4,79.6z"/>
		</g>
		<path d="M175,106.6c-1.3-0.9-2.8-0.9-4-0.2c0,0,0,0-0.1-0.1c-4.1-2.6-8.1-5.4-11.9-8.4c0,0-0.1,0-0.1,0c0.3-0.7,0.4-1.4,0.2-2.2
			c-0.4-2.4-2.6-4.1-5.1-3.7c-2.2,0.4-3.9,2.7-3.6,4.9c0.1,0.4,0.2,0.8,0.3,1.1c-0.1-0.1-0.2-0.1-0.4,0c-3.4,2.7-7,5.3-10.7,7.6
			c-0.1,0-0.1,0.1-0.1,0.1c-0.2-0.3-0.5-0.5-0.8-0.8c-2-1.5-4.7-0.8-6.3,1c0,0-0.1,0-0.1,0.1c-1.3,1.9-0.6,5,1.1,6.5
			c1.9,1.7,4.8,0.8,6.1-1.2c0.9-1.5,1.1-3.7,0.1-5.2c0,0,0.1,0,0.1,0c3.7-2.4,7.3-4.9,10.8-7.7c0.1,0,0.1-0.1,0.1-0.2
			c0.2,0.4,0.4,0.7,0.7,1c-3,7-6.3,13.9-9.9,20.6c0,0,0,0,0,0c-1.5-0.3-4.4,0.8-4.6,2.5c-0.1,0-0.1,0.1-0.1,0.2
			c-0.2,2.3,0.5,4.6,3.1,5c2.2,0.3,4.2-1.3,4.5-3.4c0.3-1.8-0.7-3.6-2.4-4.2c3.6-6.7,6.9-13.5,9.8-20.5c0.8,0.6,1.7,1,2.7,1
			c-0.3,2.4-0.3,4.7-0.2,7.1c-1.8-0.1-3.3,1.2-3.7,2.9c0,0-0.1,0.1-0.1,0.2c-0.2,1.9,1,3.9,3,4.2c2.1,0.4,4-1.1,4.3-3.2
			c0.3-1.9-1.1-3.7-3-4.1c0,0,0,0,0,0c-0.1-2.4-0.1-4.8,0.2-7.2c0,0,0.1,0,0.1,0c0.1,0,0.2-0.1,0.2-0.2c0.3,0,0.6-0.1,0.8-0.1
			c2.3,6.9,4.9,13.6,7.9,20.2c0,0,0,0,0,0c-2,0.2-3.5,2-3.5,4.1c0,0,0,0.1,0,0.1c-0.2,1.9,1.2,3.5,3.1,3.9c2.3,0.4,4.5-1.3,4.7-3.6
			c0.2-2.3-1.4-4.3-3.7-4.5c-0.1,0-0.2,0-0.3,0c0-0.1,0.1-0.2,0-0.2c-3-6.6-5.6-13.3-7.8-20.2c0.8-0.3,1.4-0.9,1.8-1.7
			c3.8,3,7.7,5.8,11.8,8.4c-0.4,0.3-0.7,0.6-0.9,1c0,0.1,0,0.1,0,0.2c-1.1,1.3-1,3.4,0.4,4.5c1.7,1.4,4.2,0.8,5.5-0.8
			C176.8,110.1,176.7,107.9,175,106.6z M139.7,110.5c-1,2.2-4.1,3.3-5.9,1.4c-1.3-1.4-1.8-3.9-0.8-5.5c1.4-1.5,3.5-2.3,5.4-1.2
			C140.2,106.3,140.5,108.7,139.7,110.5z M142.3,120.6c1.6,0.8,2.2,2.6,1.7,4.2c-0.6,1.6-2.5,2.7-4.1,2.2c-2-0.6-2.4-2.3-2.3-4.1
			c0.1,0,0.2-0.1,0.2-0.2c-0.1-0.6,0.7-1.4,1.2-1.7c0.3-0.2,0.5-0.4,0.8-0.5C140.5,120.2,141.5,120.2,142.3,120.6z M164.9,120.9
			c1.9,0.1,3.4,1.7,3.4,3.6c0,1.9-1.6,3.5-3.5,3.5c-2.2,0.1-3.9-1.9-3.3-4c0-0.1,0-0.2-0.1-0.2C161.7,122.2,163.1,120.9,164.9,120.9
			z M157.6,112.1c-0.4,1.7-2,2.7-3.7,2.4c-1.6-0.3-2.6-1.8-2.6-3.4c0,0,0-0.1,0-0.1c0.3-1.7,1.8-3.1,3.7-2.8
			C156.8,108.6,158,110.3,157.6,112.1z M156.8,99.6c-0.1-0.2-0.5-0.1-0.4,0.2c-0.3,0.1-0.6,0.1-0.9,0.1c-0.1,0-0.2,0.1-0.2,0.2
			c-4,0.1-5.7-5.3-1.9-7.2c2-1,4.5,0.2,5.2,2.2C159.1,96.9,158.4,98.9,156.8,99.6z M174.9,111.6c-1.1,1.2-2.9,1.6-4.3,0.7
			c-1.5-1-1.7-3-0.4-4.2c0.1-0.1,0.1-0.2,0-0.3c1-1.3,2.7-1.8,4.2-0.9C176.3,107.9,176.3,110.2,174.9,111.6z"/>
		<g>
			<path d="M74.2,25c-0.5-3.2-3.4-5.6-6.6-5c0,0,0,0,0,0c-3.7,0.2-5.5,4.2-4.9,7.5c0.6,3.3,4,4.9,7.1,4.1C72.7,30.8,74.6,28,74.2,25
				z M70,31c-2.6,0.9-5.8-0.2-6.6-3c-0.9-3,0.5-7,3.8-7.5c0,0,0.1,0,0.2,0c3-0.8,5.7,1.3,6.3,4.2C74.2,27.5,72.6,30.1,70,31z"/>
			<path d="M71.8,26.7c0-0.3-0.5-0.3-0.5,0c0.3,3.4-5.4,3-5.9,0.1c-0.1-0.3-0.5-0.2-0.5,0.1C65.6,30.3,72.2,30.6,71.8,26.7z"/>
			<path d="M67.9,23.1c0.1-0.3-0.4-0.4-0.5-0.1c-0.2,1-0.3,2-0.2,3c0,0.3,0.5,0.3,0.5,0C67.6,25,67.7,24.1,67.9,23.1z"/>
			<path d="M69.9,22.8c0-0.3-0.5-0.3-0.5,0c-0.1,1.1-0.1,2.2,0,3.3c0,0.3,0.5,0.3,0.5,0C69.8,25,69.8,23.9,69.9,22.8z"/>
		</g>
		<g>
			<path d="M59.9,35.4c-1-1-2.4-1.2-3.7-1.4c0-0.1-0.1-0.1-0.2-0.1c-3.1-0.2-4.9,2.8-4.9,5.6c-0.1,3,2.1,4.9,5.1,4.8
				c3.1-0.1,4.9-2.5,4.9-5.4C61,37.6,60.7,36.3,59.9,35.4z M56.1,43.8c-2.7,0.1-4.7-1.5-4.6-4.3c0.1-2.5,1.5-5.1,4.3-5.1
				c0,0,0.1,0.1,0.2,0.1c1.2,0.1,2.4,0.2,3.3,1c1,0.8,1.3,2.1,1.3,3.3C60.6,41.5,59,43.6,56.1,43.8z"/>
			<path d="M58.7,41.4c-1.7-1.3-4-1.4-5.7-0.1c-0.3,0.2,0,0.6,0.3,0.4c1.5-1.1,3.6-1.2,5.1,0C58.6,41.9,59,41.6,58.7,41.4z"/>
			<path d="M55,37v2.2c0,0.6,0.3,0.6,0.3,0V37C55.2,36.7,55,36.7,55,37z"/>
			<path d="M57.1,36.9c0.1-0.3-0.4-0.4-0.5-0.1c-0.2,0.8-0.2,1.7,0,2.5c0.1,0.3,0.5,0.2,0.5-0.1C57,38.4,57,37.7,57.1,36.9z"/>
		</g>
		<g>
			<path d="M49.4,111c0.8-2.8-0.2-5.8-2.6-7.2c1.4-2.5,2.8-5.1,4.2-7.6c0.5-1,2.2-3,1.3-4.1c-0.1-0.5-0.5-0.8-1-0.8
				c-1,0.1-1.7,1.1-2.1,1.9c-1.8,3-3.1,6.5-4.7,9.6c-5.4-1.7-12,4.6-8.7,10C39.1,118.3,47.6,117.1,49.4,111z M49.4,93.6
				c0.2-0.3,0.4-0.6,0.6-0.9c0.4-0.6,0.9-0.7,1.7-0.4c0,0,0,0,0.1,0.1c0,0,0,0.1,0.1,0.1c0.5,1.2-2.2,5.1-2.6,5.9
				c-1,1.8-1.9,3.5-2.9,5.3c-0.3-0.1-0.6-0.3-1-0.4c-0.1-0.1-0.3-0.1-0.4-0.2c0.9-1.8,1.8-3.7,2.7-5.5c0.5-0.9,0.9-1.9,1.4-2.8
				C49.1,94.2,49.3,93.9,49.4,93.6z M48.2,112.4c-1.7,2.9-5.2,4.2-8.4,3c-3.4-1.2-5.6-4.9-3.9-8.3c1.7-3.3,5.6-5.3,9.1-3.6
				c0,0,0.1,0,0.1,0.1c0,0,0,0,0,0c0.1,0,0.2,0.1,0.3,0.1c0.1,0,0.1,0,0.2,0C49.1,105,50,109.3,48.2,112.4z"/>
			<path d="M45.1,104.8c-0.1,0-0.1,0-0.2,0c-2.9-0.8-5.5-0.8-7.3,2c-0.8,1.2-1.6,2.6-0.9,4.1c0.5,1.2,1.6,2.3,2.8,2.9
				c2.5,1.4,5.6,1.1,7.1-1.4C48.2,109.8,48.2,106,45.1,104.8z M45.8,112.6c-1.6,2.1-4.6,1.8-6.6,0.4c-0.9-0.6-1.9-1.6-2.2-2.7
				c-0.3-1.3,0.7-3,1.5-4c1.7-2.1,4.1-1.7,6.4-1.1c0,0,0.1,0,0.1,0C47.9,106.7,47.5,110.4,45.8,112.6z"/>
		</g>
		<g>
			<path d="M81.7,110.7c-2.8-1.9-6.8-2.1-9.7-0.4c-3,1.8-4.8,5.4-4.6,8.9c0.2,3.7,2.7,7.3,6.6,7.8c0.8,2.4,2.4,4.4,4.6,5.7
				c0.2,0.1,0.4-0.1,0.4-0.3c-0.3-1.6-0.3-3.2,0-4.9c3.5-0.5,6.7-2.8,7.2-6.5C86.5,117.4,84.8,112.9,81.7,110.7z M84.7,123.7
				c-1.3,2-3.6,3.1-5.9,3.4c-0.1,0-0.2,0.1-0.2,0.2c-0.1,0-0.1,0.1-0.1,0.2c-0.2,1.5-0.3,3.1-0.1,4.6c-1.9-1.2-3.3-3-4-5.2
				c0-0.1-0.1-0.2-0.2-0.2c0-0.1-0.1-0.1-0.2-0.1c-4.5-0.5-6.8-5.5-6-9.6c0.8-4,4-7.1,8.1-7.3c4.7-0.2,7.8,3,9,7.3
				C85.8,119.2,86,121.7,84.7,123.7z"/>
			<path d="M79,112c-0.5-0.5-2.3-0.1-2.9-0.1c-0.7,0-2.2-0.2-2.8,0.3c-0.5,0.4-0.1,1.5-0.1,2.1c0.3,2.8,0.8,5.9,1.5,8.6
				c0.1,0.2,0.3,0.4,0.4,0.4h2.2c0.1,0,0.4-0.2,0.4-0.4c0.4-2.7,0.8-5.6,1.1-8.3C79,114,79.5,112.5,79,112z M78.2,116.3
				c-0.2,2-0.5,3.7-0.9,5.9h-2.2c-0.4-2.2-0.8-3.5-1-5.3c-0.1-1-0.5-2.3-0.4-3.3c0.2-1.3,1.6-1,2.7-1.1c0.4,0,0.9-0.1,1.3,0
				c0.3,0,0.6,0,0.9,0.2l-0.1,0.5C78.7,114.1,78.4,115.3,78.2,116.3z"/>
			<path d="M77.9,125.4c-0.1-0.6-0.2-1.2-0.3-1.8c0-0.1-0.2-0.2-0.3-0.2c-0.7,0.1-1.5,0.1-2.2,0.1c-0.2,0-0.2,0.1-0.2,0.2
				c0,0-0.1,0.1-0.1,0.1c-0.2,0.5-0.2,1-0.2,1.5c0,0.1,0.1,0.3,0.2,0.2c0.9-0.1,1.9-0.1,2.8,0.1C77.8,125.7,78,125.6,77.9,125.4z
				 M75.1,125.1c0-0.4,0.1-0.7,0.2-1.1c0.7,0,1.3,0,1.9-0.1c0.1,0.4,0.1,0.8,0.2,1.2C76.6,125,75.8,125,75.1,125.1z"/>
		</g>
		<g>
			<path d="M198.9,29c-0.8,0.1-1.6,0.1-2.3,0.2c-1.2-5.9-8.7-7.2-13.7-5.8c-5.4,1.5-8.2,7.1-6.5,12.4c0,0.1,0.1,0.1,0.2,0.2
				c0.1,0,0.1,0.1,0.2,0.1c0.9-0.1,1.7-0.3,2.6-0.4c0.2,0,0.2-0.3,0.1-0.4c0,0,0.1-0.1,0.1-0.2c-0.2-1.8-0.3-3.8,0.5-5.5
				c0.8-1.6,2.3-2.7,4-3.3c3.3-1,8.8-0.5,9.5,3.6c-0.8,0.2-1.6,0.4-2.4,0.8c-0.2,0.1-0.2,0.3,0,0.4c1.9,1,3.6,2.2,5.2,3.6
				c0.1,0.1,0.3,0.1,0.4,0c1-1.7,1.8-3.5,2.4-5.3C199.2,29.1,199.1,29,198.9,29z M196.5,34.1c-1.4-1.3-3-2.3-4.6-3.2
				c0.6-0.2,1.2-0.4,1.9-0.5c0,0,0,0,0,0c0.1,0,0.3,0,0.3-0.2c-0.5-4.3-5.7-5.3-9.2-4.6c-1.9,0.4-3.8,1.4-4.9,3
				c-1.3,1.9-1.1,4.3-0.9,6.5c0,0.1,0,0.1,0.1,0.1c-0.8,0.1-1.5,0.2-2.3,0.3c-1.5-5,1.1-10.3,6.2-11.7c4.7-1.3,11.9-0.1,13.1,5.5
				c-0.1,0.1-0.1,0.4,0.1,0.4c0.1,0.2,0.3,0.1,0.4,0c0.6-0.1,1.3-0.1,1.9-0.2C198,31.1,197.4,32.6,196.5,34.1z"/>
			<path d="M198.2,36c-0.1-0.2-0.3-0.2-0.4-0.1c-0.8,0.2-1.6,0.4-2.4,0.6c-0.1,0-0.1,0-0.1,0.1c-0.1,0-0.2,0.1-0.2,0.2
				c0.1,3.4-2.9,5.4-5.9,6.1c-2.8,0.7-6.2,0.6-7.8-2.1c0.7-0.2,1.4-0.4,2.1-0.6c0.2-0.1,0.2-0.3,0.1-0.5c-1.6-1.2-3.2-2.2-4.9-3.3
				c-0.1-0.1-0.3,0-0.3,0.1c-0.8,1.8-1.6,3.7-2.4,5.5c-0.1,0.2,0.1,0.4,0.3,0.4c0.9-0.3,1.8-0.5,2.7-0.8
				C183.1,50.3,200.6,45.9,198.2,36z M190.2,45.5c-4.1,1.1-9,0.1-10.9-4c-0.1-0.1-0.2-0.1-0.3-0.1c-0.1,0-0.1-0.1-0.2,0l-2.2,0.7
				c0.3-0.7,0.6-1.5,1-2.2c0.2-0.5,0.7-2.3,1.3-2.4c0.4-0.1,1.7,1.1,2.1,1.3c0.7,0.4,1.3,0.9,2,1.4c-0.6,0.2-1.2,0.3-1.7,0.5
				c-0.1,0-0.2,0.1-0.2,0.2c-0.1,0.1-0.2,0.2-0.1,0.3c1.7,3,5.4,3.2,8.4,2.5c3.2-0.7,6.3-2.9,6.3-6.5c0.7-0.2,1.5-0.4,2.2-0.6
				C198.7,41.1,194.3,44.4,190.2,45.5z"/>
		</g>
		<g>
			<path d="M160.3,65.2c-0.1-0.1-0.2-0.2-0.3-0.3c0,0,0-0.1,0-0.1c-1.5-3.8-4.9-7.1-9-7.5c1.5-0.7,2.5-2.5,2.3-4.2
				c-0.2-2.6-2.4-4.5-5-4.3c-2.5,0.2-4.4,2.5-4.2,5c0.2,1.9,1.6,3.4,3.4,3.8c-3.9,0.8-7.5,3.6-7.2,8c0,0.1,0,0.1,0,0.1
				c-0.3,0.1-0.3,0.5,0,0.5l9.7-0.4c1.5-0.1,3.1-0.1,4.6-0.2l2.4-0.1c0.6,0,2.3,0.2,2.7-0.2c-0.2,0.2,0.1,0.6,0.4,0.4
				c0,0,0,0,0.1-0.1C160.3,65.4,160.4,65.3,160.3,65.2z M144.6,54c-0.5-2.3,1.3-4.6,3.7-4.8c2.3-0.2,4.3,1.5,4.5,3.8
				c0.2,2.2-1.6,4.4-3.9,4.1c-0.1,0-0.1,0-0.1,0C146.8,57.2,145,55.9,144.6,54z M157.4,65c-1.9,0.1-3.8,0.1-5.7,0.2
				c-3.7,0.1-7.3,0.3-11,0.4c0,0,0-0.1,0-0.1c-0.3-5.1,5.1-7.9,9.6-7.7c4.2,0.2,7.5,3.4,9,7.1C158.7,64.7,157.9,64.9,157.4,65z"/>
			<path d="M163.9,34.4c-3.2-0.8-7.2-0.7-10.1,0.9c-2.9,1.5-4.1,4.8-2.9,7.9c1.4,3.6,5.3,5.1,8.9,4.6c0.1,1.6-0.5,3.1-1.8,4.1
				c-0.2,0.2,0,0.4,0.2,0.4c2.5-0.4,4.6-2,5.5-4.4c0,0,0.1,0,0.2,0c3.1-0.6,5.6-3.2,5.7-6.4C169.8,38,167.3,35.2,163.9,34.4z
				 M163.9,47.5c0,0-0.1,0-0.1,0.1c-0.1,0-0.3,0-0.4,0.1c-0.8,2-2.4,3.4-4.4,3.9c1-1.1,1.4-2.5,1.3-4c0-0.1-0.1-0.2-0.2-0.2
				c-0.1-0.1-0.1-0.1-0.2-0.1c-4,0.6-8.5-1.5-8.9-5.9c-0.5-4.4,3.6-6.5,7.4-6.8c3.7-0.3,8.3,0.1,10.1,3.8
				C170.4,42.2,168,46.7,163.9,47.5z"/>
			<path d="M165,43.1c-3.5-0.1-7,0-10.6,0.1c-0.3,0-0.3,0.5,0,0.5c3.5-0.1,7-0.1,10.6-0.1C165.3,43.6,165.3,43.1,165,43.1z"/>
			<path d="M165,39.7c-3.5-0.1-7-0.3-10.6-0.4c-0.3,0-0.3,0.5,0,0.5c3.5,0.1,7,0.3,10.6,0.4C165.3,40.3,165.3,39.8,165,39.7z"/>
		</g>
		<g>
			<path d="M141.3,30.5c-0.1-2.4-0.4-4.4-3-4.9c0.3-0.4,0.2-0.9-0.1-1.3c-0.4-0.6-1.1-0.6-1.8-0.6c-0.6,0-1.3,0.1-1.7,0.6
				c-0.3,0.3-0.3,0.8-0.1,1.1c-0.4,0-0.9,0.1-1.3,0.1c-0.9,0-1.8,0.1-2.8,0.1c0-0.9,0.2-2.7-0.5-3.3c-0.4-0.3-0.9-0.2-1.3-0.2
				c-0.9,0-1.8,0-2.8,0c-1,0-2.8-0.4-3.6,0.3c-0.9,0.7-0.7,2.5-0.7,3.5c-2.4,0.1-4.7,0.2-7.1,0.2c0,0-0.1-0.1-0.2-0.1
				c-2.7,0.3-3.1,3.2-3.3,5.5c-0.3,3.5,0,7.2,0.4,10.7c0.3,2.2,1.2,3.6,3.6,3.7c3.7,0.1,7.5-0.2,11.2-0.4c3.6-0.1,7.3-0.3,10.9-0.5
				c2.4-0.2,3.7-0.9,3.9-3.4C141.4,38,141.4,34.3,141.3,30.5z M135.2,25.3c-0.7-0.8,1.1-1,1.5-1c0.6,0,1.8,0.3,1.2,1.1
				c0,0.1,0,0.1,0,0.2c-0.9-0.1-1.7-0.1-2.6,0C135.3,25.5,135.3,25.4,135.2,25.3z M122.3,24.5c0.1-0.6,0.6-1.6,1.2-1.8
				c0.7-0.3,2,0,2.8,0c0.8,0,1.7-0.2,2.5,0c1.4,0.3,1.3,1.9,1.3,3c-1.1,0-2.2,0.1-3.3,0.1c-1.5,0.1-3.1,0.1-4.6,0.2
				C122.3,25.5,122.3,25,122.3,24.5z M139.8,44c-1.1,0.8-2.8,0.7-4.1,0.7c-1.5,0.1-2.9,0.2-4.4,0.2c-2.9,0.1-5.8,0.3-8.7,0.4
				c-1.3,0-2.5,0.1-3.8,0.1c-1.4,0-2.9,0.3-4.3,0c-2.1-0.4-2.3-2.3-2.4-4c-0.2-1.6-0.3-3.3-0.4-4.9c-0.1-1.6-0.1-3.3,0-4.9
				c0.1-1.8,0.4-4.4,2.5-4.9c0,0,0.1,0,0.1,0c5.7-0.2,11.5-0.4,17.2-0.6c1.4,0,2.7-0.1,4.1-0.1c1.2,0,2.7-0.2,3.8,0.4
				c1.6,0.8,1.4,2.8,1.4,4.3c0,1.5,0,3,0,4.5c0,1.2,0,2.5-0.1,3.7C140.8,40.5,141.1,43,139.8,44z"/>
			<path d="M128.2,23.2c-0.7,0-1.5-0.1-2.2,0c-0.5,0-1.3,0-1.8,0.2c-0.9,0.4,0,1-0.2,1.6c0,0,0,0.1,0,0.1c-0.2,0.1-0.2,0.5,0.1,0.5
				c0.6-0.1,1.3-0.1,1.9-0.2c0.5,0,1.2,0,1.8-0.1c0.7-0.2,0.6-1.2,0.6-1.8C128.5,23.3,128.3,23.2,128.2,23.2z M127.4,24.8
				c-0.3,0.1-0.7,0.1-1,0.1c-0.6,0-1.3,0.1-1.9,0.1c0-0.2,0-0.3,0-0.5c0-0.1-0.2-0.3-0.2-0.4c0-0.2,0.5-0.3,0.8-0.3
				c0.9-0.1,1.9-0.1,2.9-0.1C127.9,24.1,127.9,24.6,127.4,24.8z"/>
			<path d="M132.6,31.6c-2.2-2.4-6-2.9-9-2c-3.1,1-4.8,4-4.4,7.2c0.5,3.6,3.6,6.2,7.2,6.2c2.7,0.3,5.5-0.8,6.9-3.2
				C134.9,37.2,134.6,33.9,132.6,31.6z M126.7,42.6C126.6,42.6,126.6,42.6,126.7,42.6c-0.1,0-0.2,0-0.2,0c-0.3,0-0.7-0.1-1-0.2
				c-0.1,0-0.2,0-0.2,0.1c-3.2-0.6-5.7-3.4-5.5-6.9c0.2-4.4,4.1-6.2,8-5.8c3.7,0.4,6.7,3.5,6.1,7.4C133.2,40.7,130,42.9,126.7,42.6z
				"/>
			<path d="M132.6,35.3c-0.7-3.2-3.9-5.4-7.1-4.7c-1.5,0.3-3,0.9-3.9,2.2c-0.8,1.2-0.9,2.8-0.5,4.2c0.8,3.1,4.1,4.8,7.1,4
				c0.1,0,0.1,0,0.1-0.1C131.2,40.9,133.1,38.1,132.6,35.3z M127.8,40.4c-0.2,0-0.2,0.1-0.2,0.2c-2.5,0.4-5-0.9-5.9-3.4
				c-1-2.9,0.6-5.4,3.5-6.1c2.9-0.7,5.8,0.8,6.7,3.7C132.9,37.6,131,40.8,127.8,40.4z"/>
			<path d="M128.1,34.8c-0.4-0.5-1.2-0.7-1.8-0.6c-0.1-0.1-0.2-0.1-0.3,0c-0.8,0.5-1.3,1.7-0.8,2.6c0.5,0.8,1.7,1.1,2.5,0.5
				C128.5,36.8,128.7,35.6,128.1,34.8z M127.4,37c-0.6,0.3-1.4,0.1-1.7-0.5c-0.3-0.5-0.2-1.1,0.2-1.5c0,0,0,0,0,0
				c0.5-0.5,1.4-0.4,1.9,0.1C128.1,35.7,128,36.6,127.4,37z"/>
			<path d="M138.5,27.4c0-0.1-0.1-0.3-0.2-0.2c-1.3,0.1-2.6,0.4-3.8,0.7c-0.1,0-0.2,0.1-0.2,0.2c-0.1,0.6,0,1.2,0.1,1.8
				c0.1,0.3,0.5,0.2,0.5-0.1c-0.1-0.5-0.1-1-0.1-1.5c1.1-0.3,2.2-0.5,3.3-0.6c0,0.7,0.1,1.5,0.1,2.2c-1.1,0.1-2.1,0.2-3.2,0.1
				c-0.3,0-0.3,0.5,0,0.5c1.2,0.1,2.3,0,3.5-0.2c0.1,0,0.2-0.1,0.2-0.2C138.6,29.2,138.5,28.3,138.5,27.4z"/>
		</g>
		<g>
			<path d="M177.7,22.4c-0.1-0.9-0.7-1.5-1.5-1.8c0.9-0.5,1.3-1.6,1.1-2.6c-0.2-1.1-0.9-2.2-2-2.4c1.1-1,0.9-2.7-0.3-3.7
				c-1.4-1.1-4.2-1.1-5.8-0.1c0.1-2-0.1-4-1-5.8c-0.7-1.4-2.3-3.6-4.2-3c-2.1,0.7-1,3.5-0.9,5.1c0.1,1.6-0.1,3.3-1,4.6
				c-1,1.6-2.7,1.9-4.4,2.1c0,0-0.1-0.1-0.1-0.1c-0.2-0.1-0.4,0-0.6,0.1c0,0,0,0,0,0c0-0.4,0-0.8,0-1.1c0-0.2-0.1-0.2-0.3-0.2
				c-0.4-0.9-1.4-1-2.4-1c-1.9,0.1-3.8,0.2-5.7,0.4c-1.1,0.1-2.3,0.3-2.7,1.4c-0.5,1.4-0.1,3.5-0.1,4.9c0.1,2.1,0.2,4.2,0.5,6.2
				c0.1,1.1,0,3,0.9,3.9c0.9,0.9,2.9,0.7,4.1,0.7c2.1,0,4.1-0.1,6.1-0.4c0.2,0,0.3-0.3,0.2-0.4c0.1-0.1,0.1-0.2,0-0.3
				c-0.4-0.3-0.3-1.1-0.3-1.7c0,0.1,0.1,0.2,0.2,0.2c2.5,0,5,0.1,7.6,0.4c2.4,0.2,4.7,0.7,7.1,0.6c1.5,0,3.5-0.2,4.5-1.5
				c0.6-0.8,0.5-1.8,0-2.6C177.3,24,177.8,23.3,177.7,22.4z M149.6,29.6c-1.1-0.1-2.2-0.3-2.6-1.6c-0.2-0.6-0.2-1.3-0.2-1.9
				c-0.1-1.3-0.3-2.7-0.4-4.1c-0.1-1.4-0.2-2.7-0.2-4.1c0-1.4-0.5-3.8,1.3-4.3c1.1-0.3,2.5-0.2,3.6-0.3c1-0.1,4.8-0.8,5.1,0.8
				c0,0.1,0.1,0.2,0.2,0.2c0.1,2.9,0.2,5.7,0.2,8.6c0,1.5,0.1,2.9,0.1,4.4c0,0.6-0.2,1.6,0.3,2.1C154.6,29.6,152.1,29.7,149.6,29.6z
				 M176.3,23.9c-0.1-0.1-0.3-0.1-0.4,0.1c0,0-0.1,0-0.1,0c-0.3,0-0.3,0.5,0,0.5c0.1,0,0.2,0,0.3,0c1.9,2.4-2.1,3.4-3.7,3.5
				c-1.7,0.1-3.3-0.2-5-0.4c-3.3-0.4-6.6-0.6-10-0.6c-0.1,0-0.2,0.1-0.2,0.1c0-0.1,0-0.2,0-0.3c0-0.5,0-1.1,0-1.6
				c0-1.3-0.1-2.5-0.1-3.8l-0.2-6.1c0.1,0,0.2,0.1,0.3,0c0,0,0.1,0,0.1-0.1c0,0.1,0.1,0.1,0.2,0.1c1.8-0.2,3.6-0.5,4.8-2
				c1.1-1.4,1.4-3.2,1.4-5c0-1.1-0.5-2.6-0.3-3.7c0.3-1.6,2-1.3,3-0.5c0.5,0.4,0.9,1,1.3,1.6c1.2,1.9,1.3,4.3,1.1,6.5
				c-0.1,0.1-0.1,0.2,0,0.3c0.1,0.2,0.4,0.2,0.5,0c1-0.8,3.2-1,4.3-0.7c1.5,0.4,3.1,2.3,1.4,3.5c-0.1,0.1-0.1,0.2-0.1,0.3
				c0,0-0.1,0-0.1,0c-0.3,0.1-0.2,0.5,0.1,0.5c1.4-0.3,2.1,1.5,2.1,2.5c-0.1,0.9-0.6,1.6-1.5,1.8c-0.3,0.1-0.2,0.5,0,0.5
				c0,0,0.1,0,0.1,0c0.7,0.1,1.5,0.5,1.7,1.3C177.3,23,176.9,23.7,176.3,23.9z"/>
			<path d="M152.3,16c-0.1-0.5-0.5-0.9-1-1c0-0.1-0.1-0.2-0.2-0.2c-0.7,0.1-1.2,0.7-1.2,1.4c0,0.7,0.6,1.1,1.3,1.1
				C151.9,17.2,152.5,16.6,152.3,16z M151.2,16.7c-0.8,0-0.9-0.9-0.5-1.3c0.1,0,0.1,0,0.2,0c0.4-0.1,0.9,0.2,0.9,0.6
				C151.9,16.5,151.6,16.7,151.2,16.7z"/>
		</g>
		<g>
			<path d="M86.2,83.9c-0.1,0-0.1,0.1-0.2,0.1c0,0,0,0,0,0c-5.7,0.3-11.5-0.1-17.2-0.2c-5.8-0.2-11.6-0.3-17.4-0.5
				c-0.3,0-0.3,0.5,0,0.5c5.8,0.2,11.6,0.3,17.4,0.5c5.5,0.2,11.1,0.5,16.6,0.3c-2.4,2-4.8,3.9-7.1,5.9c-8.8-2.7-17.7-4.9-26.8-6.6
				c-0.1,0-0.2,0-0.2,0.1c-0.1,0-0.3,0.1-0.3,0.3c-0.1,0.1-0.1,0.3,0.1,0.4c0.1,0,0.2,0.1,0.3,0.1c6.3,4.7,12.4,9.7,18.3,14.9
				c0.2,0.2,0.6-0.1,0.4-0.4c-5.5-4.9-11.3-9.7-17.2-14.1c7.9,2.4,15.7,5.2,23.4,8.2c-2.1,2.3-4.2,4.5-6.6,6.6
				c-0.2,0.2,0.1,0.6,0.4,0.4c1.5-1.4,3-2.9,4.5-4.4c0,0.1,0,0.2,0.1,0.2c0.6,0.4,1.2,0.7,1.8,1.1c0.2,0.1,0.4-0.1,0.4-0.3
				c0.9-1.9,1.6-3.9,1.9-6c0-0.1,0-0.1,0-0.2c2.6-2.2,5.2-4.3,7.9-6.5C86.8,84,86.4,83.7,86.2,83.9z M74.7,95.6
				c0.3-0.4,0.7-0.7,1-1.1c0.1,0.6,0.2,1.2,0.4,1.8c-0.4-0.3-0.9-0.5-1.3-0.8C74.8,95.6,74.8,95.6,74.7,95.6z M76.6,96.1
				c-0.2-0.6-0.3-1.3-0.4-1.9c0,0,0-0.1,0-0.1c0.2-0.2,0.3-0.4,0.5-0.6c0.1-0.1,0.1-0.2,0-0.3c0.1-0.1,0.1-0.4-0.1-0.4
				c-7.7-3-15.6-5.8-23.5-8.2c8.4,1.7,16.8,3.7,25,6.3c0,0,0.1,0.1,0.1,0.1C77.9,92.7,77.3,94.4,76.6,96.1z"/>
			<path d="M124.8,113.4c-1.9-3.6-5.7-5.9-9.7-6.2c-1-0.1-2,0-3,0.1c-0.2-0.7-0.4-1.4-0.7-2c-1.8-3.8-5.6-6.5-9.6-7.5
				c-3.3-0.8-7.1-0.6-10.2,0.8c0-0.1-0.1-0.1-0.1-0.2c-2.5-4.3-7.8-5.8-12.3-3.9c-0.3,0.1,0,0.6,0.3,0.4c3.6-1.5,7.8-0.8,10.4,2.1
				c0.4,0.5,0.8,1.1,1.2,1.8c-0.4,0.2-0.9,0.5-1.3,0.7c-1.6,1-3.1,2.6-3.5,4.5c-0.3,1.5,0.1,3.4,1.9,3.6c1.8,0.2,3.3-1.3,4-2.8
				c0.8-1.9,0.6-4-0.3-5.8c0.2-0.1,0.3-0.1,0.5-0.2c2.9-1.1,6.1-1.3,9.2-0.6c4.3,1,9.1,4.7,10.3,9.1c-2.6,0.5-5.2,1.8-6.6,4
				c-0.8,1.2-1.4,3.1-0.2,4.4c1.1,1.2,3.1,0.8,4.3,0c2.7-1.7,3.6-5,3-8c0.9-0.2,1.9-0.2,2.9-0.1c3.6,0.3,7.1,2.3,8.9,5.4
				c2.1,3.5,1.8,8-1.1,10.9c-0.2,0.2,0.1,0.6,0.4,0.4C126.2,121.5,126.7,117,124.8,113.4z M89.2,107.2c-3.1,0.9-2.7-3.1-1.7-4.6
				c0.9-1.4,2.3-2.4,3.8-3.1C92.6,102.3,92.6,106.1,89.2,107.2z M110.9,113.3c-0.9,1.5-2.9,3.4-4.8,2.6c-2.6-0.9-0.8-4.1,0.4-5.4
				c1.5-1.4,3.4-2.3,5.4-2.7C112.2,109.7,112,111.5,110.9,113.3z"/>
		</g>
		<g>
			<path d="M214.8,73.3c-5.7-4.4-15.3,0.5-14.4,7.9c0.2,1.7,1.1,3.2,2.5,4.2c0.7,0.5,1.4,0.8,2.2,0.9c0.9,0.1,1.5,0.3,1.9,1.2
				c0.3,0.7,0.3,1.7,0.4,2.4c0,0.1,0.1,0.1,0.1,0.2c0,0,0,0,0,0.1c0,0,0,0,0,0c-0.6,0.4-0.7,1.2-0.2,1.7c0.1,0.1,0.1,0.1,0.2,0.2
				c-0.4,0.9,0.1,1.4,0.8,1.7c0,0,0,0,0,0c1.5,2.1,4.6,1.5,5.2-1c0-0.1,0-0.1,0-0.1c0.5-0.6,0.7-1.3,0.1-2.1c0,0-0.1-0.1-0.1-0.1
				c0-0.5-0.2-1-0.7-1.3c-0.2-0.7-0.3-1.4-0.4-2.1c-0.1-0.7-0.1-0.9,0.5-1.2c0.7-0.3,1.4-0.5,2-1c1.2-0.9,2-2.1,2.5-3.5
				C218.5,78.4,217.2,75.2,214.8,73.3z M209.1,94c0.6,0.1,1.1,0.1,1.5,0c0.6-0.1,1.5-0.4,2.1-0.8C212.1,94.7,210.3,95,209.1,94z
				 M213.2,91.3c0-0.1,0.1-0.1,0.1-0.2c0.7,1.3-1.3,2.2-2.4,2.4c-0.8,0.1-3.6,0.2-3-1.2c0.8,0.3,1.9,0.3,2.6,0.3
				C211.5,92.6,212.6,92.3,213.2,91.3z M212.6,89.8C212.6,89.8,212.6,89.8,212.6,89.8c1.1,0.7-0.3,1.9-1.1,2.1
				c-0.4,0.1-0.9,0.2-1.4,0.2c-0.4,0-0.8,0-1.1-0.1c-0.4,0-2.6-0.7-1.3-1.4c0.1,0,0.1-0.1,0.1-0.2c0.6,0.3,1.2,0.5,1.8,0.5
				c0,0,0.1,0,0.1,0C210.8,90.9,211.8,90.6,212.6,89.8z M206.5,82.1c0.2-0.3,0.4-0.5,0.6-0.8c0.8-0.8,1.8-0.8,2.8-0.9
				c-0.3,3.3,0.2,6.8,0.8,9.7c0,0,0,0.1,0,0.1c-0.3,0.1-0.5,0.1-0.8,0.1C209.1,87.5,207.9,84.7,206.5,82.1z M212,85.7
				c-0.1,0-0.2,0.1-0.2,0.2c0,1.2,0.2,2.3,0.4,3.4c0,0,0,0.1,0,0.1c0,0,0,0,0,0c-0.3,0.3-0.7,0.6-1.1,0.7c0,0,0-0.1,0-0.1
				c-0.6-2.9-1.1-6.4-0.8-9.7c0,0,0.1,0,0.1,0c1-0.1,1.8-0.6,2.1-1.6c0.1-0.3-0.4-0.4-0.5-0.1c-0.3,0.9-1,1.1-1.7,1.2
				c0.2-1.5,0.6-2.9,1.2-4.2c0.1-0.3-0.3-0.5-0.4-0.3c-0.7,1.4-1.1,2.9-1.3,4.5c-0.4,0-0.8,0-1.1,0.1c-0.7,0.1-1.2,0.3-1.8,0.7
				c-0.3,0.3-0.6,0.6-0.8,0.9c-0.2-0.3-0.3-0.5-0.5-0.8c-0.2-0.3-0.6,0-0.4,0.3c0.2,0.3,0.4,0.7,0.6,1c-0.3,0.6-0.4,1.2-0.3,1.8
				c0,0.3,0.5,0.3,0.5,0c0-0.4,0-0.9,0.2-1.3c1.3,2.4,2.4,5,3.1,7.7c-0.5-0.1-1.1-0.3-1.6-0.6c0,0-0.1,0-0.1,0c0,0,0,0,0,0
				c-1.1-1.2,0.1-3.5-1.4-3.9c-0.9-0.2-1.7-0.1-2.5-0.5c-1-0.5-1.7-1.3-2.2-2.2c-2.3-4.2,1.2-9.2,5.2-10.6c3.8-1.3,8.1,0.1,9.9,3.8
				C218.5,80.1,216.2,84.9,212,85.7z"/>
			<path d="M200.1,87c-0.7,0.7-1.5,1.4-2.2,2.1c-0.2,0.2,0.1,0.6,0.4,0.4c0.7-0.7,1.5-1.4,2.2-2.1C200.7,87.2,200.3,86.8,200.1,87z"
				/>
			<path d="M197,78.3c-0.7-0.2-1.5-0.4-2.2-0.6c-0.3-0.1-0.4,0.4-0.1,0.5c0.7,0.2,1.5,0.4,2.2,0.6C197.1,78.8,197.3,78.3,197,78.3z"
				/>
			<path d="M205.5,69.3c-0.7-0.8-1.3-1.7-1.7-2.7c-0.1-0.3-0.6-0.2-0.5,0.1c0.4,1.1,1.1,2,1.8,2.9C205.4,69.9,205.7,69.5,205.5,69.3
				z"/>
			<path d="M217.1,68.2c-0.5,0.9-1.1,1.7-1.7,2.4c-0.2,0.2,0.1,0.6,0.4,0.4c0.7-0.8,1.3-1.6,1.8-2.5
				C217.7,68.2,217.3,67.9,217.1,68.2z"/>
			<path d="M223.7,78.7c-0.5,0.5-1.2,0.7-1.9,0.7c-0.3,0-0.3,0.5,0,0.5c0.8,0,1.6-0.3,2.2-0.9C224.3,78.9,224,78.5,223.7,78.7z"/>
			<path d="M220.1,87.4c-0.5-0.5-1.1-0.9-1.8-1.2c-0.3-0.1-0.4,0.4-0.1,0.5c0.6,0.2,1.1,0.6,1.5,1C220,88,220.3,87.6,220.1,87.4z"/>
		</g>
		<path d="M167.1,161.7c-0.4-2-0.9-4-1.9-5.8c-1.3-2.3-3.8-3.6-6.1-3c0.1,0,0.2-0.1,0.1-0.3c-0.9-2.3-3.4-6.6-6.5-4.9
			c-2,1.1-3.6,3.2-6.1,3.1c-2.7-0.1-3.8-2.9-3.8-5.2c0-0.3-0.5-0.3-0.5,0c0,3,1.7,6.2,5.2,5.6c2-0.3,3.4-1.8,5.1-2.9
			c2.9-1.9,5.3,2,6.2,4.3c0.1,0.1,0.2,0.2,0.3,0.2c-0.8,0.2-1.6,0.7-2.3,1.4c-0.1,0.1-0.1,0.2-0.1,0.3c-2,1.9-1.5,5.7-1,8.1l0,0
			c0,0.1,0,0.2,0.1,0.3c0.7,3.3,2.2,8.1,5.7,9.4c3.2,1.2,5.7-1.7,6.1-4.6C167.7,165.7,167.4,163.6,167.1,161.7z M162.6,153.8
			c1.8,1,2.6,3,3.2,4.9c0,0.1,0,0.1,0.1,0.2c-0.1-0.1-0.1-0.1-0.2-0.1l-4.1,1.6c0,0,0,0,0,0c-0.3-0.7-0.5-1.3-0.8-2
			c0.1,0,0.1-0.1,0.1-0.2c0-0.1,0-0.2,0-0.3c0.1-0.3,0.1-0.8,0-1.1c-0.2-0.6-0.5-1.2-1.1-1.6c0-0.2-0.2-0.3-0.4-0.2
			c-0.2-0.5-0.4-0.9-0.5-1.4C160,153.1,161.4,153.1,162.6,153.8z M157.8,154.3c0.2-0.1,0.2-0.2,0.1-0.3c0.1-0.1,0.3-0.2,0.4-0.2
			c0.2,0.6,0.5,1.2,0.7,1.8c-0.1,0.5-0.1,0.9,0.1,1.4c0.1,0.4,0.5,1,0.9,1.2c0.3,0.8,0.6,1.6,0.9,2.3c0,0,0,0,0,0.1l-5,1.9
			C155.4,159.4,155.2,155.6,157.8,154.3z M165.5,170.9c-4,4.2-7.7-2.5-8.8-5.7c-0.2-0.6-0.4-1.4-0.6-2.2c3.2-1.2,6.4-2.4,9.6-3.6
			c0.1,0,0.2-0.1,0.2-0.2C167,162.6,168.3,168,165.5,170.9z"/>
		<path d="M100.6,36.9c0-0.1-0.1-0.1-0.2-0.1l-14-0.3c-0.1-0.2-0.4-0.2-0.5,0L80,36.4c0,0,0,0-0.1,0c-0.1-0.6-0.3-1.2-0.4-1.8
			c0-0.1-0.1-0.1-0.1-0.2c0-0.1-0.1-0.1-0.2-0.1c-1.3-0.1-2.6-0.2-4-0.2c0,0,0,0,0,0c0-0.2-0.2-0.4-0.3-0.6
			c-0.5-0.4-1.2-0.3-1.7,0.1c-0.5,0.4-0.5,1.1,0,1.5c0.6,0.5,1.4,0.2,2-0.1c0.2-0.1,0.1-0.3,0.1-0.4c0,0,0,0,0,0
			c1.3,0,2.6,0,3.8,0.2c0.6,2.6,1.3,5.3,1.9,7.9c0.3,1.1,0.3,2.6,0.9,3.5c0.2,0.4,0.3,0.5,0.7,0.6c0.3,0.1,0.6,0.1,0.9,0.1
			c-0.5,0.5-0.8,1.2-0.6,1.9c0.3,1.1,1.3,1.3,2.3,1.3c1,0,1.6-0.7,1.4-1.7c-0.2-0.7-0.6-1.2-1.2-1.5c0.3,0,0.6,0,0.8,0
			c1.3,0,2.5,0.1,3.8,0.1c2,0,4,0.1,5.9,0.1c-0.5,0.5-0.8,1.2-0.6,2c0.2,0.9,1,1.4,1.9,1.2c0.8-0.2,1.3-1.1,1.1-1.9
			c-0.1-0.5-0.4-0.9-0.9-1.1c0.2,0,0.4,0,0.6,0c0.3,0,0.3-0.5,0-0.5c-4.5-0.1-9-0.2-13.5-0.3c-0.1,0-0.1,0-0.2,0c0,0,0,0-0.1,0
			c-0.4,0-1.1,0.1-1.4,0c-0.8-0.3-0.8-0.9-1-1.6c-0.1-0.2-0.1-0.4-0.2-0.6l1.9-0.1c0.1,0.1,0.3,0.1,0.4,0l5.6-0.2
			c2.7-0.1,5.6-0.5,8.3,0c0.1,0,0.1,0,0.2,0c0.1,0,0.1,0,0.2-0.1c1-2.1,1.8-4.2,2.4-6.5C100.8,37.1,100.7,37,100.6,36.9z M74.6,34.6
			c0,0,0,0.1-0.1,0.1c-0.2,0.1-0.5,0.2-0.8,0.2c-0.4-0.1-0.7-0.4-0.4-0.8c0.2-0.2,0.6-0.4,0.9-0.2C74.6,33.9,74.8,34.3,74.6,34.6z
			 M96.3,47.4c0.6,0,1.3,0.3,1.5,0.9c0.2,0.6-0.1,1.3-0.8,1.5c-0.7,0.2-1.3-0.3-1.3-1C95.7,48.2,95.9,47.7,96.3,47.4z M84.1,47
			c0,0.1,0.1,0.2,0.2,0.2c0.7,0,1.3,0.4,1.6,1.1c0.2,0.4,0.3,1-0.2,1.3c-0.3,0.2-0.7,0.1-1,0.1c-0.8,0-1.5-0.3-1.5-1.2
			C83.2,47.8,83.6,47.3,84.1,47z M89.3,37.1c0,0-0.3,0-0.3,0.1v1.7c-1.1,0-1.8,0-2.8,0c0-0.6-0.1-1.2-0.1-1.8
			C87.2,37,88.3,37,89.3,37.1z M86.2,41.2c-0.9,0-1.9,0-2.8,0c-0.2-0.7-0.3-1.3-0.4-2c1,0,2,0,3.1,0C86.1,39.9,86.2,40.6,86.2,41.2z
			 M85.9,37c0,0.6,0.1,1.2,0.1,1.8c-1,0-2.1,0-3.1,0c-0.1-0.6-0.2-1.2-0.3-1.9C83.7,36.9,84.8,37,85.9,37z M80,36.9
			c0.7,0,1.4,0,2.1,0c0.1,0.6,0.2,1.3,0.3,1.9c-0.6,0-1.3,0-1.9,0C80.3,38.1,80.2,37.5,80,36.9z M80.6,39.3c0.6,0,1.3,0,1.9,0
			c0.1,0.7,0.3,1.3,0.4,2c-0.6,0-1.2,0-1.8,0C80.9,40.6,80.7,40,80.6,39.3z M81.7,43.6l-0.5-1.8c0.6,0,1.2,0,1.8,0
			c0.2,0.6,0.3,1.2,0.5,1.8C82.9,43.6,82.3,43.6,81.7,43.6z M84,43.5c-0.2-0.6-0.4-1.2-0.5-1.8c0.9,0,1.9,0,2.8,0
			c0.1,0.6,0.2,1.2,0.3,1.7C85.7,43.5,84.9,43.5,84,43.5z M86.3,39.3c1,0,1.6,0,2.8,0v1.9c-1.1,0-1.7,0-2.7,0
			C86.3,40.6,86.3,39.9,86.3,39.3z M87,43.4c-0.1-0.6-0.4-1.2-0.5-1.7c0.9,0,1.4,0,2.5,0v1.6c0,0,0.3,0.1,0.3,0.1
			C88.5,43.4,87.9,43.4,87,43.4z M93.9,37.2c0.9,0,1.9,0,2.8,0.1c0,0.5-0.1,1.1-0.1,1.6c-1,0-1.9,0-2.9,0
			C93.8,38.3,93.8,37.7,93.9,37.2C93.9,37.2,93.9,37.2,93.9,37.2z M90.3,43.3c-0.1,0-0.6,0-0.7,0c0,0-0.5,0-0.5-0.1v-1.6
			c1.1,0,2.5,0,3.6-0.1c0,0.5,0.3,1.1,0.3,1.6C91.9,43.3,91.2,43.3,90.3,43.3z M92.6,41.1c-1,0-2.5,0-3.6,0.1v-1.9
			c1.1,0,2.3,0,3.4,0C92.4,39.9,92.6,40.5,92.6,41.1z M92.7,38.8c-1.1,0-2.6,0-3.7,0v-1.7c0,0,0.5,0,0.5,0c1.1,0,2.2,0,3.3,0.1
			C92.8,37.7,92.8,38.3,92.7,38.8z M96.1,43.2c-0.8,0-1.6,0-2.4,0c0-0.5,0-1.1,0-1.6c0.9,0,1.8,0,2.7,0
			C96.2,42.1,96.2,42.6,96.1,43.2C96.1,43.1,96.1,43.1,96.1,43.2z M93.6,41.1c0-0.6,0-1.2,0.1-1.8c1,0,1.9,0,2.9,0
			c-0.1,0.6-0.1,1.2-0.2,1.7L93.6,41.1z M98,43.3c-0.5-0.1-1-0.1-1.5-0.2c0.1-0.5,0.2-1.1,0.3-1.7c0.6,0,1.2,0,1.8,0
			c0.3,0,0.3-0.5,0-0.5c-0.6,0-1.1,0-1.7,0c0.1-0.6-0.1-1.2,0-1.7l2.1,0c0,0,0-0.5,0-0.5c-1.1,0-1.3,0-2.1,0c0-0.5,0.2-1,0.2-1.6
			c1,0,2,0,3,0.1C99.6,39.4,98.9,41.4,98,43.3z"/>
		<g>
			<path d="M146.9,168.3c-0.3-0.1-0.4,0.4-0.1,0.5c1.2,0.3-1.1,1.4-1.2,1.4c-0.5,0.1-1.1,0.2-1.6,0.2c-0.9,0.1-1.8,0.1-2.7,0.2
				c-1.1,0-2.1,0-3.2-0.2c-0.5-0.1-1-0.2-1.4-0.3c-0.2-0.1-1.9-0.8-1.3-1c0.3-0.1,0.2-0.6-0.1-0.5c-1,0.4-0.4,1.3,0.3,1.6
				c1.8,0.9,4,0.9,6,0.8c1.6-0.1,4,0.1,5.4-0.9C147.7,169.6,148,168.6,146.9,168.3z"/>
			<path d="M148.9,168.6c0-0.1,0-0.2-0.1-0.3c0,0,0,0,0,0c0-0.1,0-0.2-0.1-0.2c-2.2-1.9-6.4-1.5-9.1-1.4c-2,0.1-5.6-0.1-6.1,2.5
				c-0.4,1.5-0.2,2.9,0.4,4c-1.7,1-3.5,3.2-1.8,5.1c1.9,1.9,5.8,1.8,8.2,1.8c1.7,0,3.4-0.2,5.1-0.6c1.4-0.3,3.2-0.6,4.4-1.4
				c0.7-0.4,1.2-1.1,1-2c-0.2-0.8-0.7-1.3-1.4-1.7c1.7,0.3,3.5-1,3.7-2.9C153.5,169.1,150.9,167.4,148.9,168.6z M134,169.4
				C134,169.4,134,169.3,134,169.4c0-0.1,0-0.1,0-0.1c0-0.1,0-0.2,0.1-0.2c0,0,0,0,0-0.1c0.7-2.2,5.4-1.9,7.1-1.9
				c2.2,0,5.3-0.2,7.1,1.3c0,0,0,0,0,0.1c0.4,1.5,0.5,3.2-0.1,4.7c-0.2,0-0.4,0.2-0.2,0.4c-0.1,0.2-0.2,0.4-0.3,0.6
				c-1.3,1.9-4,2.5-6.2,2.6C137.5,176.7,132.9,173.8,134,169.4z M149.9,175.2c1.2,1.4,0.3,2.1-0.6,2.6c-0.9,0.5-2,0.7-3,0.9
				c-2.1,0.5-4.3,0.8-6.5,0.8c-1.9,0-4-0.1-5.9-0.7c-1.1-0.4-2-1-2-2.3c0-1.4,1.1-2.3,2.2-2.9c1.5,2.3,4.5,3.6,7.3,3.5
				c2.3-0.1,4.9-0.6,6.4-2.5c0.1-0.1,0.2-0.3,0.3-0.5c0,0,0.1,0.1,0.1,0.1C148.8,174.5,149.6,174.8,149.9,175.2z M148.6,173.4
				c0.4-1,0.5-2.2,0.4-3.4c0.8-0.1,2-0.1,2.4,0.8c0.3,0.6,0,1.2-0.4,1.6c-0.5,0.4-1.2,0.4-1.8,0.3c-0.3-0.1-0.4,0.4-0.1,0.5
				c1.4,0.4,3.1-0.4,3-2c-0.2-1.5-1.9-1.7-3-1.6c0,0,0,0,0,0c0-0.1,0-0.3-0.1-0.4c1.6-1.1,3.9,0.1,3.8,2.1
				C152.7,173.2,150.3,174.7,148.6,173.4z"/>
			<path d="M137.1,164.9c-1.6,0.2-0.9-2.3-1.2-3.2c-0.2-0.6-0.6-1-1.3-1c-0.3,0-0.3,0.5,0,0.5c1.9,0.2-0.2,4.6,2.5,4.3
				C137.4,165.3,137.5,164.8,137.1,164.9z"/>
			<path d="M141.5,161.3c-0.1-0.9-0.7-1.6-1.3-2.2c-0.2-0.2-0.6,0.1-0.4,0.4c0.7,0.7,1.5,1.7,0.9,2.7c-0.2,0.5-0.7,0.8-0.9,1.3
				c-0.2,0.6-0.1,1.2,0.5,1.4c0.3,0.1,0.5-0.3,0.3-0.4c-1-0.5,0.3-1.6,0.5-2C141.5,162.1,141.6,161.8,141.5,161.3z"/>
			<path d="M146.7,159.4c-0.1-0.3-0.6-0.2-0.5,0.1c0.1,0.5,0.4,0.7,0.7,1.1c0.6,0.5,0.7,1.4-0.2,2c-0.3,0.2-0.7,0.3-1,0.6
				c-0.7,0.5-1,1.3-0.4,2.1c0.2,0.2,0.6-0.1,0.4-0.4c-0.9-1.1,1.3-1.7,1.8-2.1c0.3-0.3,0.6-0.6,0.6-1
				C148.3,160.6,147,160.3,146.7,159.4z"/>
		</g>
		<path d="M191.8,57.3c-3.8-2.2-7.6-4.4-11.4-6.6c-0.2-0.1-0.4,0-0.4,0.2c0,1,0.2,2.2,0.1,3.2c-0.1,0.8-0.1,0.7-0.8,1
			c-0.6,0.2-1.3,0.2-1.9,0.3c-2.3,0.3-4.5,0.6-6.8,0.9c-0.1,0-0.3,0.1-0.2,0.2c0.1,2.4,0.4,4.7,0.9,7c0,0,0,0,0,0
			c-0.1,0.2,0,0.3,0.2,0.3c2.2-0.2,4.5-0.5,6.7-0.9c0.6-0.1,1.2-0.2,1.8-0.4c0.4-0.1,1.3-0.5,1.6-0.3c0.8,0.3,0.5,3.1,0.4,3.8
			c0,0.2,0.3,0.3,0.4,0.2c3-3,6.2-5.9,9.4-8.7C192,57.5,191.9,57.3,191.8,57.3z M182,61.7c-3.4,0.8-6.8,1.3-10.3,1.7
			c-0.3-1.4-0.6-2.9-0.7-4.3c0-0.5-0.2-1-0.1-1.5c0.1-1,0.4-0.9,1.3-1c2.7-0.4,5.4-0.7,8.2-1.1c0.1,0,0.3-0.1,0.2-0.2
			c0-1.3,0-2.6-0.1-3.9c3.6,2.1,7.1,4.1,10.7,6.2c-3,2.5-5.9,5.2-8.7,8c0.1-1.2,0-2.4-0.3-3.6C182.3,61.8,182.1,61.7,182,61.7z"/>
		<path d="M158.6,134c-0.1-0.1-0.2,0-0.2,0c-0.4-0.3-0.9-0.4-1.4-0.4c0.1-1.1,0.5-2.1,1.1-3c0.5-0.2,1-0.5,0.7-1
			c-0.4-1-3.1-0.7-3.9-0.6c-0.8,0.1-2.7,0-2.8,1.1c0,0,0,0.1,0,0.1c-0.1,0.1,0,0.3,0.1,0.4c0.2,0.1,0.5,0.2,0.7,0.2
			c0.6,1,1,2,1.1,3.1c0-0.1-0.1-0.1-0.2-0.1c-1.3-0.3-2.3,1-1.7,2.1c0.1,0.2,0.2,0.1,0.3,0.1c0.5,0.3,1,0.5,1.6,0.5c0,0,0,0.1,0,0.1
			c0.4,1.8,0.8,3.7,1.2,5.5c0.1,0.2,0.4,0.2,0.5,0c0.3-1.9,0.5-3.8,0.8-5.7c0.3,0,0.6-0.1,0.9-0.1C158.6,136,159.9,134.7,158.6,134z
			 M152.6,130.1C152.6,130.1,152.7,130,152.6,130.1c0.1-0.6,2.4-0.6,2.7-0.6c0.4,0,2.7-0.2,2.4,0.7c0,0,0,0,0,0c0,0,0,0.1-0.1,0.1
			c-0.4,0.3-2.2,0.3-2.4,0.3C154.4,130.6,153.5,130.4,152.6,130.1z M153.7,130.9c1.1,0.2,2.2,0.2,3.4,0c0.1,0,0.2,0,0.3-0.1
			c-0.5,0.9-0.8,2-0.9,3c0,0,0,0,0,0c-0.4,0.6-1.2,0.8-1.8,0.4C154.6,133,154.3,131.9,153.7,130.9z M155.6,140.6
			c-0.3-1.4-0.6-2.7-0.9-4.1c0.5,0,1,0,1.5-0.1C156,137.8,155.8,139.2,155.6,140.6z M157.6,135.7c-0.2,0-0.4,0-0.6,0.1
			c-0.4,0-0.9,0.1-1.3,0.1c-1.1,0.1-2.2,0.2-3-0.5c0,0-0.1,0-0.1-0.1c-0.1-0.7,0.5-1.3,1.2-1.1c0.2,0,0.3-0.1,0.3-0.2
			c0,0.1,0,0.2,0,0.3c0,0,0,0,0,0c0,0.1,0,0.2,0.1,0.2c0.7,0.6,1.7,0.5,2.3,0c0.1,0.1,0.4,0,0.4-0.2c0-0.1,0-0.1,0-0.2
			c0.6-0.1,1.1,0.1,1.4,0.6c0,0,0,0,0,0C158.5,135.3,158.2,135.6,157.6,135.7z"/>
		<path d="M92.2,5.9c-0.6-0.4-1.5,0.6-1.9,0.9c-0.2,0.1-0.4,0.3-0.6,0.4c-0.1,0-0.1,0.1-0.1,0.1c-1,0.7-1.9,1.5-2.9,2.4
			c-0.1,0.1-0.1,0.1-0.1,0.2c0,0,0,0,0,0c-1.9,3.4-3.7,6.9-5.2,10.4c-0.9,2.3-3,6.1-0.1,7.8c1,0.6,2.2,0.6,3.1,0
			c1.3-0.8,1.8-2.5,2.4-3.8c1.7-3.9,3.4-7.7,5.1-11.6c0,0,0.1-0.1,0.1-0.1c0.4-1.3,0.7-2.7,0.7-4.1C92.6,8,92.7,6.2,92.2,5.9z
			 M90.6,7c-0.1,0.1-0.1,0.2-0.2,0.3c-0.1,0-0.3,0.2-0.2,0.3c0-0.1-0.1-0.1-0.1-0.2C90.2,7.3,90.4,7.2,90.6,7z M81,22.6
			c0.6-1.5,1.2-2.9,1.8-4.4c1.2-2.6,2.5-5.2,4-7.8c0.2,0.4,0.7,0.6,1.2,0.6c-2,4.6-4,9.3-6.1,13.9c0,0,0,0,0,0
			c-0.5-0.2-1-0.4-1.5-0.6C80.6,23.8,80.8,23.2,81,22.6z M85.5,21.1c0.6-1.2,1.2-2.4,1.8-3.7c0,0,0,0,0,0c-0.9,1.8-1.7,3.6-2.6,5.3
			c0,0-0.1,0-0.1,0C84.9,22.2,85.2,21.7,85.5,21.1z M84.8,19.7c0.1-0.3,0.3-0.6,0.4-0.9c0,0,0,0.1,0.1,0.1
			C85.1,19.2,84.9,19.5,84.8,19.7z M82.9,25.3c0,0.1,0,0.1,0,0.2c-0.2-0.1-0.3-0.1-0.5-0.2c0.1-0.2,0.1-0.3,0.2-0.5
			c0,0.1,0,0.2-0.1,0.3C82.5,25.3,82.7,25.4,82.9,25.3z M81.5,27.8c-1.1-0.7-1.3-1.7-1.2-2.8c1.6,0.6,3.1,1.2,4.7,1.8
			C84.1,28,83,28.6,81.5,27.8z M87.8,20.9c-0.5,1.2-1.3,3.7-2.4,5.4c-0.5-0.2-1-0.4-1.5-0.6c2.2-4.6,4.5-9.3,6.7-13.9c0,0,0,0,0.1,0
			c0.1,0.4,0.3,0.8,0.7,0.9C90.2,15.5,89,18.2,87.8,20.9z M88.7,11.9c0-0.1,0-0.1,0-0.2c0.1,0.1,0.1,0.1,0.2,0.2c0,0-0.1,0-0.1,0.1
			C88.9,12,88.8,12,88.7,11.9C88.8,12,88.8,11.9,88.7,11.9z M92.1,9.5c-0.1,1-0.3,1.9-0.6,2.9c0,0,0,0-0.1,0
			c-0.3-0.1-0.5-0.5-0.3-0.8c0-0.1,0-0.2,0-0.2c0-0.2-0.3-0.4-0.5-0.1c-0.1,0.1-0.1,0.2-0.2,0.3c-0.1,0-0.2,0-0.2,0.1c0,0,0,0,0,0
			c-0.6,0.3-1.5-0.2-1.3-1c0.1-0.3-0.4-0.4-0.5-0.2c0,0-0.1,0-0.1,0.1c0,0,0,0,0,0c-0.5,0.3-1.1,0.1-1.1-0.5
			c0.7-0.6,1.4-1.2,2.1-1.8c0.1-0.1,0.2-0.2,0.4-0.4c0.5,0.9,1.5,1.4,2.5,1.2C92.1,9.2,92.1,9.4,92.1,9.5z M92,8.5
			c0-0.1,0-0.1,0.1-0.2c0,0,0.1,0,0.1,0c0,0,0,0.1,0,0.1C92.1,8.5,92,8.5,92,8.5z"/>
		<g>
			<path d="M63.5,135.6c0.1-1.7,0.1-3.5,0.2-5.2c0-0.1-0.1-0.2-0.2-0.2c0.2-1.3-0.1-2.8-1.4-3.5c-0.4-0.2-0.8-0.3-1.9-0.3
				c0,0,0,0,0,0c0-4.4,0-11.2-5.8-11.4c-2-0.1-3.8,1.1-4.8,2.8c-1.4,2.4-0.8,5.9-0.6,8.5c0,0.1,0.1,0.1,0.1,0.2
				c-0.4,0-0.7,0.1-1.1,0.1c-1.4,0.2-2.3,1.3-2,2.7c0,0.1,0,0.1,0.1,0.1c-0.1,1.6-0.2,3.3-0.2,4.9c0,1.1-0.2,2.9,0.4,4
				c0.5,0.8,1.4,0.8,2.2,0.9c1.8,0.1,3.6,0.1,5.5,0.1c1.7,0,3.5,0,5.2-0.1c0.9,0,1.8,0,2.7-0.1c0.3,0,0.7,0,1-0.3
				C63.8,138.2,63.5,136.5,63.5,135.6z M49.8,119.1c0.7-2.1,2.7-3.6,4.9-3.6c5.4,0.2,5.5,6.8,5.5,10.9v0c-1.1,0-0.6,0-0.9,0
				c-0.1,0-0.1,0-0.3,0c0,0,0,0,0,0c-0.3-2.9-0.2-8.4-4.1-8.8c-4-0.4-3.8,6.3-3.5,8.7c0,0,0,0.1,0,0.1c-0.6,0-1.2,0-1.8,0.1
				c0,0,0-0.1,0-0.1C49.5,124,49.1,121.3,49.8,119.1z M55.3,118.1c3.3,0.8,3.1,5.7,3.4,8.3c0,0,0,0,0,0c-1.1,0-2.2,0-3.3,0
				c-1.1,0-2.3,0-3.4,0c0,0,0-0.1,0-0.1C51.8,124.1,51.5,117.2,55.3,118.1z M62.1,138.7c-0.4,0.1-1.2,0-1.6,0.1
				c-0.7,0-1.5,0-2.2,0.1c-1.3,0-2.5,0-3.8,0c-1.3,0-2.5,0-3.8-0.1c-1.5,0-3.7,0.4-3.9-1.7c-0.3-2.7-0.1-5.5,0.1-8.2
				c0-0.1-0.1-0.2-0.2-0.2c0.1-2,3.2-1.7,4.6-1.7c1.4,0,2.7-0.1,4.1-0.1c1.4,0,2.7,0,4.1,0c0.7,0,1.8-0.1,2.5,0.1
				c1.6,0.5,1.3,2.2,1,3.3c0,0.2,0.1,0.3,0.2,0.3c0,1.2-0.1,2.4-0.1,3.6C63.1,135.4,63.5,138.2,62.1,138.7z"/>
			<path d="M58.1,130.8c-0.4-1-1.6-1.6-2.6-1.6c-1,0-2,0.5-2.4,1.5c-0.4,0.9-0.1,2,0.8,2.5c0,0,0,0.1,0,0.1c0.1,0.9,0,1.8-0.2,2.7
				c-0.1,0.4-0.4,0.9-0.1,1.3c0.3,0.3,0.9,0.2,1.3,0.2c0.9,0,1.9-0.1,2.8-0.1c0.1,0,0.3-0.1,0.2-0.2c0-1.4-0.3-2.7-0.7-3.9
				C58.1,132.7,58.5,131.7,58.1,130.8z M54,136.5c0-0.2,0.2-0.6,0.2-0.9c0-0.2,0.1-0.4,0.1-0.6c0.1-0.6,0.1-1.2,0-1.8
				c0-0.1-0.1-0.2-0.1-0.2c0-0.1,0-0.2-0.1-0.3c-1.5-1-0.4-2.9,1.1-3c0.7-0.1,1.4,0.1,1.9,0.6c0.8,0.7,0.9,2-0.2,2.4
				c-0.1,0-0.2,0.2-0.2,0.3c0,0.1-0.1,0.1,0,0.2c0.4,1.2,0.6,2.4,0.7,3.6c-0.5,0-1.1,0.1-1.6,0.1C55.3,136.9,54.1,137.3,54,136.5z"
				/>
		</g>
		<g>
			<path d="M107.4,26.2c0-1.4-0.1-2.9-0.2-4.3c0-0.7-0.1-1.4-0.4-2c-0.9-1.4-3-1.2-4.4-1.2c-2.7,0-5.3,0.1-8,0.3
				c-1.3,0.1-3.1-0.2-3.3,1.4c-0.1,1.2,0,2.4,0.1,3.6c0,1.3-0.1,2.7,0.2,4c0.2,1.3,1.2,1.5,2.3,1.5c0,0,0,0.1,0,0.1
				c0.9,1.8,2.5,3,4.4,3.5c0.2,0,0.3-0.1,0.3-0.2c0-0.9,0-1.9,0-2.8c0,0,0.1,0,0.1,0l4.1-0.3c1-0.1,2,0,3-0.3
				C107.2,29,107.4,27.6,107.4,26.2z M106.6,28.1c-0.7,1-2.1,0.9-3.1,1c-1.6,0.1-3.2,0.3-4.9,0.4c0,0-0.1,0-0.1,0c0-0.1,0-0.1,0-0.2
				c0-0.3-0.5-0.3-0.5,0c0,1-0.1,2.1-0.1,3.1c-1.7-0.5-3-1.6-3.8-3.2c0.1-0.1,0.1-0.4-0.2-0.4c-0.3,0-0.7,0.1-1,0
				c-0.6-0.2-1-1-1.1-1.6c-0.2-0.7-0.1-1.6-0.1-2.3c0-0.9-0.1-1.7-0.1-2.6c0-0.7-0.2-1.8,0.2-2.4c0.5-0.6,1.8-0.5,2.6-0.6
				c0.8-0.1,1.6-0.1,2.4-0.2c1.7-0.1,3.4-0.1,5-0.1c1.6,0,4.3-0.3,4.8,1.7c0.4,1.5,0.2,3.3,0.2,4.9C106.9,26.3,107,27.5,106.6,28.1z
				"/>
			<path d="M103.9,25.9c-3.3,0.1-6.5,0.3-9.8,0.4c-0.3,0-0.3,0.5,0,0.5c3.3-0.1,6.5-0.3,9.8-0.4C104.3,26.4,104.3,25.9,103.9,25.9z"
				/>
			<path d="M103.4,23.4c-3.1,0.4-6.1,0.5-9.2,0.4c-0.3,0-0.3,0.5,0,0.5c3.1,0.1,6.1,0,9.2-0.4C103.7,23.8,103.7,23.3,103.4,23.4z"/>
			<path d="M103.9,20.4c-3.4,0.4-6.7,0.6-10.1,0.8c-0.3,0-0.3,0.5,0,0.5c3.4-0.2,6.7-0.5,10.1-0.8C104.2,20.8,104.2,20.3,103.9,20.4
				z"/>
		</g>
		<g>
			<path d="M108.8,126.4c-0.1-1.1,0.1-2.9-1.2-3.4c-0.8-0.3-1.9-0.1-2.7-0.1c-1.1,0-2.3,0-3.4,0c-2.3,0.1-4.6,0.2-6.9,0.3
				c-1.2,0.1-3.2-0.1-3.9,1.2c-0.3,0.5-0.2,1.1-0.2,1.6c0,1.2,0,2.5,0,3.7c0,1.2,0,2.5,0,3.7c0,0.6,0,1.3,0.4,1.7
				c0.4,0.5,1,0.5,1.6,0.4c1.1-0.1,2.2-0.3,3.4-0.5c0,0,0,0,0,0c0.9,1.8,2.5,3,4.4,3.5c0.1,0,0.3-0.1,0.3-0.2
				c-0.1-1-0.1-1.9-0.2-2.9c2,0,4.1-0.2,6.1-0.7c1.2-0.3,2.4-0.4,2.6-1.8C109.3,131.1,109,128.6,108.8,126.4z M108.5,132.4
				c-0.1,0.6-0.3,1.5-0.9,1.9c-0.3,0.2-1,0.3-1.3,0.3c-2,0.4-3.9,0.6-6,0.6c0,0,0-0.1,0-0.1c0-0.3-0.5-0.3-0.5,0
				c0.1,1,0.1,2.1,0.2,3.1c-1.6-0.5-2.9-1.4-3.7-3l0,0c0.3,0,0.2-0.6-0.1-0.5c-1,0.1-2,0.3-3,0.4c-0.4,0.1-0.8,0.1-1.2,0.1
				c-0.3-0.4-0.7-0.7-1-1.1c-0.1-0.3,0-1.1,0-1.4c0-1.8,0-3.5,0-5.3c0-1.2-0.3-2.7,1-3.4c0.9-0.4,2.2-0.3,3.1-0.4
				c1.8-0.1,3.7-0.2,5.6-0.3c1.8-0.1,3.8-0.2,5.6-0.1c1.9,0.2,2,1.6,2.1,3c0.1,1,0.1,2,0.2,3C108.5,130.4,108.6,131.4,108.5,132.4z"
				/>
			<path d="M95.7,129.9c-0.1-0.2-0.3-0.4-0.4-0.5c-0.1-0.2-0.3-0.3-0.4-0.4c-0.7-0.5-0.7-1.2,0.1-2c0.3,0.1,0.4-0.4,0.1-0.5
				c-0.9-0.2-1.6,0.5-1.4,1.4c0.1,0.7,0.7,1.2,1.2,1.7c1,1.2,0.8,2.8-0.7,3.5c-0.3,0.1,0,0.6,0.3,0.4c0.9-0.4,1.5-1.2,1.6-2.2
				C96,130.8,95.9,130.4,95.7,129.9z"/>
			<path d="M100.3,126.5c0-0.2-0.3-0.4-0.5-0.1l-0.9,1.7c-0.4-0.5-0.8-0.9-1.3-1.3c-0.2-0.1-0.4-0.1-0.4,0.2c0.1,2,0.3,4,0.5,6
				c0,0.3,0.5,0.3,0.5,0c-0.2-1.8-0.4-3.6-0.5-5.4c0.3,0.3,0.7,0.7,1,1.1c0.1,0.1,0.3,0.2,0.4,0c0.2-0.5,0.5-0.9,0.7-1.4
				c0.2,2,0.5,3.9,0.7,5.9c0,0.3,0.5,0.3,0.5,0C100.9,130.9,100.6,128.7,100.3,126.5z"/>
			<path d="M105.1,132c-0.1-0.5-0.4-1-0.7-1.4c-1-1.2-2-3,0-3.9c0.3-0.1,0-0.6-0.3-0.4c-0.9,0.4-1.6,1.3-1.5,2.3
				c0,0.6,0.3,1,0.6,1.4c0.2,0.3,0.4,0.5,0.6,0.8c0.4,0.5,1.6,2.2-0.1,2.4c-0.3,0-0.3,0.5,0,0.5C104.7,133.6,105.2,132.9,105.1,132z
				"/>
		</g>
		<path d="M136.7,142.8c-0.2-1.9-2-3.3-3.9-3.3c0.3-2.2-0.8-4.4-2.8-5.4c-2.1-1.1-4.6-0.5-6.2,1.1c-0.8-3.9-5-6-8.6-4.3
			c-4.4,2.1-5,7.5-3.5,11.7c-1.6,0.1-3.3,1.2-3.1,3.1c0.3,2.2,3,2.1,4.6,2.1c6.6,0.1,13.2-1.1,19.9-0.8c0.1,0,0.2-0.1,0.2-0.1
			C135.3,146.5,136.9,144.9,136.7,142.8z M133.2,146.4c-0.1,0-0.1,0-0.2,0.1c-4.5-0.2-8.9,0.2-13.3,0.5c-2.2,0.2-4.4,0.3-6.6,0.2
			c-1,0-2.2,0.1-3.1-0.4c-0.8-0.5-1.1-1.6-0.6-2.4c0.5-0.9,1.5-1.3,2.5-1.3c0.1,0,0.2-0.1,0.2-0.2c0.1,0,0.2-0.1,0.2-0.3
			c-1.4-3.8-1.1-8.5,2.5-10.8c3.4-2.2,7.8-0.3,8.6,3.7c0,0.1,0.1,0.2,0.2,0.2c0,0.2,0.3,0.3,0.4,0.1c1.4-1.6,3.8-2.2,5.8-1.2
			c1.9,1,2.8,3.1,2.5,5.1c-0.1,0.1-0.1,0.3,0,0.4c0,0.2,0.4,0.3,0.5,0c1.5,0,3,0.9,3.4,2.5C136.6,144.4,135,146.2,133.2,146.4z"/>
		<path d="M126.6,140.6c-0.9-0.1-1.8-0.1-2.7-0.2c0.2-1.3,0.4-2.5,0.9-3.7c0.1-0.1-0.1-0.3-0.2-0.3c-1.9,0.2-3.8,0.3-5.8,0.5
			c-0.2,0-0.3,0.1-0.2,0.3l1.1,3.5c0,0,0,0,0,0c-0.9-0.1-1.6,0-2.4,0.4c-0.2,0.1-0.2,0.4,0,0.5c2,0.8,3.9,1.8,5.7,3
			c0.1,0.1,0.2,0,0.3,0c1.2-1.2,2.3-2.4,3.5-3.6C127,140.9,126.9,140.7,126.6,140.6z M123.3,143.9c-0.5,0.2-0.8-0.2-1.2-0.4
			c-1.3-0.8-2.6-1.5-4-2c0.5-0.1,1.1-0.2,1.7-0.1c0.2,0,0.3-0.2,0.2-0.4c0.1,0,0.2-0.1,0.2-0.3c-0.3-1.1-0.7-2.2-1-3.2
			c1.7-0.1,3.4-0.3,5.1-0.4c-0.4,1.1-0.6,2.2-0.8,3.4c0,0,0,0,0,0c-0.3,0-0.3,0.5,0,0.5c0,0,0,0,0.1,0c0.1,0,0.2,0.1,0.3,0
			c0.8,0.1,1.6,0.1,2.3,0.2c-0.6,0.6-1.1,1.2-1.7,1.8C124.2,143.1,123.6,143.9,123.3,143.9z"/>
		<g>
			<path d="M124.4,171.9c-0.2-3.1-0.4-6.2-0.6-9.2c-0.1-1.4-0.2-2.9-0.3-4.3c-0.1-1.3,0-2.8-0.3-4.1c-0.6-2.2-4.2-1.4-5.9-1.4
				c-3.3,0.1-6.7,0.5-10,1c-0.3,0-0.2,0.5,0.1,0.5c2.5-0.4,4.9-0.7,7.4-0.8c1.2-0.1,2.3-0.1,3.5-0.1c0.6,0,1.3,0,1.9,0
				c1,0,2.2,0.4,2.5,1.4c0.3,1.1,0.2,2.5,0.3,3.6c0.1,1.2,0.2,2.4,0.2,3.5c0.2,2.4,0.3,4.9,0.5,7.3c0.1,2.3,0.4,4.6,0.4,6.9
				c0,1.8-1.5,2.1-2.9,2.4c-1.4,0.2-2.8,0.4-4.2,0.5c-1.2,0.1-2.3,0.1-3.5,0.2c-1.1,0-2.9,0.3-3.9-0.4c-1-0.8-0.8-2.5-0.8-3.6
				c-0.1-1.3-0.1-2.6-0.2-3.9c-0.3-5.5-0.5-11-0.8-16.5c0-0.3-0.5-0.3-0.5,0c0.3,6.2,0.6,12.5,0.9,18.7c0.1,1.3,0,2.7,0.2,4.1
				c0.1,0.7,0.3,1.4,0.9,1.8c0.8,0.5,2.1,0.3,3,0.3c1.5,0,3-0.1,4.5-0.2c1.3-0.1,2.5-0.2,3.8-0.4c1-0.1,2.4-0.1,3.2-0.8
				c0.5-0.5,0.6-1.2,0.7-1.9C124.7,174.8,124.5,173.3,124.4,171.9z"/>
			<path d="M116.4,154.3c-1,0.3-2,0.5-3.1,0.6c-0.3,0-0.3,0.5,0,0.5c1.1-0.1,2.1-0.3,3.2-0.6C116.8,154.6,116.7,154.2,116.4,154.3z"
				/>
			<path d="M117.8,175.6c-0.4-0.4-1.1-0.4-1.5,0.1c-0.6,0.1-1,0.9-0.6,1.4c0.4,0.6,1.3,0.7,1.9,0.3
				C118.1,176.9,118.3,176.1,117.8,175.6z M117.3,176.9c-0.3,0.3-0.7,0.3-1.1,0.1c-0.3-0.2-0.3-0.8,0.1-0.9c0.1,0,0.2,0,0.3-0.1
				c0,0,0.1-0.1,0.1-0.1c0.2-0.2,0.5-0.2,0.7,0C117.7,176.2,117.6,176.6,117.3,176.9z"/>
			<path d="M122.7,171.6c-0.7-5.1-1.1-10.3-1.4-15.5c0-0.3-0.5-0.3-0.5,0c0.3,5.1,0.7,10.3,1.4,15.4c-3.8,0.4-7.5,1.2-11.2,2.2
				c-0.3-4.6-0.6-9.1-0.9-13.7c0-0.8-0.5-2.5,0.1-3c0.3-0.2,1.5-0.2,1.8-0.2c0.6-0.1,1.2-0.1,1.8-0.2c2.3-0.2,4.6-0.5,6.8-0.7
				c0.3,0,0.3-0.5,0-0.5l-11,1.2c-0.1,0-0.3,0.1-0.2,0.2c0.4,5.7,0.7,11.4,1.1,17.1c0,0,0,0.1,0,0.1c0,0.1,0.1,0.2,0.3,0.2
				c3.8-1.1,7.6-1.9,11.5-2.3c0.1,0,0.2-0.1,0.2-0.2C122.6,171.8,122.7,171.7,122.7,171.6z"/>
		</g>
		<path d="M148.3,5.6c-1.8-1.2-3.9-2.1-6.1-1.8c-2.4,0.3-3.9,1.8-5.2,3.7c0-0.9-0.1-1.8-0.1-2.7c0-1.2,0.1-2.8-0.8-3.7
			c-0.3-0.3-0.6-0.5-0.9-0.6c0,0,0,0,0-0.1c0-0.1,0-0.2-0.1-0.3c-0.3-0.2-0.5-0.1-0.7,0.1c0,0,0,0,0,0c-0.6-0.1-1.2-0.1-1.7-0.1
			c-2.1-0.1-4.3-0.1-6.4-0.1c-2,0-3.9,0.1-5.9,0.2c-2,0.1-4.4,0-6.4,0.5c-0.6,0.1-1,0.4-0.8,1c0,0.1,0.1,0.2,0.2,0.3
			c-0.1,0-0.3,0.1-0.3,0.2c0,2.1,0,4.2,0,6.4c0,0.3,0,0.6,0,0.9c-0.1,0-0.1,0-0.2,0.1c-0.9,1.3-2.9,0.5-2.5-1.1c0-0.1,0-0.2-0.1-0.3
			c0.1-0.2-0.2-0.5-0.4-0.3c-0.6,0.6-0.9,1.5-1.5,2.1c-0.3,0.4-0.8,0.7-1.3,0.7c-0.6,0.1-1.5-0.7-0.9-1.3c0.2-0.2-0.1-0.6-0.4-0.4
			c-0.2,0.2-0.3,0.4-0.3,0.6c0,0-0.1,0-0.1,0.1c-0.2,0.2-0.4,0.4-0.6,0.6c-0.3,0.2-0.6,0.4-0.9,0.6c-0.5-0.3-1.1-0.5-1.6-0.8
			c-0.4-0.7,0.3-2,0.6-2.7c0.6-1.2,1.2-2.4,2.3-3.3c2.9-2.4,5.6-0.3,7.5,2.1c0.2,0.2,0.5-0.1,0.4-0.4c-1.2-1.5-2.6-3.2-4.7-3.3
			c-2.1-0.2-3.9,1.3-4.9,3c-0.8,1.3-2.3,3.6-1.4,5.2c0.9,1.6,2.7,0.6,3.7-0.4c0.2,0.5,0.6,0.9,1.1,1c1.5,0.3,2.4-1.3,3.2-2.4
			c0,0.7,0.4,1.5,1.1,1.8c0.7,0.3,1.6,0.1,2.1-0.5c-0.1,1.4-0.1,2.9,0.1,4.2c0.1,0.3,0.1,0.6,0.3,0.8c0,0.1-0.1,0.1-0.1,0.2
			c-0.2,0.3,0.2,0.5,0.4,0.3c0,0,0,0,0,0c0.3,0.2,0.6,0.4,1.1,0.4c2,0.3,4.2,0.1,6.2,0.1c4.2,0,8.4,0.1,12.6,0.1c1.2,0,2,0,2.7-1.1
			c0-0.1,0.1-0.1,0.1-0.2c0.2,0.1,0.4-0.2,0.2-0.4c0,0,0,0,0,0c0.5-1.1,0.5-2.4,0.5-3.6c0-0.6,0-1.2-0.1-1.8
			c0.5,1.2,1.3,2.4,2.7,2.5c0.8,0.1,1.6-0.4,1.9-1.1c0.5,0.5,1.3,0.8,2,0.5c1.1-0.3,1.6-1.4,1.5-2.5c1.2,0.8,2.7,1.4,3.9,0.3
			C150.5,7.7,149.5,6.5,148.3,5.6z M114.5,1.2c0.4-0.1,1.2-0.1,1.6-0.1c3-0.3,6.1-0.4,9.1-0.5c3,0,6-0.1,9,0.2c0.1,0,0.1,0,0.2,0
			c-1.4,1.2-5.5,4.8-5.9,5.2c-0.4,0.4-0.9,1.1-1.4,1.4c-1.4,0.9-2.2,0-3.2-0.6c-1.3-0.8-2.6-1.5-4-2.2c-1.2-0.6-2.4-1.2-3.7-1.7
			c-0.5-0.2-1-0.4-1.5-0.6C113.7,1.8,113.4,1.6,114.5,1.2z M113.6,12.6c0-3.4,0-6.9-0.1-10.3c0,0,0,0,0-0.1c0.2,0.1,0.3,0.2,0.5,0.3
			c0.9,0.5,1.9,0.8,2.8,1.2c1.3,0.6,2.6,1.2,3.9,1.9c0,0,0,0,0,0c-2.3,3-4.5,6-6.8,9C113.6,14,113.6,13.3,113.6,12.6z M134.5,15.8
			c-0.7,0.1-1.6,0-2.3,0c-3.1,0-6.2-0.1-9.3-0.1c-1.7,0-3.5,0-5.2-0.1c-0.8,0-1.7,0-2.5,0c-0.5,0-0.8-0.2-1-0.5
			c2.3-3.1,4.6-6.1,6.9-9.2c0,0,0,0,0,0c0.5,0.3,1.1,0.6,1.6,0.9c1.1,0.6,2.7,2.3,4,1.6c0.8-0.4,1.5-1.4,2.1-2
			c0.1-0.1,0.2-0.2,0.3-0.3c2.1,2.8,4.3,5.5,6.6,8.2c-0.2,0.1-0.3,0.3-0.1,0.4l0.3,0.1C135.6,15.3,135.2,15.7,134.5,15.8z
			 M136.5,13.5c-0.1,0.2-0.1,0.5-0.2,0.7c-2.4-2.7-4.7-5.6-6.8-8.5c0.6-0.5,1.1-1.1,1.7-1.6c0.8-0.7,1.6-1.4,2.5-2.1
			c0.4-0.4,1-0.7,1.3-1.1c1.4,0.6,1.4,2.3,1.4,3.8l0.2,4.7C136.6,10.8,136.8,12.2,136.5,13.5z M146.8,8.9c-0.8-0.2-1.4-0.8-2.1-1.3
			c-0.2-0.2-0.6,0.1-0.4,0.4c0.1,0.1,0.2,0.1,0.2,0.2c0.2,0.8,0,1.9-0.8,2.3c-0.7,0.4-1.7,0.1-2-0.6c0-0.2,0-0.4-0.1-0.6
			c-0.1-0.1-0.2-0.2-0.3-0.2c0,0,0,0,0,0c0,0,0,0.1,0,0.1c-0.1,0-0.2,0.1-0.2,0.3c0,0.2,0.1,0.4,0.1,0.5c0,0.3-0.1,0.7-0.4,0.9
			c-0.6,0.5-1.5,0.3-2.1-0.1c-0.8-0.6-1.2-1.5-1.6-2.4c0-0.1-0.1-0.2-0.2-0.2c0-0.1,0-0.2,0-0.3c0.1,0.1,0.3,0.1,0.4-0.1
			c0.8-1.2,1.7-2.4,3-3c1.4-0.6,3-0.7,4.4-0.3c1.3,0.3,2.9,1,3.8,2C150.1,8,148.2,9.3,146.8,8.9z"/>
		<g>
			<path d="M98.4,169.1c-0.1-1.9-0.6-3.7-1.7-5.2c-0.8-1.1-1.8-1.9-2.9-2.5c1.6-0.2,3.3-0.9,3.9-2.6c0.8-2.2-0.4-5-2.6-5.8
				s-4.4,0.5-5,2.7c-0.6,1.9,0.3,3.8,1.7,5.1c-1.4-0.3-2.8-0.1-4.1,0.4c-2.8,1.2-6.3,4.6-5.5,7.8c0.1,0.3,0.5,0.2,0.5-0.1
				c-0.7-3.3,3.4-6.9,6.3-7.6c1-0.3,2.1-0.2,3.1,0c0,0.1,0.1,0.2,0.2,0.2c0.1,0,0.3,0,0.4,0c0,0,0,0,0.1,0c0,0,0,0,0.1,0
				c0.1,0,0.1,0,0.2,0c1.8,0.7,3.4,2.2,4.2,4.1c0.7,1.5,0.9,3.2,0.8,4.9c0,0.5,0,1.2-0.4,1.6c-0.4,0.4-0.7,0.2-1.3,0
				c-0.9-0.2-1.8-0.4-2.7-0.7c-3.6-0.9-7.1-1.8-10.7-2.6c-0.3-0.1-0.4,0.4-0.1,0.5c2.7,0.7,5.3,1.3,8,2c1.2,0.3,2.5,0.6,3.7,0.9
				c0.8,0.2,2.1,0.8,3,0.7C98.6,172.7,98.4,169.9,98.4,169.1z M90.4,156.1c0.4-2.2,2.7-3.7,4.8-2.5c1.8,1,2.8,3.9,1.6,5.7
				c-0.9,1.3-2.5,1.7-4,1.7C91.3,159.8,90,158,90.4,156.1z"/>
			<path d="M100.9,144.6c-0.2-1-1.1-1.6-2.1-1.6c-1.1,0-2,0.7-2.6,1.5c-0.4-0.8-0.9-1.5-1.8-1.6c-0.8-0.1-1.5,0.4-1.9,1.1
				c-1.3,2.2,1.1,4.1,2.7,5.2c0.3,0.2,0.5-0.3,0.3-0.4c-1.2-0.8-2.6-1.7-2.7-3.2c-0.1-1.1,0.6-2.3,1.9-2.1c0.7,0.1,1.2,1.1,1.5,1.7
				c0.1,0.3,0.5,0.1,0.5-0.2c0,0,0.1,0,0.1-0.1c0.6-0.9,1.5-1.6,2.6-1.4c1.6,0.3,1.6,2.1,0.7,3.2c-1,1.2-2.7,1.9-4.2,2.3
				c-0.3,0.1-0.2,0.6,0.1,0.5C97.8,148.9,101.5,147.4,100.9,144.6z"/>
		</g>
		<path d="M82.9,148.6c0.5-0.7,2.1-2.1,1.9-3.1c-0.2-0.9-1.7-1-2.4-1.1c-1.5-0.2-3.1-0.1-4.7,0.1c0,0,0,0,0,0
			c-0.3-1.5-0.8-3-1.5-4.4c-0.4-0.8-1-2.1-2-2.1s-1.5,1.4-1.8,2.2c-0.6,1.3-1.1,2.6-1.4,4c0,0-0.1,0-0.1,0c-1.7,0-3.3,0.2-5,0.5
			c-0.6,0.1-2.4,0.1-2.6,1c-0.2,0.8,0.7,1.4,1.2,1.7c1.5,1,3.2,1.9,4.8,2.7c-0.9,1.5-1.7,3.1-2.3,4.8c-0.3,0.7-1,2.3,0.1,2.7
			c0.9,0.3,2.3-0.4,3.1-0.7c1.4-0.6,2.7-1.4,3.8-2.4c0,0,0,0.1,0.1,0.1c1.4,1,2.8,2,4.3,2.9c0.6,0.4,1.4,1.1,2.1,0.5
			c0.5-0.4,0.5-1.3,0.5-1.9c-0.1-1.3-0.5-2.5-1-3.7c0,0,0,0,0,0C81,151.1,81.9,149.9,82.9,148.6z M79.7,151.8
			c-0.1-0.3-0.6,0-0.4,0.3c0.4,0.9,0.8,1.9,1,2.8c0.2,1,0.7,3.1-1.2,2.3c-0.8-0.3-1.5-1.1-2.2-1.5c-0.8-0.6-1.6-1.1-2.4-1.7
			c0,0,0,0,0,0c0-0.2-0.2-0.4-0.4-0.2c-0.9,0.8-1.8,1.4-2.8,2c-0.8,0.5-2,1.1-3,1.2c-1.9,0-0.4-2.8,0-3.6c0.5-1.1,1-2.1,1.6-3.1
			c0.1-0.1,0-0.2-0.1-0.3c0.1-0.1,0.1-0.3-0.1-0.3c-0.9-0.4-1.8-0.9-2.7-1.4c-0.4-0.3-0.9-0.5-1.3-0.8c-0.6-0.4-1.6-0.7-1.5-1.5
			c-0.1-0.5,0.1-0.6,0.5-0.6c0.3-0.1,0.5-0.1,0.8-0.2c0.6-0.1,1.2-0.2,1.8-0.3c1.2-0.2,2.4-0.2,3.6-0.3c0.1,0,0.1,0,0.1-0.1
			c0.1,0.1,0.3,0.1,0.4-0.1c0.2-0.8,0.5-1.7,0.8-2.5c0.2-0.5,0.4-1,0.6-1.6c0.4-0.8,0.4-1.1,1.4-1.3c0.6-0.4,1-0.2,1.2,0.4
			c0.1,0.2,0.2,0.4,0.3,0.6c0.3,0.5,0.5,1.1,0.7,1.6c0.4,0.9,0.6,1.9,0.8,2.9c0,0,0,0.1,0,0.1c-0.1,0.2,0,0.4,0.2,0.3
			c1.1-0.1,7.2-1,6.6,1.3c-0.1,0.3-0.7,1-0.9,1.2c-0.4,0.5-0.8,1.1-1.2,1.6C81.2,150,80.5,150.9,79.7,151.8
			C79.7,151.8,79.7,151.8,79.7,151.8z"/>
	</g>
	<g>
		<path class="st1" d="M117.7,86.4l-0.2,0.5l0,0.3l-0.4,0.8l-0.3,0.6l-0.2,0.3l-0.3,0.4l-0.3,0.3l-0.3,0.4l-0.5,0.3l-0.9,0.2l-0.4,0
			l-0.4-0.1l-1-0.1l-0.3-0.2l-0.4-0.2l-0.7-0.5l-0.7-0.5l-0.6-0.6l-0.4-0.2l-0.2-0.4l-0.4-0.4l-0.3-0.6l-0.3-0.6l-0.1-0.6v-0.8l0-1
			l0.1-0.8l0.2-0.7l0.3-0.7l0-0.7l0.2-0.7l0.2-0.3l0.1-0.2l0.3-0.2l0.5-0.3l0.4-0.1l0.6-0.1l0.8-0.3l0.6-0.2l0.3-0.3l0.6,0l0.7,0.1
			l0.4,0.3l0.3,0.1l0.5,0.5l0.4,0.8l0,0.3l-0.3,0.1l-0.1,0.4l-0.5,0.2l-0.4-0.3l-0.6,0l-0.5-0.3l-0.6-0.1l-0.5,0.2l-0.7,0.2
			l-0.6,0.2l-0.4,0.3l-0.3,0.4l-0.3,0.5l-0.3,0.8l-0.2,0.9l0,0.5l0,0.6l0.1,0.7l0.1,0.7l0.3,0.6l0.3,0.5l0.9,1.1l0.6,0.4l0.4,0.2
			l1,0.1l0.9-0.3l0.8-0.3l0.5-0.5l0.3-0.5l0.6-0.7l0.3-0.1l0.4-0.1l0.3-0.4l0.3-0.2l0.3,0.1L117.7,86.4L117.7,86.4z"/>
		<path class="st1" d="M129.4,92.5l0,0.1l-0.1,0.1l-0.1-0.3l-0.1-0.6l-0.1-0.2v-0.1l0-0.8l-0.3-0.8l-0.1-0.9l-0.2-0.6l-0.2-0.8
			l-0.1-0.6l-0.2-0.3l-0.2-0.6v-0.5l-0.1-0.4l0-0.9l-0.2-0.3l-0.1-0.5l0-0.7l0.1-0.7l0.1-0.4l-0.1-0.4l-0.1-0.4l0-0.5l-0.3-0.2
			l-0.2-0.1l-0.3,0.3l-0.3,0.4l-0.3,0.5l-0.2,0.6l-0.2,0.7l-0.2,0.6l-0.2,0.6l-0.2,0.6l-0.2,0.3l-0.2,0.2l-0.2,0.1l-0.3-0.1
			l-0.2-0.3l-0.3-0.5l-0.2-0.4l-0.2-1l-0.1-0.5l-0.1-0.6l-0.2-0.5l-0.1-0.5l-0.2-0.4l-0.2-0.1l-0.3-0.1l-0.1,0.3l-0.2,0.5l-0.2,0.6
			l-0.2,1.2l-0.1,0.7v0.3l-0.1,0.9l-0.2,1.1l0,0.6l0.2,0.2l0,0.4l0.1,0.4l-0.2,0.3l-0.2,0.3l-0.4,0.1H120l-0.5,0l-0.3-0.1l-0.2-0.2
			l-0.1-0.4l0.1-0.9l0.2-0.4l0.2-0.1l0-1.1l0.4-1.3l0.1-0.5l0.3-0.5l0-0.3l0.3-0.5v-0.3l0.6-1.5l0.1-0.3l0.2-0.1l0.1-0.4l0.3-0.4
			l0.4-0.5l0.3-0.2h0.3l0.2,0.2l0.2,0.4L123,79l0.2,0.5l0.2,0.7l0.1,0.5l0.2,0.6l0.1,0.4l0.1,0.6l0.1,0.5l0.2,0.5l0.3,0.3l0.2,0.1
			l0.2-0.2l0.1-0.4l0.2-0.4l0.2-0.7l0.3-0.6l0.1-0.5l0.1-0.3l-0.1-0.2l-0.1-0.3l0-0.4l0.2-0.4l0.2-0.4l0.1-0.4l0.3-0.5l0.2-0.2
			l0.3-0.4l0.4-0.2l0.2-0.1l0.3,0.1l0.3,0l0.4,0.2l0.3,0.3l0.2,0.3l0.1,0.4l0,0.5l0,0.5l0,0.6l0,1.2v0.7l0.2,1.2l0,0.6l0,0.8l0,0.6
			v0.6l-0.1,0.7l-0.1,0.3l0.1,0.6v1.1l0.1,0.2l0,0.8l0.1,0.6l0.1,1.1l0,0.5L129.4,92.5L129.4,92.5z M120.4,89.1l-0.2,0.1l-0.2,0
			l0-0.3h0.2L120.4,89.1z M122.8,76.3l-0.1,0.2l-0.2-0.1l0-0.3h0.2L122.8,76.3z M129.8,85.2l-0.2,0.2l-0.1-0.2l0.1-0.2L129.8,85.2z"
			/>
		<path class="st1" d="M136.9,80.4l-0.2,0.3h-0.3l-0.3-0.1l-0.3-0.1l-0.3-0.2l-0.1-0.2l-0.4-0.1l-0.2-0.1l-0.4,0.1H134l-0.4,0
			l-0.5,0.2l-0.4,0.2l-0.6,0.6l-0.1,0.3l-0.2,0.4l0.1,0.5l0.2,0.4l0.2,0.3l0.5,0.4l0.3,0.3l0.4,0.2l0.3,0.3l0.3,0.3l0.7,0.4l0.3,0.3
			l0.3,0.3l0.2,0.2l0.1,0.2l0.3,0.6l0.1,0.3l0.1,0.4l0.2,0.4l0.1,0.4l0,0.6l-0.1,0.4l-0.2,0.5l-0.1,0.4l-0.3,0.3l-0.1,0.3l-0.3,0.3
			l-0.3,0.2l-0.4,0.2l-0.6,0.1l-0.4,0.1l-0.5-0.1l-0.3,0l-0.3-0.1l-0.2-0.1h-0.2l-0.1-0.1l0-0.2l0.1-0.1h0.2v0.1l0,0.1l0.1,0.1
			l0.3,0.1l0.7,0l0.2-0.1l0.3,0l0.4-0.1l0.4-0.2l0.5-0.3l0.1-0.3l0.2-0.3l0.1-0.4l0.2-0.3l0-0.3l0.1-0.5l-0.1-0.3l-0.1-0.4l-0.2-0.3
			l-0.1-0.4l-0.2-0.4l-0.1-0.3l-0.3-0.1l-0.2-0.2l-0.3-0.2l-0.3-0.3l-0.5-0.2l-0.3-0.3l-0.3-0.1l-0.3-0.3l-0.4-0.3l-0.2-0.2
			l-0.4-0.1l-0.4-0.3l-0.3-0.4l-0.2-0.4l-0.2-0.4v-0.8l0.2-0.4l0.2-0.4l0.2-0.4l0.3-0.3l0.3-0.2l0.3-0.3l0.4-0.2l0.3-0.1l0.5,0
			l0.5,0l0.5-0.1l0.4-0.2l0.4-0.1l0.2-0.2l0.4,0.1l0.2,0.2l0.1,0.4l0.2,0.2l0.2,0.2l0.1,0.3l0,0.3L136.9,80.4z M136.9,80.9l0,0.2
			l-0.3,0.1l-0.2,0l-0.2-0.2l0.2-0.2l0.3,0L136.9,80.9z"/>
	</g>
</g>
</svg>
