<?xml version="1.0" encoding="utf-8"?>
<!-- Generator: Adobe Illustrator 21.0.0, SVG Export Plug-In . SVG Version: 6.00 Build 0)  -->
<svg version="1.1" id="Layer_1" xmlns="http://www.w3.org/2000/svg" xmlns:xlink="http://www.w3.org/1999/xlink" x="0px" y="0px"
	 viewBox="0 0 259 180" style="enable-background:new 0 0 259 180;" xml:space="preserve">
<style type="text/css">
	.st0{display:none;fill:#E6E6E6;}
	.st1{fill:#08171A;}
	.st2{fill:#0F0F0F;}
	.st3{fill:#FFFFFF;}
	.st4{fill:#B0B0B0;}
	.st5{fill:#6BC62A;}
	.st6{stroke:#000000;stroke-width:0.25;stroke-miterlimit:10;}
	.st7{fill:none;stroke:#000000;stroke-width:2;stroke-miterlimit:10;}
	.st8{font-family:'BellMTBold';}
	.st9{font-size:18px;}
	.st10{letter-spacing:4;}
</style>
<rect y="0" class="st0" width="259" height="180"/>
<g>
	<path class="st1" d="M206.2,36.7H52.8c-1.6,0-2.8,1.3-2.8,2.8v94.7h159V39.6C209,38,207.7,36.7,206.2,36.7z"/>
	<rect x="55.5" y="42.1" class="st2" width="148" height="86.7"/>
	<path class="st3" d="M229.1,139.6H29.9v-2.2c0-1.7,1.4-3.1,3.1-3.1h193c1.7,0,3.1,1.4,3.1,3.1V139.6z"/>
	<path class="st4" d="M216.2,143.1H42.8c-1.5,0-3-0.2-4.4-0.7l-8.5-2.8h199.3l-8.5,2.8C219.2,142.8,217.7,143.1,216.2,143.1z"/>
	<path class="st4" d="M143.3,134.2h-27.7l1.1,1.4c0.7,0.9,1.7,1.4,2.8,1.4h19.9c1.1,0,2.2-0.5,2.8-1.4L143.3,134.2z"/>
	<path class="st5" d="M220.8,137.9L220.8,137.9c0.5,0,0.9-0.4,0.9-0.9v-2.7h-1.9v2.7C219.9,137.5,220.3,137.9,220.8,137.9z"/>
	<path class="st4" d="M217.8,137.9L217.8,137.9c0.5,0,0.9-0.4,0.9-0.9v-2.7h-1.9v2.7C216.9,137.5,217.3,137.9,217.8,137.9z"/>
	<path class="st4" d="M214.9,137.9L214.9,137.9c0.5,0,0.9-0.4,0.9-0.9v-2.7H214v2.7C214,137.5,214.4,137.9,214.9,137.9z"/>
</g>
<polygon class="st3" points="152.6,36.2 80.6,144 105.9,144 177.9,36.2 "/>
<g>
	<path class="st6" d="M122.1,85.4c0.1,0,0.2,0,0.3,0s0.2,0,0.4,0c0.1,0,0.2,0,0.3,0s0.2,0,0.3,0l2.2,7.4l2.2-7.4c0.2,0,0.4,0,0.7,0
		c0.1,0,0.2,0,0.3,0s0.2,0,0.3,0l-2.8,8.6c-0.1,0-0.2,0-0.3,0c-0.1,0-0.2,0-0.4,0s-0.2,0-0.4,0c-0.1,0-0.2,0-0.4,0L122.1,85.4z"/>
	<path class="st6" d="M130.1,92.7c0.3,0.1,0.5,0.2,0.8,0.3c0.3,0.1,0.6,0.1,1.1,0.1c0.7,0,1.1-0.1,1.5-0.4c0.3-0.3,0.5-0.6,0.5-1.1
		c0-0.2,0-0.4-0.1-0.6s-0.2-0.3-0.3-0.4s-0.3-0.2-0.5-0.3s-0.4-0.2-0.7-0.3l-0.7-0.3c-0.2-0.1-0.4-0.2-0.6-0.3
		c-0.2-0.1-0.4-0.3-0.5-0.4c-0.1-0.2-0.3-0.4-0.3-0.6c-0.1-0.2-0.1-0.5-0.1-0.8c0-0.7,0.2-1.3,0.7-1.7c0.5-0.4,1.2-0.6,2.1-0.6
		c0.4,0,0.7,0,1.1,0.1s0.6,0.1,0.9,0.2c0,0.3-0.1,0.7-0.3,1c-0.2-0.1-0.5-0.2-0.8-0.2c-0.3-0.1-0.6-0.1-1-0.1
		c-0.5,0-0.9,0.1-1.2,0.3c-0.3,0.2-0.4,0.5-0.4,0.9c0,0.2,0,0.3,0.1,0.4s0.2,0.2,0.3,0.3s0.2,0.2,0.4,0.3c0.2,0.1,0.3,0.2,0.5,0.2
		l0.7,0.3c0.3,0.1,0.6,0.3,0.9,0.4s0.5,0.3,0.6,0.5s0.3,0.4,0.4,0.7s0.1,0.6,0.1,0.9c0,0.8-0.3,1.5-0.9,1.9
		c-0.6,0.5-1.4,0.7-2.4,0.7c-0.2,0-0.5,0-0.7,0s-0.4,0-0.6-0.1s-0.3-0.1-0.5-0.1s-0.3-0.1-0.5-0.2c0-0.2,0.1-0.4,0.1-0.5
		C130,93.1,130.1,92.9,130.1,92.7z"/>
</g>
<polyline class="st7" points="129,31 210.8,31 215,34.1 215,128 "/>
<line class="st7" x1="141" y1="149" x2="50" y2="149"/>
<text transform="matrix(1 -5.283845e-03 5.283845e-03 1 62.9393 71.0318)"><tspan x="0" y="0" class="st3 st8 st9 st10">WEB</tspan><tspan x="3.2" y="14" class="st3 st8 st9">statis</tspan></text>
<text transform="matrix(1 8.293208e-03 -8.293208e-03 1 142.9996 106.9873)"><tspan x="0" y="0" class="st3 st8 st9 st10">WEB</tspan><tspan x="-6.3" y="14" class="st3 st8 st9">dinamis</tspan></text>
</svg>
