<?xml version="1.0" encoding="utf-8"?>
<!-- Generator: Adobe Illustrator 21.0.0, SVG Export Plug-In . SVG Version: 6.00 Build 0)  -->
<svg version="1.1" id="Layer_1" xmlns="http://www.w3.org/2000/svg" xmlns:xlink="http://www.w3.org/1999/xlink" x="0px" y="0px"
	 viewBox="0 0 259 180" style="enable-background:new 0 0 259 180;" xml:space="preserve">
<style type="text/css">
	.st0{fill:none;}
	.st1{fill:#999999;}
</style>
<g>
	<path d="M119.3,59.4C119.3,59.4,119.3,59.5,119.3,59.4c0,0.5-0.1,1-0.2,1.3c-0.1,0.4-0.3,0.7-0.6,1c-0.2,0.3-0.5,0.5-0.8,0.6
		s-0.7,0.2-1.1,0.2c-1.1,0-2.7-0.3-2.7-0.3v-0.1v-0.9v-6.7c-0.1,0-0.7-0.1-0.8-0.1c-0.1,0-0.2-0.1-0.2-0.2v-0.5h0.9l0,0h1v3.6
		c0.3-0.3,0.5-0.5,0.9-0.7c0.3-0.2,0.7-0.3,1.1-0.3s0.7,0.1,1,0.2c0.3,0.1,0.5,0.3,0.7,0.6s0.4,0.6,0.5,1S119.3,58.9,119.3,59.4
		L119.3,59.4z M118,60.4c0.1-0.3,0.1-0.6,0.1-0.9v-0.1c0-0.4,0-0.7-0.1-1s-0.2-0.5-0.3-0.7c-0.1-0.2-0.3-0.3-0.5-0.4
		c-0.2-0.1-0.4-0.1-0.7-0.1c-0.3,0-0.7,0.1-0.9,0.2c-0.3,0.2-0.5,0.4-0.7,0.7v1.4V61v0.5c0.2,0,0.7,0.2,1.2,0.2c0.1,0,0.2,0,0.2,0
		h0.1c0.2,0,0.5-0.1,0.7-0.2c0.2-0.1,0.4-0.3,0.6-0.4S118,60.7,118,60.4z"/>
	<path d="M122.7,62v0.5h-2.8V62c0-0.1,0.1-0.2,0.2-0.2s0.7-0.1,0.7-0.1v-4.3c0,0-0.6-0.1-0.7-0.1s-0.2-0.1-0.2-0.2v-0.5h1.9v5.2
		c0,0,0.6,0.1,0.7,0.1C122.6,61.8,122.7,61.9,122.7,62z M120.6,54.8c0-0.1-0.1-0.2-0.1-0.3s0-0.2,0.1-0.3s0.1-0.2,0.2-0.2
		s0.2-0.1,0.2-0.2s0.2-0.1,0.3-0.1s0.2,0,0.3,0.1s0.2,0.1,0.2,0.2s0.1,0.2,0.2,0.2s0.1,0.2,0.1,0.3s0,0.2-0.1,0.3s-0.1,0.2-0.2,0.2
		s-0.2,0.1-0.2,0.2c-0.1,0-0.2,0.1-0.3,0.1s-0.2,0-0.3-0.1c-0.1,0-0.2-0.1-0.2-0.2S120.7,54.9,120.6,54.8z"/>
	<path d="M126.2,62v0.5h-2.8V62c0-0.1,0.1-0.2,0.2-0.2l0.7-0.1v-7.1c-0.4-0.1-0.6-0.1-0.7-0.1s-0.2-0.1-0.2-0.2v-0.5h1.9v8
		c0.4,0.1,0.6,0.1,0.7,0.1C126.1,61.8,126.2,61.9,126.2,62z"/>
	<path d="M132.3,62v0.5h-0.8h-0.1H131c-0.1,0-0.2,0-0.3,0s-0.1-0.1-0.1-0.2l-0.1-0.6c-0.2,0.1-0.3,0.3-0.5,0.4
		c-0.2,0.1-0.3,0.2-0.5,0.3s-0.3,0.1-0.5,0.2c-0.2,0-0.4,0.1-0.6,0.1c-0.2,0-0.5,0-0.7-0.1s-0.4-0.2-0.5-0.3s-0.3-0.3-0.4-0.5
		s-0.1-0.4-0.1-0.7c0-0.2,0.1-0.5,0.2-0.7s0.3-0.4,0.6-0.6s0.7-0.3,1.2-0.4s1.1-0.2,1.7-0.2v-0.5c0-0.5-0.1-0.8-0.3-1.1
		c-0.2-0.2-0.5-0.4-0.9-0.4c-0.3,0-0.5,0-0.7,0.1s-0.3,0.1-0.5,0.2s-0.2,0.2-0.3,0.2s-0.2,0.1-0.3,0.1c-0.1,0-0.1,0-0.2-0.1
		c-0.1,0-0.1-0.1-0.1-0.1l-0.2-0.3c0.3-0.3,0.7-0.6,1.1-0.7c0.4-0.2,0.8-0.2,1.3-0.2c0.3,0,0.6,0.1,0.9,0.2c0.3,0.1,0.5,0.3,0.7,0.5
		s0.3,0.4,0.4,0.7c0.1,0.3,0.1,0.6,0.1,0.9v3c0.2,0,0.5,0.1,0.6,0.1C132.3,61.8,132.3,61.9,132.3,62z M130.5,59.8
		c-0.5,0-0.9,0-1.3,0.1c-0.3,0.1-0.6,0.1-0.8,0.2s-0.4,0.2-0.5,0.4s-0.1,0.3-0.1,0.5s0,0.3,0.1,0.4c0.1,0.1,0.1,0.2,0.2,0.3
		c0.1,0.1,0.2,0.1,0.3,0.2c0.1,0,0.2,0.1,0.4,0.1s0.4,0,0.5-0.1c0.2,0,0.3-0.1,0.4-0.2c0.1-0.1,0.3-0.2,0.4-0.3
		c0.1-0.1,0.3-0.2,0.4-0.3L130.5,59.8L130.5,59.8z"/>
	<path d="M136.9,56.3c0.7,0,1.2,0.2,1.5,0.6c0.3,0.4,0.5,1,0.5,1.7v3c0.4,0.1,0.6,0.1,0.7,0.1c0.1,0,0.2,0.1,0.2,0.2v0.5h-1.9v-3.9
		c0-1-0.4-1.5-1.3-1.5c-0.6,0-1.1,0.3-1.6,0.8v3.6c0,0,0.3,0,0.7,0.1c0.1,0,0.2,0.1,0.2,0.2v0.5h-2.8V62c0-0.1,0.1-0.2,0.2-0.2
		l0.7-0.1v-4.3c-0.4-0.1-0.6-0.1-0.7-0.1c-0.1,0-0.2-0.1-0.2-0.2v-0.5h0.9h0.6c0.1,0,0.2,0.1,0.3,0.2l0.1,0.7
		C135.5,56.7,136.2,56.3,136.9,56.3z"/>
	<path d="M143.7,56.4c0.2,0.1,0.4,0.1,0.6,0.3h1.6v0.4c0,0.1-0.1,0.2-0.3,0.3l-0.7,0.1c0.1,0.3,0.2,0.5,0.2,0.9
		c0,0.3-0.1,0.6-0.2,0.8c-0.1,0.2-0.3,0.4-0.5,0.6c-0.2,0.2-0.4,0.3-0.7,0.4c-0.3,0.1-0.6,0.1-0.9,0.1c-0.3,0-0.6,0-0.8-0.1
		c-0.1,0.1-0.2,0.2-0.3,0.3s-0.1,0.2-0.1,0.3s0.1,0.3,0.2,0.3c0.1,0.1,0.3,0.1,0.5,0.2s0.4,0.1,0.7,0.1c0.2,0,0.5,0,0.7,0
		s0.5,0,0.7,0.1c0.2,0,0.5,0.1,0.7,0.2c0.2,0.1,0.3,0.2,0.5,0.4c0.1,0.2,0.2,0.4,0.2,0.7s-0.1,0.5-0.2,0.8c-0.1,0.2-0.3,0.5-0.6,0.6
		c-0.2,0.2-0.5,0.3-0.9,0.5s-0.8,0.2-1.2,0.2s-0.8,0-1.2-0.1c-0.3-0.1-0.6-0.2-0.8-0.4c-0.2-0.1-0.4-0.3-0.5-0.5
		c-0.1-0.2-0.2-0.4-0.2-0.6c0-0.3,0.1-0.6,0.3-0.8s0.5-0.4,0.8-0.5c-0.2-0.1-0.3-0.2-0.4-0.3s-0.2-0.3-0.2-0.5c0-0.1,0-0.2,0-0.3
		s0.1-0.2,0.1-0.3c0.1-0.1,0.1-0.2,0.2-0.3c0.1-0.1,0.2-0.2,0.3-0.2c-0.3-0.2-0.5-0.4-0.7-0.7s-0.3-0.6-0.3-1c0-0.3,0.1-0.6,0.2-0.8
		c0.1-0.2,0.3-0.4,0.5-0.6c0.2-0.2,0.4-0.3,0.7-0.4c0.3-0.1,0.6-0.1,0.9-0.1C143.2,56.3,143.4,56.4,143.7,56.4z M144.7,62.5
		c-0.1-0.1-0.2-0.2-0.3-0.2s-0.3-0.1-0.5-0.1s-0.4,0-0.6-0.1c-0.2,0-0.4,0-0.6,0c-0.2,0-0.4,0-0.6-0.1c-0.2,0.1-0.4,0.2-0.6,0.4
		c-0.1,0.2-0.2,0.3-0.2,0.6c0,0.1,0,0.3,0.1,0.4c0.1,0.1,0.2,0.2,0.3,0.3s0.3,0.2,0.5,0.2s0.5,0.1,0.8,0.1s0.5,0,0.8-0.1
		c0.2-0.1,0.4-0.1,0.6-0.2s0.3-0.2,0.4-0.3c0.1-0.1,0.1-0.3,0.1-0.4C144.8,62.7,144.8,62.6,144.7,62.5z M143.5,59.4
		c0.2-0.1,0.3-0.1,0.4-0.3c0.1-0.1,0.2-0.2,0.3-0.4s0.1-0.3,0.1-0.5c0-0.4-0.1-0.7-0.3-0.9s-0.6-0.3-1-0.3s-0.8,0.1-1,0.3
		s-0.3,0.5-0.3,0.9c0,0.2,0,0.3,0.1,0.5s0.1,0.3,0.3,0.4c0.1,0.1,0.3,0.2,0.4,0.3c0.2,0.1,0.4,0.1,0.6,0.1
		C143.1,59.5,143.3,59.5,143.5,59.4z"/>
</g>
<g>
	<path class="st0" d="M65.5,98c0-35.3,28.7-64,64-64s64,28.7,64,64"/>
	<path d="M78.6,51.8l0.8,0.7l-2.3,2.6l-0.8-0.7L78.6,51.8z"/>
	<path d="M87.2,37.8l0.5,0.6l1,1.2L88.2,40c-0.1,0.1-0.2,0.1-0.4,0c0,0-0.2-0.2-0.4-0.5S87,39.1,87,39c-2.1,0.8-3.1,1.9-3.3,3.5
		c-0.1,1,0.2,2,1,2.9c0.8,1,1.6,1.5,2.6,1.7c0.9,0.2,1.8-0.1,2.6-0.7c0.5-0.4,0.8-0.7,0.9-1c0.3-0.4,0.4-0.9,0.5-1.3
		c0-0.1,0.1-0.2,0.1-0.2c0.1,0,0.1-0.1,0.2-0.1l0.8,0.1c-0.1,1.3-0.7,2.5-1.9,3.4c-1.1,0.9-2.3,1.2-3.6,1c-1.3-0.2-2.4-0.9-3.3-2.1
		c-0.9-1.2-1.3-2.4-1.2-3.8s0.8-2.5,2-3.4C85,38.7,85.9,38.2,87.2,37.8z"/>
	<path d="M98.8,30.4l0.3,0.5c0.1,0.1,0,0.2-0.1,0.3l-0.6,0.5l2.4,4.5c0.6,1,0.7,2.1,0.4,3.1c-0.3,1-1,1.8-2,2.4
		c-1.1,0.6-2.1,0.7-3.1,0.4s-1.8-1-2.3-2l-2.4-4.5c-0.4,0.1-0.7,0.2-0.8,0.2c-0.1,0-0.2,0-0.3-0.1L90,35.2l3.1-1.7l0.3,0.5
		c0.1,0.1,0,0.2-0.1,0.3c-0.1,0-0.3,0.2-0.7,0.6l2.4,4.5c0.4,0.8,0.9,1.2,1.6,1.5c0.7,0.2,1.4,0.2,2.1-0.2s1.2-0.9,1.3-1.6
		c0.2-0.7,0-1.4-0.4-2.1l-2.4-4.5c-0.5,0.2-0.8,0.3-0.9,0.3s-0.2,0-0.3-0.1l-0.3-0.5l1-0.5l1.2-0.6L98.8,30.4z"/>
	<path d="M105.1,30.8l1.8,6.1c0.5-0.1,0.8-0.1,1-0.1c0.1,0,0.2,0.1,0.3,0.2l0.2,0.6l-3.2,1L105,38c0-0.1,0-0.2,0.1-0.3l0.7-0.4
		l-2.3-7.6c-0.5,0-0.7,0.1-0.8,0.1c-0.1,0-0.2,0-0.3-0.2l-0.2-0.6l1.9-0.6c0.1,0,0.2-0.1,0.3,0s0.1,0,0.2,0.1l5.1,4.9
		c0.1,0.1,0.3,0.3,0.5,0.6c0-0.3,0-0.6,0.1-0.8l1.5-6.9c0-0.1,0.1-0.2,0.1-0.2c0.1,0,0.1-0.1,0.3-0.1l1.9-0.6l0.2,0.6
		c0,0.1,0,0.2-0.1,0.3c-0.5,0.3-0.7,0.4-0.7,0.4l2.3,7.6c0.5,0,0.7-0.1,0.8-0.1c0.1,0,0.2,0,0.3,0.2l0.2,0.6l-3.2,1l-0.2-0.6
		c0-0.1,0-0.2,0.1-0.3s0.4-0.2,0.9-0.4l-1.8-6.1c-0.1-0.2-0.1-0.4-0.2-0.6l-1.5,7c-0.1,0.2-0.2,0.4-0.4,0.4l-0.2,0.1
		c-0.2,0.1-0.4,0-0.6-0.2l-5.2-5C104.9,30.4,105,30.6,105.1,30.8z"/>
	<path d="M128.8,33.2v0.6l-2.9,0.3v-0.6c0-0.1,0-0.2,0.2-0.3l0.6-0.2l-1-1.9l-4.3,0.4l-0.6,2.1l0.6,0.1c0.1,0,0.2,0.1,0.2,0.2
		l0.1,0.6l-2.9,0.3v-0.6c0-0.1,0-0.2,0.2-0.2l0.5-0.2l2.8-9.4l1.4-0.1l4.4,8.7l0.6,0.1C128.7,33,128.8,33.1,128.8,33.2z M125.2,30.1
		l-1.8-3.7c-0.1-0.2-0.3-0.5-0.4-0.9c-0.1,0.4-0.1,0.7-0.2,1l-1.1,4L125.2,30.1z"/>
	<path d="M138.8,31.6l0.6-6.1c-0.5-0.1-0.8-0.2-0.9-0.2c-0.1,0-0.2-0.1-0.2-0.3l0.1-0.6l1.1,0.1l1.2,0.1l1,0.1l-0.1,0.6
		c0,0.1-0.1,0.2-0.2,0.2l-0.8,0.1l-0.8,9l-0.7-0.1c-0.2,0-0.3-0.1-0.5-0.3l-5.1-8.1c0,0.2,0,0.5,0,0.7l-0.6,6.1
		c0.5,0.1,0.8,0.2,0.9,0.2c0.1,0,0.2,0.1,0.2,0.3l-0.1,0.6l-3.3-0.3l0.1-0.6c0-0.1,0.1-0.2,0.2-0.2l0.8-0.1l0.7-8
		c-0.4-0.1-0.7-0.2-0.8-0.2s-0.2-0.1-0.2-0.3l0.1-0.6l1.7,0.2c0.1,0,0.2,0,0.3,0.1c0.1,0,0.1,0.1,0.2,0.2l5.1,8.1
		C138.8,32.1,138.8,31.9,138.8,31.6z"/>
	<path d="M151.2,29.9l-2.3,5.9c0.4,0.3,0.7,0.4,0.8,0.5s0.1,0.2,0.1,0.3l-0.2,0.6l-3.1-1.2l0.2-0.6c0.1-0.1,0.1-0.2,0.3-0.2l0.8,0.1
		l2.9-7.5c-0.4-0.2-0.6-0.4-0.7-0.4c-0.1-0.1-0.2-0.2-0.1-0.3l0.2-0.6l1.9,0.7c0.1,0,0.2,0.1,0.2,0.1s0.1,0.1,0.1,0.3l1,7
		c0,0.2,0,0.4,0,0.8c0.2-0.2,0.4-0.4,0.6-0.6l5.4-4.6c0.1-0.1,0.2-0.1,0.2-0.1c0.1,0,0.2,0,0.3,0.1l1.9,0.7l-0.2,0.6
		c-0.1,0.1-0.1,0.2-0.3,0.2c-0.5-0.1-0.8-0.1-0.8-0.1l-2.9,7.5c0.4,0.2,0.6,0.4,0.7,0.4c0.1,0.1,0.2,0.2,0.1,0.3l-0.2,0.6l-3.1-1.2
		l0.2-0.6c0.1-0.1,0.1-0.2,0.3-0.2c0.1,0,0.4,0.1,0.9,0.2l2.3-5.9c0.1-0.2,0.2-0.4,0.3-0.6l-5.5,4.6c-0.2,0.2-0.4,0.2-0.6,0.1
		l-0.2-0.1c-0.2-0.1-0.3-0.2-0.3-0.5l-1-7.1C151.3,29.4,151.3,29.7,151.2,29.9z"/>
	<path d="M168.5,46.3l-0.3,0.5l-2.4-1.5l0.3-0.5c0.1-0.1,0.2-0.1,0.3-0.1l0.6,0.2l0.4-2.1l-3.6-2.3l-1.8,1.3l0.4,0.4
		c0.1,0.1,0.1,0.2,0,0.3l-0.3,0.5l-2.4-1.5L160,41c0.1-0.1,0.2-0.1,0.3-0.1l0.6,0.2l8-5.7l1.2,0.7l-1.8,9.6l0.4,0.4
		C168.5,46.1,168.6,46.2,168.5,46.3z M167.6,41.7l0.8-4c0.1-0.3,0.1-0.6,0.3-1c-0.3,0.3-0.6,0.5-0.8,0.6l-3.3,2.4L167.6,41.7z"/>
	<path d="M183.6,47.2l-0.4,0.4c-0.1,0.1-0.2,0.1-0.3,0l-0.7-0.4l-3.5,3.7c-0.8,0.9-1.7,1.3-2.8,1.4c-1.1,0.1-2-0.3-2.9-1.1
		s-1.3-1.8-1.4-2.8c0-1,0.4-2,1.2-2.9l3.5-3.7c-0.3-0.4-0.4-0.6-0.5-0.7c-0.1-0.1-0.1-0.2,0-0.3l0.4-0.4l2.6,2.4l-0.4,0.4
		c-0.1,0.1-0.2,0.1-0.3,0c-0.1,0-0.3-0.2-0.8-0.5l-3.4,3.7c-0.6,0.6-0.9,1.3-0.9,2s0.3,1.4,0.9,1.9c0.6,0.6,1.3,0.8,2,0.7
		s1.3-0.4,1.9-1l3.5-3.7c-0.3-0.4-0.5-0.7-0.6-0.7c-0.1-0.1-0.1-0.2,0-0.3l0.4-0.4l0.8,0.8l1,0.9L183.6,47.2z"/>
	<path d="M186.5,59.5l-0.9,0.6l-2-2.8l0.9-0.6L186.5,59.5z"/>
</g>
<g>
	<path class="st0" d="M65.5,83c0,35.3,28.7,64,64,64s64-28.7,64-64"/>
	<path d="M89.2,129.6c-0.5,0.5-1.1,0.8-1.8,0.8c-0.7,0-1.4-0.4-2.1-1l-2.9-2.7l0.4-0.4c0.1-0.1,0.2-0.1,0.3,0l0.6,0.4l4.7-5
		c-0.2-0.3-0.4-0.5-0.4-0.6c-0.1-0.1-0.1-0.2,0-0.3l0.4-0.4l2.6,2.5c1.1,1,1.5,2,1.2,2.9c-0.1,0.3-0.3,0.5-0.4,0.7s-0.4,0.4-0.6,0.5
		s-0.4,0.2-0.6,0.2c-0.4,0.1-0.9,0-1.4-0.3C90,127.9,90,128.8,89.2,129.6z M87.9,129.2c0.2-0.1,0.3-0.2,0.5-0.4
		c0.3-0.3,0.4-0.7,0.4-1.1s-0.3-0.8-0.8-1.3l-1.4-1.3l-2,2.2l1.4,1.3C86.7,129.3,87.3,129.5,87.9,129.2z M87.2,124.6l1.1,1.1
		c0.7,0.7,1.3,0.9,1.9,0.6c0.2-0.1,0.3-0.2,0.5-0.4c0.3-0.4,0.5-0.7,0.4-1.1s-0.3-0.8-0.8-1.2l-1.2-1.1L87.2,124.6z"/>
	<path d="M99.6,129.7l-1.2,1.7l-0.5-0.3c-0.1-0.1-0.1-0.2-0.1-0.3c0,0,0.2-0.3,0.5-0.8l-2.6-1.8l-1.6,2.3l2.6,1.8l-0.5,0.7l-2.6-1.8
		l-1.7,2.4l2.6,1.8c0.3-0.4,0.5-0.6,0.6-0.7c0.1-0.1,0.2-0.1,0.3,0l0.5,0.3l-1.1,1.6l-5.1-3.5l0.3-0.4c0.1-0.1,0.2-0.1,0.3-0.1
		l0.6,0.3l3.9-5.6c-0.3-0.3-0.4-0.4-0.5-0.5s-0.1-0.2,0-0.3l0.3-0.4L99.6,129.7z"/>
	<path d="M104.1,141.2l-0.2,0.5l-0.2-0.1l-0.6-0.3l-0.3-0.2c-0.2-0.1-0.3-0.2-0.3-0.4l-0.7-3.7c0-0.1-0.1-0.2-0.1-0.3
		s-0.2-0.1-0.3-0.2l-0.7-0.3l-1.2,2.4c0,0,0.5,0.4,0.6,0.4s0.1,0.2,0.1,0.3l-0.2,0.5l-0.8-0.4l0,0l-1-0.5l-0.8-0.4l0.2-0.5
		c0-0.1,0.2-0.1,0.3-0.1c0.1,0,0.7,0.2,0.7,0.2l3-6.1c0,0-0.5-0.4-0.6-0.4c-0.1-0.1-0.1-0.2-0.1-0.3l0.2-0.5l0.8,0.4l2.1,1
		c0.5,0.2,0.9,0.5,1.2,0.8c0.3,0.3,0.5,0.6,0.7,0.9c0.1,0.3,0.2,0.6,0.2,0.9c0,0.3-0.1,0.6-0.3,1c-0.1,0.3-0.3,0.5-0.5,0.7
		s-0.4,0.3-0.7,0.5s-0.5,0.2-0.8,0.2s-0.6,0-0.9-0.1c0.1,0.1,0.2,0.3,0.2,0.5l0.6,3.1c0.1,0,0.5,0.4,0.5,0.4
		C104.1,141,104.1,141.1,104.1,141.2z M102.9,136.2c0.3,0,0.5,0,0.7,0c0.2-0.1,0.4-0.2,0.6-0.3s0.3-0.3,0.4-0.6
		c0.2-0.5,0.2-0.9,0.1-1.3c-0.2-0.4-0.6-0.7-1.2-1l-1-0.5l-1.4,2.9l1,0.5C102.3,136,102.6,136.1,102.9,136.2z"/>
	<path d="M110.1,137.5l-1.4,5.3c0.4,0.2,0.6,0.3,0.7,0.4s0.1,0.1,0.1,0.3l-0.1,0.5l-2.8-0.8l0.1-0.5c0-0.1,0.1-0.2,0.2-0.2h0.7
		l1.8-6.6c-0.4-0.2-0.6-0.3-0.6-0.3c-0.1-0.1-0.1-0.1-0.1-0.3l0.1-0.5l1.7,0.5c0.1,0,0.2,0.1,0.2,0.1s0.1,0.1,0.1,0.2l1.5,5.9
		c0,0.1,0.1,0.4,0.1,0.7c0.1-0.2,0.3-0.4,0.4-0.5l4.2-4.3c0.1-0.1,0.1-0.1,0.2-0.1s0.1,0,0.2,0l1.7,0.5l-0.1,0.5
		c0,0.1-0.1,0.2-0.2,0.2c-0.5,0-0.7,0-0.7,0l-1.8,6.6c0.4,0.2,0.6,0.3,0.6,0.3c0.1,0.1,0.2,0.1,0.1,0.3l-0.1,0.5l-2.8-0.8l0.1-0.5
		c0-0.1,0.1-0.2,0.2-0.2s0.4,0,0.8,0.1l1.4-5.3c0-0.2,0.1-0.4,0.2-0.5l-4.3,4.4c-0.1,0.1-0.3,0.2-0.5,0.2h-0.2
		c-0.2,0-0.3-0.2-0.3-0.4l-1.5-6C110.2,137.1,110.1,137.3,110.1,137.5z"/>
	<path d="M128.7,146.6v0.5l-2.5-0.2v-0.5c0-0.1,0.1-0.2,0.2-0.2l0.5-0.1l-0.6-1.8l-3.7-0.2l-0.8,1.7l0.5,0.2c0.1,0,0.2,0.1,0.1,0.2
		v0.5l-2.5-0.2V146c0-0.1,0.1-0.2,0.2-0.2l0.5-0.1l3.6-7.6l1.2,0.1l2.6,8l0.5,0.2C128.6,146.4,128.7,146.5,128.7,146.6z M126,143.5
		l-1.1-3.4c-0.1-0.2-0.1-0.5-0.2-0.8c-0.1,0.3-0.2,0.6-0.3,0.8l-1.5,3.2L126,143.5z"/>
	<path d="M138.2,143.9l-0.6-5.2c-0.5,0-0.7,0-0.8,0s-0.2-0.1-0.2-0.2l-0.1-0.5l1-0.1l1-0.1l0.9-0.1l0.1,0.5c0,0.1,0,0.2-0.2,0.2
		l-0.7,0.2l0.9,7.7l-0.6,0.1c-0.2,0-0.3,0-0.4-0.2l-5.7-5.9c0,0.2,0.1,0.4,0.1,0.6l0.6,5.2c0.5,0,0.7,0,0.8,0s0.2,0.1,0.2,0.2
		l0.1,0.5l-2.8,0.3l-0.1-0.5c0-0.1,0-0.2,0.2-0.2l0.7-0.2l-0.8-6.8c-0.4,0-0.6-0.1-0.7-0.1c-0.1,0-0.2-0.1-0.2-0.2l-0.1-0.5l1.5-0.2
		c0.1,0,0.2,0,0.2,0c0.1,0,0.1,0.1,0.2,0.1l5.7,5.9C138.2,144.3,138.2,144.1,138.2,143.9z"/>
	<path d="M146.9,135.7l0.6,2l-0.6,0.2c-0.1,0-0.2,0-0.3-0.1c0,0-0.1-0.3-0.3-0.9l-3.3,0.9l0.8,2.9l3.1-0.9l0.3,0.9l-3.1,0.9l0.8,2.7
		c0.1,0,0.3,0,0.7-0.1c0.1,0,0.2,0,0.2,0.2l0.1,0.5l-2.8,0.8l-0.1-0.5c0-0.1,0-0.2,0.1-0.3l0.6-0.3l-1.9-6.6c-0.4,0-0.6,0.1-0.7,0.1
		c-0.1,0-0.2,0-0.2-0.2l-0.1-0.5l0.8-0.2L146.9,135.7z"/>
	<path d="M159.6,139l0.2,0.4l-2.2,1.1l-0.2-0.4c0-0.1,0-0.2,0.1-0.3l0.4-0.3l-1.4-1.3l-3.4,1.6l0.1,1.9l0.5-0.1c0.1,0,0.2,0,0.2,0.1
		l0.2,0.4l-2.2,1.1l-0.2-0.4c0-0.1,0-0.2,0.1-0.2l0.4-0.3l-0.5-8.4l1.1-0.5l6.1,5.7l0.5-0.1C159.5,138.9,159.6,138.9,159.6,139z
		 M155.8,137.6l-2.6-2.4c-0.2-0.2-0.4-0.4-0.6-0.6c0.1,0.4,0.1,0.6,0.1,0.8l0.3,3.5L155.8,137.6z"/>
	<path d="M169.2,132.7l0.3,0.4l-2,1.4l-0.3-0.4c-0.1-0.1-0.1-0.2,0-0.3l0.3-0.4l-1.6-1l-3,2.2l0.5,1.8l0.5-0.2c0.1,0,0.2,0,0.3,0.1
		l0.3,0.4l-2,1.4l-0.3-0.4c-0.1-0.1-0.1-0.2,0-0.3l0.3-0.4l-2-8.1l1-0.7l7.1,4.5l0.5-0.2C169,132.6,169.1,132.6,169.2,132.7z
		 M165.2,132l-3-1.9c-0.2-0.1-0.4-0.3-0.7-0.5c0.1,0.3,0.2,0.6,0.3,0.8l0.9,3.4L165.2,132z"/>
	<path d="M170.6,120.3l1.4,1.3l-0.4,0.4c-0.1,0.1-0.2,0.1-0.3,0.1s-0.3-0.2-0.6-0.5l-1.4,1.4l4.8,4.8c0,0,0,0,0.1-0.1
		c0.3-0.2,0.4-0.3,0.5-0.3s0.2,0,0.2,0.1l0.4,0.4l-2,2.1l-0.4-0.4c-0.1-0.1-0.1-0.2,0-0.3s0.2-0.3,0.4-0.6l-4.8-4.8l-1.4,1.4
		c0.3,0.4,0.4,0.6,0.5,0.6s0,0.2-0.1,0.2l-0.4,0.4l-1.4-1.3l4.6-4.6L170.6,120.3L170.6,120.3z"/>
</g>
<g>
	<path d="M115,111.1v0.4v0.9h-0.4c-0.1,0-0.2,0-0.2-0.1c0,0,0-0.2-0.1-0.7c-0.3-0.1-0.6-0.1-0.8-0.1l0,0c-0.3,0-0.5,0.1-0.7,0.2
		s-0.3,0.3-0.3,0.5s0,0.3,0.1,0.4c0.1,0.2,0.3,0.3,0.6,0.3c0.3,0.1,0.5,0.1,0.6,0.2c0.2,0.1,0.3,0.1,0.5,0.2s0.3,0.1,0.4,0.2
		c0.3,0.2,0.4,0.5,0.4,0.9c0,0.5-0.1,0.9-0.5,1.2c-0.3,0.3-0.8,0.5-1.3,0.5s-1.1-0.1-1.6-0.2v-1.3h0.4c0.1,0,0.1,0,0.2,0.1
		c0,0,0,0.2,0.1,0.6c0.3,0.1,0.6,0.2,1,0.2c0.3,0,0.6-0.1,0.8-0.3c0.2-0.2,0.2-0.3,0.2-0.5s0-0.3-0.1-0.4s-0.2-0.2-0.3-0.2
		c-0.1-0.1-0.3-0.1-0.4-0.2c-0.4-0.1-0.8-0.2-0.9-0.3c-0.2-0.1-0.3-0.2-0.5-0.3c-0.3-0.2-0.4-0.5-0.4-0.9s0.1-0.8,0.5-1
		c0.3-0.3,0.8-0.5,1.4-0.5C114,110.8,114.5,110.9,115,111.1z"/>
	<path d="M120.1,111c0.3,0.1,0.5,0.2,0.7,0.4s0.3,0.4,0.5,0.7c0.1,0.3,0.2,0.6,0.2,1c0,0.1,0,0.2,0,0.3s-0.1,0.1-0.2,0.1l-3.4,0.1
		c0,0.3,0.1,0.6,0.1,0.8c0.1,0.2,0.2,0.4,0.3,0.6c0.1,0.2,0.3,0.3,0.5,0.3c0.2,0.1,0.4,0.1,0.7,0.1c0.2,0,0.4,0,0.6-0.1
		s0.3-0.1,0.4-0.2s0.2-0.1,0.3-0.2c0.1-0.1,0.1-0.1,0.2-0.1s0.1,0,0.2,0.1l0.3,0.3c-0.1,0.1-0.2,0.3-0.4,0.4
		c-0.2,0.1-0.3,0.2-0.5,0.3c-0.2,0.1-0.4,0.1-0.5,0.2s-0.4,0.1-0.6,0.1c-0.4,0-0.7,0-1-0.2c-0.3-0.1-0.6-0.3-0.8-0.5
		c-0.2-0.2-0.4-0.5-0.5-0.8s-0.2-0.7-0.2-1.2c0-0.4,0-0.7,0.1-1s0.3-0.6,0.5-0.8c0.2-0.2,0.4-0.4,0.7-0.5s0.6-0.2,1-0.2
		C119.5,110.8,119.8,110.9,120.1,111z M118.2,111.9c-0.2,0.3-0.4,0.6-0.4,1l2.8-0.1c0-0.2,0-0.4-0.1-0.6s-0.1-0.3-0.3-0.4
		c-0.1-0.1-0.2-0.2-0.4-0.3c-0.2-0.1-0.3-0.1-0.5-0.1C118.8,111.5,118.5,111.6,118.2,111.9z"/>
	<path d="M126.1,110.9c0.3,0,0.6,0.1,0.8,0.3c0.2,0.2,0.4,0.4,0.5,0.8c0.1-0.4,0.3-0.6,0.6-0.8c0.3-0.2,0.6-0.3,0.9-0.3
		c0.3,0,0.6,0,0.8,0.1s0.4,0.2,0.5,0.4c0.3,0.3,0.5,0.8,0.5,1.4v2.5c0.3,0.1,0.5,0.1,0.6,0.1s0.2,0.1,0.2,0.2v0.4h-1.6l-0.1-3.2
		c0-0.4-0.1-0.7-0.3-0.9c-0.2-0.2-0.4-0.3-0.8-0.3c-0.3,0-0.6,0.1-0.8,0.3c-0.2,0.2-0.3,0.5-0.3,0.9v2.5c0.1,0,0.2,0,0.6,0.1
		c0.1,0,0.2,0.1,0.2,0.2v0.4h-1.6l-0.1-3.2c0-0.8-0.3-1.2-1-1.2c-0.4,0-0.8,0.2-1.1,0.7l0.1,3h0.3c0.2,0,0.3,0.1,0.3,0.1
		c0.1,0,0.2,0.1,0.2,0.2v0.4h-2.3v-0.4c0-0.1,0-0.2,0.1-0.2l0.6-0.1l-0.1-3.6c-0.3-0.1-0.5-0.1-0.6-0.1s-0.2-0.1-0.2-0.2V111h0.7
		h0.5c0.1,0,0.2,0.1,0.2,0.2l0.1,0.5C125.1,111.1,125.5,110.9,126.1,110.9z"/>
	<path d="M136.5,111c0.3,0.1,0.6,0.3,0.8,0.5s0.4,0.5,0.5,0.8s0.2,0.7,0.2,1.1s0,0.8-0.1,1.1c-0.1,0.3-0.3,0.6-0.5,0.8
		c-0.2,0.2-0.5,0.4-0.8,0.5s-0.6,0.2-1,0.2s-0.7,0-1-0.2s-0.6-0.3-0.8-0.5s-0.4-0.5-0.5-0.8s-0.2-0.7-0.2-1.1s0-0.8,0.1-1.1
		s0.3-0.6,0.5-0.8c0.2-0.2,0.5-0.4,0.8-0.5s0.6-0.2,1-0.2C135.8,110.8,136.2,110.9,136.5,111z M136.6,114.8c0.2-0.3,0.4-0.8,0.3-1.4
		c0-0.6-0.1-1.1-0.4-1.4c-0.3-0.3-0.6-0.5-1.1-0.5c-0.3,0-0.5,0.1-0.7,0.1s-0.3,0.2-0.5,0.4s-0.2,0.4-0.3,0.6s-0.1,0.5-0.1,0.8
		s0,0.6,0.1,0.8c0.1,0.2,0.2,0.4,0.3,0.6s0.3,0.3,0.5,0.4s0.4,0.1,0.7,0.1C136,115.4,136.4,115.2,136.6,114.8z"/>
	<path d="M142.2,110.9c0.2,0,0.4,0.1,0.5,0.2h1.4v0.3c0,0.1-0.1,0.2-0.2,0.2l-0.6,0.1c0.1,0.2,0.2,0.5,0.2,0.7s0,0.5-0.1,0.7
		s-0.2,0.4-0.4,0.5s-0.4,0.3-0.6,0.3s-0.5,0.1-0.8,0.1c-0.2,0-0.5,0-0.7-0.1c-0.1,0.1-0.2,0.1-0.2,0.2s-0.1,0.2-0.1,0.2
		c0,0.1,0.1,0.2,0.1,0.3c0.1,0.1,0.2,0.1,0.4,0.1s0.3,0,0.5,0s0.4,0,0.6,0c0.2,0,0.4,0,0.6,0.1c0.2,0,0.4,0.1,0.5,0.2
		s0.3,0.2,0.4,0.3c0.1,0.1,0.1,0.3,0.2,0.6c0,0.2,0,0.4-0.1,0.6s-0.3,0.4-0.5,0.6s-0.4,0.3-0.7,0.4s-0.6,0.2-1,0.2s-0.7,0-1-0.1
		s-0.5-0.2-0.7-0.3c-0.2-0.1-0.3-0.3-0.4-0.4c-0.1-0.2-0.1-0.3-0.1-0.5c0-0.3,0.1-0.5,0.2-0.6c0.2-0.2,0.4-0.3,0.6-0.4
		c-0.1-0.1-0.3-0.2-0.3-0.3s-0.1-0.3-0.1-0.4s0-0.2,0-0.2c0-0.1,0.1-0.2,0.1-0.2c0.1-0.1,0.1-0.2,0.2-0.2c0.1-0.1,0.2-0.1,0.3-0.2
		c-0.3-0.1-0.5-0.3-0.6-0.5s-0.2-0.5-0.2-0.8c0-0.2,0-0.5,0.1-0.7s0.2-0.4,0.4-0.5s0.4-0.3,0.6-0.3s0.5-0.1,0.8-0.1
		C141.8,110.8,142,110.9,142.2,110.9z M143.1,115.9c-0.1-0.1-0.2-0.1-0.3-0.2c-0.1,0-0.3-0.1-0.4-0.1c-0.2,0-0.3,0-0.5,0
		s-0.4,0-0.5,0c-0.2,0-0.4,0-0.5,0c-0.2,0.1-0.3,0.2-0.5,0.3c-0.1,0.1-0.2,0.3-0.2,0.5c0,0.1,0,0.2,0.1,0.3c0.1,0.1,0.2,0.2,0.3,0.3
		c0.1,0.1,0.3,0.1,0.5,0.2c0.2,0,0.4,0.1,0.6,0.1c0.2,0,0.5,0,0.6-0.1s0.4-0.1,0.5-0.2s0.2-0.2,0.3-0.3s0.1-0.2,0.1-0.4
		C143.3,116.1,143.2,116,143.1,115.9z M142.1,113.4c0.1-0.1,0.3-0.1,0.3-0.2s0.2-0.2,0.2-0.3c0-0.1,0.1-0.3,0.1-0.4
		c0-0.3-0.1-0.6-0.3-0.7c-0.2-0.2-0.5-0.3-0.8-0.3c-0.4,0-0.6,0.1-0.8,0.3c-0.2,0.2-0.3,0.4-0.3,0.7c0,0.2,0,0.3,0.1,0.4
		s0.1,0.2,0.2,0.3c0.1,0.1,0.2,0.2,0.3,0.2s0.3,0.1,0.5,0.1S142,113.5,142.1,113.4z"/>
	<path d="M150.5,115.5v0.4h-0.6h-0.1h-0.3c-0.1,0-0.2,0-0.2,0c-0.1,0-0.1-0.1-0.1-0.2l-0.1-0.5c-0.1,0.1-0.3,0.2-0.4,0.3
		c-0.1,0.1-0.3,0.2-0.4,0.2s-0.3,0.1-0.4,0.2s-0.3,0.1-0.5,0.1s-0.4,0-0.6-0.1c-0.2-0.1-0.3-0.1-0.5-0.2s-0.2-0.2-0.3-0.4
		c-0.1-0.2-0.1-0.4-0.1-0.6s0-0.4,0.2-0.6c0.1-0.2,0.3-0.4,0.5-0.5s0.6-0.3,1-0.4s0.9-0.2,1.5-0.2v-0.4c0-0.4-0.1-0.7-0.3-0.9
		c-0.2-0.2-0.4-0.3-0.8-0.3c-0.2,0-0.4,0-0.5,0.1s-0.3,0.1-0.4,0.2s-0.2,0.1-0.3,0.2s-0.2,0.1-0.2,0.1c-0.1,0-0.1,0-0.2,0l-0.1-0.1
		l-0.2-0.3c0.3-0.3,0.6-0.5,0.9-0.6c0.3-0.1,0.7-0.2,1.1-0.2c0.3,0,0.5,0,0.8,0.1c0.2,0.1,0.4,0.2,0.6,0.4c0.2,0.2,0.3,0.4,0.4,0.6
		c0.1,0.2,0.1,0.5,0.1,0.8v2.5c0.1,0,0.4,0.1,0.5,0.1C150.4,115.3,150.5,115.4,150.5,115.5z M148.9,113.7c-0.4,0-0.8,0-1,0.1
		c-0.3,0.1-0.5,0.1-0.7,0.2s-0.3,0.2-0.4,0.3c-0.1,0.1-0.1,0.2-0.1,0.4c0,0.1,0,0.3,0.1,0.3s0.1,0.2,0.2,0.2
		c0.1,0.1,0.2,0.1,0.3,0.1s0.2,0,0.3,0c0.2,0,0.3,0,0.4-0.1c0.1,0,0.3-0.1,0.4-0.1c0.1-0.1,0.2-0.1,0.3-0.2s0.2-0.2,0.3-0.3
		L148.9,113.7z"/>
</g>
<path class="st1" d="M61.3,91.4c0.1,0,0.2,0.1,0.1,0.3l-0.1,0.2c0,0.1-0.1,0.2-0.1,0.3c0,0.1-0.1,0.2-0.1,0.3c0,0.2,0,0.4,0.1,0.7
	c0.1,0.5,0.4,1,0.7,1.4s0.7,0.7,1.1,1c0.4,0.3,0.9,0.5,1.5,0.6c0.5,0.1,1.1,0.2,1.7,0.2c0.5,0,1.1-0.1,1.6-0.2
	c0.6-0.1,1.1-0.2,1.6-0.4c0.2-0.1,0.5-0.2,0.8-0.4c0.3-0.1,0.6-0.3,0.9-0.5s0.6-0.4,0.8-0.6c0.3-0.2,0.5-0.4,0.7-0.6
	s0.4-0.5,0.5-0.7s0.2-0.5,0.2-0.7s0-0.4-0.1-0.6c-0.1-0.3-0.4-0.5-0.7-0.8c-0.4-0.2-0.7-0.4-1.2-0.5c-0.4-0.1-0.9-0.2-1.4-0.3
	c-0.5-0.1-1-0.2-1.4-0.3L68.2,90c-0.8-0.1-1.6-0.3-2.3-0.4s-1.5-0.4-2.2-0.7c-0.7-0.3-1.3-0.7-1.8-1.1c-0.5-0.5-0.9-1.1-1.1-1.8
	c-0.1-0.3-0.1-0.6-0.2-0.9c-0.1-0.3-0.1-0.6-0.1-0.9c0-0.5,0.1-1.1,0.2-1.8s0.3-1.4,0.6-2.1c0.3-0.9,0.7-1.7,1.3-2.5
	s1.1-1.5,1.8-2.2c0.7-0.7,1.4-1.2,2.1-1.6c0.8-0.4,1.6-0.7,2.4-0.8l0,0c0.3-0.1,0.5-0.1,0.7-0.2c0.2,0,0.4,0,0.7,0
	c0.6,0,1.2,0.1,1.8,0.3s1.2,0.5,1.7,0.9s1,0.8,1.5,1.3s0.8,1.1,1.2,1.7c0.3,0.6,0.6,1.2,0.8,1.9s0.3,1.3,0.3,2c0,0.1,0,0.3,0,0.4
	s0,0.3,0,0.4c-0.1,0.7-0.3,1.3-0.7,1.8c-0.3,0.6-0.8,1.1-1.2,1.5c-0.5,0.4-1,0.8-1.6,1s-1.1,0.4-1.7,0.4s-1.1-0.2-1.6-0.5
	s-0.8-0.9-1.1-1.5c0-0.1-0.1-0.3-0.1-0.4s0.1-0.2,0.2-0.3c0.1-0.1,0.2-0.1,0.3,0c0.1,0.1,0.2,0.2,0.3,0.4c0.2,0.5,0.4,0.8,0.7,1
	c0.3,0.2,0.6,0.3,0.9,0.3s0.7-0.1,1-0.3c0.3-0.2,0.6-0.5,0.9-0.8s0.5-0.8,0.6-1.3s0.2-1,0.2-1.6l0,0c0-0.5-0.1-1.1-0.3-1.7
	c-0.2-0.6-0.4-1.1-0.6-1.6s-0.6-1-0.9-1.5c-0.4-0.5-0.7-0.9-1.2-1.2s-0.9-0.6-1.3-0.8c-0.5-0.2-0.9-0.3-1.4-0.3
	c-0.8,0-1.5,0.2-2.1,0.5c-0.6,0.4-1.1,0.9-1.4,1.5c-0.4,0.6-0.7,1.3-0.9,2.1c-0.2,0.8-0.3,1.6-0.3,2.4c0,0.1,0,0.2,0,0.4
	c0,0.1,0,0.2,0,0.4c0,0.6,0,1.1,0.1,1.6s0.2,0.9,0.4,1.3c0.2,0.5,0.5,0.9,0.8,1.3s0.7,0.7,1.2,1c0.4,0.3,0.9,0.5,1.4,0.7
	s0.9,0.4,1.4,0.5l0.3,0.1c0.3,0.1,0.6,0.2,0.9,0.3c0.3,0.1,0.6,0.2,0.8,0.4c0.6,0.3,1.1,0.7,1.6,1.1c0.5,0.5,0.8,1.1,1.1,1.7
	c0.1,0.5,0.2,1,0.2,1.4c0,0.6-0.1,1.3-0.4,1.8c-0.2,0.6-0.6,1.2-1,1.7s-0.9,1-1.4,1.4s-1.1,0.7-1.7,1c-0.9,0.4-1.9,0.6-3,0.6
	c-0.6,0-1.2-0.1-1.8-0.2s-1.1-0.3-1.7-0.5s-1-0.5-1.5-0.8s-0.8-0.7-1.2-1.1s-0.6-0.8-0.7-1.3c-0.2-0.5-0.2-1-0.2-1.5
	c0-0.2,0.1-0.4,0.1-0.7s0.2-0.6,0.3-0.8s0.3-0.5,0.4-0.7S61.1,91.4,61.3,91.4z M84.7,88c-0.3,0.5-0.5,0.9-0.9,1.5
	c-0.3,0.5-0.7,1-1.1,1.4s-0.9,0.8-1.4,1s-1.1,0.4-1.8,0.4c-0.5,0-0.9-0.1-1.3-0.3c-0.4-0.2-0.6-0.5-0.9-0.8
	c-0.2-0.4-0.4-0.8-0.5-1.2s-0.1-0.9-0.1-1.4c0-0.1,0-0.2,0-0.4c0-0.1,0-0.2,0-0.4l0,0c0-0.5,0.1-1.1,0.3-1.6
	c0.1-0.6,0.3-1.1,0.6-1.6c0.2-0.5,0.5-1,0.8-1.5s0.6-0.9,1-1.2s0.7-0.6,1.2-0.8c0.4-0.2,0.8-0.3,1.3-0.3c0.4,0,0.8,0.1,1.1,0.3
	c0.3,0.2,0.6,0.4,0.8,0.7c0.2,0.3,0.4,0.6,0.5,1s0.2,0.7,0.1,1.1c-0.1,0.5-0.3,1-0.6,1.5c-0.3,0.5-0.7,0.9-1.2,1.2s-1,0.6-1.5,0.9
	c-0.5,0.2-1,0.4-1.5,0.5c0,0.2-0.1,0.3-0.1,0.5s0,0.4-0.1,0.5c0,0.1,0,0.2,0,0.2c0,0.1,0,0.2,0,0.2c0,0.2,0,0.4,0.1,0.6
	c0,0.2,0.1,0.4,0.2,0.5c0.1,0.2,0.2,0.3,0.4,0.4c0.2,0.1,0.3,0.2,0.6,0.2c0.4,0,0.7-0.1,1-0.3c0.3-0.2,0.6-0.5,0.9-0.8
	s0.5-0.7,0.8-1c0.2-0.4,0.4-0.7,0.6-1l0,0c0.2-0.4,0.4-0.8,0.6-1.2s0.4-0.7,0.5-1.1c0.1-0.1,0.2-0.3,0.3-0.5s0.2-0.3,0.3-0.5
	c0.1,0,0.2-0.1,0.2-0.1c0.1,0,0.2,0,0.2,0.1s0.1,0.1,0.1,0.2l-0.1,0.3c-0.2,0.4-0.4,0.8-0.6,1.3C85.3,87,85.1,87.5,84.7,88z
	 M83.6,82.8c-0.1-0.3-0.3-0.4-0.5-0.4s-0.4,0.1-0.6,0.3s-0.4,0.4-0.7,0.7s-0.4,0.6-0.6,0.9s-0.4,0.7-0.6,1s-0.3,0.7-0.4,1
	s-0.2,0.6-0.3,0.8c0.3,0,0.7-0.1,1.1-0.3c0.4-0.2,0.8-0.4,1.3-0.7c0.4-0.3,0.7-0.6,1-1s0.5-0.8,0.5-1.2
	C83.9,83.6,83.8,83.2,83.6,82.8z M90.7,76c0.2,0,0.4,0.1,0.6,0.2s0.3,0.3,0.4,0.5s0.2,0.5,0.2,0.7c0,0.3,0,0.5,0,0.7
	c-0.1,0.6-0.2,1.3-0.5,1.9s-0.6,1.3-1,1.9s-0.9,1.2-1.3,1.7c-0.5,0.6-1,1.1-1.5,1.5c-0.1,0.4-0.2,0.7-0.3,1c-0.1,0.3-0.1,0.7-0.2,1
	s-0.1,1-0.1,1.4c0,0.1,0,0.2,0,0.4s0,0.2,0,0.3c0,0.5,0.1,0.9,0.2,1.2s0.3,0.5,0.7,0.5c0.4,0,0.8-0.2,1.2-0.5s0.8-0.8,1.1-1.3
	c0.4-0.5,0.7-1.1,1-1.6c0.3-0.6,0.6-1.1,0.8-1.5c0.1-0.3,0.2-0.5,0.3-0.7c0.1-0.2,0.2-0.3,0.2-0.4c0,0,0.1,0,0.1-0.1h0.1
	c0.1,0,0.2,0,0.2,0.1C93,85,93,85,93,85.1l-0.5,1l0,0c-0.2,0.4-0.4,0.9-0.7,1.4s-0.5,0.9-0.7,1.4c-0.3,0.5-0.5,0.9-0.8,1.3
	s-0.6,0.8-0.9,1.1c-0.3,0.3-0.6,0.6-1,0.7c-0.3,0.2-0.7,0.3-1,0.3c-0.5,0-0.9-0.1-1.2-0.3s-0.5-0.5-0.7-0.8s-0.3-0.7-0.4-1.1
	c0-0.6-0.1-1.1-0.1-1.5c0-0.1,0-0.3,0-0.4s0-0.3,0-0.4l0,0c0-0.3,0.1-0.8,0.2-1.3s0.2-1.1,0.3-1.7s0.3-1.3,0.5-1.9s0.4-1.3,0.7-2
	c0.2-0.7,0.5-1.3,0.8-1.9s0.6-1.1,0.9-1.6s0.7-0.8,1.1-1.1C89.9,76.2,90.3,76,90.7,76z M90.9,77.2c-0.2,0-0.4,0.2-0.6,0.5
	s-0.5,0.8-0.8,1.4s-0.6,1.3-0.9,2.2C88.3,82.1,88,83,87.8,84c0.2-0.2,0.5-0.5,0.8-0.9c0.4-0.4,0.7-0.9,1.1-1.4s0.7-1.1,1-1.7
	s0.4-1.2,0.5-1.7c0-0.1,0-0.3,0-0.4s0-0.3,0-0.4s-0.1-0.2-0.1-0.3C91,77.2,91,77.2,90.9,77.2z M99.4,85.2c0,0-0.1,0.1-0.2,0.1
	s-0.2,0-0.2,0c-0.1,0-0.2-0.1-0.3-0.2c0-0.1,0.1-0.2,0.1-0.3c0-0.1,0-0.2,0.1-0.3c0-0.2,0-0.5-0.1-0.8s-0.1-0.5-0.2-0.7
	s-0.3-0.4-0.4-0.5s-0.4-0.2-0.7-0.2c-0.3,0-0.7,0.1-1,0.4s-0.7,0.6-1,1s-0.6,0.9-0.9,1.4s-0.5,1-0.7,1.6s-0.4,1-0.5,1.5
	C93.1,88.6,93,89,93,89.3c0,0.1,0,0.3,0,0.4s0,0.3,0.1,0.4s0.1,0.2,0.2,0.3s0.2,0.1,0.4,0.1c0.3,0,0.6-0.2,0.9-0.5s0.7-0.7,1-1.1
	s0.6-0.9,0.9-1.4s0.5-0.9,0.7-1.3c0-0.1,0.1-0.2,0.1-0.4c0.1-0.1,0.1-0.3,0.1-0.5c0-0.1,0-0.2,0.2-0.3s0.3-0.1,0.4-0.1
	c0.6,0,1,0.2,1.2,0.4c0.2,0.2,0.4,0.5,0.4,0.8s0,0.6-0.1,1s-0.2,0.7-0.2,1c0,0.1,0,0.2-0.1,0.3s0,0.3-0.1,0.5c0,0.2,0,0.4,0,0.6
	s0,0.3,0,0.5s0.1,0.2,0.1,0.2c0.1,0,0.2,0,0.3-0.1c0.2-0.2,0.5-0.5,0.7-0.9s0.5-0.8,0.8-1.2c0.3-0.4,0.5-0.8,0.7-1.3
	c0.2-0.4,0.4-0.8,0.6-1.2c0.1-0.2,0.2-0.4,0.3-0.7s0.2-0.4,0.3-0.5c0.1,0,0.1,0,0.2,0s0.2,0,0.2,0.1c0.1,0.1,0.1,0.1,0.1,0.2
	l-0.1,0.3c-0.1,0.3-0.3,0.6-0.5,0.9s-0.4,0.7-0.6,1.1s-0.4,0.8-0.7,1.2c-0.2,0.4-0.5,0.8-0.7,1.2s-0.5,0.7-0.7,1s-0.5,0.5-0.7,0.7
	s-0.4,0.3-0.7,0.4c-0.3,0.1-0.5,0.2-0.8,0.2s-0.6-0.1-0.8-0.4c-0.2-0.2-0.3-0.5-0.4-0.9c-0.1-0.3-0.1-0.7-0.2-1.1c0-0.4,0-0.7,0-0.9
	l0,0c0,0,0,0,0-0.1c-0.3,0.4-0.5,0.9-0.9,1.3c-0.3,0.4-0.6,0.8-1,1.1s-0.7,0.6-1.1,0.8C93.4,91.9,93,92,92.6,92s-0.7-0.1-1-0.2
	s-0.5-0.3-0.6-0.5s-0.3-0.5-0.3-0.8c-0.1-0.3-0.1-0.6-0.1-0.9c0-0.1,0-0.1,0-0.2s0-0.1,0-0.2c0.1-0.5,0.2-1,0.4-1.6
	c0.2-0.6,0.4-1.2,0.7-1.8c0.3-0.6,0.6-1.2,1-1.8c0.4-0.6,0.8-1.1,1.3-1.5s0.9-0.8,1.5-1.1s1-0.4,1.6-0.4c0.4,0,0.8,0.1,1.1,0.3
	s0.6,0.5,0.8,0.8c0.2,0.3,0.4,0.7,0.5,1.1s0.1,0.8,0.1,1.2C99.5,84.7,99.5,84.9,99.4,85.2L99.4,85.2z M113.6,82.3
	c0-0.1,0-0.2-0.1-0.2l0,0l0,0c-0.2,0-0.5,0.1-0.8,0.4s-0.6,0.6-0.9,1s-0.6,0.9-0.9,1.4s-0.6,1-0.9,1.4c-0.2,0.3-0.4,0.6-0.6,0.9
	s-0.3,0.5-0.5,0.7l0,0c-0.2,0.4-0.3,0.9-0.4,1.3s-0.2,0.8-0.2,1.1c0,0.3,0,0.5,0,0.8s0.1,0.5,0.2,0.7c0,0,0,0,0,0.1V92
	c0,0.1-0.1,0.2-0.3,0.2c-0.3,0-0.6-0.1-0.9-0.2c-0.2-0.1-0.4-0.3-0.6-0.5s-0.2-0.4-0.3-0.7c-0.1-0.3-0.1-0.5-0.1-0.8
	c0-0.1,0-0.1,0-0.2s0-0.2,0-0.2c0-0.4,0.1-0.8,0.2-1.2c0.1-0.4,0.2-0.9,0.4-1.3s0.3-0.9,0.4-1.3c0.2-0.4,0.3-0.8,0.5-1.2
	c0.2-0.5,0.4-1,0.5-1.4s0.2-0.7,0.2-0.9c0-0.2,0-0.3-0.1-0.3c-0.2,0-0.4,0.1-0.6,0.3c-0.2,0.2-0.5,0.4-0.7,0.7
	c-0.3,0.3-0.5,0.6-0.8,1s-0.5,0.8-0.8,1.1c-0.2,0.4-0.5,0.7-0.7,1.1c-0.2,0.3-0.4,0.6-0.5,0.8l0,0l-0.2,0.4l0,0
	c-0.1,0.4-0.3,0.8-0.4,1.3s-0.2,1-0.2,1.4c0,0.3,0,0.6,0,0.9c0,0.2,0.1,0.4,0.1,0.6c0,0.1,0,0.2,0,0.2c0,0.1-0.1,0.2-0.3,0.2
	c-0.3,0-0.6-0.1-0.9-0.2c-0.2-0.1-0.4-0.3-0.5-0.6c-0.1-0.2-0.2-0.5-0.3-0.8s-0.1-0.6-0.1-0.9c0-0.1,0-0.2,0-0.3s0-0.2,0-0.3
	c0.1-0.7,0.2-1.3,0.3-2c0.1-0.7,0.3-1.3,0.5-2c0.1-0.5,0.2-1,0.4-1.5c0.1-0.5,0.2-0.9,0.2-1.2c0-0.2,0-0.3,0-0.4s0-0.2-0.1-0.3v-0.1
	v-0.1c0-0.1,0.1-0.2,0.2-0.3s0.2-0.1,0.4-0.1c0.4,0,0.7,0.1,0.9,0.2c0.2,0.1,0.4,0.3,0.5,0.5s0.2,0.4,0.2,0.6s0,0.5,0,0.7
	c0,0.3-0.1,0.5-0.1,0.8s-0.1,0.5-0.2,0.7c0,0.2-0.1,0.3-0.1,0.3c0,0.1,0,0.1-0.1,0.3c0.1-0.2,0.2-0.3,0.4-0.5
	c0.1-0.2,0.2-0.4,0.4-0.6c0.3-0.4,0.5-0.8,0.8-1.2c0.3-0.4,0.6-0.8,0.9-1.1s0.6-0.6,1-0.8s0.7-0.3,1.1-0.3c0.3,0,0.5,0.1,0.7,0.2
	s0.3,0.2,0.4,0.4s0.2,0.4,0.2,0.6s0,0.4,0,0.7c0,0.3-0.1,0.7-0.2,1.1s-0.2,0.8-0.4,1.2c0-0.1,0.1-0.1,0.1-0.2s0.1-0.1,0.1-0.2
	c0.3-0.4,0.5-0.8,0.8-1.3s0.6-0.8,0.9-1.1c0.3-0.3,0.6-0.6,1-0.8c0.3-0.2,0.7-0.3,1.1-0.3c0.3,0,0.5,0,0.7,0.1s0.3,0.2,0.4,0.4
	c0.1,0.2,0.2,0.4,0.2,0.6s0,0.5,0,0.7c0,0.5-0.2,1.2-0.4,1.8s-0.4,1.3-0.7,2c-0.2,0.6-0.4,1.2-0.6,1.8s-0.3,1.1-0.3,1.5
	c0,0.1,0,0.2,0,0.3s0,0.2,0,0.4c0,0.1,0.1,0.2,0.1,0.3c0,0.1,0.1,0.1,0.2,0.1s0.3-0.1,0.5-0.4s0.5-0.5,0.7-0.9s0.5-0.8,0.8-1.2
	c0.3-0.4,0.5-0.9,0.7-1.3s0.4-0.8,0.6-1.1c0.2-0.3,0.3-0.6,0.4-0.7v-0.1V85l0,0c0-0.1,0.1-0.2,0.1-0.2c0-0.1,0.1-0.1,0.2-0.1
	s0.2,0,0.2,0.1c0.1,0.1,0.1,0.1,0.1,0.2l-0.4,0.9c-0.2,0.4-0.4,0.8-0.6,1.3s-0.5,0.9-0.7,1.4c-0.3,0.5-0.5,0.9-0.8,1.3
	s-0.6,0.8-0.9,1.1c-0.3,0.3-0.6,0.6-0.9,0.8c-0.3,0.2-0.6,0.3-0.9,0.3c-0.7,0-1.1-0.2-1.4-0.5s-0.4-0.8-0.4-1.4c0-0.1,0-0.1,0-0.2
	s0-0.2,0-0.2c0-0.4,0.1-0.8,0.2-1.2c0.1-0.4,0.2-0.9,0.4-1.3c0.1-0.4,0.3-0.9,0.4-1.3c0.2-0.4,0.3-0.8,0.5-1.2
	c0.2-0.5,0.4-1,0.5-1.4C113.5,82.8,113.6,82.5,113.6,82.3z M124.8,85.2c0,0-0.1,0.1-0.2,0.1s-0.2,0-0.2,0c-0.1,0-0.2-0.1-0.3-0.2
	c0-0.1,0.1-0.2,0.1-0.3c0-0.1,0-0.2,0.1-0.3c0-0.2,0-0.5-0.1-0.8s-0.1-0.5-0.2-0.7s-0.3-0.4-0.4-0.5s-0.4-0.2-0.7-0.2
	c-0.3,0-0.7,0.1-1,0.4s-0.7,0.6-1,1s-0.6,0.9-0.9,1.4s-0.5,1-0.7,1.6s-0.4,1-0.5,1.5s-0.2,0.8-0.2,1.1c0,0.1,0,0.3,0,0.4
	s0,0.3,0.1,0.4s0.1,0.2,0.2,0.3s0.2,0.1,0.4,0.1c0.3,0,0.6-0.2,0.9-0.5s0.7-0.7,1-1.1s0.6-0.9,0.9-1.4s0.5-0.9,0.7-1.3
	c0-0.1,0.1-0.2,0.1-0.4c0.1-0.1,0.1-0.3,0.1-0.5c0-0.1,0-0.2,0.2-0.3s0.3-0.1,0.4-0.1C124.2,84.9,124.6,85.1,124.8,85.2
	c0.2,0.3,0.4,0.6,0.4,0.9s0,0.6-0.1,1s-0.2,0.7-0.2,1c0,0.1,0,0.2-0.1,0.3s0,0.3-0.1,0.5c0,0.2,0,0.4,0,0.6s0,0.3,0,0.5
	s0.1,0.2,0.1,0.2c0.1,0,0.2,0,0.3-0.1c0.2-0.2,0.5-0.5,0.7-0.9s0.5-0.8,0.8-1.2c0.3-0.4,0.5-0.8,0.7-1.3c0.2-0.4,0.4-0.8,0.6-1.2
	c0.1-0.2,0.2-0.4,0.3-0.7c0.1-0.2,0.2-0.4,0.3-0.5c0.1,0,0.1,0,0.2,0c0.1,0,0.2,0,0.2,0.1c0.1,0.1,0.1,0.1,0.1,0.2l-0.1,0.3
	c-0.1,0.3-0.3,0.6-0.5,0.9s-0.4,0.7-0.6,1.1s-0.4,0.8-0.7,1.2c-0.2,0.4-0.5,0.8-0.7,1.2s-0.5,0.7-0.7,1s-0.5,0.5-0.7,0.7
	s-0.4,0.3-0.7,0.4c-0.3,0.1-0.5,0.2-0.8,0.2s-0.6-0.1-0.8-0.4c-0.2-0.2-0.3-0.5-0.4-0.9c-0.1-0.3-0.1-0.7-0.2-1.1c0-0.4,0-0.7,0-0.9
	l0,0c0,0,0,0,0-0.1c-0.3,0.4-0.5,0.9-0.9,1.3c-0.3,0.4-0.6,0.8-1,1.1s-0.7,0.6-1.1,0.8c-0.4,0.2-0.8,0.3-1.2,0.3
	c-0.4,0-0.7-0.1-1-0.2s-0.5-0.3-0.6-0.5s-0.3-0.5-0.3-0.8c-0.1-0.3-0.1-0.6-0.1-0.9c0-0.1,0-0.1,0-0.2s0-0.1,0-0.2
	c0.1-0.5,0.2-1,0.4-1.6c0.2-0.6,0.4-1.2,0.7-1.8c0.3-0.6,0.6-1.2,1-1.8c0.4-0.6,0.8-1.1,1.3-1.5s0.9-0.8,1.5-1.1s1-0.4,1.6-0.4
	c0.4,0,0.8,0.1,1.1,0.3s0.6,0.5,0.8,0.8c0.2,0.3,0.4,0.7,0.5,1.1s0.1,0.8,0.1,1.2C124.9,84.7,124.9,84.9,124.8,85.2L124.8,85.2z
	 M132,77.7c0,0.3-0.1,0.5-0.1,0.8c-0.1,0.3-0.1,0.6-0.2,0.9c0.4,0,0.8,0,1.2,0.1c0.4,0,0.8,0.1,1.1,0.3c0.3,0.1,0.6,0.3,0.9,0.6
	c0.3,0.2,0.5,0.5,0.6,0.9l0,0c0,0.1,0,0.2,0,0.2c-0.1,0.1-0.2,0.1-0.3,0.1c-0.4-0.4-0.9-0.7-1.5-0.8c-0.6-0.1-1.2-0.2-1.9-0.2h-0.4
	c-0.1,0.4-0.2,0.9-0.3,1.3s-0.2,0.9-0.3,1.3l-0.3,1.1v0.2c-0.1,0.3-0.2,0.6-0.3,1s-0.2,0.9-0.3,1.4s-0.2,1-0.3,1.5s-0.1,1-0.1,1.4
	c0,0.3,0,0.5,0.1,0.7s0.1,0.3,0.2,0.4c0.1,0.1,0.2,0.1,0.4,0s0.4-0.2,0.7-0.4c0.3-0.2,0.6-0.5,0.9-0.9s0.6-0.8,0.8-1.2
	c0.3-0.4,0.5-0.8,0.7-1.3c0.2-0.4,0.4-0.8,0.6-1.2l0,0c0.1-0.3,0.3-0.5,0.4-0.7c0.1-0.2,0.2-0.4,0.3-0.5c0,0,0.1,0,0.2,0
	c0.2,0,0.3,0.1,0.3,0.3l-0.5,1.1l0,0c-0.3,0.6-0.6,1.3-1,2s-0.8,1.4-1.2,2s-0.9,1.1-1.3,1.5c-0.5,0.4-1,0.6-1.5,0.6
	c-0.9,0-1.5-0.2-1.8-0.6s-0.5-1-0.5-1.8c0-0.1,0-0.2,0-0.3s0-0.2,0-0.3c0-0.3,0.1-0.8,0.2-1.3s0.2-1.2,0.4-1.9
	c0.1-0.7,0.3-1.4,0.5-2.1s0.3-1.5,0.5-2.2l0.2-0.8c-0.3,0-0.6,0.1-0.9,0.1c-0.3,0-0.6,0-0.9,0c-0.6,0-1.1-0.1-1.5-0.2
	s-0.8-0.4-0.9-0.8c0,0,0-0.1,0-0.2s0-0.1,0-0.2l0.1-0.1c0.1,0,0.1,0,0.2,0.1l0,0c0.3,0.1,0.6,0.2,0.9,0.3c0.3,0,0.7,0.1,1.1,0.1
	c0.3,0,0.7,0,1.1-0.1c0.4,0,0.8-0.1,1.2-0.1c0.1-0.6,0.3-1.1,0.3-1.6c0.1-0.5,0.2-0.8,0.2-1s0-0.3,0-0.4s0-0.2-0.1-0.3v-0.1v-0.1
	c0-0.1,0.1-0.2,0.2-0.3c0.1,0,0.2-0.1,0.4-0.1c0.4,0,0.7,0.1,0.9,0.2s0.4,0.3,0.5,0.5s0.2,0.4,0.2,0.6C132,77.2,132,77.4,132,77.7z
	 M148.6,92.1c-0.8,0-1.4-0.2-1.8-0.6s-0.5-1-0.5-1.8c0-0.1,0-0.2,0-0.3s0-0.2,0-0.3c0-0.1,0-0.1,0-0.2v-0.1v-0.1c0-0.1,0-0.1,0-0.2
	c-0.3,0.4-0.6,0.9-0.9,1.3c-0.3,0.4-0.7,0.8-1,1.2s-0.7,0.6-1.1,0.8c-0.4,0.2-0.8,0.3-1.2,0.3s-0.7-0.1-1-0.2s-0.5-0.3-0.6-0.5
	s-0.3-0.5-0.3-0.8s-0.1-0.6-0.1-0.9c0-0.1,0-0.2,0-0.2v-0.2c0.1-0.5,0.2-1,0.4-1.6s0.4-1.2,0.7-1.8c0.3-0.6,0.6-1.2,1-1.8
	c0.4-0.6,0.8-1.1,1.3-1.5s0.9-0.8,1.5-1.1s1-0.4,1.6-0.4c0.3,0,0.5,0,0.7,0.1s0.4,0.2,0.6,0.3L148,81c0.1-0.5,0.2-0.9,0.3-1.3
	s0.2-0.8,0.3-1.1s0.1-0.7,0.2-0.9c0-0.3,0.1-0.5,0.1-0.6c0-0.2,0-0.3,0-0.4s0-0.2-0.1-0.3v-0.1v-0.1c0-0.1,0.1-0.2,0.2-0.3
	s0.2-0.1,0.4-0.1c0.4,0,0.7,0.1,0.9,0.2s0.4,0.3,0.5,0.5s0.2,0.4,0.2,0.6s0,0.5,0,0.7s-0.1,0.5-0.1,0.9s-0.2,0.8-0.3,1.3
	s-0.2,1-0.4,1.5c-0.1,0.6-0.3,1.1-0.4,1.7c0,0.2-0.1,0.4-0.2,0.7s-0.1,0.6-0.2,0.9c-0.1,0.4-0.2,0.8-0.3,1.3s-0.2,0.9-0.3,1.4
	s-0.2,0.9-0.2,1.3s-0.1,0.8-0.1,1.1c0,0.1,0,0.2,0,0.2s0,0.1,0,0.2c0.1,0.4,0.2,0.6,0.5,0.6c0.1,0,0.2,0,0.4-0.1
	c0.1-0.1,0.3-0.1,0.4-0.2c0.1-0.1,0.3-0.2,0.4-0.3c0.1-0.1,0.2-0.2,0.3-0.3c0.3-0.3,0.5-0.6,0.7-0.9c0.2-0.4,0.4-0.7,0.7-1.1
	s0.4-0.7,0.6-1.1c0.2-0.4,0.3-0.7,0.5-1c0.1-0.3,0.2-0.5,0.3-0.7s0.2-0.3,0.2-0.4c0,0,0.1,0,0.1-0.1s0.1,0,0.1,0
	c0.1,0,0.1,0,0.2,0.1c0.1,0.1,0.1,0.1,0.1,0.2c-0.1,0.2-0.2,0.4-0.3,0.6s-0.2,0.4-0.3,0.6c-0.2,0.3-0.4,0.7-0.5,1.1
	c-0.2,0.4-0.4,0.7-0.6,1.1c-0.2,0.4-0.4,0.7-0.6,1.1s-0.4,0.7-0.6,1c-0.2,0.2-0.3,0.4-0.5,0.6s-0.4,0.4-0.6,0.5s-0.4,0.3-0.7,0.4
	C149.1,92,148.8,92.1,148.6,92.1z M146.7,86.3c0.1-0.5,0.2-1,0.3-1.5s0.2-1,0.4-1.6c0-0.1,0-0.2,0.1-0.3c0-0.1,0.1-0.2,0.1-0.3
	c-0.2-0.1-0.4-0.2-0.7-0.2s-0.7,0.1-1,0.4s-0.7,0.6-1,1s-0.6,0.9-0.9,1.4c-0.3,0.5-0.5,1-0.7,1.6c-0.2,0.5-0.4,1-0.5,1.5
	s-0.2,0.8-0.2,1.1c0,0.1,0,0.3,0,0.4c0,0.2,0,0.3,0.1,0.4c0,0.1,0.1,0.2,0.2,0.3c0.1,0.1,0.2,0.1,0.4,0.1s0.4-0.1,0.7-0.2
	s0.5-0.4,0.7-0.6c0.2-0.3,0.5-0.5,0.7-0.9s0.4-0.6,0.6-1s0.4-0.6,0.5-0.9C146.5,86.7,146.6,86.5,146.7,86.3L146.7,86.3z M160.5,85.2
	c0,0-0.1,0.1-0.2,0.1c-0.1,0-0.2,0-0.2,0c-0.1,0-0.2-0.1-0.3-0.2c0-0.1,0.1-0.2,0.1-0.3c0-0.1,0-0.2,0.1-0.3c0-0.2,0-0.5-0.1-0.8
	c0-0.3-0.1-0.5-0.2-0.7c-0.1-0.2-0.3-0.4-0.4-0.5c-0.2-0.1-0.4-0.2-0.7-0.2s-0.7,0.1-1,0.4s-0.7,0.6-1,1s-0.6,0.9-0.9,1.4
	s-0.5,1-0.7,1.6s-0.4,1-0.5,1.5s-0.2,0.8-0.2,1.1c0,0.1,0,0.3,0,0.4c0,0.2,0,0.3,0.1,0.4s0.1,0.2,0.2,0.3c0.1,0.1,0.2,0.1,0.4,0.1
	c0.3,0,0.6-0.2,0.9-0.5c0.3-0.3,0.7-0.7,1-1.1s0.6-0.9,0.9-1.4c0.3-0.5,0.5-0.9,0.7-1.3c0-0.1,0.1-0.2,0.1-0.4s0.1-0.3,0.1-0.5
	c0-0.1,0-0.2,0.2-0.3c0.1,0,0.3-0.1,0.4-0.1C159.9,84.9,160.3,85.1,160.5,85.2c0.2,0.3,0.4,0.6,0.4,0.9s0,0.6-0.1,1s-0.2,0.7-0.2,1
	c0,0.1,0,0.2-0.1,0.3s0,0.3-0.1,0.5c0,0.2,0,0.4,0,0.6s0,0.3,0,0.5c0,0.1,0.1,0.2,0.1,0.2c0.1,0,0.2,0,0.3-0.1
	c0.2-0.2,0.5-0.5,0.7-0.9c0.3-0.4,0.5-0.8,0.8-1.2c0.3-0.4,0.5-0.8,0.7-1.3c0.2-0.4,0.4-0.8,0.6-1.2c0.1-0.2,0.2-0.4,0.3-0.7
	c0.1-0.2,0.2-0.4,0.3-0.5c0.1,0,0.1,0,0.2,0c0.1,0,0.2,0,0.2,0.1c0.1,0.1,0.1,0.1,0.1,0.2l-0.1,0.3c-0.1,0.3-0.3,0.6-0.5,0.9
	c-0.2,0.4-0.4,0.7-0.6,1.1c-0.2,0.4-0.4,0.8-0.7,1.2c-0.2,0.4-0.5,0.8-0.7,1.2s-0.5,0.7-0.7,1s-0.5,0.5-0.7,0.7s-0.4,0.3-0.7,0.4
	s-0.5,0.2-0.8,0.2s-0.6-0.1-0.8-0.4c-0.2-0.2-0.3-0.5-0.4-0.9c-0.1-0.3-0.1-0.7-0.2-1.1c0-0.4,0-0.7,0-0.9l0,0c0,0,0,0,0-0.1
	c-0.3,0.4-0.5,0.9-0.9,1.3c-0.3,0.4-0.6,0.8-1,1.1s-0.7,0.6-1.1,0.8c-0.4,0.2-0.8,0.3-1.2,0.3s-0.7-0.1-1-0.2s-0.5-0.3-0.6-0.5
	c-0.2-0.2-0.3-0.5-0.3-0.8c-0.1-0.3-0.1-0.6-0.1-0.9c0-0.1,0-0.1,0-0.2s0-0.1,0-0.2c0.1-0.5,0.2-1,0.4-1.6s0.4-1.2,0.7-1.8
	c0.3-0.6,0.6-1.2,1-1.8c0.4-0.6,0.8-1.1,1.3-1.5s0.9-0.8,1.5-1.1c0.5-0.3,1-0.4,1.6-0.4c0.4,0,0.8,0.1,1.1,0.3s0.6,0.5,0.8,0.8
	s0.4,0.7,0.5,1.1s0.1,0.8,0.1,1.2C160.6,84.7,160.6,84.9,160.5,85.2L160.5,85.2z M167.7,77.7c0,0.3-0.1,0.5-0.1,0.8
	s-0.1,0.6-0.2,0.9c0.4,0,0.8,0,1.2,0.1c0.4,0,0.8,0.1,1.1,0.3s0.6,0.3,0.9,0.6c0.3,0.2,0.5,0.5,0.6,0.9l0,0c0,0.1,0,0.2,0,0.2
	c-0.1,0.1-0.2,0.1-0.3,0.1c-0.4-0.4-0.9-0.7-1.5-0.8s-1.2-0.2-1.9-0.2h-0.4c-0.1,0.4-0.2,0.9-0.3,1.3s-0.2,0.9-0.3,1.3l-0.3,1.1v0.2
	c-0.1,0.3-0.2,0.6-0.3,1s-0.2,0.9-0.3,1.4s-0.2,1-0.3,1.5s-0.1,1-0.1,1.4c0,0.3,0,0.5,0.1,0.7c0,0.2,0.1,0.3,0.2,0.4
	c0.1,0.1,0.2,0.1,0.4,0s0.4-0.2,0.7-0.4c0.3-0.2,0.6-0.5,0.9-0.9c0.3-0.4,0.6-0.8,0.8-1.2s0.5-0.8,0.7-1.3c0.2-0.4,0.4-0.8,0.6-1.2
	l0,0c0.1-0.3,0.3-0.5,0.4-0.7c0.1-0.2,0.2-0.4,0.3-0.5c0,0,0.1,0,0.2,0c0.2,0,0.3,0.1,0.3,0.3l-0.5,1.1l0,0c-0.3,0.6-0.6,1.3-1,2
	s-0.8,1.4-1.2,2s-0.9,1.1-1.3,1.5c-0.5,0.4-1,0.6-1.5,0.6c-0.9,0-1.5-0.2-1.8-0.6s-0.5-1-0.5-1.8c0-0.1,0-0.2,0-0.3s0-0.2,0-0.3
	c0-0.3,0.1-0.8,0.2-1.3c0.1-0.6,0.2-1.2,0.4-1.9s0.3-1.4,0.5-2.1s0.3-1.5,0.5-2.2l0.2-0.8c-0.3,0-0.6,0.1-0.9,0.1
	c-0.3,0-0.6,0-0.9,0c-0.6,0-1.1-0.1-1.5-0.2s-0.8-0.4-0.9-0.8c0,0,0-0.1,0-0.2s0-0.1,0-0.2s0.1-0.1,0.1-0.1c0.1,0,0.1,0,0.2,0.1l0,0
	c0.3,0.1,0.6,0.2,0.9,0.3s0.7,0.1,1.1,0.1c0.3,0,0.7,0,1.1-0.1c0.4,0,0.8-0.1,1.2-0.1c0.1-0.6,0.3-1.1,0.3-1.6
	c0.1-0.5,0.2-0.8,0.2-1s0-0.3,0-0.4s0-0.2-0.1-0.3v-0.1v-0.1c0-0.1,0.1-0.2,0.2-0.3c0.1,0,0.2-0.1,0.4-0.1c0.4,0,0.7,0.1,0.9,0.2
	s0.4,0.3,0.5,0.5s0.2,0.4,0.2,0.6C167.7,77.2,167.7,77.4,167.7,77.7z M177.2,85.2c0,0-0.1,0.1-0.2,0.1c-0.1,0-0.2,0-0.2,0
	c-0.1,0-0.2-0.1-0.3-0.2c0-0.1,0.1-0.2,0.1-0.3c0-0.1,0-0.2,0.1-0.3c0-0.2,0-0.5-0.1-0.8c0-0.3-0.1-0.5-0.2-0.7
	c-0.1-0.2-0.3-0.4-0.4-0.5c-0.2-0.1-0.4-0.2-0.7-0.2s-0.7,0.1-1,0.4s-0.7,0.6-1,1s-0.6,0.9-0.9,1.4s-0.5,1-0.7,1.6s-0.4,1-0.5,1.5
	S171,89,171,89.3c0,0.1,0,0.3,0,0.4c0,0.2,0,0.3,0.1,0.4s0.1,0.2,0.2,0.3c0.1,0.1,0.2,0.1,0.4,0.1c0.3,0,0.6-0.2,0.9-0.5
	c0.3-0.3,0.7-0.7,1-1.1s0.6-0.9,0.9-1.4c0.3-0.5,0.5-0.9,0.7-1.3c0-0.1,0.1-0.2,0.1-0.4s0.1-0.3,0.1-0.5c0-0.1,0-0.2,0.2-0.3
	c0.1,0,0.3-0.1,0.4-0.1C176.6,84.9,177,85.1,177.2,85.2c0.2,0.3,0.4,0.6,0.4,0.9s0,0.6-0.1,1s-0.2,0.7-0.2,1c0,0.1,0,0.2-0.1,0.3
	s0,0.3-0.1,0.5c0,0.2,0,0.4,0,0.6s0,0.3,0,0.5c0,0.1,0.1,0.2,0.1,0.2c0.1,0,0.2,0,0.3-0.1c0.2-0.2,0.5-0.5,0.7-0.9
	c0.3-0.4,0.5-0.8,0.8-1.2c0.3-0.4,0.5-0.8,0.7-1.3c0.2-0.4,0.4-0.8,0.6-1.2c0.1-0.2,0.2-0.4,0.3-0.7c0.1-0.2,0.2-0.4,0.3-0.5
	c0.1,0,0.1,0,0.2,0c0.1,0,0.2,0,0.2,0.1c0.1,0.1,0.1,0.1,0.1,0.2l-0.1,0.3c-0.1,0.3-0.3,0.6-0.5,0.9c-0.2,0.4-0.4,0.7-0.6,1.1
	c-0.2,0.4-0.4,0.8-0.7,1.2c-0.2,0.4-0.5,0.8-0.7,1.2s-0.5,0.7-0.7,1s-0.5,0.5-0.7,0.7s-0.4,0.3-0.7,0.4s-0.5,0.2-0.8,0.2
	s-0.6-0.1-0.8-0.4c-0.2-0.2-0.3-0.5-0.4-0.9c-0.1-0.3-0.1-0.7-0.2-1.1c0-0.4,0-0.7,0-0.9l0,0c0,0,0,0,0-0.1
	c-0.3,0.4-0.5,0.9-0.9,1.3c-0.3,0.4-0.6,0.8-1,1.1s-0.7,0.6-1.1,0.8c-0.4,0.2-0.8,0.3-1.2,0.3s-0.7-0.1-1-0.2s-0.5-0.3-0.6-0.5
	c-0.2-0.2-0.3-0.5-0.3-0.8c-0.1-0.3-0.1-0.6-0.1-0.9c0-0.1,0-0.1,0-0.2s0-0.1,0-0.2c0.1-0.5,0.2-1,0.4-1.6s0.4-1.2,0.7-1.8
	c0.3-0.6,0.6-1.2,1-1.8c0.4-0.6,0.8-1.1,1.3-1.5s0.9-0.8,1.5-1.1c0.5-0.3,1-0.4,1.6-0.4c0.4,0,0.8,0.1,1.1,0.3s0.6,0.5,0.8,0.8
	s0.4,0.7,0.5,1.1s0.1,0.8,0.1,1.2C177.4,84.7,177.3,84.9,177.2,85.2L177.2,85.2z M182.9,84.6c0,0.1-0.1,0.2-0.1,0.3
	c0,0.1,0,0.2-0.1,0.3c0.1-0.2,0.2-0.3,0.3-0.5s0.2-0.4,0.4-0.6c0.3-0.4,0.5-0.8,0.8-1.2c0.3-0.4,0.6-0.8,0.9-1.1
	c0.3-0.3,0.6-0.6,1-0.8s0.7-0.3,1.1-0.3c0.3,0,0.5,0,0.7,0.1s0.3,0.2,0.4,0.4c0.1,0.2,0.2,0.3,0.2,0.6c0,0.2,0,0.5,0,0.7
	c0,0.5-0.2,1.1-0.4,1.8s-0.4,1.3-0.7,2c-0.2,0.6-0.4,1.2-0.6,1.8c-0.2,0.6-0.3,1.1-0.3,1.5c0,0.1,0,0.2,0,0.3c0,0.1,0,0.3,0,0.4
	s0.1,0.2,0.1,0.3c0,0.1,0.1,0.1,0.2,0.1c0.1,0,0.3-0.1,0.5-0.4c0.2-0.2,0.5-0.5,0.7-0.9c0.3-0.4,0.5-0.8,0.8-1.2
	c0.3-0.4,0.5-0.9,0.7-1.3s0.4-0.8,0.6-1.1c0.2-0.3,0.3-0.6,0.4-0.7V85l0.1-0.1c0-0.1,0.1-0.2,0.1-0.2c0-0.1,0.1-0.1,0.2-0.1
	c0.1,0,0.2,0,0.2,0.1s0.1,0.1,0.1,0.2c-0.1,0.1-0.1,0.3-0.2,0.4s-0.2,0.3-0.2,0.5c-0.2,0.4-0.4,0.8-0.6,1.2
	c-0.2,0.4-0.5,0.9-0.7,1.3c-0.3,0.4-0.5,0.9-0.8,1.3s-0.6,0.8-0.9,1.1s-0.6,0.6-0.9,0.8c-0.3,0.2-0.6,0.3-0.9,0.3
	c-0.3,0-0.6-0.1-0.8-0.2s-0.4-0.2-0.5-0.4c-0.1-0.2-0.2-0.4-0.3-0.6s-0.1-0.5-0.1-0.8c0-0.1,0-0.1,0-0.2s0-0.1,0-0.2
	c0-0.4,0.1-0.8,0.2-1.2c0.1-0.4,0.2-0.9,0.4-1.3s0.3-0.9,0.4-1.3s0.3-0.8,0.5-1.2c0.2-0.5,0.4-1,0.5-1.4s0.2-0.7,0.3-0.9
	c0-0.2,0-0.3-0.1-0.3c-0.2,0-0.4,0.1-0.6,0.3c-0.2,0.2-0.5,0.4-0.7,0.7c-0.3,0.3-0.5,0.6-0.8,1s-0.5,0.8-0.8,1.1
	c-0.2,0.4-0.5,0.7-0.7,1.1c-0.2,0.3-0.4,0.6-0.5,0.8l0,0l-0.2,0.4l0,0c-0.2,0.4-0.3,0.8-0.4,1.4s-0.2,1-0.2,1.4c0,0.1,0,0.2,0,0.2
	s0,0.1,0,0.2c0,0.2,0,0.4,0,0.6s0.1,0.3,0.1,0.4s0,0.2,0,0.2c0,0.1-0.1,0.2-0.3,0.2c-0.3,0-0.6-0.1-0.9-0.2s-0.4-0.3-0.5-0.6
	c-0.1-0.2-0.2-0.5-0.3-0.8s-0.1-0.6-0.1-0.9c0-0.1,0-0.2,0-0.3s0-0.2,0-0.3c0-0.3,0.1-0.7,0.1-1s0.1-0.7,0.2-1
	c0.1-0.4,0.2-0.7,0.2-1c0.1-0.3,0.2-0.7,0.2-1c0.1-0.5,0.3-1,0.4-1.5c0.1-0.5,0.2-0.8,0.2-1.2c0-0.2,0-0.3,0-0.4s0-0.2-0.1-0.3v-0.1
	v-0.1c0-0.1,0.1-0.2,0.2-0.3c0.1,0,0.2-0.1,0.4-0.1c0.4,0,0.7,0.1,0.9,0.2s0.4,0.3,0.5,0.5s0.2,0.4,0.2,0.6s0,0.5,0,0.7
	c0,0.3-0.1,0.5-0.1,0.8C183,84.1,183,84.3,182.9,84.6z M200.5,85.1C200.5,85.1,200.5,85,200.5,85.1C200.5,85,200.5,85,200.5,85.1
	c0.1-0.1,0.2-0.1,0.3-0.1s0.2,0.1,0.3,0.2c-0.3,0.5-0.5,1.1-0.9,1.6s-0.6,1.1-1,1.7c-0.3,0.5-0.7,1-1.1,1.5c-0.4,0.4-0.7,0.8-1,1
	c-0.2,1.1-0.4,2.1-0.7,3.2s-0.6,2.1-0.9,3c-0.3,1-0.7,1.8-1.1,2.7c-0.4,0.8-0.8,1.5-1.3,2.1s-1,1-1.5,1.3s-1.1,0.4-1.7,0.3
	c-0.5-0.1-1-0.3-1.3-0.8s-0.5-1-0.5-1.7c0-0.3,0-0.7,0.1-1c0.2-0.9,0.6-1.7,1-2.4s0.9-1.5,1.4-2.1c0.5-0.7,1.1-1.3,1.7-1.9
	s1.3-1.2,1.9-1.8c0.1-0.4,0.2-0.7,0.2-1.1c0.1-0.4,0.2-0.7,0.2-1l0.2-1c-0.3,0.4-0.6,0.8-0.9,1.2c-0.3,0.4-0.6,0.7-1,1
	c-0.3,0.3-0.7,0.5-1.1,0.7c-0.4,0.2-0.8,0.3-1.1,0.3c-0.4,0-0.7-0.1-0.9-0.2s-0.5-0.3-0.6-0.5s-0.3-0.5-0.3-0.8s-0.1-0.6-0.1-0.9
	c0-0.1,0-0.1,0-0.2s0-0.2,0-0.2c0.1-0.5,0.2-1,0.4-1.6s0.4-1.2,0.7-1.8s0.6-1.2,1-1.8c0.4-0.6,0.8-1.1,1.3-1.5s0.9-0.8,1.4-1.1
	c0.5-0.3,1-0.4,1.6-0.4c0.4,0,0.8,0.1,1.1,0.3c0.3,0.2,0.6,0.5,0.8,0.8s0.4,0.7,0.5,1.1s0.1,0.8,0.1,1.2c0,0.1,0,0.3-0.1,0.4
	c0,0.1-0.1,0.3-0.1,0.4c0,0-0.1,0.1-0.2,0.1c-0.1,0-0.2,0.1-0.2,0.1c-0.1,0-0.2-0.1-0.3-0.2c0-0.1,0.1-0.2,0.1-0.3
	c0-0.1,0-0.2,0.1-0.3c0-0.2,0-0.5-0.1-0.8c0-0.3-0.1-0.5-0.2-0.7c-0.1-0.2-0.3-0.4-0.4-0.5c-0.2-0.1-0.4-0.2-0.7-0.2s-0.7,0.1-1,0.4
	s-0.7,0.6-1,1s-0.6,0.9-0.9,1.4s-0.5,1-0.7,1.6c-0.2,0.5-0.4,1-0.5,1.5s-0.2,0.8-0.2,1.1c0,0.1,0,0.3,0,0.4c0,0.2,0,0.3,0.1,0.4
	c0,0.1,0.1,0.2,0.2,0.3c0.1,0.1,0.2,0.1,0.4,0.1c0.3,0,0.5-0.1,0.8-0.3c0.3-0.2,0.6-0.5,0.8-0.9s0.5-0.7,0.8-1.1s0.5-0.8,0.7-1.2
	c0-0.1,0.1-0.2,0.1-0.4c0-0.1,0.1-0.3,0.1-0.4v-0.1v-0.1l-0.1-0.3c0-0.1,0-0.1,0-0.2s0-0.1,0-0.1c0-0.1,0.1-0.2,0.2-0.3
	c0.1,0,0.2-0.1,0.4-0.1c0.3,0,0.6,0,0.8,0.1s0.4,0.2,0.6,0.3c0.1,0.1,0.3,0.3,0.3,0.4s0.1,0.4,0.2,0.6c0,0.5-0.1,1-0.2,1.6
	s-0.1,1.1-0.2,1.7c0.3-0.2,0.5-0.5,0.8-0.9s0.5-0.7,0.8-1.2s0.5-0.8,0.7-1.3C200,85.9,200.3,85.4,200.5,85.1z M189.1,101
	c0,0.3,0.1,0.5,0.2,0.6c0.1,0.2,0.3,0.2,0.6,0.2c0.2,0,0.4-0.1,0.7-0.3c0.2-0.2,0.4-0.4,0.6-0.6c0.3-0.4,0.6-0.8,0.8-1.3
	c0.3-0.5,0.5-1.1,0.7-1.6c0.2-0.6,0.4-1.2,0.6-1.8c0.2-0.6,0.4-1.1,0.5-1.7l0.3-1l0.1-0.4l0.1-0.2c-0.7,0.5-1.3,1.1-1.9,1.8
	c-0.6,0.7-1.2,1.4-1.7,2.2c-0.1,0.2-0.2,0.4-0.4,0.7c-0.2,0.3-0.3,0.7-0.5,1.1s-0.3,0.8-0.4,1.2C189.1,100.3,189.1,100.7,189.1,101z
	"/>
<path d="M60.3,91.4c0.1,0,0.2,0.1,0.1,0.3l-0.1,0.2c0,0.1-0.1,0.2-0.1,0.3c0,0.1-0.1,0.2-0.1,0.3c0,0.2,0,0.4,0.1,0.7
	c0.1,0.5,0.4,1,0.7,1.4s0.7,0.7,1.1,1c0.4,0.3,0.9,0.5,1.5,0.6c0.5,0.1,1.1,0.2,1.7,0.2c0.5,0,1.1-0.1,1.6-0.2
	c0.6-0.1,1.1-0.2,1.6-0.4c0.2-0.1,0.5-0.2,0.8-0.4c0.3-0.1,0.6-0.3,0.9-0.5s0.6-0.4,0.8-0.6c0.3-0.2,0.5-0.4,0.7-0.6
	s0.4-0.5,0.5-0.7s0.2-0.5,0.2-0.7s0-0.4-0.1-0.6c-0.1-0.3-0.4-0.5-0.7-0.8c-0.4-0.2-0.7-0.4-1.2-0.5c-0.4-0.1-0.9-0.2-1.4-0.3
	c-0.5-0.1-1-0.2-1.4-0.3L67.2,90c-0.8-0.1-1.6-0.3-2.3-0.4s-1.5-0.4-2.2-0.7c-0.7-0.3-1.3-0.7-1.8-1.1c-0.5-0.5-0.9-1.1-1.1-1.8
	c-0.1-0.3-0.1-0.6-0.2-0.9c-0.1-0.3-0.1-0.6-0.1-0.9c0-0.5,0.1-1.1,0.2-1.8s0.3-1.4,0.6-2.1c0.3-0.9,0.7-1.7,1.3-2.5
	s1.1-1.5,1.8-2.2c0.7-0.7,1.4-1.2,2.1-1.6c0.8-0.4,1.6-0.7,2.4-0.8l0,0c0.3-0.1,0.5-0.1,0.7-0.2c0.2,0,0.4,0,0.7,0
	c0.6,0,1.2,0.1,1.8,0.3s1.2,0.5,1.7,0.9s1,0.8,1.5,1.3s0.8,1.1,1.2,1.7c0.3,0.6,0.6,1.2,0.8,1.9s0.3,1.3,0.3,2c0,0.1,0,0.3,0,0.4
	s0,0.3,0,0.4c-0.1,0.7-0.3,1.3-0.7,1.8c-0.3,0.6-0.8,1.1-1.2,1.5c-0.5,0.4-1,0.8-1.6,1s-1.1,0.4-1.7,0.4s-1.1-0.2-1.6-0.5
	s-0.8-0.9-1.1-1.5c0-0.1-0.1-0.3-0.1-0.4s0.1-0.2,0.2-0.3c0.1-0.1,0.2-0.1,0.3,0c0.1,0.1,0.2,0.2,0.3,0.4c0.2,0.5,0.4,0.8,0.7,1
	c0.3,0.2,0.6,0.3,0.9,0.3s0.7-0.1,1-0.3c0.3-0.2,0.6-0.5,0.9-0.8s0.5-0.8,0.6-1.3s0.2-1,0.2-1.6l0,0c0-0.5-0.1-1.1-0.3-1.7
	c-0.2-0.6-0.4-1.1-0.6-1.6s-0.6-1-0.9-1.5c-0.4-0.5-0.7-0.9-1.2-1.2s-0.9-0.6-1.3-0.8c-0.5-0.2-0.9-0.3-1.4-0.3
	c-0.8,0-1.5,0.2-2.1,0.5c-0.6,0.4-1.1,0.9-1.4,1.5c-0.4,0.6-0.7,1.3-0.9,2.1c-0.2,0.8-0.3,1.6-0.3,2.4c0,0.1,0,0.2,0,0.4
	c0,0.1,0,0.2,0,0.4c0,0.6,0,1.1,0.1,1.6s0.2,0.9,0.4,1.3c0.2,0.5,0.5,0.9,0.8,1.3c0.3,0.4,0.7,0.7,1.2,1c0.4,0.3,0.9,0.5,1.4,0.7
	s0.9,0.4,1.4,0.5l0.3,0.1c0.3,0.1,0.6,0.2,0.9,0.3c0.3,0.1,0.6,0.2,0.8,0.4c0.6,0.3,1.1,0.7,1.6,1.1c0.5,0.5,0.8,1.1,1.1,1.7
	c0.1,0.5,0.2,1,0.2,1.4c0,0.6-0.1,1.3-0.4,1.8c-0.2,0.6-0.6,1.2-1,1.7s-0.9,1-1.4,1.4s-1.1,0.7-1.7,1c-0.9,0.4-1.9,0.6-3,0.6
	c-0.6,0-1.2-0.1-1.8-0.2c-0.6-0.1-1.1-0.3-1.7-0.5s-1-0.5-1.5-0.8s-0.8-0.7-1.2-1.1s-0.6-0.8-0.7-1.3c-0.2-0.5-0.2-1-0.2-1.5
	c0-0.2,0.1-0.4,0.1-0.7s0.2-0.6,0.3-0.8s0.3-0.5,0.4-0.7S60.1,91.4,60.3,91.4z M83.7,88c-0.3,0.5-0.5,0.9-0.9,1.5
	c-0.3,0.5-0.7,1-1.1,1.4s-0.9,0.8-1.4,1s-1.1,0.4-1.8,0.4c-0.5,0-0.9-0.1-1.3-0.3c-0.4-0.2-0.6-0.5-0.9-0.8
	c-0.2-0.4-0.4-0.8-0.5-1.2s-0.1-0.9-0.1-1.4c0-0.1,0-0.2,0-0.4c0-0.1,0-0.2,0-0.4l0,0c0-0.5,0.1-1.1,0.3-1.6
	c0.1-0.6,0.3-1.1,0.6-1.6c0.2-0.5,0.5-1,0.8-1.5s0.6-0.9,1-1.2s0.7-0.6,1.2-0.8c0.4-0.2,0.8-0.3,1.3-0.3c0.4,0,0.8,0.1,1.1,0.3
	c0.3,0.2,0.6,0.4,0.8,0.7c0.2,0.3,0.4,0.6,0.5,1s0.2,0.7,0.1,1.1c-0.1,0.5-0.3,1-0.6,1.5c-0.3,0.5-0.7,0.9-1.2,1.2s-1,0.6-1.5,0.9
	c-0.5,0.2-1,0.4-1.5,0.5c0,0.2-0.1,0.3-0.1,0.5s0,0.4-0.1,0.5c0,0.1,0,0.2,0,0.2c0,0.1,0,0.2,0,0.2c0,0.2,0,0.4,0.1,0.6
	c0,0.2,0.1,0.4,0.2,0.5c0.1,0.2,0.2,0.3,0.4,0.4c0.2,0.1,0.3,0.2,0.6,0.2c0.4,0,0.7-0.1,1-0.3c0.3-0.2,0.6-0.5,0.9-0.8
	s0.5-0.7,0.8-1c0.2-0.4,0.4-0.7,0.6-1l0,0c0.2-0.4,0.4-0.8,0.6-1.2s0.4-0.7,0.5-1.1c0.1-0.1,0.2-0.3,0.3-0.5s0.2-0.3,0.3-0.5
	c0.1,0,0.2-0.1,0.2-0.1c0.1,0,0.2,0,0.2,0.1s0.1,0.1,0.1,0.2l-0.1,0.3c-0.2,0.4-0.4,0.8-0.6,1.3C84.3,87,84.1,87.5,83.7,88z
	 M82.6,82.8c-0.1-0.3-0.3-0.4-0.5-0.4s-0.4,0.1-0.6,0.3s-0.4,0.4-0.7,0.7s-0.4,0.6-0.6,0.9s-0.4,0.7-0.6,1s-0.3,0.7-0.4,1
	s-0.2,0.6-0.3,0.8c0.3,0,0.7-0.1,1.1-0.3c0.4-0.2,0.8-0.4,1.3-0.7c0.4-0.3,0.7-0.6,1-1s0.5-0.8,0.5-1.2
	C82.9,83.6,82.8,83.2,82.6,82.8z M89.7,76c0.2,0,0.4,0.1,0.6,0.2s0.3,0.3,0.4,0.5s0.2,0.5,0.2,0.7c0,0.3,0,0.5,0,0.7
	c-0.1,0.6-0.2,1.3-0.5,1.9s-0.6,1.3-1,1.9s-0.9,1.2-1.3,1.7c-0.5,0.6-1,1.1-1.5,1.5c-0.1,0.4-0.2,0.7-0.3,1c-0.1,0.3-0.1,0.7-0.2,1
	s-0.1,1-0.1,1.4c0,0.1,0,0.2,0,0.4s0,0.2,0,0.3c0,0.5,0.1,0.9,0.2,1.2s0.3,0.5,0.7,0.5c0.4,0,0.8-0.2,1.2-0.5s0.8-0.8,1.1-1.3
	c0.4-0.5,0.7-1.1,1-1.6c0.3-0.6,0.6-1.1,0.8-1.5c0.1-0.3,0.2-0.5,0.3-0.7c0.1-0.2,0.2-0.3,0.2-0.4c0,0,0.1,0,0.1-0.1h0.1
	c0.1,0,0.2,0,0.2,0.1C92,85,92,85,92,85.1l-0.5,1l0,0c-0.2,0.4-0.4,0.9-0.7,1.4s-0.5,0.9-0.7,1.4c-0.3,0.5-0.5,0.9-0.8,1.3
	s-0.6,0.8-0.9,1.1c-0.3,0.3-0.6,0.6-1,0.7c-0.3,0.2-0.7,0.3-1,0.3c-0.5,0-0.9-0.1-1.2-0.3s-0.5-0.5-0.7-0.8s-0.3-0.7-0.4-1.1
	c0-0.6-0.1-1.1-0.1-1.5c0-0.1,0-0.3,0-0.4s0-0.3,0-0.4l0,0c0-0.3,0.1-0.8,0.2-1.3s0.2-1.1,0.3-1.7s0.3-1.3,0.5-1.9s0.4-1.3,0.7-2
	c0.2-0.7,0.5-1.3,0.8-1.9s0.6-1.1,0.9-1.6s0.7-0.8,1.1-1.1C88.9,76.2,89.3,76,89.7,76z M89.9,77.2c-0.2,0-0.4,0.2-0.6,0.5
	s-0.5,0.8-0.8,1.4s-0.6,1.3-0.9,2.2C87.3,82.1,87,83,86.8,84c0.2-0.2,0.5-0.5,0.8-0.9c0.4-0.4,0.7-0.9,1.1-1.4s0.7-1.1,1-1.7
	s0.4-1.2,0.5-1.7c0-0.1,0-0.3,0-0.4s0-0.3,0-0.4s-0.1-0.2-0.1-0.3C90,77.2,90,77.2,89.9,77.2z M98.4,85.2c0,0-0.1,0.1-0.2,0.1
	s-0.2,0-0.2,0c-0.1,0-0.2-0.1-0.3-0.2c0-0.1,0.1-0.2,0.1-0.3c0-0.1,0-0.2,0.1-0.3c0-0.2,0-0.5-0.1-0.8s-0.1-0.5-0.2-0.7
	s-0.3-0.4-0.4-0.5s-0.4-0.2-0.7-0.2c-0.3,0-0.7,0.1-1,0.4s-0.7,0.6-1,1s-0.6,0.9-0.9,1.4s-0.5,1-0.7,1.6s-0.4,1-0.5,1.5
	C92.1,88.6,92,89,92,89.3c0,0.1,0,0.3,0,0.4s0,0.3,0.1,0.4s0.1,0.2,0.2,0.3s0.2,0.1,0.4,0.1c0.3,0,0.6-0.2,0.9-0.5s0.7-0.7,1-1.1
	s0.6-0.9,0.9-1.4s0.5-0.9,0.7-1.3c0-0.1,0.1-0.2,0.1-0.4c0.1-0.1,0.1-0.3,0.1-0.5c0-0.1,0-0.2,0.2-0.3s0.3-0.1,0.4-0.1
	c0.6,0,1,0.2,1.2,0.4c0.2,0.2,0.4,0.5,0.4,0.8s0,0.6-0.1,1s-0.2,0.7-0.2,1c0,0.1,0,0.2-0.1,0.3s0,0.3-0.1,0.5c0,0.2,0,0.4,0,0.6
	s0,0.3,0,0.5s0.1,0.2,0.1,0.2c0.1,0,0.2,0,0.3-0.1c0.2-0.2,0.5-0.5,0.7-0.9s0.5-0.8,0.8-1.2c0.3-0.4,0.5-0.8,0.7-1.3
	c0.2-0.4,0.4-0.8,0.6-1.2c0.1-0.2,0.2-0.4,0.3-0.7s0.2-0.4,0.3-0.5c0.1,0,0.1,0,0.2,0s0.2,0,0.2,0.1c0.1,0.1,0.1,0.1,0.1,0.2
	l-0.1,0.3c-0.1,0.3-0.3,0.6-0.5,0.9s-0.4,0.7-0.6,1.1s-0.4,0.8-0.7,1.2c-0.2,0.4-0.5,0.8-0.7,1.2s-0.5,0.7-0.7,1s-0.5,0.5-0.7,0.7
	s-0.4,0.3-0.7,0.4c-0.3,0.1-0.5,0.2-0.8,0.2s-0.6-0.1-0.8-0.4c-0.2-0.2-0.3-0.5-0.4-0.9c-0.1-0.3-0.1-0.7-0.2-1.1c0-0.4,0-0.7,0-0.9
	l0,0c0,0,0,0,0-0.1c-0.3,0.4-0.5,0.9-0.9,1.3c-0.3,0.4-0.6,0.8-1,1.1s-0.7,0.6-1.1,0.8C92.4,91.9,92,92,91.6,92s-0.7-0.1-1-0.2
	s-0.5-0.3-0.6-0.5s-0.3-0.5-0.3-0.8c-0.1-0.3-0.1-0.6-0.1-0.9c0-0.1,0-0.1,0-0.2s0-0.1,0-0.2c0.1-0.5,0.2-1,0.4-1.6
	c0.2-0.6,0.4-1.2,0.7-1.8c0.3-0.6,0.6-1.2,1-1.8c0.4-0.6,0.8-1.1,1.3-1.5s0.9-0.8,1.5-1.1s1-0.4,1.6-0.4c0.4,0,0.8,0.1,1.1,0.3
	s0.6,0.5,0.8,0.8c0.2,0.3,0.4,0.7,0.5,1.1s0.1,0.8,0.1,1.2C98.5,84.7,98.5,84.9,98.4,85.2L98.4,85.2z M112.6,82.3
	c0-0.1,0-0.2-0.1-0.2l0,0l0,0c-0.2,0-0.5,0.1-0.8,0.4s-0.6,0.6-0.9,1s-0.6,0.9-0.9,1.4s-0.6,1-0.9,1.4c-0.2,0.3-0.4,0.6-0.6,0.9
	s-0.3,0.5-0.5,0.7l0,0c-0.2,0.4-0.3,0.9-0.4,1.3s-0.2,0.8-0.2,1.1c0,0.3,0,0.5,0,0.8s0.1,0.5,0.2,0.7c0,0,0,0,0,0.1V92
	c0,0.1-0.1,0.2-0.3,0.2c-0.3,0-0.6-0.1-0.9-0.2c-0.2-0.1-0.4-0.3-0.6-0.5s-0.2-0.4-0.3-0.7c-0.1-0.3-0.1-0.5-0.1-0.8
	c0-0.1,0-0.1,0-0.2s0-0.2,0-0.2c0-0.4,0.1-0.8,0.2-1.2c0.1-0.4,0.2-0.9,0.4-1.3s0.3-0.9,0.4-1.3c0.2-0.4,0.3-0.8,0.5-1.2
	c0.2-0.5,0.4-1,0.5-1.4s0.2-0.7,0.2-0.9c0-0.2,0-0.3-0.1-0.3c-0.2,0-0.4,0.1-0.6,0.3c-0.2,0.2-0.5,0.4-0.7,0.7
	c-0.3,0.3-0.5,0.6-0.8,1s-0.5,0.8-0.8,1.1c-0.2,0.4-0.5,0.7-0.7,1.1c-0.2,0.3-0.4,0.6-0.5,0.8l0,0l-0.2,0.4l0,0
	c-0.1,0.4-0.3,0.8-0.4,1.3s-0.2,1-0.2,1.4c0,0.3,0,0.6,0,0.9c0,0.2,0.1,0.4,0.1,0.6c0,0.1,0,0.2,0,0.2c0,0.1-0.1,0.2-0.3,0.2
	c-0.3,0-0.6-0.1-0.9-0.2c-0.2-0.1-0.4-0.3-0.5-0.6c-0.1-0.2-0.2-0.5-0.3-0.8s-0.1-0.6-0.1-0.9c0-0.1,0-0.2,0-0.3s0-0.2,0-0.3
	c0.1-0.7,0.2-1.3,0.3-2c0.1-0.7,0.3-1.3,0.5-2c0.1-0.5,0.2-1,0.4-1.5c0.1-0.5,0.2-0.9,0.2-1.2c0-0.2,0-0.3,0-0.4s0-0.2-0.1-0.3v-0.1
	v-0.1c0-0.1,0.1-0.2,0.2-0.3s0.2-0.1,0.4-0.1c0.4,0,0.7,0.1,0.9,0.2c0.2,0.1,0.4,0.3,0.5,0.5s0.2,0.4,0.2,0.6s0,0.5,0,0.7
	c0,0.3-0.1,0.5-0.1,0.8s-0.1,0.5-0.2,0.7c0,0.2-0.1,0.3-0.1,0.3c0,0.1,0,0.1-0.1,0.3c0.1-0.2,0.2-0.3,0.4-0.5
	c0.1-0.2,0.2-0.4,0.4-0.6c0.3-0.4,0.5-0.8,0.8-1.2c0.3-0.4,0.6-0.8,0.9-1.1s0.6-0.6,1-0.8s0.7-0.3,1.1-0.3c0.3,0,0.5,0.1,0.7,0.2
	s0.3,0.2,0.4,0.4s0.2,0.4,0.2,0.6s0,0.4,0,0.7c0,0.3-0.1,0.7-0.2,1.1s-0.2,0.8-0.4,1.2c0-0.1,0.1-0.1,0.1-0.2s0.1-0.1,0.1-0.2
	c0.3-0.4,0.5-0.8,0.8-1.3s0.6-0.8,0.9-1.1c0.3-0.3,0.6-0.6,1-0.8c0.3-0.2,0.7-0.3,1.1-0.3c0.3,0,0.5,0,0.7,0.1s0.3,0.2,0.4,0.4
	c0.1,0.2,0.2,0.4,0.2,0.6s0,0.5,0,0.7c0,0.5-0.2,1.2-0.4,1.8s-0.4,1.3-0.7,2c-0.2,0.6-0.4,1.2-0.6,1.8s-0.3,1.1-0.3,1.5
	c0,0.1,0,0.2,0,0.3s0,0.2,0,0.4c0,0.1,0.1,0.2,0.1,0.3c0,0.1,0.1,0.1,0.2,0.1s0.3-0.1,0.5-0.4s0.5-0.5,0.7-0.9s0.5-0.8,0.8-1.2
	c0.3-0.4,0.5-0.9,0.7-1.3s0.4-0.8,0.6-1.1c0.2-0.3,0.3-0.6,0.4-0.7v-0.1V85l0,0c0-0.1,0.1-0.2,0.1-0.2c0-0.1,0.1-0.1,0.2-0.1
	s0.2,0,0.2,0.1c0.1,0.1,0.1,0.1,0.1,0.2l-0.4,0.9c-0.2,0.4-0.4,0.8-0.6,1.3s-0.5,0.9-0.7,1.4c-0.3,0.5-0.5,0.9-0.8,1.3
	s-0.6,0.8-0.9,1.1c-0.3,0.3-0.6,0.6-0.9,0.8c-0.3,0.2-0.6,0.3-0.9,0.3c-0.7,0-1.1-0.2-1.4-0.5s-0.4-0.8-0.4-1.4c0-0.1,0-0.1,0-0.2
	s0-0.2,0-0.2c0-0.4,0.1-0.8,0.2-1.2c0.1-0.4,0.2-0.9,0.4-1.3c0.1-0.4,0.3-0.9,0.4-1.3c0.2-0.4,0.3-0.8,0.5-1.2
	c0.2-0.5,0.4-1,0.5-1.4C112.5,82.8,112.6,82.5,112.6,82.3z M123.8,85.2c0,0-0.1,0.1-0.2,0.1s-0.2,0-0.2,0c-0.1,0-0.2-0.1-0.3-0.2
	c0-0.1,0.1-0.2,0.1-0.3c0-0.1,0-0.2,0.1-0.3c0-0.2,0-0.5-0.1-0.8s-0.1-0.5-0.2-0.7s-0.3-0.4-0.4-0.5s-0.4-0.2-0.7-0.2
	c-0.3,0-0.7,0.1-1,0.4s-0.7,0.6-1,1s-0.6,0.9-0.9,1.4s-0.5,1-0.7,1.6s-0.4,1-0.5,1.5s-0.2,0.8-0.2,1.1c0,0.1,0,0.3,0,0.4
	s0,0.3,0.1,0.4s0.1,0.2,0.2,0.3s0.2,0.1,0.4,0.1c0.3,0,0.6-0.2,0.9-0.5s0.7-0.7,1-1.1s0.6-0.9,0.9-1.4s0.5-0.9,0.7-1.3
	c0-0.1,0.1-0.2,0.1-0.4c0.1-0.1,0.1-0.3,0.1-0.5c0-0.1,0-0.2,0.2-0.3s0.3-0.1,0.4-0.1C123.2,84.9,123.6,85.1,123.8,85.2
	c0.2,0.3,0.4,0.6,0.4,0.9s0,0.6-0.1,1s-0.2,0.7-0.2,1c0,0.1,0,0.2-0.1,0.3s0,0.3-0.1,0.5c0,0.2,0,0.4,0,0.6s0,0.3,0,0.5
	s0.1,0.2,0.1,0.2c0.1,0,0.2,0,0.3-0.1c0.2-0.2,0.5-0.5,0.7-0.9s0.5-0.8,0.8-1.2c0.3-0.4,0.5-0.8,0.7-1.3c0.2-0.4,0.4-0.8,0.6-1.2
	c0.1-0.2,0.2-0.4,0.3-0.7s0.2-0.4,0.3-0.5c0.1,0,0.1,0,0.2,0s0.2,0,0.2,0.1c0.1,0.1,0.1,0.1,0.1,0.2l-0.1,0.3
	c-0.1,0.3-0.3,0.6-0.5,0.9s-0.4,0.7-0.6,1.1s-0.4,0.8-0.7,1.2c-0.2,0.4-0.5,0.8-0.7,1.2s-0.5,0.7-0.7,1s-0.5,0.5-0.7,0.7
	s-0.4,0.3-0.7,0.4c-0.3,0.1-0.5,0.2-0.8,0.2s-0.6-0.1-0.8-0.4c-0.2-0.2-0.3-0.5-0.4-0.9c-0.1-0.3-0.1-0.7-0.2-1.1c0-0.4,0-0.7,0-0.9
	l0,0c0,0,0,0,0-0.1c-0.3,0.4-0.5,0.9-0.9,1.3c-0.3,0.4-0.6,0.8-1,1.1s-0.7,0.6-1.1,0.8c-0.4,0.2-0.8,0.3-1.2,0.3
	c-0.4,0-0.7-0.1-1-0.2s-0.5-0.3-0.6-0.5s-0.3-0.5-0.3-0.8c-0.1-0.3-0.1-0.6-0.1-0.9c0-0.1,0-0.1,0-0.2s0-0.1,0-0.2
	c0.1-0.5,0.2-1,0.4-1.6c0.2-0.6,0.4-1.2,0.7-1.8c0.3-0.6,0.6-1.2,1-1.8c0.4-0.6,0.8-1.1,1.3-1.5s0.9-0.8,1.5-1.1s1-0.4,1.6-0.4
	c0.4,0,0.8,0.1,1.1,0.3s0.6,0.5,0.8,0.8c0.2,0.3,0.4,0.7,0.5,1.1s0.1,0.8,0.1,1.2C123.9,84.7,123.9,84.9,123.8,85.2L123.8,85.2z
	 M131,77.7c0,0.3-0.1,0.5-0.1,0.8c-0.1,0.3-0.1,0.6-0.2,0.9c0.4,0,0.8,0,1.2,0.1c0.4,0,0.8,0.1,1.1,0.3c0.3,0.1,0.6,0.3,0.9,0.6
	c0.3,0.2,0.5,0.5,0.6,0.9l0,0c0,0.1,0,0.2,0,0.2c-0.1,0.1-0.2,0.1-0.3,0.1c-0.4-0.4-0.9-0.7-1.5-0.8c-0.6-0.1-1.2-0.2-1.9-0.2h-0.4
	c-0.1,0.4-0.2,0.9-0.3,1.3s-0.2,0.9-0.3,1.3l-0.3,1.1v0.2c-0.1,0.3-0.2,0.6-0.3,1s-0.2,0.9-0.3,1.4s-0.2,1-0.3,1.5s-0.1,1-0.1,1.4
	c0,0.3,0,0.5,0.1,0.7s0.1,0.3,0.2,0.4c0.1,0.1,0.2,0.1,0.4,0s0.4-0.2,0.7-0.4c0.3-0.2,0.6-0.5,0.9-0.9s0.6-0.8,0.8-1.2
	c0.3-0.4,0.5-0.8,0.7-1.3c0.2-0.4,0.4-0.8,0.6-1.2l0,0c0.1-0.3,0.3-0.5,0.4-0.7c0.1-0.2,0.2-0.4,0.3-0.5c0,0,0.1,0,0.2,0
	c0.2,0,0.3,0.1,0.3,0.3l-0.5,1.1l0,0c-0.3,0.6-0.6,1.3-1,2s-0.8,1.4-1.2,2s-0.9,1.1-1.3,1.5c-0.5,0.4-1,0.6-1.5,0.6
	c-0.9,0-1.5-0.2-1.8-0.6s-0.5-1-0.5-1.8c0-0.1,0-0.2,0-0.3s0-0.2,0-0.3c0-0.3,0.1-0.8,0.2-1.3s0.2-1.2,0.4-1.9
	c0.1-0.7,0.3-1.4,0.5-2.1s0.3-1.5,0.5-2.2l0.2-0.8c-0.3,0-0.6,0.1-0.9,0.1s-0.6,0-0.9,0c-0.6,0-1.1-0.1-1.5-0.2s-0.8-0.4-0.9-0.8
	c0,0,0-0.1,0-0.2s0-0.1,0-0.2l0.1-0.1c0.1,0,0.1,0,0.2,0.1l0,0c0.3,0.1,0.6,0.2,0.9,0.3c0.3,0,0.7,0.1,1.1,0.1c0.3,0,0.7,0,1.1-0.1
	c0.4,0,0.8-0.1,1.2-0.1c0.1-0.6,0.3-1.1,0.3-1.6c0.1-0.5,0.2-0.8,0.2-1s0-0.3,0-0.4s0-0.2-0.1-0.3v-0.1v-0.1c0-0.1,0.1-0.2,0.2-0.3
	c0.1,0,0.2-0.1,0.4-0.1c0.4,0,0.7,0.1,0.9,0.2s0.4,0.3,0.5,0.5s0.2,0.4,0.2,0.6C131,77.2,131,77.4,131,77.7z M147.6,92.1
	c-0.8,0-1.4-0.2-1.8-0.6s-0.5-1-0.5-1.8c0-0.1,0-0.2,0-0.3s0-0.2,0-0.3c0-0.1,0-0.1,0-0.2v-0.1v-0.1c0-0.1,0-0.1,0-0.2
	c-0.3,0.4-0.6,0.9-0.9,1.3c-0.3,0.4-0.7,0.8-1,1.2s-0.7,0.6-1.1,0.8c-0.4,0.2-0.8,0.3-1.2,0.3s-0.7-0.1-1-0.2s-0.5-0.3-0.6-0.5
	s-0.3-0.5-0.3-0.8s-0.1-0.6-0.1-0.9c0-0.1,0-0.2,0-0.2v-0.2c0.1-0.5,0.2-1,0.4-1.6s0.4-1.2,0.7-1.8c0.3-0.6,0.6-1.2,1-1.8
	c0.4-0.6,0.8-1.1,1.3-1.5s0.9-0.8,1.5-1.1s1-0.4,1.6-0.4c0.3,0,0.5,0,0.7,0.1s0.4,0.2,0.6,0.3L147,81c0.1-0.5,0.2-0.9,0.3-1.3
	s0.2-0.8,0.3-1.1s0.1-0.7,0.2-0.9c0-0.3,0.1-0.5,0.1-0.6c0-0.2,0-0.3,0-0.4s0-0.2-0.1-0.3v-0.1v-0.1c0-0.1,0.1-0.2,0.2-0.3
	s0.2-0.1,0.4-0.1c0.4,0,0.7,0.1,0.9,0.2s0.4,0.3,0.5,0.5s0.2,0.4,0.2,0.6s0,0.5,0,0.7s-0.1,0.5-0.1,0.9s-0.2,0.8-0.3,1.3
	s-0.2,1-0.4,1.5c-0.1,0.6-0.3,1.1-0.4,1.7c0,0.2-0.1,0.4-0.2,0.7s-0.1,0.6-0.2,0.9c-0.1,0.4-0.2,0.8-0.3,1.3s-0.2,0.9-0.3,1.4
	s-0.2,0.9-0.2,1.3s-0.1,0.8-0.1,1.1c0,0.1,0,0.2,0,0.2s0,0.1,0,0.2c0.1,0.4,0.2,0.6,0.5,0.6c0.1,0,0.2,0,0.4-0.1
	c0.1-0.1,0.3-0.1,0.4-0.2c0.1-0.1,0.3-0.2,0.4-0.3c0.1-0.1,0.2-0.2,0.3-0.3c0.3-0.3,0.5-0.6,0.7-0.9c0.2-0.4,0.4-0.7,0.7-1.1
	s0.4-0.7,0.6-1.1c0.2-0.4,0.3-0.7,0.5-1c0.1-0.3,0.2-0.5,0.3-0.7s0.2-0.3,0.2-0.4c0,0,0.1,0,0.1-0.1s0.1,0,0.1,0
	c0.1,0,0.1,0,0.2,0.1c0.1,0.1,0.1,0.1,0.1,0.2c-0.1,0.2-0.2,0.4-0.3,0.6s-0.2,0.4-0.3,0.6c-0.2,0.3-0.4,0.7-0.5,1.1
	c-0.2,0.4-0.4,0.7-0.6,1.1c-0.2,0.4-0.4,0.7-0.6,1.1s-0.4,0.7-0.6,1c-0.2,0.2-0.3,0.4-0.5,0.6s-0.4,0.4-0.6,0.5s-0.4,0.3-0.7,0.4
	C148.1,92,147.8,92.1,147.6,92.1z M145.7,86.3c0.1-0.5,0.2-1,0.3-1.5s0.2-1,0.4-1.6c0-0.1,0-0.2,0.1-0.3c0-0.1,0.1-0.2,0.1-0.3
	c-0.2-0.1-0.4-0.2-0.7-0.2s-0.7,0.1-1,0.4s-0.7,0.6-1,1s-0.6,0.9-0.9,1.4c-0.3,0.5-0.5,1-0.7,1.6c-0.2,0.5-0.4,1-0.5,1.5
	s-0.2,0.8-0.2,1.1c0,0.1,0,0.3,0,0.4c0,0.2,0,0.3,0.1,0.4c0,0.1,0.1,0.2,0.2,0.3c0.1,0.1,0.2,0.1,0.4,0.1s0.4-0.1,0.7-0.2
	s0.5-0.4,0.7-0.6c0.2-0.3,0.5-0.5,0.7-0.9s0.4-0.6,0.6-1s0.4-0.6,0.5-0.9C145.5,86.7,145.6,86.5,145.7,86.3L145.7,86.3z M159.5,85.2
	c0,0-0.1,0.1-0.2,0.1c-0.1,0-0.2,0-0.2,0c-0.1,0-0.2-0.1-0.3-0.2c0-0.1,0.1-0.2,0.1-0.3c0-0.1,0-0.2,0.1-0.3c0-0.2,0-0.5-0.1-0.8
	c0-0.3-0.1-0.5-0.2-0.7c-0.1-0.2-0.3-0.4-0.4-0.5c-0.2-0.1-0.4-0.2-0.7-0.2s-0.7,0.1-1,0.4s-0.7,0.6-1,1s-0.6,0.9-0.9,1.4
	s-0.5,1-0.7,1.6s-0.4,1-0.5,1.5s-0.2,0.8-0.2,1.1c0,0.1,0,0.3,0,0.4c0,0.2,0,0.3,0.1,0.4s0.1,0.2,0.2,0.3c0.1,0.1,0.2,0.1,0.4,0.1
	c0.3,0,0.6-0.2,0.9-0.5c0.3-0.3,0.7-0.7,1-1.1s0.6-0.9,0.9-1.4c0.3-0.5,0.5-0.9,0.7-1.3c0-0.1,0.1-0.2,0.1-0.4s0.1-0.3,0.1-0.5
	c0-0.1,0-0.2,0.2-0.3c0.1,0,0.3-0.1,0.4-0.1C158.9,84.9,159.3,85.1,159.5,85.2c0.2,0.3,0.4,0.6,0.4,0.9s0,0.6-0.1,1s-0.2,0.7-0.2,1
	c0,0.1,0,0.2-0.1,0.3s0,0.3-0.1,0.5c0,0.2,0,0.4,0,0.6s0,0.3,0,0.5c0,0.1,0.1,0.2,0.1,0.2c0.1,0,0.2,0,0.3-0.1
	c0.2-0.2,0.5-0.5,0.7-0.9c0.3-0.4,0.5-0.8,0.8-1.2c0.3-0.4,0.5-0.8,0.7-1.3c0.2-0.4,0.4-0.8,0.6-1.2c0.1-0.2,0.2-0.4,0.3-0.7
	c0.1-0.2,0.2-0.4,0.3-0.5c0.1,0,0.1,0,0.2,0c0.1,0,0.2,0,0.2,0.1c0.1,0.1,0.1,0.1,0.1,0.2l-0.1,0.3c-0.1,0.3-0.3,0.6-0.5,0.9
	c-0.2,0.4-0.4,0.7-0.6,1.1c-0.2,0.4-0.4,0.8-0.7,1.2c-0.2,0.4-0.5,0.8-0.7,1.2s-0.5,0.7-0.7,1s-0.5,0.5-0.7,0.7s-0.4,0.3-0.7,0.4
	s-0.5,0.2-0.8,0.2s-0.6-0.1-0.8-0.4c-0.2-0.2-0.3-0.5-0.4-0.9c-0.1-0.3-0.1-0.7-0.2-1.1c0-0.4,0-0.7,0-0.9l0,0c0,0,0,0,0-0.1
	c-0.3,0.4-0.5,0.9-0.9,1.3c-0.3,0.4-0.6,0.8-1,1.1s-0.7,0.6-1.1,0.8c-0.4,0.2-0.8,0.3-1.2,0.3s-0.7-0.1-1-0.2s-0.5-0.3-0.6-0.5
	c-0.2-0.2-0.3-0.5-0.3-0.8c-0.1-0.3-0.1-0.6-0.1-0.9c0-0.1,0-0.1,0-0.2s0-0.1,0-0.2c0.1-0.5,0.2-1,0.4-1.6s0.4-1.2,0.7-1.8
	c0.3-0.6,0.6-1.2,1-1.8c0.4-0.6,0.8-1.1,1.3-1.5s0.9-0.8,1.5-1.1c0.5-0.3,1-0.4,1.6-0.4c0.4,0,0.8,0.1,1.1,0.3s0.6,0.5,0.8,0.8
	s0.4,0.7,0.5,1.1s0.1,0.8,0.1,1.2C159.6,84.7,159.6,84.9,159.5,85.2L159.5,85.2z M166.7,77.7c0,0.3-0.1,0.5-0.1,0.8
	s-0.1,0.6-0.2,0.9c0.4,0,0.8,0,1.2,0.1c0.4,0,0.8,0.1,1.1,0.3s0.6,0.3,0.9,0.6c0.3,0.2,0.5,0.5,0.6,0.9l0,0c0,0.1,0,0.2,0,0.2
	c-0.1,0.1-0.2,0.1-0.3,0.1c-0.4-0.4-0.9-0.7-1.5-0.8s-1.2-0.2-1.9-0.2h-0.4c-0.1,0.4-0.2,0.9-0.3,1.3s-0.2,0.9-0.3,1.3l-0.3,1.1v0.2
	c-0.1,0.3-0.2,0.6-0.3,1s-0.2,0.9-0.3,1.4s-0.2,1-0.3,1.5s-0.1,1-0.1,1.4c0,0.3,0,0.5,0.1,0.7c0,0.2,0.1,0.3,0.2,0.4
	c0.1,0.1,0.2,0.1,0.4,0s0.4-0.2,0.7-0.4c0.3-0.2,0.6-0.5,0.9-0.9c0.3-0.4,0.6-0.8,0.8-1.2s0.5-0.8,0.7-1.3c0.2-0.4,0.4-0.8,0.6-1.2
	l0,0c0.1-0.3,0.3-0.5,0.4-0.7c0.1-0.2,0.2-0.4,0.3-0.5c0,0,0.1,0,0.2,0c0.2,0,0.3,0.1,0.3,0.3l-0.5,1.1l0,0c-0.3,0.6-0.6,1.3-1,2
	s-0.8,1.4-1.2,2s-0.9,1.1-1.3,1.5c-0.5,0.4-1,0.6-1.5,0.6c-0.9,0-1.5-0.2-1.8-0.6s-0.5-1-0.5-1.8c0-0.1,0-0.2,0-0.3s0-0.2,0-0.3
	c0-0.3,0.1-0.8,0.2-1.3c0.1-0.6,0.2-1.2,0.4-1.9s0.3-1.4,0.5-2.1s0.3-1.5,0.5-2.2l0.2-0.8c-0.3,0-0.6,0.1-0.9,0.1
	c-0.3,0-0.6,0-0.9,0c-0.6,0-1.1-0.1-1.5-0.2s-0.8-0.4-0.9-0.8c0,0,0-0.1,0-0.2s0-0.1,0-0.2s0.1-0.1,0.1-0.1c0.1,0,0.1,0,0.2,0.1l0,0
	c0.3,0.1,0.6,0.2,0.9,0.3s0.7,0.1,1.1,0.1c0.3,0,0.7,0,1.1-0.1c0.4,0,0.8-0.1,1.2-0.1c0.1-0.6,0.3-1.1,0.3-1.6
	c0.1-0.5,0.2-0.8,0.2-1s0-0.3,0-0.4s0-0.2-0.1-0.3v-0.1v-0.1c0-0.1,0.1-0.2,0.2-0.3c0.1,0,0.2-0.1,0.4-0.1c0.4,0,0.7,0.1,0.9,0.2
	s0.4,0.3,0.5,0.5s0.2,0.4,0.2,0.6C166.7,77.2,166.7,77.4,166.7,77.7z M176.2,85.2c0,0-0.1,0.1-0.2,0.1c-0.1,0-0.2,0-0.2,0
	c-0.1,0-0.2-0.1-0.3-0.2c0-0.1,0.1-0.2,0.1-0.3c0-0.1,0-0.2,0.1-0.3c0-0.2,0-0.5-0.1-0.8c0-0.3-0.1-0.5-0.2-0.7
	c-0.1-0.2-0.3-0.4-0.4-0.5c-0.2-0.1-0.4-0.2-0.7-0.2s-0.7,0.1-1,0.4s-0.7,0.6-1,1s-0.6,0.9-0.9,1.4s-0.5,1-0.7,1.6s-0.4,1-0.5,1.5
	S170,89,170,89.3c0,0.1,0,0.3,0,0.4c0,0.2,0,0.3,0.1,0.4s0.1,0.2,0.2,0.3c0.1,0.1,0.2,0.1,0.4,0.1c0.3,0,0.6-0.2,0.9-0.5
	c0.3-0.3,0.7-0.7,1-1.1s0.6-0.9,0.9-1.4c0.3-0.5,0.5-0.9,0.7-1.3c0-0.1,0.1-0.2,0.1-0.4s0.1-0.3,0.1-0.5c0-0.1,0-0.2,0.2-0.3
	c0.1,0,0.3-0.1,0.4-0.1C175.6,84.9,176,85.1,176.2,85.2c0.2,0.3,0.4,0.6,0.4,0.9s0,0.6-0.1,1s-0.2,0.7-0.2,1c0,0.1,0,0.2-0.1,0.3
	s0,0.3-0.1,0.5c0,0.2,0,0.4,0,0.6s0,0.3,0,0.5c0,0.1,0.1,0.2,0.1,0.2c0.1,0,0.2,0,0.3-0.1c0.2-0.2,0.5-0.5,0.7-0.9
	c0.3-0.4,0.5-0.8,0.8-1.2c0.3-0.4,0.5-0.8,0.7-1.3c0.2-0.4,0.4-0.8,0.6-1.2c0.1-0.2,0.2-0.4,0.3-0.7c0.1-0.2,0.2-0.4,0.3-0.5
	c0.1,0,0.1,0,0.2,0c0.1,0,0.2,0,0.2,0.1c0.1,0.1,0.1,0.1,0.1,0.2l-0.1,0.3c-0.1,0.3-0.3,0.6-0.5,0.9c-0.2,0.4-0.4,0.7-0.6,1.1
	c-0.2,0.4-0.4,0.8-0.7,1.2c-0.2,0.4-0.5,0.8-0.7,1.2s-0.5,0.7-0.7,1s-0.5,0.5-0.7,0.7s-0.4,0.3-0.7,0.4s-0.5,0.2-0.8,0.2
	s-0.6-0.1-0.8-0.4c-0.2-0.2-0.3-0.5-0.4-0.9c-0.1-0.3-0.1-0.7-0.2-1.1c0-0.4,0-0.7,0-0.9l0,0c0,0,0,0,0-0.1
	c-0.3,0.4-0.5,0.9-0.9,1.3c-0.3,0.4-0.6,0.8-1,1.1s-0.7,0.6-1.1,0.8c-0.4,0.2-0.8,0.3-1.2,0.3s-0.7-0.1-1-0.2s-0.5-0.3-0.6-0.5
	c-0.2-0.2-0.3-0.5-0.3-0.8c-0.1-0.3-0.1-0.6-0.1-0.9c0-0.1,0-0.1,0-0.2s0-0.1,0-0.2c0.1-0.5,0.2-1,0.4-1.6s0.4-1.2,0.7-1.8
	c0.3-0.6,0.6-1.2,1-1.8c0.4-0.6,0.8-1.1,1.3-1.5s0.9-0.8,1.5-1.1c0.5-0.3,1-0.4,1.6-0.4c0.4,0,0.8,0.1,1.1,0.3s0.6,0.5,0.8,0.8
	s0.4,0.7,0.5,1.1s0.1,0.8,0.1,1.2C176.4,84.7,176.3,84.9,176.2,85.2L176.2,85.2z M181.9,84.6c0,0.1-0.1,0.2-0.1,0.3
	c0,0.1,0,0.2-0.1,0.3c0.1-0.2,0.2-0.3,0.3-0.5s0.2-0.4,0.4-0.6c0.3-0.4,0.5-0.8,0.8-1.2c0.3-0.4,0.6-0.8,0.9-1.1
	c0.3-0.3,0.6-0.6,1-0.8s0.7-0.3,1.1-0.3c0.3,0,0.5,0,0.7,0.1s0.3,0.2,0.4,0.4c0.1,0.2,0.2,0.3,0.2,0.6c0,0.2,0,0.5,0,0.7
	c0,0.5-0.2,1.1-0.4,1.8s-0.4,1.3-0.7,2c-0.2,0.6-0.4,1.2-0.6,1.8c-0.2,0.6-0.3,1.1-0.3,1.5c0,0.1,0,0.2,0,0.3c0,0.1,0,0.3,0,0.4
	s0.1,0.2,0.1,0.3c0,0.1,0.1,0.1,0.2,0.1c0.1,0,0.3-0.1,0.5-0.4c0.2-0.2,0.5-0.5,0.7-0.9c0.3-0.4,0.5-0.8,0.8-1.2
	c0.3-0.4,0.5-0.9,0.7-1.3s0.4-0.8,0.6-1.1c0.2-0.3,0.3-0.6,0.4-0.7V85l0.1-0.1c0-0.1,0.1-0.2,0.1-0.2c0-0.1,0.1-0.1,0.2-0.1
	c0.1,0,0.2,0,0.2,0.1s0.1,0.1,0.1,0.2c-0.1,0.1-0.1,0.3-0.2,0.4s-0.2,0.3-0.2,0.5c-0.2,0.4-0.4,0.8-0.6,1.2
	c-0.2,0.4-0.5,0.9-0.7,1.3c-0.3,0.4-0.5,0.9-0.8,1.3s-0.6,0.8-0.9,1.1s-0.6,0.6-0.9,0.8c-0.3,0.2-0.6,0.3-0.9,0.3
	c-0.3,0-0.6-0.1-0.8-0.2s-0.4-0.2-0.5-0.4c-0.1-0.2-0.2-0.4-0.3-0.6s-0.1-0.5-0.1-0.8c0-0.1,0-0.1,0-0.2s0-0.1,0-0.2
	c0-0.4,0.1-0.8,0.2-1.2c0.1-0.4,0.2-0.9,0.4-1.3s0.3-0.9,0.4-1.3s0.3-0.8,0.5-1.2c0.2-0.5,0.4-1,0.5-1.4s0.2-0.7,0.3-0.9
	c0-0.2,0-0.3-0.1-0.3c-0.2,0-0.4,0.1-0.6,0.3c-0.2,0.2-0.5,0.4-0.7,0.7c-0.3,0.3-0.5,0.6-0.8,1s-0.5,0.8-0.8,1.1
	c-0.2,0.4-0.5,0.7-0.7,1.1c-0.2,0.3-0.4,0.6-0.5,0.8l0,0l-0.2,0.4l0,0c-0.2,0.4-0.3,0.8-0.4,1.4s-0.2,1-0.2,1.4c0,0.1,0,0.2,0,0.2
	s0,0.1,0,0.2c0,0.2,0,0.4,0,0.6s0.1,0.3,0.1,0.4s0,0.2,0,0.2c0,0.1-0.1,0.2-0.3,0.2c-0.3,0-0.6-0.1-0.9-0.2s-0.4-0.3-0.5-0.6
	c-0.1-0.2-0.2-0.5-0.3-0.8s-0.1-0.6-0.1-0.9c0-0.1,0-0.2,0-0.3s0-0.2,0-0.3c0-0.3,0.1-0.7,0.1-1s0.1-0.7,0.2-1
	c0.1-0.4,0.2-0.7,0.2-1c0.1-0.3,0.2-0.7,0.2-1c0.1-0.5,0.3-1,0.4-1.5c0.1-0.5,0.2-0.8,0.2-1.2c0-0.2,0-0.3,0-0.4s0-0.2-0.1-0.3v-0.1
	v-0.1c0-0.1,0.1-0.2,0.2-0.3c0.1,0,0.2-0.1,0.4-0.1c0.4,0,0.7,0.1,0.9,0.2s0.4,0.3,0.5,0.5s0.2,0.4,0.2,0.6s0,0.5,0,0.7
	c0,0.3-0.1,0.5-0.1,0.8C182,84.1,182,84.3,181.9,84.6z M199.5,85.1C199.5,85.1,199.5,85,199.5,85.1C199.5,85,199.5,85,199.5,85.1
	c0.1-0.1,0.2-0.1,0.3-0.1s0.2,0.1,0.3,0.2c-0.3,0.5-0.5,1.1-0.9,1.6s-0.6,1.1-1,1.7c-0.3,0.5-0.7,1-1.1,1.5c-0.4,0.4-0.7,0.8-1,1
	c-0.2,1.1-0.4,2.1-0.7,3.2s-0.6,2.1-0.9,3c-0.3,1-0.7,1.8-1.1,2.7c-0.4,0.8-0.8,1.5-1.3,2.1s-1,1-1.5,1.3s-1.1,0.4-1.7,0.3
	c-0.5-0.1-1-0.3-1.3-0.8s-0.5-1-0.5-1.7c0-0.3,0-0.7,0.1-1c0.2-0.9,0.6-1.7,1-2.4s0.9-1.5,1.4-2.1c0.5-0.7,1.1-1.3,1.7-1.9
	s1.3-1.2,1.9-1.8c0.1-0.4,0.2-0.7,0.2-1.1c0.1-0.4,0.2-0.7,0.2-1l0.2-1c-0.3,0.4-0.6,0.8-0.9,1.2c-0.3,0.4-0.6,0.7-1,1
	c-0.3,0.3-0.7,0.5-1.1,0.7c-0.4,0.2-0.8,0.3-1.1,0.3c-0.4,0-0.7-0.1-0.9-0.2s-0.5-0.3-0.6-0.5s-0.3-0.5-0.3-0.8s-0.1-0.6-0.1-0.9
	c0-0.1,0-0.1,0-0.2s0-0.2,0-0.2c0.1-0.5,0.2-1,0.4-1.6s0.4-1.2,0.7-1.8s0.6-1.2,1-1.8c0.4-0.6,0.8-1.1,1.3-1.5s0.9-0.8,1.4-1.1
	c0.5-0.3,1-0.4,1.6-0.4c0.4,0,0.8,0.1,1.1,0.3c0.3,0.2,0.6,0.5,0.8,0.8s0.4,0.7,0.5,1.1s0.1,0.8,0.1,1.2c0,0.1,0,0.3-0.1,0.4
	c0,0.1-0.1,0.3-0.1,0.4c0,0-0.1,0.1-0.2,0.1c-0.1,0-0.2,0.1-0.2,0.1c-0.1,0-0.2-0.1-0.3-0.2c0-0.1,0.1-0.2,0.1-0.3
	c0-0.1,0-0.2,0.1-0.3c0-0.2,0-0.5-0.1-0.8c0-0.3-0.1-0.5-0.2-0.7c-0.1-0.2-0.3-0.4-0.4-0.5c-0.2-0.1-0.4-0.2-0.7-0.2s-0.7,0.1-1,0.4
	s-0.7,0.6-1,1s-0.6,0.9-0.9,1.4s-0.5,1-0.7,1.6c-0.2,0.5-0.4,1-0.5,1.5s-0.2,0.8-0.2,1.1c0,0.1,0,0.3,0,0.4c0,0.2,0,0.3,0.1,0.4
	c0,0.1,0.1,0.2,0.2,0.3c0.1,0.1,0.2,0.1,0.4,0.1c0.3,0,0.5-0.1,0.8-0.3c0.3-0.2,0.6-0.5,0.8-0.9s0.5-0.7,0.8-1.1s0.5-0.8,0.7-1.2
	c0-0.1,0.1-0.2,0.1-0.4c0-0.1,0.1-0.3,0.1-0.4v-0.1v-0.1l-0.1-0.3c0-0.1,0-0.1,0-0.2s0-0.1,0-0.1c0-0.1,0.1-0.2,0.2-0.3
	c0.1,0,0.2-0.1,0.4-0.1c0.3,0,0.6,0,0.8,0.1s0.4,0.2,0.6,0.3c0.1,0.1,0.3,0.3,0.3,0.4s0.1,0.4,0.2,0.6c0,0.5-0.1,1-0.2,1.6
	s-0.1,1.1-0.2,1.7c0.3-0.2,0.5-0.5,0.8-0.9s0.5-0.7,0.8-1.2s0.5-0.8,0.7-1.3C199,85.9,199.3,85.4,199.5,85.1z M188.1,101
	c0,0.3,0.1,0.5,0.2,0.6c0.1,0.2,0.3,0.2,0.6,0.2c0.2,0,0.4-0.1,0.7-0.3c0.2-0.2,0.4-0.4,0.6-0.6c0.3-0.4,0.6-0.8,0.8-1.3
	c0.3-0.5,0.5-1.1,0.7-1.6c0.2-0.6,0.4-1.2,0.6-1.8c0.2-0.6,0.4-1.1,0.5-1.7l0.3-1l0.1-0.4l0.1-0.2c-0.7,0.5-1.3,1.1-1.9,1.8
	c-0.6,0.7-1.2,1.4-1.7,2.2c-0.1,0.2-0.2,0.4-0.4,0.7c-0.2,0.3-0.3,0.7-0.5,1.1s-0.3,0.8-0.4,1.2C188.1,100.3,188.1,100.7,188.1,101z
	"/>
</svg>
