<?xml version="1.0" encoding="utf-8"?>
<!-- Generator: Adobe Illustrator 21.0.0, SVG Export Plug-In . SVG Version: 6.00 Build 0)  -->
<svg version="1.1" id="Layer_1" xmlns="http://www.w3.org/2000/svg" xmlns:xlink="http://www.w3.org/1999/xlink" x="0px" y="0px"
	 viewBox="0 0 259 180" style="enable-background:new 0 0 259 180;" xml:space="preserve">
<style type="text/css">
	.st0{fill:#FFFFFF;}
</style>
<g>
	<g>
		<g>
			<path d="M100.5,89.3c0,0.6,0,1.1,0,1.7c-0.1,0.3-0.1,0.5-0.2,0.8c-0.2,1.3-0.3,2.6-0.5,3.8c-3,13.1-15.9,21.5-29.2,18.7
				c-12.8-2.7-21.7-15.1-19.2-28.8c1.8-9.7,9.8-17.8,19.6-19.6c1.2-0.2,2.3-0.4,3.5-0.5c0.8,0,1.5,0,2.3,0c0.3,0.1,0.5,0.2,0.8,0.2
				c1.2,0.2,2.4,0.3,3.5,0.5c9.6,2.1,17.1,10,18.8,19.6C100.1,86.8,100.3,88.1,100.5,89.3z M76.2,105
				C76.2,105.1,76.2,105.1,76.2,105c1.6,0.1,3.1,0,4.7,0.1c5.7,0,9.6-3.7,9.8-9.4c0.1-2.1,0-4.1,0-6.2c0-2.9-0.2-3.1-3.1-3.1
				c-1.8,0-2.2-0.4-2.3-2.2c-0.2-4.6-3.5-8.3-8-8.8c-2.5-0.3-5.1-0.2-7.6-0.1c-4.7,0.1-8.7,4-8.8,8.7c-0.1,4-0.1,8,0,12
				c0.1,4.5,4.1,8.6,8.6,9C71.7,105.2,74,105,76.2,105z"/>
			<path class="st0" d="M74.5,65.3c-1.2,0.2-2.3,0.3-3.5,0.5c-9.8,1.7-17.8,9.8-19.6,19.6c-2.5,13.7,6.4,26.2,19.2,28.8
				c13.3,2.8,26.2-5.6,29.2-18.7c0.3-1.3,0.4-2.6,0.5-3.8c0-0.3,0.1-0.5,0.2-0.8c0,8,0,16.1,0,24.1c-16.6,0-33.1,0-49.7,0
				c0-16.6,0-33.2,0-49.7C58.7,65.3,66.6,65.3,74.5,65.3z"/>
			<path class="st0" d="M100.5,89.3c-0.2-1.2-0.3-2.4-0.5-3.7C98.2,76,90.7,68.1,81.1,66c-1.1-0.2-2.3-0.3-3.5-0.5
				c-0.3,0-0.5-0.1-0.8-0.2c7.9,0,15.7,0,23.6,0C100.5,73.3,100.5,81.3,100.5,89.3z"/>
			<path class="st0" d="M76.2,105c-2.2,0-4.4,0.1-6.6,0c-4.5-0.3-8.5-4.5-8.6-9c-0.1-4-0.1-8,0-12c0.1-4.7,4.1-8.6,8.8-8.7
				c2.5-0.1,5.1-0.2,7.6,0.1c4.5,0.5,7.7,4.3,8,8.8c0.1,1.8,0.5,2.2,2.3,2.2c2.9,0,3.1,0.2,3.1,3.1c0,2.1,0,4.1,0,6.2
				c-0.2,5.7-4.1,9.4-9.8,9.4C79.3,105.1,77.7,105.1,76.2,105C76.2,105.1,76.2,105.1,76.2,105z M75.8,93.9c-1.8,0-3.6,0-5.4,0
				c-1,0-1.6,0.5-1.7,1.3c-0.2,1.1,0.6,1.9,1.8,1.9c3.5,0,6.9,0,10.4,0c1.1,0,1.8-0.6,1.8-1.6s-0.7-1.6-1.9-1.6
				C79.2,93.9,77.5,93.9,75.8,93.9z M73.1,86.3L73.1,86.3c0.9,0,1.8,0,2.7,0c1,0,1.6-0.7,1.6-1.5s-0.6-1.5-1.5-1.5
				c-1.8-0.1-3.7-0.1-5.5,0c-0.9,0-1.5,0.7-1.5,1.6s0.6,1.5,1.5,1.5C71.3,86.4,72.2,86.3,73.1,86.3z"/>
			<path d="M75.8,93.9c1.7,0,3.4,0,5.1,0c1.2,0,1.9,0.6,1.9,1.6s-0.7,1.6-1.8,1.6c-3.5,0-6.9,0-10.4,0c-1.3,0-2-0.8-1.8-1.9
				c0.1-0.8,0.7-1.3,1.7-1.3C72.3,93.9,74.1,93.9,75.8,93.9z"/>
			<path d="M73.1,86.3c-0.9,0-1.8,0-2.7,0c-1,0-1.5-0.6-1.5-1.5s0.5-1.5,1.5-1.6c1.8-0.1,3.7-0.1,5.5,0c0.9,0,1.5,0.7,1.5,1.5
				c0,0.9-0.6,1.5-1.6,1.5C74.9,86.4,74,86.3,73.1,86.3L73.1,86.3z"/>
		</g>
	</g>
	<path d="M137.3,72c-3.8-1.4-8.8-8.4-8.8-8.4s0.5,6.1-5,8.8c-8.9,3.1-15.3,11.5-15.3,21.4c0,12.5,10.1,22.7,22.7,22.7
		c12.5,0,22.7-10.2,22.7-22.7C153.6,83.4,146.8,74.7,137.3,72L137.3,72z M113.5,82.3c-0.7-4.5,9.7-9.1,9.7-9.1
		c5.4-2,5.9-7.1,5.9-7.1c2.1,4-2.5,5.8-2.5,5.8c2,1.2-2.6,4.8-2.6,4.8C115.6,83.7,113.5,82.3,113.5,82.3L113.5,82.3z M128.2,111
		l0.9-1c0.2,0.2,5.1,4.6,12.6-0.3l0.7,1.1C134,116.3,128.2,111,128.2,111L128.2,111z M132.8,107.4c0,0,2.3-4.2,7.1-2.3
		c0,0,1.4,0.6,1.4,2.5H140c0-0.7-0.5-1.2-0.7-1.4c-3.5-1.4-5.4,1.6-5.4,1.7l0,0L132.8,107.4L132.8,107.4z M145.6,106.6
		c0,0-2.7-2.4-3.9-4c0,0-2.6-2.3-4.7-0.9c0,0-8.9,6.9-14.2,5.5c0,0-6.6-1.8-4.1-8.3c0,0,3.5-8.3,13.3-3.2l4.6,2.9
		c0,0,2.5,2.6,6.3-0.7c0,0,6.3-6.1,8.4-0.6C151.3,97.1,151.8,108,145.6,106.6L145.6,106.6z"/>
	<g>
		<g>
			<path class="st0" d="M158.5,116.6c0-17.6,0-35.3,0-52.9c17.7,0,35.3,0,53,0c0,17.6,0,35.3,0,52.9
				C193.9,116.6,176.2,116.6,158.5,116.6z M185,66.2c-13.2,0-23.9,10.7-23.9,23.9s10.7,24,23.8,24c13.3,0,24.1-10.7,24.1-23.9
				C209,76.9,198.2,66.2,185,66.2z"/>
			<path d="M185,66.2c13.2,0,24,10.8,24,24s-10.8,23.9-24.1,23.9c-13.1,0-23.8-10.8-23.8-24C161.1,76.9,171.9,66.2,185,66.2z
				 M185,113c12.6,0,22.7-10.1,22.9-22.6c0.1-12.8-10.1-23.1-22.7-23.2c-12.7-0.1-23,10.2-23.1,22.7C162.1,102.7,172.3,113,185,113z
				"/>
			<path class="st0" d="M185,113c-12.7,0-23-10.3-22.9-23.1c0.1-12.5,10.3-22.8,23.1-22.7c12.6,0.1,22.9,10.4,22.7,23.2
				C207.8,102.9,197.6,113,185,113z M175.8,83.1c-0.2,0-0.5,0-0.7,0c-1.4,0-2.2,1-1.7,2.4c2.1,5.3,4.3,10.7,6.4,16
				c0.1,0.1,0.1,0.3,0.2,0.4c0.1-0.1,0.1-0.2,0.1-0.3c1.4-3.4,2.9-6.8,4.3-10.2c0.1-0.2,0.1-0.5,0-0.7c-0.7-1.8-1.5-3.6-2.1-5.4
				c-0.4-1.2-1.2-1.8-2.4-2.1c-0.4-0.1-0.9-0.2-1.3-0.3c0-0.3,0-0.6,0-0.8c4.7,0,9.4,0,14.1,0c0,0.3,0,0.6,0,1
				c-0.6,0-1.2,0.1-1.7,0.1c-0.7,0.1-1.1,0.5-1.2,1.2c0,0.3,0.1,0.7,0.2,1c1.4,3.7,2.7,7.3,4.1,11c0.6,1.7,1.2,3.3,1.9,5.1
				c0.1-0.2,0.2-0.4,0.2-0.5c0.6-1.6,1.2-3.2,1.9-4.8c0.9-2.2,1.4-4.5,1.4-6.8c0-2-0.1-3.9-1-5.8c-0.4-0.8-0.5-1.6-0.7-2.4
				c-0.2-1-0.1-2,0.5-2.8c0.5-0.8,1.2-1.2,2.1-1.2c-4.3-5.3-12.1-8.5-20.1-6.6c-7.6,1.8-12.5,7.6-14,11.8c3.1,0,6.2,0,9.4,0
				C175.8,82.4,175.8,82.7,175.8,83.1z M185.6,93.3c-2.4,5.5-4.7,10.8-6.9,16.2c3.9,1.5,9.4,1.4,13.1-0.1
				C189.7,104,187.7,98.7,185.6,93.3z M175.1,107.9c-3.2-7.8-6.3-15.6-9.5-23.4C162.8,94,167.3,103.6,175.1,107.9z M195.4,107.7
				c8.6-5,11.7-15.4,9-23.5C201.4,92,198.4,99.8,195.4,107.7z"/>
			<path d="M175.8,83.1c0-0.4,0-0.7,0-1c-3.2,0-6.3,0-9.4,0c1.4-4.1,6.4-10,14-11.8c8-1.8,15.7,1.3,20.1,6.6c-0.9,0-1.6,0.5-2.1,1.2
				c-0.6,0.9-0.6,1.9-0.5,2.8c0.2,0.8,0.3,1.7,0.7,2.4c0.9,1.8,1.1,3.8,1,5.8c-0.1,2.4-0.6,4.6-1.4,6.8c-0.6,1.6-1.3,3.2-1.9,4.8
				c-0.1,0.2-0.1,0.3-0.2,0.5c-0.7-1.7-1.3-3.4-1.9-5.1c-1.4-3.6-2.7-7.3-4.1-11c-0.1-0.3-0.2-0.7-0.2-1c0-0.7,0.5-1.1,1.2-1.2
				c0.6-0.1,1.1-0.1,1.7-0.1c0-0.3,0-0.6,0-1c-4.7,0-9.4,0-14.1,0c0,0.3,0,0.5,0,0.8c0.4,0.1,0.9,0.2,1.3,0.3c1.1,0.3,2,1,2.4,2.1
				c0.7,1.8,1.4,3.6,2.1,5.4c0.1,0.2,0.1,0.5,0,0.7c-1.4,3.4-2.8,6.8-4.3,10.2c0,0.1-0.1,0.1-0.1,0.3c-0.1-0.2-0.2-0.3-0.2-0.4
				c-2.1-5.3-4.3-10.7-6.4-16c-0.5-1.3,0.2-2.4,1.7-2.4C175.4,83.1,175.6,83.1,175.8,83.1z"/>
			<path d="M185.6,93.3c2.1,5.5,4.2,10.8,6.2,16.1c-3.7,1.5-9.3,1.6-13.1,0.1C180.9,104.1,183.2,98.8,185.6,93.3z"/>
			<path d="M175.1,107.9c-7.8-4.2-12.3-13.9-9.5-23.4C168.7,92.3,171.9,100.1,175.1,107.9z"/>
			<path d="M195.4,107.7c3-7.9,6-15.6,9-23.5C207.2,92.3,204.1,102.6,195.4,107.7z"/>
		</g>
	</g>
</g>
<circle cx="258.5" cy="90" r="16.5"/>
<circle cx="0.5" cy="90" r="16.5"/>
</svg>
