<?xml version="1.0" encoding="utf-8"?>
<!-- Generator: Adobe Illustrator 21.0.0, SVG Export Plug-In . SVG Version: 6.00 Build 0)  -->
<svg version="1.1" id="Layer_1" xmlns="http://www.w3.org/2000/svg" xmlns:xlink="http://www.w3.org/1999/xlink" x="0px" y="0px"
	 viewBox="0 0 259 180" style="enable-background:new 0 0 259 180;" xml:space="preserve">
<style type="text/css">
	.st0{display:none;fill:#E6E6E6;}
	.st1{fill:#08171A;}
	.st2{fill:#0F0F0F;}
	.st3{fill:#FFFFFF;}
	.st4{fill:#B0B0B0;}
	.st5{fill:#6BC62A;}
	.st6{stroke:#000000;stroke-width:0.25;stroke-miterlimit:10;}
	.st7{fill:none;stroke:#000000;stroke-width:2;stroke-miterlimit:10;}
	.st8{enable-background:new    ;}
</style>
<rect y="0" class="st0" width="259" height="180"/>
<g>
	<path class="st1" d="M206.2,36.7H52.8c-1.6,0-2.8,1.3-2.8,2.8v94.7h159V39.6C209,38,207.7,36.7,206.2,36.7z"/>
	<rect x="55.5" y="42.1" class="st2" width="148" height="86.7"/>
	<path class="st3" d="M229.1,139.6H29.9v-2.2c0-1.7,1.4-3.1,3.1-3.1h193c1.7,0,3.1,1.4,3.1,3.1V139.6z"/>
	<path class="st4" d="M216.2,143.1H42.8c-1.5,0-3-0.2-4.4-0.7l-8.5-2.8h199.3l-8.5,2.8C219.2,142.8,217.7,143.1,216.2,143.1z"/>
	<path class="st4" d="M143.3,134.2h-27.7l1.1,1.4c0.7,0.9,1.7,1.4,2.8,1.4h19.9c1.1,0,2.2-0.5,2.8-1.4L143.3,134.2z"/>
	<path class="st5" d="M220.8,137.9L220.8,137.9c0.5,0,0.9-0.4,0.9-0.9v-2.7h-1.9v2.7C219.9,137.5,220.3,137.9,220.8,137.9z"/>
	<path class="st4" d="M217.8,137.9L217.8,137.9c0.5,0,0.9-0.4,0.9-0.9v-2.7h-1.9v2.7C216.9,137.5,217.3,137.9,217.8,137.9z"/>
	<path class="st4" d="M214.9,137.9L214.9,137.9c0.5,0,0.9-0.4,0.9-0.9v-2.7H214v2.7C214,137.5,214.4,137.9,214.9,137.9z"/>
</g>
<polygon class="st3" points="152.6,36.2 80.6,144 105.9,144 177.9,36.2 "/>
<g>
	<path class="st6" d="M122.1,85.4c0.1,0,0.2,0,0.3,0s0.2,0,0.4,0c0.1,0,0.2,0,0.3,0s0.2,0,0.3,0l2.2,7.4l2.2-7.4c0.2,0,0.4,0,0.7,0
		c0.1,0,0.2,0,0.3,0s0.2,0,0.3,0l-2.8,8.6c-0.1,0-0.2,0-0.3,0c-0.1,0-0.2,0-0.4,0s-0.2,0-0.4,0c-0.1,0-0.2,0-0.4,0L122.1,85.4z"/>
	<path class="st6" d="M130.1,92.7c0.3,0.1,0.5,0.2,0.8,0.3c0.3,0.1,0.6,0.1,1.1,0.1c0.7,0,1.1-0.1,1.5-0.4c0.3-0.3,0.5-0.6,0.5-1.1
		c0-0.2,0-0.4-0.1-0.6s-0.2-0.3-0.3-0.4s-0.3-0.2-0.5-0.3s-0.4-0.2-0.7-0.3l-0.7-0.3c-0.2-0.1-0.4-0.2-0.6-0.3
		c-0.2-0.1-0.4-0.3-0.5-0.4c-0.1-0.2-0.3-0.4-0.3-0.6c-0.1-0.2-0.1-0.5-0.1-0.8c0-0.7,0.2-1.3,0.7-1.7c0.5-0.4,1.2-0.6,2.1-0.6
		c0.4,0,0.7,0,1.1,0.1s0.6,0.1,0.9,0.2c0,0.3-0.1,0.7-0.3,1c-0.2-0.1-0.5-0.2-0.8-0.2c-0.3-0.1-0.6-0.1-1-0.1
		c-0.5,0-0.9,0.1-1.2,0.3c-0.3,0.2-0.4,0.5-0.4,0.9c0,0.2,0,0.3,0.1,0.4s0.2,0.2,0.3,0.3s0.2,0.2,0.4,0.3c0.2,0.1,0.3,0.2,0.5,0.2
		l0.7,0.3c0.3,0.1,0.6,0.3,0.9,0.4s0.5,0.3,0.6,0.5s0.3,0.4,0.4,0.7s0.1,0.6,0.1,0.9c0,0.8-0.3,1.5-0.9,1.9
		c-0.6,0.5-1.4,0.7-2.4,0.7c-0.2,0-0.5,0-0.7,0s-0.4,0-0.6-0.1s-0.3-0.1-0.5-0.1s-0.3-0.1-0.5-0.2c0-0.2,0.1-0.4,0.1-0.5
		C130,93.1,130.1,92.9,130.1,92.7z"/>
</g>
<polyline class="st7" points="129,31 210.8,31 215,34.1 215,128 "/>
<line class="st7" x1="141" y1="149" x2="50" y2="149"/>
<g class="st8">
	<path class="st3" d="M70,71.2l-0.6,0l-2.2-4.9c-0.9-1.9-1.6-3.4-2.1-4.3c-0.5-0.9-0.8-1.5-1.1-1.7c-0.2-0.2-0.5-0.3-0.8-0.4
		c-0.2,0-0.3-0.1-0.3-0.3c0-0.1,0-0.2,0.1-0.2c0.1,0,0.2,0,0.5-0.1l2.2,0c0.3,0,0.6,0,1.1,0c0.7,0,1.2-0.1,1.5-0.1
		c0.2,0,0.3,0.1,0.3,0.3c0,0.2-0.1,0.2-0.4,0.3c-0.3,0-0.5,0.1-0.7,0.3c-0.2,0.2-0.3,0.3-0.3,0.6c0,0.2,0.1,0.4,0.2,0.7
		c0.1,0.3,0.6,1.3,1.4,3.1l1.5,3.2l1.9-5.1c-0.1-0.3-0.3-0.7-0.6-1.3c-0.3-0.6-0.5-1-0.6-1.1c-0.2-0.1-0.4-0.2-0.8-0.3
		c-0.2,0-0.3-0.1-0.3-0.3c0-0.1,0-0.2,0.1-0.2c0.1,0,0.3,0,0.8,0l2.1,0l1.7-0.1c0.6,0,0.9,0,1,0s0.1,0.1,0.1,0.2
		c0,0.2-0.1,0.2-0.3,0.2c-0.4,0-0.7,0.1-0.8,0.3s-0.3,0.4-0.3,0.7c0,0.7,0.8,3,2.5,6.7c0.3-0.8,0.8-2,1.3-3.5
		c0.5-1.5,0.8-2.4,0.9-2.6c0.1-0.2,0.1-0.5,0.1-0.7c0-0.3-0.1-0.6-0.3-0.7c-0.2-0.2-0.4-0.2-0.6-0.2c-0.3,0-0.4-0.1-0.4-0.2
		c0-0.2,0.1-0.2,0.4-0.2l1.5,0c0.6,0,1.1,0,1.5-0.1c0.2,0,0.4,0,0.5,0c0.2,0,0.3,0.1,0.3,0.2c0,0.1-0.1,0.2-0.4,0.3
		c-0.2,0-0.5,0.1-0.6,0.2c-0.2,0.1-0.4,0.4-0.7,0.7c-0.3,0.4-0.6,1.2-1.1,2.5l-1.5,4l-1.5,4l-0.6,0c-0.1-0.3-0.6-1.6-1.5-3.8
		c-0.5-1.2-1-2.4-1.5-3.7l-1.4,4L70,71.2z"/>
	<path class="st3" d="M96.1,59.3c0.2,0.9,0.4,1.8,0.6,2.7c0,0.2-0.1,0.3-0.3,0.3c-0.1,0-0.2-0.1-0.3-0.2c-0.6-0.9-1.2-1.4-1.7-1.7
		C94,60.1,93.2,60,92.3,60c-0.5,0-1,0-1.5,0.1c-0.1,1-0.1,2.2-0.1,3.4c0,0.2,0,0.6,0,1.1l0.7,0c0.4,0,0.8-0.1,1.1-0.2
		c0.3-0.1,0.6-0.4,0.8-0.7c0.2-0.4,0.3-0.6,0.4-0.7c0.1-0.2,0.1-0.3,0.3-0.3c0.2,0,0.2,0.1,0.2,0.2c0,0,0,0.1,0,0.1
		c-0.1,0.4-0.1,1.5-0.1,3.3c0,0.3,0,0.5,0.1,0.7c0,0.1,0,0.1,0,0.1c0,0.2-0.1,0.2-0.3,0.2c-0.1,0-0.2-0.2-0.3-0.5
		c-0.1-0.5-0.4-1-0.8-1.2c-0.4-0.3-1.1-0.4-2-0.4c0,1,0,1.6,0,1.9c0,1.3,0,2.1,0.1,2.4c0,0.3,0.2,0.5,0.5,0.6
		c0.3,0.2,0.7,0.2,1.3,0.2c2.2,0,3.7-0.7,4.4-2.2c0.1-0.2,0.2-0.3,0.3-0.3c0.2,0,0.3,0.1,0.3,0.2c0,0.1,0,0.2-0.1,0.4L96.8,71
		l-3.2,0c-0.9,0-1.7,0-2.5,0c-0.8,0-1.4,0-1.8,0c-0.5,0-1.2,0-2.2,0.1c-0.1,0-0.2,0-0.3,0c-0.3,0-0.4-0.1-0.4-0.3
		c0-0.2,0.1-0.2,0.3-0.2c0.6,0,1-0.2,1.1-0.5c0.2-0.3,0.3-0.9,0.3-1.9l0-4.5c0-1.5,0-2.5-0.1-2.8c0-0.4-0.1-0.6-0.3-0.7
		c-0.2-0.1-0.5-0.2-0.9-0.3c-0.2,0-0.3-0.1-0.3-0.2c0-0.2,0.1-0.3,0.3-0.3l2.1,0.1L96.1,59.3z"/>
	<path class="st3" d="M108.8,64.5c1.2,0.3,2.1,0.6,2.7,1.2s0.9,1.2,0.9,2c0,0.7-0.2,1.3-0.7,1.8c-0.4,0.5-1,0.9-1.6,1.1
		c-0.6,0.2-1.6,0.3-2.8,0.3c-0.3,0-0.8,0-1.4,0c-0.5,0-0.9,0-1.2,0c-0.4,0-0.9,0-1.6,0.1c-0.3,0-0.5,0-0.6,0c-0.2,0-0.3-0.1-0.3-0.3
		c0-0.1,0.1-0.2,0.3-0.2c0.4,0,0.6-0.1,0.8-0.2s0.3-0.2,0.4-0.4c0.1-0.2,0.2-0.5,0.1-0.9l0-4.1c0-1.3,0-2.3-0.1-3.1
		c0-0.8-0.1-1.3-0.2-1.5c-0.1-0.2-0.2-0.4-0.3-0.5c-0.1-0.1-0.3-0.1-0.6-0.2c-0.2,0-0.4,0-0.5-0.1c-0.1,0-0.1-0.1-0.1-0.2
		c0-0.1,0.1-0.2,0.2-0.2c0.1,0,0.5,0,1.2,0c1.2,0,2.3-0.1,3.3-0.1c0.6,0,1.1-0.1,1.5-0.1c1.1,0,1.9,0.2,2.6,0.7c0.6,0.5,1,1.1,1,1.9
		C111.9,62.9,110.9,63.9,108.8,64.5z M106.4,64.4c2,0,3-0.9,3-2.6c0-0.8-0.2-1.3-0.5-1.7c-0.4-0.4-0.8-0.6-1.3-0.6
		c-0.3,0-0.8,0.1-1.2,0.3c0,0.6-0.1,1.2-0.1,1.8C106.3,62.1,106.3,63.1,106.4,64.4z M106.4,65.1c0,1.2-0.1,2.3-0.1,3.1
		c0,1.1,0.1,1.7,0.1,1.9s0.4,0.2,0.8,0.2c0.8,0,1.5-0.2,1.9-0.7c0.4-0.5,0.6-1.1,0.6-1.9c0-0.8-0.2-1.4-0.7-1.9
		c-0.4-0.5-1.1-0.8-2-0.7C107,65,106.7,65,106.4,65.1z"/>
</g>
<g class="st8">
	<path class="st3" d="M72.9,82.5c0,0.4-0.1,0.8-0.3,1.2c-0.2,0.4-0.5,0.7-1,1c-0.4,0.3-1,0.4-1.5,0.4c-0.7,0-1.4-0.1-1.9-0.4
		c-0.2-0.1-0.4-0.2-0.4-0.2c-0.1,0-0.1,0-0.2,0.1c-0.1,0.2-0.2,0.3-0.3,0.3c-0.1,0-0.1,0-0.2-0.1c0-0.1-0.1-0.3-0.1-0.8
		c0-0.5,0-1,0-1.7c0-0.2,0.1-0.4,0.2-0.4s0.3,0.2,0.5,0.5c0.6,1.3,1.3,2,2.3,2c0.3,0,0.6-0.1,0.9-0.3c0.2-0.2,0.4-0.4,0.4-0.8
		c0-0.3-0.1-0.5-0.3-0.7c-0.2-0.2-0.6-0.5-1.3-0.8c-0.9-0.5-1.6-0.9-1.9-1.2c-0.4-0.3-0.5-0.8-0.5-1.4c0-0.7,0.2-1.2,0.8-1.6
		c0.5-0.4,1.1-0.6,1.9-0.6c0.6,0,1.2,0.2,1.8,0.5c0.1,0,0.1,0.1,0.2,0.1c0.1,0,0.1-0.1,0.2-0.2c0.1-0.2,0.1-0.2,0.3-0.2
		c0.1,0,0.1,0,0.2,0.1c0,0.1,0.1,0.3,0.1,0.8c0.1,0.5,0.1,0.9,0.1,1.2c0,0.2-0.1,0.3-0.2,0.3c-0.1,0-0.3-0.2-0.4-0.5
		c-0.5-1.1-1.2-1.6-2.2-1.6c-0.3,0-0.6,0.1-0.8,0.3c-0.2,0.2-0.3,0.4-0.3,0.5c0,0.2,0.1,0.5,0.4,0.7c0.3,0.2,0.8,0.5,1.6,0.8
		c0.7,0.3,1.1,0.5,1.4,0.7c0.3,0.2,0.5,0.4,0.7,0.7C72.8,81.9,72.9,82.2,72.9,82.5z"/>
	<path class="st3" d="M77.6,77.4c0.4,0,0.9,0,1.6,0c0.3,0,0.6,0,0.8,0.1c-0.1,0.4-0.2,0.7-0.2,0.7c-0.1,0-0.8,0.1-2.2,0.2l-0.1,3.9
		c0,0.6,0,1,0.1,1.2c0.1,0.3,0.2,0.5,0.4,0.6s0.5,0.3,0.8,0.3c0.3,0,0.7-0.1,1.1-0.4c0.1,0,0.1-0.1,0.2-0.1c0.1,0,0.2,0.1,0.2,0.2
		c0,0.2-0.2,0.4-0.7,0.7c-0.5,0.3-1,0.4-1.7,0.4c-0.8,0-1.4-0.2-1.8-0.5c-0.4-0.4-0.7-1.1-0.7-2.3c0-1.3,0-2.6,0-3.9
		c-0.6,0-1,0-1.2,0c-0.2,0-0.4-0.1-0.4-0.3c0-0.1,0.1-0.2,0.4-0.3c0.5-0.1,1-0.4,1.5-0.7c0.4-0.3,0.8-0.8,1.1-1.5
		c0.1-0.3,0.2-0.5,0.2-0.5c0-0.1,0.1-0.1,0.2-0.1c0.2,0,0.3,0.1,0.3,0.4L77.6,77.4z"/>
	<path class="st3" d="M85.4,84.1c-0.4,0.3-0.7,0.6-1.1,0.8c-0.4,0.2-0.7,0.3-1.1,0.3c-0.6,0-1.1-0.2-1.4-0.5
		c-0.3-0.4-0.5-0.8-0.5-1.3c0-0.4,0.1-0.8,0.3-1.1c0.2-0.3,0.4-0.6,0.7-0.7c0.3-0.2,0.8-0.4,1.4-0.6c0.6-0.2,0.9-0.4,1.1-0.5
		s0.3-0.3,0.5-0.5c0.1-0.2,0.2-0.5,0.2-0.9c0-0.4-0.1-0.7-0.3-0.9s-0.5-0.3-0.8-0.3c-0.3,0-0.5,0.1-0.6,0.2
		c-0.1,0.2-0.2,0.4-0.3,0.7c-0.1,0.7-0.5,1-1.1,1c-0.2,0-0.4-0.1-0.6-0.2c-0.2-0.1-0.3-0.3-0.3-0.6c0-0.6,0.3-1,0.9-1.3
		c0.6-0.3,1.3-0.4,2.2-0.4c0.7,0,1.3,0.1,1.8,0.3c0.5,0.2,0.8,0.5,0.9,0.8c0.1,0.3,0.2,0.7,0.2,1.4l0,2.1c0,1.1,0,1.8,0.1,2.1
		c0.1,0.3,0.2,0.5,0.5,0.5c0,0,0.1,0,0.1,0c0.1,0,0.2,0,0.2,0c0.2,0,0.4,0.1,0.4,0.2c0,0.1,0,0.2-0.1,0.2c-0.1,0.1-0.4,0.1-0.9,0.2
		s-1,0.1-1.4,0.1s-0.7-0.1-0.8-0.2C85.6,84.7,85.5,84.5,85.4,84.1z M85.5,80.6c-0.1,0.2-0.5,0.4-1,0.7c-0.5,0.3-0.8,0.5-1,0.7
		c-0.2,0.2-0.2,0.5-0.2,0.9c0,0.4,0.1,0.7,0.3,0.9c0.2,0.2,0.4,0.3,0.6,0.3c0.3,0,0.7-0.2,0.9-0.5s0.4-0.9,0.4-1.7
		C85.6,81.7,85.6,81.2,85.5,80.6z"/>
	<path class="st3" d="M93,77.3c0.4,0,0.9,0,1.6,0c0.3,0,0.6,0,0.8,0.1c-0.1,0.4-0.2,0.7-0.2,0.7c-0.1,0-0.8,0.1-2.2,0.2l-0.1,3.9
		c0,0.6,0,1,0.1,1.2c0.1,0.3,0.2,0.5,0.4,0.6s0.5,0.3,0.8,0.3c0.3,0,0.7-0.1,1.1-0.4c0.1,0,0.1-0.1,0.2-0.1c0.1,0,0.2,0.1,0.2,0.2
		c0,0.2-0.2,0.4-0.7,0.7c-0.5,0.3-1,0.4-1.7,0.4c-0.8,0-1.4-0.2-1.8-0.5c-0.4-0.4-0.7-1.1-0.7-2.3c0-1.3,0-2.6,0-3.9
		c-0.6,0-1,0-1.2,0c-0.2,0-0.4-0.1-0.4-0.3c0-0.1,0.1-0.2,0.4-0.3c0.5-0.1,1-0.4,1.5-0.7c0.4-0.3,0.8-0.8,1.1-1.5
		c0.1-0.3,0.2-0.5,0.2-0.5c0-0.1,0.1-0.1,0.2-0.1c0.2,0,0.3,0.1,0.3,0.4L93,77.3z"/>
	<path class="st3" d="M99.7,77.1c0,0.8,0,2.3,0.1,4.4l0,1.9c0,0.4,0.1,0.6,0.2,0.8c0.1,0.1,0.3,0.2,0.6,0.3c0.3,0,0.5,0.1,0.5,0.3
		c0,0.2-0.1,0.2-0.4,0.2c-0.1,0-0.3,0-0.6,0c-0.6,0-1.3-0.1-1.9-0.1c-0.3,0-0.6,0-0.9,0.1c-0.2,0-0.3,0-0.4,0
		c-0.3,0-0.4-0.1-0.4-0.2c0-0.2,0.2-0.2,0.5-0.3c0.5,0,0.7-0.2,0.8-0.5c0.1-0.3,0.1-0.8,0.1-1.6c0-1,0-2-0.1-2.8
		c0-0.9-0.1-1.4-0.2-1.5c-0.1-0.1-0.3-0.2-0.7-0.2c-0.3,0-0.4-0.1-0.4-0.3c0-0.1,0.1-0.2,0.4-0.2l0.2,0L99.7,77.1z M99.5,74.1
		c0,0.3-0.1,0.6-0.4,0.9c-0.2,0.3-0.5,0.4-0.9,0.4c-0.4,0-0.7-0.1-0.9-0.4c-0.2-0.2-0.4-0.5-0.4-0.9c0-0.4,0.1-0.7,0.4-0.9
		c0.2-0.2,0.5-0.4,0.9-0.4c0.3,0,0.6,0.1,0.9,0.4C99.4,73.5,99.5,73.8,99.5,74.1z"/>
	<path class="st3" d="M108.1,82.3c0,0.4-0.1,0.8-0.3,1.2s-0.5,0.7-1,1c-0.4,0.3-1,0.4-1.5,0.4c-0.7,0-1.4-0.1-1.9-0.4
		c-0.2-0.1-0.4-0.2-0.4-0.2c-0.1,0-0.1,0-0.2,0.1c-0.1,0.2-0.2,0.3-0.3,0.3c-0.1,0-0.1,0-0.2-0.1c0-0.1-0.1-0.3-0.1-0.8
		c0-0.5,0-1,0-1.7c0-0.2,0.1-0.4,0.2-0.4c0.1,0,0.3,0.2,0.5,0.5c0.6,1.3,1.3,2,2.3,2c0.3,0,0.6-0.1,0.9-0.3s0.4-0.4,0.4-0.8
		c0-0.3-0.1-0.5-0.3-0.7c-0.2-0.2-0.6-0.5-1.3-0.8c-0.9-0.5-1.6-0.9-1.9-1.2c-0.4-0.3-0.5-0.8-0.5-1.4c0-0.7,0.2-1.2,0.8-1.6
		c0.5-0.4,1.1-0.6,1.9-0.6c0.6,0,1.2,0.2,1.8,0.5c0.1,0,0.1,0.1,0.2,0.1c0.1,0,0.1-0.1,0.2-0.2c0.1-0.2,0.1-0.2,0.3-0.2
		c0.1,0,0.1,0,0.2,0.1c0,0.1,0.1,0.3,0.1,0.8c0.1,0.5,0.1,0.9,0.1,1.2c0,0.2-0.1,0.3-0.2,0.3c-0.1,0-0.3-0.2-0.4-0.5
		c-0.5-1.1-1.2-1.6-2.2-1.6c-0.3,0-0.6,0.1-0.8,0.3s-0.3,0.4-0.3,0.5c0,0.2,0.1,0.5,0.4,0.7c0.3,0.2,0.8,0.5,1.6,0.8
		c0.7,0.3,1.1,0.5,1.4,0.7c0.3,0.2,0.5,0.4,0.7,0.7C108,81.7,108.1,82,108.1,82.3z"/>
</g>
<g class="st8">
	<path class="st3" d="M150,107.3l-0.6,0l-2.2-4.9c-0.9-2-1.5-3.4-2-4.3s-0.8-1.5-1-1.7s-0.5-0.3-0.8-0.4c-0.2,0-0.3-0.1-0.3-0.3
		c0-0.1,0-0.2,0.1-0.2c0.1,0,0.2,0,0.5,0l2.2,0.1c0.3,0,0.6,0,1.1,0c0.7,0,1.2,0,1.5,0c0.2,0,0.3,0.1,0.3,0.3c0,0.2-0.1,0.2-0.4,0.3
		c-0.3,0-0.5,0.1-0.7,0.3c-0.2,0.2-0.3,0.3-0.3,0.6c0,0.2,0.1,0.4,0.2,0.7c0.1,0.3,0.6,1.3,1.3,3.1l1.5,3.3l1.9-5.1
		c-0.1-0.3-0.3-0.7-0.6-1.4c-0.3-0.6-0.5-1-0.6-1.2c-0.2-0.1-0.4-0.2-0.8-0.3c-0.2,0-0.3-0.1-0.3-0.3c0-0.1,0-0.2,0.1-0.2
		c0.1,0,0.3,0,0.8,0l2.1,0.1l1.7,0c0.6,0,0.9,0,1,0s0.1,0.1,0.1,0.2c0,0.2-0.1,0.2-0.3,0.2c-0.4,0-0.7,0.1-0.8,0.3
		c-0.2,0.2-0.3,0.4-0.3,0.7c0,0.7,0.8,3,2.4,6.8c0.3-0.8,0.8-2,1.3-3.5s0.9-2.3,0.9-2.6c0.1-0.2,0.1-0.5,0.1-0.7
		c0-0.3-0.1-0.6-0.3-0.7c-0.2-0.2-0.4-0.2-0.6-0.2c-0.3,0-0.4-0.1-0.4-0.2c0-0.2,0.1-0.2,0.4-0.2l1.5,0.1c0.6,0,1.1,0,1.5,0
		c0.2,0,0.4,0,0.5,0c0.2,0,0.3,0.1,0.3,0.2c0,0.1-0.1,0.2-0.4,0.3c-0.2,0-0.5,0.1-0.6,0.2c-0.2,0.1-0.4,0.4-0.7,0.7
		s-0.6,1.2-1.1,2.5l-1.5,3.9l-1.5,4l-0.6,0c-0.1-0.3-0.6-1.6-1.5-3.9c-0.4-1.2-0.9-2.4-1.5-3.8l-1.5,4L150,107.3z"/>
	<path class="st3" d="M176.3,95.7c0.2,0.9,0.4,1.8,0.5,2.7c0,0.2-0.1,0.3-0.3,0.3c-0.1,0-0.2-0.1-0.3-0.2c-0.6-0.9-1.1-1.5-1.6-1.7
		c-0.5-0.3-1.2-0.4-2.2-0.4c-0.5,0-1,0-1.5,0.1c-0.1,1-0.2,2.2-0.2,3.4c0,0.2,0,0.6,0,1.1l0.7,0c0.4,0,0.8-0.1,1.1-0.2
		s0.6-0.4,0.8-0.7c0.2-0.4,0.3-0.6,0.4-0.7c0.1-0.2,0.1-0.3,0.3-0.3c0.2,0,0.2,0.1,0.2,0.2c0,0,0,0.1,0,0.1
		c-0.1,0.4-0.1,1.5-0.1,3.3c0,0.3,0,0.5,0.1,0.7c0,0.1,0,0.1,0,0.1c0,0.2-0.1,0.2-0.3,0.2c-0.1,0-0.2-0.2-0.3-0.5
		c-0.1-0.5-0.4-1-0.8-1.3c-0.4-0.3-1.1-0.4-2-0.5c0,1-0.1,1.6-0.1,1.9c0,1.3,0,2.1,0,2.4c0,0.3,0.2,0.5,0.4,0.6s0.7,0.2,1.3,0.2
		c2.2,0,3.7-0.7,4.4-2.1c0.1-0.2,0.2-0.3,0.3-0.3c0.2,0,0.3,0.1,0.3,0.2c0,0.1,0,0.2-0.1,0.4l-0.6,2.5l-3.2,0c-0.9,0-1.7,0-2.5-0.1
		c-0.8,0-1.4-0.1-1.8-0.1c-0.5,0-1.2,0-2.2,0.1c-0.1,0-0.2,0-0.3,0c-0.3,0-0.4-0.1-0.4-0.3c0-0.2,0.1-0.2,0.3-0.2
		c0.6,0,1-0.1,1.2-0.5c0.2-0.3,0.3-0.9,0.3-1.9l0.1-4.5c0-1.5,0-2.5,0-2.8c0-0.4-0.1-0.6-0.3-0.7c-0.2-0.1-0.5-0.2-0.9-0.3
		c-0.2,0-0.3-0.1-0.3-0.2c0-0.2,0.1-0.3,0.3-0.3l2.1,0.1L176.3,95.7z"/>
	<path class="st3" d="M189,101.1c1.2,0.3,2.1,0.7,2.7,1.2c0.6,0.5,0.9,1.2,0.9,2c0,0.7-0.2,1.3-0.7,1.8s-1,0.9-1.6,1.1
		s-1.6,0.3-2.8,0.3c-0.3,0-0.8,0-1.4-0.1c-0.5,0-0.9,0-1.2-0.1c-0.4,0-0.9,0-1.6,0.1c-0.3,0-0.5,0-0.6,0c-0.2,0-0.3-0.1-0.3-0.3
		c0-0.1,0.1-0.2,0.3-0.2c0.4,0,0.6-0.1,0.8-0.2c0.2-0.1,0.3-0.2,0.4-0.4s0.2-0.5,0.2-0.9l0.1-4.1c0-1.3,0-2.3,0-3.1
		c0-0.8-0.1-1.3-0.1-1.5s-0.2-0.4-0.3-0.5c-0.1-0.1-0.3-0.1-0.6-0.2c-0.2,0-0.4,0-0.5-0.1c-0.1,0-0.1-0.1-0.1-0.2
		c0-0.1,0.1-0.2,0.2-0.2c0.1,0,0.5,0,1.2,0c1.2,0,2.3,0,3.3-0.1c0.6,0,1.1-0.1,1.5-0.1c1.1,0,1.9,0.3,2.6,0.7c0.6,0.5,1,1.1,1,1.9
		C192,99.5,191,100.5,189,101.1z M186.5,101.6c-0.1,1.2-0.1,2.3-0.1,3.1c0,1.1,0,1.7,0.1,1.9c0.1,0.2,0.4,0.2,0.8,0.2
		c0.8,0,1.5-0.2,1.9-0.7c0.4-0.4,0.6-1.1,0.6-1.9c0-0.8-0.2-1.4-0.6-1.9c-0.4-0.5-1.1-0.8-2-0.8
		C187.1,101.6,186.9,101.6,186.5,101.6z M186.5,100.9c2,0,3-0.8,3-2.6c0-0.8-0.2-1.3-0.5-1.7c-0.4-0.4-0.8-0.6-1.2-0.6
		c-0.3,0-0.8,0.1-1.2,0.2c-0.1,0.6-0.1,1.2-0.1,1.8C186.5,98.7,186.5,99.6,186.5,100.9z"/>
</g>
<g class="st8">
	<path class="st3" d="M143,114.1c0-1.7,0-2.8,0-3.4c0-0.6-0.1-0.9-0.1-1c-0.1-0.1-0.3-0.2-0.6-0.2c-0.2,0-0.3-0.1-0.3-0.2
		c0-0.1,0-0.2,0.1-0.2c0.1,0,0.3,0,0.8,0l2.3,0l-0.1,6.2l-0.1,3.9c0,0.6,0,1,0.1,1.1c0.1,0.2,0.3,0.3,0.7,0.3c0.2,0,0.3,0.1,0.3,0.3
		c0,0.2-0.1,0.2-0.3,0.2l-2.8,0l0-1.2c-0.3,0.4-0.6,0.8-0.9,1c-0.4,0.2-0.8,0.3-1.3,0.3c-0.9,0-1.7-0.4-2.4-1.1
		c-0.7-0.7-1-1.6-1-2.7c0-1.2,0.4-2.2,1.2-3c0.8-0.8,1.6-1.2,2.6-1.1c0.4,0,0.7,0.1,1,0.2C142.4,113.6,142.7,113.8,143,114.1z
		 M139.7,117.2c0,1.1,0.1,1.9,0.4,2.5c0.3,0.5,0.7,0.8,1.1,0.8c0.4,0,0.8-0.2,1.1-0.7s0.5-1.4,0.5-2.7c0-1.1-0.1-1.8-0.4-2.4
		c-0.3-0.5-0.7-0.8-1.2-0.8c-0.5,0-0.9,0.3-1.2,0.8C139.9,115.2,139.8,116.1,139.7,117.2z"/>
	<path class="st3" d="M150.3,113.3c0,0.8,0,2.3,0,4.4l0,1.9c0,0.4,0.1,0.6,0.2,0.8c0.1,0.1,0.3,0.2,0.6,0.3c0.3,0,0.5,0.1,0.5,0.3
		c0,0.2-0.1,0.2-0.4,0.2c-0.1,0-0.3,0-0.6,0c-0.6,0-1.3-0.1-1.9-0.1c-0.3,0-0.6,0-1,0c-0.2,0-0.3,0-0.4,0c-0.3,0-0.4-0.1-0.4-0.2
		c0-0.2,0.2-0.2,0.5-0.3c0.5,0,0.7-0.2,0.8-0.4c0.1-0.3,0.1-0.8,0.1-1.6c0-1,0-2,0-2.8c0-0.9-0.1-1.4-0.2-1.5
		c-0.1-0.1-0.3-0.2-0.7-0.3c-0.3,0-0.4-0.1-0.4-0.3c0-0.1,0.1-0.2,0.4-0.2l0.2,0L150.3,113.3z M150.2,110.4c0,0.3-0.1,0.6-0.4,0.9
		c-0.3,0.2-0.5,0.4-0.9,0.4c-0.4,0-0.6-0.1-0.9-0.4s-0.4-0.5-0.4-0.9c0-0.4,0.1-0.6,0.4-0.9s0.5-0.4,0.9-0.4c0.3,0,0.6,0.1,0.9,0.4
		C150.1,109.7,150.2,110,150.2,110.4z"/>
	<path class="st3" d="M155.6,115.1c0.4-0.6,0.8-1,1.3-1.3c0.5-0.3,1-0.4,1.5-0.4c0.4,0,0.9,0.1,1.2,0.4c0.4,0.2,0.6,0.5,0.7,0.8
		s0.2,0.8,0.2,1.3l-0.1,3.5c0,0.5,0,0.8,0.1,1c0.1,0.2,0.3,0.3,0.6,0.3c0.2,0,0.3,0.1,0.3,0.3c0,0.2-0.1,0.2-0.3,0.2
		c-0.2,0-0.6,0-1.3-0.1c-0.2,0-0.4,0-0.6,0c-0.1,0-0.5,0-1.2,0.1l-0.4,0c-0.2,0-0.4-0.1-0.4-0.2c0-0.1,0.1-0.2,0.3-0.3
		c0.2,0,0.4-0.1,0.5-0.2c0.1-0.1,0.2-0.6,0.2-1.4s0.1-1.6,0.1-2.5c0-0.9-0.1-1.5-0.2-1.9s-0.4-0.5-0.8-0.5c-0.5,0-1,0.4-1.4,1.1
		c-0.4,0.7-0.7,1.8-0.7,3.4c0,0.6,0,1,0.1,1.3s0.1,0.4,0.2,0.5c0.1,0.1,0.3,0.1,0.5,0.2c0.2,0,0.2,0.1,0.2,0.3
		c0,0.2-0.1,0.2-0.4,0.2c-0.1,0-0.2,0-0.4,0c-0.6-0.1-0.9-0.1-0.9-0.1c-0.8,0-1.5,0-2.1,0.1c-0.1,0-0.2,0-0.2,0
		c-0.2,0-0.3-0.1-0.3-0.3c0-0.1,0.1-0.2,0.3-0.3c0.3,0,0.5-0.1,0.6-0.2c0.1-0.1,0.2-0.5,0.2-1.2c0.1-0.7,0.1-1.5,0.1-2.4
		c0-1.2,0-1.9-0.1-2.2c-0.1-0.3-0.3-0.5-0.6-0.6c-0.2-0.1-0.4-0.2-0.4-0.3c0-0.1,0.2-0.2,0.5-0.2c1,0,1.8,0,2.4-0.1
		C155.4,113.9,155.6,114.4,155.6,115.1z"/>
	<path class="st3" d="M166.5,120.3c-0.4,0.3-0.7,0.6-1.1,0.8c-0.4,0.2-0.7,0.3-1.1,0.3c-0.6,0-1.1-0.2-1.4-0.6s-0.5-0.8-0.5-1.3
		c0-0.4,0.1-0.8,0.3-1.1c0.2-0.3,0.4-0.6,0.7-0.7s0.8-0.4,1.4-0.6c0.6-0.2,0.9-0.3,1.1-0.5c0.2-0.1,0.4-0.3,0.5-0.5
		c0.1-0.2,0.2-0.5,0.2-0.9c0-0.4-0.1-0.7-0.3-0.9c-0.2-0.2-0.5-0.3-0.8-0.4c-0.3,0-0.5,0.1-0.6,0.2c-0.1,0.2-0.2,0.4-0.3,0.7
		c-0.1,0.7-0.5,1-1.1,1c-0.2,0-0.4-0.1-0.6-0.2s-0.3-0.3-0.2-0.6c0-0.6,0.3-1,0.9-1.3c0.6-0.3,1.3-0.4,2.2-0.4
		c0.7,0,1.3,0.1,1.8,0.3c0.5,0.2,0.8,0.5,0.9,0.8s0.2,0.8,0.2,1.4l0,2.1c0,1.1,0,1.8,0.1,2.1c0.1,0.3,0.2,0.5,0.5,0.5
		c0,0,0.1,0,0.1,0c0.1,0,0.2,0,0.2,0c0.2,0,0.4,0.1,0.4,0.2c0,0.1-0.1,0.2-0.2,0.2s-0.4,0.1-0.9,0.2s-1,0.1-1.4,0.1
		c-0.4,0-0.7-0.1-0.8-0.2C166.6,121,166.6,120.7,166.5,120.3z M166.7,116.8c-0.1,0.2-0.5,0.4-1,0.7c-0.5,0.3-0.8,0.5-1,0.7
		c-0.2,0.2-0.3,0.5-0.3,0.9c0,0.4,0.1,0.7,0.3,0.9c0.2,0.2,0.4,0.3,0.6,0.3c0.3,0,0.7-0.2,1-0.5s0.4-0.9,0.5-1.7
		C166.7,118,166.7,117.5,166.7,116.8z"/>
	<path class="st3" d="M174.1,114.9c0.4-0.5,0.9-0.8,1.3-1c0.4-0.2,0.9-0.3,1.3-0.3c0.3,0,0.7,0.1,1,0.2c0.4,0.1,0.7,0.4,1.1,0.9
		c0.4-0.4,0.9-0.6,1.3-0.8c0.4-0.2,0.9-0.3,1.4-0.3c0.8,0,1.4,0.2,1.8,0.7c0.4,0.4,0.5,1.1,0.5,2l-0.1,3c0,0.8,0,1.3,0.1,1.4
		c0.1,0.1,0.3,0.2,0.7,0.3c0.2,0,0.3,0.1,0.3,0.2c0,0.2-0.1,0.3-0.4,0.3c0,0-0.1,0-0.2,0c-0.5-0.1-1-0.1-1.6-0.1c-0.3,0-0.7,0-1.1,0
		c-0.3,0-0.4,0-0.5,0c-0.3,0-0.4-0.1-0.4-0.3c0-0.1,0.1-0.2,0.3-0.3c0.3,0,0.5-0.1,0.6-0.2s0.1-0.3,0.2-0.8c0-0.5,0.1-1.3,0.1-2.4
		c0-1,0-1.7-0.1-2.1s-0.2-0.7-0.4-0.9s-0.4-0.3-0.7-0.3c-0.3,0-0.5,0.1-0.8,0.3c-0.3,0.2-0.5,0.5-0.8,0.9c-0.2,0.9-0.3,2.2-0.3,3.9
		c0,0.7,0,1.2,0.1,1.3c0.1,0.2,0.3,0.3,0.7,0.3c0.2,0,0.3,0.1,0.3,0.2c0,0.2-0.1,0.3-0.4,0.3c-0.1,0-0.3,0-0.7,0
		c-0.5,0-0.9-0.1-1.1-0.1c-0.4,0-0.8,0-1.4,0.1c-0.1,0-0.2,0-0.3,0c-0.3,0-0.4-0.1-0.4-0.3c0-0.2,0.1-0.2,0.4-0.3
		c0.3,0,0.5-0.2,0.6-0.6c0.1-0.3,0.1-1.6,0.2-3.7c0-0.9-0.1-1.5-0.2-1.8c-0.1-0.3-0.4-0.5-0.7-0.5c-0.6,0-1.1,0.3-1.4,0.9
		s-0.5,1.9-0.5,3.7c0,0.9,0,1.4,0.1,1.6c0.1,0.2,0.3,0.3,0.6,0.3c0.2,0,0.3,0.1,0.3,0.2c0,0.2-0.1,0.3-0.4,0.3c0,0-0.1,0-0.2,0
		c-0.3,0-0.8-0.1-1.6-0.1c-0.7,0-1.2,0-1.5,0.1c-0.1,0-0.2,0-0.3,0c-0.2,0-0.3-0.1-0.3-0.3c0-0.2,0.1-0.2,0.3-0.3
		c0.4,0,0.6-0.1,0.7-0.2c0.1-0.1,0.1-0.4,0.2-0.9c0-0.5,0.1-1.4,0.1-2.7c0-1,0-1.7,0-2c0-0.3-0.1-0.5-0.3-0.6
		c-0.2-0.1-0.4-0.2-0.7-0.2c-0.2,0-0.4-0.1-0.4-0.2c0-0.2,0.1-0.2,0.4-0.2c0.3,0,0.8-0.1,1.4-0.1c0.6-0.1,1.1-0.1,1.6-0.1
		c0.1,0.2,0.1,0.5,0.1,0.8C174.1,114.5,174.1,114.6,174.1,114.9z"/>
	<path class="st3" d="M189,113.6c0,0.8,0,2.3,0,4.4l0,1.9c0,0.4,0.1,0.6,0.2,0.8c0.1,0.1,0.3,0.2,0.6,0.3c0.3,0,0.5,0.1,0.5,0.3
		c0,0.2-0.1,0.2-0.4,0.2c-0.1,0-0.3,0-0.6,0c-0.6,0-1.3-0.1-1.9-0.1c-0.3,0-0.6,0-0.9,0c-0.2,0-0.3,0-0.4,0c-0.3,0-0.4-0.1-0.4-0.2
		c0-0.2,0.2-0.2,0.5-0.3c0.5,0,0.7-0.2,0.8-0.4c0.1-0.3,0.1-0.8,0.1-1.6c0-1,0-2,0-2.8s-0.1-1.4-0.2-1.5s-0.3-0.2-0.7-0.3
		c-0.3,0-0.4-0.1-0.4-0.3c0-0.1,0.1-0.2,0.4-0.2l0.2,0L189,113.6z M188.9,110.7c0,0.3-0.1,0.6-0.4,0.9c-0.3,0.2-0.5,0.4-0.9,0.4
		c-0.4,0-0.6-0.1-0.9-0.4s-0.4-0.5-0.4-0.9c0-0.4,0.1-0.6,0.4-0.9s0.5-0.4,0.9-0.4c0.3,0,0.6,0.1,0.9,0.4
		C188.7,110,188.9,110.3,188.9,110.7z"/>
	<path class="st3" d="M197.3,119c0,0.4-0.1,0.8-0.3,1.2c-0.2,0.4-0.6,0.7-1,1c-0.4,0.3-1,0.4-1.6,0.4c-0.7,0-1.4-0.2-1.9-0.5
		c-0.2-0.1-0.4-0.2-0.4-0.2c-0.1,0-0.1,0-0.2,0.1c-0.1,0.2-0.2,0.3-0.3,0.3c-0.1,0-0.1,0-0.2-0.1s-0.1-0.3-0.1-0.8s0-1,0-1.7
		c0-0.2,0.1-0.4,0.2-0.4c0.1,0,0.3,0.2,0.4,0.5c0.6,1.3,1.3,2,2.3,2c0.3,0,0.6-0.1,0.9-0.3s0.4-0.4,0.4-0.8c0-0.3-0.1-0.5-0.3-0.7
		c-0.2-0.2-0.6-0.5-1.3-0.8c-0.9-0.5-1.6-0.9-1.9-1.2c-0.3-0.3-0.5-0.8-0.5-1.4c0-0.7,0.3-1.2,0.8-1.6s1.1-0.6,1.9-0.6
		c0.6,0,1.2,0.2,1.8,0.5c0.1,0,0.1,0.1,0.2,0.1c0.1,0,0.1-0.1,0.2-0.2c0.1-0.2,0.1-0.2,0.3-0.2c0.1,0,0.1,0,0.2,0.1
		c0,0.1,0.1,0.3,0.1,0.8s0.1,0.9,0.1,1.2c0,0.2-0.1,0.3-0.2,0.3c-0.1,0-0.3-0.2-0.4-0.5c-0.5-1.1-1.2-1.6-2.1-1.7
		c-0.3,0-0.6,0.1-0.8,0.2s-0.3,0.3-0.3,0.5c0,0.2,0.1,0.5,0.4,0.7c0.3,0.2,0.8,0.5,1.6,0.9c0.7,0.3,1.1,0.5,1.4,0.7
		c0.3,0.2,0.5,0.4,0.7,0.7C197.3,118.3,197.3,118.6,197.3,119z"/>
</g>
</svg>
