<?xml version="1.0" encoding="utf-8"?>
<!-- Generator: Adobe Illustrator 21.0.0, SVG Export Plug-In . SVG Version: 6.00 Build 0)  -->
<svg version="1.1" id="Layer_1" xmlns="http://www.w3.org/2000/svg" xmlns:xlink="http://www.w3.org/1999/xlink" x="0px" y="0px"
	 viewBox="0 0 259 180" style="enable-background:new 0 0 259 180;" xml:space="preserve">
<style type="text/css">
	.st0{enable-background:new    ;}
	.st1{fill:#FFFFFF;}
</style>
<g class="st0">
	<path d="M73.5,75.6c0.3,0,0.6-0.1,0.9-0.1s0.6,0,0.9,0s0.6,0,0.9,0s0.6,0.1,0.9,0.1v25.1c-0.3,0-0.6,0.1-0.9,0.1s-0.6,0-0.9,0
		s-0.6,0-0.9,0s-0.6-0.1-0.8-0.1L73.5,75.6L73.5,75.6z M78.1,87.9l8.1-12.4c0.3,0,0.6-0.1,1-0.1c0.3,0,0.6,0,0.9,0s0.6,0,1,0
		c0.3,0,0.7,0.1,1.1,0.1l-8,12l9,13.1c-0.4,0-0.7,0.1-1.1,0.1s-0.7,0-1,0s-0.6,0-0.9,0s-0.7-0.1-1-0.1L78.1,87.9z"/>
	<path d="M100.8,101.1c-1.4,0-2.6-0.2-3.7-0.7s-1.9-1.1-2.6-2c-0.7-0.8-1.2-1.8-1.6-3c-0.3-1.1-0.5-2.4-0.5-3.7
		c0-1.3,0.2-2.6,0.5-3.7s0.9-2.1,1.6-3c0.7-0.8,1.6-1.5,2.6-2s2.3-0.7,3.7-0.7c1.4,0,2.6,0.2,3.7,0.7s1.9,1.2,2.6,2s1.2,1.8,1.6,3
		c0.3,1.1,0.5,2.4,0.5,3.7c0,1.3-0.2,2.6-0.5,3.7s-0.9,2.1-1.6,3c-0.7,0.8-1.6,1.5-2.6,2S102.2,101.1,100.8,101.1z M100.8,98.3
		c1.6,0,2.8-0.6,3.6-1.7c0.8-1.2,1.2-2.8,1.2-4.8c0-2.1-0.4-3.7-1.2-4.8s-2-1.7-3.6-1.7S98,85.9,97.3,87c-0.8,1.2-1.1,2.8-1.1,4.8
		c0,2.1,0.4,3.7,1.1,4.8C98,97.8,99.2,98.3,100.8,98.3z"/>
	<path d="M113.7,82.8c0.3,0,0.5-0.1,0.8-0.1c0.2,0,0.5,0,0.8,0s0.5,0,0.7,0s0.5,0.1,0.7,0.1c0.1,0.3,0.1,0.8,0.2,1.4
		s0.1,1.1,0.1,1.5c0.2-0.4,0.5-0.8,0.9-1.2c0.4-0.4,0.8-0.8,1.2-1.1c0.5-0.3,1-0.6,1.6-0.8c0.6-0.2,1.3-0.3,2-0.3
		c2,0,3.6,0.6,4.5,1.8c1,1.2,1.5,2.9,1.5,5.2v11.3c-0.3,0-0.5,0.1-0.9,0.1c-0.3,0-0.6,0-0.9,0s-0.5,0-0.9,0s-0.6-0.1-0.9-0.1V90.3
		c0-1.7-0.3-2.9-0.8-3.6c-0.5-0.8-1.3-1.2-2.4-1.2c-0.7,0-1.3,0.1-1.8,0.3c-0.6,0.2-1.1,0.6-1.5,1.1s-0.8,1.1-1.1,1.9
		c-0.3,0.8-0.4,1.7-0.4,2.8v9.1c-0.3,0-0.5,0.1-0.9,0.1s-0.6,0-0.9,0s-0.5,0-0.9,0c-0.3,0-0.6-0.1-0.9-0.1V82.8H113.7z"/>
	<path d="M134.5,85.5h-2.7l-0.1-0.5l6-6.7h0.3v4.4h4.5c0.1,0.4,0.1,0.8,0.1,1.3c0,0.3,0,0.5,0,0.7s-0.1,0.5-0.1,0.7H138v8.2
		c0,1,0,1.8,0.1,2.3c0.1,0.6,0.2,1,0.4,1.3s0.5,0.5,0.8,0.6s0.8,0.2,1.3,0.2c0.4,0,0.8,0,1.1-0.1s0.7-0.1,0.9-0.2
		c0.2,0.5,0.3,0.9,0.3,1.4s0.1,0.9,0.1,1.3c-0.5,0.1-1,0.2-1.5,0.3c-0.5,0.1-1.1,0.1-1.6,0.1c-1.7,0-3-0.4-3.9-1.2
		c-0.9-0.8-1.4-2.2-1.4-4V85.5H134.5z"/>
	<path d="M148.9,92.6c0,2,0.6,3.4,1.5,4.3c1,0.9,2.4,1.4,4.3,1.4c1.7,0,3.2-0.3,4.7-0.9c0.2,0.3,0.3,0.8,0.5,1.3
		c0.1,0.5,0.2,1,0.2,1.5c-0.8,0.3-1.6,0.6-2.5,0.7c-0.9,0.2-1.9,0.2-3.1,0.2c-1.6,0-3-0.2-4.2-0.7s-2.1-1.1-2.9-1.9
		s-1.3-1.8-1.7-2.9c-0.3-1.1-0.5-2.4-0.5-3.7c0-1.3,0.2-2.6,0.5-3.7s0.9-2.2,1.6-3c0.7-0.8,1.6-1.5,2.6-2s2.3-0.8,3.8-0.8
		c1.2,0,2.3,0.2,3.2,0.6s1.7,1,2.3,1.7s1.1,1.6,1.4,2.6c0.3,1,0.5,2.1,0.5,3.3c0,0.3,0,0.7,0,1c0,0.4,0,0.7-0.1,0.9L148.9,92.6
		L148.9,92.6z M157.8,90c0-0.7-0.1-1.3-0.3-1.9s-0.4-1.1-0.8-1.6c-0.3-0.4-0.8-0.8-1.3-1.1c-0.5-0.3-1.1-0.4-1.9-0.4
		c-1.4,0-2.5,0.4-3.3,1.3s-1.2,2.1-1.4,3.6L157.8,90L157.8,90z"/>
	<path d="M165.7,82.8c0.3,0,0.5-0.1,0.8-0.1c0.2,0,0.5,0,0.8,0s0.5,0,0.7,0s0.5,0.1,0.7,0.1c0.1,0.3,0.1,0.8,0.2,1.4
		c0.1,0.6,0.1,1.1,0.1,1.5c0.2-0.4,0.5-0.8,0.9-1.2c0.4-0.4,0.8-0.8,1.2-1.1c0.5-0.3,1-0.6,1.6-0.8c0.6-0.2,1.3-0.3,2-0.3
		c2,0,3.6,0.6,4.5,1.8c1,1.2,1.5,2.9,1.5,5.2v11.3c-0.3,0-0.5,0.1-0.9,0.1c-0.3,0-0.6,0-0.9,0s-0.5,0-0.9,0c-0.3,0-0.6-0.1-0.9-0.1
		V90.3c0-1.7-0.3-2.9-0.8-3.6s-1.3-1.2-2.4-1.2c-0.7,0-1.3,0.1-1.8,0.3c-0.6,0.2-1.1,0.6-1.5,1.1s-0.8,1.1-1.1,1.9s-0.4,1.7-0.4,2.8
		v9.1c-0.3,0-0.5,0.1-0.9,0.1c-0.3,0-0.6,0-0.9,0s-0.5,0-0.9,0c-0.3,0-0.6-0.1-0.9-0.1V82.8H165.7z"/>
</g>
<polygon points="168.3,73.5 143.3,73.5 168.3,44.9 "/>
<polygon points="264.6,185.2 243,185.2 264.7,160.5 "/>
<polygon points="-5,-4 16.7,-4 -5,20.8 "/>
<g>
	<path d="M91.8,69.3c0-0.6,0-1.1,0-1.6h0.9v0.9l0,0c0.3-0.6,0.9-1.1,1.8-1.1c0.8,0,1.4,0.5,1.6,1.2l0,0c0.2-0.3,0.4-0.6,0.6-0.8
		c0.3-0.3,0.7-0.4,1.3-0.4c0.8,0,1.9,0.5,1.9,2.5v3.4h-1v-3.3c0-1.1-0.4-1.8-1.3-1.8c-0.6,0-1.1,0.4-1.2,1c0,0.1-0.1,0.3-0.1,0.5
		v3.6h-1V70c0-0.9-0.4-1.6-1.2-1.6c-0.7,0-1.1,0.5-1.3,1.1c-0.1,0.2-0.1,0.3-0.1,0.5v3.5h-1L91.8,69.3L91.8,69.3z"/>
	<path d="M102.4,70.8c0,1.4,0.9,2,2,2c0.8,0,1.2-0.1,1.6-0.3l0.2,0.8c-0.4,0.2-1,0.4-1.9,0.4c-1.8,0-2.9-1.2-2.9-2.9s1-3.1,2.7-3.1
		c1.9,0,2.4,1.7,2.4,2.7c0,0.2,0,0.4,0,0.5L102.4,70.8L102.4,70.8z M105.5,70c0-0.7-0.3-1.7-1.5-1.7c-1.1,0-1.5,1-1.6,1.7H105.5z"/>
	<path d="M107.8,69.5c0-0.7,0-1.3,0-1.8h0.9v1.1l0,0c0.3-0.8,0.9-1.3,1.6-1.3c0.1,0,0.2,0,0.3,0v1c-0.1,0-0.2,0-0.4,0
		c-0.7,0-1.3,0.6-1.4,1.4c0,0.1,0,0.3,0,0.5v3.1h-1V69.5z"/>
	<path d="M112.2,70.8c0,1.4,0.9,2,2,2c0.8,0,1.2-0.1,1.6-0.3l0.2,0.8c-0.4,0.2-1,0.4-1.9,0.4c-1.8,0-2.9-1.2-2.9-2.9s1-3.1,2.7-3.1
		c1.9,0,2.4,1.7,2.4,2.7c0,0.2,0,0.4,0,0.5L112.2,70.8L112.2,70.8z M115.3,70c0-0.7-0.3-1.7-1.5-1.7c-1.1,0-1.5,1-1.6,1.7H115.3z"/>
	<path d="M117.6,69.3c0-0.6,0-1.1,0-1.6h0.9l0.1,1l0,0c0.3-0.6,1-1.1,1.9-1.1c0.8,0,2.1,0.5,2.1,2.5v3.5h-1.1v-3.3
		c0-0.9-0.3-1.7-1.3-1.7c-0.7,0-1.2,0.5-1.4,1.1c0,0.1-0.1,0.3-0.1,0.5v3.5h-1.1V69.3z"/>
	<path d="M128.4,73.3c-0.3,0.1-0.9,0.3-1.7,0.3c-1.8,0-2.9-1.2-2.9-3s1.2-3.1,3.1-3.1c0.6,0,1.2,0.2,1.5,0.3l-0.2,0.8
		c-0.3-0.1-0.6-0.3-1.2-0.3c-1.3,0-2.1,1-2.1,2.2c0,1.3,0.9,2.2,2,2.2c0.6,0,1-0.2,1.3-0.3L128.4,73.3z"/>
	<path d="M132.9,73.5l-0.1-0.7l0,0c-0.3,0.5-0.9,0.9-1.8,0.9c-1.2,0-1.8-0.8-1.8-1.7c0-1.4,1.2-2.2,3.5-2.2v-0.1
		c0-0.5-0.1-1.3-1.3-1.3c-0.5,0-1.1,0.2-1.5,0.4l-0.2-0.7c0.5-0.3,1.2-0.5,1.9-0.5c1.8,0,2.2,1.2,2.2,2.4v2.2c0,0.5,0,1,0.1,1.4h-1
		L132.9,73.5L132.9,73.5z M132.7,70.6c-1.2,0-2.5,0.2-2.5,1.3c0,0.7,0.5,1,1,1c0.8,0,1.2-0.5,1.4-1c0-0.1,0.1-0.2,0.1-0.3V70.6z"/>
	<path d="M135.5,69.3c0-0.6,0-1.1,0-1.6h0.9l0.1,1l0,0c0.3-0.6,1-1.1,1.9-1.1c0.8,0,2.1,0.5,2.1,2.5v3.5h-1.1v-3.3
		c0-0.9-0.3-1.7-1.3-1.7c-0.7,0-1.2,0.5-1.4,1.1c0,0.1-0.1,0.3-0.1,0.5v3.5h-1.1L135.5,69.3L135.5,69.3z"/>
	<path d="M145.3,73.5l-0.1-0.7l0,0c-0.3,0.5-0.9,0.9-1.8,0.9c-1.2,0-1.8-0.8-1.8-1.7c0-1.4,1.2-2.2,3.5-2.2v-0.1
		c0-0.5-0.1-1.3-1.3-1.3c-0.5,0-1.1,0.2-1.5,0.4l-0.2-0.7c0.5-0.3,1.2-0.5,1.9-0.5c1.8,0,2.2,1.2,2.2,2.4v2.2c0,0.5,0,1,0.1,1.4h-1
		L145.3,73.5L145.3,73.5z M145.2,70.6c-1.2,0-2.5,0.2-2.5,1.3c0,0.7,0.5,1,1,1c0.8,0,1.2-0.5,1.4-1c0-0.1,0.1-0.2,0.1-0.3V70.6z"/>
	<path class="st1" d="M149,70.4L149,70.4c0.2-0.2,0.4-0.5,0.5-0.7l1.7-2h1.3l-2.2,2.4l2.6,3.4h-1.3l-2-2.8l-0.5,0.6v2.2h-1V65h1v5.4
		H149z"/>
	<path class="st1" d="M157,73.5l-0.1-0.7l0,0c-0.3,0.5-0.9,0.9-1.8,0.9c-1.2,0-1.8-0.8-1.8-1.7c0-1.4,1.2-2.2,3.5-2.2v-0.1
		c0-0.5-0.1-1.3-1.3-1.3c-0.5,0-1.1,0.2-1.5,0.4l-0.2-0.7c0.5-0.3,1.2-0.5,1.9-0.5c1.8,0,2.2,1.2,2.2,2.4v2.2c0,0.5,0,1,0.1,1.4h-1
		L157,73.5L157,73.5z M156.8,70.6c-1.2,0-2.5,0.2-2.5,1.3c0,0.7,0.5,1,1,1c0.8,0,1.2-0.5,1.4-1c0-0.1,0.1-0.2,0.1-0.3V70.6z"/>
	<path class="st1" d="M159.5,69.3c0-0.6,0-1.1,0-1.6h0.9l0.1,1l0,0c0.3-0.6,1-1.1,1.9-1.1c0.8,0,2.1,0.5,2.1,2.5v3.5h-1.1v-3.3
		c0-0.9-0.3-1.7-1.3-1.7c-0.7,0-1.2,0.5-1.4,1.1c0,0.1-0.1,0.3-0.1,0.5v3.5h-1.1L159.5,69.3L159.5,69.3z"/>
</g>
<g>
	<path d="M155.4,106.4c0.5-0.1,1.2-0.2,1.9-0.2c1,0,1.7,0.2,2.2,0.6c0.4,0.3,0.7,0.8,0.7,1.4c0,0.8-0.5,1.5-1.4,1.8l0,0
		c0.8,0.2,1.7,0.8,1.7,2c0,0.7-0.3,1.2-0.7,1.6c-0.6,0.5-1.5,0.8-2.8,0.8c-0.7,0-1.3,0-1.6-0.1L155.4,106.4L155.4,106.4z
		 M156.5,109.7h0.9c1.1,0,1.8-0.6,1.8-1.4c0-0.9-0.7-1.3-1.8-1.3c-0.5,0-0.8,0-0.9,0.1V109.7z M156.5,113.6c0.2,0,0.5,0,0.9,0
		c1.1,0,2.1-0.4,2.1-1.6c0-1.1-0.9-1.6-2.1-1.6h-0.9V113.6z"/>
	<path d="M161.9,106.3h1v7.2h3.5v0.9h-4.5V106.3z"/>
	<path d="M174,110.3c0,2.8-1.7,4.3-3.8,4.3s-3.6-1.7-3.6-4.1c0-2.6,1.6-4.2,3.8-4.2C172.6,106.2,174,107.9,174,110.3z M167.7,110.4
		c0,1.7,0.9,3.3,2.6,3.3c1.7,0,2.6-1.5,2.6-3.4c0-1.6-0.8-3.3-2.6-3.3C168.6,107,167.7,108.6,167.7,110.4z"/>
	<path d="M181.5,114c-0.5,0.2-1.4,0.4-2.5,0.4c-1.2,0-2.2-0.3-3-1.1c-0.7-0.7-1.1-1.8-1.1-3c0-2.4,1.7-4.2,4.4-4.2
		c0.9,0,1.7,0.2,2,0.4l-0.3,0.9c-0.4-0.2-1-0.3-1.8-0.3c-2,0-3.3,1.2-3.3,3.3c0,2.1,1.2,3.3,3.1,3.3c0.7,0,1.2-0.1,1.4-0.2V111h-1.6
		v-0.8h2.7L181.5,114L181.5,114z"/>
</g>
</svg>
