<?xml version="1.0" encoding="utf-8"?>
<!-- Generator: Adobe Illustrator 21.0.0, SVG Export Plug-In . SVG Version: 6.00 Build 0)  -->
<svg version="1.1" id="Layer_1" xmlns="http://www.w3.org/2000/svg" xmlns:xlink="http://www.w3.org/1999/xlink" x="0px" y="0px"
	 viewBox="0 0 259 180" style="enable-background:new 0 0 259 180;" xml:space="preserve">
<style type="text/css">
	.st0{display:none;opacity:0.82;fill:#E6E6E6;enable-background:new    ;}
</style>
<rect y="0" class="st0" width="259" height="180"/>
<g>
	<g>
		<path d="M54.1,80.8h3L63,96.2h-3.1L58.7,93h-6.3l-1.3,3.2H48L54.1,80.8z M55.6,84.9l-2.1,5.3h4.1L55.6,84.9z"/>
		<path d="M67.8,84.8v1.3c0.5-0.5,1.1-0.9,1.7-1.2c0.6-0.3,1.2-0.4,1.9-0.4c1.5,0,2.8,0.6,3.8,1.7s1.6,2.6,1.6,4.3
			c0,1.7-0.5,3.1-1.6,4.3c-1.1,1.1-2.4,1.7-3.8,1.7c-0.7,0-1.3-0.1-1.8-0.4c-0.6-0.2-1.1-0.6-1.7-1.1v5.4h-2.8V84.8H67.8z
			 M70.8,87.2c-0.9,0-1.7,0.3-2.2,0.9c-0.6,0.6-0.9,1.4-0.9,2.4s0.3,1.8,0.9,2.5c0.6,0.6,1.3,0.9,2.2,0.9c0.9,0,1.6-0.3,2.2-1
			c0.6-0.6,0.9-1.4,0.9-2.4s-0.3-1.8-0.9-2.4S71.7,87.2,70.8,87.2z"/>
		<path d="M87.6,84.8h2.9v11.4h-2.9V95c-0.6,0.5-1.1,0.9-1.7,1.1s-1.2,0.4-1.8,0.4c-1.5,0-2.8-0.6-3.8-1.7c-1.1-1.1-1.6-2.6-1.6-4.3
			c0-1.8,0.5-3.2,1.6-4.3c1-1.1,2.3-1.7,3.8-1.7c0.7,0,1.3,0.1,1.9,0.4s1.2,0.6,1.7,1.2L87.6,84.8L87.6,84.8z M84.5,87.2
			c-0.9,0-1.6,0.3-2.2,0.9s-0.9,1.4-0.9,2.4s0.3,1.8,0.9,2.4s1.3,1,2.2,1c0.9,0,1.6-0.3,2.2-0.9s0.9-1.4,0.9-2.5
			c0-1-0.3-1.8-0.9-2.4C86.2,87.5,85.4,87.2,84.5,87.2z"/>
		<path d="M100.4,80.1c0.5,0,0.9,0.2,1.3,0.5c0.4,0.4,0.5,0.8,0.5,1.3s-0.2,0.9-0.5,1.3c-0.4,0.4-0.8,0.5-1.3,0.5s-0.9-0.2-1.3-0.6
			s-0.5-0.8-0.5-1.3s0.2-0.9,0.5-1.3C99.5,80.3,99.9,80.1,100.4,80.1z M99,84.8h2.9v11.4H99V84.8z"/>
		<path d="M104.8,80.6h2.9v4.2h1.7v2.5h-1.7v9h-2.9v-9h-1.5v-2.5h1.5V80.6z"/>
		<path d="M110.9,84.8h2.9v5.5c0,1.1,0.1,1.8,0.2,2.2c0.1,0.4,0.4,0.7,0.7,1s0.7,0.3,1.2,0.3s0.9-0.1,1.2-0.3c0.3-0.2,0.6-0.6,0.7-1
			c0.1-0.3,0.2-1,0.2-2.1v-5.6h2.9v4.8c0,2-0.2,3.4-0.5,4.1c-0.4,0.9-1,1.6-1.7,2.1s-1.7,0.7-2.9,0.7c-1.3,0-2.3-0.3-3-0.8
			c-0.8-0.6-1.3-1.3-1.6-2.3c-0.2-0.7-0.3-2-0.3-3.8L110.9,84.8L110.9,84.8z"/>
	</g>
	<g>
		<path d="M123.6,69.4L125,67l13.7,7.9l-1.4,2.5l-1-0.6c0.2,0.8,0.2,1.4,0.2,2c-0.1,0.6-0.3,1.2-0.6,1.8c-0.7,1.3-1.9,2.1-3.4,2.5
			s-3,0.1-4.5-0.7c-1.5-0.9-2.5-2.1-3-3.5c-0.5-1.5-0.3-2.8,0.4-4.1c0.3-0.6,0.8-1.1,1.3-1.5s1.1-0.7,1.8-0.9L123.6,69.4z
			 M127.9,75.4c-0.4,0.8-0.5,1.6-0.3,2.4s0.8,1.5,1.6,2c0.9,0.5,1.7,0.6,2.6,0.4c0.8-0.2,1.5-0.7,1.9-1.4c0.5-0.8,0.6-1.6,0.3-2.4
			c-0.2-0.8-0.8-1.5-1.7-2s-1.7-0.6-2.5-0.4S128.4,74.6,127.9,75.4z"/>
		<path d="M141.7,60l-4.6,8c0.8,0.3,1.5,0.3,2.2,0s1.3-0.8,1.7-1.6c0.5-0.9,0.7-1.9,0.4-3l2.2-1.5c0.4,0.9,0.6,1.9,0.6,2.8
			c-0.1,0.9-0.4,1.9-1,2.9c-0.9,1.6-2.1,2.5-3.7,2.9c-1.5,0.4-3,0.2-4.5-0.7c-1.5-0.9-2.5-2.1-2.9-3.6s-0.2-3.1,0.6-4.5
			c0.9-1.6,2.1-2.5,3.7-2.9c1.6-0.4,3.2-0.1,4.8,0.8L141.7,60z M138.3,61.4c-0.6-0.2-1.3-0.1-1.9,0.2c-0.6,0.3-1.1,0.7-1.5,1.4
			s-0.6,1.4-0.5,2.2c0.1,0.5,0.3,1,0.8,1.7L138.3,61.4z"/>
		<path d="M143.5,49l0.1,2.5c-1,0.1-1.7,0.3-2.1,0.7c-0.2,0.2-0.3,0.5-0.4,0.7c0,0.2,0,0.4,0.2,0.5c0.1,0.1,0.3,0.2,0.4,0.2
			c0.2,0,0.5-0.1,1-0.3l1.1-0.4c1.1-0.5,2.1-0.7,2.8-0.6c0.7,0.1,1.3,0.4,1.9,0.9c0.8,0.7,1.1,1.5,1.1,2.5s-0.4,2-1.2,2.9
			c-1.1,1.2-2.5,1.8-4.1,1.7l-0.3-2.6c0.5,0,1-0.1,1.5-0.2c0.5-0.2,0.8-0.4,1.1-0.7s0.4-0.6,0.4-0.9c0-0.3-0.1-0.5-0.2-0.7
			c-0.3-0.3-0.9-0.3-1.8,0.1l-1,0.4c-1.9,0.8-3.4,0.7-4.5-0.3c-0.7-0.6-1-1.4-1-2.3c0-0.9,0.3-1.8,1.1-2.6c0.5-0.6,1.1-1,1.8-1.2
			C142,49,142.7,48.9,143.5,49z"/>
		<path d="M158.7,45.1h2.9v11.4h-2.9v-1.2c-0.6,0.5-1.1,0.9-1.7,1.1c-0.6,0.2-1.2,0.4-1.8,0.4c-1.5,0-2.8-0.6-3.8-1.7
			c-1.1-1.1-1.6-2.6-1.6-4.3c0-1.8,0.5-3.2,1.6-4.3c1-1.1,2.3-1.7,3.8-1.7c0.7,0,1.3,0.1,1.9,0.4c0.6,0.3,1.2,0.6,1.7,1.2
			L158.7,45.1L158.7,45.1z M155.7,47.4c-0.9,0-1.6,0.3-2.2,0.9c-0.6,0.6-0.9,1.4-0.9,2.4s0.3,1.8,0.9,2.4s1.3,1,2.2,1
			s1.6-0.3,2.2-0.9c0.6-0.6,0.9-1.4,0.9-2.5c0-1-0.3-1.8-0.9-2.4C157.4,47.7,156.6,47.4,155.7,47.4z"/>
		<path d="M165.6,40.4c0.5,0,0.9,0.2,1.3,0.5c0.4,0.4,0.5,0.8,0.5,1.3s-0.2,0.9-0.5,1.3c-0.4,0.4-0.8,0.5-1.3,0.5s-0.9-0.2-1.3-0.6
			c-0.4-0.4-0.5-0.8-0.5-1.3s0.2-0.9,0.5-1.3C164.7,40.6,165.1,40.4,165.6,40.4z M164.2,45.1h2.9v11.4h-2.9V45.1z"/>
		<path d="M169.7,45.1h2.9v1.2c0.6-0.5,1.2-0.9,1.8-1.1c0.5-0.2,1.1-0.3,1.6-0.3c1.1,0,2.1,0.4,2.9,1.2c0.7,0.7,1,1.7,1,3v7.5H177
			v-5c0-1.4-0.1-2.3-0.2-2.7c-0.1-0.4-0.3-0.8-0.6-1s-0.7-0.4-1.1-0.4c-0.6,0-1.1,0.2-1.5,0.6c-0.4,0.4-0.7,0.9-0.9,1.6
			c-0.1,0.4-0.1,1.1-0.1,2.3v4.6h-2.9V45.1z"/>
		<path d="M191.5,55.6c0.4,0.4,0.5,0.8,0.5,1.3s-0.2,0.9-0.5,1.3c-0.4,0.3-0.8,0.5-1.3,0.5s-0.9-0.2-1.3-0.6
			c-0.4-0.4-0.5-0.8-0.5-1.3s0.2-0.9,0.5-1.3c0.4-0.3,0.8-0.5,1.3-0.5C190.7,55.1,191.1,55.2,191.5,55.6z M195.9,48.4l-1.9-2
			c1-1,2.1-1.4,3.4-1.4c1.3,0.1,2.5,0.6,3.5,1.7c0.7,0.7,1.1,1.4,1.4,2.2c0.2,0.7,0.2,1.5,0,2.3s-0.6,1.4-1.1,2
			c-0.3,0.3-0.6,0.5-1,0.7s-0.8,0.3-1.3,0.4c-0.3,0.1-0.9,0.1-1.7,0c-0.8,0-1.4,0-1.6,0c-0.3,0-0.6,0.2-0.9,0.4
			c-0.3,0.2-0.8,0.5-1.3,1l-2-2l0.3-0.3c0.7-0.7,1.4-1.1,2.2-1.4c0.8-0.3,1.7-0.4,2.7-0.3c1,0.1,1.6,0.1,1.9,0s0.5-0.2,0.8-0.4
			c0.3-0.3,0.5-0.7,0.4-1.2c0-0.5-0.3-1-0.7-1.4c-0.5-0.5-1-0.7-1.5-0.7C196.8,47.8,196.3,48,195.9,48.4z"/>
	</g>
	<g>
		<path d="M141,101.7l1,2.7l-14.8,5.6l-1-2.7l1.1-0.4c-0.7-0.3-1.3-0.7-1.7-1.2c-0.4-0.4-0.7-1-1-1.6c-0.5-1.4-0.4-2.8,0.2-4.2
			c0.7-1.4,1.8-2.4,3.4-3c1.6-0.6,3.2-0.7,4.6-0.1c1.4,0.6,2.4,1.6,2.9,2.9c0.2,0.6,0.3,1.3,0.3,1.9c0,0.7-0.2,1.3-0.5,2L141,101.7z
			 M133.7,101.3c-0.3-0.8-0.9-1.4-1.7-1.7s-1.6-0.3-2.6,0c-0.9,0.3-1.6,0.9-2,1.7c-0.4,0.8-0.4,1.6-0.1,2.4s0.9,1.4,1.7,1.8
			c0.8,0.3,1.7,0.3,2.6,0c0.9-0.4,1.6-0.9,1.9-1.7C134,102.9,134,102.1,133.7,101.3z"/>
		<path d="M140.1,121.2l-5-7.7c-0.6,0.6-1,1.2-1,1.9c-0.1,0.7,0.1,1.5,0.6,2.2c0.6,0.9,1.4,1.5,2.4,1.7l0.4,2.6c-1,0-2-0.3-2.8-0.8
			s-1.5-1.2-2.1-2.2c-1-1.5-1.3-3-1-4.6s1.2-2.8,2.6-3.7c1.5-1,3-1.3,4.6-1s2.8,1.2,3.8,2.6c1,1.5,1.3,3,0.9,4.6
			c-0.4,1.6-1.3,2.9-2.9,3.9L140.1,121.2z M140.4,117.6c0.4-0.5,0.7-1.1,0.7-1.8c0-0.7-0.2-1.3-0.6-2c-0.4-0.7-1-1.1-1.7-1.4
			c-0.4-0.2-1-0.2-1.8-0.1L140.4,117.6z"/>
		<path d="M150.5,124.9L148,125c-0.1-1-0.3-1.7-0.7-2.1c-0.2-0.2-0.5-0.3-0.7-0.4s-0.4,0-0.5,0.2c-0.1,0.1-0.2,0.3-0.2,0.4
			c0,0.2,0.1,0.5,0.3,1l0.4,1.1c0.5,1.1,0.7,2.1,0.6,2.8c-0.1,0.7-0.4,1.3-0.9,1.9c-0.7,0.8-1.5,1.1-2.5,1.1s-2-0.4-2.9-1.2
			c-1.2-1.1-1.8-2.5-1.7-4.1l2.6-0.3c0,0.5,0.1,1,0.2,1.5c0.2,0.5,0.4,0.8,0.7,1.1c0.3,0.3,0.6,0.4,0.9,0.4c0.3,0,0.5-0.1,0.7-0.2
			c0.3-0.3,0.3-0.9-0.1-1.8l-0.4-1c-0.8-1.9-0.7-3.4,0.3-4.5c0.6-0.7,1.4-1,2.3-1c0.9,0,1.8,0.3,2.6,1.1c0.6,0.5,1,1.1,1.2,1.8
			C150.5,123.4,150.6,124.1,150.5,124.9z"/>
		<path d="M152,125.6l2.4,1.5l-6,9.7l-2.4-1.5L152,125.6z M155.7,122.3c0.4,0.3,0.7,0.6,0.8,1.1s0,1-0.2,1.4
			c-0.3,0.4-0.6,0.7-1.1,0.8c-0.5,0.1-0.9,0-1.4-0.2c-0.4-0.3-0.7-0.7-0.8-1.2s0-1,0.2-1.4c0.3-0.4,0.6-0.7,1.1-0.8
			C154.8,122,155.2,122,155.7,122.3z"/>
		<path d="M164.1,129.6l2.7,0.9l-3,9.3c-0.6,1.8-1.4,3.1-2.4,3.7c-1.4,0.9-3,1-5,0.3c-1.1-0.3-1.9-0.8-2.6-1.3
			c-0.6-0.5-1.1-1.1-1.5-1.8c-0.3-0.7-0.5-1.4-0.5-2.2l3,1c0.2,0.4,0.4,0.7,0.8,1c0.4,0.3,0.8,0.5,1.4,0.7c0.7,0.2,1.4,0.3,1.9,0.2
			s0.9-0.3,1.2-0.6s0.6-0.9,0.9-1.8c-0.6,0.3-1.2,0.5-1.8,0.6s-1.2,0-1.9-0.3c-1.5-0.5-2.5-1.4-3.2-2.8c-0.7-1.4-0.8-2.9-0.2-4.5
			c0.5-1.7,1.5-2.9,2.9-3.7c1.3-0.6,2.6-0.7,3.9-0.3c0.6,0.2,1.2,0.5,1.7,0.9s0.9,1,1.3,1.7L164.1,129.6z M160.6,131
			c-0.9-0.3-1.7-0.2-2.4,0.2s-1.3,1-1.5,1.9c-0.3,0.9-0.2,1.7,0.2,2.5s1,1.3,1.9,1.6c0.8,0.3,1.6,0.2,2.4-0.2c0.7-0.4,1.2-1.1,1.5-2
			s0.2-1.7-0.1-2.5C162.1,131.7,161.4,131.2,160.6,131z"/>
		<path d="M168.9,130.3h2.9v1.2c0.7-0.5,1.2-0.9,1.8-1.1c0.5-0.2,1.1-0.3,1.6-0.3c1.1,0,2.1,0.4,2.9,1.2c0.7,0.7,1,1.7,1,3v7.5h-2.8
			v-5c0-1.4-0.1-2.3-0.2-2.7c-0.1-0.4-0.3-0.8-0.6-1s-0.7-0.4-1.1-0.4c-0.6,0-1.1,0.2-1.5,0.6c-0.4,0.4-0.7,0.9-0.9,1.6
			c-0.1,0.4-0.1,1.1-0.1,2.3v4.6H169L168.9,130.3z"/>
		<path d="M189.1,129.2l-2.6,0.9c-0.4-1.3-0.4-2.5,0.3-3.6c0.6-1.1,1.6-1.9,3.1-2.4c0.9-0.3,1.8-0.4,2.6-0.3s1.5,0.5,2.1,1
			s1,1.1,1.3,1.9c0.1,0.4,0.2,0.8,0.2,1.2c0,0.4-0.1,0.9-0.2,1.4c-0.1,0.3-0.3,0.8-0.8,1.6c-0.4,0.7-0.6,1.2-0.7,1.5
			c-0.1,0.3-0.1,0.6-0.1,1s0.1,0.9,0.3,1.6l-2.7,0.9l-0.2-0.4c-0.3-0.9-0.4-1.8-0.3-2.6c0.1-0.8,0.4-1.7,0.9-2.6
			c0.5-0.9,0.8-1.4,0.9-1.7c0.1-0.3,0.1-0.6-0.1-0.9c-0.1-0.4-0.4-0.7-0.9-0.9c-0.5-0.2-1-0.2-1.6,0s-1.1,0.6-1.3,1
			C189,128.1,189,128.7,189.1,129.2z M193.6,136.4c0.5-0.2,1-0.1,1.4,0.1c0.5,0.2,0.8,0.6,0.9,1c0.2,0.5,0.1,0.9-0.1,1.4
			s-0.6,0.8-1.1,0.9c-0.5,0.2-0.9,0.1-1.4-0.1c-0.4-0.2-0.7-0.6-0.9-1c-0.2-0.5-0.1-0.9,0.1-1.4
			C192.8,136.8,193.1,136.5,193.6,136.4z"/>
	</g>
</g>
</svg>
