<?xml version="1.0" encoding="utf-8"?>
<!-- Generator: Adobe Illustrator 21.0.0, SVG Export Plug-In . SVG Version: 6.00 Build 0)  -->
<svg version="1.1" id="Layer_1" xmlns="http://www.w3.org/2000/svg" xmlns:xlink="http://www.w3.org/1999/xlink" x="0px" y="0px"
	 viewBox="0 0 259 180" style="enable-background:new 0 0 259 180;" xml:space="preserve">
<style type="text/css">
	.st0{font-family:'ArialMT';}
	.st1{font-size:12px;}
	.st2{enable-background:new    ;}
</style>
<text transform="matrix(1 0 0 1 0 -1.464844e-05)" class="st0 st1"> </text>
<g>
	<g>
		<g>
			<path d="M127.9,32.8c2.3,0.5,4.8,0.7,7,1.5c3.8,1.1,7.4,3.1,9.4,6.7c2.7,4.5,2.3,9.2,0.5,13.7c-3.5,9-10.2,14.8-19.2,18
				c-6.2,2.1-12.6,3.2-19.1,2.2c-3.3-0.4-6.2-1.9-8.3-4.3c-0.7-0.7-1-1.9-1.5-2.8c-0.1-0.2,0-0.7,0.2-0.9c0.2-0.1,0.7-0.1,0.9,0.1
				c4.5,4.6,10,4.5,15.7,3.5c8.2-1.4,15.3-4.9,21-11.2c2.2-2.5,3.9-5.2,4.8-8.5c1-4.9-0.9-8.1-5.8-9.6c-4.9-1.5-9.9-1.4-14.9-0.5
				c-12.6,2.5-23.7,8.3-33.2,16.6c-2.3,2.1-4.3,4.6-6,7.2c-3.4,5.9-2.2,11.8,3.3,16.8c2.9,2.7,6.1,4.9,9.1,7.5
				c1.5,1.3,3.1,2.7,4.6,3.9c0.3,0.3,1.1,0.4,1.4,0.2c3.6-2,7.4-3.9,11.1-6.1c0.4-0.2,0.7-0.6,1-1c2.1-2.5,4.4-4.5,7.2-5.9
				c4.5-2.1,7.6,0.1,7.1,5.1c0,0.5-0.1,1-0.1,1.8c0.4-0.1,0.7-0.3,1-0.3c2.1-0.5,3.4,0.7,3,2.9c-0.9,3.8-2,7.6-2.9,11.6
				c-0.2,1.1-0.2,2.2-0.3,3.4c0.2,0,0.3,0.1,0.5,0.1c0.5-0.7,1-1.7,1.4-2.6c3.4-7.5,6.6-14.8,10-22.3c0.4-0.7,0.5-1.8,0.7-2.7
				c0.2-1.2,0.9-2,2.1-2.1c1.4-0.1,2.8-0.3,4.2-0.2c1.5,0.1,2.1,0.9,1.4,2.3c-1.1,2.9-1.7,5.9-0.9,8.9c0.3,1.4,0.9,2.7,1.4,4
				c0.1,0,0.3,0,0.4,0c1.4-2.6,2.9-5.1,4.3-7.5c1.7-3,3.1-6.2,3.7-9.5c0.2-1,0.7-1.7,1.9-1.8c1.5-0.1,3.1-0.3,4.6-0.2
				c1.2,0.1,1.8,0.7,1.2,2.1c-0.9,2.6-1.8,5.3-1,8.1c0.6,2.2,1.5,4.5,2.1,6.5c3.2-0.7,5.9-1.8,8.7-2.1c5.9-0.7,11.5,0.1,15.9,4.3
				c3.3,3,5,6.7,3.8,11.3c-0.7,2.7-2.7,4.3-5.1,5.3c-0.4,0.2-0.9-0.1-1.4-0.1c0.2-0.4,0.4-0.7,0.7-1c5-3.3,4-8.1,0.9-11.5
				c-2.1-2.1-4.8-3.3-7.6-3.8c-4.3-0.7-8.5-0.9-12.8,0.5c-0.4,0.1-0.9,0.3-1.2,0.4c0.3,1.5,0.7,2.9,0.7,4.2c0.3,3.9-2.1,6.4-5.2,8.4
				c-1.4,0.9-3.2,1.7-4.8,2.1c-3,0.9-4.8-0.7-4.4-3.7c0.5-3.9,2.9-6.8,5.5-9.6c0.5-0.5,1-0.9,1.3-1.2c-1.1-3.2-2.2-6.3-3.3-9.5
				c-1.1,2-2.1,3.8-3.3,6c-0.3,0.5-0.5,0.9-0.7,1.3c-2.1,2.7-3.1,5.3-2,9c1.4,4.6-1.2,8.5-6.4,10.4c-2.1,0.7-4.5,1.1-6.7,1.4
				c-0.7,0.1-2.1-0.5-2.3-1.1c-0.3-0.6-0.1-2,0.4-2.7c2.1-2.9,4.3-5.6,6.6-8.2c1.5-1.7,1.5-3.1,0.5-5.1c-1.2-2.2-1.9-4.8-2.8-7.4
				c-0.7,1.7-1.3,3.3-2.1,4.8c-2.9,5.9-5.8,11.6-8.7,17.3c-0.6,1.2-1.7,2.2-2.7,3.2c-2.1,1.9-4.4,1.1-5.1-1.5
				c-0.3-1-0.5-2.1-0.5-3.3c-0.1-1,0.1-2.1,0.1-3.4c-0.9,2-1.7,3.6-2.6,5.4c-0.6,1.2-1.2,2.5-2.1,3.4c-2.1,2.9-5.6,2.8-7.5-0.1
				c-2.7-3.9-3.3-8.5-2.6-13.1c0.3-1.9,0.7-3.5,1.1-5.8c-2.2,1.3-4.4,2.6-6.4,3.6c0.4,1.9,0.9,3.5,1.1,5.3c1.2,9.9-4,18.6-13.3,22.2
				c-3.4,1.2-6.8,1.4-10.3,0.5c-2.2-0.6-3.4-2.3-4-4.4c-1.4-4.6-0.4-8.7,2.7-12.3c3.5-4.2,8.2-7,12.9-9.7c1.2-0.7,2.6-1.3,4-2.2
				c-1.4-1-2.7-2-3.8-2.9c-3.5-2.7-7.4-5.2-10.8-8c-4.3-2.6-8-6.7-9.4-12.4c0-1.1,0-2.3,0-3.4c0.1-0.1,0.2-0.2,0.2-0.3
				c0.7-4.4,3.1-8.2,6.1-11.6C84,44.9,97.3,38.4,111.8,34c2.6-0.7,5.2-1,7.8-1.5C122.8,32.8,125.4,32.8,127.9,32.8z M95.3,99
				c-4.5,2.6-8.6,5.2-12,8.8c-1.9,1.9-3.1,4-3.4,6.7c-0.4,3.2,1.3,4.6,4.4,3.8c3-0.7,5.4-2.2,7.5-4.5C95.5,109.7,97,104.9,95.3,99z
				 M110.8,101.6c0.2,1.2,0.4,2.6,0.7,3.7c0.1,0.4,0.5,0.7,0.7,1.2c0.4-0.3,0.9-0.6,1.3-1c0.4-0.5,0.7-1.2,1-1.9
				c1.4-3.6,3-7.4,4.3-11.1c0.7-2.1,1.3-4.3,1.9-6.5c0.3-1.5-0.4-2.1-1.8-1.3c-1.1,0.6-2.2,1.4-3.1,2.3
				C112.9,91.4,111,96.3,110.8,101.6z M160.2,94.4c-2.6,1.8-5.1,6.5-4.4,8.2C159.5,101.5,161.6,97.6,160.2,94.4z M143.8,100.1
				c-2.1,2.3-3.8,4.5-6,6.9C141,106.1,143.7,103,143.8,100.1z"/>
		</g>
	</g>
	<g class="st2">
		<path d="M80.7,139c0.1,0.6,0.1,1,0,1.5c-0.1,0.5-0.3,0.8-0.5,1.2c-0.3,0.4-0.6,0.7-1,0.9s-0.9,0.5-1.6,0.6c-0.7,0.2-1.5,0.2-2.1,0
			s-1.1-0.5-1.5-0.9c-0.5-0.5-0.7-0.9-1-1.6c-0.3-0.6-0.5-1.2-0.7-2c-0.2-0.7-0.2-1.3-0.2-2c0-0.7,0.1-1.2,0.3-1.8
			c0.2-0.6,0.6-1,1-1.4c0.5-0.4,1.1-0.7,2-0.8c0.7-0.1,1.2-0.2,1.7-0.1c0.5,0.1,0.9,0.2,1.3,0.5c0.4,0.2,0.7,0.6,0.9,0.9
			c0.3,0.4,0.5,0.7,0.6,1.2l-1.3,0.3c-0.1-0.3-0.2-0.6-0.4-0.7c-0.2-0.2-0.4-0.4-0.7-0.6c-0.3-0.2-0.6-0.3-0.8-0.3
			c-0.3-0.1-0.7,0-1,0h-0.2c-0.6,0.1-1,0.3-1.3,0.7c-0.3,0.3-0.6,0.7-0.7,1.1s-0.2,0.8-0.2,1.4c0,0.5,0.1,1,0.2,1.6
			c0.1,0.5,0.3,1,0.4,1.5c0.2,0.5,0.4,0.9,0.7,1.2c0.3,0.4,0.7,0.6,1,0.7c0.4,0.2,0.9,0.2,1.5,0.1h0.2c0.5-0.1,0.7-0.2,1-0.5
			c0.3-0.3,0.5-0.5,0.7-0.7c0.2-0.3,0.3-0.6,0.3-0.8c0-0.3,0-0.6,0-0.8L80.7,139z"/>
		<path d="M83.2,138.7c0.2,0.7,0.6,1.1,1.1,1.4s1.2,0.3,2,0.2c0.3-0.1,0.6-0.2,0.7-0.3c0.3-0.1,0.5-0.3,0.7-0.5
			c0.2-0.2,0.4-0.5,0.5-0.7c0.1-0.3,0.1-0.6,0.1-0.8c-0.1-0.3-0.2-0.6-0.4-0.7c-0.2-0.2-0.4-0.4-0.6-0.5c-0.2-0.1-0.5-0.2-0.7-0.2
			c-0.3,0-0.6-0.1-0.8-0.1h-1.4c-0.8,0-1.6-0.2-2.1-0.6c-0.5-0.4-0.8-0.9-1-1.7c-0.1-0.5-0.1-0.8,0-1.2s0.3-0.7,0.6-1
			c0.3-0.3,0.6-0.6,0.9-0.7c0.4-0.2,0.8-0.4,1.3-0.5c0.7-0.1,1.2-0.2,1.7-0.1c0.5,0.1,0.9,0.2,1.3,0.4c0.4,0.2,0.7,0.5,0.8,0.8
			c0.2,0.4,0.4,0.7,0.5,1.1l-1.2,0.3c-0.2-0.7-0.5-1-0.9-1.3c-0.5-0.3-1-0.3-1.8-0.2c-0.7,0.2-1.2,0.4-1.6,0.7
			c-0.4,0.4-0.5,0.8-0.4,1.3c0.1,0.5,0.4,0.8,0.7,1c0.4,0.2,0.9,0.3,1.6,0.3h1.4c0.5,0,0.8,0,1.2,0.1c0.4,0.1,0.7,0.2,1,0.4
			c0.3,0.2,0.6,0.5,0.7,0.7c0.2,0.3,0.4,0.7,0.5,1.1s0.1,0.9,0,1.4c-0.1,0.4-0.3,0.7-0.6,1.1c-0.3,0.3-0.7,0.6-1,0.7
			c-0.4,0.2-0.8,0.4-1.4,0.5c-0.6,0.1-1.1,0.2-1.6,0.2c-0.5,0-0.9-0.1-1.3-0.3c-0.4-0.2-0.7-0.5-1-0.8c-0.3-0.4-0.5-0.8-0.7-1.4
			L83.2,138.7z"/>
		<path d="M91.8,136.9c0.2,0.7,0.6,1.1,1.1,1.4s1.2,0.3,2,0.2c0.3-0.1,0.6-0.2,0.7-0.3c0.3-0.1,0.5-0.3,0.7-0.5
			c0.2-0.2,0.4-0.5,0.5-0.7c0.1-0.3,0.1-0.6,0.1-0.8c-0.1-0.3-0.2-0.6-0.4-0.7c-0.2-0.2-0.4-0.4-0.6-0.5c-0.2-0.1-0.5-0.2-0.7-0.2
			c-0.3,0-0.6-0.1-0.8-0.1h-1.4c-0.8,0-1.6-0.2-2.1-0.6c-0.6-0.4-0.8-0.9-1-1.7c-0.1-0.5-0.1-0.8,0-1.2c0.1-0.4,0.3-0.7,0.6-1
			c0.3-0.3,0.6-0.6,0.9-0.7c0.4-0.2,0.8-0.4,1.3-0.5c0.7-0.1,1.2-0.2,1.7-0.1c0.5,0.1,0.9,0.2,1.3,0.4c0.4,0.2,0.7,0.5,0.8,0.8
			c0.2,0.4,0.4,0.7,0.5,1.1l-1.2,0.3c-0.2-0.7-0.5-1-0.9-1.3c-0.5-0.3-1-0.3-1.8-0.2c-0.7,0.2-1.2,0.4-1.6,0.7
			c-0.4,0.4-0.5,0.8-0.4,1.3c0.1,0.5,0.4,0.8,0.7,1c0.4,0.2,0.9,0.3,1.6,0.3h1.4c0.5,0,0.8,0,1.2,0.1c0.4,0.1,0.7,0.2,1,0.4
			c0.3,0.2,0.6,0.5,0.7,0.7c0.2,0.3,0.4,0.7,0.5,1.1s0.1,0.9,0,1.4c-0.1,0.4-0.3,0.7-0.6,1.1c-0.3,0.3-0.7,0.6-1,0.7
			c-0.4,0.2-0.8,0.4-1.4,0.5c-0.6,0.1-1.1,0.2-1.6,0.2c-0.5,0-0.9-0.1-1.3-0.3c-0.4-0.2-0.7-0.5-1-0.8c-0.3-0.4-0.5-0.8-0.7-1.4
			L91.8,136.9z"/>
		<path d="M105.2,133l0.8,4.2l-1.2,0.3l-2.1-10.3l3.4-0.7c0.6-0.1,1-0.2,1.5-0.1c0.5,0,0.9,0.1,1.3,0.3c0.4,0.2,0.7,0.5,0.9,0.7
			c0.3,0.4,0.5,0.7,0.6,1.3c0.1,0.6,0.1,1,0,1.5c-0.1,0.4-0.3,0.7-0.6,1.1c-0.3,0.3-0.6,0.6-1,0.7c-0.4,0.2-0.8,0.4-1.4,0.5
			L105.2,133z M105,131.9l2.6-0.6c0.7-0.2,1.2-0.4,1.5-0.7c0.3-0.4,0.3-0.8,0.2-1.6c-0.2-0.7-0.5-1.1-0.8-1.3
			c-0.5-0.2-0.9-0.3-1.6-0.2l-2.6,0.6L105,131.9z"/>
		<path d="M115.3,128.6c-0.7,0.2-1.2,0.5-1.5,0.8c-0.3,0.4-0.3,1.1-0.2,2l0.8,3.9l-1.1,0.3l-1.5-7.3l1.1-0.2l0.2,1
			c0.1-0.4,0.4-0.7,0.7-1c0.4-0.3,0.7-0.6,1.2-0.7c0.1,0,0.3-0.1,0.5-0.1s0.3,0,0.4,0l0.2,1c-0.1,0-0.3,0-0.4,0
			C115.5,128.6,115.4,128.6,115.3,128.6z"/>
		<path d="M124.3,131c0,0.9-0.3,1.7-0.7,2.2c-0.5,0.5-1.1,0.8-2,1c-0.7,0.1-1.1,0.1-1.6,0c-0.5-0.1-0.8-0.3-1.2-0.6
			c-0.4-0.3-0.7-0.7-0.8-1c-0.2-0.5-0.4-0.9-0.5-1.5c-0.1-0.7-0.2-1.2-0.1-1.7c0.1-0.5,0.2-0.9,0.5-1.3c0.3-0.4,0.6-0.7,0.9-0.9
			c0.4-0.3,0.8-0.4,1.4-0.6c0.5-0.1,0.9-0.1,1.4,0c0.5,0.1,0.8,0.3,1.2,0.5c0.4,0.3,0.7,0.6,0.9,1c0.3,0.5,0.5,0.9,0.6,1.6l0.1,0.3
			l-5.5,1.1c0.1,0.4,0.2,0.7,0.4,0.9c0.2,0.3,0.4,0.6,0.6,0.7c0.3,0.2,0.5,0.4,0.8,0.4c0.3,0.1,0.7,0.1,1,0c0.6-0.1,0.9-0.3,1.2-0.7
			c0.3-0.3,0.5-0.7,0.5-1.4L124.3,131z M118.4,130.2l4.3-0.8c-0.1-0.3-0.2-0.6-0.4-0.7c-0.2-0.2-0.4-0.5-0.6-0.6
			c-0.2-0.2-0.5-0.3-0.7-0.4c-0.3-0.1-0.6-0.1-0.8,0c-0.3,0.1-0.6,0.2-0.8,0.4c-0.3,0.2-0.5,0.4-0.6,0.6c-0.2,0.3-0.3,0.5-0.4,0.7
			C118.3,129.6,118.3,129.8,118.4,130.2z"/>
		<path d="M128,135.8l-1.1,0.2l-2.1-10.3l1.1-0.3l0.2,0.9c0.2-0.4,0.4-0.7,0.7-0.9c0.3-0.3,0.7-0.5,1.2-0.6c0.6-0.1,1.1-0.1,1.6,0
			c0.5,0.1,0.8,0.3,1.2,0.6c0.4,0.3,0.7,0.7,0.8,1c0.2,0.5,0.4,0.9,0.6,1.5c0.3,1.2,0.2,2.2-0.3,3c-0.5,0.7-1.2,1.3-2.3,1.5
			c-0.3,0.1-0.5,0.1-0.7,0.1s-0.5-0.1-0.7-0.1c-0.2-0.1-0.4-0.2-0.6-0.3c-0.2-0.1-0.4-0.2-0.5-0.4L128,135.8z M128.2,125.9
			c-0.4,0.1-0.7,0.2-0.9,0.4c-0.3,0.2-0.5,0.5-0.6,0.7c-0.1,0.3-0.2,0.6-0.2,0.9c0,0.4,0,0.7,0.1,1l0.1,0.4c0.1,0.3,0.2,0.7,0.3,0.9
			c0.2,0.3,0.4,0.6,0.6,0.7s0.5,0.4,0.7,0.5c0.3,0.1,0.7,0.1,1,0c0.4-0.1,0.7-0.2,0.9-0.5c0.3-0.2,0.5-0.5,0.6-0.7s0.2-0.7,0.2-0.9
			c0-0.3,0-0.7-0.1-1.1c-0.1-0.4-0.2-0.7-0.4-1s-0.4-0.6-0.6-0.8s-0.5-0.4-0.8-0.5C128.9,125.8,128.6,125.8,128.2,125.9z"/>
		<path d="M136.3,124.3c-0.7,0.2-1.2,0.5-1.5,0.8c-0.3,0.4-0.3,1.1-0.2,2l0.8,3.9l-1.1,0.3l-1.5-7.3l1.1-0.2l0.2,1
			c0.1-0.4,0.4-0.7,0.7-1c0.4-0.3,0.7-0.6,1.2-0.7c0.1,0,0.3-0.1,0.5-0.1s0.3,0,0.4,0l0.2,1c-0.1,0-0.3,0-0.4,0
			C136.6,124.2,136.4,124.2,136.3,124.3z"/>
		<path d="M141,122.3c0.6-0.1,1.1-0.1,1.6,0c0.5,0.1,0.8,0.3,1.2,0.6c0.4,0.3,0.7,0.7,0.8,1c0.2,0.5,0.4,0.9,0.6,1.5
			c0.3,1.2,0.2,2.2-0.3,3c-0.5,0.7-1.2,1.3-2.3,1.5c-1.1,0.3-2.1,0.1-2.8-0.5c-0.7-0.6-1.2-1.4-1.4-2.6c-0.1-0.6-0.2-1.1-0.1-1.6
			c0-0.5,0.2-0.9,0.4-1.3c0.2-0.4,0.6-0.7,0.9-1C139.9,122.6,140.4,122.4,141,122.3z M141.1,123.2c-0.4,0.1-0.7,0.2-0.9,0.5
			c-0.3,0.2-0.5,0.5-0.6,0.7c-0.1,0.3-0.2,0.7-0.2,1c0,0.4,0,0.7,0.1,1.1c0.1,0.4,0.2,0.7,0.4,1c0.2,0.3,0.4,0.6,0.6,0.8
			c0.3,0.2,0.5,0.4,0.8,0.5c0.3,0.1,0.7,0.1,1,0c0.4-0.1,0.7-0.2,0.9-0.5s0.5-0.5,0.6-0.7c0.1-0.3,0.2-0.7,0.2-0.9
			c0-0.3,0-0.7-0.1-1.1c-0.1-0.4-0.2-0.7-0.4-1c-0.2-0.3-0.4-0.6-0.6-0.8c-0.3-0.2-0.5-0.4-0.8-0.5
			C141.9,123.1,141.5,123.1,141.1,123.2z"/>
		<path d="M151.3,122.8c-0.3-0.5-0.6-0.8-0.9-1c-0.4-0.2-0.8-0.3-1.3-0.1c-0.4,0.1-0.7,0.2-0.9,0.5c-0.3,0.2-0.5,0.5-0.6,0.7
			s-0.2,0.7-0.2,1c0,0.4,0,0.7,0.1,1.1c0.1,0.4,0.2,0.7,0.4,1c0.2,0.3,0.4,0.6,0.6,0.8c0.2,0.3,0.5,0.4,0.8,0.5s0.7,0.1,1,0
			c0.7-0.1,1-0.4,1.3-0.7c0.3-0.4,0.4-0.8,0.4-1.4l1.2-0.3c0.1,0.9-0.2,1.7-0.7,2.3c-0.5,0.6-1.2,0.9-2.1,1.2
			c-1.1,0.3-2.1,0.1-2.8-0.5c-0.7-0.6-1.2-1.4-1.4-2.6c-0.1-0.6-0.2-1.1-0.1-1.6c0-0.5,0.2-0.9,0.4-1.3c0.2-0.4,0.6-0.7,0.9-1
			c0.4-0.3,0.9-0.5,1.5-0.6c0.5-0.1,0.8-0.1,1.2-0.1c0.4,0,0.7,0.2,1,0.3c0.3,0.2,0.7,0.4,0.8,0.7c0.3,0.3,0.5,0.6,0.6,0.9
			L151.3,122.8z"/>
		<path d="M160.9,123.3c0,0.9-0.3,1.7-0.7,2.2c-0.5,0.6-1.1,0.8-2,1c-0.7,0.1-1.1,0.1-1.6,0c-0.5-0.1-0.8-0.3-1.2-0.6
			c-0.4-0.3-0.7-0.7-0.8-1c-0.2-0.5-0.4-0.9-0.5-1.5c-0.1-0.7-0.2-1.2-0.1-1.7c0.1-0.5,0.2-0.9,0.5-1.3c0.3-0.4,0.6-0.7,0.9-0.9
			c0.4-0.3,0.8-0.4,1.4-0.6c0.5-0.1,0.9-0.1,1.4,0c0.5,0.1,0.8,0.3,1.2,0.5c0.4,0.3,0.7,0.6,0.9,1c0.3,0.5,0.5,0.9,0.6,1.6l0.1,0.3
			l-5.5,1.1c0.1,0.4,0.2,0.7,0.4,0.9s0.4,0.6,0.6,0.7c0.3,0.2,0.5,0.4,0.8,0.4s0.7,0.1,1,0c0.6-0.1,0.9-0.3,1.2-0.7
			c0.3-0.3,0.5-0.7,0.5-1.4L160.9,123.3z M155,122.6l4.3-0.8c-0.1-0.3-0.2-0.6-0.4-0.7c-0.2-0.3-0.4-0.5-0.6-0.6
			c-0.2-0.2-0.5-0.3-0.7-0.4s-0.6-0.1-0.8,0c-0.3,0.1-0.6,0.2-0.8,0.4c-0.3,0.2-0.5,0.4-0.6,0.6c-0.1,0.2-0.3,0.5-0.4,0.7
			C154.9,122,155,122.3,155,122.6z"/>
		<path d="M165.8,119.4c-0.1-0.4-0.4-0.7-0.7-0.7c-0.3-0.1-0.7-0.2-1.2-0.1c-0.2,0-0.4,0.1-0.6,0.2c-0.2,0.1-0.3,0.2-0.5,0.3
			c-0.2,0.1-0.2,0.3-0.3,0.4c-0.1,0.2-0.1,0.3,0,0.5c0.1,0.4,0.3,0.6,0.5,0.7c0.3,0.1,0.6,0.2,0.9,0.2c0.4,0,0.7,0,1.1,0
			s0.7,0,1.1,0.1s0.7,0.2,0.9,0.5c0.3,0.3,0.5,0.6,0.6,1.1c0.1,0.4,0.1,0.7-0.1,1c-0.1,0.3-0.3,0.6-0.6,0.8
			c-0.3,0.2-0.6,0.4-0.8,0.6c-0.3,0.2-0.7,0.3-0.9,0.3c-0.5,0.1-0.8,0.1-1.2,0.1s-0.7-0.1-1-0.3c-0.3-0.1-0.6-0.3-0.7-0.6
			s-0.4-0.6-0.4-0.8l1.2-0.3c0.3,0.8,0.9,1.1,2,0.8c0.2,0,0.4-0.1,0.6-0.2s0.4-0.2,0.5-0.3c0.2-0.1,0.3-0.3,0.3-0.5
			c0.1-0.2,0.1-0.4,0-0.7c-0.1-0.3-0.2-0.6-0.5-0.7s-0.6-0.2-0.9-0.2s-0.7,0-1.1,0c-0.4,0-0.7,0-1.1-0.1c-0.4-0.1-0.7-0.2-0.9-0.5
			c-0.3-0.2-0.5-0.6-0.6-1.1c-0.1-0.4-0.1-0.7,0-1c0.1-0.3,0.3-0.6,0.5-0.7s0.5-0.4,0.7-0.6c0.3-0.2,0.7-0.3,1-0.4
			c0.4-0.1,0.7-0.1,1.1-0.1s0.7,0.1,0.9,0.3c0.3,0.1,0.5,0.3,0.7,0.6s0.3,0.6,0.4,0.8L165.8,119.4z"/>
		<path d="M172.5,118c-0.1-0.4-0.4-0.7-0.7-0.7c-0.3-0.1-0.7-0.2-1.2-0.1c-0.2,0-0.4,0.1-0.6,0.2s-0.3,0.2-0.5,0.3
			c-0.1,0.1-0.2,0.3-0.3,0.4c-0.1,0.2-0.1,0.3,0,0.5c0.1,0.4,0.3,0.6,0.5,0.7c0.3,0.1,0.6,0.2,0.9,0.2s0.7,0,1.1,0s0.7,0,1.1,0.1
			c0.4,0.1,0.7,0.2,0.9,0.5c0.3,0.3,0.5,0.6,0.6,1.1c0.1,0.4,0.1,0.7-0.1,1c-0.1,0.3-0.3,0.6-0.6,0.8c-0.3,0.2-0.6,0.4-0.8,0.6
			c-0.3,0.2-0.7,0.3-0.9,0.3c-0.5,0.1-0.8,0.1-1.2,0.1c-0.4,0-0.7-0.1-1-0.3c-0.3-0.1-0.6-0.3-0.7-0.6s-0.4-0.6-0.4-0.8l1.2-0.3
			c0.3,0.8,0.9,1.1,2,0.8c0.2,0,0.4-0.1,0.6-0.2c0.2-0.1,0.4-0.2,0.5-0.3c0.2-0.1,0.3-0.3,0.3-0.5c0.1-0.2,0.1-0.4,0-0.7
			c-0.1-0.3-0.2-0.6-0.5-0.7c-0.3-0.1-0.6-0.2-0.9-0.2s-0.7,0-1.1,0s-0.7,0-1.1-0.1c-0.4-0.1-0.7-0.2-0.9-0.5
			c-0.3-0.2-0.5-0.6-0.6-1.1c-0.1-0.4-0.1-0.7,0-1c0.1-0.3,0.3-0.6,0.5-0.7c0.2-0.2,0.5-0.4,0.7-0.6c0.3-0.2,0.7-0.3,1-0.4
			c0.4-0.1,0.7-0.1,1.1-0.1c0.4,0,0.7,0.1,0.9,0.3c0.3,0.2,0.5,0.3,0.7,0.6c0.2,0.3,0.3,0.6,0.4,0.8L172.5,118z"/>
		<path d="M177.8,114.7c0.6-0.1,1.1-0.1,1.6,0c0.5,0.1,0.8,0.3,1.2,0.6c0.4,0.3,0.7,0.7,0.8,1c0.2,0.5,0.4,0.9,0.6,1.5
			c0.3,1.2,0.2,2.2-0.3,3c-0.5,0.7-1.2,1.3-2.3,1.5s-2.1,0.1-2.8-0.5c-0.7-0.6-1.2-1.4-1.4-2.6c-0.1-0.6-0.2-1.1-0.1-1.6
			c0-0.5,0.2-0.9,0.4-1.3c0.2-0.4,0.6-0.7,0.9-1C176.7,115,177.2,114.8,177.8,114.7z M178,115.7c-0.4,0.1-0.7,0.2-0.9,0.5
			c-0.3,0.2-0.5,0.5-0.6,0.7c-0.1,0.3-0.2,0.7-0.2,1c0,0.4,0,0.7,0.1,1.1s0.2,0.7,0.4,1c0.2,0.3,0.4,0.6,0.6,0.8
			c0.3,0.2,0.5,0.4,0.8,0.5c0.4,0.1,0.7,0.1,1,0c0.4-0.1,0.7-0.2,0.9-0.5c0.3-0.2,0.5-0.5,0.6-0.7s0.2-0.7,0.2-0.9
			c0-0.3,0-0.7-0.1-1.1c-0.1-0.4-0.2-0.7-0.4-1s-0.4-0.6-0.6-0.8c-0.3-0.2-0.5-0.4-0.8-0.5C178.7,115.6,178.3,115.6,178,115.7z"/>
		<path d="M186.1,114.1c-0.7,0.2-1.2,0.5-1.5,0.8c-0.3,0.5-0.3,1.1-0.2,2l0.8,3.9l-1.1,0.3l-1.5-7.3l1.1-0.2l0.2,1
			c0.1-0.4,0.4-0.7,0.7-1c0.4-0.3,0.7-0.6,1.2-0.7c0.1,0,0.3-0.1,0.5-0.1s0.3,0,0.4,0l0.2,1c-0.1,0-0.3,0-0.4,0
			C186.3,114,186.2,114,186.1,114.1z"/>
	</g>
</g>
</svg>
