<?xml version="1.0" encoding="utf-8"?>
<!-- Generator: Adobe Illustrator 21.0.0, SVG Export Plug-In . SVG Version: 6.00 Build 0)  -->
<svg version="1.1" id="Layer_1" xmlns="http://www.w3.org/2000/svg" xmlns:xlink="http://www.w3.org/1999/xlink" x="0px" y="0px"
	 viewBox="0 0 259 180" style="enable-background:new 0 0 259 180;" xml:space="preserve">
<style type="text/css">
	.st0{fill:none;}
	.st1{font-family:'ArialMT';}
	.st2{font-size:12px;}
	.st3{stroke:#000000;stroke-width:0.25;stroke-miterlimit:10;}
	.st4{font-family:'Lunchtype';}
	.st5{font-size:13.7544px;}
</style>
<path id="SVGID_x5F_1_x5F_" class="st0" d="M85.5,77.2c0,0,3.8-8.1,21.2-16.6c16.9-8.2,24.9-1.3,24.9-1.3s2.2,6.9-10.7,14.3
	c-1,0.6-11.4,4.5-16,2.1"/>
<text transform="matrix(1 0 0 1 0 -1.464844e-05)" class="st1 st2"> </text>
<g>
	<g>
		<path d="M127.7,40.6c2.5,0.5,5.1,0.8,7.5,1.6c4.1,1.2,7.9,3.3,10.1,7.2c2.9,4.8,2.5,9.9,0.5,14.7c-3.8,9.7-10.9,15.9-20.6,19.3
			c-6.6,2.3-13.5,3.4-20.5,2.4c-3.5-0.4-6.6-2-8.9-4.6c-0.7-0.8-1.1-2-1.6-3c-0.1-0.2,0-0.7,0.2-1c0.2-0.1,0.7-0.1,1,0.1
			c4.8,4.9,10.7,4.8,16.8,3.8c8.8-1.5,16.4-5.3,22.5-12c2.4-2.7,4.2-5.6,5.1-9.1c1.1-5.3-1-8.7-6.2-10.3c-5.3-1.6-10.6-1.5-16-0.5
			c-13.5,2.7-25.4,8.9-35.6,17.8c-2.5,2.2-4.6,4.9-6.4,7.7c-3.7,6.3-2.4,12.7,3.5,18c3.1,2.9,6.5,5.3,9.8,8c1.6,1.4,3.3,2.9,4.9,4.2
			c0.3,0.3,1.2,0.4,1.5,0.2c3.9-2.1,7.9-4.2,11.9-6.5c0.4-0.2,0.7-0.6,1.1-1.1c2.2-2.7,4.7-4.8,7.7-6.3c4.8-2.2,8.2,0.1,7.6,5.5
			c0,0.5-0.1,1.1-0.1,1.9c0.4-0.1,0.7-0.3,1.1-0.3c2.3-0.5,3.7,0.8,3.2,3.1c-1,4.1-2.1,8.2-3.1,12.4c-0.2,1.2-0.2,2.4-0.3,3.6
			c0.2,0,0.3,0.1,0.5,0.1c0.5-0.8,1.1-1.8,1.5-2.8c3.6-8,7.1-15.9,10.7-23.9c0.4-0.8,0.5-1.9,0.7-2.9c0.2-1.3,1-2.1,2.3-2.2
			c1.5-0.1,3-0.3,4.5-0.2c1.6,0.1,2.2,1,1.5,2.5c-1.2,3.1-1.8,6.3-1,9.5c0.3,1.5,1,2.9,1.5,4.3c0.1,0,0.3,0,0.4,0
			c1.5-2.8,3.1-5.5,4.6-8.1c1.8-3.2,3.3-6.6,4-10.2c0.2-1.1,0.8-1.8,2-1.9c1.6-0.1,3.3-0.3,4.9-0.2c1.3,0.1,1.9,0.8,1.3,2.3
			c-1,2.8-1.9,5.7-1.1,8.7c0.6,2.4,1.6,4.8,2.3,7c3.4-0.8,6.3-1.9,9.3-2.2c6.3-0.7,12.3,0.1,17.1,4.6c3.5,3.2,5.4,7.2,4.1,12.1
			c-0.7,2.9-2.9,4.6-5.5,5.7c-0.4,0.2-1-0.1-1.5-0.1c0.2-0.4,0.4-0.8,0.7-1.1c5.4-3.5,4.3-8.7,1-12.3c-2.2-2.3-5.2-3.5-8.2-4.1
			c-4.6-0.8-9.1-1-13.7,0.5c-0.4,0.1-1,0.3-1.3,0.4c0.3,1.6,0.7,3.1,0.8,4.5c0.3,4.2-2.3,6.9-5.6,9c-1.5,1-3.4,1.8-5.2,2.3
			c-3.2,1-5.2-0.7-4.7-4c0.5-4.2,3.1-7.3,5.9-10.3c0.5-0.5,1.1-1,1.4-1.3c-1.2-3.4-2.4-6.8-3.5-10.2c-1.2,2.1-2.3,4.1-3.5,6.4
			c-0.3,0.5-0.5,1-0.8,1.4c-2.2,2.9-3.3,5.7-2.1,9.7c1.5,4.9-1.3,9.1-6.9,11.2c-2.2,0.8-4.8,1.2-7.2,1.5c-0.8,0.1-2.2-0.5-2.5-1.2
			c-0.3-0.6-0.1-2.1,0.4-2.9c2.3-3.1,4.6-6,7.1-8.8c1.6-1.8,1.6-3.3,0.5-5.5c-1.3-2.4-2-5.2-3-7.9c-0.7,1.8-1.4,3.5-2.2,5.2
			c-3.1,6.3-6.2,12.4-9.3,18.6c-0.6,1.3-1.8,2.4-2.9,3.4c-2.2,2-4.7,1.2-5.5-1.6c-0.3-1.1-0.5-2.3-0.5-3.5c-0.1-1.1,0.1-2.3,0.1-3.7
			c-1,2.1-1.8,3.9-2.8,5.8c-0.6,1.3-1.3,2.7-2.2,3.7c-2.2,3.1-6,3-8-0.1c-2.9-4.2-3.5-9.1-2.8-14.1c0.3-2,0.7-3.8,1.2-6.2
			c-2.4,1.4-4.7,2.8-6.9,3.9c0.4,2,1,3.8,1.2,5.7c1.3,10.6-4.3,20-14.3,23.8c-3.6,1.3-7.3,1.5-11.1,0.5c-2.4-0.6-3.6-2.5-4.3-4.7
			c-1.5-4.9-0.4-9.3,2.9-13.2c3.8-4.5,8.8-7.5,13.8-10.4c1.3-0.7,2.8-1.4,4.3-2.4c-1.5-1.1-2.9-2.1-4.1-3.1
			c-3.8-2.9-7.9-5.6-11.6-8.6C68.5,93,64.5,88.6,63,82.5c0-1.2,0-2.5,0-3.7c0.1-0.1,0.2-0.2,0.2-0.3c0.8-4.7,3.3-8.8,6.5-12.4
			c10.9-12.5,25.2-19.5,40.8-24.2c2.8-0.7,5.6-1.1,8.4-1.6C122.3,40.6,125.1,40.6,127.7,40.6z M92.8,111.6
			c-4.8,2.8-9.2,5.6-12.9,9.4c-2,2-3.3,4.3-3.6,7.2c-0.4,3.4,1.4,4.9,4.7,4.1c3.2-0.7,5.8-2.4,8-4.8C93,123.1,94.6,117.9,92.8,111.6
			z M109.4,114.4c0.2,1.3,0.4,2.8,0.7,4c0.1,0.4,0.5,0.8,0.8,1.3c0.4-0.3,1-0.6,1.4-1.1c0.4-0.5,0.8-1.3,1.1-2
			c1.5-3.9,3.2-7.9,4.6-11.9c0.8-2.3,1.4-4.6,2-7c0.3-1.6-0.4-2.2-1.9-1.4c-1.2,0.6-2.4,1.5-3.3,2.5
			C111.6,103.5,109.6,108.7,109.4,114.4z M162.4,106.7c-2.8,1.9-5.5,7-4.7,8.8C161.7,114.3,163.9,110.1,162.4,106.7z M144.8,112.8
			c-2.2,2.5-4.1,4.8-6.4,7.4C141.8,119.2,144.7,115.9,144.8,112.8z"/>
	</g>
</g>
<text transform="matrix(0.9867 -0.1625 0.1625 0.9867 83.9346 143.4304)" class="st3 st4 st5">CSS Preprocessor</text>
</svg>
