<?xml version="1.0" encoding="utf-8"?>
<!-- Generator: Adobe Illustrator 21.0.0, SVG Export Plug-In . SVG Version: 6.00 Build 0)  -->
<svg version="1.1" id="Layer_1" xmlns="http://www.w3.org/2000/svg" xmlns:xlink="http://www.w3.org/1999/xlink" x="0px" y="0px"
	 viewBox="0 0 259 180" style="enable-background:new 0 0 259 180;" xml:space="preserve">
<style type="text/css">
	.st0{enable-background:new    ;}
</style>
<g>
	<g>
		<g class="st0">
			<path d="M40.9,90.7H39v-1.3c1.1-0.2,2-0.8,2.7-1.6c0.7-0.8,1.4-2,1.9-3.6h1.2v5.2h3.5v1.3h-3.6v8.1c0,0.7,0.1,1.2,0.3,1.5
				s0.5,0.5,1,0.5s0.9-0.2,1.2-0.6s0.4-0.9,0.4-1.6v-0.3H49v0.3c0,1.6-0.4,2.8-1.1,3.6c-0.7,0.8-1.7,1.2-3.1,1.2
				c-1.3,0-2.3-0.4-2.9-1.1c-0.7-0.7-1-1.7-1-3.1V90.7z"/>
			<path d="M55.1,96v0.6c0,1.9,0.2,3.2,0.7,4.1c0.5,0.8,1.3,1.3,2.4,1.3c0.8,0,1.6-0.3,2.1-0.8c0.6-0.5,1-1.3,1.2-2.3H63
				c-0.3,1.5-0.8,2.6-1.8,3.4c-0.9,0.8-2.1,1.2-3.6,1.2c-2.1,0-3.7-0.7-5-2s-1.9-3.1-1.9-5.3c0-2.1,0.6-3.9,1.8-5.2
				c1.2-1.3,2.7-2,4.6-2c1.8,0,3.2,0.6,4.2,1.8c1,1.2,1.5,2.9,1.5,4.9V96H55.1z M55.2,94.7h3.5v-1.3c0-1.1-0.1-1.8-0.4-2.3
				c-0.3-0.5-0.7-0.7-1.3-0.7s-1,0.3-1.3,0.8s-0.5,1.3-0.5,2.2V94.7z"/>
			<path d="M73.4,103.1v-1.2c0.4,0,0.7-0.1,0.8-0.2c0.1-0.1,0.2-0.2,0.2-0.4c0-0.1,0-0.2-0.1-0.4c-0.1-0.2-0.2-0.4-0.3-0.6l-2.3-3.6
				L70.3,98v1.6c0,1,0.1,1.6,0.3,1.9c0.2,0.2,0.6,0.4,1.2,0.4v1.2h-7.3v-1.2c0.8,0,1.3-0.2,1.5-0.4c0.2-0.2,0.3-0.8,0.3-1.8V88.1
				c0-1-0.1-1.6-0.3-1.8c-0.2-0.2-0.7-0.4-1.5-0.4v-1.2h0.7c0.9,0,1.8,0,2.6-0.1c0.9-0.1,1.7-0.2,2.5-0.4v12.1l2.5-2.7
				c0.6-0.6,0.9-1.1,1.1-1.3c0.2-0.3,0.2-0.5,0.2-0.7c0-0.3-0.1-0.5-0.4-0.7s-0.7-0.3-1.2-0.3v-1.2h6.8v1.2H79c-0.5,0-1,0.1-1.5,0.4
				c-0.5,0.2-1,0.6-1.4,1.1L74.3,94l3.5,5.8c0.5,0.8,0.9,1.4,1.3,1.7c0.3,0.3,0.7,0.4,1.2,0.4v1.2H73.4z"/>
			<path d="M94.5,99.6c0,1,0.1,1.6,0.3,1.8c0.2,0.2,0.7,0.4,1.5,0.4v1.2H89v-1.2c0.6,0,1-0.1,1.2-0.4c0.2-0.2,0.3-0.8,0.3-1.9v-5.9
				c0-0.9-0.1-1.6-0.4-2C89.9,91.2,89.5,91,89,91c-0.9,0-1.5,0.5-1.9,1.4s-0.6,2.4-0.6,4.6v2.6c0,1,0.1,1.6,0.3,1.9s0.6,0.3,1.2,0.4
				v1.2h-7.3v-1.2c0.8,0,1.3-0.2,1.5-0.4c0.2-0.2,0.3-0.8,0.3-1.8v-6.8c0-1-0.1-1.6-0.3-1.8c-0.2-0.2-0.7-0.4-1.5-0.4v-1.2h0.5
				c0.9,0,1.8,0,2.6-0.1c0.8-0.1,1.7-0.2,2.4-0.3v3.1c0.4-0.9,1-1.6,1.8-2.1s1.6-0.8,2.5-0.8c1.4,0,2.4,0.4,3.1,1.3s1,2.2,1,4.1
				L94.5,99.6L94.5,99.6z"/>
			<path d="M104.5,89c2,0,3.6,0.7,4.8,2c1.2,1.3,1.8,3.1,1.8,5.2c0,2.2-0.6,3.9-1.8,5.2c-1.2,1.3-2.8,2-4.8,2s-3.6-0.7-4.8-2
				c-1.2-1.3-1.8-3.1-1.8-5.2c0-2.2,0.6-3.9,1.8-5.2C100.9,89.7,102.5,89,104.5,89z M104.5,102.2c0.8,0,1.4-0.4,1.7-1.3
				s0.5-2.4,0.5-4.6s-0.2-3.7-0.5-4.6s-0.9-1.3-1.7-1.3c-0.8,0-1.4,0.4-1.7,1.3c-0.3,0.9-0.5,2.4-0.5,4.6s0.2,3.7,0.5,4.6
				C103.1,101.8,103.7,102.2,104.5,102.2z"/>
			<path d="M118.6,99.6c0,1,0.1,1.6,0.3,1.9s0.6,0.3,1.2,0.4v1.2h-7.3v-1.2c0.8,0,1.3-0.2,1.5-0.4c0.2-0.2,0.3-0.8,0.3-1.8V88.1
				c0-1-0.1-1.6-0.3-1.8c-0.2-0.2-0.7-0.4-1.5-0.4v-1.2h0.7c0.9,0,1.8,0,2.6-0.1c0.9-0.1,1.7-0.2,2.5-0.4
				C118.6,84.2,118.6,99.6,118.6,99.6z"/>
			<path d="M128.4,89c2,0,3.6,0.7,4.8,2s1.8,3.1,1.8,5.2c0,2.2-0.6,3.9-1.8,5.2c-1.2,1.3-2.8,2-4.8,2s-3.6-0.7-4.8-2
				c-1.2-1.3-1.8-3.1-1.8-5.2c0-2.2,0.6-3.9,1.8-5.2C124.8,89.7,126.4,89,128.4,89z M128.4,102.2c0.8,0,1.4-0.4,1.7-1.3
				s0.5-2.4,0.5-4.6s-0.2-3.7-0.5-4.6s-0.9-1.3-1.7-1.3s-1.4,0.4-1.7,1.3c-0.3,0.9-0.5,2.4-0.5,4.6s0.2,3.7,0.5,4.6
				C127,101.8,127.6,102.2,128.4,102.2z"/>
			<path d="M139.1,102.7c-0.7-0.3-1.3-0.7-1.7-1.2s-0.6-1-0.6-1.6c0-0.7,0.2-1.2,0.7-1.7s1.3-0.9,2.3-1.3c-0.8-0.5-1.4-1-1.8-1.6
				c-0.4-0.6-0.6-1.3-0.6-2.1c0-1.3,0.5-2.3,1.5-3.1c1-0.8,2.2-1.2,3.8-1.2c0.9,0,1.7,0.1,2.4,0.4s1.3,0.6,1.8,1.2
				c0.5-0.5,0.9-0.9,1.3-1.2c0.4-0.3,0.8-0.4,1.2-0.4c0.5,0,1,0.2,1.3,0.6s0.5,0.9,0.5,1.5c0,0.4-0.1,0.7-0.3,0.9
				c-0.2,0.2-0.5,0.3-0.9,0.3c-0.3,0-0.5-0.1-0.7-0.2s-0.3-0.3-0.3-0.5c0-0.1,0-0.2,0-0.4c0-0.3-0.2-0.5-0.5-0.5
				c-0.2,0-0.3,0.1-0.5,0.2s-0.4,0.4-0.6,0.7c0.2,0.3,0.3,0.6,0.4,0.9c0.1,0.3,0.1,0.6,0.1,0.9c0,1.3-0.5,2.3-1.5,3.1
				c-1,0.7-2.4,1.1-4.1,1.1c-0.3,0-0.5,0-0.7,0s-0.5,0-0.7-0.1c-0.3,0.1-0.6,0.3-0.8,0.6c-0.2,0.2-0.3,0.5-0.3,0.7
				c0,0.6,1.2,0.9,3.6,1c0.2,0,0.3,0,0.5,0c0.1,0,0.2,0,0.4,0c1.5,0.1,2.5,0.3,3.1,0.6c0.6,0.3,1,0.7,1.3,1.3s0.5,1.2,0.5,1.9
				c0,1.4-0.6,2.5-1.8,3.3s-2.8,1.2-5,1.2c-1.8,0-3.3-0.3-4.3-0.8s-1.6-1.2-1.6-2.1c0-0.5,0.2-0.9,0.6-1.2
				C137.5,103.5,138.1,103.1,139.1,102.7z M140.2,103.1c-0.4,0.3-0.7,0.6-0.9,0.9s-0.3,0.6-0.3,0.8c0,0.5,0.3,1,0.9,1.2
				c0.6,0.3,1.5,0.4,2.7,0.4s2.1-0.1,2.8-0.4c0.6-0.3,0.9-0.7,0.9-1.3c0-0.6-0.4-1-1.1-1.3c-0.7-0.3-1.9-0.4-3.6-0.4
				c-0.5,0-0.8,0-1,0S140.4,103.1,140.2,103.1z M142.8,96.1c0.5,0,0.9-0.2,1.2-0.7s0.4-1.2,0.4-2.2s-0.1-1.7-0.4-2.2
				c-0.3-0.5-0.6-0.7-1.2-0.7c-0.5,0-0.9,0.3-1.2,0.7c-0.3,0.5-0.4,1.2-0.4,2.2s0.1,1.7,0.4,2.2S142.3,96.1,142.8,96.1z"/>
			<path d="M153.1,92.9c0-1-0.1-1.6-0.3-1.8c-0.2-0.2-0.7-0.4-1.5-0.4v-1.2h0.5c1,0,1.9,0,2.8-0.1s1.7-0.2,2.6-0.3v10.6
				c0,1,0.1,1.6,0.3,1.9s0.6,0.3,1.2,0.4v1.2h-7.3V102c0.8,0,1.3-0.2,1.5-0.4c0.2-0.2,0.3-0.8,0.3-1.8v-6.9H153.1z M152.6,85.2
				c0-0.6,0.2-1,0.6-1.4c0.4-0.3,1-0.5,1.7-0.5s1.3,0.2,1.7,0.5s0.6,0.8,0.6,1.4s-0.2,1-0.6,1.4c-0.4,0.3-1,0.5-1.7,0.5
				s-1.3-0.2-1.7-0.5C152.8,86.2,152.6,85.8,152.6,85.2z"/>
		</g>
		<g class="st0">
			<path d="M128.1,128.2c-0.6,0.6-1.2,1.1-1.7,1.4s-1.2,0.5-1.8,0.5c-0.9,0-1.7-0.4-2.3-1.1s-0.9-1.8-0.9-3c0-0.9,0.2-1.8,0.5-2.7
				s0.8-1.7,1.3-2.5c0.6-0.7,1.2-1.3,1.9-1.7s1.4-0.6,2.1-0.6s1.3,0.2,1.7,0.5s0.9,0.9,1.2,1.7l0.9-3.1c0-0.2,0.1-0.3,0.1-0.5
				c0-0.1,0-0.3,0-0.4c0-0.2-0.1-0.4-0.4-0.6c-0.2-0.1-0.6-0.2-1.1-0.2H129l0.3-1.1c0.9,0,1.6-0.1,2.4-0.1c0.7,0,1.4-0.1,2-0.2
				l-3.5,12.2l0,0c-0.1,0.4-0.2,0.7-0.2,0.9c0,0.2,0.1,0.4,0.2,0.5s0.3,0.2,0.4,0.2c0.3,0,0.6-0.2,0.9-0.5c0.3-0.3,0.7-0.8,1-1.5
				h1.1c-0.5,1.2-1.1,2.1-1.7,2.6c-0.6,0.6-1.3,0.9-2,0.9c-0.5,0-0.9-0.1-1.2-0.4S128.2,128.8,128.1,128.2z M127.6,119.8
				c-0.5,0-1,0.2-1.5,0.5s-0.9,0.8-1.3,1.4c-0.4,0.7-0.8,1.4-1,2.2s-0.4,1.6-0.4,2.4c0,0.7,0.2,1.3,0.5,1.8s0.8,0.6,1.4,0.6
				c0.5,0,0.9-0.1,1.3-0.4s0.8-0.7,1.2-1.2c0.5-0.7,0.9-1.4,1.2-2.4s0.5-1.8,0.5-2.6c0-0.7-0.2-1.3-0.5-1.8S128.2,119.8,127.6,119.8
				z"/>
			<path d="M141.4,128.2c-0.6,0.6-1.2,1.1-1.7,1.4c-0.6,0.3-1.2,0.5-1.8,0.5c-0.9,0-1.7-0.4-2.3-1.1c-0.6-0.8-0.9-1.8-0.9-3
				c0-0.9,0.2-1.8,0.5-2.7s0.8-1.7,1.3-2.5c0.6-0.7,1.2-1.3,1.9-1.7c0.7-0.4,1.4-0.6,2.1-0.6c0.7,0,1.3,0.2,1.7,0.5
				c0.5,0.4,0.9,0.9,1.2,1.7l0.5-2.1h1.9l-2.3,8.2l0,0c-0.1,0.4-0.2,0.7-0.2,0.9c0,0.2,0,0.4,0.2,0.5c0.1,0.1,0.2,0.2,0.4,0.2
				c0.3,0,0.6-0.2,0.9-0.5c0.3-0.3,0.6-0.8,1-1.5h1.1c-0.5,1.2-1.1,2.1-1.7,2.6c-0.6,0.6-1.3,0.9-2,0.9c-0.5,0-0.9-0.1-1.2-0.4
				S141.5,128.8,141.4,128.2z M140.9,119.8c-0.5,0-1,0.2-1.5,0.5s-0.9,0.8-1.3,1.4c-0.4,0.7-0.8,1.4-1,2.2c-0.3,0.8-0.4,1.6-0.4,2.4
				c0,0.7,0.2,1.3,0.5,1.8c0.3,0.4,0.8,0.6,1.4,0.6c0.5,0,0.9-0.1,1.3-0.4c0.4-0.3,0.8-0.7,1.2-1.2c0.5-0.7,0.9-1.4,1.2-2.4
				c0.3-0.9,0.5-1.8,0.5-2.6c0-0.7-0.2-1.3-0.5-1.8S141.5,119.8,140.9,119.8z"/>
			<path d="M150.3,129.7h-2l1.5-4.9c0.4-1.2,0.6-2.1,0.8-2.7c0.1-0.6,0.2-1,0.2-1.2s0-0.4-0.1-0.5s-0.2-0.2-0.3-0.2
				c-0.3,0-0.7,0.1-1,0.4s-0.7,0.8-1.1,1.5h-1.1c0.6-1.1,1.2-2,1.9-2.6s1.3-0.9,1.9-0.9c0.5,0,0.9,0.2,1.1,0.5
				c0.3,0.3,0.4,0.8,0.4,1.4c0,0.1,0,0.3,0,0.4s0,0.4-0.1,0.5c0.7-1,1.3-1.7,1.9-2.2c0.6-0.5,1.3-0.7,1.9-0.7c0.6,0,1.2,0.2,1.5,0.6
				c0.4,0.4,0.6,0.9,0.6,1.6s-0.3,1.9-0.9,3.6l-0.1,0.3c-0.4,1-0.6,1.7-0.7,2.1c-0.1,0.4-0.2,0.8-0.2,1s0,0.4,0.2,0.5
				c0.1,0.1,0.2,0.2,0.4,0.2c0.3,0,0.6-0.2,1-0.6s0.7-0.9,1.1-1.6h1.1c-0.6,1.3-1.2,2.3-1.9,2.9c-0.6,0.6-1.3,0.9-2,0.9
				c-0.5,0-1-0.2-1.3-0.5s-0.4-0.8-0.4-1.4c0-0.4,0.1-0.9,0.2-1.4c0.1-0.6,0.4-1.3,0.7-2.1c0.1-0.2,0.2-0.5,0.3-0.8
				c0.5-1.5,0.8-2.4,0.8-2.9c0-0.3-0.1-0.5-0.3-0.7s-0.4-0.2-0.7-0.2c-1,0-1.9,0.9-2.9,2.6S151,126.6,150.3,129.7z"/>
		</g>
	</g>
	<g class="st0">
		<path d="M166.2,125.3c0-0.4,0-0.6-0.1-0.7s-0.3-0.1-0.5-0.1v-0.4h0.2c0.3,0,0.6,0,0.9,0s0.6-0.1,0.9-0.1v0.9
			c0.2-0.3,0.4-0.5,0.7-0.7c0.2-0.2,0.5-0.2,0.8-0.2c0.6,0,1.1,0.2,1.4,0.7s0.5,1.1,0.5,1.9s-0.2,1.4-0.5,1.9
			c-0.4,0.5-0.8,0.7-1.4,0.7c-0.3,0-0.5-0.1-0.8-0.2c-0.2-0.1-0.5-0.3-0.6-0.5v0.9c0,0.4,0,0.6,0.1,0.7s0.3,0.1,0.6,0.1v0.4h-2.8
			v-0.4c0.3,0,0.5-0.1,0.5-0.1s0.1-0.3,0.1-0.7L166.2,125.3L166.2,125.3z M167.6,125.9v1.3c0,0.4,0.1,0.7,0.2,0.9
			c0.1,0.2,0.4,0.3,0.7,0.3s0.5-0.1,0.6-0.3c0.2-0.2,0.2-0.5,0.2-0.9v-1.3c0-0.4-0.1-0.7-0.2-1c-0.1-0.2-0.4-0.3-0.6-0.3
			c-0.3,0-0.5,0.1-0.7,0.3C167.7,125.2,167.6,125.5,167.6,125.9z"/>
		<path d="M173.3,126.4v0.2c0,0.7,0.1,1.2,0.3,1.5c0.2,0.3,0.5,0.5,0.8,0.5s0.6-0.1,0.8-0.3s0.4-0.5,0.4-0.8h0.5
			c-0.1,0.5-0.3,0.9-0.6,1.2s-0.8,0.4-1.3,0.4c-0.7,0-1.3-0.2-1.8-0.7c-0.4-0.5-0.7-1.1-0.7-1.9s0.2-1.4,0.6-1.9
			c0.4-0.5,1-0.7,1.6-0.7s1.1,0.2,1.5,0.6s0.5,1,0.5,1.8v0.1C175.9,126.4,173.3,126.4,173.3,126.4z M173.3,126h1.3v-0.5
			c0-0.4,0-0.7-0.1-0.8c-0.1-0.2-0.3-0.3-0.5-0.3s-0.4,0.1-0.5,0.3c-0.1,0.2-0.2,0.5-0.2,0.8V126z"/>
		<path d="M176.7,128.5c0.3,0,0.5-0.1,0.5-0.1c0.1-0.1,0.1-0.3,0.1-0.7v-2.4c0-0.4,0-0.6-0.1-0.7s-0.3-0.1-0.5-0.1v-0.4h0.2
			c0.3,0,0.6,0,0.9,0c0.3,0,0.6-0.1,0.9-0.1v1.2c0.2-0.4,0.3-0.6,0.6-0.8c0.2-0.2,0.4-0.3,0.7-0.3s0.5,0.1,0.6,0.3
			c0.2,0.2,0.3,0.4,0.3,0.7c0,0.2-0.1,0.4-0.2,0.6c-0.1,0.1-0.3,0.2-0.5,0.2s-0.3,0-0.4-0.1s-0.2-0.2-0.2-0.4c0,0,0,0,0-0.1
			s0-0.1,0-0.1c0-0.1,0-0.1,0-0.1h-0.1c-0.2,0-0.3,0.2-0.4,0.5c-0.1,0.3-0.1,0.8-0.1,1.5v0.9c0,0.4,0,0.6,0.1,0.7s0.3,0.1,0.6,0.1
			v0.4h-2.9v-0.7H176.7z"/>
		<path d="M181.9,128.8c-0.3-0.1-0.5-0.3-0.6-0.4c-0.1-0.2-0.2-0.4-0.2-0.6c0-0.2,0.1-0.4,0.3-0.6s0.5-0.3,0.8-0.5
			c-0.3-0.2-0.5-0.4-0.6-0.6s-0.2-0.5-0.2-0.8c0-0.4,0.2-0.8,0.5-1.1c0.3-0.3,0.8-0.4,1.3-0.4c0.3,0,0.6,0,0.9,0.1s0.5,0.2,0.6,0.4
			c0.2-0.2,0.3-0.3,0.5-0.4s0.3-0.1,0.4-0.1c0.2,0,0.3,0.1,0.5,0.2s0.2,0.3,0.2,0.5c0,0.1,0,0.3-0.1,0.3c-0.1,0.1-0.2,0.1-0.3,0.1
			s-0.2,0-0.2-0.1s-0.1-0.1-0.1-0.2v-0.1c0-0.1-0.1-0.2-0.2-0.2c-0.1,0-0.1,0-0.2,0.1s-0.1,0.1-0.2,0.2c0.1,0.1,0.1,0.2,0.1,0.3
			c0,0.1,0,0.2,0,0.3c0,0.5-0.2,0.8-0.5,1.1s-0.8,0.4-1.5,0.4c-0.1,0-0.2,0-0.3,0s-0.2,0-0.2,0c-0.1,0-0.2,0.1-0.3,0.2
			s-0.1,0.2-0.1,0.2c0,0.2,0.4,0.3,1.3,0.4c0.1,0,0.1,0,0.2,0c0,0,0.1,0,0.2,0c0.5,0,0.9,0.1,1.1,0.2c0.2,0.1,0.4,0.3,0.5,0.5
			s0.2,0.4,0.2,0.7c0,0.5-0.2,0.9-0.6,1.2c-0.4,0.3-1,0.4-1.8,0.4c-0.7,0-1.2-0.1-1.5-0.3s-0.6-0.4-0.6-0.7c0-0.2,0.1-0.3,0.2-0.4
			C181.3,129.1,181.5,129,181.9,128.8z M182.3,129c-0.1,0.1-0.3,0.2-0.3,0.3c-0.1,0.1-0.1,0.2-0.1,0.3c0,0.2,0.1,0.3,0.3,0.4
			c0.2,0.1,0.5,0.2,1,0.2c0.4,0,0.8-0.1,1-0.2s0.3-0.3,0.3-0.4c0-0.2-0.1-0.4-0.4-0.5s-0.7-0.1-1.3-0.1c-0.2,0-0.3,0-0.3,0
			C182.4,129,182.3,129,182.3,129z M183.2,126.5c0.2,0,0.3-0.1,0.4-0.3c0.1-0.2,0.1-0.4,0.1-0.8c0-0.3,0-0.6-0.1-0.8
			c-0.1-0.2-0.2-0.3-0.4-0.3s-0.3,0.1-0.4,0.3c-0.1,0.2-0.1,0.4-0.1,0.8c0,0.3,0,0.6,0.1,0.8C182.9,126.4,183,126.5,183.2,126.5z"/>
		<path d="M188,126.4v0.2c0,0.7,0.1,1.2,0.3,1.5c0.2,0.3,0.5,0.5,0.8,0.5s0.6-0.1,0.8-0.3s0.4-0.5,0.4-0.8h0.5
			c-0.1,0.5-0.3,0.9-0.6,1.2s-0.8,0.4-1.3,0.4c-0.7,0-1.3-0.2-1.8-0.7s-0.7-1.1-0.7-1.9s0.2-1.4,0.6-1.9c0.4-0.5,1-0.7,1.6-0.7
			s1.1,0.2,1.5,0.6s0.5,1,0.5,1.8v0.1C190.6,126.4,188,126.4,188,126.4z M188,126h1.3v-0.5c0-0.4,0-0.7-0.1-0.8
			c-0.1-0.2-0.3-0.3-0.5-0.3s-0.4,0.1-0.5,0.3s-0.2,0.5-0.2,0.8V126z"/>
		<path d="M191.3,128.5c0.3,0,0.5-0.1,0.5-0.1c0.1-0.1,0.1-0.3,0.1-0.7v-2.4c0-0.4,0-0.6-0.1-0.7s-0.3-0.1-0.5-0.1v-0.4h0.2
			c0.3,0,0.6,0,0.9,0c0.3,0,0.6-0.1,0.9-0.1v1.2c0.2-0.4,0.3-0.6,0.6-0.8c0.2-0.2,0.4-0.3,0.7-0.3s0.5,0.1,0.6,0.3
			c0.2,0.2,0.3,0.4,0.3,0.7c0,0.2-0.1,0.4-0.2,0.6c-0.1,0.1-0.3,0.2-0.5,0.2s-0.3,0-0.4-0.1s-0.2-0.2-0.2-0.4c0,0,0,0,0-0.1
			s0-0.1,0-0.1c0-0.1,0-0.1,0-0.1h-0.1c-0.2,0-0.3,0.2-0.4,0.5c-0.1,0.3-0.1,0.8-0.1,1.5v0.9c0,0.4,0,0.6,0.1,0.7s0.3,0.1,0.6,0.1
			v0.4h-2.9v-0.7H191.3z"/>
		<path d="M198.5,128.3c-0.2,0.3-0.5,0.5-0.8,0.6s-0.5,0.2-0.8,0.2c-0.4,0-0.7-0.1-0.9-0.3s-0.3-0.5-0.3-0.8c0-0.4,0.2-0.8,0.7-1.2
			s1.2-0.7,2.2-1v-0.1c0-0.1,0-0.1,0-0.2c0-0.4-0.1-0.6-0.2-0.8s-0.3-0.2-0.7-0.2c-0.2,0-0.3,0-0.5,0.1c-0.1,0.1-0.2,0.1-0.2,0.2
			c0,0,0,0,0,0.1c0.2,0.2,0.2,0.3,0.2,0.5s-0.1,0.3-0.2,0.4c-0.1,0.1-0.3,0.2-0.4,0.2c-0.2,0-0.4-0.1-0.5-0.2s-0.2-0.3-0.2-0.5
			c0-0.3,0.2-0.6,0.6-0.9s0.8-0.3,1.4-0.3c0.4,0,0.7,0.1,1,0.2s0.5,0.2,0.7,0.4c0.1,0.1,0.2,0.3,0.2,0.4c0,0.2,0.1,0.4,0.1,0.8v0.1
			v2.1c0,0.2,0,0.3,0,0.3l0.1,0.1c0.1,0,0.1,0,0.2-0.1c0-0.1,0.1-0.1,0.1-0.2h0.3c0,0.4-0.1,0.6-0.3,0.8s-0.4,0.3-0.8,0.3
			c-0.3,0-0.5-0.1-0.7-0.2C198.7,128.7,198.6,128.5,198.5,128.3z M198.5,126.3c-0.5,0.2-0.9,0.4-1.1,0.6c-0.2,0.2-0.3,0.4-0.3,0.7
			c0,0.2,0.1,0.4,0.2,0.5c0.1,0.1,0.3,0.2,0.4,0.2c0.3,0,0.5-0.1,0.7-0.4c0.1-0.3,0.2-0.7,0.2-1.2c0-0.1,0-0.2,0-0.2
			C198.5,126.4,198.5,126.3,198.5,126.3z"/>
		<path d="M204.2,128.9v-0.4c0.2,0,0.3,0,0.3-0.1l0.1-0.1v-0.1c0-0.1-0.1-0.1-0.1-0.2l-0.8-1.3l-0.5,0.5v0.6c0,0.4,0,0.6,0.1,0.7
			s0.2,0.1,0.4,0.1v0.4H201v-0.4c0.3,0,0.5-0.1,0.5-0.1c0.1-0.1,0.1-0.3,0.1-0.7v-4.1c0-0.3,0-0.6-0.1-0.6c-0.1-0.1-0.3-0.1-0.5-0.1
			v-0.4h0.3c0.3,0,0.6,0,0.9,0c0.3,0,0.6-0.1,0.9-0.1v4.3l0.9-1c0.2-0.2,0.3-0.4,0.4-0.5s0.1-0.2,0.1-0.2c0-0.1-0.1-0.2-0.2-0.2
			s-0.2-0.1-0.4-0.1v-0.4h2.4v0.4h-0.1c-0.2,0-0.4,0-0.5,0.1c-0.2,0.1-0.3,0.2-0.5,0.4l-0.6,0.7l1.2,2.1c0.2,0.3,0.3,0.5,0.5,0.6
			c0.1,0.1,0.3,0.1,0.4,0.2v0.4h-2.5V128.9z"/>
		<path d="M209.6,128.3c-0.2,0.3-0.5,0.5-0.8,0.6s-0.5,0.2-0.8,0.2c-0.4,0-0.7-0.1-0.9-0.3s-0.3-0.5-0.3-0.8c0-0.4,0.2-0.8,0.7-1.2
			s1.2-0.7,2.2-1v-0.1c0-0.1,0-0.1,0-0.2c0-0.4-0.1-0.6-0.2-0.8s-0.3-0.2-0.7-0.2c-0.2,0-0.3,0-0.5,0.1c-0.1,0.1-0.2,0.1-0.2,0.2
			c0,0,0,0,0,0.1c0.2,0.2,0.2,0.3,0.2,0.5s-0.1,0.3-0.2,0.4c-0.1,0.1-0.3,0.2-0.4,0.2c-0.2,0-0.4-0.1-0.5-0.2s-0.2-0.3-0.2-0.5
			c0-0.3,0.2-0.6,0.6-0.9s0.8-0.3,1.4-0.3c0.4,0,0.7,0.1,1,0.2s0.5,0.2,0.7,0.4c0.1,0.1,0.2,0.3,0.2,0.4c0,0.2,0.1,0.4,0.1,0.8v0.1
			v2.1c0,0.2,0,0.3,0,0.3l0.1,0.1c0.1,0,0.1,0,0.2-0.1c0-0.1,0.1-0.1,0.1-0.2h0.3c0,0.4-0.1,0.6-0.3,0.8s-0.4,0.3-0.8,0.3
			c-0.3,0-0.5-0.1-0.7-0.2C209.8,128.7,209.7,128.5,209.6,128.3z M209.6,126.3c-0.5,0.2-0.9,0.4-1.1,0.6c-0.2,0.2-0.3,0.4-0.3,0.7
			c0,0.2,0.1,0.4,0.2,0.5c0.1,0.1,0.3,0.2,0.4,0.2c0.3,0,0.5-0.1,0.7-0.4c0.1-0.3,0.2-0.7,0.2-1.2c0-0.1,0-0.2,0-0.2
			C209.6,126.4,209.6,126.3,209.6,126.3z"/>
		<path d="M217.1,127.7c0,0.4,0,0.6,0.1,0.7c0.1,0.1,0.3,0.1,0.5,0.1v0.4h-2.6v-0.4c0.2,0,0.3-0.1,0.4-0.1c0.1-0.1,0.1-0.3,0.1-0.7
			v-2.1c0-0.3,0-0.6-0.1-0.7c-0.1-0.2-0.2-0.2-0.4-0.2c-0.3,0-0.5,0.2-0.7,0.5c-0.1,0.3-0.2,0.9-0.2,1.6v0.9c0,0.4,0,0.6,0.1,0.7
			s0.2,0.1,0.4,0.1v0.4h-2.6v-0.4c0.3,0,0.5-0.1,0.5-0.1c0.1-0.1,0.1-0.3,0.1-0.7v-2.4c0-0.4,0-0.6-0.1-0.7s-0.3-0.1-0.5-0.2V124
			h0.2c0.3,0,0.6,0,0.9,0c0.3,0,0.6-0.1,0.9-0.1v1.1c0.1-0.3,0.4-0.6,0.6-0.7c0.3-0.2,0.6-0.3,0.9-0.3c0.5,0,0.9,0.2,1.1,0.5
			c0.2,0.3,0.3,0.8,0.3,1.5v1.7H217.1z"/>
	</g>
	<g>
		<path d="M190.6,76.5c-0.1,4.4-0.2,8.7-0.3,13c0.7,0,1.3,0,1.9,0c0-0.3,0-0.5,0-0.8c0-2.6,0-5.1,0.1-7.7c0.3-5.6,3.1-9.5,8.1-11.9
			c2.1-1,4.3-1.7,6.6-1.8c0.2,0,0.4-0.1,0.7-0.1c-0.8-1.7-1.6-3.4-2.4-5c-0.9-1.8-1.7-3.5-2.5-5.3c-0.2-0.4-0.5-0.6-0.9-0.6
			c-2.7,0-5.3-0.6-7.6-2c-2-1.3-3.4-3-3.8-5.4c0-0.2-0.1-0.4-0.1-0.8c0.3,0,0.6,0,0.9,0c5.7,0.1,11.4,0.2,17,0.3
			c0.8,0,1.6,0.1,2.4,0.1c0.7,0,1.3,0.2,1.9,0.6c1.6,1.2,2.8,2.7,3.7,4.4c1.9,4.1,3.8,8.3,5.6,12.4c0.8,1.8,0.7,3.6-0.3,5.4
			c-1.9,3.5-4.3,6.6-6.7,9.8c-2.6,3.4-5.2,6.7-7.8,10.1c-0.2,0.3-0.3,0.7-0.4,1.1c-0.1,8.6-0.3,17.1-0.4,25.7c0,0.1,0,0.3,0,0.4
			c-9.9,0-19.8,0-29.8,0c0-0.2,0-0.5,0-0.7c-0.1-5.9-0.2-11.7-0.3-17.6c0-0.6-0.1-1.3-0.4-1.8c-1.8-3.8-3.5-7.7-5.4-11.5
			c-0.3-0.6-0.2-0.9,0.3-1.3c2.3-1.4,4.4-2.9,6.8-4.2c1.1-0.6,2.5-0.8,3.8-1c2.2-0.4,3.6-1.4,4.3-3.6c0.1-0.2,0.3-0.4,0.5-0.4
			c1.5,0,3,0,4.5,0C190.5,76.4,190.6,76.5,190.6,76.5z"/>
		<path d="M183.2,74.8c-0.2-0.5-0.4-1.1-0.6-1.6c-1.4-3.2-2.8-6.3-4.3-9.5c-0.4-0.9-0.9-1.8-1.4-2.6c-0.8-1.3-1.9-2.3-3.5-2.5
			c-2.3-0.3-3.7-0.2-4.6,2.7c-0.2,0.7-0.4,1.5-0.5,2.3c-0.1,2.2-0.2,4.4-0.2,6.6c0,0.3,0,0.6,0,0.9c0,0.2,0,0.3-0.1,0.5
			c0,4,0.6,8.1,1.6,12c0.3-0.2,0.5-0.3,0.8-0.5c0.7-0.4,1.4-0.9,2.1-1.3c1-0.6,2-1.3,3-2c0.5-0.3,0.6-0.8,0.3-1.3s-0.5-1-0.8-1.6
			c-0.7-1.4-1.4-2.7-2-4.1c-0.2-0.5,0.8-2.1,1.4-2.2c0.1,0.3,0.2,0.5,0.2,0.7c0.7,1.9,1.6,3.8,2.8,5.4c0.8,1.1,1.7,1.7,3.1,1.6
			C182.5,78.1,183.7,76.5,183.2,74.8z"/>
		<path d="M188.3,74c-0.7,0-1.4,0-2.1,0c-0.5,0-0.8-0.2-1-0.6c-2.8-6.1-5.7-12.3-8.5-18.4c-0.6-1.3-1.2-2.6-1.6-3.9
			c-0.2-0.8-0.3-1.8-0.1-2.7c0.3-1.6,1.8-2.6,3.6-3c2.2-0.4,3.8,0.6,4.9,2.3c0.8,1.2,1.6,2.5,2.1,3.8c1.8,4.6,4.1,9.1,6.2,13.6
			c0.5,1,0.9,2,1.3,3c0.6,1.3,0.3,2.5-0.4,3.6c-0.5,0.7-1,1.4-1.6,2.1c-0.1,0.1-0.4,0.2-0.6,0.2C189.8,74.1,189.1,74.1,188.3,74
			C188.3,74.1,188.3,74,188.3,74z"/>
		<path d="M195.5,45.6c-2.1,0.1-3.9,0.2-5.7,0.3c-0.8,0-1.2,0.4-1.2,1.3c-0.1,4.4,1.9,7.6,5.8,9.7c1.9,1,4,1.5,6.1,1.5
			c0.5,0,0.8,0.2,1,0.7c0.9,2,1.9,3.9,2.9,6c-2.8,1.4-5.6,2.7-8.4,4.1c-0.3-0.7-0.6-1.3-0.9-1.9c-3-6.6-6-13.3-8.9-20
			c-0.3-0.7-0.4-1.5-0.5-2.3c-0.4-2.6,2.5-5.2,5.6-4.3c1.2,0.4,2.2,0.9,2.9,2C194.5,43.6,194.9,44.6,195.5,45.6z"/>
		<path d="M208.1,46c-3.2,0-6.3,0-9.4,0c-0.3,0-0.7-0.3-0.9-0.5c-1.4-1.9-2.1-4-1.9-6.4c0.2-1.6,2.1-3.3,3.8-3.4
			c2.3-0.2,3.8,0.5,4.8,2.6c1.1,2.3,2.2,4.6,3.3,6.9C207.9,45.4,208,45.6,208.1,46z"/>
	</g>
</g>
<text transform="matrix(1 0 0 1 214.9141 190.0321)" style="font-family:'News701BT-BoldA'; font-size:7px;">News701 BT</text>
</svg>
