<?xml version="1.0" encoding="utf-8"?>
<!-- Generator: Adobe Illustrator 21.0.0, SVG Export Plug-In . SVG Version: 6.00 Build 0)  -->
<svg version="1.1" id="Layer_1" xmlns="http://www.w3.org/2000/svg" xmlns:xlink="http://www.w3.org/1999/xlink" x="0px" y="0px"
	 viewBox="0 0 259 180" style="enable-background:new 0 0 259 180;" xml:space="preserve">
<style type="text/css">
	.st0{fill:none;}
	.st1{font-family:'ArialMT';}
	.st2{font-size:12px;}
	.st3{enable-background:new    ;}
</style>
<path id="SVGID_x5F_1_x5F_" class="st0" d="M85.5,77.2c0,0,3.8-8.1,21.2-16.6c16.9-8.2,24.9-1.3,24.9-1.3s2.2,6.9-10.7,14.3
	c-1,0.6-11.4,4.5-16,2.1"/>
<text transform="matrix(1 0 0 1 0 -1.464844e-05)" class="st1 st2"> </text>
<g>
	<g>
		<path d="M126.3,28.8c2.5,0.5,5.1,0.8,7.5,1.6c4.1,1.2,7.9,3.3,10.1,7.2c2.9,4.8,2.5,9.9,0.5,14.7c-3.8,9.7-10.9,15.9-20.6,19.3
			c-6.6,2.3-13.5,3.4-20.5,2.4c-3.5-0.4-6.6-2-8.9-4.6c-0.7-0.8-1.1-2-1.6-3c-0.1-0.2,0-0.7,0.2-1c0.2-0.1,0.7-0.1,1,0.1
			c4.8,4.9,10.7,4.8,16.8,3.8c8.8-1.5,16.4-5.3,22.5-12c2.4-2.7,4.2-5.6,5.1-9.1c1.1-5.3-1-8.7-6.2-10.3c-5.3-1.6-10.6-1.5-16-0.5
			c-13.5,2.7-25.4,8.9-35.6,17.8c-2.5,2.2-4.6,4.9-6.4,7.7c-3.7,6.3-2.4,12.7,3.5,18c3.1,2.9,6.5,5.3,9.8,8c1.6,1.4,3.3,2.9,4.9,4.2
			c0.3,0.3,1.2,0.4,1.5,0.2c3.9-2.1,7.9-4.2,11.9-6.5c0.4-0.2,0.7-0.6,1.1-1.1c2.2-2.7,4.7-4.8,7.7-6.3c4.8-2.2,8.2,0.1,7.6,5.5
			c0,0.5-0.1,1.1-0.1,1.9c0.4-0.1,0.7-0.3,1.1-0.3c2.3-0.5,3.7,0.8,3.2,3.1c-1,4.1-2.1,8.2-3.1,12.4c-0.2,1.2-0.2,2.4-0.3,3.6
			c0.2,0,0.3,0.1,0.5,0.1c0.5-0.8,1.1-1.8,1.5-2.8c3.6-8,7.1-15.9,10.7-23.9c0.4-0.8,0.5-1.9,0.7-2.9c0.2-1.3,1-2.1,2.3-2.2
			c1.5-0.1,3-0.3,4.5-0.2c1.6,0.1,2.2,1,1.5,2.5c-1.2,3.1-1.8,6.3-1,9.5c0.3,1.5,1,2.9,1.5,4.3c0.1,0,0.3,0,0.4,0
			c1.5-2.8,3.1-5.5,4.6-8.1c1.8-3.2,3.3-6.6,4-10.2c0.2-1.1,0.8-1.8,2-1.9c1.6-0.1,3.3-0.3,4.9-0.2c1.3,0.1,1.9,0.8,1.3,2.3
			c-1,2.8-1.9,5.7-1.1,8.7c0.6,2.4,1.6,4.8,2.3,7c3.4-0.8,6.3-1.9,9.3-2.2c6.3-0.7,12.3,0.1,17.1,4.6c3.5,3.2,5.4,7.2,4.1,12.1
			c-0.7,2.9-2.9,4.6-5.5,5.7c-0.4,0.2-1-0.1-1.5-0.1c0.2-0.4,0.4-0.8,0.7-1.1c5.4-3.5,4.3-8.7,1-12.3c-2.2-2.3-5.2-3.5-8.2-4.1
			c-4.6-0.8-9.1-1-13.7,0.5c-0.4,0.1-1,0.3-1.3,0.4c0.3,1.6,0.7,3.1,0.8,4.5c0.3,4.2-2.3,6.9-5.6,9c-1.5,1-3.4,1.8-5.2,2.3
			c-3.2,1-5.2-0.7-4.7-4c0.5-4.2,3.1-7.3,5.9-10.3c0.5-0.5,1.1-1,1.4-1.3c-1.2-3.4-2.4-6.8-3.5-10.2c-1.2,2.1-2.3,4.1-3.5,6.4
			c-0.3,0.5-0.5,1-0.8,1.4c-2.2,2.9-3.3,5.7-2.1,9.7c1.5,4.9-1.3,9.1-6.9,11.2c-2.2,0.8-4.8,1.2-7.2,1.5c-0.8,0.1-2.2-0.5-2.5-1.2
			c-0.3-0.6-0.1-2.1,0.4-2.9c2.3-3.1,4.6-6,7.1-8.8c1.6-1.8,1.6-3.3,0.5-5.5c-1.3-2.4-2-5.2-3-7.9c-0.7,1.8-1.4,3.5-2.2,5.2
			c-3.1,6.3-6.2,12.4-9.3,18.6c-0.6,1.3-1.8,2.4-2.9,3.4c-2.2,2-4.7,1.2-5.5-1.6c-0.3-1.1-0.5-2.3-0.5-3.5c-0.1-1.1,0.1-2.3,0.1-3.7
			c-1,2.1-1.8,3.9-2.8,5.8c-0.6,1.3-1.3,2.7-2.2,3.7c-2.2,3.1-6,3-8-0.1c-2.9-4.2-3.5-9.1-2.8-14.1c0.3-2,0.7-3.8,1.2-6.2
			c-2.4,1.4-4.7,2.8-6.9,3.9c0.4,2,1,3.8,1.2,5.7c1.3,10.6-4.3,20-14.3,23.8c-3.6,1.3-7.3,1.5-11.1,0.5c-2.4-0.6-3.6-2.5-4.3-4.7
			c-1.5-4.9-0.4-9.3,2.9-13.2c3.8-4.5,8.8-7.5,13.8-10.4c1.3-0.7,2.8-1.4,4.3-2.4c-1.5-1.1-2.9-2.1-4.1-3.1
			c-3.8-2.9-7.9-5.6-11.6-8.6c-4.6-2.8-8.6-7.2-10.1-13.3c0-1.2,0-2.5,0-3.7c0.1-0.1,0.2-0.2,0.2-0.3c0.8-4.7,3.3-8.8,6.5-12.4
			c10.9-12.5,25.2-19.5,40.8-24.2c2.8-0.7,5.6-1.1,8.4-1.6C120.9,28.8,123.7,28.8,126.3,28.8z M91.4,99.8c-4.8,2.8-9.2,5.6-12.9,9.4
			c-2,2-3.3,4.3-3.6,7.2c-0.4,3.4,1.4,4.9,4.7,4.1c3.2-0.7,5.8-2.4,8-4.8C91.6,111.3,93.2,106.1,91.4,99.8z M108,102.6
			c0.2,1.3,0.4,2.8,0.7,4c0.1,0.4,0.5,0.8,0.8,1.3c0.4-0.3,1-0.6,1.4-1.1s0.8-1.3,1.1-2c1.5-3.9,3.2-7.9,4.6-11.9
			c0.8-2.3,1.4-4.6,2-7c0.3-1.6-0.4-2.2-1.9-1.4c-1.2,0.6-2.4,1.5-3.3,2.5C110.2,91.7,108.2,96.9,108,102.6z M161,94.9
			c-2.8,1.9-5.5,7-4.7,8.8C160.3,102.5,162.5,98.3,161,94.9z M143.4,101c-2.2,2.5-4.1,4.8-6.4,7.4
			C140.4,107.4,143.3,104.1,143.4,101z"/>
	</g>
</g>
<g class="st3">
	<path d="M81,142.7c0.1,0.6,0.1,1.1,0,1.6c-0.1,0.5-0.3,0.9-0.5,1.3c-0.3,0.4-0.6,0.7-1.1,1c-0.5,0.3-1,0.5-1.7,0.6
		c-0.8,0.2-1.6,0.2-2.2,0c-0.6-0.2-1.2-0.5-1.6-1c-0.5-0.5-0.8-1-1.1-1.7c-0.3-0.6-0.5-1.3-0.7-2.1c-0.2-0.7-0.2-1.4-0.2-2.1
		c0-0.7,0.1-1.3,0.3-1.9s0.6-1.1,1.1-1.5c0.5-0.4,1.2-0.7,2.1-0.9c0.7-0.1,1.3-0.2,1.8-0.1c0.5,0.1,1,0.2,1.4,0.5
		c0.4,0.2,0.7,0.6,1,1s0.5,0.8,0.6,1.3l-1.4,0.3c-0.1-0.3-0.2-0.6-0.4-0.8c-0.2-0.2-0.4-0.4-0.7-0.6c-0.3-0.2-0.6-0.3-0.9-0.3
		c-0.3-0.1-0.7,0-1.1,0l-0.2,0c-0.6,0.1-1.1,0.3-1.4,0.7c-0.3,0.3-0.6,0.7-0.7,1.2c-0.1,0.5-0.2,0.9-0.2,1.5c0,0.5,0.1,1.1,0.2,1.7
		c0.1,0.5,0.3,1.1,0.4,1.6c0.2,0.5,0.4,1,0.7,1.3c0.3,0.4,0.7,0.6,1.1,0.8c0.4,0.2,1,0.2,1.6,0.1l0.2,0c0.5-0.1,0.8-0.2,1.1-0.5
		s0.5-0.5,0.7-0.7c0.2-0.3,0.3-0.6,0.3-0.9c0-0.3,0-0.6,0-0.9L81,142.7z"/>
	<path d="M83.7,142.4c0.2,0.7,0.6,1.2,1.2,1.5c0.6,0.3,1.3,0.3,2.1,0.2c0.3-0.1,0.6-0.2,0.8-0.3c0.3-0.1,0.5-0.3,0.8-0.5
		c0.2-0.2,0.4-0.5,0.5-0.7c0.1-0.3,0.1-0.6,0.1-0.9c-0.1-0.3-0.2-0.6-0.4-0.8c-0.2-0.2-0.4-0.4-0.6-0.5c-0.2-0.1-0.5-0.2-0.8-0.2
		c-0.3,0-0.6-0.1-0.9-0.1l-1.5,0c-0.9,0-1.7-0.2-2.2-0.6s-0.9-1-1.1-1.8c-0.1-0.5-0.1-0.9,0-1.3s0.3-0.8,0.6-1.1
		c0.3-0.3,0.6-0.6,1-0.8c0.4-0.2,0.9-0.4,1.4-0.5c0.7-0.1,1.3-0.2,1.8-0.1c0.5,0.1,1,0.2,1.4,0.4c0.4,0.2,0.7,0.5,0.9,0.9
		c0.2,0.4,0.4,0.8,0.5,1.2l-1.3,0.3c-0.2-0.7-0.5-1.1-1-1.4c-0.5-0.3-1.1-0.3-1.9-0.2c-0.7,0.2-1.3,0.4-1.7,0.8s-0.5,0.9-0.4,1.4
		c0.1,0.5,0.4,0.9,0.8,1.1c0.4,0.2,1,0.3,1.7,0.3l1.5,0c0.5,0,0.9,0,1.3,0.1c0.4,0.1,0.8,0.2,1.1,0.4c0.3,0.2,0.6,0.5,0.8,0.8
		c0.2,0.3,0.4,0.7,0.5,1.2c0.1,0.5,0.1,1,0,1.5c-0.1,0.4-0.3,0.8-0.6,1.2c-0.3,0.3-0.7,0.6-1.1,0.8s-0.9,0.4-1.5,0.5
		c-0.6,0.1-1.2,0.2-1.7,0.2s-1-0.1-1.4-0.3c-0.4-0.2-0.8-0.5-1.1-0.9c-0.3-0.4-0.5-0.9-0.7-1.5L83.7,142.4z"/>
	<path d="M93,140.5c0.2,0.7,0.6,1.2,1.2,1.5c0.6,0.3,1.3,0.3,2.1,0.2c0.3-0.1,0.6-0.2,0.8-0.3c0.3-0.1,0.5-0.3,0.8-0.5
		c0.2-0.2,0.4-0.5,0.5-0.7c0.1-0.3,0.1-0.6,0.1-0.9c-0.1-0.3-0.2-0.6-0.4-0.8s-0.4-0.4-0.6-0.5c-0.2-0.1-0.5-0.2-0.8-0.2
		c-0.3,0-0.6-0.1-0.9-0.1l-1.5,0c-0.9,0-1.7-0.2-2.2-0.6c-0.6-0.4-0.9-1-1.1-1.8c-0.1-0.5-0.1-0.9,0-1.3c0.1-0.4,0.3-0.8,0.6-1.1
		c0.3-0.3,0.6-0.6,1-0.8c0.4-0.2,0.9-0.4,1.4-0.5c0.7-0.1,1.3-0.2,1.8-0.1c0.5,0.1,1,0.2,1.4,0.4c0.4,0.2,0.7,0.5,0.9,0.9
		c0.2,0.4,0.4,0.8,0.5,1.2l-1.3,0.3c-0.2-0.7-0.5-1.1-1-1.4c-0.5-0.3-1.1-0.3-1.9-0.2c-0.7,0.2-1.3,0.4-1.7,0.8
		c-0.4,0.4-0.5,0.9-0.4,1.4c0.1,0.5,0.4,0.9,0.8,1.1c0.4,0.2,1,0.3,1.7,0.3l1.5,0c0.5,0,0.9,0,1.3,0.1c0.4,0.1,0.8,0.2,1.1,0.4
		c0.3,0.2,0.6,0.5,0.8,0.8c0.2,0.3,0.4,0.7,0.5,1.2c0.1,0.5,0.1,1,0,1.5c-0.1,0.4-0.3,0.8-0.6,1.2c-0.3,0.3-0.7,0.6-1.1,0.8
		c-0.4,0.2-0.9,0.4-1.5,0.5c-0.6,0.1-1.2,0.2-1.7,0.2c-0.5,0-1-0.1-1.4-0.3c-0.4-0.2-0.8-0.5-1.1-0.9c-0.3-0.4-0.5-0.9-0.7-1.5
		L93,140.5z"/>
	<path d="M107.3,136.3l0.9,4.5l-1.3,0.3l-2.3-11l3.7-0.8c0.6-0.1,1.1-0.2,1.6-0.1c0.5,0,1,0.1,1.4,0.3c0.4,0.2,0.7,0.5,1,0.8
		c0.3,0.4,0.5,0.8,0.6,1.4c0.1,0.6,0.1,1.1,0,1.6c-0.1,0.4-0.3,0.8-0.6,1.2c-0.3,0.3-0.6,0.6-1.1,0.8c-0.4,0.2-0.9,0.4-1.5,0.5
		L107.3,136.3z M107.1,135.1l2.8-0.6c0.8-0.2,1.3-0.4,1.6-0.8c0.3-0.4,0.3-0.9,0.2-1.7c-0.2-0.7-0.5-1.2-0.9-1.4
		c-0.5-0.2-1-0.3-1.7-0.2l-2.8,0.6L107.1,135.1z"/>
	<path d="M118.2,131.6c-0.7,0.2-1.3,0.5-1.6,0.9s-0.3,1.2-0.2,2.1l0.9,4.2l-1.2,0.3l-1.6-7.8l1.2-0.2l0.2,1.1
		c0.1-0.4,0.4-0.7,0.7-1.1c0.4-0.3,0.8-0.6,1.3-0.7c0.1,0,0.3-0.1,0.5-0.1c0.2,0,0.3,0,0.4,0l0.2,1.1c-0.1,0-0.3,0-0.4,0
		C118.4,131.6,118.3,131.6,118.2,131.6z"/>
	<path d="M127.8,134.1c0,1-0.3,1.8-0.8,2.4c-0.5,0.5-1.2,0.9-2.1,1.1c-0.7,0.1-1.2,0.1-1.7,0s-0.9-0.3-1.3-0.6
		c-0.4-0.3-0.7-0.7-0.9-1.1c-0.2-0.5-0.4-1-0.5-1.6c-0.1-0.7-0.2-1.3-0.1-1.8c0.1-0.5,0.2-1,0.5-1.4c0.3-0.4,0.6-0.7,1-1
		c0.4-0.3,0.9-0.4,1.5-0.6c0.5-0.1,1-0.1,1.5,0s0.9,0.3,1.3,0.5c0.4,0.3,0.7,0.6,1,1.1c0.3,0.5,0.5,1,0.6,1.7l0.1,0.3l-5.9,1.2
		c0.1,0.4,0.2,0.7,0.4,1c0.2,0.3,0.4,0.6,0.6,0.8c0.3,0.2,0.5,0.4,0.9,0.4c0.3,0.1,0.7,0.1,1.1,0c0.6-0.1,1-0.3,1.3-0.7
		c0.3-0.3,0.5-0.8,0.5-1.5L127.8,134.1z M121.5,133.3l4.6-0.9c-0.1-0.3-0.2-0.6-0.4-0.8s-0.4-0.5-0.6-0.6c-0.2-0.2-0.5-0.3-0.8-0.4
		s-0.6-0.1-0.9,0c-0.3,0.1-0.6,0.2-0.9,0.4c-0.3,0.2-0.5,0.4-0.6,0.6c-0.2,0.3-0.3,0.5-0.4,0.8C121.4,132.6,121.4,132.9,121.5,133.3
		z"/>
	<path d="M131.8,139.3l-1.2,0.2l-2.3-11l1.2-0.3l0.2,1c0.2-0.4,0.4-0.7,0.8-1c0.3-0.3,0.8-0.5,1.3-0.6c0.6-0.1,1.2-0.1,1.7,0
		c0.5,0.1,0.9,0.3,1.3,0.6c0.4,0.3,0.7,0.7,0.9,1.1c0.2,0.5,0.4,1,0.6,1.6c0.3,1.3,0.2,2.4-0.3,3.2c-0.5,0.8-1.3,1.4-2.5,1.6
		c-0.3,0.1-0.5,0.1-0.8,0.1c-0.3,0-0.5-0.1-0.7-0.1c-0.2-0.1-0.4-0.2-0.6-0.3c-0.2-0.1-0.4-0.2-0.5-0.4L131.8,139.3z M132,128.7
		c-0.4,0.1-0.7,0.2-1,0.4c-0.3,0.2-0.5,0.5-0.6,0.8c-0.1,0.3-0.2,0.6-0.2,1c0,0.4,0,0.7,0.1,1.1l0.1,0.4c0.1,0.3,0.2,0.7,0.3,1
		c0.2,0.3,0.4,0.6,0.6,0.8s0.5,0.4,0.8,0.5c0.3,0.1,0.7,0.1,1.1,0c0.4-0.1,0.8-0.2,1-0.5c0.3-0.2,0.5-0.5,0.6-0.8
		c0.1-0.3,0.2-0.7,0.2-1s0-0.8-0.1-1.2c-0.1-0.4-0.2-0.8-0.4-1.1c-0.2-0.3-0.4-0.6-0.6-0.9s-0.5-0.4-0.9-0.5
		C132.8,128.6,132.4,128.6,132,128.7z"/>
	<path d="M140.7,127c-0.7,0.2-1.3,0.5-1.6,0.9s-0.3,1.2-0.2,2.1l0.9,4.2l-1.2,0.3l-1.6-7.8l1.2-0.2l0.2,1.1c0.1-0.4,0.4-0.7,0.7-1.1
		c0.4-0.3,0.8-0.6,1.3-0.7c0.1,0,0.3-0.1,0.5-0.1c0.2,0,0.3,0,0.4,0l0.2,1.1c-0.1,0-0.3,0-0.4,0C141,126.9,140.8,126.9,140.7,127z"
		/>
	<path d="M145.7,124.8c0.6-0.1,1.2-0.1,1.7,0c0.5,0.1,0.9,0.3,1.3,0.6s0.7,0.7,0.9,1.1c0.2,0.5,0.4,1,0.6,1.6
		c0.3,1.3,0.2,2.4-0.3,3.2c-0.5,0.8-1.3,1.4-2.5,1.6c-1.2,0.3-2.2,0.1-3-0.5c-0.8-0.6-1.3-1.5-1.5-2.8c-0.1-0.6-0.2-1.2-0.1-1.7
		c0-0.5,0.2-1,0.4-1.4c0.2-0.4,0.6-0.8,1-1.1C144.6,125.1,145.1,124.9,145.7,124.8z M145.9,125.8c-0.4,0.1-0.8,0.2-1,0.5
		c-0.3,0.2-0.5,0.5-0.6,0.8c-0.1,0.3-0.2,0.7-0.2,1.1c0,0.4,0,0.8,0.1,1.2c0.1,0.4,0.2,0.8,0.4,1.1c0.2,0.3,0.4,0.6,0.6,0.9
		c0.3,0.2,0.5,0.4,0.9,0.5c0.3,0.1,0.7,0.1,1.1,0c0.4-0.1,0.8-0.2,1-0.5s0.5-0.5,0.6-0.8c0.1-0.3,0.2-0.7,0.2-1s0-0.8-0.1-1.2
		c-0.1-0.4-0.2-0.8-0.4-1.1c-0.2-0.3-0.4-0.6-0.6-0.9c-0.3-0.2-0.5-0.4-0.9-0.5C146.7,125.7,146.3,125.7,145.9,125.8z"/>
	<path d="M156.8,125.3c-0.3-0.5-0.6-0.9-1-1.1c-0.4-0.2-0.9-0.3-1.4-0.1c-0.4,0.1-0.8,0.2-1,0.5c-0.3,0.2-0.5,0.5-0.6,0.8
		c-0.1,0.3-0.2,0.7-0.2,1.1s0,0.8,0.1,1.2c0.1,0.4,0.2,0.8,0.4,1.1c0.2,0.3,0.4,0.6,0.6,0.9s0.5,0.4,0.9,0.5s0.7,0.1,1.1,0
		c0.7-0.1,1.1-0.4,1.4-0.8c0.3-0.4,0.4-0.9,0.4-1.5l1.3-0.3c0.1,1-0.2,1.8-0.7,2.5c-0.5,0.6-1.3,1-2.2,1.3c-1.2,0.3-2.2,0.1-3-0.5
		c-0.8-0.6-1.3-1.5-1.5-2.8c-0.1-0.6-0.2-1.2-0.1-1.7c0-0.5,0.2-1,0.4-1.4c0.2-0.4,0.6-0.8,1-1.1s1-0.5,1.6-0.6
		c0.5-0.1,0.9-0.1,1.3-0.1c0.4,0,0.8,0.2,1.1,0.3c0.3,0.2,0.7,0.4,0.9,0.7c0.3,0.3,0.5,0.6,0.6,1L156.8,125.3z"/>
	<path d="M167.1,125.9c0,1-0.3,1.8-0.8,2.4s-1.2,0.9-2.1,1.1c-0.7,0.1-1.2,0.1-1.7,0s-0.9-0.3-1.3-0.6c-0.4-0.3-0.7-0.7-0.9-1.1
		c-0.2-0.5-0.4-1-0.5-1.6c-0.1-0.7-0.2-1.3-0.1-1.8s0.2-1,0.5-1.4c0.3-0.4,0.6-0.7,1-1c0.4-0.3,0.9-0.4,1.5-0.6c0.5-0.1,1-0.1,1.5,0
		c0.5,0.1,0.9,0.3,1.3,0.5c0.4,0.3,0.7,0.6,1,1.1c0.3,0.5,0.5,1,0.6,1.7l0.1,0.3l-5.9,1.2c0.1,0.4,0.2,0.7,0.4,1
		c0.2,0.3,0.4,0.6,0.6,0.8c0.3,0.2,0.5,0.4,0.9,0.4s0.7,0.1,1.1,0c0.6-0.1,1-0.3,1.3-0.7c0.3-0.3,0.5-0.8,0.5-1.5L167.1,125.9z
		 M160.8,125.1l4.6-0.9c-0.1-0.3-0.2-0.6-0.4-0.8c-0.2-0.3-0.4-0.5-0.6-0.6c-0.2-0.2-0.5-0.3-0.8-0.4c-0.3-0.1-0.6-0.1-0.9,0
		c-0.3,0.1-0.6,0.2-0.9,0.4c-0.3,0.2-0.5,0.4-0.6,0.6s-0.3,0.5-0.4,0.8S160.8,124.8,160.8,125.1z"/>
	<path d="M172.3,121.7c-0.1-0.4-0.4-0.7-0.7-0.8c-0.3-0.1-0.8-0.2-1.3-0.1c-0.2,0-0.4,0.1-0.6,0.2c-0.2,0.1-0.3,0.2-0.5,0.3
		s-0.2,0.3-0.3,0.4c-0.1,0.2-0.1,0.3,0,0.5c0.1,0.4,0.3,0.6,0.5,0.7c0.3,0.1,0.6,0.2,1,0.2c0.4,0,0.8,0,1.2,0c0.4,0,0.8,0,1.2,0.1
		c0.4,0.1,0.7,0.2,1,0.5s0.5,0.6,0.6,1.2c0.1,0.4,0.1,0.8-0.1,1.1c-0.1,0.3-0.3,0.6-0.6,0.9c-0.3,0.2-0.6,0.4-0.9,0.6
		c-0.3,0.2-0.7,0.3-1,0.3c-0.5,0.1-0.9,0.1-1.3,0.1c-0.4,0-0.8-0.1-1.1-0.3c-0.3-0.1-0.6-0.3-0.8-0.6c-0.2-0.3-0.4-0.6-0.4-0.9
		l1.3-0.3c0.3,0.9,1,1.2,2.1,0.9c0.2,0,0.4-0.1,0.6-0.2c0.2-0.1,0.4-0.2,0.5-0.3c0.2-0.1,0.3-0.3,0.3-0.5c0.1-0.2,0.1-0.4,0-0.7
		c-0.1-0.3-0.2-0.6-0.5-0.7c-0.3-0.1-0.6-0.2-1-0.2c-0.4,0-0.8,0-1.2,0s-0.8,0-1.2-0.1c-0.4-0.1-0.7-0.2-1-0.5
		c-0.3-0.2-0.5-0.6-0.6-1.2c-0.1-0.4-0.1-0.8,0-1.1c0.1-0.3,0.3-0.6,0.5-0.8c0.2-0.2,0.5-0.4,0.8-0.6c0.3-0.2,0.7-0.3,1.1-0.4
		c0.4-0.1,0.8-0.1,1.2-0.1c0.4,0,0.7,0.1,1,0.3c0.3,0.1,0.5,0.3,0.7,0.6s0.3,0.6,0.4,0.9L172.3,121.7z"/>
	<path d="M179.5,120.2c-0.1-0.4-0.4-0.7-0.7-0.8c-0.3-0.1-0.8-0.2-1.3-0.1c-0.2,0-0.4,0.1-0.6,0.2s-0.3,0.2-0.5,0.3
		c-0.1,0.1-0.2,0.3-0.3,0.4c-0.1,0.2-0.1,0.3,0,0.5c0.1,0.4,0.3,0.6,0.5,0.7c0.3,0.1,0.6,0.2,1,0.2c0.4,0,0.8,0,1.2,0
		c0.4,0,0.8,0,1.2,0.1c0.4,0.1,0.7,0.2,1,0.5s0.5,0.6,0.6,1.2c0.1,0.4,0.1,0.8-0.1,1.1c-0.1,0.3-0.3,0.6-0.6,0.9
		c-0.3,0.2-0.6,0.4-0.9,0.6c-0.3,0.2-0.7,0.3-1,0.3c-0.5,0.1-0.9,0.1-1.3,0.1c-0.4,0-0.8-0.1-1.1-0.3c-0.3-0.1-0.6-0.3-0.8-0.6
		c-0.2-0.3-0.4-0.6-0.4-0.9l1.3-0.3c0.3,0.9,1,1.2,2.1,0.9c0.2,0,0.4-0.1,0.6-0.2c0.2-0.1,0.4-0.2,0.5-0.3c0.2-0.1,0.3-0.3,0.3-0.5
		c0.1-0.2,0.1-0.4,0-0.7c-0.1-0.3-0.2-0.6-0.5-0.7c-0.3-0.1-0.6-0.2-1-0.2c-0.4,0-0.8,0-1.2,0c-0.4,0-0.8,0-1.2-0.1
		c-0.4-0.1-0.7-0.2-1-0.5c-0.3-0.2-0.5-0.6-0.6-1.2c-0.1-0.4-0.1-0.8,0-1.1c0.1-0.3,0.3-0.6,0.5-0.8c0.2-0.2,0.5-0.4,0.8-0.6
		c0.3-0.2,0.7-0.3,1.1-0.4c0.4-0.1,0.8-0.1,1.2-0.1s0.7,0.1,1,0.3s0.5,0.3,0.7,0.6c0.2,0.3,0.3,0.6,0.4,0.9L179.5,120.2z"/>
	<path d="M185.2,116.7c0.6-0.1,1.2-0.1,1.7,0c0.5,0.1,0.9,0.3,1.3,0.6c0.4,0.3,0.7,0.7,0.9,1.1c0.2,0.5,0.4,1,0.6,1.6
		c0.3,1.3,0.2,2.4-0.3,3.2c-0.5,0.8-1.3,1.4-2.5,1.6s-2.2,0.1-3-0.5c-0.8-0.6-1.3-1.5-1.5-2.8c-0.1-0.6-0.2-1.2-0.1-1.7
		c0-0.5,0.2-1,0.4-1.4c0.2-0.4,0.6-0.8,1-1.1S184.6,116.8,185.2,116.7z M185.4,117.7c-0.4,0.1-0.8,0.2-1,0.5
		c-0.3,0.2-0.5,0.5-0.6,0.8s-0.2,0.7-0.2,1.1s0,0.8,0.1,1.2c0.1,0.4,0.2,0.8,0.4,1.1c0.2,0.3,0.4,0.6,0.6,0.9
		c0.3,0.2,0.5,0.4,0.9,0.5s0.7,0.1,1.1,0c0.4-0.1,0.8-0.2,1-0.5c0.3-0.2,0.5-0.5,0.6-0.8c0.1-0.3,0.2-0.7,0.2-1s0-0.8-0.1-1.2
		c-0.1-0.4-0.2-0.8-0.4-1.1c-0.2-0.3-0.4-0.6-0.6-0.9c-0.3-0.2-0.5-0.4-0.9-0.5C186.2,117.6,185.8,117.6,185.4,117.7z"/>
	<path d="M194.1,116c-0.7,0.2-1.3,0.5-1.6,0.9c-0.3,0.5-0.3,1.2-0.2,2.1l0.9,4.2l-1.2,0.3l-1.6-7.8l1.2-0.2l0.2,1.1
		c0.1-0.4,0.4-0.7,0.7-1.1c0.4-0.3,0.8-0.6,1.3-0.7c0.1,0,0.3-0.1,0.5-0.1c0.2,0,0.3,0,0.4,0l0.2,1.1c-0.1,0-0.3,0-0.4,0
		C194.4,115.9,194.2,115.9,194.1,116z"/>
</g>
</svg>
