<?xml version="1.0" encoding="utf-8"?>
<!-- Generator: Adobe Illustrator 21.0.0, SVG Export Plug-In . SVG Version: 6.00 Build 0)  -->
<svg version="1.1" id="Layer_1" xmlns="http://www.w3.org/2000/svg" xmlns:xlink="http://www.w3.org/1999/xlink" x="0px" y="0px"
	 viewBox="0 0 286 180" style="enable-background:new 0 0 286 180;" xml:space="preserve">
<style type="text/css">
	.st0{fill:#FFFFFF;}
</style>
<g id="Layer_1_1_">
</g>
<g id="Layer_2">
	<g>
		<path class="st0" d="M120.8,25.3c35.4,0,70.8,0,106.3,0c0,43.1,0,86.2,0,129.5c-56.1,0-112.1,0-168.2,0c0-28.4,0-56.8,0-85.1
			c2.3,1.3,4.7,2.5,7,3.9c0.6,0.4,1,1.2,1,1.9c0.1,2.4,0.8,5.4-0.2,7.2c-1.1,1.9-4.1,2.8-6.2,4c-1.1,0.6-1.3,1.3-0.9,2.4
			c0.6,2.1,1.3,4.4,1.9,6.5c0.3,1.3,0.9,1.7,2.2,1.6c1.9-0.2,3.9-0.2,5.7-0.3c1-0.1,1.7,0.2,2.1,1.3c0.9,1.9,1.9,3.6,3.2,5.3
			c0.6,0.9,0.6,1.6,0.1,2.5c-1.3,2.1-2.5,4.4-3.7,6.3c1.5,1.6,2.8,3,4.2,4.3c2.9,2.9,3.1,3.1,6.4,0.7c2.8-2,4.8-2,8.1-0.3
			c3.4,1.9,4.5,3.8,4.2,7.5c-0.4,3.6-0.1,3.7,3.4,4.6c2,0.6,4.5,1.8,6.1,1.1c1.5-0.6,2.2-3.2,3.2-5.1c0.7-1.6,1.7-2.4,3.6-2.1
			c1.7,0.3,3.4,0.1,5.2-0.1c1.2-0.1,1.9,0.3,2.3,1.3c1.1,2.1,2.3,4.2,3.6,6.3c2.8-0.8,5.6-1.7,8.3-2.3c1.2-0.3,1.4-0.9,1.4-1.9
			c-0.1-1.9,0-3.9-0.2-5.7c-0.1-1.1,0.4-1.7,1.3-2.1c1.9-0.9,3.6-2.2,5.6-3.2c0.6-0.3,1.7-0.4,2.2-0.1c1.9,0.9,3.5,2,5.4,3.1
			c0.5,0.2,1.4,0.3,1.7-0.1c2.2-2.1,4.3-4.4,6.4-6.6c-1.3-2.1-2.6-4.1-3.7-6.1c-0.3-0.6-0.3-1.6,0-2.2c1-2,2.3-3.9,3.2-5.9
			c0.5-1,1.1-1.3,2.1-1.3c2.3,0.1,4.6,0,7,0c0.6-2.1,1.1-4.1,1.6-6.1c0.9-3.6,1-3.9-2.5-5.4c-3.2-1.3-4.6-3.2-3.8-6.6
			c0.3-1,0.1-2.2-0.1-3.3c-0.3-1.5,0.4-2.2,1.7-3c1.9-0.9,4.4-1.8,5-3.2c0.6-1.5-0.7-3.9-1.3-5.8c-1-3.6-1-3.6-4.8-3.5
			c-1,0-2,0-3,0.1c-1,0.1-1.7-0.3-2.2-1.2c-1.1-2-2.4-4-3.5-6c-0.3-0.6-0.4-1.5-0.1-2c1.1-2.1,2.3-4.1,3.2-5.5
			c-2.4-2.8-4.6-5.3-6.8-7.8c-1.9,1.1-3.4,1.9-4.8,3c-1.7,1.3-3.1,1.6-4.9,0.1c-1.3-1-2.9-1.7-4.4-2.3c-1.1-0.5-1.7-1-1.6-2.3
			c0.1-1.8,0-3.6,0.2-5.4c0.1-1.4-0.5-1.9-1.7-2.1C125.7,26.8,123.2,25.9,120.8,25.3z M170,62.3c1.2,1.8,2.4,3.5,3.5,5.2
			c1.5,2.2,0.6,4.5-1.9,5.1c-0.7,0.2-1.6,0.4-2.3,0.6c-4.5,1-4.5,1-4.5,5.7c0,0.1-0.1,0.3,0,0.4c0.4,0.6,0.7,1.4,1.3,1.7
			c1.7,0.7,3.5,1.2,5.2,2c0.6,0.3,1.2,1,1.6,1.7c0.9,1.5,0.3,2.7-0.8,3.8c-1.1,1.1-2.1,2.4-3.2,3.6c-0.3,0.4-0.6,0.9-0.6,1.2
			c0.9,1.6,1.8,3.3,3.1,4.6c0.5,0.5,2-0.1,3.2-0.4c1.1-0.3,2.2-0.6,3.2-0.9c1.1-0.4,1.9-0.2,2.9,0.6c1.2,0.9,1.7,1.9,1.4,3.3
			c-0.3,1.6-0.3,3.2-0.5,4.7c0,0.5,0,1.2,0.2,1.3c1.8,0.8,3.5,1.7,5.4,2c0.5,0.1,1.4-1.2,2-1.9c0.7-0.8,1.3-1.7,1.9-2.5
			c1.9-2.5,4.5-2.4,6.1,0.3c0.6,0.8,1,1.7,1.6,2.6c1.7,2.7,1.7,2.7,4.6,1.9c3.2-0.8,3.2-0.8,3.2-4.3c0-0.7,0.1-1.5,0.1-2.2
			c0.1-3.6,2.1-5,5.6-3.6c1.3,0.6,2.6,1.1,3.9,1.6c0.5,0.2,1.2,0.4,1.5,0.1c1.2-1.4,2.7-2.7,3.4-4.4c0.3-0.7-0.9-2.1-1.6-3.2
			c-0.3-0.6-0.7-1.1-1.1-1.7c-2-3-1.2-5.2,2.3-6c1.4-0.4,2.9-0.6,4.3-1c0.5-0.1,1-0.6,1-0.9c0.2-1.9,0.6-3.8,0.1-5.5
			c-0.2-0.8-2.2-1.1-3.4-1.7c-0.6-0.3-1.1-0.5-1.7-0.6c-3.2-1.1-3.8-3.3-1.6-5.9c0.9-1.1,1.9-2.2,2.9-3.3c0.3-0.4,0.7-0.9,0.6-1.1
			c-0.9-1.7-1.9-3.4-3.2-4.8c-0.5-0.5-2,0.1-3.1,0.3s-1.9,0.6-2.9,0.8c-3,0.8-4.8-0.7-4.5-3.8c0.1-0.8,0.1-1.6,0.2-2.4
			c0.3-3.7,0.2-3.6-3.4-5.1c-1.8-0.6-3-0.7-3.9,1.1c-0.6,1-1.5,1.9-2.2,2.9c-1.9,2.5-4.1,2.4-5.7-0.3c-0.8-1.4-1.7-2.9-2.6-4.3
			c-0.3-0.4-0.9-0.8-1.4-0.7c-1.9,0.4-3.7,0.9-5.7,1.4c0,2.4,0.1,4.7,0,7c0,0.6-0.5,1.3-0.9,1.8c-1.5,1.7-3.1,0.7-4.6,0.1
			C173.4,56.9,173.4,56.9,170,62.3z M174.7,107.2c-0.5,0.7-0.9,1.4-1.2,2.1c-0.6,1.8-2,1.2-3.2,1.4s-1.9-0.4-2.3-1.4
			c-0.6-1.8-1.8-2.3-3.5-1.5c-0.6,0.3-1.4,0.5-2,0.6c0,0.9,0.2,1.8,0,2.5c-0.2,0.7-0.6,1.7-1.1,2.2c-0.9,0.8-2,1.9-3.5,0.6
			c-1.6-1.4-2.9-1.2-4.1,0.6c-0.4,0.6-0.8,0.9-1.2,1.3c0.4,1.9,2.6,2.9,1.2,5.4c-1.4,2.6-3.4,1.2-5.2,1.9c-0.1,0.5-0.3,0.9-0.5,1.5
			c-0.8,1.9-0.5,3.4,1.8,4.1c0.5,0.2,1,0.6,1.1,1c0.6,1.8-0.2,3.9-1.9,4.6c-1.9,0.8-1.2,2-0.8,3.2c0.3,1.1,0.5,2.3,2.2,1.9
			c0.8-0.2,2,0,2.5,0.5c1.8,1.7,1.8,3,0.6,5c-0.3,0.5-0.5,0.9-0.7,1.5c0.6,0.6,1.3,1,1.9,1.7c0.9,1.1,1.9,1.4,3,0.4
			c1.5-1.4,2.7-0.5,4.1,0.2c1.4,0.6,1.4,1.8,1.2,2.8c-0.3,1.9,0.9,2.1,2.3,2.5s2.5,0.6,3.2-1.2c0.3-0.7,1-1.6,1.6-1.8
			c1.9-0.4,3.9-0.5,4.6,2c0.1,0.4,0.5,0.7,0.7,1.2c1.5-0.4,2.8-0.8,4.2-1.2c0-1,0-1.9,0-2.8c0.1-1.7,3.2-3.6,4.5-2.6
			c1.9,1.5,3.2,1,4.4-0.7c0.3-0.5,0.7-0.7,1.1-1.2c-0.3-0.5-0.5-0.8-0.6-1.2c-1.8-2.9-0.2-5.7,3.2-5.8c0.6,0,1.4-0.5,1.6-0.9
			c0.5-1,0.6-2.2,0.8-3.2c-0.4-0.3-0.6-0.4-0.7-0.5c-1.3-0.6-2.6-1.1-2.5-3.2c0.1-1.9,0.5-2.9,2.1-3.7c1.9-0.8,0.4-2.1,0.3-3.2
			c-0.1-0.9-0.4-1.8-1.8-1.6c-0.8,0.1-2,0.1-2.6-0.5c-1.9-1.9-1.9-3.2-0.7-5.5c0.2-0.3,0.3-0.6,0.5-1c-0.8-0.7-1.5-1.6-2.4-2.1
			c-0.6-0.3-1.6-0.5-1.9-0.2c-1.9,1.8-3.5,0.7-4.9-0.4c-0.6-0.6-0.6-2-0.9-3.1c-0.1-0.3,0-0.6,0-1.1
			C177.6,108,176.2,107.6,174.7,107.2z M169,51.5c1.4,0.7,2.6,1.2,3.6,1.9c0.7,0.6,1.3,1.1,2.4,0.6c1.1-0.6,1.2-1.3,1.1-2.4
			c-0.4-2.7,1.5-4.9,4.1-5.6c0.6-0.2,1.5-0.7,1.8-1.4c0.5-0.9,0.2-1.9-0.9-2.5c-2.4-1.5-3-4.1-1.9-6.7c0.3-0.6,0.2-1.7-0.3-2
			c-0.6-0.6-1.6-1-2.2-0.8c-3.1,0.7-4.8,0-6.5-2.8c-0.3-0.6-1.3-0.9-1.9-0.9c-0.7,0-1.7,0.5-2,1c-1.5,3-2.8,3.7-6.1,3.2
			c-0.6-0.1-1.6,0.6-2,1.1c-0.4,0.5-0.6,1.5-0.4,2c1.5,3.2,1.4,4.7-1.3,6.7c-1,0.7-0.9,1.6-0.5,2.4c0.4,0.6,1,1.3,1.7,1.5
			c2.9,0.5,4.4,2.1,4.3,5c0,1,0,1.9,1.2,2.4c1.2,0.5,1.8,0.1,2.6-0.6C166.6,52.7,167.8,52.3,169,51.5z"/>
		<path d="M120.8,25.3c2.4,0.6,4.8,1.4,7.2,2c1.2,0.3,1.8,0.7,1.7,2.1c-0.2,1.8,0,3.6-0.2,5.4c-0.1,1.3,0.5,1.9,1.6,2.3
			c1.5,0.6,3.2,1.3,4.4,2.3c1.8,1.4,3.2,1.2,4.9-0.1c1.4-1.1,3.1-1.9,4.8-3c2.1,2.4,4.3,4.9,6.8,7.8c-0.8,1.4-2,3.3-3.2,5.5
			c-0.3,0.6-0.2,1.5,0.1,2c1.1,2,2.4,4,3.5,6c0.6,1,1.1,1.3,2.2,1.2c1-0.1,2-0.1,3-0.1c3.8-0.1,3.8-0.1,4.8,3.5
			c0.6,1.9,1.9,4.4,1.3,5.8c-0.6,1.5-3.2,2.3-5,3.2c-1.3,0.6-1.9,1.4-1.7,3c0.2,1.1,0.4,2.3,0.1,3.3c-0.8,3.4,0.6,5.3,3.8,6.6
			c3.5,1.5,3.4,1.8,2.5,5.4c-0.6,1.9-1,4-1.6,6.1c-2.4,0-4.6,0.1-7,0c-1,0-1.7,0.3-2.1,1.3c-1,2-2.3,3.9-3.2,5.9
			c-0.3,0.6-0.3,1.7,0,2.2c1.1,2,2.4,4,3.7,6.1c-2.1,2.2-4.2,4.5-6.4,6.6c-0.3,0.3-1.2,0.3-1.7,0.1c-1.9-0.9-3.5-2.1-5.4-3.1
			c-0.6-0.3-1.6-0.2-2.2,0.1c-1.9,0.9-3.6,2.1-5.6,3.2c-0.9,0.5-1.4,1-1.3,2.1c0.1,1.9,0.1,3.9,0.2,5.7c0.1,1-0.2,1.7-1.4,1.9
			c-2.8,0.6-5.5,1.5-8.3,2.3c-1.2-2.1-2.5-4.2-3.6-6.3c-0.6-1-1.2-1.4-2.3-1.3c-1.8,0.2-3.5,0.4-5.2,0.1c-1.9-0.3-2.9,0.6-3.6,2.1
			c-0.9,1.9-1.7,4.5-3.2,5.1c-1.6,0.6-4.1-0.6-6.1-1.1c-3.5-0.9-3.8-0.9-3.4-4.6c0.4-3.6-0.7-5.7-4.2-7.5c-3.2-1.8-5.3-1.7-8.1,0.3
			c-3.3,2.4-3.4,2.2-6.4-0.7c-1.4-1.4-2.7-2.8-4.2-4.3c1.2-2,2.4-4.3,3.7-6.3c0.6-0.9,0.6-1.6-0.1-2.5c-1.1-1.7-2.2-3.4-3.2-5.3
			c-0.5-1-1.1-1.3-2.1-1.3c-1.9,0.1-3.9,0.1-5.7,0.3c-1.3,0.1-1.9-0.3-2.2-1.6c-0.6-2.2-1.1-4.4-1.9-6.5c-0.4-1.1-0.2-1.8,0.9-2.4
			c2.2-1.2,5.1-2.1,6.2-4s0.4-4.8,0.2-7.2c0-0.6-0.5-1.5-1-1.9c-2.2-1.4-4.6-2.6-7-3.9c0-0.3,0-0.6,0-0.8c0.6-2.4,1.5-4.8,2-7.2
			c0.3-1.3,0.8-1.8,2.1-1.7c1.7,0.1,3.3,0,5,0.2c1.9,0.2,3.2-0.3,3.9-2.3c0.5-1.4,1.4-2.7,2.3-4c0.7-1,0.6-1.7,0-2.7
			c-1.4-2.1-2.7-4.4-4.5-7.3c2-1.9,4.3-3.7,6.4-5.6c0.4-0.3,0.6-0.6,1.1-1c1.7,0.9,3.4,1.8,5,2.9c2,1.5,3.9,1.9,5.9,0
			c0.8-0.8,1.9-1.4,3.1-1.8c1.4-0.6,1.6-1.5,1.6-2.8c-0.1-2.4,0-4.9,0-7.4c2.7-0.7,5.5-1.5,8.2-2.3c1-0.3,1.6,0,2,0.9
			c0.9,1.9,1.9,3.6,3.1,5.4c0.5,0.6,1.4,1.1,2.1,1.2c2.1,0.1,4.3,0,6.4-0.1c0.5,0,1.2-0.2,1.4-0.6c1.3-2.4,2.5-4.9,3.8-7.4
			C120,25.3,120.5,25.3,120.8,25.3z M111.8,109.4c17.3,0,31.3-13.9,31.4-31.1c0.1-17.2-14-31.2-31.2-31.2c-17-0.1-31.2,14-31.2,30.9
			C80.9,95.3,94.7,109.3,111.8,109.4z"/>
		<path class="st0" d="M119.6,25.3c-1.2,2.5-2.4,4.9-3.8,7.4c-0.2,0.4-0.9,0.5-1.4,0.6c-2.1,0.1-4.3,0.2-6.4,0.1
			c-0.7-0.1-1.7-0.6-2.1-1.2c-1.2-1.7-2.1-3.5-3.1-5.4c-0.5-0.9-1-1.2-2-0.9c-2.7,0.8-5.5,1.6-8.2,2.3c0,2.5-0.1,5,0,7.4
			c0.1,1.3-0.2,2.2-1.6,2.8c-1.1,0.5-2.2,1-3.1,1.8c-2,1.9-3.9,1.5-5.9,0c-1.6-1.1-3.3-1.9-5-2.9c-0.4,0.4-0.7,0.6-1.1,1
			c-2.1,1.9-4.3,3.8-6.4,5.6c1.8,2.9,3.1,5.1,4.5,7.3c0.6,0.9,0.7,1.7,0,2.7c-0.9,1.2-1.9,2.5-2.3,4c-0.6,2-2,2.5-3.9,2.3
			c-1.7-0.2-3.3,0-5-0.2c-1.3-0.1-1.9,0.5-2.1,1.7c-0.6,2.4-1.3,4.8-2,7.2c0-14.6,0-29,0-43.6C79.1,25.3,99.4,25.3,119.6,25.3z"/>
		<path d="M170,62.3c3.3-5.4,3.4-5.4,9-3c1.6,0.6,3.2,1.6,4.6-0.1c0.5-0.5,0.9-1.1,0.9-1.8c0.1-2.2,0-4.5,0-7c2-0.6,3.9-1.1,5.7-1.4
			c0.4-0.1,1.1,0.4,1.4,0.7c0.9,1.4,1.8,2.9,2.6,4.3c1.7,2.7,3.7,2.8,5.7,0.3c0.7-0.9,1.6-1.9,2.2-2.9c1-1.8,2.2-1.8,3.9-1.1
			c3.6,1.4,3.6,1.4,3.4,5.1c-0.1,0.8-0.1,1.6-0.2,2.4c-0.4,3.1,1.5,4.6,4.5,3.8c0.9-0.3,1.9-0.6,2.9-0.8c1-0.2,2.6-0.7,3.1-0.3
			c1.3,1.4,2.2,3.2,3.2,4.8c0.1,0.2-0.4,0.7-0.6,1.1c-0.9,1.1-1.9,2.2-2.9,3.3c-2.2,2.6-1.6,4.7,1.6,5.9c0.6,0.2,1.1,0.4,1.7,0.6
			c1.2,0.6,3.2,0.8,3.4,1.7c0.5,1.7,0.1,3.7-0.1,5.5c0,0.4-0.6,0.7-1,0.9c-1.4,0.4-2.9,0.6-4.3,1c-3.5,0.8-4.4,3-2.3,6
			c0.4,0.6,0.7,1.1,1.1,1.7c0.6,1.1,1.9,2.5,1.6,3.2c-0.7,1.7-2.1,3-3.4,4.4c-0.2,0.2-1,0.1-1.5-0.1c-1.3-0.5-2.6-1-3.9-1.6
			c-3.3-1.4-5.5-0.1-5.6,3.6c0,0.7-0.1,1.5-0.1,2.2c-0.1,3.4-0.1,3.4-3.2,4.3c-3,0.7-3,0.7-4.6-1.9c-0.6-0.8-1-1.7-1.6-2.6
			c-1.6-2.7-4.2-2.8-6.1-0.3c-0.6,0.8-1.3,1.7-1.9,2.5c-0.6,0.7-1.5,2-2,1.9c-1.9-0.4-3.6-1.3-5.4-2c-0.2-0.1-0.2-0.8-0.2-1.3
			c0.1-1.6,0.2-3.2,0.5-4.7c0.2-1.5-0.2-2.4-1.4-3.3c-1-0.7-1.8-0.9-2.9-0.6c-1,0.4-2.1,0.7-3.2,0.9c-1,0.2-2.7,0.8-3.2,0.4
			c-1.3-1.3-2.1-3-3.1-4.6c-0.1-0.2,0.3-0.8,0.6-1.2c1-1.2,2-2.5,3.2-3.6c1.2-1.1,1.8-2.3,0.8-3.8c-0.4-0.6-0.9-1.4-1.6-1.7
			c-1.7-0.7-3.5-1.2-5.2-2c-0.6-0.3-0.8-1.1-1.3-1.7c-0.1-0.1,0-0.3,0-0.4c0.1-4.6,0.1-4.6,4.5-5.7c0.7-0.2,1.6-0.4,2.3-0.6
			c2.5-0.6,3.4-2.9,1.9-5.1C172.4,65.7,171.2,64,170,62.3z M196.5,62.7c-8.6-0.7-16.4,6.1-17.2,15.3c-0.8,8.8,6.1,16.6,15.4,17.5
			c8.7,0.8,17-6.3,17.4-15.8C212.7,69.4,204.2,62.8,196.5,62.7z"/>
		<path d="M174.7,107.2c1.5,0.4,2.9,0.7,4.4,1.1c0,0.5-0.1,0.7,0,1.1c0.3,1,0.2,2.5,0.9,3.1c1.4,1.2,3.1,2.2,4.9,0.4
			c0.3-0.3,1.4-0.2,1.9,0.2c0.9,0.6,1.6,1.4,2.4,2.1c-0.2,0.5-0.4,0.7-0.5,1c-1.3,2.3-1.2,3.7,0.7,5.5c0.6,0.5,1.7,0.6,2.6,0.5
			c1.4-0.2,1.7,0.6,1.8,1.6c0.1,1.1,1.6,2.4-0.3,3.2c-1.7,0.7-2,1.9-2.1,3.7c-0.1,2.1,1.1,2.5,2.5,3.2c0.2,0.1,0.4,0.2,0.7,0.5
			c-0.3,1-0.4,2.2-0.8,3.2c-0.2,0.5-1,0.9-1.6,0.9c-3.4,0.2-5,3-3.2,5.8c0.3,0.4,0.5,0.8,0.6,1.2c-0.4,0.5-0.8,0.7-1.1,1.2
			c-1.2,1.8-2.5,2.1-4.4,0.7c-1.3-1-4.5,1-4.5,2.6c0,0.8,0,1.8,0,2.8c-1.4,0.4-2.8,0.8-4.2,1.2c-0.3-0.5-0.6-0.7-0.7-1.2
			c-0.7-2.5-2.7-2.4-4.6-2c-0.6,0.1-1.4,1-1.6,1.8c-0.6,1.8-1.8,1.6-3.2,1.2c-1.3-0.4-2.6-0.6-2.3-2.5c0.2-1.1,0.3-2.1-1.2-2.8
			c-1.4-0.6-2.6-1.6-4.1-0.2c-1.1,1.1-2,0.8-3-0.4c-0.5-0.6-1.2-1-1.9-1.7c0.3-0.6,0.6-1.1,0.7-1.5c1.2-2.1,1.2-3.3-0.6-5
			c-0.6-0.6-1.8-0.6-2.5-0.5c-1.8,0.4-1.9-0.8-2.2-1.9c-0.4-1.2-1-2.4,0.8-3.2s2.6-3,1.9-4.6c-0.2-0.5-0.6-0.8-1.1-1
			c-2.2-0.7-2.6-2.1-1.8-4.1c0.2-0.5,0.3-1,0.5-1.5c1.8-0.6,3.8,0.7,5.2-1.9c1.4-2.5-0.8-3.4-1.2-5.4c0.3-0.4,0.8-0.7,1.2-1.3
			c1.2-1.7,2.5-1.9,4.1-0.6c1.4,1.3,2.5,0.2,3.5-0.6c0.6-0.5,0.9-1.4,1.1-2.2c0.2-0.7,0-1.6,0-2.5c0.6-0.2,1.4-0.4,2-0.6
			c1.8-0.8,2.9-0.3,3.5,1.5c0.4,1,1,1.6,2.3,1.4c1.2-0.2,2.7,0.4,3.2-1.4C173.8,108.6,174.2,108,174.7,107.2z M171.2,117.1
			c-7.8,0-14,6.2-14,13.9c0,7.5,6.3,13.8,13.8,13.9c7.7,0.1,14.1-6.2,14.1-13.8C185.1,123.3,178.9,117.1,171.2,117.1z"/>
		<path d="M169,51.5c-1.2,0.7-2.3,1.2-3.2,1.9c-0.8,0.7-1.4,1.1-2.6,0.6c-1.2-0.6-1.2-1.4-1.2-2.4c0.1-2.8-1.5-4.5-4.3-5
			c-0.6-0.1-1.3-0.8-1.7-1.5c-0.5-0.8-0.6-1.7,0.5-2.4c2.7-2,2.9-3.5,1.3-6.7c-0.3-0.6-0.1-1.6,0.4-2c0.5-0.6,1.4-1.2,2-1.1
			c3.3,0.5,4.6-0.2,6.1-3.2c0.3-0.6,1.3-1,2-1c0.6,0,1.6,0.4,1.9,0.9c1.7,2.8,3.4,3.5,6.5,2.8c0.6-0.2,1.7,0.3,2.2,0.8
			c0.4,0.4,0.5,1.5,0.3,2c-1.1,2.7-0.6,5.2,1.9,6.7c1.1,0.6,1.4,1.6,0.9,2.5c-0.3,0.6-1.1,1.2-1.8,1.4c-2.6,0.6-4.4,2.9-4.1,5.6
			c0.2,1.1,0,1.9-1.1,2.4c-1.1,0.6-1.7,0-2.4-0.6C171.5,52.7,170.3,52.3,169,51.5z M162.4,41.9c0,3.6,2.9,6.5,6.5,6.5
			c3.5,0,6.5-2.9,6.6-6.4c0-3.6-3-6.6-6.6-6.6C165.2,35.4,162.4,38.3,162.4,41.9z"/>
		<path class="st0" d="M111.8,109.4c-17.2-0.1-31-14.1-31-31.4c0-16.9,14.3-31,31.2-30.9c17.2,0.1,31.3,14.2,31.2,31.2
			C143.2,95.5,129.2,109.4,111.8,109.4z"/>
		<path class="st0" d="M196.5,62.7c7.6,0.1,16.1,6.7,15.7,17.1c-0.5,9.5-8.7,16.6-17.4,15.8c-9.4-0.9-16.2-8.8-15.4-17.5
			C180.2,68.9,188,61.9,196.5,62.7z"/>
		<path class="st0" d="M171.2,117.1c7.7,0,13.9,6.2,13.9,13.9c0,7.6-6.4,13.8-14.1,13.8c-7.5-0.1-13.8-6.3-13.8-13.9
			C157.2,123.3,163.5,117.1,171.2,117.1z"/>
		<path class="st0" d="M162.4,41.9c0-3.6,2.8-6.5,6.4-6.6c3.6-0.1,6.7,3,6.6,6.6c0,3.5-3,6.4-6.6,6.4
			C165.2,48.3,162.4,45.4,162.4,41.9z"/>
	</g>
	<g>
		<path d="M159.7,127.3h0.8v5.6h2.7v0.6h-3.5V127.3z"/>
		<path d="M165,127.7c0,0.3-0.2,0.5-0.6,0.5c-0.3,0-0.5-0.2-0.5-0.5c0-0.3,0.2-0.5,0.5-0.5C164.8,127.3,165,127.5,165,127.7z
			 M164,133.5V129h0.8v4.5H164z"/>
		<path d="M169.3,132.8L169.3,132.8c-0.3,0.5-0.7,0.8-1.5,0.8c-1,0-1.9-0.9-1.9-2.2c0-1.7,1.1-2.4,2-2.4c0.7,0,1.2,0.4,1.4,0.7l0,0
			v-0.6h0.7c0,0.4,0,0.7,0,1.2v5.1h-0.8V132.8z M169.3,130.9c0-0.1,0-0.3,0-0.4c-0.1-0.5-0.6-0.9-1.2-0.9c-0.8,0-1.4,0.7-1.4,1.8
			c0,0.9,0.5,1.7,1.3,1.7c0.6,0,1-0.3,1.2-0.9c0-0.1,0.1-0.3,0.1-0.4V130.9z"/>
		<path d="M175.2,132.3c0,0.5,0,0.8,0,1.2h-0.6v-0.7l0,0c-0.2,0.4-0.6,0.8-1.5,0.8c-0.7,0-1.6-0.4-1.6-1.9V129h0.8v2.5
			c0,0.8,0.3,1.4,1,1.4c0.6,0,0.9-0.4,1.1-0.7c0-0.1,0.1-0.3,0.1-0.4V129h0.8v3.2L175.2,132.3L175.2,132.3z"/>
		<path d="M177.5,127.7c0,0.3-0.2,0.5-0.6,0.5c-0.3,0-0.5-0.2-0.5-0.5c0-0.3,0.2-0.5,0.5-0.5C177.3,127.3,177.5,127.5,177.5,127.7z
			 M176.6,133.5V129h0.8v4.5H176.6z"/>
		<path d="M182.6,126.9v5.4c0,0.4,0,0.8,0,1.2h-0.6v-0.7l0,0c-0.3,0.5-0.8,0.8-1.5,0.8c-1.1,0-1.9-0.9-1.9-2.3c0-1.5,0.9-2.4,2-2.4
			c0.6,0,1.1,0.3,1.4,0.6l0,0v-2.7L182.6,126.9L182.6,126.9L182.6,126.9z M181.8,130.9c0-0.1,0-0.3,0-0.4c-0.1-0.6-0.6-0.9-1.2-0.9
			c-0.8,0-1.3,0.7-1.3,1.8c0,0.9,0.5,1.7,1.3,1.7c0.6,0,1-0.4,1.2-0.9c0-0.1,0-0.2,0-0.4V130.9z"/>
	</g>
	<g>
		<path d="M164.3,43.3V42l-1-1.8h0.5l0.5,0.8c0.1,0.3,0.2,0.5,0.3,0.6l0,0c0.1-0.2,0.2-0.4,0.3-0.6l0.5-0.8h0.5l-1,1.8v1.3H164.3z"
			/>
		<path d="M166.3,42.3l-0.4,1h-0.5l1-3.2h0.5l1.1,3.2h-0.5l-0.4-1H166.3z M167.3,42L167,41c-0.1-0.2-0.1-0.4-0.2-0.6l0,0
			c0,0.2-0.1,0.4-0.2,0.6l-0.3,0.9H167.3z"/>
		<path d="M171.2,42c0-0.5-0.1-0.9,0-1.4l0,0c-0.1,0.4-0.3,0.7-0.4,1.2l-0.6,1.5h-0.4l-0.5-1.5c-0.2-0.5-0.3-0.8-0.4-1.2l0,0
			c0,0.4,0,0.9-0.1,1.4l-0.1,1.3h-0.4l0.2-3.2h0.6l0.6,1.5c0.1,0.4,0.3,0.7,0.3,1l0,0c0.1-0.3,0.2-0.6,0.4-1l0.6-1.5h0.6l0.2,3.2
			h-0.4L171.2,42z"/>
		<path d="M172.3,40.2h0.4V43h1.3v0.4h-1.8L172.3,40.2L172.3,40.2z"/>
	</g>
	<g>
		<path d="M96.5,58.7H98v7.5c0,3-1.5,3.9-3.4,3.9c-0.6,0-1.2-0.1-1.6-0.3l0.2-1.2c0.3,0.1,0.7,0.2,1.2,0.2c1.3,0,2-0.6,2-2.8
			L96.5,58.7L96.5,58.7z"/>
		<path d="M102.5,66.2c0,1.9,1.3,2.8,2.8,2.8c1,0,1.7-0.2,2.2-0.5l0.3,1c-0.6,0.3-1.4,0.5-2.7,0.5c-2.5,0-4-1.7-4-4.1
			c0-2.4,1.4-4.4,3.8-4.4c2.6,0,3.3,2.3,3.3,3.8c0,0.3,0,0.6-0.1,0.6h-5.7V66.2z M106.8,65.1c0-0.9-0.4-2.4-2-2.4
			c-1.5,0-2.1,1.4-2.2,2.4H106.8z"/>
		<path d="M112.8,65.5L112.8,65.5c0.3-0.3,0.6-0.6,0.7-0.9l2.4-2.8h1.8l-3.2,3.3l3.5,4.7h-1.8l-2.8-3.9l-0.7,0.8v3.1h-1.5V58.1h1.5
			V65.5z"/>
		<path d="M120.7,58.1h1.5V70h-1.5V58.1z"/>
		<path d="M126,58.1h1.5V70H126V58.1z"/>
	</g>
	<g>
		<path d="M193.1,73.6c-0.4,0.2-1.1,0.4-1.9,0.4c-2.1,0-3.7-1.3-3.7-3.8c0-2.3,1.6-3.9,3.9-3.9c0.9,0,1.5,0.2,1.8,0.4l-0.3,0.8
			c-0.4-0.2-0.9-0.3-1.5-0.3c-1.8,0-3,1.1-3,3.1c0,1.9,1,3.1,2.9,3.1c0.6,0,1.2-0.1,1.6-0.3L193.1,73.6z"/>
		<path d="M194.1,72.7c0.5,0.3,1.1,0.5,1.8,0.5c1,0,1.6-0.6,1.6-1.3c0-0.7-0.4-1.1-1.4-1.5c-1.2-0.5-1.9-1.1-1.9-2.1
			c0-1.2,0.9-2,2.4-2c0.7,0,1.3,0.2,1.7,0.4l-0.3,0.8c-0.3-0.1-0.7-0.4-1.4-0.4c-1,0-1.4,0.6-1.4,1.1c0,0.7,0.5,1,1.5,1.5
			c1.3,0.5,1.9,1.1,1.9,2.2c0,1.1-0.8,2.1-2.6,2.1c-0.7,0-1.5-0.2-1.9-0.5L194.1,72.7z"/>
		<path d="M199.7,72.7c0.5,0.3,1.1,0.5,1.8,0.5c1,0,1.6-0.6,1.6-1.3c0-0.7-0.4-1.1-1.4-1.5c-1.2-0.5-1.9-1.1-1.9-2.1
			c0-1.2,0.9-2,2.4-2c0.7,0,1.3,0.2,1.7,0.4l-0.3,0.8c-0.3-0.1-0.7-0.4-1.4-0.4c-1,0-1.4,0.6-1.4,1.1c0,0.7,0.5,1,1.5,1.5
			c1.3,0.5,1.9,1.1,1.9,2.2c0,1.1-0.8,2.1-2.6,2.1c-0.7,0-1.5-0.2-1.9-0.5L199.7,72.7z"/>
		<path d="M184,75.6v3.2h3.6v-3.2h1v7.5h-1v-3.5H184v3.5h-0.9v-7.5H184z"/>
		<path d="M191.7,76.5h-2.3v-0.8h5.6v0.8h-2.3v6.7h-1L191.7,76.5L191.7,76.5z"/>
		<path d="M202.2,79.8c-0.1-1-0.1-2.3-0.1-3.2l0,0c-0.3,0.8-0.6,1.9-0.9,2.9l-1.3,3.6h-0.7l-1.2-3.6c-0.4-1-0.6-2-0.8-2.9l0,0
			c0,0.9-0.1,2.2-0.2,3.3l-0.2,3.2h-0.9l0.6-7.5h1.2l1.3,3.6c0.3,0.9,0.6,1.8,0.7,2.5l0,0c0.2-0.7,0.5-1.6,0.8-2.5l1.3-3.6h1.2
			l0.5,7.5h-0.9L202.2,79.8z"/>
		<path d="M204.8,75.6h0.9v6.7h3.2v0.8h-4.2V75.6z"/>
		<path d="M193.3,84.9h0.9v5c0,1.9-1,2.6-2.2,2.6c-0.4,0-0.8-0.1-1-0.2l0.2-0.8c0.2,0.1,0.5,0.2,0.8,0.2c0.8,0,1.4-0.4,1.4-1.9
			L193.3,84.9L193.3,84.9z"/>
		<path d="M195.7,91.2c0.5,0.3,1.1,0.5,1.8,0.5c1,0,1.6-0.6,1.6-1.3s-0.4-1.1-1.4-1.5c-1.2-0.5-1.9-1.1-1.9-2.1c0-1.2,0.9-2,2.4-2
			c0.7,0,1.3,0.2,1.7,0.4l-0.3,0.8c-0.3-0.1-0.7-0.4-1.4-0.4c-1,0-1.4,0.6-1.4,1.1c0,0.7,0.5,1,1.5,1.5c1.3,0.5,1.9,1.1,1.9,2.2
			c0,1.1-0.8,2.1-2.6,2.1c-0.7,0-1.5-0.2-1.9-0.5L195.7,91.2z"/>
	</g>
</g>
<g>
	<path d="M110.8,78.8c0,2.2-1.6,3.2-3.1,3.2c-1.7,0-3-1.2-3-3.2c0-2,1.4-3.2,3.1-3.2C109.7,75.6,110.8,76.8,110.8,78.8z M106,78.8
		c0,1.4,0.7,2.3,1.9,2.3c1,0,1.9-1,1.9-2.4c0-1-0.6-2.3-1.9-2.3C106.5,76.5,106,77.7,106,78.8z"/>
	<path d="M112.3,77.7c0-0.7,0-1.4-0.1-1.9h1v1.2h0.1c0.3-0.8,0.9-1.4,1.7-1.4c0.1,0,0.2,0,0.3,0v1c-0.1,0-0.2,0-0.4,0
		c-0.7,0-1.4,0.6-1.5,1.4c0,0.2-0.1,0.4-0.1,0.6v3.2h-1.1L112.3,77.7L112.3,77.7z"/>
	<path d="M96.6,86.9v3.6h4.2v-3.6h1.1v8.5h-1.1v-4h-4.2v4h-1.1v-8.5H96.6z"/>
	<path d="M104.9,86.9V92c0,1.9,0.8,2.7,1.9,2.7c1.3,0,2-0.8,2-2.7v-5.1h1.1v5c0,2.6-1.4,3.7-3.2,3.7c-1.8,0-3.1-1-3.1-3.6v-5
		L104.9,86.9L104.9,86.9z"/>
	<path d="M118.5,95.1c-0.5,0.2-1.5,0.5-2.6,0.5c-1.3,0-2.3-0.4-3.2-1.1c-0.7-0.7-1.2-1.9-1.2-3.2c0-2.6,1.8-4.5,4.6-4.5
		c1,0,1.8,0.2,2.1,0.4l-0.3,0.9c-0.5-0.2-1-0.4-1.9-0.4c-2,0-3.4,1.3-3.4,3.4c0,2.1,1.3,3.4,3.3,3.4c0.7,0,1.2-0.1,1.5-0.2v-2.6
		h-1.8v-0.9h2.8L118.5,95.1L118.5,95.1z"/>
	<path d="M127.5,91.1c0,3-1.8,4.5-4,4.5s-3.8-1.8-3.8-4.4c0-2.7,1.7-4.5,4-4.5C126,86.8,127.5,88.6,127.5,91.1z M120.8,91.3
		c0,1.9,1,3.4,2.7,3.4c1.8,0,2.8-1.6,2.8-3.5c0-1.7-0.9-3.4-2.7-3.4C121.8,87.7,120.8,89.4,120.8,91.3z"/>
</g>
</svg>
