<?xml version="1.0" encoding="utf-8"?>
<!-- Generator: Adobe Illustrator 21.0.0, SVG Export Plug-In . SVG Version: 6.00 Build 0)  -->
<svg version="1.1" id="Layer_1" xmlns="http://www.w3.org/2000/svg" xmlns:xlink="http://www.w3.org/1999/xlink" x="0px" y="0px"
	 viewBox="0 0 286 180" style="enable-background:new 0 0 286 180;" xml:space="preserve">
<style type="text/css">
	.st0{fill:#FFFFFF;}
</style>
<g id="Layer_1_1_">
</g>
<g id="Layer_2">
	<g>
		<path class="st0" d="M119.1,20.2c38.2,0,76.4,0,114.6,0c0,46.5,0,93,0,139.6c-60.5,0-120.9,0-181.4,0c0-30.6,0-61.2,0-91.8
			c2.5,1.4,5.1,2.7,7.5,4.2c0.6,0.4,1.1,1.3,1.1,2c0.1,2.6,0.9,5.8-0.2,7.8c-1.2,2.1-4.4,3-6.7,4.3c-1.2,0.7-1.4,1.4-1,2.6
			c0.7,2.3,1.4,4.7,2,7c0.3,1.4,1,1.8,2.4,1.7c2.1-0.2,4.2-0.2,6.2-0.3c1.1-0.1,1.8,0.2,2.3,1.4c1,2,2.1,3.9,3.4,5.7
			c0.7,1,0.7,1.7,0.1,2.7c-1.4,2.3-2.7,4.7-4,6.8c1.6,1.7,3,3.2,4.5,4.6c3.1,3.1,3.3,3.3,6.9,0.8c3-2.2,5.2-2.2,8.7-0.3
			c3.7,2,4.8,4.1,4.5,8.1c-0.4,3.9-0.1,4,3.7,5c2.2,0.6,4.8,1.9,6.6,1.2c1.6-0.7,2.4-3.5,3.4-5.5c0.8-1.7,1.8-2.6,3.9-2.3
			c1.8,0.3,3.7,0.1,5.6-0.1c1.3-0.1,2,0.3,2.5,1.4c1.2,2.3,2.5,4.5,3.9,6.8c3-0.9,6-1.8,9-2.5c1.3-0.3,1.5-1,1.5-2.1
			c-0.1-2.1,0-4.2-0.2-6.2c-0.1-1.2,0.4-1.8,1.4-2.3c2-1,3.9-2.4,6-3.4c0.7-0.3,1.8-0.4,2.4-0.1c2,1,3.8,2.2,5.8,3.3
			c0.5,0.2,1.5,0.3,1.8-0.1c2.4-2.3,4.6-4.7,6.9-7.1c-1.4-2.3-2.8-4.4-4-6.6c-0.3-0.6-0.3-1.7,0-2.4c1.1-2.2,2.5-4.2,3.5-6.4
			c0.5-1.1,1.2-1.4,2.3-1.4c2.5,0.1,5,0,7.5,0c0.6-2.3,1.2-4.4,1.7-6.6c1-3.9,1.1-4.2-2.7-5.8c-3.4-1.4-5-3.4-4.1-7.1
			c0.3-1.1,0.1-2.4-0.1-3.6c-0.3-1.6,0.4-2.4,1.8-3.2c2-1,4.7-1.9,5.4-3.5s-0.8-4.2-1.4-6.3c-1.1-3.9-1.1-3.9-5.2-3.8
			c-1.1,0-2.2,0-3.2,0.1c-1.1,0.1-1.8-0.3-2.4-1.3c-1.2-2.2-2.6-4.3-3.8-6.5c-0.3-0.6-0.4-1.6-0.1-2.2c1.2-2.3,2.5-4.4,3.4-5.9
			c-2.6-3-5-5.7-7.3-8.4c-2,1.2-3.7,2.1-5.2,3.2c-1.8,1.4-3.3,1.7-5.3,0.1c-1.4-1.1-3.1-1.8-4.7-2.5c-1.2-0.5-1.8-1.1-1.7-2.5
			c0.1-1.9,0-3.9,0.2-5.8c0.1-1.5-0.5-2-1.8-2.3C124.3,21.8,121.7,20.9,119.1,20.2z M172.1,60.1c1.3,1.9,2.6,3.8,3.8,5.6
			c1.6,2.4,0.7,4.8-2.1,5.5c-0.8,0.2-1.7,0.4-2.5,0.6c-4.8,1.1-4.8,1.1-4.9,6.1c0,0.1-0.1,0.3,0,0.4c0.4,0.6,0.8,1.5,1.4,1.8
			c1.8,0.8,3.8,1.3,5.6,2.2c0.7,0.3,1.3,1.1,1.7,1.8c1,1.6,0.3,2.9-0.9,4.1s-2.3,2.6-3.4,3.9c-0.3,0.4-0.7,1-0.6,1.3
			c1,1.7,1.9,3.6,3.3,5c0.5,0.5,2.2-0.1,3.4-0.4s2.4-0.6,3.5-1c1.2-0.4,2-0.2,3.1,0.6c1.3,1,1.8,2,1.5,3.6c-0.3,1.7-0.3,3.4-0.5,5.1
			c0,0.5,0,1.3,0.2,1.4c1.9,0.9,3.8,1.8,5.8,2.2c0.5,0.1,1.5-1.3,2.2-2.1c0.8-0.9,1.4-1.8,2.1-2.7c2.1-2.7,4.8-2.6,6.6,0.3
			c0.6,0.9,1.1,1.8,1.7,2.8c1.8,2.9,1.8,2.9,5,2c3.5-0.9,3.5-0.9,3.5-4.6c0-0.8,0.1-1.6,0.1-2.4c0.1-3.9,2.3-5.4,6-3.9
			c1.4,0.6,2.8,1.2,4.2,1.7c0.5,0.2,1.3,0.4,1.6,0.1c1.3-1.5,2.9-2.9,3.7-4.7c0.3-0.8-1-2.3-1.7-3.4c-0.3-0.6-0.8-1.2-1.2-1.8
			c-2.2-3.2-1.3-5.6,2.5-6.5c1.5-0.4,3.1-0.7,4.6-1.1c0.5-0.1,1.1-0.6,1.1-1c0.2-2,0.6-4.1,0.1-5.9c-0.2-0.9-2.4-1.2-3.7-1.8
			c-0.6-0.3-1.2-0.5-1.8-0.7c-3.4-1.2-4.1-3.6-1.7-6.4c1-1.2,2.1-2.4,3.1-3.6c0.3-0.4,0.8-1,0.7-1.2c-1-1.8-2-3.7-3.4-5.2
			c-0.5-0.5-2.2,0.1-3.3,0.3s-2.1,0.6-3.1,0.9c-3.2,0.9-5.2-0.8-4.8-4.1c0.1-0.9,0.1-1.7,0.2-2.6c0.3-4,0.2-3.9-3.7-5.5
			c-1.9-0.7-3.2-0.8-4.2,1.2c-0.6,1.1-1.6,2.1-2.4,3.1c-2.1,2.7-4.4,2.6-6.1-0.3c-0.9-1.5-1.8-3.1-2.8-4.6c-0.3-0.4-1-0.9-1.5-0.8
			c-2,0.4-4,1-6.2,1.5c0,2.6,0.1,5.1,0,7.5c0,0.7-0.5,1.4-1,1.9c-1.6,1.8-3.3,0.8-5,0.1C175.8,54.3,175.8,54.3,172.1,60.1z
			 M177.2,108.6c-0.5,0.8-1,1.5-1.3,2.3c-0.6,1.9-2.2,1.3-3.5,1.5s-2.1-0.4-2.5-1.5c-0.7-1.9-1.9-2.5-3.8-1.6
			c-0.7,0.3-1.5,0.5-2.2,0.7c0,1,0.2,1.9,0,2.7c-0.2,0.8-0.6,1.8-1.2,2.4c-1,0.9-2.2,2-3.8,0.6c-1.7-1.5-3.1-1.3-4.4,0.6
			c-0.4,0.6-0.9,1-1.3,1.4c0.4,2.1,2.8,3.1,1.3,5.8c-1.5,2.8-3.7,1.3-5.6,2c-0.1,0.5-0.3,1-0.5,1.6c-0.9,2.1-0.5,3.7,1.9,4.4
			c0.5,0.2,1.1,0.6,1.2,1.1c0.7,1.9-0.2,4.2-2.1,5c-2,0.9-1.3,2.2-0.9,3.5c0.3,1.2,0.5,2.5,2.4,2.1c0.9-0.2,2.2,0,2.7,0.5
			c1.9,1.8,1.9,3.2,0.6,5.4c-0.3,0.5-0.5,1-0.8,1.6c0.7,0.6,1.4,1.1,2,1.8c1,1.2,2,1.5,3.2,0.4c1.6-1.5,2.9-0.5,4.4,0.2
			s1.5,1.9,1.3,3c-0.3,2.1,1,2.3,2.5,2.7s2.7,0.7,3.4-1.3c0.3-0.8,1.1-1.7,1.7-1.9c2.1-0.4,4.2-0.5,5,2.2c0.1,0.4,0.5,0.8,0.8,1.3
			c1.6-0.4,3-0.9,4.5-1.3c0-1.1,0-2,0-3c0.1-1.8,3.5-3.9,4.8-2.8c2,1.6,3.4,1.1,4.7-0.8c0.3-0.5,0.8-0.8,1.2-1.3
			c-0.3-0.5-0.5-0.9-0.7-1.3c-1.9-3.1-0.2-6.1,3.5-6.3c0.6,0,1.5-0.5,1.7-1c0.5-1.1,0.6-2.4,0.9-3.5c-0.4-0.3-0.6-0.4-0.8-0.5
			c-1.4-0.7-2.8-1.2-2.7-3.5c0.1-2,0.5-3.1,2.3-4c2-0.9,0.4-2.3,0.3-3.5c-0.1-1-0.4-1.9-1.9-1.7c-0.9,0.1-2.2,0.1-2.8-0.5
			c-2-2-2.1-3.5-0.8-5.9c0.2-0.3,0.3-0.6,0.5-1.1c-0.9-0.8-1.6-1.7-2.6-2.3c-0.6-0.3-1.7-0.5-2.1-0.2c-2,1.9-3.8,0.8-5.3-0.4
			c-0.7-0.6-0.7-2.2-1-3.3c-0.1-0.3,0-0.7,0-1.2C180.3,109.4,178.8,109,177.2,108.6z M171,48.5c1.5,0.8,2.8,1.3,3.9,2
			c0.8,0.6,1.4,1.2,2.6,0.6c1.2-0.6,1.3-1.4,1.2-2.6c-0.4-2.9,1.6-5.3,4.4-6c0.7-0.2,1.6-0.8,1.9-1.5c0.5-1,0.2-2-1-2.7
			c-2.6-1.6-3.2-4.4-2-7.2c0.3-0.6,0.2-1.8-0.3-2.2c-0.6-0.6-1.7-1.1-2.4-0.9c-3.3,0.8-5.2,0-7-3c-0.3-0.6-1.4-1-2-1
			c-0.8,0-1.8,0.5-2.2,1.1c-1.6,3.2-3,4-6.6,3.5c-0.7-0.1-1.7,0.6-2.2,1.2c-0.4,0.5-0.6,1.6-0.4,2.2c1.6,3.4,1.5,5.1-1.4,7.2
			c-1.1,0.8-1,1.7-0.5,2.6c0.4,0.7,1.1,1.4,1.8,1.6c3.1,0.5,4.7,2.3,4.6,5.4c0,1.1,0,2,1.3,2.6c1.3,0.5,1.9,0.1,2.8-0.7
			C168.5,49.8,169.7,49.3,171,48.5z"/>
		<path d="M119.1,20.2c2.6,0.7,5.2,1.5,7.8,2.2c1.3,0.3,1.9,0.8,1.8,2.3c-0.2,1.9,0,3.9-0.2,5.8c-0.1,1.4,0.5,2,1.7,2.5
			c1.6,0.7,3.4,1.4,4.7,2.5c1.9,1.5,3.5,1.3,5.3-0.1c1.5-1.2,3.3-2,5.2-3.2c2.3,2.6,4.6,5.3,7.3,8.4c-0.9,1.5-2.2,3.6-3.4,5.9
			c-0.3,0.6-0.2,1.6,0.1,2.2c1.2,2.2,2.6,4.3,3.8,6.5c0.6,1.1,1.2,1.4,2.4,1.3c1.1-0.1,2.2-0.1,3.2-0.1c4.1-0.1,4.1-0.1,5.2,3.8
			c0.6,2.1,2,4.7,1.4,6.3c-0.7,1.6-3.4,2.5-5.4,3.5c-1.4,0.7-2,1.5-1.8,3.2c0.2,1.2,0.4,2.5,0.1,3.6c-0.9,3.7,0.7,5.7,4.1,7.1
			c3.8,1.6,3.7,1.9,2.7,5.8c-0.6,2.1-1.1,4.3-1.7,6.6c-2.6,0-5,0.1-7.5,0c-1.1,0-1.8,0.3-2.3,1.4c-1.1,2.2-2.5,4.2-3.5,6.4
			c-0.3,0.7-0.3,1.8,0,2.4c1.2,2.2,2.6,4.3,4,6.6c-2.3,2.4-4.5,4.8-6.9,7.1c-0.3,0.3-1.3,0.3-1.8,0.1c-2-1-3.8-2.3-5.8-3.3
			c-0.7-0.3-1.7-0.2-2.4,0.1c-2,1-3.9,2.3-6,3.4c-1,0.5-1.5,1.1-1.4,2.3c0.1,2.1,0.1,4.2,0.2,6.2c0.1,1.1-0.2,1.8-1.5,2.1
			c-3,0.7-5.9,1.6-9,2.5c-1.3-2.3-2.7-4.5-3.9-6.8c-0.6-1.1-1.3-1.5-2.5-1.4c-1.9,0.2-3.8,0.4-5.6,0.1c-2.1-0.3-3.1,0.6-3.9,2.3
			c-1,2-1.8,4.8-3.4,5.5c-1.7,0.7-4.4-0.6-6.6-1.2c-3.8-1-4.1-1-3.7-5c0.4-3.9-0.8-6.1-4.5-8.1c-3.5-1.9-5.7-1.8-8.7,0.3
			c-3.6,2.6-3.7,2.4-6.9-0.8c-1.5-1.5-2.9-3-4.5-4.6c1.3-2.2,2.6-4.6,4-6.8c0.6-1,0.6-1.7-0.1-2.7c-1.2-1.8-2.4-3.7-3.4-5.7
			c-0.5-1.1-1.2-1.4-2.3-1.4c-2.1,0.1-4.2,0.1-6.2,0.3c-1.4,0.1-2.1-0.3-2.4-1.7c-0.6-2.4-1.2-4.7-2-7c-0.4-1.2-0.2-1.9,1-2.6
			c2.4-1.3,5.5-2.3,6.7-4.3s0.4-5.2,0.2-7.8c0-0.7-0.5-1.6-1.1-2c-2.4-1.5-5-2.8-7.5-4.2c0-0.3,0-0.6,0-0.9c0.7-2.6,1.6-5.2,2.2-7.8
			c0.3-1.4,0.9-1.9,2.3-1.8c1.8,0.1,3.6,0,5.4,0.2c2.1,0.2,3.5-0.3,4.2-2.5c0.5-1.5,1.5-2.9,2.5-4.3c0.8-1.1,0.7-1.8,0-2.9
			c-1.5-2.3-2.9-4.7-4.9-7.9c2.2-2,4.6-4,6.9-6c0.4-0.3,0.7-0.7,1.2-1.1c1.8,1,3.7,1.9,5.4,3.1c2.2,1.6,4.2,2,6.4,0
			c0.9-0.9,2.1-1.5,3.3-1.9c1.5-0.6,1.7-1.6,1.7-3c-0.1-2.6,0-5.3,0-8c2.9-0.8,5.9-1.6,8.8-2.5c1.1-0.3,1.7,0,2.2,1
			c1,2,2.1,3.9,3.3,5.8c0.5,0.7,1.5,1.2,2.3,1.3c2.3,0.1,4.6,0,6.9-0.1c0.5,0,1.3-0.2,1.5-0.6c1.4-2.6,2.7-5.3,4.1-8
			C118.2,20.2,118.7,20.2,119.1,20.2z M109.4,110.9c18.7,0,33.8-15,33.9-33.5s-15.1-33.7-33.7-33.7C91.3,43.6,76,58.8,76,77
			C76,95.7,90.9,110.8,109.4,110.9z"/>
		<path class="st0" d="M117.8,20.2c-1.3,2.7-2.6,5.3-4.1,8c-0.2,0.4-1,0.5-1.5,0.6c-2.3,0.1-4.6,0.2-6.9,0.1
			c-0.8-0.1-1.8-0.6-2.3-1.3c-1.3-1.8-2.3-3.8-3.3-5.8c-0.5-1-1.1-1.3-2.2-1c-2.9,0.9-5.9,1.7-8.8,2.5c0,2.7-0.1,5.4,0,8
			c0.1,1.4-0.2,2.4-1.7,3c-1.2,0.5-2.4,1.1-3.3,1.9c-2.2,2.1-4.2,1.6-6.4,0c-1.7-1.2-3.6-2.1-5.4-3.1c-0.4,0.4-0.8,0.7-1.2,1.1
			c-2.3,2-4.6,4.1-6.9,6c1.9,3.1,3.3,5.5,4.9,7.9c0.7,1,0.8,1.8,0,2.9c-1,1.3-2,2.7-2.5,4.3C65.5,57.5,64,58,62,57.8
			c-1.8-0.2-3.6,0-5.4-0.2c-1.4-0.1-2,0.5-2.3,1.8c-0.6,2.6-1.4,5.2-2.2,7.8c0-15.7,0-31.3,0-47C74.1,20.2,96,20.2,117.8,20.2z"/>
		<path d="M172.1,60.1c3.6-5.8,3.7-5.8,9.7-3.2c1.7,0.7,3.4,1.7,5-0.1c0.5-0.5,1-1.2,1-1.9c0.1-2.4,0-4.9,0-7.5
			c2.2-0.6,4.2-1.2,6.2-1.5c0.4-0.1,1.2,0.4,1.5,0.8c1,1.5,1.9,3.1,2.8,4.6c1.8,2.9,4,3,6.1,0.3c0.8-1,1.7-2,2.4-3.1
			c1.1-1.9,2.4-1.9,4.2-1.2c3.9,1.5,3.9,1.5,3.7,5.5c-0.1,0.9-0.1,1.7-0.2,2.6c-0.4,3.3,1.6,5,4.8,4.1c1-0.3,2.1-0.7,3.1-0.9
			c1.1-0.2,2.8-0.8,3.3-0.3c1.4,1.5,2.4,3.4,3.4,5.2c0.1,0.2-0.4,0.8-0.7,1.2c-1,1.2-2.1,2.4-3.1,3.6c-2.4,2.8-1.7,5.1,1.7,6.4
			c0.6,0.2,1.2,0.4,1.8,0.7c1.3,0.6,3.4,0.9,3.7,1.8c0.5,1.8,0.1,4-0.1,5.9c0,0.4-0.7,0.8-1.1,1c-1.5,0.4-3.1,0.7-4.6,1.1
			c-3.8,0.9-4.7,3.2-2.5,6.5c0.4,0.6,0.8,1.2,1.2,1.8c0.6,1.2,2,2.7,1.7,3.4c-0.8,1.8-2.3,3.2-3.7,4.7c-0.2,0.2-1.1,0.1-1.6-0.1
			c-1.4-0.5-2.8-1.1-4.2-1.7c-3.6-1.5-5.9-0.1-6,3.9c0,0.8-0.1,1.6-0.1,2.4c-0.1,3.7-0.1,3.7-3.5,4.6c-3.2,0.8-3.2,0.8-5-2
			c-0.6-0.9-1.1-1.8-1.7-2.8c-1.7-2.9-4.5-3-6.6-0.3c-0.7,0.9-1.4,1.8-2.1,2.7c-0.7,0.8-1.6,2.2-2.2,2.1c-2-0.4-3.9-1.4-5.8-2.2
			c-0.2-0.1-0.2-0.9-0.2-1.4c0.1-1.7,0.2-3.4,0.5-5.1c0.2-1.6-0.2-2.6-1.5-3.6c-1.1-0.8-1.9-1-3.1-0.6c-1.1,0.4-2.3,0.8-3.5,1
			c-1.1,0.2-2.9,0.9-3.4,0.4c-1.4-1.4-2.3-3.2-3.3-5c-0.1-0.2,0.3-0.9,0.6-1.3c1.1-1.3,2.2-2.7,3.4-3.9c1.3-1.2,1.9-2.5,0.9-4.1
			c-0.4-0.7-1-1.5-1.7-1.8c-1.8-0.8-3.8-1.3-5.6-2.2c-0.6-0.3-0.9-1.2-1.4-1.8c-0.1-0.1,0-0.3,0-0.4c0.1-5,0.1-5,4.9-6.1
			c0.8-0.2,1.7-0.4,2.5-0.6c2.7-0.6,3.7-3.1,2.1-5.5C174.7,63.8,173.4,62,172.1,60.1z M200.7,60.6c-9.3-0.8-17.7,6.6-18.6,16.5
			c-0.9,9.5,6.6,17.9,16.6,18.9c9.4,0.9,18.3-6.8,18.8-17C218.2,67.8,209,60.7,200.7,60.6z"/>
		<path d="M177.2,108.6c1.6,0.4,3.1,0.8,4.7,1.2c0,0.5-0.1,0.8,0,1.2c0.3,1.1,0.2,2.7,1,3.3c1.5,1.3,3.3,2.4,5.3,0.4
			c0.3-0.3,1.5-0.2,2.1,0.2c1,0.6,1.7,1.5,2.6,2.3c-0.2,0.5-0.4,0.8-0.5,1.1c-1.4,2.5-1.3,4,0.8,5.9c0.6,0.5,1.8,0.6,2.8,0.5
			c1.5-0.2,1.8,0.7,1.9,1.7c0.1,1.2,1.7,2.6-0.3,3.5c-1.8,0.8-2.2,2-2.3,4c-0.1,2.3,1.2,2.7,2.7,3.5c0.2,0.1,0.4,0.2,0.8,0.5
			c-0.3,1.1-0.4,2.4-0.9,3.5c-0.2,0.5-1.1,1-1.7,1c-3.7,0.2-5.4,3.2-3.5,6.3c0.3,0.4,0.5,0.9,0.7,1.3c-0.4,0.5-0.9,0.8-1.2,1.3
			c-1.3,1.9-2.7,2.3-4.7,0.8c-1.4-1.1-4.8,1.1-4.8,2.8c0,0.9,0,1.9,0,3c-1.5,0.4-3,0.9-4.5,1.3c-0.3-0.5-0.7-0.8-0.8-1.3
			c-0.8-2.7-2.9-2.6-5-2.2c-0.7,0.1-1.5,1.1-1.7,1.9c-0.7,1.9-1.9,1.7-3.4,1.3c-1.4-0.4-2.8-0.6-2.5-2.7c0.2-1.2,0.3-2.3-1.3-3
			c-1.5-0.7-2.8-1.7-4.4-0.2c-1.2,1.2-2.2,0.9-3.2-0.4c-0.5-0.7-1.3-1.1-2-1.8c0.3-0.7,0.6-1.2,0.8-1.6c1.3-2.3,1.3-3.6-0.6-5.4
			c-0.6-0.6-1.9-0.7-2.7-0.5c-1.9,0.4-2.1-0.9-2.4-2.1c-0.4-1.3-1.1-2.6,0.9-3.5s2.8-3.2,2.1-5c-0.2-0.5-0.7-0.9-1.2-1.1
			c-2.4-0.8-2.8-2.3-1.9-4.4c0.2-0.5,0.3-1.1,0.5-1.6c1.9-0.6,4.1,0.8,5.6-2c1.5-2.7-0.9-3.7-1.3-5.8c0.3-0.4,0.9-0.8,1.3-1.4
			c1.3-1.8,2.7-2.1,4.4-0.6c1.5,1.4,2.7,0.2,3.8-0.6c0.6-0.5,1-1.5,1.2-2.4c0.2-0.8,0-1.7,0-2.7c0.7-0.2,1.5-0.4,2.2-0.7
			c1.9-0.9,3.1-0.3,3.8,1.6c0.4,1.1,1.1,1.7,2.5,1.5c1.3-0.2,2.9,0.4,3.5-1.5C176.2,110.1,176.7,109.4,177.2,108.6z M173.4,119.2
			c-8.4,0-15.1,6.7-15.1,15c0,8.1,6.8,14.9,14.9,15c8.3,0.1,15.2-6.7,15.2-14.9C188.4,125.9,181.7,119.2,173.4,119.2z"/>
		<path d="M171,48.5c-1.3,0.8-2.5,1.3-3.4,2.1s-1.5,1.2-2.8,0.7c-1.3-0.6-1.3-1.5-1.3-2.6c0.1-3-1.6-4.8-4.6-5.4
			c-0.7-0.1-1.4-0.9-1.8-1.6c-0.5-0.9-0.6-1.8,0.5-2.6c2.9-2.2,3.1-3.8,1.4-7.2c-0.3-0.6-0.1-1.7,0.4-2.2c0.5-0.6,1.5-1.3,2.2-1.2
			c3.6,0.5,5-0.2,6.6-3.5c0.3-0.6,1.4-1.1,2.2-1.1c0.7,0,1.7,0.4,2,1c1.8,3,3.7,3.8,7,3c0.7-0.2,1.8,0.3,2.4,0.9
			c0.4,0.4,0.5,1.6,0.3,2.2c-1.2,2.9-0.6,5.6,2,7.2c1.2,0.7,1.5,1.7,1,2.7c-0.3,0.7-1.2,1.3-1.9,1.5c-2.8,0.7-4.7,3.1-4.4,6
			c0.2,1.2,0,2-1.2,2.6s-1.8,0-2.6-0.6C173.7,49.8,172.5,49.3,171,48.5z M163.9,38.1c0,3.9,3.1,7,7,7c3.8,0,7-3.1,7.1-6.9
			c0-3.9-3.2-7.1-7.1-7.1C166.9,31.1,163.9,34.2,163.9,38.1z"/>
		<path class="st0" d="M109.4,110.9C90.9,110.8,76,95.7,76,77c0-18.2,15.4-33.4,33.6-33.3c18.6,0.1,33.8,15.3,33.7,33.7
			C143.2,95.9,128.1,110.9,109.4,110.9z"/>
		<path class="st0" d="M200.7,60.6c8.2,0.1,17.4,7.2,16.9,18.4c-0.5,10.2-9.4,17.9-18.8,17c-10.1-1-17.5-9.5-16.6-18.9
			C183.1,67.2,191.5,59.7,200.7,60.6z"/>
		<path class="st0" d="M173.4,119.2c8.3,0,15,6.7,15,15c0,8.2-6.9,14.9-15.2,14.9c-8.1-0.1-14.9-6.8-14.9-15
			S165.1,119.2,173.4,119.2z"/>
		<path class="st0" d="M163.9,38.1c0-3.9,3-7,6.9-7.1s7.2,3.2,7.1,7.1c0,3.8-3.2,6.9-7.1,6.9C167,45,163.9,41.9,163.9,38.1z"/>
	</g>
	<g>
		<path d="M161,130.2h0.9v6h2.9v0.7H161V130.2z"/>
		<path d="M166.7,130.7c0,0.3-0.2,0.5-0.6,0.5c-0.3,0-0.5-0.2-0.5-0.5s0.2-0.5,0.5-0.5C166.5,130.2,166.7,130.4,166.7,130.7z
			 M165.7,136.9v-4.8h0.9v4.8H165.7z"/>
		<path d="M171.4,136.2L171.4,136.2c-0.3,0.5-0.8,0.9-1.6,0.9c-1.1,0-2-1-2-2.4c0-1.8,1.2-2.6,2.2-2.6c0.8,0,1.3,0.4,1.5,0.8l0,0
			v-0.7h0.8c0,0.4,0,0.8,0,1.3v5.5h-0.9V136.2z M171.4,134.1c0-0.1,0-0.3,0-0.4c-0.1-0.5-0.6-1-1.3-1c-0.9,0-1.5,0.8-1.5,1.9
			c0,1,0.5,1.8,1.4,1.8c0.6,0,1.1-0.3,1.3-1c0-0.1,0.1-0.3,0.1-0.4V134.1z"/>
		<path d="M177.7,135.6c0,0.5,0,0.9,0,1.3H177v-0.8l0,0c-0.2,0.4-0.7,0.9-1.6,0.9c-0.8,0-1.7-0.4-1.7-2.1v-2.8h0.9v2.7
			c0,0.9,0.3,1.5,1.1,1.5c0.6,0,1-0.4,1.2-0.8c0-0.1,0.1-0.3,0.1-0.4v-3h0.9v3.5H177.7z"/>
		<path d="M180.2,130.7c0,0.3-0.2,0.5-0.6,0.5c-0.3,0-0.5-0.2-0.5-0.5s0.2-0.5,0.5-0.5C180,130.2,180.2,130.4,180.2,130.7z
			 M179.2,136.9v-4.8h0.9v4.8H179.2z"/>
		<path d="M185.7,129.8v5.8c0,0.4,0,0.9,0,1.3H185v-0.8l0,0c-0.3,0.5-0.9,0.9-1.6,0.9c-1.2,0-2.1-1-2.1-2.5c0-1.6,1-2.6,2.2-2.6
			c0.7,0,1.2,0.3,1.5,0.7l0,0v-2.9h0.7V129.8z M184.8,134.1c0-0.1,0-0.3,0-0.4c-0.1-0.6-0.6-1-1.3-1c-0.9,0-1.4,0.8-1.4,1.9
			c0,1,0.5,1.8,1.4,1.8c0.6,0,1.1-0.4,1.3-1c0-0.1,0-0.2,0-0.4V134.1z"/>
	</g>
	<g>
		<path d="M166,39.6v-1.4l-1.1-1.9h0.5l0.5,0.9c0.1,0.3,0.2,0.5,0.3,0.7l0,0c0.1-0.2,0.2-0.4,0.3-0.7l0.5-0.9h0.5l-1.1,1.9v1.4H166z
			"/>
		<path d="M168.1,38.6l-0.4,1.1h-0.5l1.1-3.4h0.5l1.2,3.4h-0.5l-0.4-1.1H168.1z M169.2,38.2l-0.3-1c-0.1-0.2-0.1-0.4-0.2-0.6l0,0
			c0,0.2-0.1,0.4-0.2,0.6l-0.3,1H169.2z"/>
		<path d="M173.4,38.2c0-0.5-0.1-1,0-1.5l0,0c-0.1,0.4-0.3,0.8-0.4,1.3l-0.6,1.6H172l-0.5-1.6c-0.2-0.5-0.3-0.9-0.4-1.3l0,0
			c0,0.4,0,1-0.1,1.5l-0.1,1.4h-0.4l0.2-3.4h0.6l0.6,1.6c0.1,0.4,0.3,0.8,0.3,1.1l0,0c0.1-0.3,0.2-0.7,0.4-1.1l0.6-1.6h0.6l0.2,3.4
			h-0.4L173.4,38.2z"/>
		<path d="M174.6,36.3h0.4v3h1.4v0.4h-1.9v-3.4H174.6z"/>
	</g>
	<g>
		<path d="M92.9,70.8h1.6v8.1c0,3.2-1.6,4.2-3.7,4.2c-0.6,0-1.3-0.1-1.7-0.3l0.2-1.3c0.3,0.1,0.8,0.2,1.3,0.2c1.4,0,2.2-0.6,2.2-3
			L92.9,70.8L92.9,70.8z"/>
		<path d="M99.3,78.9c0,2.1,1.4,3,3,3c1.1,0,1.8-0.2,2.4-0.5l0.3,1.1c-0.6,0.3-1.5,0.5-2.9,0.5c-2.7,0-4.3-1.8-4.3-4.4
			s1.5-4.7,4.1-4.7c2.8,0,3.6,2.5,3.6,4.1c0,0.3,0,0.6-0.1,0.7h-6.1V78.9z M104,77.7c0-1-0.4-2.6-2.2-2.6c-1.6,0-2.3,1.5-2.4,2.6
			H104z"/>
		<path d="M110.4,78.2L110.4,78.2c0.3-0.3,0.6-0.7,0.8-1l2.6-3h1.9l-3.4,3.6l3.8,5.1h-1.9l-3-4.2l-0.8,0.9v3.3h-1.6V70.2h1.6V78.2z"
			/>
		<path d="M119,70.2h1.6V83H119V70.2z"/>
		<path d="M124.7,70.2h1.6V83h-1.6V70.2z"/>
	</g>
	<g>
		<path d="M197,72.3c-0.4,0.2-1.2,0.4-2.1,0.4c-2.3,0-4-1.4-4-4.1c0-2.5,1.7-4.2,4.2-4.2c1,0,1.6,0.2,1.9,0.4l-0.3,0.9
			c-0.4-0.2-1-0.3-1.6-0.3c-1.9,0-3.2,1.2-3.2,3.3c0,2,1.1,3.3,3.1,3.3c0.6,0,1.3-0.1,1.7-0.3L197,72.3z"/>
		<path d="M198.1,71.3c0.5,0.3,1.2,0.5,1.9,0.5c1.1,0,1.7-0.6,1.7-1.4c0-0.8-0.4-1.2-1.5-1.6c-1.3-0.5-2.1-1.2-2.1-2.3
			c0-1.3,1-2.2,2.6-2.2c0.8,0,1.4,0.2,1.8,0.4l-0.3,0.9c-0.3-0.1-0.8-0.4-1.5-0.4c-1.1,0-1.5,0.7-1.5,1.2c0,0.8,0.5,1.1,1.6,1.6
			c1.4,0.5,2.1,1.2,2.1,2.4c0,1.2-0.9,2.3-2.8,2.3c-0.8,0-1.6-0.2-2.1-0.5L198.1,71.3z"/>
		<path d="M204.1,71.3c0.5,0.3,1.2,0.5,1.9,0.5c1.1,0,1.7-0.6,1.7-1.4c0-0.8-0.4-1.2-1.5-1.6c-1.3-0.5-2.1-1.2-2.1-2.3
			c0-1.3,1-2.2,2.6-2.2c0.8,0,1.4,0.2,1.8,0.4l-0.3,0.9c-0.3-0.1-0.8-0.4-1.5-0.4c-1.1,0-1.5,0.7-1.5,1.2c0,0.8,0.5,1.1,1.6,1.6
			c1.4,0.5,2.1,1.2,2.1,2.4c0,1.2-0.9,2.3-2.8,2.3c-0.8,0-1.6-0.2-2.1-0.5L204.1,71.3z"/>
		<path d="M187.2,74.5v3.4h3.9v-3.4h1.1v8.1h-1.1v-3.8h-3.9v3.8h-1v-8.1H187.2z"/>
		<path d="M195.5,75.4h-2.5v-0.9h6v0.9h-2.5v7.2h-1.1V75.4z"/>
		<path d="M206.8,79c-0.1-1.1-0.1-2.5-0.1-3.5h0c-0.3,0.9-0.6,2-1,3.1l-1.4,3.9h-0.8l-1.3-3.9c-0.4-1.1-0.7-2.2-0.9-3.1h0
			c0,1-0.1,2.4-0.2,3.6l-0.2,3.5h-1l0.6-8.1h1.3l1.4,3.9c0.3,1,0.6,1.9,0.8,2.7h0c0.2-0.8,0.5-1.7,0.9-2.7l1.4-3.9h1.3l0.5,8.1h-1
			L206.8,79z"/>
		<path d="M209.6,74.5h1v7.2h3.5v0.9h-4.5V74.5z"/>
		<path d="M197.2,84.5h1v5.4c0,2.1-1.1,2.8-2.4,2.8c-0.4,0-0.9-0.1-1.1-0.2l0.2-0.9c0.2,0.1,0.5,0.2,0.9,0.2c0.9,0,1.5-0.4,1.5-2
			V84.5z"/>
		<path d="M199.8,91.3c0.5,0.3,1.2,0.5,1.9,0.5c1.1,0,1.7-0.6,1.7-1.4c0-0.8-0.4-1.2-1.5-1.6c-1.3-0.5-2.1-1.2-2.1-2.3
			c0-1.3,1-2.2,2.6-2.2c0.8,0,1.4,0.2,1.8,0.4l-0.3,0.9c-0.3-0.1-0.8-0.4-1.5-0.4c-1.1,0-1.5,0.7-1.5,1.2c0,0.8,0.5,1.1,1.6,1.6
			c1.4,0.5,2.1,1.2,2.1,2.4c0,1.2-0.9,2.3-2.8,2.3c-0.8,0-1.6-0.2-2.1-0.5L199.8,91.3z"/>
	</g>
</g>
</svg>
