<?xml version="1.0" encoding="utf-8"?>
<!-- Generator: Adobe Illustrator 21.0.0, SVG Export Plug-In . SVG Version: 6.00 Build 0)  -->
<svg version="1.1" xmlns="http://www.w3.org/2000/svg" xmlns:xlink="http://www.w3.org/1999/xlink" x="0px" y="0px"
	 viewBox="0 0 286 180" style="enable-background:new 0 0 286 180;" xml:space="preserve">
<style type="text/css">
	.st0{fill:#FFFFFF;}
	.st1{font-family:'MyriadPro-Regular';}
	.st2{font-size:6px;}
	.st3{font-size:12px;}
	.st4{font-size:10px;}
	.st5{font-size:5px;}
	.st6{font-size:18px;}
	.st7{letter-spacing:1;}
</style>
<g id="Layer_1">
</g>
<g id="Layer_2">
	<g>
		<g>
			<path class="st0" d="M119.1,20.2c38.2,0,76.4,0,114.6,0c0,46.5,0,93,0,139.6c-60.5,0-120.9,0-181.4,0c0-30.6,0-61.2,0-91.8
				c2.5,1.4,5.1,2.7,7.5,4.2c0.6,0.4,1.1,1.3,1.1,2c0.1,2.6,0.9,5.8-0.2,7.8c-1.2,2.1-4.4,3-6.7,4.3c-1.2,0.7-1.4,1.4-1,2.6
				c0.7,2.3,1.4,4.7,2,7c0.3,1.4,1,1.8,2.4,1.7c2.1-0.2,4.2-0.2,6.2-0.3c1.1-0.1,1.8,0.2,2.3,1.4c1,2,2.1,3.9,3.4,5.7
				c0.7,1,0.7,1.7,0.1,2.7c-1.4,2.3-2.7,4.7-4,6.8c1.6,1.7,3,3.2,4.5,4.6c3.1,3.1,3.3,3.3,6.9,0.8c3-2.2,5.2-2.2,8.7-0.3
				c3.7,2,4.8,4.1,4.5,8.1c-0.4,3.9-0.1,4,3.7,5c2.2,0.6,4.8,1.9,6.6,1.2c1.6-0.7,2.4-3.5,3.4-5.5c0.8-1.7,1.8-2.6,3.9-2.3
				c1.8,0.3,3.7,0.1,5.6-0.1c1.3-0.1,2,0.3,2.5,1.4c1.2,2.3,2.5,4.5,3.9,6.8c3-0.9,6-1.8,9-2.5c1.3-0.3,1.5-1,1.5-2.1
				c-0.1-2.1,0-4.2-0.2-6.2c-0.1-1.2,0.4-1.8,1.4-2.3c2-1,3.9-2.4,6-3.4c0.7-0.3,1.8-0.4,2.4-0.1c2,1,3.8,2.2,5.8,3.3
				c0.5,0.2,1.5,0.3,1.8-0.1c2.4-2.3,4.6-4.7,6.9-7.1c-1.4-2.3-2.8-4.4-4-6.6c-0.3-0.6-0.3-1.7,0-2.4c1.1-2.2,2.5-4.2,3.5-6.4
				c0.5-1.1,1.2-1.4,2.3-1.4c2.5,0.1,5,0,7.5,0c0.6-2.3,1.2-4.4,1.7-6.6c1-3.9,1.1-4.2-2.7-5.8c-3.4-1.4-5-3.4-4.1-7.1
				c0.3-1.1,0.1-2.4-0.1-3.6c-0.3-1.6,0.4-2.4,1.8-3.2c2-1,4.7-1.9,5.4-3.5c0.7-1.6-0.8-4.2-1.4-6.3c-1.1-3.9-1.1-3.9-5.2-3.8
				c-1.1,0-2.2,0-3.2,0.1c-1.1,0.1-1.8-0.3-2.4-1.3c-1.2-2.2-2.6-4.3-3.8-6.5c-0.3-0.6-0.4-1.6-0.1-2.2c1.2-2.3,2.5-4.4,3.4-5.9
				c-2.6-3-5-5.7-7.3-8.4c-2,1.2-3.7,2.1-5.2,3.2c-1.8,1.4-3.3,1.7-5.3,0.1c-1.4-1.1-3.1-1.8-4.7-2.5c-1.2-0.5-1.8-1.1-1.7-2.5
				c0.1-1.9,0-3.9,0.2-5.8c0.1-1.5-0.5-2-1.8-2.3C124.3,21.8,121.7,20.9,119.1,20.2z M172.1,60.1c1.3,1.9,2.6,3.8,3.8,5.6
				c1.6,2.4,0.7,4.8-2.1,5.5c-0.8,0.2-1.7,0.4-2.5,0.6c-4.8,1.1-4.8,1.1-4.9,6.1c0,0.1-0.1,0.3,0,0.4c0.4,0.6,0.8,1.5,1.4,1.8
				c1.8,0.8,3.8,1.3,5.6,2.2c0.7,0.3,1.3,1.1,1.7,1.8c1,1.6,0.3,2.9-0.9,4.1c-1.2,1.2-2.3,2.6-3.4,3.9c-0.3,0.4-0.7,1-0.6,1.3
				c1,1.7,1.9,3.6,3.3,5c0.5,0.5,2.2-0.1,3.4-0.4c1.2-0.3,2.4-0.6,3.5-1c1.2-0.4,2-0.2,3.1,0.6c1.3,1,1.8,2,1.5,3.6
				c-0.3,1.7-0.3,3.4-0.5,5.1c0,0.5,0,1.3,0.2,1.4c1.9,0.9,3.8,1.8,5.8,2.2c0.5,0.1,1.5-1.3,2.2-2.1c0.8-0.9,1.4-1.8,2.1-2.7
				c2.1-2.7,4.8-2.6,6.6,0.3c0.6,0.9,1.1,1.8,1.7,2.8c1.8,2.9,1.8,2.9,5,2c3.5-0.9,3.5-0.9,3.5-4.6c0-0.8,0.1-1.6,0.1-2.4
				c0.1-3.9,2.3-5.4,6-3.9c1.4,0.6,2.8,1.2,4.2,1.7c0.5,0.2,1.3,0.4,1.6,0.1c1.3-1.5,2.9-2.9,3.7-4.7c0.3-0.8-1-2.3-1.7-3.4
				c-0.3-0.6-0.8-1.2-1.2-1.8c-2.2-3.2-1.3-5.6,2.5-6.5c1.5-0.4,3.1-0.7,4.6-1.1c0.5-0.1,1.1-0.6,1.1-1c0.2-2,0.6-4.1,0.1-5.9
				c-0.2-0.9-2.4-1.2-3.7-1.8c-0.6-0.3-1.2-0.5-1.8-0.7c-3.4-1.2-4.1-3.6-1.7-6.4c1-1.2,2.1-2.4,3.1-3.6c0.3-0.4,0.8-1,0.7-1.2
				c-1-1.8-2-3.7-3.4-5.2c-0.5-0.5-2.2,0.1-3.3,0.3c-1.1,0.2-2.1,0.6-3.1,0.9c-3.2,0.9-5.2-0.8-4.8-4.1c0.1-0.9,0.1-1.7,0.2-2.6
				c0.3-4,0.2-3.9-3.7-5.5c-1.9-0.7-3.2-0.8-4.2,1.2c-0.6,1.1-1.6,2.1-2.4,3.1c-2.1,2.7-4.4,2.6-6.1-0.3c-0.9-1.5-1.8-3.1-2.8-4.6
				c-0.3-0.4-1-0.9-1.5-0.8c-2,0.4-4,1-6.2,1.5c0,2.6,0.1,5.1,0,7.5c0,0.7-0.5,1.4-1,1.9c-1.6,1.8-3.3,0.8-5,0.1
				C175.8,54.3,175.8,54.3,172.1,60.1z M177.2,108.6c-0.5,0.8-1,1.5-1.3,2.3c-0.6,1.9-2.2,1.3-3.5,1.5c-1.3,0.2-2.1-0.4-2.5-1.5
				c-0.7-1.9-1.9-2.5-3.8-1.6c-0.7,0.3-1.5,0.5-2.2,0.7c0,1,0.2,1.9,0,2.7c-0.2,0.8-0.6,1.8-1.2,2.4c-1,0.9-2.2,2-3.8,0.6
				c-1.7-1.5-3.1-1.3-4.4,0.6c-0.4,0.6-0.9,1-1.3,1.4c0.4,2.1,2.8,3.1,1.3,5.8c-1.5,2.8-3.7,1.3-5.6,2c-0.1,0.5-0.3,1-0.5,1.6
				c-0.9,2.1-0.5,3.7,1.9,4.4c0.5,0.2,1.1,0.6,1.2,1.1c0.7,1.9-0.2,4.2-2.1,5c-2,0.9-1.3,2.2-0.9,3.5c0.3,1.2,0.5,2.5,2.4,2.1
				c0.9-0.2,2.2,0,2.7,0.5c1.9,1.8,1.9,3.2,0.6,5.4c-0.3,0.5-0.5,1-0.8,1.6c0.7,0.6,1.4,1.1,2,1.8c1,1.2,2,1.5,3.2,0.4
				c1.6-1.5,2.9-0.5,4.4,0.2c1.5,0.7,1.5,1.9,1.3,3c-0.3,2.1,1,2.3,2.5,2.7c1.5,0.4,2.7,0.7,3.4-1.3c0.3-0.8,1.1-1.7,1.7-1.9
				c2.1-0.4,4.2-0.5,5,2.2c0.1,0.4,0.5,0.8,0.8,1.3c1.6-0.4,3-0.9,4.5-1.3c0-1.1,0-2,0-3c0.1-1.8,3.5-3.9,4.8-2.8
				c2,1.6,3.4,1.1,4.7-0.8c0.3-0.5,0.8-0.8,1.2-1.3c-0.3-0.5-0.5-0.9-0.7-1.3c-1.9-3.1-0.2-6.1,3.5-6.3c0.6,0,1.5-0.5,1.7-1
				c0.5-1.1,0.6-2.4,0.9-3.5c-0.4-0.3-0.6-0.4-0.8-0.5c-1.4-0.7-2.8-1.2-2.7-3.5c0.1-2,0.5-3.1,2.3-4c2-0.9,0.4-2.3,0.3-3.5
				c-0.1-1-0.4-1.9-1.9-1.7c-0.9,0.1-2.2,0.1-2.8-0.5c-2-2-2.1-3.5-0.8-5.9c0.2-0.3,0.3-0.6,0.5-1.1c-0.9-0.8-1.6-1.7-2.6-2.3
				c-0.6-0.3-1.7-0.5-2.1-0.2c-2,1.9-3.8,0.8-5.3-0.4c-0.7-0.6-0.7-2.2-1-3.3c-0.1-0.3,0-0.7,0-1.2
				C180.3,109.4,178.8,109,177.2,108.6z M171,48.5c1.5,0.8,2.8,1.3,3.9,2c0.8,0.6,1.4,1.2,2.6,0.6c1.2-0.6,1.3-1.4,1.2-2.6
				c-0.4-2.9,1.6-5.3,4.4-6c0.7-0.2,1.6-0.8,1.9-1.5c0.5-1,0.2-2-1-2.7c-2.6-1.6-3.2-4.4-2-7.2c0.3-0.6,0.2-1.8-0.3-2.2
				c-0.6-0.6-1.7-1.1-2.4-0.9c-3.3,0.8-5.2,0-7-3c-0.3-0.6-1.4-1-2-1c-0.8,0-1.8,0.5-2.2,1.1c-1.6,3.2-3,4-6.6,3.5
				c-0.7-0.1-1.7,0.6-2.2,1.2c-0.4,0.5-0.6,1.6-0.4,2.2c1.6,3.4,1.5,5.1-1.4,7.2c-1.1,0.8-1,1.7-0.5,2.6c0.4,0.7,1.1,1.4,1.8,1.6
				c3.1,0.5,4.7,2.3,4.6,5.4c0,1.1,0,2,1.3,2.6c1.3,0.5,1.9,0.1,2.8-0.7C168.5,49.8,169.7,49.3,171,48.5z"/>
			<path d="M119.1,20.2c2.6,0.7,5.2,1.5,7.8,2.2c1.3,0.3,1.9,0.8,1.8,2.3c-0.2,1.9,0,3.9-0.2,5.8c-0.1,1.4,0.5,2,1.7,2.5
				c1.6,0.7,3.4,1.4,4.7,2.5c1.9,1.5,3.5,1.3,5.3-0.1c1.5-1.2,3.3-2,5.2-3.2c2.3,2.6,4.6,5.3,7.3,8.4c-0.9,1.5-2.2,3.6-3.4,5.9
				c-0.3,0.6-0.2,1.6,0.1,2.2c1.2,2.2,2.6,4.3,3.8,6.5c0.6,1.1,1.2,1.4,2.4,1.3c1.1-0.1,2.2-0.1,3.2-0.1c4.1-0.1,4.1-0.1,5.2,3.8
				c0.6,2.1,2,4.7,1.4,6.3c-0.7,1.6-3.4,2.5-5.4,3.5c-1.4,0.7-2,1.5-1.8,3.2c0.2,1.2,0.4,2.5,0.1,3.6c-0.9,3.7,0.7,5.7,4.1,7.1
				c3.8,1.6,3.7,1.9,2.7,5.8c-0.6,2.1-1.1,4.3-1.7,6.6c-2.6,0-5,0.1-7.5,0c-1.1,0-1.8,0.3-2.3,1.4c-1.1,2.2-2.5,4.2-3.5,6.4
				c-0.3,0.7-0.3,1.8,0,2.4c1.2,2.2,2.6,4.3,4,6.6c-2.3,2.4-4.5,4.8-6.9,7.1c-0.3,0.3-1.3,0.3-1.8,0.1c-2-1-3.8-2.3-5.8-3.3
				c-0.7-0.3-1.7-0.2-2.4,0.1c-2,1-3.9,2.3-6,3.4c-1,0.5-1.5,1.1-1.4,2.3c0.1,2.1,0.1,4.2,0.2,6.2c0.1,1.1-0.2,1.8-1.5,2.1
				c-3,0.7-5.9,1.6-9,2.5c-1.3-2.3-2.7-4.5-3.9-6.8c-0.6-1.1-1.3-1.5-2.5-1.4c-1.9,0.2-3.8,0.4-5.6,0.1c-2.1-0.3-3.1,0.6-3.9,2.3
				c-1,2-1.8,4.8-3.4,5.5c-1.7,0.7-4.4-0.6-6.6-1.2c-3.8-1-4.1-1-3.7-5c0.4-3.9-0.8-6.1-4.5-8.1c-3.5-1.9-5.7-1.8-8.7,0.3
				c-3.6,2.6-3.7,2.4-6.9-0.8c-1.5-1.5-2.9-3-4.5-4.6c1.3-2.2,2.6-4.6,4-6.8c0.6-1,0.6-1.7-0.1-2.7c-1.2-1.8-2.4-3.7-3.4-5.7
				c-0.5-1.1-1.2-1.4-2.3-1.4c-2.1,0.1-4.2,0.1-6.2,0.3c-1.4,0.1-2.1-0.3-2.4-1.7c-0.6-2.4-1.2-4.7-2-7c-0.4-1.2-0.2-1.9,1-2.6
				c2.4-1.3,5.5-2.3,6.7-4.3c1.2-2,0.4-5.2,0.2-7.8c0-0.7-0.5-1.6-1.1-2c-2.4-1.5-5-2.8-7.5-4.2c0-0.3,0-0.6,0-0.9
				c0.7-2.6,1.6-5.2,2.2-7.8c0.3-1.4,0.9-1.9,2.3-1.8c1.8,0.1,3.6,0,5.4,0.2c2.1,0.2,3.5-0.3,4.2-2.5c0.5-1.5,1.5-2.9,2.5-4.3
				c0.8-1.1,0.7-1.8,0-2.9c-1.5-2.3-2.9-4.7-4.9-7.9c2.2-2,4.6-4,6.9-6c0.4-0.3,0.7-0.7,1.2-1.1c1.8,1,3.7,1.9,5.4,3.1
				c2.2,1.6,4.2,2,6.4,0c0.9-0.9,2.1-1.5,3.3-1.9c1.5-0.6,1.7-1.6,1.7-3c-0.1-2.6,0-5.3,0-8c2.9-0.8,5.9-1.6,8.8-2.5
				c1.1-0.3,1.7,0,2.2,1c1,2,2.1,3.9,3.3,5.8c0.5,0.7,1.5,1.2,2.3,1.3c2.3,0.1,4.6,0,6.9-0.1c0.5,0,1.3-0.2,1.5-0.6
				c1.4-2.6,2.7-5.3,4.1-8C118.2,20.2,118.7,20.2,119.1,20.2z M109.4,110.9c18.7,0,33.8-15,33.9-33.5c0.1-18.5-15.1-33.7-33.7-33.7
				C91.3,43.6,76,58.8,76,77C76,95.7,90.9,110.8,109.4,110.9z"/>
			<path class="st0" d="M117.8,20.2c-1.3,2.7-2.6,5.3-4.1,8c-0.2,0.4-1,0.5-1.5,0.6c-2.3,0.1-4.6,0.2-6.9,0.1
				c-0.8-0.1-1.8-0.6-2.3-1.3c-1.3-1.8-2.3-3.8-3.3-5.8c-0.5-1-1.1-1.3-2.2-1c-2.9,0.9-5.9,1.7-8.8,2.5c0,2.7-0.1,5.4,0,8
				c0.1,1.4-0.2,2.4-1.7,3c-1.2,0.5-2.4,1.1-3.3,1.9c-2.2,2.1-4.2,1.6-6.4,0c-1.7-1.2-3.6-2.1-5.4-3.1c-0.4,0.4-0.8,0.7-1.2,1.1
				c-2.3,2-4.6,4.1-6.9,6c1.9,3.1,3.3,5.5,4.9,7.9c0.7,1,0.8,1.8,0,2.9c-1,1.3-2,2.7-2.5,4.3c-0.7,2.2-2.2,2.7-4.2,2.5
				c-1.8-0.2-3.6,0-5.4-0.2c-1.4-0.1-2,0.5-2.3,1.8c-0.6,2.6-1.4,5.2-2.2,7.8c0-15.7,0-31.3,0-47C74.1,20.2,96,20.2,117.8,20.2z"/>
			<path d="M172.1,60.1c3.6-5.8,3.7-5.8,9.7-3.2c1.7,0.7,3.4,1.7,5-0.1c0.5-0.5,1-1.2,1-1.9c0.1-2.4,0-4.9,0-7.5
				c2.2-0.6,4.2-1.2,6.2-1.5c0.4-0.1,1.2,0.4,1.5,0.8c1,1.5,1.9,3.1,2.8,4.6c1.8,2.9,4,3,6.1,0.3c0.8-1,1.7-2,2.4-3.1
				c1.1-1.9,2.4-1.9,4.2-1.2c3.9,1.5,3.9,1.5,3.7,5.5c-0.1,0.9-0.1,1.7-0.2,2.6c-0.4,3.3,1.6,5,4.8,4.1c1-0.3,2.1-0.7,3.1-0.9
				c1.1-0.2,2.8-0.8,3.3-0.3c1.4,1.5,2.4,3.4,3.4,5.2c0.1,0.2-0.4,0.8-0.7,1.2c-1,1.2-2.1,2.4-3.1,3.6c-2.4,2.8-1.7,5.1,1.7,6.4
				c0.6,0.2,1.2,0.4,1.8,0.7c1.3,0.6,3.4,0.9,3.7,1.8c0.5,1.8,0.1,4-0.1,5.9c0,0.4-0.7,0.8-1.1,1c-1.5,0.4-3.1,0.7-4.6,1.1
				c-3.8,0.9-4.7,3.2-2.5,6.5c0.4,0.6,0.8,1.2,1.2,1.8c0.6,1.2,2,2.7,1.7,3.4c-0.8,1.8-2.3,3.2-3.7,4.7c-0.2,0.2-1.1,0.1-1.6-0.1
				c-1.4-0.5-2.8-1.1-4.2-1.7c-3.6-1.5-5.9-0.1-6,3.9c0,0.8-0.1,1.6-0.1,2.4c-0.1,3.7-0.1,3.7-3.5,4.6c-3.2,0.8-3.2,0.8-5-2
				c-0.6-0.9-1.1-1.8-1.7-2.8c-1.7-2.9-4.5-3-6.6-0.3c-0.7,0.9-1.4,1.8-2.1,2.7c-0.7,0.8-1.6,2.2-2.2,2.1c-2-0.4-3.9-1.4-5.8-2.2
				c-0.2-0.1-0.2-0.9-0.2-1.4c0.1-1.7,0.2-3.4,0.5-5.1c0.2-1.6-0.2-2.6-1.5-3.6c-1.1-0.8-1.9-1-3.1-0.6c-1.1,0.4-2.3,0.8-3.5,1
				c-1.1,0.2-2.9,0.9-3.4,0.4c-1.4-1.4-2.3-3.2-3.3-5c-0.1-0.2,0.3-0.9,0.6-1.3c1.1-1.3,2.2-2.7,3.4-3.9c1.3-1.2,1.9-2.5,0.9-4.1
				c-0.4-0.7-1-1.5-1.7-1.8c-1.8-0.8-3.8-1.3-5.6-2.2c-0.6-0.3-0.9-1.2-1.4-1.8c-0.1-0.1,0-0.3,0-0.4c0.1-5,0.1-5,4.9-6.1
				c0.8-0.2,1.7-0.4,2.5-0.6c2.7-0.6,3.7-3.1,2.1-5.5C174.7,63.8,173.4,62,172.1,60.1z M200.7,60.6c-9.3-0.8-17.7,6.6-18.6,16.5
				c-0.9,9.5,6.6,17.9,16.6,18.9c9.4,0.9,18.3-6.8,18.8-17C218.2,67.8,209,60.7,200.7,60.6z"/>
			<path d="M177.2,108.6c1.6,0.4,3.1,0.8,4.7,1.2c0,0.5-0.1,0.8,0,1.2c0.3,1.1,0.2,2.7,1,3.3c1.5,1.3,3.3,2.4,5.3,0.4
				c0.3-0.3,1.5-0.2,2.1,0.2c1,0.6,1.7,1.5,2.6,2.3c-0.2,0.5-0.4,0.8-0.5,1.1c-1.4,2.5-1.3,4,0.8,5.9c0.6,0.5,1.8,0.6,2.8,0.5
				c1.5-0.2,1.8,0.7,1.9,1.7c0.1,1.2,1.7,2.6-0.3,3.5c-1.8,0.8-2.2,2-2.3,4c-0.1,2.3,1.2,2.7,2.7,3.5c0.2,0.1,0.4,0.2,0.8,0.5
				c-0.3,1.1-0.4,2.4-0.9,3.5c-0.2,0.5-1.1,1-1.7,1c-3.7,0.2-5.4,3.2-3.5,6.3c0.3,0.4,0.5,0.9,0.7,1.3c-0.4,0.5-0.9,0.8-1.2,1.3
				c-1.3,1.9-2.7,2.3-4.7,0.8c-1.4-1.1-4.8,1.1-4.8,2.8c0,0.9,0,1.9,0,3c-1.5,0.4-3,0.9-4.5,1.3c-0.3-0.5-0.7-0.8-0.8-1.3
				c-0.8-2.7-2.9-2.6-5-2.2c-0.7,0.1-1.5,1.1-1.7,1.9c-0.7,1.9-1.9,1.7-3.4,1.3c-1.4-0.4-2.8-0.6-2.5-2.7c0.2-1.2,0.3-2.3-1.3-3
				c-1.5-0.7-2.8-1.7-4.4-0.2c-1.2,1.2-2.2,0.9-3.2-0.4c-0.5-0.7-1.3-1.1-2-1.8c0.3-0.7,0.6-1.2,0.8-1.6c1.3-2.3,1.3-3.6-0.6-5.4
				c-0.6-0.6-1.9-0.7-2.7-0.5c-1.9,0.4-2.1-0.9-2.4-2.1c-0.4-1.3-1.1-2.6,0.9-3.5c2-0.9,2.8-3.2,2.1-5c-0.2-0.5-0.7-0.9-1.2-1.1
				c-2.4-0.8-2.8-2.3-1.9-4.4c0.2-0.5,0.3-1.1,0.5-1.6c1.9-0.6,4.1,0.8,5.6-2c1.5-2.7-0.9-3.7-1.3-5.8c0.3-0.4,0.9-0.8,1.3-1.4
				c1.3-1.8,2.7-2.1,4.4-0.6c1.5,1.4,2.7,0.2,3.8-0.6c0.6-0.5,1-1.5,1.2-2.4c0.2-0.8,0-1.7,0-2.7c0.7-0.2,1.5-0.4,2.2-0.7
				c1.9-0.9,3.1-0.3,3.8,1.6c0.4,1.1,1.1,1.7,2.5,1.5c1.3-0.2,2.9,0.4,3.5-1.5C176.2,110.1,176.7,109.4,177.2,108.6z M173.4,119.2
				c-8.4,0-15.1,6.7-15.1,15c0,8.1,6.8,14.9,14.9,15c8.3,0.1,15.2-6.7,15.2-14.9C188.4,125.9,181.7,119.2,173.4,119.2z"/>
			<path d="M171,48.5c-1.3,0.8-2.5,1.3-3.4,2.1c-0.9,0.8-1.5,1.2-2.8,0.7c-1.3-0.6-1.3-1.5-1.3-2.6c0.1-3-1.6-4.8-4.6-5.4
				c-0.7-0.1-1.4-0.9-1.8-1.6c-0.5-0.9-0.6-1.8,0.5-2.6c2.9-2.2,3.1-3.8,1.4-7.2c-0.3-0.6-0.1-1.7,0.4-2.2c0.5-0.6,1.5-1.3,2.2-1.2
				c3.6,0.5,5-0.2,6.6-3.5c0.3-0.6,1.4-1.1,2.2-1.1c0.7,0,1.7,0.4,2,1c1.8,3,3.7,3.8,7,3c0.7-0.2,1.8,0.3,2.4,0.9
				c0.4,0.4,0.5,1.6,0.3,2.2c-1.2,2.9-0.6,5.6,2,7.2c1.2,0.7,1.5,1.7,1,2.7c-0.3,0.7-1.2,1.3-1.9,1.5c-2.8,0.7-4.7,3.1-4.4,6
				c0.2,1.2,0,2-1.2,2.6c-1.2,0.6-1.8,0-2.6-0.6C173.7,49.8,172.5,49.3,171,48.5z M163.9,38.1c0,3.9,3.1,7,7,7c3.8,0,7-3.1,7.1-6.9
				c0-3.9-3.2-7.1-7.1-7.1C166.9,31.1,163.9,34.2,163.9,38.1z"/>
			<path class="st0" d="M109.4,110.9C90.9,110.8,76,95.7,76,77c0-18.2,15.4-33.4,33.6-33.3c18.6,0.1,33.8,15.3,33.7,33.7
				C143.2,95.9,128.1,110.9,109.4,110.9z"/>
			<path class="st0" d="M200.7,60.6c8.2,0.1,17.4,7.2,16.9,18.4c-0.5,10.2-9.4,17.9-18.8,17c-10.1-1-17.5-9.5-16.6-18.9
				C183.1,67.2,191.5,59.7,200.7,60.6z"/>
			<path class="st0" d="M173.4,119.2c8.3,0,15,6.7,15,15c0,8.2-6.9,14.9-15.2,14.9c-8.1-0.1-14.9-6.8-14.9-15
				C158.3,125.9,165.1,119.2,173.4,119.2z"/>
			<path class="st0" d="M163.9,38.1c0-3.9,3-7,6.9-7.1c3.9-0.1,7.2,3.2,7.1,7.1c0,3.8-3.2,6.9-7.1,6.9C167,45,163.9,41.9,163.9,38.1
				z"/>
		</g>
		<text transform="matrix(1 0 0 1 187.4013 74.0122)"><tspan x="0" y="0" class="st1 st2">Teknologi</tspan><tspan x="0.2" y="11" class="st1 st3">WEB</tspan></text>
		<text transform="matrix(1 0 0 1 160.2774 136.9381)" class="st1 st4">Liquid</text>
		<text transform="matrix(1 0 0 1 164.6468 39.6384)" class="st1 st5">YAML</text>
		<text transform="matrix(1 0 0 1 89.1836 82.9369)" class="st1 st6 st7">Jekll</text>
	</g>
</g>
</svg>
