<?xml version="1.0" encoding="utf-8"?>
<!-- Generator: Adobe Illustrator 21.0.0, SVG Export Plug-In . SVG Version: 6.00 Build 0)  -->
<svg version="1.1" id="Layer_1" xmlns="http://www.w3.org/2000/svg" xmlns:xlink="http://www.w3.org/1999/xlink" x="0px" y="0px"
	 viewBox="0 0 259 180" style="enable-background:new 0 0 259 180;" xml:space="preserve">
<style type="text/css">
	.st0{fill:#FFFFFF;}
</style>
<g id="Layer_2">
	<g>
		<path class="st0" d="M107.8,26.8c35.4,0,70.8,0,106.3,0c0,43.1,0,86.2,0,129.5c-56.1,0-112.1,0-168.2,0c0-28.4,0-56.8,0-85.1
			c2.3,1.3,4.7,2.5,7,3.9c0.6,0.4,1,1.2,1,1.9c0.1,2.4,0.8,5.4-0.2,7.2c-1.1,1.9-4.1,2.8-6.2,4c-1.1,0.6-1.3,1.3-0.9,2.4
			c0.6,2.1,1.3,4.4,1.9,6.5c0.3,1.3,0.9,1.7,2.2,1.6c1.9-0.2,3.9-0.2,5.7-0.3c1-0.1,1.7,0.2,2.1,1.3c0.9,1.9,1.9,3.6,3.2,5.3
			c0.6,0.9,0.6,1.6,0.1,2.5c-1.3,2.1-2.5,4.4-3.7,6.3c1.5,1.6,2.8,3,4.2,4.3c2.9,2.9,3.1,3.1,6.4,0.7c2.8-2,4.8-2,8.1-0.3
			c3.4,1.9,4.5,3.8,4.2,7.5c-0.4,3.6-0.1,3.7,3.4,4.6c2,0.6,4.5,1.8,6.1,1.1c1.5-0.6,2.2-3.2,3.2-5.1c0.7-1.6,1.7-2.4,3.6-2.1
			c1.7,0.3,3.4,0.1,5.2-0.1c1.2-0.1,1.9,0.3,2.3,1.3c1.1,2.1,2.3,4.2,3.6,6.3c2.8-0.8,5.6-1.7,8.3-2.3c1.2-0.3,1.4-0.9,1.4-1.9
			c-0.1-1.9,0-3.9-0.2-5.7c-0.1-1.1,0.4-1.7,1.3-2.1c1.9-0.9,3.6-2.2,5.6-3.2c0.6-0.3,1.7-0.4,2.2-0.1c1.9,0.9,3.5,2,5.4,3.1
			c0.5,0.2,1.4,0.3,1.7-0.1c2.2-2.1,4.3-4.4,6.4-6.6c-1.3-2.1-2.6-4.1-3.7-6.1c-0.3-0.6-0.3-1.6,0-2.2c1-2,2.3-3.9,3.2-5.9
			c0.5-1,1.1-1.3,2.1-1.3c2.3,0.1,4.6,0,7,0c0.6-2.1,1.1-4.1,1.6-6.1c0.9-3.6,1-3.9-2.5-5.4c-3.2-1.3-4.6-3.2-3.8-6.6
			c0.3-1,0.1-2.2-0.1-3.3c-0.3-1.5,0.4-2.2,1.7-3c1.9-0.9,4.4-1.8,5-3.2c0.6-1.5-0.7-3.9-1.3-5.8c-1-3.6-1-3.6-4.8-3.5
			c-1,0-2,0-3,0.1s-1.7-0.3-2.2-1.2c-1.1-2-2.4-4-3.5-6c-0.3-0.6-0.4-1.5-0.1-2c1.1-2.1,2.3-4.1,3.2-5.5c-2.4-2.8-4.6-5.3-6.8-7.8
			c-1.9,1.1-3.4,1.9-4.8,3c-1.7,1.3-3.1,1.6-4.9,0.1c-1.3-1-2.9-1.7-4.4-2.3c-1.1-0.5-1.7-1-1.6-2.3c0.1-1.8,0-3.6,0.2-5.4
			c0.1-1.4-0.5-1.9-1.7-2.1C112.7,28.3,110.2,27.4,107.8,26.8z M157,63.8c1.2,1.8,2.4,3.5,3.5,5.2c1.5,2.2,0.6,4.5-1.9,5.1
			c-0.7,0.2-1.6,0.4-2.3,0.6c-4.5,1-4.5,1-4.5,5.7c0,0.1-0.1,0.3,0,0.4c0.4,0.6,0.7,1.4,1.3,1.7c1.7,0.7,3.5,1.2,5.2,2
			c0.6,0.3,1.2,1,1.6,1.7c0.9,1.5,0.3,2.7-0.8,3.8c-1.1,1.1-2.1,2.4-3.2,3.6c-0.3,0.4-0.6,0.9-0.6,1.2c0.9,1.6,1.8,3.3,3.1,4.6
			c0.5,0.5,2-0.1,3.2-0.4c1.1-0.3,2.2-0.6,3.2-0.9c1.1-0.4,1.9-0.2,2.9,0.6c1.2,0.9,1.7,1.9,1.4,3.3c-0.3,1.6-0.3,3.2-0.5,4.7
			c0,0.5,0,1.2,0.2,1.3c1.8,0.8,3.5,1.7,5.4,2c0.5,0.1,1.4-1.2,2-1.9c0.7-0.8,1.3-1.7,1.9-2.5c1.9-2.5,4.5-2.4,6.1,0.3
			c0.6,0.8,1,1.7,1.6,2.6c1.7,2.7,1.7,2.7,4.6,1.9c3.2-0.8,3.2-0.8,3.2-4.3c0-0.7,0.1-1.5,0.1-2.2c0.1-3.6,2.1-5,5.6-3.6
			c1.3,0.6,2.6,1.1,3.9,1.6c0.5,0.2,1.2,0.4,1.5,0.1c1.2-1.4,2.7-2.7,3.4-4.4c0.3-0.7-0.9-2.1-1.6-3.2c-0.3-0.6-0.7-1.1-1.1-1.7
			c-2-3-1.2-5.2,2.3-6c1.4-0.4,2.9-0.6,4.3-1c0.5-0.1,1-0.6,1-0.9c0.2-1.9,0.6-3.8,0.1-5.5c-0.2-0.8-2.2-1.1-3.4-1.7
			c-0.6-0.3-1.1-0.5-1.7-0.6c-3.2-1.1-3.8-3.3-1.6-5.9c0.9-1.1,1.9-2.2,2.9-3.3c0.3-0.4,0.7-0.9,0.6-1.1c-0.9-1.7-1.9-3.4-3.2-4.8
			c-0.5-0.5-2,0.1-3.1,0.3s-1.9,0.6-2.9,0.8c-3,0.8-4.8-0.7-4.5-3.8c0.1-0.8,0.1-1.6,0.2-2.4c0.3-3.7,0.2-3.6-3.4-5.1
			c-1.8-0.6-3-0.7-3.9,1.1c-0.6,1-1.5,1.9-2.2,2.9c-1.9,2.5-4.1,2.4-5.7-0.3c-0.8-1.4-1.7-2.9-2.6-4.3c-0.3-0.4-0.9-0.8-1.4-0.7
			c-1.9,0.4-3.7,0.9-5.7,1.4c0,2.4,0.1,4.7,0,7c0,0.6-0.5,1.3-0.9,1.8c-1.5,1.7-3.1,0.7-4.6,0.1C160.4,58.4,160.4,58.4,157,63.8z
			 M161.7,108.7c-0.5,0.7-0.9,1.4-1.2,2.1c-0.6,1.8-2,1.2-3.2,1.4s-1.9-0.4-2.3-1.4c-0.6-1.8-1.8-2.3-3.5-1.5
			c-0.6,0.3-1.4,0.5-2,0.6c0,0.9,0.2,1.8,0,2.5s-0.6,1.7-1.1,2.2c-0.9,0.8-2,1.9-3.5,0.6c-1.6-1.4-2.9-1.2-4.1,0.6
			c-0.4,0.6-0.8,0.9-1.2,1.3c0.4,1.9,2.6,2.9,1.2,5.4c-1.4,2.6-3.4,1.2-5.2,1.9c-0.1,0.5-0.3,0.9-0.5,1.5c-0.8,1.9-0.5,3.4,1.8,4.1
			c0.5,0.2,1,0.6,1.1,1c0.6,1.8-0.2,3.9-1.9,4.6c-1.9,0.8-1.2,2-0.8,3.2c0.3,1.1,0.5,2.3,2.2,1.9c0.8-0.2,2,0,2.5,0.5
			c1.8,1.7,1.8,3,0.6,5c-0.3,0.5-0.5,0.9-0.7,1.5c0.6,0.6,1.3,1,1.9,1.7c0.9,1.1,1.9,1.4,3,0.4c1.5-1.4,2.7-0.5,4.1,0.2
			c1.4,0.6,1.4,1.8,1.2,2.8c-0.3,1.9,0.9,2.1,2.3,2.5s2.5,0.6,3.2-1.2c0.3-0.7,1-1.6,1.6-1.8c1.9-0.4,3.9-0.5,4.6,2
			c0.1,0.4,0.5,0.7,0.7,1.2c1.5-0.4,2.8-0.8,4.2-1.2c0-1,0-1.9,0-2.8c0.1-1.7,3.2-3.6,4.5-2.6c1.9,1.5,3.2,1,4.4-0.7
			c0.3-0.5,0.7-0.7,1.1-1.2c-0.3-0.5-0.5-0.8-0.6-1.2c-1.8-2.9-0.2-5.7,3.2-5.8c0.6,0,1.4-0.5,1.6-0.9c0.5-1,0.6-2.2,0.8-3.2
			c-0.4-0.3-0.6-0.4-0.7-0.5c-1.3-0.6-2.6-1.1-2.5-3.2c0.1-1.9,0.5-2.9,2.1-3.7c1.9-0.8,0.4-2.1,0.3-3.2c-0.1-0.9-0.4-1.8-1.8-1.6
			c-0.8,0.1-2,0.1-2.6-0.5c-1.9-1.9-1.9-3.2-0.7-5.5c0.2-0.3,0.3-0.6,0.5-1c-0.8-0.7-1.5-1.6-2.4-2.1c-0.6-0.3-1.6-0.5-1.9-0.2
			c-1.9,1.8-3.5,0.7-4.9-0.4c-0.6-0.6-0.6-2-0.9-3.1c-0.1-0.3,0-0.6,0-1.1C164.6,109.5,163.2,109.1,161.7,108.7z M156,53
			c1.4,0.7,2.6,1.2,3.6,1.9c0.7,0.6,1.3,1.1,2.4,0.6c1.1-0.6,1.2-1.3,1.1-2.4c-0.4-2.7,1.5-4.9,4.1-5.6c0.6-0.2,1.5-0.7,1.8-1.4
			c0.5-0.9,0.2-1.9-0.9-2.5c-2.4-1.5-3-4.1-1.9-6.7c0.3-0.6,0.2-1.7-0.3-2c-0.6-0.6-1.6-1-2.2-0.8c-3.1,0.7-4.8,0-6.5-2.8
			c-0.3-0.6-1.3-0.9-1.9-0.9c-0.7,0-1.7,0.5-2,1c-1.5,3-2.8,3.7-6.1,3.2c-0.6-0.1-1.6,0.6-2,1.1s-0.6,1.5-0.4,2
			c1.5,3.2,1.4,4.7-1.3,6.7c-1,0.7-0.9,1.6-0.5,2.4c0.4,0.6,1,1.3,1.7,1.5c2.9,0.5,4.4,2.1,4.3,5c0,1,0,1.9,1.2,2.4s1.8,0.1,2.6-0.6
			C153.6,54.2,154.8,53.8,156,53z"/>
		<path d="M107.8,26.8c2.4,0.6,4.8,1.4,7.2,2c1.2,0.3,1.8,0.7,1.7,2.1c-0.2,1.8,0,3.6-0.2,5.4c-0.1,1.3,0.5,1.9,1.6,2.3
			c1.5,0.6,3.2,1.3,4.4,2.3c1.8,1.4,3.2,1.2,4.9-0.1c1.4-1.1,3.1-1.9,4.8-3c2.1,2.4,4.3,4.9,6.8,7.8c-0.8,1.4-2,3.3-3.2,5.5
			c-0.3,0.6-0.2,1.5,0.1,2c1.1,2,2.4,4,3.5,6c0.6,1,1.1,1.3,2.2,1.2c1-0.1,2-0.1,3-0.1c3.8-0.1,3.8-0.1,4.8,3.5
			c0.6,1.9,1.9,4.4,1.3,5.8c-0.6,1.5-3.2,2.3-5,3.2c-1.3,0.6-1.9,1.4-1.7,3c0.2,1.1,0.4,2.3,0.1,3.3c-0.8,3.4,0.6,5.3,3.8,6.6
			c3.5,1.5,3.4,1.8,2.5,5.4c-0.6,1.9-1,4-1.6,6.1c-2.4,0-4.6,0.1-7,0c-1,0-1.7,0.3-2.1,1.3c-1,2-2.3,3.9-3.2,5.9
			c-0.3,0.6-0.3,1.7,0,2.2c1.1,2,2.4,4,3.7,6.1c-2.1,2.2-4.2,4.5-6.4,6.6c-0.3,0.3-1.2,0.3-1.7,0.1c-1.9-0.9-3.5-2.1-5.4-3.1
			c-0.6-0.3-1.6-0.2-2.2,0.1c-1.9,0.9-3.6,2.1-5.6,3.2c-0.9,0.5-1.4,1-1.3,2.1c0.1,1.9,0.1,3.9,0.2,5.7c0.1,1-0.2,1.7-1.4,1.9
			c-2.8,0.6-5.5,1.5-8.3,2.3c-1.2-2.1-2.5-4.2-3.6-6.3c-0.6-1-1.2-1.4-2.3-1.3c-1.8,0.2-3.5,0.4-5.2,0.1c-1.9-0.3-2.9,0.6-3.6,2.1
			c-0.9,1.9-1.7,4.5-3.2,5.1c-1.6,0.6-4.1-0.6-6.1-1.1c-3.5-0.9-3.8-0.9-3.4-4.6c0.4-3.6-0.7-5.7-4.2-7.5c-3.2-1.8-5.3-1.7-8.1,0.3
			c-3.3,2.4-3.4,2.2-6.4-0.7c-1.4-1.4-2.7-2.8-4.2-4.3c1.2-2,2.4-4.3,3.7-6.3c0.6-0.9,0.6-1.6-0.1-2.5c-1.1-1.7-2.2-3.4-3.2-5.3
			c-0.5-1-1.1-1.3-2.1-1.3c-1.9,0.1-3.9,0.1-5.7,0.3c-1.3,0.1-1.9-0.3-2.2-1.6c-0.6-2.2-1.1-4.4-1.9-6.5c-0.4-1.1-0.2-1.8,0.9-2.4
			c2.2-1.2,5.1-2.1,6.2-4s0.4-4.8,0.2-7.2c0-0.6-0.5-1.5-1-1.9c-2.2-1.4-4.6-2.6-7-3.9c0-0.3,0-0.6,0-0.8c0.6-2.4,1.5-4.8,2-7.2
			c0.3-1.3,0.8-1.8,2.1-1.7c1.7,0.1,3.3,0,5,0.2c1.9,0.2,3.2-0.3,3.9-2.3c0.5-1.4,1.4-2.7,2.3-4c0.7-1,0.6-1.7,0-2.7
			c-1.4-2.1-2.7-4.4-4.5-7.3c2-1.9,4.3-3.7,6.4-5.6c0.4-0.3,0.6-0.6,1.1-1c1.7,0.9,3.4,1.8,5,2.9c2,1.5,3.9,1.9,5.9,0
			c0.8-0.8,1.9-1.4,3.1-1.8c1.4-0.6,1.6-1.5,1.6-2.8c-0.1-2.4,0-4.9,0-7.4c2.7-0.7,5.5-1.5,8.2-2.3c1-0.3,1.6,0,2,0.9
			c0.9,1.9,1.9,3.6,3.1,5.4c0.5,0.6,1.4,1.1,2.1,1.2c2.1,0.1,4.3,0,6.4-0.1c0.5,0,1.2-0.2,1.4-0.6c1.3-2.4,2.5-4.9,3.8-7.4
			C107,26.8,107.5,26.8,107.8,26.8z M98.8,110.9c17.3,0,31.3-13.9,31.4-31.1c0.1-17.2-14-31.2-31.2-31.2c-17-0.1-31.2,14-31.2,30.9
			C67.9,96.8,81.7,110.8,98.8,110.9z"/>
		<path class="st0" d="M106.6,26.8c-1.2,2.5-2.4,4.9-3.8,7.4c-0.2,0.4-0.9,0.5-1.4,0.6c-2.1,0.1-4.3,0.2-6.4,0.1
			c-0.7-0.1-1.7-0.6-2.1-1.2c-1.2-1.7-2.1-3.5-3.1-5.4c-0.5-0.9-1-1.2-2-0.9c-2.7,0.8-5.5,1.6-8.2,2.3c0,2.5-0.1,5,0,7.4
			c0.1,1.3-0.2,2.2-1.6,2.8c-1.1,0.5-2.2,1-3.1,1.8c-2,1.9-3.9,1.5-5.9,0c-1.6-1.1-3.3-1.9-5-2.9c-0.4,0.4-0.7,0.6-1.1,1
			c-2.1,1.9-4.3,3.8-6.4,5.6c1.8,2.9,3.1,5.1,4.5,7.3c0.6,0.9,0.7,1.7,0,2.7c-0.9,1.2-1.9,2.5-2.3,4c-0.6,2-2,2.5-3.9,2.3
			c-1.7-0.2-3.3,0-5-0.2c-1.3-0.1-1.9,0.5-2.1,1.7c-0.6,2.4-1.3,4.8-2,7.2c0-14.6,0-29,0-43.6C66.1,26.8,86.4,26.8,106.6,26.8z"/>
		<path d="M157,63.8c3.3-5.4,3.4-5.4,9-3c1.6,0.6,3.2,1.6,4.6-0.1c0.5-0.5,0.9-1.1,0.9-1.8c0.1-2.2,0-4.5,0-7c2-0.6,3.9-1.1,5.7-1.4
			c0.4-0.1,1.1,0.4,1.4,0.7c0.9,1.4,1.8,2.9,2.6,4.3c1.7,2.7,3.7,2.8,5.7,0.3c0.7-0.9,1.6-1.9,2.2-2.9c1-1.8,2.2-1.8,3.9-1.1
			c3.6,1.4,3.6,1.4,3.4,5.1c-0.1,0.8-0.1,1.6-0.2,2.4c-0.4,3.1,1.5,4.6,4.5,3.8c0.9-0.3,1.9-0.6,2.9-0.8s2.6-0.7,3.1-0.3
			c1.3,1.4,2.2,3.2,3.2,4.8c0.1,0.2-0.4,0.7-0.6,1.1c-0.9,1.1-1.9,2.2-2.9,3.3c-2.2,2.6-1.6,4.7,1.6,5.9c0.6,0.2,1.1,0.4,1.7,0.6
			c1.2,0.6,3.2,0.8,3.4,1.7c0.5,1.7,0.1,3.7-0.1,5.5c0,0.4-0.6,0.7-1,0.9c-1.4,0.4-2.9,0.6-4.3,1c-3.5,0.8-4.4,3-2.3,6
			c0.4,0.6,0.7,1.1,1.1,1.7c0.6,1.1,1.9,2.5,1.6,3.2c-0.7,1.7-2.1,3-3.4,4.4c-0.2,0.2-1,0.1-1.5-0.1c-1.3-0.5-2.6-1-3.9-1.6
			c-3.3-1.4-5.5-0.1-5.6,3.6c0,0.7-0.1,1.5-0.1,2.2c-0.1,3.4-0.1,3.4-3.2,4.3c-3,0.7-3,0.7-4.6-1.9c-0.6-0.8-1-1.7-1.6-2.6
			c-1.6-2.7-4.2-2.8-6.1-0.3c-0.6,0.8-1.3,1.7-1.9,2.5c-0.6,0.7-1.5,2-2,1.9c-1.9-0.4-3.6-1.3-5.4-2c-0.2-0.1-0.2-0.8-0.2-1.3
			c0.1-1.6,0.2-3.2,0.5-4.7c0.2-1.5-0.2-2.4-1.4-3.3c-1-0.7-1.8-0.9-2.9-0.6c-1,0.4-2.1,0.7-3.2,0.9c-1,0.2-2.7,0.8-3.2,0.4
			c-1.3-1.3-2.1-3-3.1-4.6c-0.1-0.2,0.3-0.8,0.6-1.2c1-1.2,2-2.5,3.2-3.6s1.8-2.3,0.8-3.8c-0.4-0.6-0.9-1.4-1.6-1.7
			c-1.7-0.7-3.5-1.2-5.2-2c-0.6-0.3-0.8-1.1-1.3-1.7c-0.1-0.1,0-0.3,0-0.4c0.1-4.6,0.1-4.6,4.5-5.7c0.7-0.2,1.6-0.4,2.3-0.6
			c2.5-0.6,3.4-2.9,1.9-5.1C159.4,67.2,158.2,65.5,157,63.8z M183.5,64.2c-8.6-0.7-16.4,6.1-17.2,15.3c-0.8,8.8,6.1,16.6,15.4,17.5
			c8.7,0.8,17-6.3,17.4-15.8C199.7,70.9,191.2,64.3,183.5,64.2z"/>
		<path d="M161.7,108.7c1.5,0.4,2.9,0.7,4.4,1.1c0,0.5-0.1,0.7,0,1.1c0.3,1,0.2,2.5,0.9,3.1c1.4,1.2,3.1,2.2,4.9,0.4
			c0.3-0.3,1.4-0.2,1.9,0.2c0.9,0.6,1.6,1.4,2.4,2.1c-0.2,0.5-0.4,0.7-0.5,1c-1.3,2.3-1.2,3.7,0.7,5.5c0.6,0.5,1.7,0.6,2.6,0.5
			c1.4-0.2,1.7,0.6,1.8,1.6c0.1,1.1,1.6,2.4-0.3,3.2c-1.7,0.7-2,1.9-2.1,3.7c-0.1,2.1,1.1,2.5,2.5,3.2c0.2,0.1,0.4,0.2,0.7,0.5
			c-0.3,1-0.4,2.2-0.8,3.2c-0.2,0.5-1,0.9-1.6,0.9c-3.4,0.2-5,3-3.2,5.8c0.3,0.4,0.5,0.8,0.6,1.2c-0.4,0.5-0.8,0.7-1.1,1.2
			c-1.2,1.8-2.5,2.1-4.4,0.7c-1.3-1-4.5,1-4.5,2.6c0,0.8,0,1.8,0,2.8c-1.4,0.4-2.8,0.8-4.2,1.2c-0.3-0.5-0.6-0.7-0.7-1.2
			c-0.7-2.5-2.7-2.4-4.6-2c-0.6,0.1-1.4,1-1.6,1.8c-0.6,1.8-1.8,1.6-3.2,1.2c-1.3-0.4-2.6-0.6-2.3-2.5c0.2-1.1,0.3-2.1-1.2-2.8
			c-1.4-0.6-2.6-1.6-4.1-0.2c-1.1,1.1-2,0.8-3-0.4c-0.5-0.6-1.2-1-1.9-1.7c0.3-0.6,0.6-1.1,0.7-1.5c1.2-2.1,1.2-3.3-0.6-5
			c-0.6-0.6-1.8-0.6-2.5-0.5c-1.8,0.4-1.9-0.8-2.2-1.9c-0.4-1.2-1-2.4,0.8-3.2s2.6-3,1.9-4.6c-0.2-0.5-0.6-0.8-1.1-1
			c-2.2-0.7-2.6-2.1-1.8-4.1c0.2-0.5,0.3-1,0.5-1.5c1.8-0.6,3.8,0.7,5.2-1.9c1.4-2.5-0.8-3.4-1.2-5.4c0.3-0.4,0.8-0.7,1.2-1.3
			c1.2-1.7,2.5-1.9,4.1-0.6c1.4,1.3,2.5,0.2,3.5-0.6c0.6-0.5,0.9-1.4,1.1-2.2c0.2-0.7,0-1.6,0-2.5c0.6-0.2,1.4-0.4,2-0.6
			c1.8-0.8,2.9-0.3,3.5,1.5c0.4,1,1,1.6,2.3,1.4c1.2-0.2,2.7,0.4,3.2-1.4C160.8,110.1,161.2,109.5,161.7,108.7z M158.2,118.6
			c-7.8,0-14,6.2-14,13.9c0,7.5,6.3,13.8,13.8,13.9c7.7,0.1,14.1-6.2,14.1-13.8C172.1,124.8,165.9,118.6,158.2,118.6z"/>
		<path d="M156,53c-1.2,0.7-2.3,1.2-3.2,1.9c-0.8,0.7-1.4,1.1-2.6,0.6c-1.2-0.6-1.2-1.4-1.2-2.4c0.1-2.8-1.5-4.5-4.3-5
			c-0.6-0.1-1.3-0.8-1.7-1.5c-0.5-0.8-0.6-1.7,0.5-2.4c2.7-2,2.9-3.5,1.3-6.7c-0.3-0.6-0.1-1.6,0.4-2c0.5-0.6,1.4-1.2,2-1.1
			c3.3,0.5,4.6-0.2,6.1-3.2c0.3-0.6,1.3-1,2-1c0.6,0,1.6,0.4,1.9,0.9c1.7,2.8,3.4,3.5,6.5,2.8c0.6-0.2,1.7,0.3,2.2,0.8
			c0.4,0.4,0.5,1.5,0.3,2c-1.1,2.7-0.6,5.2,1.9,6.7c1.1,0.6,1.4,1.6,0.9,2.5c-0.3,0.6-1.1,1.2-1.8,1.4c-2.6,0.6-4.4,2.9-4.1,5.6
			c0.2,1.1,0,1.9-1.1,2.4c-1.1,0.6-1.7,0-2.4-0.6C158.5,54.2,157.3,53.8,156,53z M149.4,43.4c0,3.6,2.9,6.5,6.5,6.5
			c3.5,0,6.5-2.9,6.6-6.4c0-3.6-3-6.6-6.6-6.6C152.2,36.9,149.4,39.8,149.4,43.4z"/>
		<path class="st0" d="M98.8,110.9c-17.2-0.1-31-14.1-31-31.4c0-16.9,14.3-31,31.2-30.9c17.2,0.1,31.3,14.2,31.2,31.2
			C130.2,97,116.2,110.9,98.8,110.9z"/>
		<path class="st0" d="M183.5,64.2c7.6,0.1,16.1,6.7,15.7,17.1c-0.5,9.5-8.7,16.6-17.4,15.8c-9.4-0.9-16.2-8.8-15.4-17.5
			C167.2,70.4,175,63.4,183.5,64.2z"/>
		<path class="st0" d="M158.2,118.6c7.7,0,13.9,6.2,13.9,13.9c0,7.6-6.4,13.8-14.1,13.8c-7.5-0.1-13.8-6.3-13.8-13.9
			C144.2,124.8,150.5,118.6,158.2,118.6z"/>
		<path class="st0" d="M149.4,43.4c0-3.6,2.8-6.5,6.4-6.6c3.6-0.1,6.7,3,6.6,6.6c0,3.5-3,6.4-6.6,6.4
			C152.2,49.8,149.4,46.9,149.4,43.4z"/>
	</g>
	<g>
		<path d="M146.7,128.8h0.8v5.6h2.7v0.6h-3.5V128.8z"/>
		<path d="M152,129.2c0,0.3-0.2,0.5-0.6,0.5c-0.3,0-0.5-0.2-0.5-0.5s0.2-0.5,0.5-0.5C151.8,128.8,152,129,152,129.2z M151,135v-4.5
			h0.8v4.5H151z"/>
		<path d="M156.3,134.3L156.3,134.3c-0.3,0.5-0.7,0.8-1.5,0.8c-1,0-1.9-0.9-1.9-2.2c0-1.7,1.1-2.4,2-2.4c0.7,0,1.2,0.4,1.4,0.7l0,0
			v-0.6h0.7c0,0.4,0,0.7,0,1.2v5.1h-0.8v-2.6H156.3z M156.3,132.4c0-0.1,0-0.3,0-0.4c-0.1-0.5-0.6-0.9-1.2-0.9
			c-0.8,0-1.4,0.7-1.4,1.8c0,0.9,0.5,1.7,1.3,1.7c0.6,0,1-0.3,1.2-0.9c0-0.1,0.1-0.3,0.1-0.4L156.3,132.4L156.3,132.4z"/>
		<path d="M162.2,133.8c0,0.5,0,0.8,0,1.2h-0.6v-0.7l0,0c-0.2,0.4-0.6,0.8-1.5,0.8c-0.7,0-1.6-0.4-1.6-1.9v-2.7h0.8v2.5
			c0,0.8,0.3,1.4,1,1.4c0.6,0,0.9-0.4,1.1-0.7c0-0.1,0.1-0.3,0.1-0.4v-2.8h0.8v3.2L162.2,133.8L162.2,133.8z"/>
		<path d="M164.5,129.2c0,0.3-0.2,0.5-0.6,0.5c-0.3,0-0.5-0.2-0.5-0.5s0.2-0.5,0.5-0.5C164.3,128.8,164.5,129,164.5,129.2z
			 M163.6,135v-4.5h0.8v4.5H163.6z"/>
		<path d="M169.6,128.4v5.4c0,0.4,0,0.8,0,1.2H169v-0.7l0,0c-0.3,0.5-0.8,0.8-1.5,0.8c-1.1,0-1.9-0.9-1.9-2.3c0-1.5,0.9-2.4,2-2.4
			c0.6,0,1.1,0.3,1.4,0.6l0,0v-2.7L169.6,128.4L169.6,128.4L169.6,128.4z M168.8,132.4c0-0.1,0-0.3,0-0.4c-0.1-0.6-0.6-0.9-1.2-0.9
			c-0.8,0-1.3,0.7-1.3,1.8c0,0.9,0.5,1.7,1.3,1.7c0.6,0,1-0.4,1.2-0.9c0-0.1,0-0.2,0-0.4V132.4z"/>
	</g>
	<g>
		<path d="M151.3,44.8v-1.3l-1-1.8h0.5l0.5,0.8c0.1,0.3,0.2,0.5,0.3,0.6l0,0c0.1-0.2,0.2-0.4,0.3-0.6l0.5-0.8h0.5l-1,1.8v1.3H151.3z
			"/>
		<path d="M153.3,43.8l-0.4,1h-0.5l1-3.2h0.5l1.1,3.2h-0.5l-0.4-1H153.3z M154.3,43.5l-0.3-1c-0.1-0.2-0.1-0.4-0.2-0.6l0,0
			c0,0.2-0.1,0.4-0.2,0.6l-0.3,0.9L154.3,43.5L154.3,43.5z"/>
		<path d="M158.2,43.5c0-0.5-0.1-0.9,0-1.4l0,0c-0.1,0.4-0.3,0.7-0.4,1.2l-0.6,1.5h-0.4l-0.5-1.5c-0.2-0.5-0.3-0.8-0.4-1.2l0,0
			c0,0.4,0,0.9-0.1,1.4l-0.1,1.3h-0.4l0.2-3.2h0.6l0.6,1.5c0.1,0.4,0.3,0.7,0.3,1l0,0c0.1-0.3,0.2-0.6,0.4-1l0.6-1.5h0.6l0.2,3.2
			h-0.4L158.2,43.5z"/>
		<path d="M159.3,41.7h0.4v2.8h1.3v0.4h-1.8L159.3,41.7L159.3,41.7z"/>
	</g>
	<g>
		<path d="M83.5,60.2H85v7.5c0,3-1.5,3.9-3.4,3.9c-0.6,0-1.2-0.1-1.6-0.3l0.2-1.2c0.3,0.1,0.7,0.2,1.2,0.2c1.3,0,2-0.6,2-2.8
			L83.5,60.2L83.5,60.2z"/>
		<path d="M89.5,67.7c0,1.9,1.3,2.8,2.8,2.8c1,0,1.7-0.2,2.2-0.5l0.3,1c-0.6,0.3-1.4,0.5-2.7,0.5c-2.5,0-4-1.7-4-4.1
			s1.4-4.4,3.8-4.4c2.6,0,3.3,2.3,3.3,3.8c0,0.3,0,0.6-0.1,0.6h-5.7L89.5,67.7L89.5,67.7z M93.8,66.6c0-0.9-0.4-2.4-2-2.4
			c-1.5,0-2.1,1.4-2.2,2.4H93.8z"/>
		<path d="M99.8,67L99.8,67c0.3-0.3,0.6-0.6,0.7-0.9l2.4-2.8h1.8l-3.2,3.3l3.5,4.7h-1.8l-2.8-3.9l-0.7,0.8v3.1h-1.5V59.6h1.5
			L99.8,67L99.8,67z"/>
		<path d="M107.7,59.6h1.5v11.9h-1.5V59.6z"/>
		<path d="M113,59.6h1.5v11.9H113V59.6z"/>
	</g>
	<g>
		<path d="M180.1,75.1c-0.4,0.2-1.1,0.4-1.9,0.4c-2.1,0-3.7-1.3-3.7-3.8c0-2.3,1.6-3.9,3.9-3.9c0.9,0,1.5,0.2,1.8,0.4l-0.3,0.8
			c-0.4-0.2-0.9-0.3-1.5-0.3c-1.8,0-3,1.1-3,3.1c0,1.9,1,3.1,2.9,3.1c0.6,0,1.2-0.1,1.6-0.3L180.1,75.1z"/>
		<path d="M181.1,74.2c0.5,0.3,1.1,0.5,1.8,0.5c1,0,1.6-0.6,1.6-1.3c0-0.7-0.4-1.1-1.4-1.5c-1.2-0.5-1.9-1.1-1.9-2.1
			c0-1.2,0.9-2,2.4-2c0.7,0,1.3,0.2,1.7,0.4L185,69c-0.3-0.1-0.7-0.4-1.4-0.4c-1,0-1.4,0.6-1.4,1.1c0,0.7,0.5,1,1.5,1.5
			c1.3,0.5,1.9,1.1,1.9,2.2s-0.8,2.1-2.6,2.1c-0.7,0-1.5-0.2-1.9-0.5L181.1,74.2z"/>
		<path d="M186.7,74.2c0.5,0.3,1.1,0.5,1.8,0.5c1,0,1.6-0.6,1.6-1.3c0-0.7-0.4-1.1-1.4-1.5c-1.2-0.5-1.9-1.1-1.9-2.1
			c0-1.2,0.9-2,2.4-2c0.7,0,1.3,0.2,1.7,0.4l-0.3,0.8c-0.3-0.1-0.7-0.4-1.4-0.4c-1,0-1.4,0.6-1.4,1.1c0,0.7,0.5,1,1.5,1.5
			c1.3,0.5,1.9,1.1,1.9,2.2s-0.8,2.1-2.6,2.1c-0.7,0-1.5-0.2-1.9-0.5L186.7,74.2z"/>
		<path d="M171,77.1v3.2h3.6v-3.2h1v7.5h-1v-3.5H171v3.5h-0.9v-7.5H171z"/>
		<path d="M178.7,78h-2.3v-0.8h5.6V78h-2.3v6.7h-1V78L178.7,78z"/>
		<path d="M189.2,81.3c-0.1-1-0.1-2.3-0.1-3.2l0,0c-0.3,0.8-0.6,1.9-0.9,2.9l-1.3,3.6h-0.7L185,81c-0.4-1-0.6-2-0.8-2.9l0,0
			c0,0.9-0.1,2.2-0.2,3.3l-0.2,3.2h-0.9l0.6-7.5h1.2l1.3,3.6c0.3,0.9,0.6,1.8,0.7,2.5l0,0c0.2-0.7,0.5-1.6,0.8-2.5l1.3-3.6h1.2
			l0.5,7.5h-0.9L189.2,81.3z"/>
		<path d="M191.8,77.1h0.9v6.7h3.2v0.8h-4.2v-7.5H191.8z"/>
		<path d="M180.3,86.4h0.9v5c0,1.9-1,2.6-2.2,2.6c-0.4,0-0.8-0.1-1-0.2l0.2-0.8c0.2,0.1,0.5,0.2,0.8,0.2c0.8,0,1.4-0.4,1.4-1.9
			L180.3,86.4L180.3,86.4z"/>
		<path d="M182.7,92.7c0.5,0.3,1.1,0.5,1.8,0.5c1,0,1.6-0.6,1.6-1.3s-0.4-1.1-1.4-1.5c-1.2-0.5-1.9-1.1-1.9-2.1c0-1.2,0.9-2,2.4-2
			c0.7,0,1.3,0.2,1.7,0.4l-0.3,0.8c-0.3-0.1-0.7-0.4-1.4-0.4c-1,0-1.4,0.6-1.4,1.1c0,0.7,0.5,1,1.5,1.5c1.3,0.5,1.9,1.1,1.9,2.2
			s-0.8,2.1-2.6,2.1c-0.7,0-1.5-0.2-1.9-0.5L182.7,92.7z"/>
	</g>
</g>
<g>
	<path d="M97.8,80.3c0,2.2-1.6,3.2-3.1,3.2c-1.7,0-3-1.2-3-3.2s1.4-3.2,3.1-3.2C96.7,77.1,97.8,78.3,97.8,80.3z M93,80.3
		c0,1.4,0.7,2.3,1.9,2.3c1,0,1.9-1,1.9-2.4c0-1-0.6-2.3-1.9-2.3C93.5,78,93,79.2,93,80.3z"/>
	<path d="M99.3,79.2c0-0.7,0-1.4-0.1-1.9h1v1.2h0.1c0.3-0.8,0.9-1.4,1.7-1.4c0.1,0,0.2,0,0.3,0v1c-0.1,0-0.2,0-0.4,0
		c-0.7,0-1.4,0.6-1.5,1.4c0,0.2-0.1,0.4-0.1,0.6v3.2h-1.1L99.3,79.2L99.3,79.2z"/>
	<path d="M83.6,88.4V92h4.2v-3.6h1.1v8.5h-1.1v-4h-4.2v4h-1.1v-8.5H83.6z"/>
	<path d="M91.9,88.4v5.1c0,1.9,0.8,2.7,1.9,2.7c1.3,0,2-0.8,2-2.7v-5.1h1.1v5c0,2.6-1.4,3.7-3.2,3.7c-1.8,0-3.1-1-3.1-3.6v-5
		L91.9,88.4L91.9,88.4z"/>
	<path d="M105.5,96.6c-0.5,0.2-1.5,0.5-2.6,0.5c-1.3,0-2.3-0.4-3.2-1.1c-0.7-0.7-1.2-1.9-1.2-3.2c0-2.6,1.8-4.5,4.6-4.5
		c1,0,1.8,0.2,2.1,0.4l-0.3,0.9c-0.5-0.2-1-0.4-1.9-0.4c-2,0-3.4,1.3-3.4,3.4s1.3,3.4,3.3,3.4c0.7,0,1.2-0.1,1.5-0.2v-2.6h-1.8v-0.9
		h2.8L105.5,96.6L105.5,96.6z"/>
	<path d="M114.5,92.6c0,3-1.8,4.5-4,4.5s-3.8-1.8-3.8-4.4c0-2.7,1.7-4.5,4-4.5C113,88.3,114.5,90.1,114.5,92.6z M107.8,92.8
		c0,1.9,1,3.4,2.7,3.4c1.8,0,2.8-1.6,2.8-3.5c0-1.7-0.9-3.4-2.7-3.4C108.8,89.2,107.8,90.9,107.8,92.8z"/>
</g>
</svg>
