<?xml version="1.0" encoding="utf-8"?>
<!-- Generator: Adobe Illustrator 21.0.0, SVG Export Plug-In . SVG Version: 6.00 Build 0)  -->
<svg version="1.1" id="Layer_1_copy" xmlns="http://www.w3.org/2000/svg" xmlns:xlink="http://www.w3.org/1999/xlink" x="0px"
	 y="0px" viewBox="0 0 259 180" style="enable-background:new 0 0 259 180;" xml:space="preserve">
<style type="text/css">
	.st0{fill:#3A3A3A;}
	.st1{fill:#3E3E3E;}
	.st2{fill:#4B4B4B;}
	.st3{fill:#393939;}
	.st4{fill:#464646;}
	.st5{fill:#3B3B3B;}
	.st6{fill:#3C3C3C;}
	.st7{fill:#3D3D3D;}
	.st8{fill:#8F8F8F;}
	.st9{fill:#8E8E8E;}
	.st10{fill:#FDFDFD;}
	.st11{fill:#FCFCFC;}
	.st12{fill:#FBFBFB;}
	.st13{fill:#7D7D7D;}
	.st14{fill:#FEFEFE;}
	.st15{fill:#B7B7B7;}
	.st16{fill:#BABABA;}
	.st17{fill:#404040;}
	.st18{fill:#3F3F3F;}
	.st19{fill:#424242;}
	.st20{fill:#4A4A4A;}
	.st21{fill:#484848;}
	.st22{fill:#444444;}
	.st23{fill:#FAFAFA;}
	.st24{fill:#F3F3F3;}
	.st25{font-family:'ArialMT';}
	.st26{font-size:25.627px;}
</style>
<g>
	<path class="st0" d="M129.5,50.4c-11.5,0.1-21.2,4.3-28.9,12.8c-1.8,2-2.7,1.8-4.4,0c-4.9-5.1-9.9-10.1-15-15
		c-1.7-1.6-1.5-2.5,0-4.2c23.2-25.2,63.8-27.8,90.1-5.8c2.3,1.9,4.5,4,6.6,6.2c1.1,1.1,1.3,1.9,0,3.2c-5.5,5.4-10.9,10.8-16.3,16.3
		c-1.1,1.1-1.8,1.1-2.9-0.1c-3.1-3.7-6.8-6.6-11-8.9c-1.5-0.8-2.3-0.6-3,0.9c-1.5,2.8-3,5.7-4.6,8.4c-1,1.6-1,2.7,0.2,4.4
		c3.3,4.7,2.9,11.1-0.6,15.5s-9.5,6.1-14.7,4.2c-5.4-1.9-8.9-7.1-8.7-12.8c0.2-5.7,3.8-10.5,9.2-12.1c2.2-0.7,4.4-0.8,6.7-0.3
		c1.4,0.3,2.2,0,3.1-1.1c2-2.6,4.1-5.1,6.2-7.6c1-1.2,0.8-1.9-0.7-2.3C137.1,51,133.3,50.4,129.5,50.4z"/>
	<path class="st1" d="M81,151.3c-5.4,0-10.9,0-16.3,0c-3.1,0-3.9-0.7-3.9-3.8c0-8.4,0-16.7,0-25.1c0-3.2,1.3-4.4,4.4-4.4
		c4.7,0,9.3,0,14,0c0.6,0,1.4-0.1,1.8,0.2c3.4,3,7.5,1.5,11.4,1.8c1.9,0.1,3.8,0,5.7,0c2.3,0,3.4,1.2,3.4,3.3c0,8.3,0,16.6-0.1,24.8
		c0,2.3-1.4,3.1-3.6,3.1C92.3,151.3,86.6,151.3,81,151.3z"/>
	<path class="st1" d="M129.2,151.3c-5.4,0-10.9,0-16.3,0c-2.9,0-3.8-0.8-3.8-3.6c-0.1-8.5-0.1-16.9,0-25.4c0-3.1,1.3-4.3,4.5-4.3
		c3.9,0,7.8,0,11.6,0c2.2,0,4.5-0.3,6.2,1.7c0.6,0.7,1.6,0.4,2.5,0.4c4,0,7.9,0,11.9,0c2.9,0,3.8,1,3.8,3.9c0,7.8,0,15.7-0.1,23.5
		c0,3-0.8,3.8-3.9,3.8C140.2,151.3,134.7,151.3,129.2,151.3z"/>
	<path class="st1" d="M177.7,151.3c-5.4,0-10.9,0-16.3,0c-3.1,0-3.8-0.8-3.8-3.8c-0.1-8.1-0.1-16.2-0.1-24.3c0-4.1,1.2-5.1,5.3-5.2
		c3.6,0,7.2,0,10.9,0c2.2,0,4.5-0.3,6.2,1.7c0.6,0.7,1.6,0.4,2.5,0.4c4,0,7.9,0,11.9,0c2.9,0,3.8,0.8,3.8,3.6c0.1,8,0.1,16,0,24.1
		c0,2.8-0.9,3.5-3.6,3.6C188.9,151.3,183.3,151.3,177.7,151.3z"/>
	<path class="st2" d="M173.3,115.4c-1.4-3.1-1.4-3.1-4.5-3.9c1.4-1,3.1-1,4.1-0.3C174.4,112.1,173.4,113.9,173.3,115.4z"/>
	<path class="st3" d="M89.8,111.5c-2.9-0.1-4.4,1-3.9,4.1c-1.1-1.4-1.3-3.1-0.4-4.1C86.4,110.3,88.1,110.7,89.8,111.5z"/>
	<path class="st4" d="M129.1,108.9c0.9,1,1,2.2,2.6,2.2c-0.7,1.2-2.3,1.1-2.2,2.7c-0.7-1.2-1.3-1.9-2.5-2.1
		C127.6,110.5,129.6,110.8,129.1,108.9z"/>
	<path class="st5" d="M110.9,111.4c1.3-0.7,2.5-0.6,3.9,0C113.5,112,112.2,112,110.9,111.4z"/>
	<path class="st6" d="M101.8,111.3c1.5-0.8,2.8-0.4,4.4-0.4C104.6,112.1,104.3,112.1,101.8,111.3z"/>
	<path class="st5" d="M97.8,111.4c-1.3,0.8-2.6,0.5-4.6,0.3C95.1,110.5,96.5,110.9,97.8,111.4z"/>
	<path class="st5" d="M129.4,105c-0.7-1.3-0.5-2.6-0.1-3.9C130.2,102.4,130,103.7,129.4,105z"/>
	<path class="st7" d="M135.8,111.5c1.3-0.8,2.6-0.8,4.4,0C138.4,112.1,137.1,112,135.8,111.5z"/>
	<path class="st7" d="M119.2,111.4c1.3-0.7,2.6-0.8,4.4,0C121.8,112.1,120.5,112,119.2,111.4z"/>
	<path class="st3" d="M129.4,92.9c0.7,1.3,0.7,2.6,0,3.9C128.8,95.5,128.8,94.2,129.4,92.9z"/>
	<path class="st3" d="M160.7,111.5c1.7-0.8,2.9-0.8,4.6,0C163.5,112.1,162.3,112,160.7,111.5z"/>
	<path class="st3" d="M152.3,111.4c1.7-0.8,2.9-0.8,4.6,0C155.2,112.1,154,112.1,152.3,111.4z"/>
	<path class="st3" d="M143.5,111.4c1.7-0.7,2.9-0.8,4.6,0C146.4,112.1,145.2,112.1,143.5,111.4z"/>
	<path class="st8" d="M146.6,31c-0.4,1.6-1.4,3.1-1.5,5.2c1.8-1.4,1.8-3.3,2.6-4.8c1.2-0.5,2.3-0.5,3.6,0c3.8,1.5,7.5,3.3,11,5.4
		c1,0.6,2.1,1.3,1.4,2.8c-0.2,1.9-2.1,3-2.4,5.2c2.1-0.8,2.3-3.3,4-4.1c0.4-0.4,1-1,1.6-0.6c3.5,2.2,7,4.4,8.7,8.4
		c-4.5,4.4-9,8.8-13.3,13.3c-1.4,1.4-2.3,1.6-3.7,0c-2.8-3.1-6-5.7-9.7-7.6c-2-1-2-2.1-1-3.9c1.4-2.2,2.5-4.5,3.5-7.1
		c-2.4,1.4-3.9,3.6-5.4,5.7c-1.5,2-2.9,2.5-5.4,1.8c-15.1-3.9-28.5-0.6-39.6,10.6c-1.8,1.8-2.9,2-4.7,0.1
		c-4.1-4.4-8.4-8.6-12.7-12.9c0-0.6-0.1-1.4,0.4-1.9c2.9-2.7,5.5-5.9,9.5-7c1.3,1.7,2.2,3.8,4.3,5.9c-0.5-3-2.4-4.5-3.3-6.4
		c0.4-0.7,0.9-1.5,1.6-2c3.9-2.5,8-4.6,12.4-6.1c0.8-0.3,1.7-0.3,2.5-0.2c0.9,1.7,1.1,3.7,2.7,5.8c0.1-2.6-1.1-4.1-1.6-5.8
		c0.8-1,1.8-1.5,3-1.8c3.6-0.8,7.2-1.5,10.9-1.4c1,0,2.1,0,2.9,0.7c0.2,1.4-0.2,2.9,0.5,4.8c0.9-1.7,0.4-3.1,0.8-4.3
		c0.6-0.7,1.4-1.1,2.4-1.1c4.3-0.2,8.4,0.7,12.4,1.9C145.6,29.8,146.3,30.2,146.6,31z"/>
	<path class="st9" d="M141.4,76c0,6.7-5.6,12.1-12.3,12c-6.8-0.2-12-5.9-11.6-12.9c0.4-6.6,6.1-11.6,12.8-11
		c0.7,0.1,1.7-0.1,2.1,0.7c0.4,0.9-0.5,1.4-1,2c-1.6,2-3.1,4.1-5.1,5.8c-1.6,1.4-1.9,3.3-1.1,5.2c0.8,1.9,2.3,2.8,4.3,2.7
		c2.2-0.1,3.8-1.3,4.3-3.5c0.5-2.6,2-4.7,3.2-7c1-1.9,1.9-1.6,2.8,0.1C140.8,71.9,141.4,73.9,141.4,76z"/>
	<path class="st10" d="M163.7,39.8c-3.5-3.1-7.7-4.8-11.9-6.6c-1.3-0.6-2.7-1.1-4.1-1.7c1.7-4.4,0.8-4.3,5.4-2.5
		c3.6,1.4,7.1,3.1,10.3,5.2C167,36.3,167,36.8,163.7,39.8z"/>
	<path class="st10" d="M110.9,31c-0.2,0.7-0.9,1-1.5,1.3c-4.7,1.7-9.1,4-13.4,6.6c-0.5,0.3-1.1,0.3-1.7,0.5
		c-2.2-3.5-2.7-2.8,1.2-5.3c3.4-2.1,6.9-3.8,10.6-5.3C109.5,27.4,109.5,27.4,110.9,31z"/>
	<path class="st10" d="M128.9,28.3c-5.6,0.9-11.2,1.7-16.9,2.6c-1.3-3.8-1.3-3.8,2.7-4.8c3.4-0.8,6.7-1.3,10.2-1.5
		C128.8,24.4,129,23.3,128.9,28.3z"/>
	<path class="st10" d="M146.6,31c-4.7-0.8-9.3-2.2-14.2-2.2c-0.8,0-1.5,0-2.3,0c-0.1-0.4-0.1-0.9-0.2-1.3c-0.1-3.3-0.1-3.3,3.2-3
		c3.7,0.3,7.4,0.7,11,1.6C149,27.3,148.2,26.9,146.6,31z"/>
	<path class="st11" d="M144.7,52.2c0.5,1.3-0.2,1.9-0.6,2.6c-3.1,5.6-6.2,11.2-9.2,16.8c-0.8,1.5-1.4,2.3-2.9,0.6
		c-0.5-0.6-1.5-0.7-2.5-1.2C134.6,64.7,139.6,58.5,144.7,52.2z"/>
	<path class="st11" d="M175.6,48.6c-2.7-1.5-4.6-4-7.1-5.7c-1-0.7-1.9-1.7-3.2-2c0-0.2,0-0.4,0.1-0.5c1.7-3.7,2-3.8,5.1-1.3
		c1.8,1.5,3.6,3,5.1,4.6C178.4,46.8,178.2,45.8,175.6,48.6z"/>
	<path class="st10" d="M93.3,39.8c-0.1,1.2-1.2,1.6-1.9,2.2c-2.7,2.2-5.3,4.4-8,6.7c-2.6-2.4-2.6-2.4-0.3-4.8
		c1.7-1.7,3.5-3.3,5.4-4.9C91.2,36.7,91.2,36.8,93.3,39.8z"/>
	<path class="st12" d="M132.9,76c0,1.9-1.9,3.5-3.8,3.4c-1.8-0.1-3.3-1.8-3.3-3.6c0.1-2,1.7-3.5,3.7-3.4
		C131.4,72.6,133,74.2,132.9,76z"/>
	<path class="st10" d="M81.1,125.9c5.7,0,11.4,0,17.1,0c1.6,0,2.3,0.5,2.3,2.2c-0.1,6.5-0.1,12.9,0,19.4c0,2-0.9,2.8-2.8,2.8
		c-11,0-21.9,0-32.9,0c-2,0-2.8-0.9-2.8-2.8c0-6.5,0-12.9,0-19.4c0-1.8,0.7-2.2,2.3-2.2C69.8,125.9,75.5,125.9,81.1,125.9z"/>
	<path class="st13" d="M81.3,124.8c-5.3,0-10.7,0-16,0c-1.6,0-3.2,0-3.2-2.3c0-2.2,1-3.4,3.2-3.4c4.6,0,9.1,0,13.7,0
		c0.3,0,0.8,0,1,0.1c5,3.4,10.7,1.4,16,1.9c1.6,0.2,4.1-0.5,4,2c0,2.7-2.6,1.6-4.1,1.7C91.2,124.9,86.2,124.8,81.3,124.8z"/>
	<path class="st14" d="M129.3,150.2c-5.4,0-10.9,0-16.3,0c-1.9,0-2.8-0.6-2.8-2.7c0.1-6.5,0.1-12.9,0-19.4c0-1.6,0.4-2.3,2.2-2.3
		c11.3,0.1,22.6,0.1,33.9,0c1.9,0,2.3,0.7,2.3,2.4c-0.1,6.3-0.1,12.6,0,18.9c0,2.4-1,3.1-3.3,3.1C140,150.2,134.7,150.2,129.3,150.2
		z"/>
	<path class="st13" d="M129.2,124.8c-5.3,0-10.7,0-16,0c-1.6,0-2.9-0.3-2.9-2.4c0-1.9,0.7-3.3,2.8-3.3c4.9-0.1,9.8,0,14.7,0
		c0.2,0,0.4,0,0.5,0.1c5,3.5,10.7,1.4,16,1.9c0.6,0.1,1.2,0,1.8,0.1c1.3,0.1,2.2,0.7,2.3,2c0.1,1.6-1.3,1.6-2.4,1.6
		C140.4,124.8,134.8,124.8,129.2,124.8z"/>
	<path class="st10" d="M177.9,125.9c5.5,0,11.1,0.1,16.6,0c1.8,0,2.6,0.4,2.6,2.4c-0.1,6.3-0.1,12.6,0,18.9c0,2.2-0.8,3.1-3.1,3.1
		c-10.8-0.1-21.6-0.1-32.4,0c-2.2,0-3.1-0.8-3.1-3c0.1-6.4,0.1-12.8,0-19.2c0-1.7,0.6-2.2,2.3-2.2
		C166.5,125.9,172.2,125.9,177.9,125.9z"/>
	<path class="st13" d="M177.4,124.8c-5.3,0-10.5,0-15.8,0c-1.6,0-3-0.1-3-2.2c0-1.9,0.8-3.3,2.8-3.4c5-0.1,10.5-1.3,14.9,0.3
		c6,2.2,11.8,1.1,17.7,1.7c1.4,0.1,2.8,0.3,2.7,2.1c-0.1,1.7-1.5,1.6-2.7,1.6C188.5,124.8,182.9,124.8,177.4,124.8z"/>
	<path class="st15" d="M71.4,140.2c-1.6,0-3.3,0-4.9,0c-1.8,0-2.8-0.6-2.7-2.6c0-2.4,0-4.8,0-7.2c0-1.7,0.7-2.5,2.5-2.5
		c3.5,0,7,0,10.6,0c1.5,0,2.5,0.6,2.5,2.3c0,2.6,0,5.2,0,7.7c0,1.5-0.7,2.2-2.2,2.2C75.2,140.2,73.3,140.2,71.4,140.2L71.4,140.2z"
		/>
	<path class="st16" d="M93.7,142.4c4.4,0,5.1,0.6,4.6,3.9c0,0.2,0,0.3-0.1,0.5c-0.2,1.2-1.1,1.6-2.1,1.5c-2.2-0.2-4.8,1.1-6.6-1
		c-0.8-1-0.7-2.8,0-4C90.6,141.8,92.4,142.7,93.7,142.4z"/>
	<path class="st16" d="M81.3,148.5c-4.3,0-5.1-0.8-4.6-4.1c0-0.1,0-0.2,0-0.3c0.1-1.1,0.9-1.7,1.9-1.7c2.3,0.2,4.8-1,6.7,0.9
		c1,1,0.9,2.9,0.1,4.2C84.4,149.1,82.6,148.2,81.3,148.5z"/>
	<path class="st16" d="M68.2,148.5c-1.8-0.3-4.3,0.7-4.4-2.6c-0.1-2.9,0.4-3.5,3.3-3.5c0.8,0,1.6,0,2.3,0c3.1,0.1,4.3,1.5,3.4,4.4
		C72,149.4,69.8,148.1,68.2,148.5z"/>
	<path class="st3" d="M97.7,139.8c-5.2,0-10.4,0-15.6,0c0-0.2,0-0.4,0-0.6c5.2,0,10.4,0,15.5,0C97.6,139.4,97.6,139.6,97.7,139.8z"
		/>
	<path class="st3" d="M97.7,129.2c-5.2,0-10.4,0-15.6,0c0-0.2,0-0.4,0-0.6c5.2,0,10.4,0,15.5,0C97.6,128.8,97.6,129,97.7,129.2z"/>
	<path class="st17" d="M67.2,122.1c-0.2,1.1-0.8,1.7-1.9,1.6s-1.7-0.8-1.7-1.9c0.1-1.1,0.8-1.7,1.9-1.6
		C66.7,120.3,67.2,121,67.2,122.1z"/>
	<path class="st18" d="M70.2,120.2c1.1,0.2,1.8,0.8,1.7,1.9c-0.1,1.1-0.8,1.7-1.9,1.6s-1.7-0.8-1.7-1.9
		C68.4,120.7,69.1,120.3,70.2,120.2z"/>
	<path class="st18" d="M76.6,122.1c-0.2,1.1-0.8,1.7-1.9,1.6s-1.7-0.8-1.7-1.9c0.1-1.1,0.8-1.7,1.9-1.7
		C76,120.3,76.5,121,76.6,122.1z"/>
	<path class="st15" d="M129.6,140.2c-4.7,0-9.5-0.1-14.2,0c-2.2,0-3.2-0.8-3.1-3.1c0.1-2.2,0.1-4.5,0-6.7c0-1.7,0.7-2.5,2.5-2.5
		c9.7,0,19.5,0,29.2,0c1.7,0,2.5,0.8,2.5,2.5c0,2.4,0,4.8,0,7.2c0,1.9-0.9,2.6-2.7,2.6C139.1,140.2,134.3,140.2,129.6,140.2z"/>
	<path class="st0" d="M146.4,145.7c-2.9,0.5-5.4,0.3-7.8,0.3c-3.7,0.1-7.4,0-11.1,0c-1.4,0-3-0.6-4.1,1.3c-0.4,0.7-2.4,0.7-2.9,0.1
		c-1.8-2.3-4.2-1.1-6.3-1.4c-0.5-0.1-1.1,0.2-1.4-0.7c1.2-0.6,2.5-0.2,3.6-0.3c1.3-0.1,2.7,0.5,3.8-1.2c0.5-0.9,2.8-0.9,3.4,0.1
		c0.8,1.4,1.8,1.1,2.8,1.1c5.6,0,11.2,0,16.8,0C144.1,145,145.1,144.7,146.4,145.7z"/>
	<path class="st18" d="M115.4,122c-0.2,1.2-0.8,1.8-1.9,1.8c-1.1-0.1-1.7-0.8-1.7-1.9c0.1-1.1,0.8-1.7,1.9-1.6
		C114.9,120.3,115.4,121,115.4,122z"/>
	<path class="st18" d="M120.2,121.9c-0.1,1.1-0.6,1.8-1.7,1.9s-1.8-0.6-1.8-1.7c-0.1-1.1,0.6-1.8,1.7-1.8
		C119.5,120.2,120.1,120.8,120.2,121.9z"/>
	<path class="st19" d="M125.1,121.9c-0.2,1.1-0.8,1.7-1.9,1.7c-1,0-1.7-0.6-1.7-1.6c0-1.1,0.6-1.8,1.7-1.8
		C124.3,120.2,124.9,120.9,125.1,121.9z"/>
	<path class="st15" d="M178.1,127.8c3.3,0,6.6,0,9.8,0c2,0,2.8,0.8,2.7,2.8c-0.1,2.3-0.1,4.7,0,7c0,1.7-0.6,2.6-2.4,2.6
		c-6.9,0-13.8,0-20.7,0c-1.6,0-2.4-0.8-2.4-2.4c0-2.5,0-5,0-7.5c0-1.7,0.8-2.5,2.6-2.5C171.1,127.9,174.6,127.8,178.1,127.8
		L178.1,127.8z"/>
	<path class="st0" d="M194.8,143.3c-11.2,0-22.5,0-33.7,0c0-0.2,0-0.3,0-0.5c11.2,0,22.5,0,33.7,0
		C194.8,142.9,194.8,143.1,194.8,143.3z"/>
	<path class="st3" d="M161.2,147.4c11.2,0,22.4,0,33.5,0c0,0.1,0,0.3,0,0.4c-11.2,0-22.3,0-33.5,0
		C161.2,147.7,161.2,147.5,161.2,147.4z"/>
	<path class="st20" d="M192.3,135.7c1.2-1.4,0.9-2.6-0.4-4.2c1.8,0.3,2.8,1.1,2.9,2.3C194.8,134.8,193.8,135.7,192.3,135.7z"/>
	<path class="st21" d="M163.1,131.7c-0.7,1.4-1,2.7,0.8,4.2c-1.9-0.2-2.8-1.1-3-2C160.7,132.7,162.1,132.3,163.1,131.7z"/>
	<path class="st22" d="M164,121.9c-0.2,1.2-0.9,1.8-2,1.7c-1-0.1-1.6-0.7-1.6-1.7c0-1.1,0.7-1.8,1.8-1.7
		C163.3,120.3,163.8,121,164,121.9z"/>
	<path class="st22" d="M166.8,123.7c-1.1-0.1-1.8-0.6-1.8-1.8c0-1,0.6-1.6,1.6-1.7c1.1-0.1,1.8,0.5,1.9,1.6
		C168.6,123,167.9,123.6,166.8,123.7z"/>
	<path class="st19" d="M173.3,122c-0.2,1.1-0.8,1.7-1.9,1.6c-1-0.1-1.6-0.6-1.6-1.6c0-1.1,0.7-1.8,1.8-1.8
		C172.6,120.3,173.2,120.9,173.3,122z"/>
	<path class="st10" d="M71.6,138.8c-1.5,0-2.9,0-4.4,0c-1.3,0-1.4-0.6-0.8-1.7c1.4-2.3,2-2.5,4-0.9c1.3,1,1.6-0.1,2.1-0.8
		c0.7-0.9,0.7-2.8,2.1-2.6c1.2,0.1,1.4,1.8,1.9,2.9c1.5,3,1.4,3.1-1.8,3.2C73.7,138.8,72.7,138.8,71.6,138.8L71.6,138.8z"/>
	<path class="st23" d="M67.4,132.8c-1-0.2-1.5-0.8-1.4-1.8s0.7-1.6,1.7-1.5s1.6,0.7,1.5,1.7C69,132.3,68.3,132.8,67.4,132.8z"/>
	<path class="st10" d="M126.9,134.1c0.2-0.8-0.2-2.3,1.2-2.1c1.3,0.2,3.4,0.6,3.4,2.1c0,1.3-2,1.8-3.3,2
		C126.6,136.4,127,135,126.9,134.1z"/>
	<path class="st24" d="M122.8,145.5c0,0.6-0.2,1-0.9,1c-0.7,0-1.1-0.3-1.1-1.1s0.5-1,1.2-1C122.7,144.5,122.8,145,122.8,145.5z"/>
	<path class="st12" d="M188.6,133.5c0,4.2-0.6,5-2.9,4.7c-0.8-0.1-1.4-0.4-1.5-1.2c-0.3-1.9-0.4-3.8,0-5.6c0.3-1.2,1.3-1.3,2.3-1.2
		c1,0,1.9,0.4,2,1.6C188.6,132.5,188.6,133.3,188.6,133.5z"/>
	<path class="st14" d="M180.1,135.3c0,1.7-0.2,3-2.3,3c-1.9,0-2.3-1.1-2.3-2.7c0-1.5,0-3,2.2-3C179.8,132.5,180.2,133.7,180.1,135.3
		z"/>
	<path class="st10" d="M169.2,138.2c-1.4,0-2.4-0.3-2.3-1.8c0-1.6,1.1-1.7,2.3-1.7s2,0.4,2.1,1.7
		C171.3,137.9,170.4,138.2,169.2,138.2z"/>
	<path class="st3" d="M97.7,134.5c-5.2,0-10.4,0-15.6,0c0-0.2,0-0.4,0-0.6c5.2,0,10.4,0,15.5,0C97.6,134.1,97.6,134.3,97.7,134.5z"
		/>
</g>
<text transform="matrix(1 0 0 1 55.0878 94.8499)" class="st0 st25 st26">PNG</text>
</svg>
