<?xml version="1.0" encoding="utf-8"?>
<!-- Generator: Adobe Illustrator 21.0.0, SVG Export Plug-In . SVG Version: 6.00 Build 0)  -->
<svg version="1.1" id="Layer_1" xmlns="http://www.w3.org/2000/svg" xmlns:xlink="http://www.w3.org/1999/xlink" x="0px" y="0px"
	 viewBox="0 0 259 180" style="enable-background:new 0 0 259 180;" xml:space="preserve">
<style type="text/css">
	.st0{fill:#020202;}
	.st1{enable-background:new    ;}
</style>
<g>
	<path class="st0" d="M167.7,96.3c-10.8,0-21.7-0.1-32.5,0.1c-2.6,0-3.2-0.9-3.2-3.3c0.2-7.3,4.7-12.8,11.8-14.6
		c1.8-0.5,3.7-1,3.6-4.2c-0.2-8.2,8.4-13,16-9.5c1.1,0.5,1.7,1,2.4-0.6c3.3-7.8,9.2-13.1,17.6-14.3c6-0.9,12.3-1.1,18,2.6
		c5.6,3.7,9.5,8.5,11.2,15c0.7,2.8-1.1,5.1-2.1,7.4c-2.3,5-6.2,7.9-11.9,8c-11.7,0.1-23.4,0.3-35,0.5c-0.8,0-1.5,0-2.2,0.1
		c-0.3,0-0.6,0.5-0.6,0.8c-0.1,0.4,0.4,0.6,0.8,0.6c0.7,0,1.3,0,2,0.1c11.6,0.2,23.2,0.4,34.7,0.5c2.5,0,4.5,0.7,5.8,2.8
		c1.5,2.4,0.5,5-0.3,7.4c-0.4,1.3-1.8,0.7-2.7,0.7C190,96.3,178.8,96.3,167.7,96.3z"/>
	<path class="st0" d="M221.2,95.7c-4.1,0-8.3-0.1-12.4,0c-2.2,0.1-2.4-0.9-1.7-2.5c1.9-4.2,5.1-6.9,9.6-7.9c2.8-0.6,5.6-0.3,8.4-0.5
		c0.8-0.1,2,0,1.9-1.1c-0.1-1-1.2-0.6-1.8-0.7c-2.1-0.2-4.1-0.3-6.2-0.4c-4.7-0.3-6.9-3.3-5.7-7.9c1.6-6.3,2.3-6.7,8.6-4.9
		c10.2,2.8,16.6,13.1,14.8,23.5c-0.3,1.9-1.1,2.6-3.1,2.6C229.5,95.6,225.3,95.7,221.2,95.7z"/>
</g>
<g class="st1">
	<path d="M24.9,114c0-4.4,3.4-7.8,7.8-7.8c3.9,0,6.9,2.6,7.5,6.3h-4.1c-0.5-1.5-1.8-2.5-3.3-2.5c-2.1,0-3.6,1.7-3.6,4
		c0,2.3,1.5,3.9,3.6,3.9c1.6,0,2.9-1.1,3.3-2.7h4.2c-0.6,3.9-3.6,6.5-7.5,6.5C28.3,121.7,24.9,118.4,24.9,114z"/>
	<path d="M51.6,117.6v3.7h-9.4v-14.8h4.1v11H51.6z"/>
	<path d="M52.2,114c0-4.5,3.4-7.8,8.1-7.8c4.7,0,8.1,3.2,8.1,7.8s-3.4,7.8-8.1,7.8C55.6,121.7,52.2,118.5,52.2,114z M60.3,117.9
		c2.2,0,3.9-1.7,3.9-4c0-2.3-1.6-4-3.9-4c-2.2,0-3.9,1.7-3.9,4S58.1,117.9,60.3,117.9L60.3,117.9z"/>
	<path d="M70.4,115.6v-9.1h4.2v9c0,1.4,0.9,2.4,2.3,2.4s2.3-0.9,2.3-2.4v-9h4.2v9.1c0,3.6-2.7,6.1-6.4,6.1S70.4,119.3,70.4,115.6z"
		/>
	<path d="M99.5,113.9c0,4.3-3.2,7.4-7.6,7.4h-6v-14.8h6C96.4,106.6,99.5,109.6,99.5,113.9z M95.4,113.9c0-2.2-1.5-3.6-3.6-3.6H90
		v7.3h1.7C93.9,117.6,95.4,116.1,95.4,113.9z"/>
	<path d="M105.8,110.3v2.3h4.7v3.6h-4.7v5.2h-4.1v-14.8h9.4v3.7H105.8z"/>
	<path d="M122.6,117.6v3.7h-9.4v-14.8h4.1v11H122.6z"/>
	<path d="M133.4,118.9h-5.2l-0.8,2.4H123l5.8-14.8h4l5.9,14.8h-4.5L133.4,118.9z M130.8,111.2l-1.6,4.6h3.3L130.8,111.2z"/>
	<path d="M145.6,116.8h-1.5v4.5h-4.1v-14.8h6.4c3.2,0,5.5,2.1,5.5,5.2c0,1.8-0.9,3.3-2.3,4.2l2.9,5.4H148L145.6,116.8z M144.2,113.4
		h1.9c1.1,0,1.8-0.7,1.8-1.6c0-0.9-0.7-1.6-1.8-1.6h-1.9V113.4z"/>
	<path d="M164,117.8v3.5h-9.6v-14.8h9.4v3.5h-5.4v2.2h4.8v3.3h-4.8v2.2H164z"/>
	<path d="M183.5,106.6v14.8h-4.1v-5.7H175v5.7h-4.1v-14.8h4.1v5.3h4.4v-5.3H183.5z"/>
	<path d="M197.4,110.2h-4v11.1h-4.1v-11.1h-4v-3.7h12.1V110.2z"/>
	<path d="M210.3,110.2h-4v11.1h-4.1v-11.1h-4v-3.7h12.1V110.2z"/>
	<path d="M223.9,111.9c0,3.1-2.3,5.4-5.5,5.4h-2.2v4.1h-4.1v-14.8h6.3C221.5,106.6,223.9,108.8,223.9,111.9z M219.7,111.9
		c0-1-0.7-1.8-1.8-1.8h-1.7v3.6h1.7C219,113.7,219.7,113,219.7,111.9z"/>
	<path d="M225,116.6h4.2c0,1.1,0.8,1.6,1.7,1.6c0.9,0,1.7-0.5,1.7-1.3c0-0.9-1.1-1.2-2.6-1.5c-2.1-0.5-4.9-1.2-4.9-4.5
		c0-2.9,2.1-4.6,5.6-4.6c3.5,0,5.6,1.8,5.6,4.8h-4.1c0-0.9-0.7-1.4-1.5-1.4c-0.7,0-1.4,0.3-1.4,1c0,0.8,1.1,1.1,2.5,1.5
		c2.2,0.6,5,1.3,5,4.7c0,3.2-2.5,4.9-5.9,4.9C227.3,121.7,225,119.8,225,116.6z"/>
</g>
</svg>
