<?xml version="1.0" encoding="utf-8"?>
<!-- Generator: Adobe Illustrator 21.0.0, SVG Export Plug-In . SVG Version: 6.00 Build 0)  -->
<svg version="1.1" id="Layer_1" xmlns="http://www.w3.org/2000/svg" xmlns:xlink="http://www.w3.org/1999/xlink" x="0px" y="0px"
	 viewBox="0 0 259 180" style="enable-background:new 0 0 259 180;" xml:space="preserve">
<style type="text/css">
	.st0{fill:#020202;}
	.st1{font-family:'Mont-HeavyDEMO';}
	.st2{font-size:21.0842px;}
</style>
<g>
	<path class="st0" d="M167.7,96.3c-10.8,0-21.7-0.1-32.5,0.1c-2.6,0-3.2-0.9-3.2-3.3c0.2-7.3,4.7-12.8,11.8-14.6
		c1.8-0.5,3.7-1,3.6-4.2c-0.2-8.2,8.4-13,16-9.5c1.1,0.5,1.7,1,2.4-0.6c3.3-7.8,9.2-13.1,17.6-14.3c6-0.9,12.3-1.1,18,2.6
		c5.6,3.7,9.5,8.5,11.2,15c0.7,2.8-1.1,5.1-2.1,7.4c-2.3,5-6.2,7.9-11.9,8c-11.7,0.1-23.4,0.3-35,0.5c-0.8,0-1.5,0-2.2,0.1
		c-0.3,0-0.6,0.5-0.6,0.8c-0.1,0.4,0.4,0.6,0.8,0.6c0.7,0,1.3,0,2,0.1c11.6,0.2,23.2,0.4,34.7,0.5c2.5,0,4.5,0.7,5.8,2.8
		c1.5,2.4,0.5,5-0.3,7.4c-0.4,1.3-1.8,0.7-2.7,0.7C190,96.3,178.8,96.3,167.7,96.3z"/>
	<path class="st0" d="M221.2,95.7c-4.1,0-8.3-0.1-12.4,0c-2.2,0.1-2.4-0.9-1.7-2.5c1.9-4.2,5.1-6.9,9.6-7.9c2.8-0.6,5.6-0.3,8.4-0.5
		c0.8-0.1,2,0,1.9-1.1c-0.1-1-1.2-0.6-1.8-0.7c-2.1-0.2-4.1-0.3-6.2-0.4c-4.7-0.3-6.9-3.3-5.7-7.9c1.6-6.3,2.3-6.7,8.6-4.9
		c10.2,2.8,16.6,13.1,14.8,23.5c-0.3,1.9-1.1,2.6-3.1,2.6C229.5,95.6,225.3,95.7,221.2,95.7z"/>
</g>
<text transform="matrix(1 0 0 1 24.2368 121.3344)" class="st1 st2">CLOUDFLARE HTTPS</text>
</svg>
