<?xml version="1.0" encoding="utf-8"?>
<!-- Generator: Adobe Illustrator 21.0.0, SVG Export Plug-In . SVG Version: 6.00 Build 0)  -->
<svg version="1.1" id="Layer_1" xmlns="http://www.w3.org/2000/svg" xmlns:xlink="http://www.w3.org/1999/xlink" x="0px" y="0px"
	 viewBox="0 0 259 180" style="enable-background:new 0 0 259 180;" xml:space="preserve">
<style type="text/css">
	.st0{stroke:#FFFFFF;stroke-miterlimit:10;}
	.st1{fill:#797979;}
	.st2{fill:#FDFDFD;}
	.st3{fill:#FEFEFE;}
	.st4{fill:#2F2F2F;}
	.st5{fill:#F0F0F0;}
	.st6{fill:#2E2E2E;}
	.st7{fill:#353535;}
	.st8{fill:#2D2D2D;}
	.st9{fill:#303030;}
	.st10{fill:#343434;}
	.st11{fill:#C6C6C6;}
	.st12{fill:#D6D6D6;}
	.st13{fill:#313131;}
	.st14{fill:#AFAFAF;}
	.st15{fill:#C9C9C9;}
	.st16{fill:#BCBCBC;}
	.st17{fill:#E3E3E3;}
	.st18{fill:#D9D9D9;}
	.st19{fill:#636363;}
	.st20{fill:#2C2C2C;}
	.st21{fill:#B4B4B4;}
	.st22{fill:#E8E8E8;}
	.st23{fill:#E5E5E5;}
	.st24{fill:#CECECE;}
	.st25{fill:#B9B9B9;}
	.st26{fill:#232323;}
	.st27{fill:#8C8C8C;}
	.st28{fill:#DDDDDD;}
	.st29{fill:#8A8A8A;}
	.st30{fill:#C2C2C2;}
	.st31{fill:#909090;}
	.st32{font-family:'Aller';}
	.st33{font-size:13.2786px;}
</style>
<g>
	<path class="st0" d="M94.7,87.8c0-8.4,0-16.8,0-25.2c0-1.6,0.5-2.1,2.1-2.1c12.4,0.1,24.7,0,37.1,0c1.2,0,1.6,0.3,1.5,1.5
		c-0.1,2.3-0.1,4.7,0,7c0,1.2-0.4,1.4-1.5,1.4c-8.9,0-17.9,0-26.8,0c-2.3,0-2.3,0-2.3,2.3c0,3,0,6,0,8.9c0,1.1,0.3,1.3,1.4,1.3
		c8.8-0.1,17.6,0,26.4-0.1c1.6,0,2.1,0.5,2,2c-0.1,2-0.1,3.9,0,5.9c0.1,1.5-0.5,1.8-1.9,1.8c-8.5,0-17,0-25.6,0
		c-1.6,0-2.2,0.4-2.1,2c0.1,2.8,0.1,5.6,0,8.5c-0.1,1.5,0.5,1.8,1.8,1.8c9,0,18,0,27,0c1.3,0,1.6,0.4,1.6,1.6c-0.1,2.4,0,4.8,0,7.2
		c0,0.8-0.1,1.2-1.1,1.2c-12.8,0-25.6,0-38.3,0c-1.2,0-1.2-0.6-1.2-1.5C94.7,104.9,94.7,96.3,94.7,87.8z"/>
	<path class="st0" d="M193,117c-1.8-1.8-3.6-3.6-5.4-5.4c-0.7-0.7-1.2-0.9-2.1-0.2c-11.7,8.3-26.3,7.6-37-1.9
		c-5.2-4.6-8.2-10.5-9.2-17.5c-1.9-13.9,6.2-26.6,18.6-31.2c9.6-3.5,18.8-2.3,27.3,3.5c0.9,0.6,1,1.1,0.5,2
		c-1.2,1.9-2.4,3.9-3.5,5.9c-0.5,1-0.9,1.1-1.9,0.4c-4.4-3.4-9.4-4.7-15-3.9c-8.6,1.2-15.6,8.7-16.3,17.3
		c-0.8,8.8,4.3,17.4,13.2,20.3c13.5,4.4,26.6-6,25.5-19.7c-0.2-2.9,0.3-5.2,1.9-7.5c1.1-1.6,1.9-3.3,2.9-5c0.6-1,1-0.9,1.5,0.1
		c2.9,5.4,3.9,11.1,3.2,17.1c-0.6,5-2.2,9.7-5.3,13.7c-0.6,0.8-0.5,1.3,0.2,1.9c1.8,1.8,3.6,3.6,5.4,5.4c-0.4,1-1.6,1.5-1.8,2.3
		C195.3,116.3,194.1,116.5,193,117z"/>
	<path class="st0" d="M64.2,58.6c6,0.1,11.7,1.2,16.6,5.1c1.7,1.4,3,3.1,4.1,5c0.4,0.6,0.2,0.9-0.4,1.2c-2.1,1.1-4.3,2.2-6.4,3.3
		c-0.7,0.4-1.2,0.3-1.8-0.3c-4.5-5.1-13.3-6.8-19.4-3.8c-0.8,0.4-1.5,0.9-2.1,1.4c-3.1,3-2.4,7.4,1.6,9.1c3.4,1.5,7.1,1.7,10.7,2.3
		c3.2,0.5,6.3,1.1,9.3,2.2c7.8,2.8,11.6,9.3,10.3,17.4c-0.9,5.6-3.8,9.7-8.9,11.9c-9.8,4.2-19.8,4.2-29.4-0.7
		c-3.7-1.9-6-5.1-7.8-8.8c-0.3-0.7-0.3-1.1,0.5-1.5c2.3-1.1,4.5-2.3,6.8-3.5c0.5-0.3,0.9-0.5,1.3,0.2c3.3,6.3,9,7.8,15.4,8
		c3.2,0.1,6.1-0.7,8.7-2.3c4.5-2.8,4.3-8.8-0.4-11.3c-2.5-1.4-5.3-1.9-8.1-2.2c-4.4-0.5-8.7-1.3-12.9-2.8C43,85,39.6,73.3,45.7,65.9
		c3.6-4.4,8.6-6.2,14.1-6.9C61.2,58.7,62.7,58.6,64.2,58.6z"/>
	<path class="st0" d="M200.8,53.4c-0.3,3.2-0.6,6.5-0.8,9.7c-0.1,1.2-0.4,1.5-1.5,0.7c-1.7-1.3-1.8-1.2-2.9,0.7
		c-5.3,9.1-10.5,18.1-15.7,27.2c-0.6,1-1,1.2-2.1,0.6c-3.5-1.8-7.1-3.5-10.5-5.3c-1.1-0.6-1.6-0.3-2.2,0.6
		c-2.9,4.2-5.8,8.3-8.7,12.4c-0.3,0.4-0.4,1.5-1.3,0.8c-0.6-0.5-1.4-0.9-0.9-2.1c3.1-6.2,6.1-12.4,9-18.6c0.4-0.9,0.8-1,1.7-0.6
		c3.5,1.8,7.1,3.6,10.7,5.4c1,0.5,1.5,0.4,2.1-0.6c4.4-7.8,8.9-15.5,13.4-23.2c0.8-1.4,0.8-2.2-0.7-3c-1.5-0.8-1.4-1,0.1-1.7
		c2.9-1.4,5.8-2.7,8.6-4.1C200.9,51.5,200.9,51.5,200.8,53.4z"/>
	<path class="st0" d="M193,117c1.1-0.5,2.3-0.7,2.5-2.4c0.1-0.9,1.4-1.4,1.8-2.3c0.3,0.2,0.6,0.4,1,0.2c2-1.1,3.4-0.2,4.8,1.1
		c5.3,5.3,10.6,10.6,15.9,16c0.9,0.9,1.8,1.7,2.6,2.6c1,1,1.1,2.2,0,3.2c-2,2.1-4.1,4.1-6.2,6.2c-0.8,0.8-1.5,0.8-2.3,0
		c-6.6-6.6-13.2-13.2-19.8-19.8c-1-1-1.3-2.3-0.6-3.7C193,117.8,193.4,117.5,193,117z"/>
</g>
<g>
	<g>
		<path class="st3" d="M75.4,18c11.5,0,22.9,0,34.4,0c0.4,0,0.5,0.1,0.5,0.5c0,10,0,20,0,30.1c0,0.4-0.1,0.5-0.5,0.5
			c-22.9,0-45.8,0-68.8,0c-0.4,0-0.5-0.1-0.5-0.5c0-10,0-20,0-30.1c0-0.4,0.1-0.6,0.5-0.6C52.6,18,64,18,75.4,18z"/>
		<path class="st4" d="M70.8,32.8c-0.4,0.6-0.9,1.3-1.4,1.9c0.3,0,0.4-0.2,0.6-0.3c0.7-0.7,1.5-1.3,2.4-1.6c0.9-0.3,1.6-0.1,2,0.4
			c0.3,0.5,0.2,1.3-0.4,1.9c-1.2,1.4-2.9,1.7-4.6,1.7c0.5,1.2,2.9,2.3,4.4,2c-1,1.3-3.8,0.7-5.8-1.3c-0.6,1.2-0.7,2.6-0.3,3.9
			c-0.6-0.4-0.9-0.9-0.9-1.6c-0.1-0.8,0.1-1.6,0.4-2.4c0.1-0.2,0.2-0.4,0.1-0.6c-0.3,0-0.4,0.2-0.6,0.4c-1,0.9-2,1.7-3.2,2.3
			c-1,0.5-2.1,0.9-3.3,0.6c-1.1-0.3-1.7-1.1-1.5-2.3c0.4-2.6,3.5-4.7,6.1-4.2c1.1,0.2,1.4,1.1,0.7,1.9c-1,1.1-2.3,1.4-3.7,1.6
			c0-0.1,0-0.1-0.1-0.2c0.3-0.1,0.6-0.1,0.9-0.2c0.8-0.2,1.6-0.5,2.2-1.1c0.3-0.3,0.6-0.7,0.3-1.1c-0.2-0.4-0.7-0.4-1.1-0.3
			c-1.4,0.3-3.3,2.4-3.4,3.9c-0.1,1,0.5,1.5,1.5,1.3c0.4-0.1,0.7-0.2,1-0.4c1.8-0.9,3.4-2.1,4.6-3.7c0.5-0.7,0.9-1.6,1.3-2.4
			c0.1-0.2,0.3-0.4,0.4-0.7c0.4-0.3,0.8-0.2,1.2-0.1C70.8,32.4,71,32.5,70.8,32.8z"/>
		<path class="st4" d="M94.2,38.9c-0.8,0.5-1.5,1-2.4,1.1c-1.5,0.2-2.3-0.6-2-2c0.1-0.4,0.2-0.9,0.4-1.4c-0.3,0.1-0.4,0.2-0.5,0.4
			c-0.8,0.8-1.7,1.5-2.7,2.1c-0.6,0.3-1.3,0.6-2,0.5c-1-0.1-1.4-0.7-1.3-1.7c0.1-0.6,0.3-1.2,0.5-1.9c-0.4,0.2-0.6,0.7-1.1,0.6
			c1-0.9,1.8-1.9,2.6-2.9c0.3-0.2,0.7-0.3,1.1-0.2c0.3,0,0.5,0.2,0.3,0.5c-0.5,0.9-1.2,1.8-1.6,2.7c-0.2,0.5-0.5,0.9-0.6,1.5
			c-0.1,0.7,0.2,1,0.9,0.9c0.6-0.1,1.2-0.4,1.7-0.7c1.7-1.1,3.1-2.3,4.2-3.9c0.1-0.2,0.3-0.3,0.4-0.5c0.3-0.2,0.6-0.3,0.9-0.3
			c0.3,0,0.5,0.2,0.5,0.5c-0.8,1.1-1.4,2.2-2,3.3c-0.2,0.4-0.4,0.8-0.4,1.2c-0.1,0.7,0.2,1,0.9,0.8c1.1-0.3,2.1-0.9,2.9-1.6
			c0.3-0.4,0.6-0.9,1-1.3c0.2-0.1,0.5-0.1,0.7-0.4c0.1-0.2,0.3-0.2,0.5,0c0.2,0.2,0.1,0.3-0.1,0.5c-0.4,0.5-0.8,1-1.3,1.5
			c-0.2,0.1-0.5,0.2-0.6,0.4C94.9,38.8,94.6,39,94.2,38.9z"/>
		<path class="st5" d="M106.2,22c0.6,0.3,1,0.7,1.5,1.2c0.2,0.3,0.4,0.6,0,0.9c-1,0.9-1.3,2.1-1.8,3.3c-0.5,1.3-1,2.6-1.5,4
			c-0.1,0.1-0.2,0.3-0.2,0.4c-0.1-0.1-0.2-0.2-0.2-0.3c0.2-1,0.7-2,1.1-3c0.4-1,0.8-2.1,1.2-3.1c0.2-0.4,0.4-0.7,0.7-1.1
			c-0.8,0.8-1,1.8-1.3,2.7c-1.7,4.4-3.5,8.8-5.1,13.2c-0.7,1.8-1.4,3.7-2.1,5.5c-0.2,0.5-0.5,0.9-1,1.2c-0.2,0.2-0.4,0.2-0.7,0
			c-0.3-0.3,0.1-0.7,0-1c1.8-4,3.2-8.2,4.8-12.2c0.4-1.1,0.9-2.1,1.3-3.2c1-2.4,1.9-4.9,2.9-7.3c0-0.2,0-0.4,0.1-0.6
			C105.9,22.3,105.9,22.1,106.2,22z"/>
		<path class="st6" d="M43.9,42.2c0.2,0.1,0.2,0.3,0.2,0.5c0.6,1.8,2.5,2.8,4.3,2.2c1-0.3,1.9-0.9,2.8-1.5c2.5-2,4.3-4.5,5.8-7.3
			c0,0,0-0.1,0.1-0.2c-0.3,0.1-0.5,0.3-0.7,0.5c-0.1,0.1-0.2,0.2-0.3,0.1c-0.1-0.1,0-0.2,0.1-0.3c0.5-0.4,0.9-0.8,1.2-1.3
			c0.3-0.4,0.6-0.8,0.2-1.4c-0.2-0.2,0.1-0.2,0.2-0.2c0.4,0,0.6,0.3,0.7,0.7c0.2,0.6,0.2,1.2,0,1.8c-1.4,4.2-3.8,7.5-7.9,9.3
			c-1.3,0.5-2.6,0.6-4,0.3C45,45,44.1,44,43.8,42.5C43.8,42.4,43.7,42.3,43.9,42.2z"/>
		<path class="st7" d="M70.8,32.8c-0.4-0.4-1-0.2-1.4-0.4c1.4-2.4,3.1-4.6,5.4-6.3c0.8-0.6,1.6-1,2.6-1c1.1,0,1.6,0.7,1.4,1.8
			c-0.2,0.8-0.6,1.4-1.1,1.9c-1.4,1.5-3.1,2.6-5,3.5c-0.1,0.1-0.2,0.2-0.4,0c0-0.3,0.3-0.3,0.5-0.4c1.8-1,3.4-2.1,4.8-3.7
			c0.3-0.3,0.6-0.7,0.7-1.1c0.2-0.5-0.1-0.7-0.6-0.6c-0.6,0.1-1,0.4-1.5,0.8c-1.8,1.3-3.3,3-4.7,4.8C71.2,32.4,71.1,32.7,70.8,32.8z
			"/>
		<path class="st8" d="M81.9,37.5c-0.7,1.8-1.6,3.4-2.9,4.8c-1.6,1.7-3.5,3-5.9,3.2c-1,0.1-1.9,0-2.8-0.4c-1.2-0.6-1.9-1.5-2-2.9
			c0.3,0,0.2,0.2,0.3,0.3c0.7,2,2.4,3,4.4,2.5c1.3-0.3,2.3-1,3.3-1.8c1.9-1.7,3.3-3.8,4.6-5.9c0-0.1,0.1-0.1,0.1-0.2
			C81.6,36.7,81.9,36.8,81.9,37.5z"/>
		<path class="st9" d="M81.4,35.6c-0.9,1.3-2,2.5-3.4,3.4c-0.8,0.6-1.6,0.6-2.1,0.2c-0.4-0.4-0.4-1.3,0-2.1c0.5-1,1.3-1.8,2-2.6
			c0.2-0.2,0.6-0.5,0.3-0.8c-0.3-0.3-0.6,0.1-0.8,0.3c-1,0.7-1.8,1.6-2.7,2.4c-0.1,0.1-0.3,0.3-0.5,0.3c-0.1-0.1,0-0.2,0-0.3
			c0.9-0.9,1.8-1.7,2.7-2.6c0.5-0.4,1-0.7,1.7-0.7c0.9,0,1.4,0.7,1.2,1.5c-0.1,0.7-0.5,1.2-0.9,1.7c-0.4,0.6-0.8,1.1-1.2,1.7
			c-0.1,0.2-0.3,0.4-0.1,0.5c0.2,0.2,0.4,0,0.6-0.1c0.7-0.4,1.3-1,1.8-1.6c0.4-0.5,0.9-1,1.3-1.4C81.4,35.4,81.5,35.4,81.4,35.6z"/>
		<path class="st10" d="M87,33.9c-0.4-0.5-1-0.2-1.4-0.2c1-1.5,2.2-3,3.1-4.6c0.1-0.2,0.3-0.5,0.4-0.8c0.1-0.1,0.1-0.3,0-0.4
			c-0.1-0.1-0.3,0-0.4,0c-0.2,0.1-0.3,0.2-0.5,0.1c0.6-0.6,2.4-1.3,3.2-1.2c0.6,0.1,0.8,0.4,0.6,1c-0.2,0.5-0.5,0.9-0.8,1.2
			c-0.8,0.9-1.6,1.8-2.4,2.7C88.1,32.4,87.6,33.2,87,33.9z"/>
		<path class="st10" d="M93.4,34c-0.4-0.3-0.9-0.2-1.4-0.2c0.9-1.4,1.9-2.7,2.8-4.1c0.2-0.3,0.3-0.6,0.4-0.9c0.1-0.4,0-0.5-0.4-0.4
			c-0.2,0.1-0.3,0.2-0.6,0c1-0.6,1.9-1,3.1-1.1c0.8-0.1,1.1,0.4,0.8,1.2c-0.1,0.3-0.3,0.6-0.5,0.8C96.2,30.9,94.8,32.5,93.4,34z"/>
		<path class="st11" d="M96,36.8c-0.4,0.4-0.7,0.7-1.2,1c0.7-2,1.5-4,2.2-5.9c1.1-3,2.3-5.9,3.4-8.9c0.2-0.4,0.3-0.9,0.3-1.4
			c0.3-0.1,0.4,0.1,0.5,0.3c0.1,0.2,0.1,0.4,0.3,0.6c0.1,0.2,0.3,0.4,0.2,0.6c-0.5,0.8-0.8,1.8-1.1,2.7c-0.9,2.3-1.7,4.6-2.7,6.9
			c-0.1,0.2-0.1,0.4,0,0.6C97.1,34.5,96.9,35.8,96,36.8z"/>
		<path class="st12" d="M104.1,31.4c0,0.1,0,0.2,0,0.4c-0.9,2.1-1.6,4.2-2.4,6.3c-1,2.5-2,5.1-2.9,7.6c-0.9,2.4-3.5,2.6-4.8,1.5
			c-0.5-0.4-0.8-0.9-1.1-1.5c0.1-0.3,0.1-0.7,0.6-0.7c0.4,0.1,0.4,0.7,0.9,0.7c0.2,0.2,0.5,0.3,0.8,0.4c0.2,0.1,0.5,0,0.7,0.3
			c0.2,0.3,0,0.5-0.1,0.8c-0.2,0.3-0.5,0.1-0.6,0.2c0.9,0.1,1.7,0,2.5-0.7c0.5-0.4,0.8-1,1-1.6c1.7-4.4,3.4-8.8,5.1-13.2
			C103.7,31.6,103.8,31.3,104.1,31.4z"/>
		<path class="st11" d="M93.4,45.1c-0.2,0.2-0.4,0.4-0.6,0.6c-0.4-0.8-0.5-1.6-0.2-2.5c0.5-1.2,0.9-2.5,1.4-3.7
			c0.1-0.2,0.2-0.4,0.1-0.6c0.5-0.3,0.8-0.8,1.3-1c0.3,0.3,0.1,0.6,0,0.8c-0.5,1.3-1,2.6-1.5,3.8c-0.3,0.7-0.5,1.3-0.5,2
			C93.6,44.8,93.6,45,93.4,45.1z"/>
		<path class="st13" d="M81.4,35.6c0-0.1-0.1-0.1-0.1-0.2c0.8-1.1,1.7-2.2,2.3-3.4c0.2-0.5,0.6-0.8,1.2-0.7c0.3,0.1,0.5,0.2,0.5,0.5
			c0,0.3-0.3,0.3-0.6,0.3c-0.7,0-1,0.4-1.2,0.9c-0.4,0.9-0.7,1.9-1,2.8c-0.2,0.6-0.3,1.1-0.6,1.6c-0.2-0.5-0.6-0.3-1-0.4
			c0.3-0.6,0.6-1.1,0.9-1.7C81.6,35.3,81.6,35.5,81.4,35.6z"/>
		<path class="st7" d="M59,32.5c-0.4,0-0.6-0.2-0.7-0.6c0-0.6,0.7-1.3,1.3-1.3c0.4,0,0.6,0.2,0.6,0.6C60.3,31.8,59.6,32.5,59,32.5z"
			/>
		<path class="st14" d="M101.3,22.6c-0.2-0.3-0.4-0.6-0.6-1c-0.1-1.1,0.1-1.3,1.2-1.1c0.2,0,0.3,0,0.5,0.1c0.2,0.2,0.1,0.4,0,0.7
			c-0.1,0.2-0.1,0.5-0.3,0.6c-0.1,0.2-0.2,0.3-0.3,0.5C101.8,22.6,101.6,22.8,101.3,22.6z"/>
		<path class="st15" d="M103.4,20.8c0.4,0.1,0.7,0.2,1.1,0.4c0.2,0.2,0.1,0.4-0.1,0.6c-0.5,0.2-0.9,0-1.3-0.4
			C103.1,21.1,103.2,21,103.4,20.8z"/>
		<path class="st16" d="M103.4,20.8c0,0.2-0.1,0.3-0.1,0.5c-0.4,0.3-0.7,0.3-1.1-0.1c0.1-0.2,0.2-0.4,0.2-0.6
			C102.8,20.7,103.1,20.7,103.4,20.8z"/>
		<path class="st17" d="M106.2,22c-0.1,0.2-0.2,0.4-0.2,0.6c-0.5,0.2-0.7-0.2-0.9-0.6c0-0.2,0.1-0.4,0.3-0.5
			C105.6,21.7,105.9,21.9,106.2,22z"/>
		<path class="st18" d="M105.4,21.5c0,0.2-0.1,0.3-0.1,0.5c-0.5,0.2-0.7,0.1-0.8-0.4c0-0.2,0.1-0.3,0.1-0.5
			C104.8,21.3,105.1,21.4,105.4,21.5z"/>
		<path class="st2" d="M69.7,36.7c-0.4,0-0.8,0-0.8-0.4c0-0.3,0.1-0.7,0.5-0.8c0.3-0.1,0.5-0.4,0.8-0.7c0.5-0.5,1.1-0.9,1.8-1.1
			c0.3-0.1,0.7-0.1,0.9,0.2c0.2,0.3,0.2,0.6,0.1,0.9c-0.1,0.3-0.3,0.5-0.5,0.7C71.6,36.3,70.6,36.6,69.7,36.7z"/>
		<path class="st19" d="M93.4,45.1c-0.2-0.7-0.1-1.3,0.1-2c0.7-1.7,1.3-3.5,2-5.2c0.3-0.7,1-1,1.4-1.7c-0.5,0.1-0.6,0.5-1,0.6
			c0.5-1.2,0.7-2.5,1.6-3.5c0.2-0.4,0.3-0.8,0.9-0.6c0.2,0.2,0.2,0.4,0.1,0.6c-0.4,1.3-1,2.6-1.5,3.8c-0.3,0.6-0.5,1.2-0.6,1.8
			c0,0.2-0.2,0.4-0.2,0.6c-0.4,1.1-0.8,2.2-1.3,3.3c-0.3,0.9-0.7,1.7-0.5,2.6c0,0.2,0,0.4-0.2,0.4C93.8,45.8,93.6,45.5,93.4,45.1z"
			/>
		<path class="st20" d="M95.8,46.5c-0.3,0-0.5,0-0.8-0.1c0-0.9,0.5-1.7,0.8-2.5c0.6-1.5,1.1-3,1.8-4.5c0.4-0.9,0.7-1.9,1.1-2.8
			c0.1-0.2,0.2-0.5,0.4-0.6c0,0,0-0.1,0-0.2c0-0.8,0.5-1.4,0.7-2.1c0.1-0.5,0.4-0.9,0.4-1.4c0.1-0.3,0.3-0.3,0.5-0.4
			c0.2-0.1,0.3-0.2,0.5-0.3c0.6-0.1,0.7-0.6,1.2-0.9c0.1-0.1,0.2-0.2,0.4-0.3c0.2-0.1,0.4-0.2,0.4,0.1c-1.5,3.9-3,7.8-4.5,11.6
			c-0.3,0.8-0.7,1.7-1,2.5c-0.1,0.4-0.3,0.8-0.6,1.1C96.6,46.5,96.3,46.7,95.8,46.5z"/>
		<path class="st21" d="M104.1,31.4c-0.7,1.2-1.1,2.6-1.6,3.9c-1.4,3.5-2.7,7-4,10.5c-0.7,1.8-2.8,2.4-4.3,1.3
			c0.5,0.1,0.9,0.1,1.4,0.1c0.3-0.3,0.7-0.5,1.2-0.4c0.9-0.4,1.3-1.1,1.6-2c2.5-6.6,5.1-13.2,7.6-19.8c0.2-0.6,0.6-1.1,1.1-1.5
			c0.1-0.1,0.2-0.3,0.4-0.1c0.1,0.1,0.1,0.3,0,0.4c0,0,0,0.1-0.1,0.1c-1.1,0.8-1.3,2.1-1.8,3.2C105.2,28.7,104.7,30,104.1,31.4z"/>
		<path class="st22" d="M103.1,30.5c-0.4-0.2-0.4,0.3-0.7,0.4c-0.5-0.1-0.3-0.5-0.2-0.8c0.6-1.5,1.2-3.1,1.7-4.6
			c0.2-0.6,0.5-1.3,0.7-1.9c0.1-0.3,0.2-0.5,0.4-0.7c0.3-0.1,0.6-0.1,0.8,0.2c-0.5,1.7-1.3,3.4-1.9,5
			C103.8,28.9,103.5,29.8,103.1,30.5z"/>
		<path class="st10" d="M106,23.1c-0.3,0-0.6,0-0.8,0c-0.2,0.1-0.4,0.2-0.6,0.1c-0.1-0.1-0.3-0.1-0.4-0.1c-0.2-0.1-0.4-0.1-0.7-0.2
			c-0.3-0.2-0.6-0.2-0.8-0.4c-0.2-0.2-0.6-0.2-0.5-0.7c-0.2-0.2-0.2-0.5,0.1-0.6c0.4,0,0.7,0.1,1.1,0.1c0.4,0.1,0.7,0.2,1.1,0.4
			c0.3,0.1,0.6,0.3,0.8,0.4c0.2,0.2,0.5,0.4,0.7,0.6C106,22.8,106.1,22.9,106,23.1z"/>
		<path class="st23" d="M96.8,46.8c-0.4,0.3-0.8,0.4-1.2,0.4c0-0.2,0.1-0.5,0.1-0.7c0.4-0.1,0.8-0.3,1.2-0.6
			C96.9,46.2,96.9,46.5,96.8,46.8z"/>
		<path class="st24" d="M98.4,32.8c-0.3,0.1-0.5,0.4-0.8,0.5c-0.1-0.8,0.3-1.4,0.6-2.1c1-2.5,1.9-5.1,2.9-7.6
			c0.1-0.3,0.2-0.5,0.5-0.6c0.2,0,0.3,0,0.4,0.2c0.3,0.2,0.2,0.5,0.1,0.8c-1,2.6-2,5.3-3,7.9c-0.1,0.2-0.3,0.4-0.4,0.6
			C98.7,32.8,98.6,32.8,98.4,32.8z"/>
		<path class="st25" d="M101.8,23.4c-0.1-0.1-0.2-0.2-0.2-0.2c-0.1-0.2-0.2-0.3-0.2-0.5c0.4-0.2,0.3-0.8,0.7-0.9
			c0.2,0.2,0.4,0.3,0.6,0.5c0,0.3-0.2,0.6-0.3,0.8C102.3,23.4,102.1,23.5,101.8,23.4z"/>
		<path class="st26" d="M98.4,32.8c0.1-0.1,0.1-0.1,0.2-0.2c0.3-0.5,0.8-0.6,1.3-0.6c0.2,0,0.3,0.1,0.3,0.2c0.4,0.2,0.2,0.5,0.1,0.7
			c-0.3,0.9-0.8,1.8-1,2.8c0.1,0.1,0,0.2,0,0.2c-0.6,0.7-0.7,1.6-1,2.4c-1,2.5-1.9,5-2.9,7.6c-0.1,0.2-0.1,0.3-0.3,0.4
			c-0.3,0-0.6-0.1-0.8-0.4c-0.3-1-0.1-2,0.3-2.9c0.4-1,0.8-2,1.2-3c0.1-0.2,0.2-0.5,0.3-0.6c0.3-0.1,0.2-0.3,0.1-0.5
			c0.5-1.5,1.1-3,1.7-4.5C98.1,33.9,98.2,33.4,98.4,32.8z"/>
		<path class="st27" d="M96.1,38.9c0.2,0,0.5,0.1,0.4,0.4c-0.1,0.3-0.3,0.3-0.5,0.2C95.9,39.2,95.9,39,96.1,38.9z"/>
		<path class="st24" d="M100.2,32.2c-0.1,0-0.2,0-0.3,0c-0.5,0.1-0.5-0.2-0.5-0.5c0.1-0.3,0.2-0.7,0.3-1c1-2.5,2-5.1,2.9-7.6
			c0.2-0.4,0.3-0.7,0.8-0.5c0.2,0.1,0.4,0.2,0.6,0.2c-0.1,0.7-0.4,1.3-0.6,1.9c-0.9,2.4-1.8,4.8-2.8,7.2
			C100.6,32.1,100.4,32.1,100.2,32.2z"/>
		<path class="st28" d="M104.5,23c0.2,0,0.4,0,0.6,0.1c-0.4,1.6-1.1,3-1.7,4.5c-0.3,0.9-0.7,1.8-1,2.7c-0.1,0.2-0.1,0.4,0,0.6
			c-0.3,0.5-0.8,0.6-1.2,0.9c-0.3-0.2-0.2-0.4-0.1-0.7c1-2.6,2-5.1,3-7.7C104.1,23.2,104.3,23,104.5,23z"/>
		<path class="st12" d="M104.5,23c-1,2.7-2.1,5.4-3.1,8.1c-0.1,0.2-0.1,0.5-0.2,0.7c-0.1,0.1-0.3,0.2-0.5,0.2
			c-0.3-0.1-0.2-0.4-0.1-0.6c1-2.7,2.1-5.3,3.1-8c0.1-0.2,0.2-0.5,0.4-0.6C104.3,22.9,104.4,22.9,104.5,23z"/>
		<path class="st29" d="M99.3,36c0-0.1,0-0.1,0-0.2c0.2-0.1,0.4-0.2,0.6,0.1c0.1,0.1,0.1,0.3-0.1,0.4C99.5,36.4,99.4,36.2,99.3,36z"
			/>
		<path class="st30" d="M103.5,22.6c-0.3,0-0.4,0.2-0.5,0.5c-1.1,2.8-2.2,5.6-3.3,8.5c-0.1,0.2-0.2,0.5,0.1,0.7
			c-0.4,0.1-0.9,0.3-1.3,0.4c0.6-1.9,1.4-3.8,2.1-5.7c0.4-0.9,0.7-1.9,1.1-2.8c0.1-0.2,0.2-0.5,0-0.8c0.3-0.1,0.4-0.4,0.5-0.7
			c0.1-0.2,0.2-0.4,0.4-0.5C103,22.4,103.3,22.5,103.5,22.6z"/>
		<path class="st31" d="M97.3,38.6c-0.4,0-0.6-0.2-0.6-0.6c0-0.4,0.2-0.6,0.6-0.6c0.4,0,0.6,0.3,0.6,0.7
			C97.9,38.4,97.7,38.6,97.3,38.6z"/>
	</g>
</g>
<text transform="matrix(1 0 0 1 95.6554 151.5842)" class="st32 st33">Meta Description</text>
</svg>
