<?xml version="1.0" encoding="utf-8"?>
<!-- Generator: Adobe Illustrator 21.0.0, SVG Export Plug-In . SVG Version: 6.00 Build 0)  -->
<svg version="1.1" id="Layer_1" xmlns="http://www.w3.org/2000/svg" xmlns:xlink="http://www.w3.org/1999/xlink" x="0px" y="0px"
	 viewBox="0 0 259 180" style="enable-background:new 0 0 259 180;" xml:space="preserve">
<style type="text/css">
	.st0{fill:#FFFFFF;}
	.st1{font-family:'Verdana';}
	.st2{font-size:25.652px;}
	.st3{font-size:10px;}
</style>
<g>
	<g>
		<g>
			<rect x="72.5" y="65" width="28.3" height="28.3"/>
			<rect x="34.2" y="65" width="28.3" height="28.3"/>
			<rect x="34.2" y="103.1" width="28.3" height="28.3"/>
			<rect x="72.5" y="103.1" width="28.3" height="28.3"/>
		</g>
		<text transform="matrix(1 0 0 1 40.4887 88.2813)" class="st0 st1 st2">1</text>
		<text transform="matrix(1 0 0 1 78.4893 88.2817)" class="st0 st1 st2">2</text>
		<text transform="matrix(1 0 0 1 39.6481 127.1228)" class="st0 st1 st2">3</text>
		<text transform="matrix(1 0 0 1 77.9946 127.1228)" class="st0 st1 st2">4</text>
		<g>
			<rect x="195.8" y="66" width="28.3" height="28.3"/>
			<rect x="157.5" y="66" width="28.3" height="28.3"/>
			<rect x="157.5" y="104.1" width="28.3" height="28.3"/>
			<rect x="195.8" y="104.1" width="28.3" height="28.3"/>
		</g>
		<text transform="matrix(1 0 0 1 163.822 89.2813)" class="st0 st1 st2">4</text>
		<text transform="matrix(1 0 0 1 201.8226 89.2817)" class="st0 st1 st2">3</text>
		<text transform="matrix(1 0 0 1 162.9815 128.1228)" class="st0 st1 st2">2</text>
		<text transform="matrix(1 0 0 1 201.3279 128.1228)" class="st0 st1 st2">1</text>
	</g>
	<text transform="matrix(1 0 0 1 57.6744 52.7337)" class="st1 st3">sort</text>
	<text transform="matrix(1 0 0 1 156.3398 52.7337)" class="st1 st3">sort | reverse</text>
</g>
</svg>
