<?xml version="1.0" encoding="utf-8"?>
<!-- Generator: Adobe Illustrator 21.0.0, SVG Export Plug-In . SVG Version: 6.00 Build 0)  -->
<svg version="1.1" id="Layer_1" xmlns="http://www.w3.org/2000/svg" xmlns:xlink="http://www.w3.org/1999/xlink" x="0px" y="0px"
	 viewBox="0 0 259 180" style="enable-background:new 0 0 259 180;" xml:space="preserve">
<g>
	<path d="M20.8,98.4V83.6h-5.5v-2h13.3v2H23v14.8H20.8z"/>
	<path d="M31.2,98.4V81.6h2.2v16.8H31.2z"/>
	<path d="M37.3,98.4V81.6h5.8c1.3,0,2.3,0.1,3,0.2c1,0.2,1.8,0.6,2.5,1.2c0.9,0.7,1.5,1.7,2,2.9c0.4,1.2,0.7,2.5,0.7,4
		c0,1.3-0.1,2.4-0.4,3.4c-0.3,1-0.7,1.8-1.1,2.4s-1,1.2-1.5,1.5c-0.6,0.4-1.2,0.7-2,0.8c-0.8,0.2-1.7,0.3-2.7,0.3H37.3z M39.6,96.4
		h3.6c1.1,0,2-0.1,2.6-0.3c0.6-0.2,1.1-0.5,1.5-0.9c0.5-0.5,0.9-1.2,1.2-2.1s0.4-2,0.4-3.2c0-1.8-0.3-3.1-0.9-4s-1.3-1.6-2.1-1.9
		c-0.6-0.2-1.6-0.3-2.9-0.3h-3.5V96.4z"/>
	<path d="M52.4,98.4l6.4-16.8h2.4l6.9,16.8h-2.5l-2-5.1h-7l-1.8,5.1H52.4z M57.3,91.5H63l-1.8-4.6c-0.5-1.4-0.9-2.6-1.2-3.5
		c-0.2,1.1-0.5,2.1-0.9,3.2L57.3,91.5z"/>
	<path d="M69.8,98.4V81.6h2.2v8.3l8.3-8.3h3l-7,6.8l7.4,10h-2.9l-6-8.5l-2.7,2.7v5.8H69.8z"/>
	<path d="M88.9,98.4l6.4-16.8h2.4l6.9,16.8h-2.5l-2-5.1h-7l-1.8,5.1H88.9z M93.8,91.5h5.7l-1.8-4.6c-0.5-1.4-0.9-2.6-1.2-3.5
		c-0.2,1.1-0.5,2.1-0.9,3.2L93.8,91.5z"/>
	<path d="M106.4,98.4V81.6h5.8c1.3,0,2.3,0.1,3,0.2c1,0.2,1.8,0.6,2.5,1.2c0.9,0.7,1.5,1.7,2,2.9c0.4,1.2,0.7,2.5,0.7,4
		c0,1.3-0.1,2.4-0.4,3.4s-0.7,1.8-1.1,2.4c-0.5,0.6-1,1.2-1.5,1.5c-0.6,0.4-1.2,0.7-2,0.8s-1.7,0.3-2.7,0.3H106.4z M108.6,96.4h3.6
		c1.1,0,2-0.1,2.6-0.3c0.6-0.2,1.1-0.5,1.5-0.9c0.5-0.5,0.9-1.2,1.2-2.1s0.4-2,0.4-3.2c0-1.8-0.3-3.1-0.9-4
		c-0.6-0.9-1.3-1.6-2.1-1.9c-0.6-0.2-1.6-0.3-2.9-0.3h-3.5V96.4z"/>
	<path d="M121.5,98.4l6.4-16.8h2.4l6.9,16.8h-2.5l-2-5.1h-7l-1.8,5.1H121.5z M126.4,91.5h5.7l-1.8-4.6c-0.5-1.4-0.9-2.6-1.2-3.5
		c-0.2,1.1-0.5,2.1-0.9,3.2L126.4,91.5z"/>
	<path d="M152.1,91.8v-2l7.1,0v6.2c-1.1,0.9-2.2,1.5-3.4,2c-1.2,0.4-2.4,0.7-3.6,0.7c-1.6,0-3.1-0.4-4.5-1.1
		c-1.3-0.7-2.4-1.7-3.1-3.1c-0.7-1.3-1-2.8-1-4.5c0-1.6,0.3-3.2,1-4.6c0.7-1.4,1.7-2.5,2.9-3.2c1.3-0.7,2.8-1,4.4-1
		c1.2,0,2.3,0.2,3.3,0.6c1,0.4,1.8,0.9,2.3,1.6c0.6,0.7,1,1.6,1.3,2.7l-2,0.5c-0.3-0.9-0.6-1.5-0.9-2c-0.4-0.5-0.9-0.9-1.6-1.2
		c-0.7-0.3-1.5-0.4-2.3-0.4c-1,0-1.9,0.2-2.6,0.5c-0.7,0.3-1.3,0.7-1.8,1.2c-0.5,0.5-0.8,1.1-1.1,1.7c-0.4,1-0.6,2.2-0.6,3.4
		c0,1.5,0.3,2.7,0.8,3.8s1.3,1.8,2.3,2.2c1,0.5,2,0.7,3.1,0.7c1,0,1.9-0.2,2.8-0.6c0.9-0.4,1.6-0.8,2.1-1.2v-3.1H152.1z"/>
	<path d="M160.6,98.4l6.4-16.8h2.4l6.9,16.8h-2.5l-2-5.1h-7l-1.8,5.1H160.6z M165.5,91.5h5.7l-1.8-4.6c-0.5-1.4-0.9-2.6-1.2-3.5
		c-0.2,1.1-0.5,2.1-0.9,3.2L165.5,91.5z"/>
	<path d="M178,98.4V81.6h3.3l4,11.9c0.4,1.1,0.6,1.9,0.8,2.5c0.2-0.6,0.5-1.5,0.9-2.7l4-11.7h3v16.8h-2.1v-14l-4.9,14h-2l-4.9-14.3
		v14.3H178z"/>
	<path d="M197.6,98.4V81.6h6.3c1.3,0,2.3,0.2,3.1,0.5c0.8,0.3,1.4,0.9,1.8,1.6c0.4,0.7,0.7,1.4,0.7,2.2c0,0.7-0.2,1.4-0.6,2
		c-0.4,0.6-1,1.1-1.8,1.5c1,0.3,1.8,0.8,2.3,1.5s0.8,1.6,0.8,2.5c0,0.8-0.2,1.5-0.5,2.2s-0.7,1.2-1.2,1.6c-0.5,0.4-1.1,0.6-1.8,0.8
		s-1.6,0.3-2.7,0.3H197.6z M199.8,88.7h3.6c1,0,1.7-0.1,2.1-0.2c0.6-0.2,1-0.4,1.3-0.8c0.3-0.4,0.4-0.9,0.4-1.5c0-0.6-0.1-1-0.4-1.5
		c-0.3-0.4-0.6-0.7-1.1-0.9c-0.5-0.2-1.3-0.2-2.6-0.2h-3.4V88.7z M199.8,96.4h4.2c0.7,0,1.2,0,1.5-0.1c0.5-0.1,0.9-0.2,1.3-0.5
		c0.3-0.2,0.6-0.5,0.8-0.9s0.3-0.9,0.3-1.4c0-0.6-0.2-1.2-0.5-1.6c-0.3-0.5-0.8-0.8-1.3-1c-0.6-0.2-1.4-0.3-2.5-0.3h-3.9V96.4z"/>
	<path d="M211.4,98.4l6.4-16.8h2.4l6.9,16.8h-2.5l-2-5.1h-7l-1.8,5.1H211.4z M216.3,91.5h5.7l-1.8-4.6c-0.5-1.4-0.9-2.6-1.2-3.5
		c-0.2,1.1-0.5,2.1-0.9,3.2L216.3,91.5z"/>
	<path d="M229,98.4V81.6h7.4c1.5,0,2.6,0.2,3.4,0.5s1.4,0.8,1.9,1.6c0.5,0.8,0.7,1.6,0.7,2.5c0,1.2-0.4,2.2-1.2,3
		c-0.8,0.8-2,1.3-3.6,1.6c0.6,0.3,1,0.6,1.3,0.8c0.6,0.6,1.3,1.3,1.8,2.2l2.9,4.6H241l-2.2-3.5c-0.6-1-1.2-1.8-1.6-2.3
		c-0.4-0.5-0.8-0.9-1.1-1.1c-0.3-0.2-0.7-0.4-1-0.4c-0.3-0.1-0.7-0.1-1.2-0.1h-2.6v7.5H229z M231.2,89h4.8c1,0,1.8-0.1,2.4-0.3
		c0.6-0.2,1-0.5,1.3-1c0.3-0.5,0.4-1,0.4-1.5c0-0.8-0.3-1.4-0.9-2c-0.6-0.5-1.5-0.8-2.7-0.8h-5.3V89z"/>
</g>
</svg>
